G75*
%MOIN*%
%OFA0B0*%
%FSLAX25Y25*%
%IPPOS*%
%LPD*%
%AMOC8*
5,1,8,0,0,1.08239X$1,22.5*
%
%ADD10C,0.00000*%
%ADD11C,0.04800*%
%ADD12R,0.04724X0.04724*%
%ADD13C,0.04724*%
%ADD14C,0.07050*%
%ADD15OC8,0.04800*%
%ADD16OC8,0.05000*%
%ADD17C,0.05000*%
%ADD18R,0.04600X0.06300*%
%ADD19C,0.06000*%
%ADD20C,0.05000*%
%ADD21C,0.01200*%
D10*
X0001600Y0012379D02*
X0001600Y0291080D01*
X0281521Y0291080D01*
X0281521Y0012379D01*
X0001600Y0012379D01*
X0010498Y0032379D02*
X0010500Y0032535D01*
X0010506Y0032691D01*
X0010516Y0032846D01*
X0010530Y0033001D01*
X0010548Y0033156D01*
X0010570Y0033310D01*
X0010595Y0033464D01*
X0010625Y0033617D01*
X0010659Y0033769D01*
X0010696Y0033921D01*
X0010737Y0034071D01*
X0010782Y0034220D01*
X0010831Y0034368D01*
X0010884Y0034515D01*
X0010940Y0034660D01*
X0011000Y0034804D01*
X0011064Y0034946D01*
X0011132Y0035087D01*
X0011203Y0035225D01*
X0011277Y0035362D01*
X0011355Y0035497D01*
X0011436Y0035630D01*
X0011521Y0035761D01*
X0011609Y0035890D01*
X0011700Y0036016D01*
X0011795Y0036140D01*
X0011892Y0036261D01*
X0011993Y0036380D01*
X0012097Y0036497D01*
X0012203Y0036610D01*
X0012313Y0036721D01*
X0012425Y0036829D01*
X0012540Y0036934D01*
X0012658Y0037037D01*
X0012778Y0037136D01*
X0012901Y0037232D01*
X0013026Y0037325D01*
X0013153Y0037414D01*
X0013283Y0037501D01*
X0013415Y0037584D01*
X0013549Y0037663D01*
X0013685Y0037740D01*
X0013823Y0037812D01*
X0013962Y0037882D01*
X0014104Y0037947D01*
X0014247Y0038009D01*
X0014391Y0038067D01*
X0014537Y0038122D01*
X0014685Y0038173D01*
X0014833Y0038220D01*
X0014983Y0038263D01*
X0015134Y0038302D01*
X0015286Y0038338D01*
X0015438Y0038369D01*
X0015592Y0038397D01*
X0015746Y0038421D01*
X0015900Y0038441D01*
X0016055Y0038457D01*
X0016211Y0038469D01*
X0016366Y0038477D01*
X0016522Y0038481D01*
X0016678Y0038481D01*
X0016834Y0038477D01*
X0016989Y0038469D01*
X0017145Y0038457D01*
X0017300Y0038441D01*
X0017454Y0038421D01*
X0017608Y0038397D01*
X0017762Y0038369D01*
X0017914Y0038338D01*
X0018066Y0038302D01*
X0018217Y0038263D01*
X0018367Y0038220D01*
X0018515Y0038173D01*
X0018663Y0038122D01*
X0018809Y0038067D01*
X0018953Y0038009D01*
X0019096Y0037947D01*
X0019238Y0037882D01*
X0019377Y0037812D01*
X0019515Y0037740D01*
X0019651Y0037663D01*
X0019785Y0037584D01*
X0019917Y0037501D01*
X0020047Y0037414D01*
X0020174Y0037325D01*
X0020299Y0037232D01*
X0020422Y0037136D01*
X0020542Y0037037D01*
X0020660Y0036934D01*
X0020775Y0036829D01*
X0020887Y0036721D01*
X0020997Y0036610D01*
X0021103Y0036497D01*
X0021207Y0036380D01*
X0021308Y0036261D01*
X0021405Y0036140D01*
X0021500Y0036016D01*
X0021591Y0035890D01*
X0021679Y0035761D01*
X0021764Y0035630D01*
X0021845Y0035497D01*
X0021923Y0035362D01*
X0021997Y0035225D01*
X0022068Y0035087D01*
X0022136Y0034946D01*
X0022200Y0034804D01*
X0022260Y0034660D01*
X0022316Y0034515D01*
X0022369Y0034368D01*
X0022418Y0034220D01*
X0022463Y0034071D01*
X0022504Y0033921D01*
X0022541Y0033769D01*
X0022575Y0033617D01*
X0022605Y0033464D01*
X0022630Y0033310D01*
X0022652Y0033156D01*
X0022670Y0033001D01*
X0022684Y0032846D01*
X0022694Y0032691D01*
X0022700Y0032535D01*
X0022702Y0032379D01*
X0022700Y0032223D01*
X0022694Y0032067D01*
X0022684Y0031912D01*
X0022670Y0031757D01*
X0022652Y0031602D01*
X0022630Y0031448D01*
X0022605Y0031294D01*
X0022575Y0031141D01*
X0022541Y0030989D01*
X0022504Y0030837D01*
X0022463Y0030687D01*
X0022418Y0030538D01*
X0022369Y0030390D01*
X0022316Y0030243D01*
X0022260Y0030098D01*
X0022200Y0029954D01*
X0022136Y0029812D01*
X0022068Y0029671D01*
X0021997Y0029533D01*
X0021923Y0029396D01*
X0021845Y0029261D01*
X0021764Y0029128D01*
X0021679Y0028997D01*
X0021591Y0028868D01*
X0021500Y0028742D01*
X0021405Y0028618D01*
X0021308Y0028497D01*
X0021207Y0028378D01*
X0021103Y0028261D01*
X0020997Y0028148D01*
X0020887Y0028037D01*
X0020775Y0027929D01*
X0020660Y0027824D01*
X0020542Y0027721D01*
X0020422Y0027622D01*
X0020299Y0027526D01*
X0020174Y0027433D01*
X0020047Y0027344D01*
X0019917Y0027257D01*
X0019785Y0027174D01*
X0019651Y0027095D01*
X0019515Y0027018D01*
X0019377Y0026946D01*
X0019238Y0026876D01*
X0019096Y0026811D01*
X0018953Y0026749D01*
X0018809Y0026691D01*
X0018663Y0026636D01*
X0018515Y0026585D01*
X0018367Y0026538D01*
X0018217Y0026495D01*
X0018066Y0026456D01*
X0017914Y0026420D01*
X0017762Y0026389D01*
X0017608Y0026361D01*
X0017454Y0026337D01*
X0017300Y0026317D01*
X0017145Y0026301D01*
X0016989Y0026289D01*
X0016834Y0026281D01*
X0016678Y0026277D01*
X0016522Y0026277D01*
X0016366Y0026281D01*
X0016211Y0026289D01*
X0016055Y0026301D01*
X0015900Y0026317D01*
X0015746Y0026337D01*
X0015592Y0026361D01*
X0015438Y0026389D01*
X0015286Y0026420D01*
X0015134Y0026456D01*
X0014983Y0026495D01*
X0014833Y0026538D01*
X0014685Y0026585D01*
X0014537Y0026636D01*
X0014391Y0026691D01*
X0014247Y0026749D01*
X0014104Y0026811D01*
X0013962Y0026876D01*
X0013823Y0026946D01*
X0013685Y0027018D01*
X0013549Y0027095D01*
X0013415Y0027174D01*
X0013283Y0027257D01*
X0013153Y0027344D01*
X0013026Y0027433D01*
X0012901Y0027526D01*
X0012778Y0027622D01*
X0012658Y0027721D01*
X0012540Y0027824D01*
X0012425Y0027929D01*
X0012313Y0028037D01*
X0012203Y0028148D01*
X0012097Y0028261D01*
X0011993Y0028378D01*
X0011892Y0028497D01*
X0011795Y0028618D01*
X0011700Y0028742D01*
X0011609Y0028868D01*
X0011521Y0028997D01*
X0011436Y0029128D01*
X0011355Y0029261D01*
X0011277Y0029396D01*
X0011203Y0029533D01*
X0011132Y0029671D01*
X0011064Y0029812D01*
X0011000Y0029954D01*
X0010940Y0030098D01*
X0010884Y0030243D01*
X0010831Y0030390D01*
X0010782Y0030538D01*
X0010737Y0030687D01*
X0010696Y0030837D01*
X0010659Y0030989D01*
X0010625Y0031141D01*
X0010595Y0031294D01*
X0010570Y0031448D01*
X0010548Y0031602D01*
X0010530Y0031757D01*
X0010516Y0031912D01*
X0010506Y0032067D01*
X0010500Y0032223D01*
X0010498Y0032379D01*
X0010498Y0277379D02*
X0010500Y0277535D01*
X0010506Y0277691D01*
X0010516Y0277846D01*
X0010530Y0278001D01*
X0010548Y0278156D01*
X0010570Y0278310D01*
X0010595Y0278464D01*
X0010625Y0278617D01*
X0010659Y0278769D01*
X0010696Y0278921D01*
X0010737Y0279071D01*
X0010782Y0279220D01*
X0010831Y0279368D01*
X0010884Y0279515D01*
X0010940Y0279660D01*
X0011000Y0279804D01*
X0011064Y0279946D01*
X0011132Y0280087D01*
X0011203Y0280225D01*
X0011277Y0280362D01*
X0011355Y0280497D01*
X0011436Y0280630D01*
X0011521Y0280761D01*
X0011609Y0280890D01*
X0011700Y0281016D01*
X0011795Y0281140D01*
X0011892Y0281261D01*
X0011993Y0281380D01*
X0012097Y0281497D01*
X0012203Y0281610D01*
X0012313Y0281721D01*
X0012425Y0281829D01*
X0012540Y0281934D01*
X0012658Y0282037D01*
X0012778Y0282136D01*
X0012901Y0282232D01*
X0013026Y0282325D01*
X0013153Y0282414D01*
X0013283Y0282501D01*
X0013415Y0282584D01*
X0013549Y0282663D01*
X0013685Y0282740D01*
X0013823Y0282812D01*
X0013962Y0282882D01*
X0014104Y0282947D01*
X0014247Y0283009D01*
X0014391Y0283067D01*
X0014537Y0283122D01*
X0014685Y0283173D01*
X0014833Y0283220D01*
X0014983Y0283263D01*
X0015134Y0283302D01*
X0015286Y0283338D01*
X0015438Y0283369D01*
X0015592Y0283397D01*
X0015746Y0283421D01*
X0015900Y0283441D01*
X0016055Y0283457D01*
X0016211Y0283469D01*
X0016366Y0283477D01*
X0016522Y0283481D01*
X0016678Y0283481D01*
X0016834Y0283477D01*
X0016989Y0283469D01*
X0017145Y0283457D01*
X0017300Y0283441D01*
X0017454Y0283421D01*
X0017608Y0283397D01*
X0017762Y0283369D01*
X0017914Y0283338D01*
X0018066Y0283302D01*
X0018217Y0283263D01*
X0018367Y0283220D01*
X0018515Y0283173D01*
X0018663Y0283122D01*
X0018809Y0283067D01*
X0018953Y0283009D01*
X0019096Y0282947D01*
X0019238Y0282882D01*
X0019377Y0282812D01*
X0019515Y0282740D01*
X0019651Y0282663D01*
X0019785Y0282584D01*
X0019917Y0282501D01*
X0020047Y0282414D01*
X0020174Y0282325D01*
X0020299Y0282232D01*
X0020422Y0282136D01*
X0020542Y0282037D01*
X0020660Y0281934D01*
X0020775Y0281829D01*
X0020887Y0281721D01*
X0020997Y0281610D01*
X0021103Y0281497D01*
X0021207Y0281380D01*
X0021308Y0281261D01*
X0021405Y0281140D01*
X0021500Y0281016D01*
X0021591Y0280890D01*
X0021679Y0280761D01*
X0021764Y0280630D01*
X0021845Y0280497D01*
X0021923Y0280362D01*
X0021997Y0280225D01*
X0022068Y0280087D01*
X0022136Y0279946D01*
X0022200Y0279804D01*
X0022260Y0279660D01*
X0022316Y0279515D01*
X0022369Y0279368D01*
X0022418Y0279220D01*
X0022463Y0279071D01*
X0022504Y0278921D01*
X0022541Y0278769D01*
X0022575Y0278617D01*
X0022605Y0278464D01*
X0022630Y0278310D01*
X0022652Y0278156D01*
X0022670Y0278001D01*
X0022684Y0277846D01*
X0022694Y0277691D01*
X0022700Y0277535D01*
X0022702Y0277379D01*
X0022700Y0277223D01*
X0022694Y0277067D01*
X0022684Y0276912D01*
X0022670Y0276757D01*
X0022652Y0276602D01*
X0022630Y0276448D01*
X0022605Y0276294D01*
X0022575Y0276141D01*
X0022541Y0275989D01*
X0022504Y0275837D01*
X0022463Y0275687D01*
X0022418Y0275538D01*
X0022369Y0275390D01*
X0022316Y0275243D01*
X0022260Y0275098D01*
X0022200Y0274954D01*
X0022136Y0274812D01*
X0022068Y0274671D01*
X0021997Y0274533D01*
X0021923Y0274396D01*
X0021845Y0274261D01*
X0021764Y0274128D01*
X0021679Y0273997D01*
X0021591Y0273868D01*
X0021500Y0273742D01*
X0021405Y0273618D01*
X0021308Y0273497D01*
X0021207Y0273378D01*
X0021103Y0273261D01*
X0020997Y0273148D01*
X0020887Y0273037D01*
X0020775Y0272929D01*
X0020660Y0272824D01*
X0020542Y0272721D01*
X0020422Y0272622D01*
X0020299Y0272526D01*
X0020174Y0272433D01*
X0020047Y0272344D01*
X0019917Y0272257D01*
X0019785Y0272174D01*
X0019651Y0272095D01*
X0019515Y0272018D01*
X0019377Y0271946D01*
X0019238Y0271876D01*
X0019096Y0271811D01*
X0018953Y0271749D01*
X0018809Y0271691D01*
X0018663Y0271636D01*
X0018515Y0271585D01*
X0018367Y0271538D01*
X0018217Y0271495D01*
X0018066Y0271456D01*
X0017914Y0271420D01*
X0017762Y0271389D01*
X0017608Y0271361D01*
X0017454Y0271337D01*
X0017300Y0271317D01*
X0017145Y0271301D01*
X0016989Y0271289D01*
X0016834Y0271281D01*
X0016678Y0271277D01*
X0016522Y0271277D01*
X0016366Y0271281D01*
X0016211Y0271289D01*
X0016055Y0271301D01*
X0015900Y0271317D01*
X0015746Y0271337D01*
X0015592Y0271361D01*
X0015438Y0271389D01*
X0015286Y0271420D01*
X0015134Y0271456D01*
X0014983Y0271495D01*
X0014833Y0271538D01*
X0014685Y0271585D01*
X0014537Y0271636D01*
X0014391Y0271691D01*
X0014247Y0271749D01*
X0014104Y0271811D01*
X0013962Y0271876D01*
X0013823Y0271946D01*
X0013685Y0272018D01*
X0013549Y0272095D01*
X0013415Y0272174D01*
X0013283Y0272257D01*
X0013153Y0272344D01*
X0013026Y0272433D01*
X0012901Y0272526D01*
X0012778Y0272622D01*
X0012658Y0272721D01*
X0012540Y0272824D01*
X0012425Y0272929D01*
X0012313Y0273037D01*
X0012203Y0273148D01*
X0012097Y0273261D01*
X0011993Y0273378D01*
X0011892Y0273497D01*
X0011795Y0273618D01*
X0011700Y0273742D01*
X0011609Y0273868D01*
X0011521Y0273997D01*
X0011436Y0274128D01*
X0011355Y0274261D01*
X0011277Y0274396D01*
X0011203Y0274533D01*
X0011132Y0274671D01*
X0011064Y0274812D01*
X0011000Y0274954D01*
X0010940Y0275098D01*
X0010884Y0275243D01*
X0010831Y0275390D01*
X0010782Y0275538D01*
X0010737Y0275687D01*
X0010696Y0275837D01*
X0010659Y0275989D01*
X0010625Y0276141D01*
X0010595Y0276294D01*
X0010570Y0276448D01*
X0010548Y0276602D01*
X0010530Y0276757D01*
X0010516Y0276912D01*
X0010506Y0277067D01*
X0010500Y0277223D01*
X0010498Y0277379D01*
X0260498Y0277379D02*
X0260500Y0277535D01*
X0260506Y0277691D01*
X0260516Y0277846D01*
X0260530Y0278001D01*
X0260548Y0278156D01*
X0260570Y0278310D01*
X0260595Y0278464D01*
X0260625Y0278617D01*
X0260659Y0278769D01*
X0260696Y0278921D01*
X0260737Y0279071D01*
X0260782Y0279220D01*
X0260831Y0279368D01*
X0260884Y0279515D01*
X0260940Y0279660D01*
X0261000Y0279804D01*
X0261064Y0279946D01*
X0261132Y0280087D01*
X0261203Y0280225D01*
X0261277Y0280362D01*
X0261355Y0280497D01*
X0261436Y0280630D01*
X0261521Y0280761D01*
X0261609Y0280890D01*
X0261700Y0281016D01*
X0261795Y0281140D01*
X0261892Y0281261D01*
X0261993Y0281380D01*
X0262097Y0281497D01*
X0262203Y0281610D01*
X0262313Y0281721D01*
X0262425Y0281829D01*
X0262540Y0281934D01*
X0262658Y0282037D01*
X0262778Y0282136D01*
X0262901Y0282232D01*
X0263026Y0282325D01*
X0263153Y0282414D01*
X0263283Y0282501D01*
X0263415Y0282584D01*
X0263549Y0282663D01*
X0263685Y0282740D01*
X0263823Y0282812D01*
X0263962Y0282882D01*
X0264104Y0282947D01*
X0264247Y0283009D01*
X0264391Y0283067D01*
X0264537Y0283122D01*
X0264685Y0283173D01*
X0264833Y0283220D01*
X0264983Y0283263D01*
X0265134Y0283302D01*
X0265286Y0283338D01*
X0265438Y0283369D01*
X0265592Y0283397D01*
X0265746Y0283421D01*
X0265900Y0283441D01*
X0266055Y0283457D01*
X0266211Y0283469D01*
X0266366Y0283477D01*
X0266522Y0283481D01*
X0266678Y0283481D01*
X0266834Y0283477D01*
X0266989Y0283469D01*
X0267145Y0283457D01*
X0267300Y0283441D01*
X0267454Y0283421D01*
X0267608Y0283397D01*
X0267762Y0283369D01*
X0267914Y0283338D01*
X0268066Y0283302D01*
X0268217Y0283263D01*
X0268367Y0283220D01*
X0268515Y0283173D01*
X0268663Y0283122D01*
X0268809Y0283067D01*
X0268953Y0283009D01*
X0269096Y0282947D01*
X0269238Y0282882D01*
X0269377Y0282812D01*
X0269515Y0282740D01*
X0269651Y0282663D01*
X0269785Y0282584D01*
X0269917Y0282501D01*
X0270047Y0282414D01*
X0270174Y0282325D01*
X0270299Y0282232D01*
X0270422Y0282136D01*
X0270542Y0282037D01*
X0270660Y0281934D01*
X0270775Y0281829D01*
X0270887Y0281721D01*
X0270997Y0281610D01*
X0271103Y0281497D01*
X0271207Y0281380D01*
X0271308Y0281261D01*
X0271405Y0281140D01*
X0271500Y0281016D01*
X0271591Y0280890D01*
X0271679Y0280761D01*
X0271764Y0280630D01*
X0271845Y0280497D01*
X0271923Y0280362D01*
X0271997Y0280225D01*
X0272068Y0280087D01*
X0272136Y0279946D01*
X0272200Y0279804D01*
X0272260Y0279660D01*
X0272316Y0279515D01*
X0272369Y0279368D01*
X0272418Y0279220D01*
X0272463Y0279071D01*
X0272504Y0278921D01*
X0272541Y0278769D01*
X0272575Y0278617D01*
X0272605Y0278464D01*
X0272630Y0278310D01*
X0272652Y0278156D01*
X0272670Y0278001D01*
X0272684Y0277846D01*
X0272694Y0277691D01*
X0272700Y0277535D01*
X0272702Y0277379D01*
X0272700Y0277223D01*
X0272694Y0277067D01*
X0272684Y0276912D01*
X0272670Y0276757D01*
X0272652Y0276602D01*
X0272630Y0276448D01*
X0272605Y0276294D01*
X0272575Y0276141D01*
X0272541Y0275989D01*
X0272504Y0275837D01*
X0272463Y0275687D01*
X0272418Y0275538D01*
X0272369Y0275390D01*
X0272316Y0275243D01*
X0272260Y0275098D01*
X0272200Y0274954D01*
X0272136Y0274812D01*
X0272068Y0274671D01*
X0271997Y0274533D01*
X0271923Y0274396D01*
X0271845Y0274261D01*
X0271764Y0274128D01*
X0271679Y0273997D01*
X0271591Y0273868D01*
X0271500Y0273742D01*
X0271405Y0273618D01*
X0271308Y0273497D01*
X0271207Y0273378D01*
X0271103Y0273261D01*
X0270997Y0273148D01*
X0270887Y0273037D01*
X0270775Y0272929D01*
X0270660Y0272824D01*
X0270542Y0272721D01*
X0270422Y0272622D01*
X0270299Y0272526D01*
X0270174Y0272433D01*
X0270047Y0272344D01*
X0269917Y0272257D01*
X0269785Y0272174D01*
X0269651Y0272095D01*
X0269515Y0272018D01*
X0269377Y0271946D01*
X0269238Y0271876D01*
X0269096Y0271811D01*
X0268953Y0271749D01*
X0268809Y0271691D01*
X0268663Y0271636D01*
X0268515Y0271585D01*
X0268367Y0271538D01*
X0268217Y0271495D01*
X0268066Y0271456D01*
X0267914Y0271420D01*
X0267762Y0271389D01*
X0267608Y0271361D01*
X0267454Y0271337D01*
X0267300Y0271317D01*
X0267145Y0271301D01*
X0266989Y0271289D01*
X0266834Y0271281D01*
X0266678Y0271277D01*
X0266522Y0271277D01*
X0266366Y0271281D01*
X0266211Y0271289D01*
X0266055Y0271301D01*
X0265900Y0271317D01*
X0265746Y0271337D01*
X0265592Y0271361D01*
X0265438Y0271389D01*
X0265286Y0271420D01*
X0265134Y0271456D01*
X0264983Y0271495D01*
X0264833Y0271538D01*
X0264685Y0271585D01*
X0264537Y0271636D01*
X0264391Y0271691D01*
X0264247Y0271749D01*
X0264104Y0271811D01*
X0263962Y0271876D01*
X0263823Y0271946D01*
X0263685Y0272018D01*
X0263549Y0272095D01*
X0263415Y0272174D01*
X0263283Y0272257D01*
X0263153Y0272344D01*
X0263026Y0272433D01*
X0262901Y0272526D01*
X0262778Y0272622D01*
X0262658Y0272721D01*
X0262540Y0272824D01*
X0262425Y0272929D01*
X0262313Y0273037D01*
X0262203Y0273148D01*
X0262097Y0273261D01*
X0261993Y0273378D01*
X0261892Y0273497D01*
X0261795Y0273618D01*
X0261700Y0273742D01*
X0261609Y0273868D01*
X0261521Y0273997D01*
X0261436Y0274128D01*
X0261355Y0274261D01*
X0261277Y0274396D01*
X0261203Y0274533D01*
X0261132Y0274671D01*
X0261064Y0274812D01*
X0261000Y0274954D01*
X0260940Y0275098D01*
X0260884Y0275243D01*
X0260831Y0275390D01*
X0260782Y0275538D01*
X0260737Y0275687D01*
X0260696Y0275837D01*
X0260659Y0275989D01*
X0260625Y0276141D01*
X0260595Y0276294D01*
X0260570Y0276448D01*
X0260548Y0276602D01*
X0260530Y0276757D01*
X0260516Y0276912D01*
X0260506Y0277067D01*
X0260500Y0277223D01*
X0260498Y0277379D01*
X0260498Y0032379D02*
X0260500Y0032535D01*
X0260506Y0032691D01*
X0260516Y0032846D01*
X0260530Y0033001D01*
X0260548Y0033156D01*
X0260570Y0033310D01*
X0260595Y0033464D01*
X0260625Y0033617D01*
X0260659Y0033769D01*
X0260696Y0033921D01*
X0260737Y0034071D01*
X0260782Y0034220D01*
X0260831Y0034368D01*
X0260884Y0034515D01*
X0260940Y0034660D01*
X0261000Y0034804D01*
X0261064Y0034946D01*
X0261132Y0035087D01*
X0261203Y0035225D01*
X0261277Y0035362D01*
X0261355Y0035497D01*
X0261436Y0035630D01*
X0261521Y0035761D01*
X0261609Y0035890D01*
X0261700Y0036016D01*
X0261795Y0036140D01*
X0261892Y0036261D01*
X0261993Y0036380D01*
X0262097Y0036497D01*
X0262203Y0036610D01*
X0262313Y0036721D01*
X0262425Y0036829D01*
X0262540Y0036934D01*
X0262658Y0037037D01*
X0262778Y0037136D01*
X0262901Y0037232D01*
X0263026Y0037325D01*
X0263153Y0037414D01*
X0263283Y0037501D01*
X0263415Y0037584D01*
X0263549Y0037663D01*
X0263685Y0037740D01*
X0263823Y0037812D01*
X0263962Y0037882D01*
X0264104Y0037947D01*
X0264247Y0038009D01*
X0264391Y0038067D01*
X0264537Y0038122D01*
X0264685Y0038173D01*
X0264833Y0038220D01*
X0264983Y0038263D01*
X0265134Y0038302D01*
X0265286Y0038338D01*
X0265438Y0038369D01*
X0265592Y0038397D01*
X0265746Y0038421D01*
X0265900Y0038441D01*
X0266055Y0038457D01*
X0266211Y0038469D01*
X0266366Y0038477D01*
X0266522Y0038481D01*
X0266678Y0038481D01*
X0266834Y0038477D01*
X0266989Y0038469D01*
X0267145Y0038457D01*
X0267300Y0038441D01*
X0267454Y0038421D01*
X0267608Y0038397D01*
X0267762Y0038369D01*
X0267914Y0038338D01*
X0268066Y0038302D01*
X0268217Y0038263D01*
X0268367Y0038220D01*
X0268515Y0038173D01*
X0268663Y0038122D01*
X0268809Y0038067D01*
X0268953Y0038009D01*
X0269096Y0037947D01*
X0269238Y0037882D01*
X0269377Y0037812D01*
X0269515Y0037740D01*
X0269651Y0037663D01*
X0269785Y0037584D01*
X0269917Y0037501D01*
X0270047Y0037414D01*
X0270174Y0037325D01*
X0270299Y0037232D01*
X0270422Y0037136D01*
X0270542Y0037037D01*
X0270660Y0036934D01*
X0270775Y0036829D01*
X0270887Y0036721D01*
X0270997Y0036610D01*
X0271103Y0036497D01*
X0271207Y0036380D01*
X0271308Y0036261D01*
X0271405Y0036140D01*
X0271500Y0036016D01*
X0271591Y0035890D01*
X0271679Y0035761D01*
X0271764Y0035630D01*
X0271845Y0035497D01*
X0271923Y0035362D01*
X0271997Y0035225D01*
X0272068Y0035087D01*
X0272136Y0034946D01*
X0272200Y0034804D01*
X0272260Y0034660D01*
X0272316Y0034515D01*
X0272369Y0034368D01*
X0272418Y0034220D01*
X0272463Y0034071D01*
X0272504Y0033921D01*
X0272541Y0033769D01*
X0272575Y0033617D01*
X0272605Y0033464D01*
X0272630Y0033310D01*
X0272652Y0033156D01*
X0272670Y0033001D01*
X0272684Y0032846D01*
X0272694Y0032691D01*
X0272700Y0032535D01*
X0272702Y0032379D01*
X0272700Y0032223D01*
X0272694Y0032067D01*
X0272684Y0031912D01*
X0272670Y0031757D01*
X0272652Y0031602D01*
X0272630Y0031448D01*
X0272605Y0031294D01*
X0272575Y0031141D01*
X0272541Y0030989D01*
X0272504Y0030837D01*
X0272463Y0030687D01*
X0272418Y0030538D01*
X0272369Y0030390D01*
X0272316Y0030243D01*
X0272260Y0030098D01*
X0272200Y0029954D01*
X0272136Y0029812D01*
X0272068Y0029671D01*
X0271997Y0029533D01*
X0271923Y0029396D01*
X0271845Y0029261D01*
X0271764Y0029128D01*
X0271679Y0028997D01*
X0271591Y0028868D01*
X0271500Y0028742D01*
X0271405Y0028618D01*
X0271308Y0028497D01*
X0271207Y0028378D01*
X0271103Y0028261D01*
X0270997Y0028148D01*
X0270887Y0028037D01*
X0270775Y0027929D01*
X0270660Y0027824D01*
X0270542Y0027721D01*
X0270422Y0027622D01*
X0270299Y0027526D01*
X0270174Y0027433D01*
X0270047Y0027344D01*
X0269917Y0027257D01*
X0269785Y0027174D01*
X0269651Y0027095D01*
X0269515Y0027018D01*
X0269377Y0026946D01*
X0269238Y0026876D01*
X0269096Y0026811D01*
X0268953Y0026749D01*
X0268809Y0026691D01*
X0268663Y0026636D01*
X0268515Y0026585D01*
X0268367Y0026538D01*
X0268217Y0026495D01*
X0268066Y0026456D01*
X0267914Y0026420D01*
X0267762Y0026389D01*
X0267608Y0026361D01*
X0267454Y0026337D01*
X0267300Y0026317D01*
X0267145Y0026301D01*
X0266989Y0026289D01*
X0266834Y0026281D01*
X0266678Y0026277D01*
X0266522Y0026277D01*
X0266366Y0026281D01*
X0266211Y0026289D01*
X0266055Y0026301D01*
X0265900Y0026317D01*
X0265746Y0026337D01*
X0265592Y0026361D01*
X0265438Y0026389D01*
X0265286Y0026420D01*
X0265134Y0026456D01*
X0264983Y0026495D01*
X0264833Y0026538D01*
X0264685Y0026585D01*
X0264537Y0026636D01*
X0264391Y0026691D01*
X0264247Y0026749D01*
X0264104Y0026811D01*
X0263962Y0026876D01*
X0263823Y0026946D01*
X0263685Y0027018D01*
X0263549Y0027095D01*
X0263415Y0027174D01*
X0263283Y0027257D01*
X0263153Y0027344D01*
X0263026Y0027433D01*
X0262901Y0027526D01*
X0262778Y0027622D01*
X0262658Y0027721D01*
X0262540Y0027824D01*
X0262425Y0027929D01*
X0262313Y0028037D01*
X0262203Y0028148D01*
X0262097Y0028261D01*
X0261993Y0028378D01*
X0261892Y0028497D01*
X0261795Y0028618D01*
X0261700Y0028742D01*
X0261609Y0028868D01*
X0261521Y0028997D01*
X0261436Y0029128D01*
X0261355Y0029261D01*
X0261277Y0029396D01*
X0261203Y0029533D01*
X0261132Y0029671D01*
X0261064Y0029812D01*
X0261000Y0029954D01*
X0260940Y0030098D01*
X0260884Y0030243D01*
X0260831Y0030390D01*
X0260782Y0030538D01*
X0260737Y0030687D01*
X0260696Y0030837D01*
X0260659Y0030989D01*
X0260625Y0031141D01*
X0260595Y0031294D01*
X0260570Y0031448D01*
X0260548Y0031602D01*
X0260530Y0031757D01*
X0260516Y0031912D01*
X0260506Y0032067D01*
X0260500Y0032223D01*
X0260498Y0032379D01*
D11*
X0246600Y0177579D02*
X0246600Y0182379D01*
X0236600Y0182379D02*
X0236600Y0177579D01*
X0226600Y0177579D02*
X0226600Y0182379D01*
X0216600Y0182379D02*
X0216600Y0177579D01*
X0206600Y0177579D02*
X0206600Y0182379D01*
X0196600Y0182379D02*
X0196600Y0177579D01*
X0186600Y0177579D02*
X0186600Y0182379D01*
X0176600Y0182379D02*
X0176600Y0177579D01*
X0154000Y0207379D02*
X0149200Y0207379D01*
X0149200Y0217379D02*
X0154000Y0217379D01*
X0154000Y0227379D02*
X0149200Y0227379D01*
X0149200Y0237379D02*
X0154000Y0237379D01*
X0154000Y0247379D02*
X0149200Y0247379D01*
X0149200Y0257379D02*
X0154000Y0257379D01*
X0154000Y0267379D02*
X0149200Y0267379D01*
X0149200Y0277379D02*
X0154000Y0277379D01*
X0124000Y0277379D02*
X0119200Y0277379D01*
X0119200Y0267379D02*
X0124000Y0267379D01*
X0124000Y0257379D02*
X0119200Y0257379D01*
X0119200Y0247379D02*
X0124000Y0247379D01*
X0124000Y0237379D02*
X0119200Y0237379D01*
X0119200Y0227379D02*
X0124000Y0227379D01*
X0124000Y0217379D02*
X0119200Y0217379D01*
X0119200Y0207379D02*
X0124000Y0207379D01*
X0106600Y0212379D02*
X0106600Y0217179D01*
X0096600Y0217179D02*
X0096600Y0212379D01*
X0086600Y0212379D02*
X0086600Y0217179D01*
X0076600Y0217179D02*
X0076600Y0212379D01*
X0066600Y0212379D02*
X0066600Y0217179D01*
X0056600Y0217179D02*
X0056600Y0212379D01*
X0046600Y0212379D02*
X0046600Y0217179D01*
X0036600Y0217179D02*
X0036600Y0212379D01*
X0036600Y0182379D02*
X0036600Y0177579D01*
X0046600Y0177579D02*
X0046600Y0182379D01*
X0056600Y0182379D02*
X0056600Y0177579D01*
X0066600Y0177579D02*
X0066600Y0182379D01*
X0076600Y0182379D02*
X0076600Y0177579D01*
X0086600Y0177579D02*
X0086600Y0182379D01*
X0096600Y0182379D02*
X0096600Y0177579D01*
X0106600Y0177579D02*
X0106600Y0182379D01*
X0176600Y0212379D02*
X0176600Y0217179D01*
X0186600Y0217179D02*
X0186600Y0212379D01*
X0196600Y0212379D02*
X0196600Y0217179D01*
X0206600Y0217179D02*
X0206600Y0212379D01*
X0216600Y0212379D02*
X0216600Y0217179D01*
X0226600Y0217179D02*
X0226600Y0212379D01*
X0236600Y0212379D02*
X0236600Y0217179D01*
X0246600Y0217179D02*
X0246600Y0212379D01*
D12*
X0206600Y0102339D03*
X0181600Y0072339D03*
X0156600Y0102339D03*
X0131600Y0072339D03*
X0106600Y0102339D03*
X0081600Y0072339D03*
X0056600Y0102339D03*
X0231600Y0072339D03*
D13*
X0221561Y0082379D03*
X0231600Y0092418D03*
X0241639Y0082379D03*
X0216639Y0112379D03*
X0206600Y0122418D03*
X0196561Y0112379D03*
X0181600Y0092418D03*
X0191639Y0082379D03*
X0171561Y0082379D03*
X0141639Y0082379D03*
X0131600Y0092418D03*
X0121561Y0082379D03*
X0091639Y0082379D03*
X0081600Y0092418D03*
X0071561Y0082379D03*
X0066639Y0112379D03*
X0056600Y0122418D03*
X0046561Y0112379D03*
X0096561Y0112379D03*
X0106600Y0122418D03*
X0116639Y0112379D03*
X0146561Y0112379D03*
X0156600Y0122418D03*
X0166639Y0112379D03*
D14*
X0170891Y0030825D02*
X0170891Y0023775D01*
X0151206Y0023775D02*
X0151206Y0030825D01*
X0131521Y0030825D02*
X0131521Y0023775D01*
X0111836Y0023775D02*
X0111836Y0030825D01*
X0092151Y0030825D02*
X0092151Y0023775D01*
X0072466Y0023775D02*
X0072466Y0030825D01*
X0190576Y0030825D02*
X0190576Y0023775D01*
X0210261Y0023775D02*
X0210261Y0030825D01*
X0229946Y0030825D02*
X0229946Y0023775D01*
D15*
X0221600Y0132379D03*
X0196600Y0132379D03*
X0171600Y0132379D03*
X0146600Y0132379D03*
X0121600Y0132379D03*
X0096600Y0132379D03*
X0071600Y0132379D03*
X0046600Y0132379D03*
X0046600Y0162379D03*
X0071600Y0162379D03*
X0096600Y0162379D03*
X0121600Y0162379D03*
X0146600Y0162379D03*
X0171600Y0162379D03*
X0196600Y0162379D03*
X0221600Y0162379D03*
X0216600Y0247379D03*
X0196600Y0247379D03*
X0176600Y0247379D03*
X0176600Y0277379D03*
X0196600Y0277379D03*
X0216600Y0277379D03*
X0236600Y0277379D03*
X0236600Y0247379D03*
X0096600Y0247379D03*
X0076600Y0247379D03*
X0056600Y0247379D03*
X0036600Y0247379D03*
X0036600Y0277379D03*
X0056600Y0277379D03*
X0076600Y0277379D03*
X0096600Y0277379D03*
D16*
X0105600Y0232379D03*
X0085600Y0232379D03*
X0065600Y0232379D03*
X0045600Y0232379D03*
X0185600Y0232379D03*
X0205600Y0232379D03*
X0225600Y0232379D03*
X0245600Y0232379D03*
D17*
X0237600Y0232379D03*
X0217600Y0232379D03*
X0197600Y0232379D03*
X0177600Y0232379D03*
X0097600Y0232379D03*
X0077600Y0232379D03*
X0057600Y0232379D03*
X0037600Y0232379D03*
D18*
X0256100Y0247379D03*
X0262100Y0247379D03*
D19*
X0261100Y0227379D02*
X0267100Y0227379D01*
X0267100Y0217379D02*
X0261100Y0217379D01*
X0261100Y0207379D02*
X0267100Y0207379D01*
X0267100Y0197379D02*
X0261100Y0197379D01*
X0261100Y0187379D02*
X0267100Y0187379D01*
X0267100Y0177379D02*
X0261100Y0177379D01*
X0022100Y0177379D02*
X0016100Y0177379D01*
X0016100Y0187379D02*
X0022100Y0187379D01*
X0022100Y0197379D02*
X0016100Y0197379D01*
X0016100Y0207379D02*
X0022100Y0207379D01*
X0022100Y0217379D02*
X0016100Y0217379D01*
X0016100Y0227379D02*
X0022100Y0227379D01*
D20*
X0066639Y0112379D02*
X0066639Y0097418D01*
X0061600Y0092379D01*
X0061600Y0047379D01*
X0072466Y0036513D01*
X0072466Y0027300D01*
X0092151Y0027300D02*
X0092151Y0081867D01*
X0091639Y0082379D01*
X0111836Y0092615D02*
X0116600Y0097379D01*
X0116600Y0112339D01*
X0116639Y0112379D01*
X0111836Y0092615D02*
X0111836Y0027300D01*
X0131521Y0027300D02*
X0131521Y0042300D01*
X0141600Y0052379D01*
X0141600Y0082339D01*
X0141639Y0082379D01*
X0151206Y0076985D02*
X0151206Y0027300D01*
X0170891Y0027300D02*
X0170891Y0036670D01*
X0191600Y0057379D01*
X0191600Y0082339D01*
X0191639Y0082379D01*
X0206600Y0087379D02*
X0216600Y0097379D01*
X0216600Y0112339D01*
X0216639Y0112379D01*
X0206600Y0087379D02*
X0206600Y0052379D01*
X0190576Y0036355D01*
X0190576Y0027300D01*
X0210261Y0027300D02*
X0210261Y0036040D01*
X0221600Y0047379D01*
X0236600Y0047379D01*
X0241600Y0052379D01*
X0241600Y0082339D01*
X0241639Y0082379D01*
X0166600Y0092379D02*
X0166600Y0112339D01*
X0166639Y0112379D01*
X0166600Y0092379D02*
X0151206Y0076985D01*
D21*
X0141639Y0082379D02*
X0141639Y0097339D01*
X0131600Y0107379D01*
X0131600Y0162379D01*
X0121600Y0172379D01*
X0111600Y0172379D01*
X0106600Y0177379D01*
X0106600Y0182379D01*
X0101600Y0172379D02*
X0106600Y0167379D01*
X0106600Y0132379D01*
X0116600Y0127379D01*
X0116600Y0112418D01*
X0116639Y0112379D01*
X0091600Y0092379D02*
X0091600Y0082418D01*
X0091639Y0082379D01*
X0091600Y0092379D02*
X0086600Y0097379D01*
X0086600Y0157379D01*
X0066600Y0177379D01*
X0066600Y0182379D01*
X0046600Y0182379D02*
X0046600Y0172379D01*
X0056600Y0162379D01*
X0056600Y0132379D01*
X0066639Y0127339D01*
X0066639Y0112379D01*
X0024100Y0167379D02*
X0011600Y0167379D01*
X0004200Y0174779D01*
X0004200Y0288480D01*
X0278921Y0288480D01*
X0278921Y0174700D01*
X0271600Y0167379D01*
X0261600Y0167379D01*
X0254100Y0172379D01*
X0254100Y0182379D01*
X0244100Y0192379D01*
X0039100Y0192379D01*
X0029100Y0182379D01*
X0029100Y0172379D01*
X0024100Y0167379D01*
X0024906Y0168185D02*
X0010794Y0168185D01*
X0009595Y0169384D02*
X0026105Y0169384D01*
X0027303Y0170582D02*
X0008397Y0170582D01*
X0007198Y0171781D02*
X0028502Y0171781D01*
X0029100Y0172979D02*
X0005999Y0172979D01*
X0004801Y0174178D02*
X0013361Y0174178D01*
X0013721Y0173818D02*
X0015265Y0173179D01*
X0022935Y0173179D01*
X0024479Y0173818D01*
X0025661Y0175000D01*
X0026300Y0176543D01*
X0026300Y0178214D01*
X0025661Y0179758D01*
X0024479Y0180939D01*
X0022935Y0181579D01*
X0015265Y0181579D01*
X0013721Y0180939D01*
X0012539Y0179758D01*
X0011900Y0178214D01*
X0011900Y0176543D01*
X0012539Y0175000D01*
X0013721Y0173818D01*
X0012383Y0175376D02*
X0004200Y0175376D01*
X0004200Y0176575D02*
X0011900Y0176575D01*
X0011900Y0177773D02*
X0004200Y0177773D01*
X0004200Y0178972D02*
X0012214Y0178972D01*
X0012952Y0180170D02*
X0004200Y0180170D01*
X0004200Y0181369D02*
X0014758Y0181369D01*
X0015265Y0183179D02*
X0013721Y0183818D01*
X0012539Y0185000D01*
X0011900Y0186543D01*
X0011900Y0188214D01*
X0012539Y0189758D01*
X0013721Y0190939D01*
X0015265Y0191579D01*
X0022935Y0191579D01*
X0024479Y0190939D01*
X0025661Y0189758D01*
X0026300Y0188214D01*
X0026300Y0186543D01*
X0025661Y0185000D01*
X0024479Y0183818D01*
X0022935Y0183179D01*
X0015265Y0183179D01*
X0013847Y0183766D02*
X0004200Y0183766D01*
X0004200Y0184964D02*
X0012575Y0184964D01*
X0012058Y0186163D02*
X0004200Y0186163D01*
X0004200Y0187361D02*
X0011900Y0187361D01*
X0012043Y0188560D02*
X0004200Y0188560D01*
X0004200Y0189758D02*
X0012540Y0189758D01*
X0013763Y0190957D02*
X0004200Y0190957D01*
X0004200Y0192155D02*
X0038877Y0192155D01*
X0037678Y0190957D02*
X0024437Y0190957D01*
X0025660Y0189758D02*
X0036480Y0189758D01*
X0035281Y0188560D02*
X0026157Y0188560D01*
X0026300Y0187361D02*
X0034083Y0187361D01*
X0032884Y0186163D02*
X0026142Y0186163D01*
X0025625Y0184964D02*
X0031686Y0184964D01*
X0030487Y0183766D02*
X0024353Y0183766D01*
X0023442Y0181369D02*
X0029100Y0181369D01*
X0029100Y0180170D02*
X0025248Y0180170D01*
X0025986Y0178972D02*
X0029100Y0178972D01*
X0029100Y0177773D02*
X0026300Y0177773D01*
X0026300Y0176575D02*
X0029100Y0176575D01*
X0029100Y0175376D02*
X0025817Y0175376D01*
X0024839Y0174178D02*
X0029100Y0174178D01*
X0029289Y0182567D02*
X0004200Y0182567D01*
X0004200Y0193354D02*
X0014842Y0193354D01*
X0015265Y0193179D02*
X0022935Y0193179D01*
X0024479Y0193818D01*
X0025661Y0195000D01*
X0025900Y0195579D01*
X0257300Y0195579D01*
X0257539Y0195000D01*
X0258721Y0193818D01*
X0260265Y0193179D01*
X0267935Y0193179D01*
X0269479Y0193818D01*
X0270661Y0195000D01*
X0271300Y0196543D01*
X0271300Y0198214D01*
X0270661Y0199758D01*
X0269479Y0200939D01*
X0267935Y0201579D01*
X0260265Y0201579D01*
X0258721Y0200939D01*
X0257539Y0199758D01*
X0257300Y0199179D01*
X0253446Y0199179D01*
X0258403Y0204136D01*
X0258721Y0203818D01*
X0260265Y0203179D01*
X0267935Y0203179D01*
X0269479Y0203818D01*
X0270661Y0205000D01*
X0271300Y0206543D01*
X0271300Y0208214D01*
X0270661Y0209758D01*
X0269479Y0210939D01*
X0267935Y0211579D01*
X0260265Y0211579D01*
X0258721Y0210939D01*
X0257539Y0209758D01*
X0256900Y0208214D01*
X0256900Y0207724D01*
X0250854Y0201679D01*
X0108446Y0201679D01*
X0114846Y0208079D01*
X0115383Y0208616D01*
X0115354Y0208545D01*
X0115200Y0207773D01*
X0115200Y0207579D01*
X0121400Y0207579D01*
X0121400Y0211379D01*
X0118806Y0211379D01*
X0118033Y0211225D01*
X0117305Y0210923D01*
X0116650Y0210486D01*
X0116093Y0209929D01*
X0115900Y0209640D01*
X0115900Y0215938D01*
X0116148Y0215339D01*
X0117161Y0214327D01*
X0118484Y0213779D01*
X0124716Y0213779D01*
X0126039Y0214327D01*
X0127052Y0215339D01*
X0127600Y0216663D01*
X0127600Y0218095D01*
X0127052Y0219418D01*
X0126039Y0220431D01*
X0124716Y0220979D01*
X0118484Y0220979D01*
X0117161Y0220431D01*
X0116148Y0219418D01*
X0115900Y0218819D01*
X0115900Y0225938D01*
X0116148Y0225339D01*
X0117161Y0224327D01*
X0118484Y0223779D01*
X0124716Y0223779D01*
X0126039Y0224327D01*
X0127052Y0225339D01*
X0127600Y0226663D01*
X0127600Y0228095D01*
X0127052Y0229418D01*
X0126039Y0230431D01*
X0124716Y0230979D01*
X0118484Y0230979D01*
X0117161Y0230431D01*
X0116148Y0229418D01*
X0115900Y0228819D01*
X0115900Y0235938D01*
X0116148Y0235339D01*
X0117161Y0234327D01*
X0118484Y0233779D01*
X0124716Y0233779D01*
X0126039Y0234327D01*
X0127052Y0235339D01*
X0127600Y0236663D01*
X0127600Y0238095D01*
X0127052Y0239418D01*
X0126039Y0240431D01*
X0124716Y0240979D01*
X0118484Y0240979D01*
X0117161Y0240431D01*
X0116148Y0239418D01*
X0115900Y0238819D01*
X0115900Y0245938D01*
X0116148Y0245339D01*
X0117161Y0244327D01*
X0118484Y0243779D01*
X0124716Y0243779D01*
X0126039Y0244327D01*
X0127052Y0245339D01*
X0127600Y0246663D01*
X0127600Y0248095D01*
X0127052Y0249418D01*
X0126039Y0250431D01*
X0124716Y0250979D01*
X0118484Y0250979D01*
X0117161Y0250431D01*
X0116148Y0249418D01*
X0115900Y0248819D01*
X0115900Y0255938D01*
X0116148Y0255339D01*
X0117161Y0254327D01*
X0118484Y0253779D01*
X0124716Y0253779D01*
X0126039Y0254327D01*
X0127052Y0255339D01*
X0127600Y0256663D01*
X0127600Y0258095D01*
X0127052Y0259418D01*
X0126039Y0260431D01*
X0124716Y0260979D01*
X0118484Y0260979D01*
X0117161Y0260431D01*
X0116148Y0259418D01*
X0115900Y0258819D01*
X0115900Y0265938D01*
X0116148Y0265339D01*
X0117161Y0264327D01*
X0118484Y0263779D01*
X0124716Y0263779D01*
X0126039Y0264327D01*
X0127052Y0265339D01*
X0127600Y0266663D01*
X0127600Y0268095D01*
X0127052Y0269418D01*
X0126039Y0270431D01*
X0124716Y0270979D01*
X0118484Y0270979D01*
X0117161Y0270431D01*
X0116148Y0269418D01*
X0115900Y0268819D01*
X0115900Y0274133D01*
X0116627Y0274860D01*
X0117161Y0274327D01*
X0118484Y0273779D01*
X0124716Y0273779D01*
X0126039Y0274327D01*
X0127052Y0275339D01*
X0127600Y0276663D01*
X0127600Y0278095D01*
X0127052Y0279418D01*
X0126039Y0280431D01*
X0124716Y0280979D01*
X0118484Y0280979D01*
X0117161Y0280431D01*
X0116148Y0279418D01*
X0116049Y0279179D01*
X0115854Y0279179D01*
X0114800Y0278124D01*
X0112300Y0275624D01*
X0112300Y0210624D01*
X0105854Y0204179D01*
X0037346Y0204179D01*
X0025914Y0215611D01*
X0026300Y0216543D01*
X0026300Y0218214D01*
X0025661Y0219758D01*
X0024479Y0220939D01*
X0022935Y0221579D01*
X0015265Y0221579D01*
X0013721Y0220939D01*
X0012539Y0219758D01*
X0011900Y0218214D01*
X0011900Y0216543D01*
X0012539Y0215000D01*
X0013721Y0213818D01*
X0015265Y0213179D01*
X0022935Y0213179D01*
X0023161Y0213272D01*
X0027254Y0209179D01*
X0025900Y0209179D01*
X0025661Y0209758D01*
X0024479Y0210939D01*
X0022935Y0211579D01*
X0015265Y0211579D01*
X0013721Y0210939D01*
X0012539Y0209758D01*
X0011900Y0208214D01*
X0011900Y0206543D01*
X0012539Y0205000D01*
X0013721Y0203818D01*
X0015265Y0203179D01*
X0022935Y0203179D01*
X0024479Y0203818D01*
X0025661Y0205000D01*
X0025887Y0205546D01*
X0032254Y0199179D01*
X0025900Y0199179D01*
X0025661Y0199758D01*
X0024479Y0200939D01*
X0022935Y0201579D01*
X0015265Y0201579D01*
X0013721Y0200939D01*
X0012539Y0199758D01*
X0011900Y0198214D01*
X0011900Y0196543D01*
X0012539Y0195000D01*
X0013721Y0193818D01*
X0015265Y0193179D01*
X0012987Y0194552D02*
X0004200Y0194552D01*
X0004200Y0195751D02*
X0012228Y0195751D01*
X0011900Y0196949D02*
X0004200Y0196949D01*
X0004200Y0198148D02*
X0011900Y0198148D01*
X0012369Y0199347D02*
X0004200Y0199347D01*
X0004200Y0200545D02*
X0013327Y0200545D01*
X0013398Y0204141D02*
X0004200Y0204141D01*
X0004200Y0205339D02*
X0012399Y0205339D01*
X0011902Y0206538D02*
X0004200Y0206538D01*
X0004200Y0207736D02*
X0011900Y0207736D01*
X0012198Y0208935D02*
X0004200Y0208935D01*
X0004200Y0210133D02*
X0012915Y0210133D01*
X0014668Y0211332D02*
X0004200Y0211332D01*
X0004200Y0212530D02*
X0023903Y0212530D01*
X0023532Y0211332D02*
X0025102Y0211332D01*
X0025285Y0210133D02*
X0026300Y0210133D01*
X0026600Y0207379D02*
X0034100Y0199879D01*
X0251600Y0199879D01*
X0259100Y0207379D01*
X0264100Y0207379D01*
X0268532Y0211332D02*
X0278921Y0211332D01*
X0278921Y0212530D02*
X0250200Y0212530D01*
X0250200Y0211663D02*
X0250200Y0217895D01*
X0249652Y0219218D01*
X0248639Y0220231D01*
X0247316Y0220779D01*
X0245884Y0220779D01*
X0244561Y0220231D01*
X0243548Y0219218D01*
X0243000Y0217895D01*
X0243000Y0211663D01*
X0243548Y0210339D01*
X0244561Y0209327D01*
X0245884Y0208779D01*
X0247316Y0208779D01*
X0248639Y0209327D01*
X0249652Y0210339D01*
X0250200Y0211663D01*
X0250063Y0211332D02*
X0259668Y0211332D01*
X0260265Y0213179D02*
X0258721Y0213818D01*
X0257539Y0215000D01*
X0256900Y0216543D01*
X0256900Y0217033D01*
X0252300Y0221633D01*
X0252300Y0233124D01*
X0253354Y0234179D01*
X0260300Y0241124D01*
X0260300Y0243029D01*
X0259303Y0243029D01*
X0259100Y0243232D01*
X0258897Y0243029D01*
X0253303Y0243029D01*
X0252600Y0243732D01*
X0252600Y0245579D01*
X0252346Y0245579D01*
X0247400Y0240633D01*
X0247400Y0235811D01*
X0249300Y0233911D01*
X0249300Y0230846D01*
X0247133Y0228679D01*
X0244067Y0228679D01*
X0241900Y0230846D01*
X0241900Y0233911D01*
X0243800Y0235811D01*
X0243800Y0242124D01*
X0250854Y0249179D01*
X0252600Y0249179D01*
X0252600Y0251026D01*
X0253303Y0251729D01*
X0258897Y0251729D01*
X0259100Y0251526D01*
X0259303Y0251729D01*
X0264897Y0251729D01*
X0265600Y0251026D01*
X0265600Y0243732D01*
X0264897Y0243029D01*
X0263900Y0243029D01*
X0263900Y0239633D01*
X0255900Y0231633D01*
X0255900Y0223124D01*
X0258403Y0220621D01*
X0258721Y0220939D01*
X0260265Y0221579D01*
X0267935Y0221579D01*
X0269479Y0220939D01*
X0270661Y0219758D01*
X0271300Y0218214D01*
X0271300Y0216543D01*
X0270661Y0215000D01*
X0269479Y0213818D01*
X0267935Y0213179D01*
X0260265Y0213179D01*
X0258937Y0213729D02*
X0250200Y0213729D01*
X0250200Y0214927D02*
X0257612Y0214927D01*
X0257073Y0216126D02*
X0250200Y0216126D01*
X0250200Y0217324D02*
X0256609Y0217324D01*
X0255410Y0218523D02*
X0249940Y0218523D01*
X0249149Y0219721D02*
X0254212Y0219721D01*
X0253013Y0220920D02*
X0154859Y0220920D01*
X0154716Y0220979D02*
X0148484Y0220979D01*
X0147161Y0220431D01*
X0146148Y0219418D01*
X0145600Y0218095D01*
X0145600Y0216663D01*
X0146148Y0215339D01*
X0147161Y0214327D01*
X0148484Y0213779D01*
X0154716Y0213779D01*
X0156039Y0214327D01*
X0157052Y0215339D01*
X0157600Y0216663D01*
X0157600Y0218095D01*
X0157052Y0219418D01*
X0156039Y0220431D01*
X0154716Y0220979D01*
X0156749Y0219721D02*
X0174051Y0219721D01*
X0173548Y0219218D02*
X0173000Y0217895D01*
X0173000Y0211663D01*
X0173548Y0210339D01*
X0174561Y0209327D01*
X0175884Y0208779D01*
X0177316Y0208779D01*
X0178639Y0209327D01*
X0179652Y0210339D01*
X0180200Y0211663D01*
X0180200Y0217895D01*
X0179652Y0219218D01*
X0178639Y0220231D01*
X0177316Y0220779D01*
X0175884Y0220779D01*
X0174561Y0220231D01*
X0173548Y0219218D01*
X0173260Y0218523D02*
X0157423Y0218523D01*
X0157600Y0217324D02*
X0173000Y0217324D01*
X0173000Y0216126D02*
X0157378Y0216126D01*
X0156640Y0214927D02*
X0173000Y0214927D01*
X0173000Y0213729D02*
X0115900Y0213729D01*
X0115900Y0214927D02*
X0116560Y0214927D01*
X0115900Y0212530D02*
X0173000Y0212530D01*
X0173137Y0211332D02*
X0124631Y0211332D01*
X0124394Y0211379D02*
X0125167Y0211225D01*
X0125895Y0210923D01*
X0126550Y0210486D01*
X0127107Y0209929D01*
X0127545Y0209273D01*
X0127846Y0208545D01*
X0128000Y0207773D01*
X0128000Y0207579D01*
X0121800Y0207579D01*
X0121400Y0207579D01*
X0121400Y0207179D01*
X0115200Y0207179D01*
X0115200Y0206985D01*
X0115354Y0206212D01*
X0115655Y0205484D01*
X0116093Y0204829D01*
X0116650Y0204272D01*
X0117305Y0203834D01*
X0118033Y0203532D01*
X0118806Y0203379D01*
X0121400Y0203379D01*
X0121400Y0207179D01*
X0121800Y0207179D01*
X0121800Y0207579D01*
X0121800Y0211379D01*
X0124394Y0211379D01*
X0121800Y0211332D02*
X0121400Y0211332D01*
X0121400Y0210133D02*
X0121800Y0210133D01*
X0121800Y0208935D02*
X0121400Y0208935D01*
X0121400Y0207736D02*
X0121800Y0207736D01*
X0121800Y0207179D02*
X0128000Y0207179D01*
X0128000Y0206985D01*
X0127846Y0206212D01*
X0127545Y0205484D01*
X0127107Y0204829D01*
X0126550Y0204272D01*
X0125895Y0203834D01*
X0125167Y0203532D01*
X0124394Y0203379D01*
X0121800Y0203379D01*
X0121800Y0207179D01*
X0121800Y0206538D02*
X0121400Y0206538D01*
X0121400Y0205339D02*
X0121800Y0205339D01*
X0121800Y0204141D02*
X0121400Y0204141D01*
X0116846Y0204141D02*
X0110907Y0204141D01*
X0112106Y0205339D02*
X0115752Y0205339D01*
X0115289Y0206538D02*
X0113304Y0206538D01*
X0114503Y0207736D02*
X0115200Y0207736D01*
X0114100Y0209879D02*
X0114100Y0274879D01*
X0116600Y0277379D01*
X0121600Y0277379D01*
X0118162Y0280845D02*
X0098790Y0280845D01*
X0098257Y0281379D02*
X0096800Y0281379D01*
X0096800Y0277579D01*
X0096400Y0277579D01*
X0096400Y0281379D01*
X0094943Y0281379D01*
X0092600Y0279036D01*
X0092600Y0277579D01*
X0096400Y0277579D01*
X0096400Y0277179D01*
X0092600Y0277179D01*
X0092600Y0275722D01*
X0094943Y0273379D01*
X0096400Y0273379D01*
X0096400Y0277179D01*
X0096800Y0277179D01*
X0096800Y0277579D01*
X0100600Y0277579D01*
X0100600Y0279036D01*
X0098257Y0281379D01*
X0096800Y0280845D02*
X0096400Y0280845D01*
X0096400Y0279647D02*
X0096800Y0279647D01*
X0096800Y0278448D02*
X0096400Y0278448D01*
X0096400Y0277250D02*
X0076800Y0277250D01*
X0076800Y0277179D02*
X0076800Y0277579D01*
X0076400Y0277579D01*
X0076400Y0281379D01*
X0074943Y0281379D01*
X0072600Y0279036D01*
X0072600Y0277579D01*
X0076400Y0277579D01*
X0076400Y0277179D01*
X0072600Y0277179D01*
X0072600Y0275722D01*
X0074943Y0273379D01*
X0076400Y0273379D01*
X0076400Y0277179D01*
X0076800Y0277179D01*
X0080600Y0277179D01*
X0080600Y0275722D01*
X0078257Y0273379D01*
X0076800Y0273379D01*
X0076800Y0277179D01*
X0076800Y0277579D02*
X0080600Y0277579D01*
X0080600Y0279036D01*
X0078257Y0281379D01*
X0076800Y0281379D01*
X0076800Y0277579D01*
X0076400Y0277250D02*
X0056800Y0277250D01*
X0056800Y0277179D02*
X0056800Y0277579D01*
X0056400Y0277579D01*
X0056400Y0281379D01*
X0054943Y0281379D01*
X0052600Y0279036D01*
X0052600Y0277579D01*
X0056400Y0277579D01*
X0056400Y0277179D01*
X0052600Y0277179D01*
X0052600Y0275722D01*
X0054943Y0273379D01*
X0056400Y0273379D01*
X0056400Y0277179D01*
X0056800Y0277179D01*
X0060600Y0277179D01*
X0060600Y0275722D01*
X0058257Y0273379D01*
X0056800Y0273379D01*
X0056800Y0277179D01*
X0056800Y0277579D02*
X0060600Y0277579D01*
X0060600Y0279036D01*
X0058257Y0281379D01*
X0056800Y0281379D01*
X0056800Y0277579D01*
X0056400Y0277250D02*
X0036800Y0277250D01*
X0036800Y0277179D02*
X0036800Y0277579D01*
X0036400Y0277579D01*
X0036400Y0281379D01*
X0034943Y0281379D01*
X0032600Y0279036D01*
X0032600Y0277579D01*
X0036400Y0277579D01*
X0036400Y0277179D01*
X0032600Y0277179D01*
X0032600Y0275722D01*
X0034943Y0273379D01*
X0036400Y0273379D01*
X0036400Y0277179D01*
X0036800Y0277179D01*
X0040600Y0277179D01*
X0040600Y0275722D01*
X0038257Y0273379D01*
X0036800Y0273379D01*
X0036800Y0277179D01*
X0036800Y0277579D02*
X0040600Y0277579D01*
X0040600Y0279036D01*
X0038257Y0281379D01*
X0036800Y0281379D01*
X0036800Y0277579D01*
X0036400Y0277250D02*
X0025302Y0277250D01*
X0025302Y0278448D02*
X0032600Y0278448D01*
X0033211Y0279647D02*
X0025080Y0279647D01*
X0025302Y0279110D02*
X0023977Y0282308D01*
X0021529Y0284756D01*
X0018331Y0286081D01*
X0014869Y0286081D01*
X0011670Y0284756D01*
X0009222Y0282308D01*
X0007898Y0279110D01*
X0007898Y0275648D01*
X0009222Y0272449D01*
X0011670Y0270001D01*
X0014869Y0268676D01*
X0018331Y0268676D01*
X0021529Y0270001D01*
X0023977Y0272449D01*
X0025302Y0275648D01*
X0025302Y0279110D01*
X0024583Y0280845D02*
X0034410Y0280845D01*
X0036400Y0280845D02*
X0036800Y0280845D01*
X0036800Y0279647D02*
X0036400Y0279647D01*
X0036400Y0278448D02*
X0036800Y0278448D01*
X0036800Y0276051D02*
X0036400Y0276051D01*
X0036400Y0274853D02*
X0036800Y0274853D01*
X0036800Y0273654D02*
X0036400Y0273654D01*
X0034668Y0273654D02*
X0024477Y0273654D01*
X0023980Y0272456D02*
X0112300Y0272456D01*
X0112300Y0273654D02*
X0098532Y0273654D01*
X0098257Y0273379D02*
X0100600Y0275722D01*
X0100600Y0277179D01*
X0096800Y0277179D01*
X0096800Y0273379D01*
X0098257Y0273379D01*
X0096800Y0273654D02*
X0096400Y0273654D01*
X0096400Y0274853D02*
X0096800Y0274853D01*
X0096800Y0276051D02*
X0096400Y0276051D01*
X0096800Y0277250D02*
X0113925Y0277250D01*
X0112727Y0276051D02*
X0100600Y0276051D01*
X0099731Y0274853D02*
X0112300Y0274853D01*
X0112300Y0271257D02*
X0022785Y0271257D01*
X0021587Y0270059D02*
X0112300Y0270059D01*
X0112300Y0268860D02*
X0018775Y0268860D01*
X0014425Y0268860D02*
X0004200Y0268860D01*
X0004200Y0267662D02*
X0112300Y0267662D01*
X0112300Y0266463D02*
X0004200Y0266463D01*
X0004200Y0265265D02*
X0112300Y0265265D01*
X0112300Y0264066D02*
X0004200Y0264066D01*
X0004200Y0262868D02*
X0112300Y0262868D01*
X0112300Y0261669D02*
X0004200Y0261669D01*
X0004200Y0260471D02*
X0112300Y0260471D01*
X0112300Y0259272D02*
X0004200Y0259272D01*
X0004200Y0258074D02*
X0112300Y0258074D01*
X0112300Y0256875D02*
X0004200Y0256875D01*
X0004200Y0255677D02*
X0112300Y0255677D01*
X0112300Y0254478D02*
X0004200Y0254478D01*
X0004200Y0253280D02*
X0112300Y0253280D01*
X0112300Y0252081D02*
X0004200Y0252081D01*
X0004200Y0250882D02*
X0035013Y0250882D01*
X0035109Y0250979D02*
X0033000Y0248870D01*
X0033000Y0245888D01*
X0035109Y0243779D01*
X0038091Y0243779D01*
X0040200Y0245888D01*
X0040200Y0248870D01*
X0038091Y0250979D01*
X0035109Y0250979D01*
X0033814Y0249684D02*
X0004200Y0249684D01*
X0004200Y0248485D02*
X0033000Y0248485D01*
X0033000Y0247287D02*
X0004200Y0247287D01*
X0004200Y0246088D02*
X0033000Y0246088D01*
X0033998Y0244890D02*
X0004200Y0244890D01*
X0004200Y0243691D02*
X0112300Y0243691D01*
X0112300Y0242493D02*
X0004200Y0242493D01*
X0004200Y0241294D02*
X0112300Y0241294D01*
X0112300Y0240096D02*
X0004200Y0240096D01*
X0004200Y0238897D02*
X0112300Y0238897D01*
X0112300Y0237699D02*
X0004200Y0237699D01*
X0004200Y0236500D02*
X0112300Y0236500D01*
X0112300Y0235302D02*
X0107909Y0235302D01*
X0107133Y0236079D02*
X0109300Y0233911D01*
X0109300Y0230846D01*
X0107133Y0228679D01*
X0104067Y0228679D01*
X0101900Y0230846D01*
X0101900Y0233911D01*
X0104067Y0236079D01*
X0107133Y0236079D01*
X0109108Y0234103D02*
X0112300Y0234103D01*
X0112300Y0232905D02*
X0109300Y0232905D01*
X0109300Y0231706D02*
X0112300Y0231706D01*
X0112300Y0230508D02*
X0108962Y0230508D01*
X0107763Y0229309D02*
X0112300Y0229309D01*
X0112300Y0228111D02*
X0026641Y0228111D01*
X0026694Y0227779D02*
X0026587Y0228456D01*
X0026363Y0229145D01*
X0026034Y0229790D01*
X0025609Y0230375D01*
X0025097Y0230887D01*
X0024511Y0231313D01*
X0023866Y0231642D01*
X0023177Y0231865D01*
X0022462Y0231979D01*
X0019500Y0231979D01*
X0019500Y0227779D01*
X0018700Y0227779D01*
X0018700Y0231979D01*
X0015738Y0231979D01*
X0015023Y0231865D01*
X0014334Y0231642D01*
X0013689Y0231313D01*
X0013103Y0230887D01*
X0012591Y0230375D01*
X0012166Y0229790D01*
X0011837Y0229145D01*
X0011613Y0228456D01*
X0011506Y0227779D01*
X0018700Y0227779D01*
X0018700Y0226979D01*
X0011506Y0226979D01*
X0011613Y0226302D01*
X0011837Y0225613D01*
X0012166Y0224968D01*
X0012591Y0224382D01*
X0013103Y0223870D01*
X0013689Y0223444D01*
X0014334Y0223116D01*
X0015023Y0222892D01*
X0015738Y0222779D01*
X0018700Y0222779D01*
X0018700Y0226979D01*
X0019500Y0226979D01*
X0019500Y0227779D01*
X0026694Y0227779D01*
X0026694Y0226979D02*
X0019500Y0226979D01*
X0019500Y0222779D01*
X0022462Y0222779D01*
X0023177Y0222892D01*
X0023866Y0223116D01*
X0024511Y0223444D01*
X0025097Y0223870D01*
X0025609Y0224382D01*
X0026034Y0224968D01*
X0026363Y0225613D01*
X0026587Y0226302D01*
X0026694Y0226979D01*
X0026683Y0226912D02*
X0112300Y0226912D01*
X0112300Y0225714D02*
X0026396Y0225714D01*
X0025705Y0224515D02*
X0112300Y0224515D01*
X0112300Y0223317D02*
X0024260Y0223317D01*
X0024499Y0220920D02*
X0112300Y0220920D01*
X0112300Y0222118D02*
X0004200Y0222118D01*
X0004200Y0220920D02*
X0013701Y0220920D01*
X0012524Y0219721D02*
X0004200Y0219721D01*
X0004200Y0218523D02*
X0012028Y0218523D01*
X0011900Y0217324D02*
X0004200Y0217324D01*
X0004200Y0216126D02*
X0012073Y0216126D01*
X0012612Y0214927D02*
X0004200Y0214927D01*
X0004200Y0213729D02*
X0013937Y0213729D01*
X0019100Y0217379D02*
X0021600Y0217379D01*
X0036600Y0202379D01*
X0106600Y0202379D01*
X0114100Y0209879D01*
X0115900Y0210133D02*
X0116298Y0210133D01*
X0115900Y0211332D02*
X0118569Y0211332D01*
X0112300Y0211332D02*
X0110063Y0211332D01*
X0110200Y0211663D02*
X0110200Y0217895D01*
X0109652Y0219218D01*
X0108639Y0220231D01*
X0107316Y0220779D01*
X0105884Y0220779D01*
X0104561Y0220231D01*
X0103548Y0219218D01*
X0103000Y0217895D01*
X0103000Y0211663D01*
X0103548Y0210339D01*
X0104561Y0209327D01*
X0105884Y0208779D01*
X0107316Y0208779D01*
X0108639Y0209327D01*
X0109652Y0210339D01*
X0110200Y0211663D01*
X0110200Y0212530D02*
X0112300Y0212530D01*
X0112300Y0213729D02*
X0110200Y0213729D01*
X0110200Y0214927D02*
X0112300Y0214927D01*
X0112300Y0216126D02*
X0110200Y0216126D01*
X0110200Y0217324D02*
X0112300Y0217324D01*
X0112300Y0218523D02*
X0109940Y0218523D01*
X0109149Y0219721D02*
X0112300Y0219721D01*
X0115900Y0219721D02*
X0116451Y0219721D01*
X0115900Y0220920D02*
X0118341Y0220920D01*
X0115900Y0222118D02*
X0252300Y0222118D01*
X0252300Y0223317D02*
X0115900Y0223317D01*
X0115900Y0224515D02*
X0116972Y0224515D01*
X0115993Y0225714D02*
X0115900Y0225714D01*
X0115900Y0229309D02*
X0116103Y0229309D01*
X0115900Y0230508D02*
X0117347Y0230508D01*
X0115900Y0231706D02*
X0173900Y0231706D01*
X0173900Y0231643D02*
X0174463Y0230283D01*
X0175504Y0229242D01*
X0176864Y0228679D01*
X0178336Y0228679D01*
X0179696Y0229242D01*
X0180737Y0230283D01*
X0181300Y0231643D01*
X0181300Y0233115D01*
X0180737Y0234475D01*
X0179696Y0235515D01*
X0178336Y0236079D01*
X0176864Y0236079D01*
X0175504Y0235515D01*
X0174463Y0234475D01*
X0173900Y0233115D01*
X0173900Y0231643D01*
X0174370Y0230508D02*
X0155853Y0230508D01*
X0156039Y0230431D02*
X0154716Y0230979D01*
X0148484Y0230979D01*
X0147161Y0230431D01*
X0146148Y0229418D01*
X0145600Y0228095D01*
X0145600Y0226663D01*
X0146148Y0225339D01*
X0147161Y0224327D01*
X0148484Y0223779D01*
X0154716Y0223779D01*
X0156039Y0224327D01*
X0157052Y0225339D01*
X0157600Y0226663D01*
X0157600Y0228095D01*
X0157052Y0229418D01*
X0156039Y0230431D01*
X0157097Y0229309D02*
X0175437Y0229309D01*
X0173900Y0232905D02*
X0115900Y0232905D01*
X0115900Y0234103D02*
X0117700Y0234103D01*
X0116186Y0235302D02*
X0115900Y0235302D01*
X0115900Y0238897D02*
X0115932Y0238897D01*
X0115900Y0240096D02*
X0116826Y0240096D01*
X0115900Y0241294D02*
X0243800Y0241294D01*
X0243800Y0240096D02*
X0156374Y0240096D01*
X0156039Y0240431D02*
X0154716Y0240979D01*
X0148484Y0240979D01*
X0147161Y0240431D01*
X0146148Y0239418D01*
X0145600Y0238095D01*
X0145600Y0236663D01*
X0146148Y0235339D01*
X0147161Y0234327D01*
X0148484Y0233779D01*
X0154716Y0233779D01*
X0156039Y0234327D01*
X0157052Y0235339D01*
X0157600Y0236663D01*
X0157600Y0238095D01*
X0157052Y0239418D01*
X0156039Y0240431D01*
X0157268Y0238897D02*
X0243800Y0238897D01*
X0243800Y0237699D02*
X0157600Y0237699D01*
X0157533Y0236500D02*
X0243800Y0236500D01*
X0243291Y0235302D02*
X0239909Y0235302D01*
X0239696Y0235515D02*
X0238336Y0236079D01*
X0236864Y0236079D01*
X0235504Y0235515D01*
X0234463Y0234475D01*
X0233900Y0233115D01*
X0233900Y0231643D01*
X0234463Y0230283D01*
X0235504Y0229242D01*
X0236864Y0228679D01*
X0238336Y0228679D01*
X0239696Y0229242D01*
X0240737Y0230283D01*
X0241300Y0231643D01*
X0241300Y0233115D01*
X0240737Y0234475D01*
X0239696Y0235515D01*
X0240891Y0234103D02*
X0242092Y0234103D01*
X0241900Y0232905D02*
X0241300Y0232905D01*
X0241300Y0231706D02*
X0241900Y0231706D01*
X0242238Y0230508D02*
X0240830Y0230508D01*
X0239763Y0229309D02*
X0243437Y0229309D01*
X0245600Y0232379D02*
X0245600Y0241379D01*
X0251600Y0247379D01*
X0256100Y0247379D01*
X0252600Y0249684D02*
X0239386Y0249684D01*
X0240200Y0248870D02*
X0238091Y0250979D01*
X0235109Y0250979D01*
X0233000Y0248870D01*
X0233000Y0245888D01*
X0235109Y0243779D01*
X0238091Y0243779D01*
X0240200Y0245888D01*
X0240200Y0248870D01*
X0240200Y0248485D02*
X0250161Y0248485D01*
X0248963Y0247287D02*
X0240200Y0247287D01*
X0240200Y0246088D02*
X0247764Y0246088D01*
X0246566Y0244890D02*
X0239202Y0244890D01*
X0233998Y0244890D02*
X0219202Y0244890D01*
X0220200Y0245888D02*
X0218091Y0243779D01*
X0215109Y0243779D01*
X0213000Y0245888D01*
X0213000Y0248870D01*
X0215109Y0250979D01*
X0218091Y0250979D01*
X0220200Y0248870D01*
X0220200Y0245888D01*
X0220200Y0246088D02*
X0233000Y0246088D01*
X0233000Y0247287D02*
X0220200Y0247287D01*
X0220200Y0248485D02*
X0233000Y0248485D01*
X0233814Y0249684D02*
X0219386Y0249684D01*
X0218187Y0250882D02*
X0235013Y0250882D01*
X0238187Y0250882D02*
X0252600Y0250882D01*
X0252600Y0244890D02*
X0251657Y0244890D01*
X0252640Y0243691D02*
X0250458Y0243691D01*
X0249260Y0242493D02*
X0260300Y0242493D01*
X0260300Y0241294D02*
X0248061Y0241294D01*
X0247400Y0240096D02*
X0259272Y0240096D01*
X0258073Y0238897D02*
X0247400Y0238897D01*
X0247400Y0237699D02*
X0256875Y0237699D01*
X0255676Y0236500D02*
X0247400Y0236500D01*
X0247909Y0235302D02*
X0254478Y0235302D01*
X0253279Y0234103D02*
X0249108Y0234103D01*
X0249300Y0232905D02*
X0252300Y0232905D01*
X0252300Y0231706D02*
X0249300Y0231706D01*
X0248962Y0230508D02*
X0252300Y0230508D01*
X0252300Y0229309D02*
X0247763Y0229309D01*
X0252300Y0228111D02*
X0157593Y0228111D01*
X0157600Y0226912D02*
X0252300Y0226912D01*
X0252300Y0225714D02*
X0157207Y0225714D01*
X0156228Y0224515D02*
X0252300Y0224515D01*
X0254100Y0222379D02*
X0259100Y0217379D01*
X0264100Y0217379D01*
X0263700Y0222779D02*
X0260738Y0222779D01*
X0260023Y0222892D01*
X0259334Y0223116D01*
X0258689Y0223444D01*
X0258103Y0223870D01*
X0257591Y0224382D01*
X0257166Y0224968D01*
X0256837Y0225613D01*
X0256613Y0226302D01*
X0256506Y0226979D01*
X0263700Y0226979D01*
X0263700Y0227779D01*
X0263700Y0231979D01*
X0260738Y0231979D01*
X0260023Y0231865D01*
X0259334Y0231642D01*
X0258689Y0231313D01*
X0258103Y0230887D01*
X0257591Y0230375D01*
X0257166Y0229790D01*
X0256837Y0229145D01*
X0256613Y0228456D01*
X0256506Y0227779D01*
X0263700Y0227779D01*
X0264500Y0227779D01*
X0264500Y0231979D01*
X0267462Y0231979D01*
X0268177Y0231865D01*
X0268866Y0231642D01*
X0269511Y0231313D01*
X0270097Y0230887D01*
X0270609Y0230375D01*
X0271034Y0229790D01*
X0271363Y0229145D01*
X0271587Y0228456D01*
X0271694Y0227779D01*
X0264500Y0227779D01*
X0264500Y0226979D01*
X0271694Y0226979D01*
X0271587Y0226302D01*
X0271363Y0225613D01*
X0271034Y0224968D01*
X0270609Y0224382D01*
X0270097Y0223870D01*
X0269511Y0223444D01*
X0268866Y0223116D01*
X0268177Y0222892D01*
X0267462Y0222779D01*
X0264500Y0222779D01*
X0264500Y0226979D01*
X0263700Y0226979D01*
X0263700Y0222779D01*
X0263700Y0223317D02*
X0264500Y0223317D01*
X0264500Y0224515D02*
X0263700Y0224515D01*
X0263700Y0225714D02*
X0264500Y0225714D01*
X0264500Y0226912D02*
X0263700Y0226912D01*
X0263700Y0228111D02*
X0264500Y0228111D01*
X0264500Y0229309D02*
X0263700Y0229309D01*
X0263700Y0230508D02*
X0264500Y0230508D01*
X0264500Y0231706D02*
X0263700Y0231706D01*
X0268667Y0231706D02*
X0278921Y0231706D01*
X0278921Y0230508D02*
X0270476Y0230508D01*
X0271279Y0229309D02*
X0278921Y0229309D01*
X0278921Y0228111D02*
X0271641Y0228111D01*
X0271683Y0226912D02*
X0278921Y0226912D01*
X0278921Y0225714D02*
X0271396Y0225714D01*
X0270705Y0224515D02*
X0278921Y0224515D01*
X0278921Y0223317D02*
X0269260Y0223317D01*
X0269499Y0220920D02*
X0278921Y0220920D01*
X0278921Y0222118D02*
X0256906Y0222118D01*
X0255900Y0223317D02*
X0258940Y0223317D01*
X0257495Y0224515D02*
X0255900Y0224515D01*
X0255900Y0225714D02*
X0256804Y0225714D01*
X0256517Y0226912D02*
X0255900Y0226912D01*
X0255900Y0228111D02*
X0256559Y0228111D01*
X0256921Y0229309D02*
X0255900Y0229309D01*
X0255900Y0230508D02*
X0257724Y0230508D01*
X0255973Y0231706D02*
X0259533Y0231706D01*
X0257172Y0232905D02*
X0278921Y0232905D01*
X0278921Y0234103D02*
X0258370Y0234103D01*
X0259569Y0235302D02*
X0278921Y0235302D01*
X0278921Y0236500D02*
X0260767Y0236500D01*
X0261966Y0237699D02*
X0278921Y0237699D01*
X0278921Y0238897D02*
X0263164Y0238897D01*
X0263900Y0240096D02*
X0278921Y0240096D01*
X0278921Y0241294D02*
X0263900Y0241294D01*
X0263900Y0242493D02*
X0278921Y0242493D01*
X0278921Y0243691D02*
X0265560Y0243691D01*
X0265600Y0244890D02*
X0278921Y0244890D01*
X0278921Y0246088D02*
X0265600Y0246088D01*
X0265600Y0247287D02*
X0278921Y0247287D01*
X0278921Y0248485D02*
X0265600Y0248485D01*
X0265600Y0249684D02*
X0278921Y0249684D01*
X0278921Y0250882D02*
X0265600Y0250882D01*
X0262100Y0247379D02*
X0262100Y0240379D01*
X0254100Y0232379D01*
X0254100Y0222379D01*
X0258105Y0220920D02*
X0258701Y0220920D01*
X0257915Y0210133D02*
X0249446Y0210133D01*
X0247692Y0208935D02*
X0257198Y0208935D01*
X0256900Y0207736D02*
X0157600Y0207736D01*
X0157600Y0208095D02*
X0157052Y0209418D01*
X0156039Y0210431D01*
X0154716Y0210979D01*
X0148484Y0210979D01*
X0147161Y0210431D01*
X0146148Y0209418D01*
X0145600Y0208095D01*
X0145600Y0206663D01*
X0146148Y0205339D01*
X0147161Y0204327D01*
X0148484Y0203779D01*
X0154716Y0203779D01*
X0156039Y0204327D01*
X0157052Y0205339D01*
X0157600Y0206663D01*
X0157600Y0208095D01*
X0157252Y0208935D02*
X0175508Y0208935D01*
X0173754Y0210133D02*
X0156337Y0210133D01*
X0157548Y0206538D02*
X0255713Y0206538D01*
X0254515Y0205339D02*
X0157051Y0205339D01*
X0155590Y0204141D02*
X0253316Y0204141D01*
X0252118Y0202942D02*
X0109709Y0202942D01*
X0108510Y0201744D02*
X0250919Y0201744D01*
X0253613Y0199347D02*
X0257369Y0199347D01*
X0258327Y0200545D02*
X0254812Y0200545D01*
X0256010Y0201744D02*
X0278921Y0201744D01*
X0278921Y0202942D02*
X0257209Y0202942D01*
X0257987Y0194552D02*
X0025213Y0194552D01*
X0023358Y0193354D02*
X0259842Y0193354D01*
X0260265Y0191579D02*
X0258721Y0190939D01*
X0257539Y0189758D01*
X0256900Y0188214D01*
X0256900Y0186543D01*
X0257539Y0185000D01*
X0258721Y0183818D01*
X0260265Y0183179D01*
X0267935Y0183179D01*
X0269479Y0183818D01*
X0270661Y0185000D01*
X0271300Y0186543D01*
X0271300Y0188214D01*
X0270661Y0189758D01*
X0269479Y0190939D01*
X0267935Y0191579D01*
X0260265Y0191579D01*
X0258763Y0190957D02*
X0245522Y0190957D01*
X0246720Y0189758D02*
X0257540Y0189758D01*
X0257043Y0188560D02*
X0247919Y0188560D01*
X0249117Y0187361D02*
X0256900Y0187361D01*
X0257058Y0186163D02*
X0250316Y0186163D01*
X0251514Y0184964D02*
X0257575Y0184964D01*
X0258847Y0183766D02*
X0252713Y0183766D01*
X0253911Y0182567D02*
X0278921Y0182567D01*
X0278921Y0181369D02*
X0268442Y0181369D01*
X0267935Y0181579D02*
X0260265Y0181579D01*
X0258721Y0180939D01*
X0257539Y0179758D01*
X0256900Y0178214D01*
X0256900Y0176543D01*
X0257539Y0175000D01*
X0258721Y0173818D01*
X0260265Y0173179D01*
X0267935Y0173179D01*
X0269479Y0173818D01*
X0270661Y0175000D01*
X0271300Y0176543D01*
X0271300Y0178214D01*
X0270661Y0179758D01*
X0269479Y0180939D01*
X0267935Y0181579D01*
X0269353Y0183766D02*
X0278921Y0183766D01*
X0278921Y0184964D02*
X0270625Y0184964D01*
X0271142Y0186163D02*
X0278921Y0186163D01*
X0278921Y0187361D02*
X0271300Y0187361D01*
X0271157Y0188560D02*
X0278921Y0188560D01*
X0278921Y0189758D02*
X0270660Y0189758D01*
X0269437Y0190957D02*
X0278921Y0190957D01*
X0278921Y0192155D02*
X0244323Y0192155D01*
X0246600Y0182379D02*
X0246600Y0167379D01*
X0241639Y0162418D01*
X0241639Y0082379D01*
X0216639Y0112379D02*
X0216639Y0167418D01*
X0226600Y0177379D01*
X0226600Y0182379D01*
X0206600Y0182379D02*
X0206600Y0177379D01*
X0201600Y0172379D01*
X0196600Y0172379D01*
X0186600Y0162379D01*
X0186600Y0097379D01*
X0191600Y0092379D01*
X0191600Y0082418D01*
X0191639Y0082379D01*
X0166639Y0112379D02*
X0166639Y0164918D01*
X0171600Y0169879D01*
X0179100Y0169879D01*
X0186600Y0177379D01*
X0186600Y0182379D01*
X0185884Y0208779D02*
X0187316Y0208779D01*
X0188639Y0209327D01*
X0189652Y0210339D01*
X0190200Y0211663D01*
X0190200Y0217895D01*
X0189652Y0219218D01*
X0188639Y0220231D01*
X0187316Y0220779D01*
X0185884Y0220779D01*
X0184561Y0220231D01*
X0183548Y0219218D01*
X0183000Y0217895D01*
X0183000Y0211663D01*
X0183548Y0210339D01*
X0184561Y0209327D01*
X0185884Y0208779D01*
X0185508Y0208935D02*
X0177692Y0208935D01*
X0179446Y0210133D02*
X0183754Y0210133D01*
X0183137Y0211332D02*
X0180063Y0211332D01*
X0180200Y0212530D02*
X0183000Y0212530D01*
X0183000Y0213729D02*
X0180200Y0213729D01*
X0180200Y0214927D02*
X0183000Y0214927D01*
X0183000Y0216126D02*
X0180200Y0216126D01*
X0180200Y0217324D02*
X0183000Y0217324D01*
X0183260Y0218523D02*
X0179940Y0218523D01*
X0179149Y0219721D02*
X0184051Y0219721D01*
X0189149Y0219721D02*
X0194051Y0219721D01*
X0193548Y0219218D02*
X0193000Y0217895D01*
X0193000Y0211663D01*
X0193548Y0210339D01*
X0194561Y0209327D01*
X0195884Y0208779D01*
X0197316Y0208779D01*
X0198639Y0209327D01*
X0199652Y0210339D01*
X0200200Y0211663D01*
X0200200Y0217895D01*
X0199652Y0219218D01*
X0198639Y0220231D01*
X0197316Y0220779D01*
X0195884Y0220779D01*
X0194561Y0220231D01*
X0193548Y0219218D01*
X0193260Y0218523D02*
X0189940Y0218523D01*
X0190200Y0217324D02*
X0193000Y0217324D01*
X0193000Y0216126D02*
X0190200Y0216126D01*
X0190200Y0214927D02*
X0193000Y0214927D01*
X0193000Y0213729D02*
X0190200Y0213729D01*
X0190200Y0212530D02*
X0193000Y0212530D01*
X0193137Y0211332D02*
X0190063Y0211332D01*
X0189446Y0210133D02*
X0193754Y0210133D01*
X0195508Y0208935D02*
X0187692Y0208935D01*
X0197692Y0208935D02*
X0205508Y0208935D01*
X0205884Y0208779D02*
X0207316Y0208779D01*
X0208639Y0209327D01*
X0209652Y0210339D01*
X0210200Y0211663D01*
X0210200Y0217895D01*
X0209652Y0219218D01*
X0208639Y0220231D01*
X0207316Y0220779D01*
X0205884Y0220779D01*
X0204561Y0220231D01*
X0203548Y0219218D01*
X0203000Y0217895D01*
X0203000Y0211663D01*
X0203548Y0210339D01*
X0204561Y0209327D01*
X0205884Y0208779D01*
X0207692Y0208935D02*
X0215508Y0208935D01*
X0215884Y0208779D02*
X0217316Y0208779D01*
X0218639Y0209327D01*
X0219652Y0210339D01*
X0220200Y0211663D01*
X0220200Y0217895D01*
X0219652Y0219218D01*
X0218639Y0220231D01*
X0217316Y0220779D01*
X0215884Y0220779D01*
X0214561Y0220231D01*
X0213548Y0219218D01*
X0213000Y0217895D01*
X0213000Y0211663D01*
X0213548Y0210339D01*
X0214561Y0209327D01*
X0215884Y0208779D01*
X0217692Y0208935D02*
X0225508Y0208935D01*
X0225884Y0208779D02*
X0227316Y0208779D01*
X0228639Y0209327D01*
X0229652Y0210339D01*
X0230200Y0211663D01*
X0230200Y0217895D01*
X0229652Y0219218D01*
X0228639Y0220231D01*
X0227316Y0220779D01*
X0225884Y0220779D01*
X0224561Y0220231D01*
X0223548Y0219218D01*
X0223000Y0217895D01*
X0223000Y0211663D01*
X0223548Y0210339D01*
X0224561Y0209327D01*
X0225884Y0208779D01*
X0227692Y0208935D02*
X0235508Y0208935D01*
X0235884Y0208779D02*
X0237316Y0208779D01*
X0238639Y0209327D01*
X0239652Y0210339D01*
X0240200Y0211663D01*
X0240200Y0217895D01*
X0239652Y0219218D01*
X0238639Y0220231D01*
X0237316Y0220779D01*
X0235884Y0220779D01*
X0234561Y0220231D01*
X0233548Y0219218D01*
X0233000Y0217895D01*
X0233000Y0211663D01*
X0233548Y0210339D01*
X0234561Y0209327D01*
X0235884Y0208779D01*
X0237692Y0208935D02*
X0245508Y0208935D01*
X0243754Y0210133D02*
X0239446Y0210133D01*
X0240063Y0211332D02*
X0243137Y0211332D01*
X0243000Y0212530D02*
X0240200Y0212530D01*
X0240200Y0213729D02*
X0243000Y0213729D01*
X0243000Y0214927D02*
X0240200Y0214927D01*
X0240200Y0216126D02*
X0243000Y0216126D01*
X0243000Y0217324D02*
X0240200Y0217324D01*
X0239940Y0218523D02*
X0243260Y0218523D01*
X0244051Y0219721D02*
X0239149Y0219721D01*
X0234051Y0219721D02*
X0229149Y0219721D01*
X0229940Y0218523D02*
X0233260Y0218523D01*
X0233000Y0217324D02*
X0230200Y0217324D01*
X0230200Y0216126D02*
X0233000Y0216126D01*
X0233000Y0214927D02*
X0230200Y0214927D01*
X0230200Y0213729D02*
X0233000Y0213729D01*
X0233000Y0212530D02*
X0230200Y0212530D01*
X0230063Y0211332D02*
X0233137Y0211332D01*
X0233754Y0210133D02*
X0229446Y0210133D01*
X0223754Y0210133D02*
X0219446Y0210133D01*
X0220063Y0211332D02*
X0223137Y0211332D01*
X0223000Y0212530D02*
X0220200Y0212530D01*
X0220200Y0213729D02*
X0223000Y0213729D01*
X0223000Y0214927D02*
X0220200Y0214927D01*
X0220200Y0216126D02*
X0223000Y0216126D01*
X0223000Y0217324D02*
X0220200Y0217324D01*
X0219940Y0218523D02*
X0223260Y0218523D01*
X0224051Y0219721D02*
X0219149Y0219721D01*
X0214051Y0219721D02*
X0209149Y0219721D01*
X0209940Y0218523D02*
X0213260Y0218523D01*
X0213000Y0217324D02*
X0210200Y0217324D01*
X0210200Y0216126D02*
X0213000Y0216126D01*
X0213000Y0214927D02*
X0210200Y0214927D01*
X0210200Y0213729D02*
X0213000Y0213729D01*
X0213000Y0212530D02*
X0210200Y0212530D01*
X0210063Y0211332D02*
X0213137Y0211332D01*
X0213754Y0210133D02*
X0209446Y0210133D01*
X0203754Y0210133D02*
X0199446Y0210133D01*
X0200063Y0211332D02*
X0203137Y0211332D01*
X0203000Y0212530D02*
X0200200Y0212530D01*
X0200200Y0213729D02*
X0203000Y0213729D01*
X0203000Y0214927D02*
X0200200Y0214927D01*
X0200200Y0216126D02*
X0203000Y0216126D01*
X0203000Y0217324D02*
X0200200Y0217324D01*
X0199940Y0218523D02*
X0203260Y0218523D01*
X0204051Y0219721D02*
X0199149Y0219721D01*
X0198336Y0228679D02*
X0196864Y0228679D01*
X0195504Y0229242D01*
X0194463Y0230283D01*
X0193900Y0231643D01*
X0193900Y0233115D01*
X0194463Y0234475D01*
X0195504Y0235515D01*
X0196864Y0236079D01*
X0198336Y0236079D01*
X0199696Y0235515D01*
X0200737Y0234475D01*
X0201300Y0233115D01*
X0201300Y0231643D01*
X0200737Y0230283D01*
X0199696Y0229242D01*
X0198336Y0228679D01*
X0199763Y0229309D02*
X0203437Y0229309D01*
X0204067Y0228679D02*
X0201900Y0230846D01*
X0201900Y0233911D01*
X0204067Y0236079D01*
X0207133Y0236079D01*
X0209300Y0233911D01*
X0209300Y0230846D01*
X0207133Y0228679D01*
X0204067Y0228679D01*
X0202238Y0230508D02*
X0200830Y0230508D01*
X0201300Y0231706D02*
X0201900Y0231706D01*
X0201900Y0232905D02*
X0201300Y0232905D01*
X0200891Y0234103D02*
X0202092Y0234103D01*
X0203291Y0235302D02*
X0199909Y0235302D01*
X0195291Y0235302D02*
X0187909Y0235302D01*
X0187133Y0236079D02*
X0184067Y0236079D01*
X0181900Y0233911D01*
X0181900Y0230846D01*
X0184067Y0228679D01*
X0187133Y0228679D01*
X0189300Y0230846D01*
X0189300Y0233911D01*
X0187133Y0236079D01*
X0189108Y0234103D02*
X0194309Y0234103D01*
X0193900Y0232905D02*
X0189300Y0232905D01*
X0189300Y0231706D02*
X0193900Y0231706D01*
X0194370Y0230508D02*
X0188962Y0230508D01*
X0187763Y0229309D02*
X0195437Y0229309D01*
X0207763Y0229309D02*
X0215437Y0229309D01*
X0215504Y0229242D02*
X0216864Y0228679D01*
X0218336Y0228679D01*
X0219696Y0229242D01*
X0220737Y0230283D01*
X0221300Y0231643D01*
X0221300Y0233115D01*
X0220737Y0234475D01*
X0219696Y0235515D01*
X0218336Y0236079D01*
X0216864Y0236079D01*
X0215504Y0235515D01*
X0214463Y0234475D01*
X0213900Y0233115D01*
X0213900Y0231643D01*
X0214463Y0230283D01*
X0215504Y0229242D01*
X0214370Y0230508D02*
X0208962Y0230508D01*
X0209300Y0231706D02*
X0213900Y0231706D01*
X0213900Y0232905D02*
X0209300Y0232905D01*
X0209108Y0234103D02*
X0214309Y0234103D01*
X0215291Y0235302D02*
X0207909Y0235302D01*
X0213998Y0244890D02*
X0199202Y0244890D01*
X0200200Y0245888D02*
X0198091Y0243779D01*
X0195109Y0243779D01*
X0193000Y0245888D01*
X0193000Y0248870D01*
X0195109Y0250979D01*
X0198091Y0250979D01*
X0200200Y0248870D01*
X0200200Y0245888D01*
X0200200Y0246088D02*
X0213000Y0246088D01*
X0213000Y0247287D02*
X0200200Y0247287D01*
X0200200Y0248485D02*
X0213000Y0248485D01*
X0213814Y0249684D02*
X0199386Y0249684D01*
X0198187Y0250882D02*
X0215013Y0250882D01*
X0219909Y0235302D02*
X0223291Y0235302D01*
X0224067Y0236079D02*
X0221900Y0233911D01*
X0221900Y0230846D01*
X0224067Y0228679D01*
X0227133Y0228679D01*
X0229300Y0230846D01*
X0229300Y0233911D01*
X0227133Y0236079D01*
X0224067Y0236079D01*
X0222092Y0234103D02*
X0220891Y0234103D01*
X0221300Y0232905D02*
X0221900Y0232905D01*
X0221900Y0231706D02*
X0221300Y0231706D01*
X0220830Y0230508D02*
X0222238Y0230508D01*
X0223437Y0229309D02*
X0219763Y0229309D01*
X0227763Y0229309D02*
X0235437Y0229309D01*
X0234370Y0230508D02*
X0228962Y0230508D01*
X0229300Y0231706D02*
X0233900Y0231706D01*
X0233900Y0232905D02*
X0229300Y0232905D01*
X0229108Y0234103D02*
X0234309Y0234103D01*
X0235291Y0235302D02*
X0227909Y0235302D01*
X0244169Y0242493D02*
X0115900Y0242493D01*
X0115900Y0243691D02*
X0245367Y0243691D01*
X0261670Y0270001D02*
X0264869Y0268676D01*
X0268331Y0268676D01*
X0271529Y0270001D01*
X0273977Y0272449D01*
X0275302Y0275648D01*
X0275302Y0279110D01*
X0273977Y0282308D01*
X0271529Y0284756D01*
X0268331Y0286081D01*
X0264869Y0286081D01*
X0261670Y0284756D01*
X0259222Y0282308D01*
X0257898Y0279110D01*
X0257898Y0275648D01*
X0259222Y0272449D01*
X0261670Y0270001D01*
X0261613Y0270059D02*
X0156411Y0270059D01*
X0156039Y0270431D02*
X0154716Y0270979D01*
X0148484Y0270979D01*
X0147161Y0270431D01*
X0146148Y0269418D01*
X0145600Y0268095D01*
X0145600Y0266663D01*
X0146148Y0265339D01*
X0147161Y0264327D01*
X0148484Y0263779D01*
X0154716Y0263779D01*
X0156039Y0264327D01*
X0157052Y0265339D01*
X0157600Y0266663D01*
X0157600Y0268095D01*
X0157052Y0269418D01*
X0156039Y0270431D01*
X0157283Y0268860D02*
X0264425Y0268860D01*
X0268775Y0268860D02*
X0278921Y0268860D01*
X0278921Y0267662D02*
X0157600Y0267662D01*
X0157517Y0266463D02*
X0278921Y0266463D01*
X0278921Y0265265D02*
X0156977Y0265265D01*
X0155410Y0264066D02*
X0278921Y0264066D01*
X0278921Y0262868D02*
X0115900Y0262868D01*
X0115900Y0264066D02*
X0117790Y0264066D01*
X0116223Y0265265D02*
X0115900Y0265265D01*
X0115900Y0268860D02*
X0115917Y0268860D01*
X0115900Y0270059D02*
X0116789Y0270059D01*
X0115900Y0271257D02*
X0260415Y0271257D01*
X0259220Y0272456D02*
X0115900Y0272456D01*
X0115900Y0273654D02*
X0174668Y0273654D01*
X0174943Y0273379D02*
X0172600Y0275722D01*
X0172600Y0277179D01*
X0176400Y0277179D01*
X0176400Y0277579D01*
X0176400Y0281379D01*
X0174943Y0281379D01*
X0172600Y0279036D01*
X0172600Y0277579D01*
X0176400Y0277579D01*
X0176800Y0277579D01*
X0176800Y0281379D01*
X0178257Y0281379D01*
X0180600Y0279036D01*
X0180600Y0277579D01*
X0176800Y0277579D01*
X0176800Y0277179D01*
X0180600Y0277179D01*
X0180600Y0275722D01*
X0178257Y0273379D01*
X0176800Y0273379D01*
X0176800Y0277179D01*
X0176400Y0277179D01*
X0176400Y0273379D01*
X0174943Y0273379D01*
X0176400Y0273654D02*
X0176800Y0273654D01*
X0176800Y0274853D02*
X0176400Y0274853D01*
X0176400Y0276051D02*
X0176800Y0276051D01*
X0176800Y0277250D02*
X0196400Y0277250D01*
X0196400Y0277179D02*
X0192600Y0277179D01*
X0192600Y0275722D01*
X0194943Y0273379D01*
X0196400Y0273379D01*
X0196400Y0277179D01*
X0196400Y0277579D01*
X0196400Y0281379D01*
X0194943Y0281379D01*
X0192600Y0279036D01*
X0192600Y0277579D01*
X0196400Y0277579D01*
X0196800Y0277579D01*
X0196800Y0281379D01*
X0198257Y0281379D01*
X0200600Y0279036D01*
X0200600Y0277579D01*
X0196800Y0277579D01*
X0196800Y0277179D01*
X0200600Y0277179D01*
X0200600Y0275722D01*
X0198257Y0273379D01*
X0196800Y0273379D01*
X0196800Y0277179D01*
X0196400Y0277179D01*
X0196800Y0277250D02*
X0216400Y0277250D01*
X0216400Y0277179D02*
X0212600Y0277179D01*
X0212600Y0275722D01*
X0214943Y0273379D01*
X0216400Y0273379D01*
X0216400Y0277179D01*
X0216400Y0277579D01*
X0216400Y0281379D01*
X0214943Y0281379D01*
X0212600Y0279036D01*
X0212600Y0277579D01*
X0216400Y0277579D01*
X0216800Y0277579D01*
X0216800Y0281379D01*
X0218257Y0281379D01*
X0220600Y0279036D01*
X0220600Y0277579D01*
X0216800Y0277579D01*
X0216800Y0277179D01*
X0220600Y0277179D01*
X0220600Y0275722D01*
X0218257Y0273379D01*
X0216800Y0273379D01*
X0216800Y0277179D01*
X0216400Y0277179D01*
X0216800Y0277250D02*
X0236400Y0277250D01*
X0236400Y0277179D02*
X0232600Y0277179D01*
X0232600Y0275722D01*
X0234943Y0273379D01*
X0236400Y0273379D01*
X0236400Y0277179D01*
X0236400Y0277579D01*
X0236400Y0281379D01*
X0234943Y0281379D01*
X0232600Y0279036D01*
X0232600Y0277579D01*
X0236400Y0277579D01*
X0236800Y0277579D01*
X0236800Y0281379D01*
X0238257Y0281379D01*
X0240600Y0279036D01*
X0240600Y0277579D01*
X0236800Y0277579D01*
X0236800Y0277179D01*
X0240600Y0277179D01*
X0240600Y0275722D01*
X0238257Y0273379D01*
X0236800Y0273379D01*
X0236800Y0277179D01*
X0236400Y0277179D01*
X0236800Y0277250D02*
X0257898Y0277250D01*
X0257898Y0278448D02*
X0240600Y0278448D01*
X0239989Y0279647D02*
X0258120Y0279647D01*
X0258617Y0280845D02*
X0238790Y0280845D01*
X0236800Y0280845D02*
X0236400Y0280845D01*
X0236400Y0279647D02*
X0236800Y0279647D01*
X0236800Y0278448D02*
X0236400Y0278448D01*
X0236400Y0276051D02*
X0236800Y0276051D01*
X0236800Y0274853D02*
X0236400Y0274853D01*
X0236400Y0273654D02*
X0236800Y0273654D01*
X0238532Y0273654D02*
X0258723Y0273654D01*
X0258227Y0274853D02*
X0239731Y0274853D01*
X0240600Y0276051D02*
X0257898Y0276051D01*
X0259113Y0282044D02*
X0024087Y0282044D01*
X0023043Y0283242D02*
X0260157Y0283242D01*
X0261355Y0284441D02*
X0021845Y0284441D01*
X0019398Y0285639D02*
X0263802Y0285639D01*
X0269398Y0285639D02*
X0278921Y0285639D01*
X0278921Y0284441D02*
X0271845Y0284441D01*
X0273043Y0283242D02*
X0278921Y0283242D01*
X0278921Y0282044D02*
X0274087Y0282044D01*
X0274583Y0280845D02*
X0278921Y0280845D01*
X0278921Y0279647D02*
X0275080Y0279647D01*
X0275302Y0278448D02*
X0278921Y0278448D01*
X0278921Y0277250D02*
X0275302Y0277250D01*
X0275302Y0276051D02*
X0278921Y0276051D01*
X0278921Y0274853D02*
X0274973Y0274853D01*
X0274477Y0273654D02*
X0278921Y0273654D01*
X0278921Y0272456D02*
X0273980Y0272456D01*
X0272785Y0271257D02*
X0278921Y0271257D01*
X0278921Y0270059D02*
X0271587Y0270059D01*
X0278921Y0261669D02*
X0115900Y0261669D01*
X0115900Y0260471D02*
X0117257Y0260471D01*
X0116088Y0259272D02*
X0115900Y0259272D01*
X0115900Y0255677D02*
X0116008Y0255677D01*
X0115900Y0254478D02*
X0117010Y0254478D01*
X0115900Y0253280D02*
X0278921Y0253280D01*
X0278921Y0254478D02*
X0156190Y0254478D01*
X0156039Y0254327D02*
X0157052Y0255339D01*
X0157600Y0256663D01*
X0157600Y0258095D01*
X0157052Y0259418D01*
X0156039Y0260431D01*
X0154716Y0260979D01*
X0148484Y0260979D01*
X0147161Y0260431D01*
X0146148Y0259418D01*
X0145600Y0258095D01*
X0145600Y0256663D01*
X0146148Y0255339D01*
X0147161Y0254327D01*
X0148484Y0253779D01*
X0154716Y0253779D01*
X0156039Y0254327D01*
X0157192Y0255677D02*
X0278921Y0255677D01*
X0278921Y0256875D02*
X0157600Y0256875D01*
X0157600Y0258074D02*
X0278921Y0258074D01*
X0278921Y0259272D02*
X0157112Y0259272D01*
X0155943Y0260471D02*
X0278921Y0260471D01*
X0278921Y0252081D02*
X0115900Y0252081D01*
X0115900Y0250882D02*
X0118252Y0250882D01*
X0116414Y0249684D02*
X0115900Y0249684D01*
X0112300Y0249684D02*
X0099386Y0249684D01*
X0100200Y0248870D02*
X0098091Y0250979D01*
X0095109Y0250979D01*
X0093000Y0248870D01*
X0093000Y0245888D01*
X0095109Y0243779D01*
X0098091Y0243779D01*
X0100200Y0245888D01*
X0100200Y0248870D01*
X0100200Y0248485D02*
X0112300Y0248485D01*
X0112300Y0247287D02*
X0100200Y0247287D01*
X0100200Y0246088D02*
X0112300Y0246088D01*
X0112300Y0244890D02*
X0099202Y0244890D01*
X0093998Y0244890D02*
X0079202Y0244890D01*
X0080200Y0245888D02*
X0078091Y0243779D01*
X0075109Y0243779D01*
X0073000Y0245888D01*
X0073000Y0248870D01*
X0075109Y0250979D01*
X0078091Y0250979D01*
X0080200Y0248870D01*
X0080200Y0245888D01*
X0080200Y0246088D02*
X0093000Y0246088D01*
X0093000Y0247287D02*
X0080200Y0247287D01*
X0080200Y0248485D02*
X0093000Y0248485D01*
X0093814Y0249684D02*
X0079386Y0249684D01*
X0078187Y0250882D02*
X0095013Y0250882D01*
X0098187Y0250882D02*
X0112300Y0250882D01*
X0115900Y0244890D02*
X0116598Y0244890D01*
X0126602Y0244890D02*
X0146598Y0244890D01*
X0146148Y0245339D02*
X0147161Y0244327D01*
X0148484Y0243779D01*
X0154716Y0243779D01*
X0156039Y0244327D01*
X0157052Y0245339D01*
X0157600Y0246663D01*
X0157600Y0248095D01*
X0157052Y0249418D01*
X0156039Y0250431D01*
X0154716Y0250979D01*
X0148484Y0250979D01*
X0147161Y0250431D01*
X0146148Y0249418D01*
X0145600Y0248095D01*
X0145600Y0246663D01*
X0146148Y0245339D01*
X0145838Y0246088D02*
X0127362Y0246088D01*
X0127600Y0247287D02*
X0145600Y0247287D01*
X0145762Y0248485D02*
X0127438Y0248485D01*
X0126786Y0249684D02*
X0146414Y0249684D01*
X0148252Y0250882D02*
X0124948Y0250882D01*
X0126190Y0254478D02*
X0147010Y0254478D01*
X0146008Y0255677D02*
X0127192Y0255677D01*
X0127600Y0256875D02*
X0145600Y0256875D01*
X0145600Y0258074D02*
X0127600Y0258074D01*
X0127112Y0259272D02*
X0146088Y0259272D01*
X0147257Y0260471D02*
X0125943Y0260471D01*
X0125410Y0264066D02*
X0147790Y0264066D01*
X0146223Y0265265D02*
X0126977Y0265265D01*
X0127517Y0266463D02*
X0145683Y0266463D01*
X0145600Y0267662D02*
X0127600Y0267662D01*
X0127283Y0268860D02*
X0145917Y0268860D01*
X0146789Y0270059D02*
X0126411Y0270059D01*
X0126565Y0274853D02*
X0146635Y0274853D01*
X0146148Y0275339D02*
X0147161Y0274327D01*
X0148484Y0273779D01*
X0154716Y0273779D01*
X0156039Y0274327D01*
X0157052Y0275339D01*
X0157600Y0276663D01*
X0157600Y0278095D01*
X0157052Y0279418D01*
X0156039Y0280431D01*
X0154716Y0280979D01*
X0148484Y0280979D01*
X0147161Y0280431D01*
X0146148Y0279418D01*
X0145600Y0278095D01*
X0145600Y0276663D01*
X0146148Y0275339D01*
X0145853Y0276051D02*
X0127347Y0276051D01*
X0127600Y0277250D02*
X0145600Y0277250D01*
X0145746Y0278448D02*
X0127454Y0278448D01*
X0126823Y0279647D02*
X0146377Y0279647D01*
X0148162Y0280845D02*
X0125038Y0280845D01*
X0116377Y0279647D02*
X0099989Y0279647D01*
X0100600Y0278448D02*
X0115124Y0278448D01*
X0116620Y0274853D02*
X0116635Y0274853D01*
X0094668Y0273654D02*
X0078532Y0273654D01*
X0079731Y0274853D02*
X0093469Y0274853D01*
X0092600Y0276051D02*
X0080600Y0276051D01*
X0080600Y0278448D02*
X0092600Y0278448D01*
X0093211Y0279647D02*
X0079989Y0279647D01*
X0078790Y0280845D02*
X0094410Y0280845D01*
X0076800Y0280845D02*
X0076400Y0280845D01*
X0076400Y0279647D02*
X0076800Y0279647D01*
X0076800Y0278448D02*
X0076400Y0278448D01*
X0076400Y0276051D02*
X0076800Y0276051D01*
X0076800Y0274853D02*
X0076400Y0274853D01*
X0076400Y0273654D02*
X0076800Y0273654D01*
X0074668Y0273654D02*
X0058532Y0273654D01*
X0059731Y0274853D02*
X0073469Y0274853D01*
X0072600Y0276051D02*
X0060600Y0276051D01*
X0060600Y0278448D02*
X0072600Y0278448D01*
X0073211Y0279647D02*
X0059989Y0279647D01*
X0058790Y0280845D02*
X0074410Y0280845D01*
X0056800Y0280845D02*
X0056400Y0280845D01*
X0056400Y0279647D02*
X0056800Y0279647D01*
X0056800Y0278448D02*
X0056400Y0278448D01*
X0056400Y0276051D02*
X0056800Y0276051D01*
X0056800Y0274853D02*
X0056400Y0274853D01*
X0056400Y0273654D02*
X0056800Y0273654D01*
X0054668Y0273654D02*
X0038532Y0273654D01*
X0039731Y0274853D02*
X0053469Y0274853D01*
X0052600Y0276051D02*
X0040600Y0276051D01*
X0040600Y0278448D02*
X0052600Y0278448D01*
X0053211Y0279647D02*
X0039989Y0279647D01*
X0038790Y0280845D02*
X0054410Y0280845D01*
X0033469Y0274853D02*
X0024973Y0274853D01*
X0025302Y0276051D02*
X0032600Y0276051D01*
X0013802Y0285639D02*
X0004200Y0285639D01*
X0004200Y0284441D02*
X0011355Y0284441D01*
X0010157Y0283242D02*
X0004200Y0283242D01*
X0004200Y0282044D02*
X0009113Y0282044D01*
X0008617Y0280845D02*
X0004200Y0280845D01*
X0004200Y0279647D02*
X0008120Y0279647D01*
X0007898Y0278448D02*
X0004200Y0278448D01*
X0004200Y0277250D02*
X0007898Y0277250D01*
X0007898Y0276051D02*
X0004200Y0276051D01*
X0004200Y0274853D02*
X0008227Y0274853D01*
X0008723Y0273654D02*
X0004200Y0273654D01*
X0004200Y0272456D02*
X0009220Y0272456D01*
X0010415Y0271257D02*
X0004200Y0271257D01*
X0004200Y0270059D02*
X0011613Y0270059D01*
X0004200Y0286838D02*
X0278921Y0286838D01*
X0278921Y0288036D02*
X0004200Y0288036D01*
X0038187Y0250882D02*
X0055013Y0250882D01*
X0055109Y0250979D02*
X0053000Y0248870D01*
X0053000Y0245888D01*
X0055109Y0243779D01*
X0058091Y0243779D01*
X0060200Y0245888D01*
X0060200Y0248870D01*
X0058091Y0250979D01*
X0055109Y0250979D01*
X0053814Y0249684D02*
X0039386Y0249684D01*
X0040200Y0248485D02*
X0053000Y0248485D01*
X0053000Y0247287D02*
X0040200Y0247287D01*
X0040200Y0246088D02*
X0053000Y0246088D01*
X0053998Y0244890D02*
X0039202Y0244890D01*
X0038336Y0236079D02*
X0036864Y0236079D01*
X0035504Y0235515D01*
X0034463Y0234475D01*
X0033900Y0233115D01*
X0033900Y0231643D01*
X0034463Y0230283D01*
X0035504Y0229242D01*
X0036864Y0228679D01*
X0038336Y0228679D01*
X0039696Y0229242D01*
X0040737Y0230283D01*
X0041300Y0231643D01*
X0041300Y0233115D01*
X0040737Y0234475D01*
X0039696Y0235515D01*
X0038336Y0236079D01*
X0039909Y0235302D02*
X0043291Y0235302D01*
X0044067Y0236079D02*
X0041900Y0233911D01*
X0041900Y0230846D01*
X0044067Y0228679D01*
X0047133Y0228679D01*
X0049300Y0230846D01*
X0049300Y0233911D01*
X0047133Y0236079D01*
X0044067Y0236079D01*
X0042092Y0234103D02*
X0040891Y0234103D01*
X0041300Y0232905D02*
X0041900Y0232905D01*
X0041900Y0231706D02*
X0041300Y0231706D01*
X0040830Y0230508D02*
X0042238Y0230508D01*
X0043437Y0229309D02*
X0039763Y0229309D01*
X0035437Y0229309D02*
X0026279Y0229309D01*
X0025476Y0230508D02*
X0034370Y0230508D01*
X0033900Y0231706D02*
X0023667Y0231706D01*
X0019500Y0231706D02*
X0018700Y0231706D01*
X0018700Y0230508D02*
X0019500Y0230508D01*
X0019500Y0229309D02*
X0018700Y0229309D01*
X0018700Y0228111D02*
X0019500Y0228111D01*
X0019500Y0226912D02*
X0018700Y0226912D01*
X0018700Y0225714D02*
X0019500Y0225714D01*
X0019500Y0224515D02*
X0018700Y0224515D01*
X0018700Y0223317D02*
X0019500Y0223317D01*
X0013940Y0223317D02*
X0004200Y0223317D01*
X0004200Y0224515D02*
X0012495Y0224515D01*
X0011804Y0225714D02*
X0004200Y0225714D01*
X0004200Y0226912D02*
X0011517Y0226912D01*
X0011559Y0228111D02*
X0004200Y0228111D01*
X0004200Y0229309D02*
X0011921Y0229309D01*
X0012724Y0230508D02*
X0004200Y0230508D01*
X0004200Y0231706D02*
X0014533Y0231706D01*
X0004200Y0232905D02*
X0033900Y0232905D01*
X0034309Y0234103D02*
X0004200Y0234103D01*
X0004200Y0235302D02*
X0035291Y0235302D01*
X0047909Y0235302D02*
X0055291Y0235302D01*
X0055504Y0235515D02*
X0054463Y0234475D01*
X0053900Y0233115D01*
X0053900Y0231643D01*
X0054463Y0230283D01*
X0055504Y0229242D01*
X0056864Y0228679D01*
X0058336Y0228679D01*
X0059696Y0229242D01*
X0060737Y0230283D01*
X0061300Y0231643D01*
X0061300Y0233115D01*
X0060737Y0234475D01*
X0059696Y0235515D01*
X0058336Y0236079D01*
X0056864Y0236079D01*
X0055504Y0235515D01*
X0054309Y0234103D02*
X0049108Y0234103D01*
X0049300Y0232905D02*
X0053900Y0232905D01*
X0053900Y0231706D02*
X0049300Y0231706D01*
X0048962Y0230508D02*
X0054370Y0230508D01*
X0055437Y0229309D02*
X0047763Y0229309D01*
X0047316Y0220779D02*
X0045884Y0220779D01*
X0044561Y0220231D01*
X0043548Y0219218D01*
X0043000Y0217895D01*
X0043000Y0211663D01*
X0043548Y0210339D01*
X0044561Y0209327D01*
X0045884Y0208779D01*
X0047316Y0208779D01*
X0048639Y0209327D01*
X0049652Y0210339D01*
X0050200Y0211663D01*
X0050200Y0217895D01*
X0049652Y0219218D01*
X0048639Y0220231D01*
X0047316Y0220779D01*
X0049149Y0219721D02*
X0054051Y0219721D01*
X0053548Y0219218D02*
X0054561Y0220231D01*
X0055884Y0220779D01*
X0057316Y0220779D01*
X0058639Y0220231D01*
X0059652Y0219218D01*
X0060200Y0217895D01*
X0060200Y0211663D01*
X0059652Y0210339D01*
X0058639Y0209327D01*
X0057316Y0208779D01*
X0055884Y0208779D01*
X0054561Y0209327D01*
X0053548Y0210339D01*
X0053000Y0211663D01*
X0053000Y0217895D01*
X0053548Y0219218D01*
X0053260Y0218523D02*
X0049940Y0218523D01*
X0050200Y0217324D02*
X0053000Y0217324D01*
X0053000Y0216126D02*
X0050200Y0216126D01*
X0050200Y0214927D02*
X0053000Y0214927D01*
X0053000Y0213729D02*
X0050200Y0213729D01*
X0050200Y0212530D02*
X0053000Y0212530D01*
X0053137Y0211332D02*
X0050063Y0211332D01*
X0049446Y0210133D02*
X0053754Y0210133D01*
X0055508Y0208935D02*
X0047692Y0208935D01*
X0045508Y0208935D02*
X0037692Y0208935D01*
X0037316Y0208779D02*
X0038639Y0209327D01*
X0039652Y0210339D01*
X0040200Y0211663D01*
X0040200Y0217895D01*
X0039652Y0219218D01*
X0038639Y0220231D01*
X0037316Y0220779D01*
X0035884Y0220779D01*
X0034561Y0220231D01*
X0033548Y0219218D01*
X0033000Y0217895D01*
X0033000Y0211663D01*
X0033548Y0210339D01*
X0034561Y0209327D01*
X0035884Y0208779D01*
X0037316Y0208779D01*
X0035508Y0208935D02*
X0032590Y0208935D01*
X0033754Y0210133D02*
X0031391Y0210133D01*
X0030193Y0211332D02*
X0033137Y0211332D01*
X0033000Y0212530D02*
X0028994Y0212530D01*
X0027796Y0213729D02*
X0033000Y0213729D01*
X0033000Y0214927D02*
X0026597Y0214927D01*
X0026127Y0216126D02*
X0033000Y0216126D01*
X0033000Y0217324D02*
X0026300Y0217324D01*
X0026172Y0218523D02*
X0033260Y0218523D01*
X0034051Y0219721D02*
X0025676Y0219721D01*
X0026600Y0207379D02*
X0019100Y0207379D01*
X0024802Y0204141D02*
X0027293Y0204141D01*
X0026094Y0205339D02*
X0025801Y0205339D01*
X0028491Y0202942D02*
X0004200Y0202942D01*
X0004200Y0201744D02*
X0029690Y0201744D01*
X0030888Y0200545D02*
X0024873Y0200545D01*
X0025831Y0199347D02*
X0032087Y0199347D01*
X0036185Y0205339D02*
X0107015Y0205339D01*
X0108213Y0206538D02*
X0034987Y0206538D01*
X0033788Y0207736D02*
X0109412Y0207736D01*
X0110610Y0208935D02*
X0107692Y0208935D01*
X0109446Y0210133D02*
X0111809Y0210133D01*
X0105508Y0208935D02*
X0097692Y0208935D01*
X0097316Y0208779D02*
X0098639Y0209327D01*
X0099652Y0210339D01*
X0100200Y0211663D01*
X0100200Y0217895D01*
X0099652Y0219218D01*
X0098639Y0220231D01*
X0097316Y0220779D01*
X0095884Y0220779D01*
X0094561Y0220231D01*
X0093548Y0219218D01*
X0093000Y0217895D01*
X0093000Y0211663D01*
X0093548Y0210339D01*
X0094561Y0209327D01*
X0095884Y0208779D01*
X0097316Y0208779D01*
X0095508Y0208935D02*
X0087692Y0208935D01*
X0087316Y0208779D02*
X0088639Y0209327D01*
X0089652Y0210339D01*
X0090200Y0211663D01*
X0090200Y0217895D01*
X0089652Y0219218D01*
X0088639Y0220231D01*
X0087316Y0220779D01*
X0085884Y0220779D01*
X0084561Y0220231D01*
X0083548Y0219218D01*
X0083000Y0217895D01*
X0083000Y0211663D01*
X0083548Y0210339D01*
X0084561Y0209327D01*
X0085884Y0208779D01*
X0087316Y0208779D01*
X0085508Y0208935D02*
X0077692Y0208935D01*
X0077316Y0208779D02*
X0078639Y0209327D01*
X0079652Y0210339D01*
X0080200Y0211663D01*
X0080200Y0217895D01*
X0079652Y0219218D01*
X0078639Y0220231D01*
X0077316Y0220779D01*
X0075884Y0220779D01*
X0074561Y0220231D01*
X0073548Y0219218D01*
X0073000Y0217895D01*
X0073000Y0211663D01*
X0073548Y0210339D01*
X0074561Y0209327D01*
X0075884Y0208779D01*
X0077316Y0208779D01*
X0075508Y0208935D02*
X0067692Y0208935D01*
X0067316Y0208779D02*
X0068639Y0209327D01*
X0069652Y0210339D01*
X0070200Y0211663D01*
X0070200Y0217895D01*
X0069652Y0219218D01*
X0068639Y0220231D01*
X0067316Y0220779D01*
X0065884Y0220779D01*
X0064561Y0220231D01*
X0063548Y0219218D01*
X0063000Y0217895D01*
X0063000Y0211663D01*
X0063548Y0210339D01*
X0064561Y0209327D01*
X0065884Y0208779D01*
X0067316Y0208779D01*
X0065508Y0208935D02*
X0057692Y0208935D01*
X0059446Y0210133D02*
X0063754Y0210133D01*
X0063137Y0211332D02*
X0060063Y0211332D01*
X0060200Y0212530D02*
X0063000Y0212530D01*
X0063000Y0213729D02*
X0060200Y0213729D01*
X0060200Y0214927D02*
X0063000Y0214927D01*
X0063000Y0216126D02*
X0060200Y0216126D01*
X0060200Y0217324D02*
X0063000Y0217324D01*
X0063260Y0218523D02*
X0059940Y0218523D01*
X0059149Y0219721D02*
X0064051Y0219721D01*
X0069149Y0219721D02*
X0074051Y0219721D01*
X0073260Y0218523D02*
X0069940Y0218523D01*
X0070200Y0217324D02*
X0073000Y0217324D01*
X0073000Y0216126D02*
X0070200Y0216126D01*
X0070200Y0214927D02*
X0073000Y0214927D01*
X0073000Y0213729D02*
X0070200Y0213729D01*
X0070200Y0212530D02*
X0073000Y0212530D01*
X0073137Y0211332D02*
X0070063Y0211332D01*
X0069446Y0210133D02*
X0073754Y0210133D01*
X0079446Y0210133D02*
X0083754Y0210133D01*
X0083137Y0211332D02*
X0080063Y0211332D01*
X0080200Y0212530D02*
X0083000Y0212530D01*
X0083000Y0213729D02*
X0080200Y0213729D01*
X0080200Y0214927D02*
X0083000Y0214927D01*
X0083000Y0216126D02*
X0080200Y0216126D01*
X0080200Y0217324D02*
X0083000Y0217324D01*
X0083260Y0218523D02*
X0079940Y0218523D01*
X0079149Y0219721D02*
X0084051Y0219721D01*
X0089149Y0219721D02*
X0094051Y0219721D01*
X0093260Y0218523D02*
X0089940Y0218523D01*
X0090200Y0217324D02*
X0093000Y0217324D01*
X0093000Y0216126D02*
X0090200Y0216126D01*
X0090200Y0214927D02*
X0093000Y0214927D01*
X0093000Y0213729D02*
X0090200Y0213729D01*
X0090200Y0212530D02*
X0093000Y0212530D01*
X0093137Y0211332D02*
X0090063Y0211332D01*
X0089446Y0210133D02*
X0093754Y0210133D01*
X0099446Y0210133D02*
X0103754Y0210133D01*
X0103137Y0211332D02*
X0100063Y0211332D01*
X0100200Y0212530D02*
X0103000Y0212530D01*
X0103000Y0213729D02*
X0100200Y0213729D01*
X0100200Y0214927D02*
X0103000Y0214927D01*
X0103000Y0216126D02*
X0100200Y0216126D01*
X0100200Y0217324D02*
X0103000Y0217324D01*
X0103260Y0218523D02*
X0099940Y0218523D01*
X0099149Y0219721D02*
X0104051Y0219721D01*
X0099696Y0229242D02*
X0098336Y0228679D01*
X0096864Y0228679D01*
X0095504Y0229242D01*
X0094463Y0230283D01*
X0093900Y0231643D01*
X0093900Y0233115D01*
X0094463Y0234475D01*
X0095504Y0235515D01*
X0096864Y0236079D01*
X0098336Y0236079D01*
X0099696Y0235515D01*
X0100737Y0234475D01*
X0101300Y0233115D01*
X0101300Y0231643D01*
X0100737Y0230283D01*
X0099696Y0229242D01*
X0099763Y0229309D02*
X0103437Y0229309D01*
X0102238Y0230508D02*
X0100830Y0230508D01*
X0101300Y0231706D02*
X0101900Y0231706D01*
X0101900Y0232905D02*
X0101300Y0232905D01*
X0100891Y0234103D02*
X0102092Y0234103D01*
X0103291Y0235302D02*
X0099909Y0235302D01*
X0095291Y0235302D02*
X0087909Y0235302D01*
X0087133Y0236079D02*
X0089300Y0233911D01*
X0089300Y0230846D01*
X0087133Y0228679D01*
X0084067Y0228679D01*
X0081900Y0230846D01*
X0081900Y0233911D01*
X0084067Y0236079D01*
X0087133Y0236079D01*
X0089108Y0234103D02*
X0094309Y0234103D01*
X0093900Y0232905D02*
X0089300Y0232905D01*
X0089300Y0231706D02*
X0093900Y0231706D01*
X0094370Y0230508D02*
X0088962Y0230508D01*
X0087763Y0229309D02*
X0095437Y0229309D01*
X0083437Y0229309D02*
X0079763Y0229309D01*
X0079696Y0229242D02*
X0080737Y0230283D01*
X0081300Y0231643D01*
X0081300Y0233115D01*
X0080737Y0234475D01*
X0079696Y0235515D01*
X0078336Y0236079D01*
X0076864Y0236079D01*
X0075504Y0235515D01*
X0074463Y0234475D01*
X0073900Y0233115D01*
X0073900Y0231643D01*
X0074463Y0230283D01*
X0075504Y0229242D01*
X0076864Y0228679D01*
X0078336Y0228679D01*
X0079696Y0229242D01*
X0080830Y0230508D02*
X0082238Y0230508D01*
X0081900Y0231706D02*
X0081300Y0231706D01*
X0081300Y0232905D02*
X0081900Y0232905D01*
X0082092Y0234103D02*
X0080891Y0234103D01*
X0079909Y0235302D02*
X0083291Y0235302D01*
X0075291Y0235302D02*
X0067909Y0235302D01*
X0067133Y0236079D02*
X0064067Y0236079D01*
X0061900Y0233911D01*
X0061900Y0230846D01*
X0064067Y0228679D01*
X0067133Y0228679D01*
X0069300Y0230846D01*
X0069300Y0233911D01*
X0067133Y0236079D01*
X0069108Y0234103D02*
X0074309Y0234103D01*
X0073900Y0232905D02*
X0069300Y0232905D01*
X0069300Y0231706D02*
X0073900Y0231706D01*
X0074370Y0230508D02*
X0068962Y0230508D01*
X0067763Y0229309D02*
X0075437Y0229309D01*
X0063437Y0229309D02*
X0059763Y0229309D01*
X0060830Y0230508D02*
X0062238Y0230508D01*
X0061900Y0231706D02*
X0061300Y0231706D01*
X0061300Y0232905D02*
X0061900Y0232905D01*
X0062092Y0234103D02*
X0060891Y0234103D01*
X0059909Y0235302D02*
X0063291Y0235302D01*
X0059202Y0244890D02*
X0073998Y0244890D01*
X0073000Y0246088D02*
X0060200Y0246088D01*
X0060200Y0247287D02*
X0073000Y0247287D01*
X0073000Y0248485D02*
X0060200Y0248485D01*
X0059386Y0249684D02*
X0073814Y0249684D01*
X0075013Y0250882D02*
X0058187Y0250882D01*
X0044051Y0219721D02*
X0039149Y0219721D01*
X0039940Y0218523D02*
X0043260Y0218523D01*
X0043000Y0217324D02*
X0040200Y0217324D01*
X0040200Y0216126D02*
X0043000Y0216126D01*
X0043000Y0214927D02*
X0040200Y0214927D01*
X0040200Y0213729D02*
X0043000Y0213729D01*
X0043000Y0212530D02*
X0040200Y0212530D01*
X0040063Y0211332D02*
X0043137Y0211332D01*
X0043754Y0210133D02*
X0039446Y0210133D01*
X0019100Y0197379D02*
X0264100Y0197379D01*
X0268358Y0193354D02*
X0278921Y0193354D01*
X0278921Y0194552D02*
X0270213Y0194552D01*
X0270972Y0195751D02*
X0278921Y0195751D01*
X0278921Y0196949D02*
X0271300Y0196949D01*
X0271300Y0198148D02*
X0278921Y0198148D01*
X0278921Y0199347D02*
X0270831Y0199347D01*
X0269873Y0200545D02*
X0278921Y0200545D01*
X0278921Y0204141D02*
X0269802Y0204141D01*
X0270801Y0205339D02*
X0278921Y0205339D01*
X0278921Y0206538D02*
X0271298Y0206538D01*
X0271300Y0207736D02*
X0278921Y0207736D01*
X0278921Y0208935D02*
X0271002Y0208935D01*
X0270285Y0210133D02*
X0278921Y0210133D01*
X0278921Y0213729D02*
X0269263Y0213729D01*
X0270588Y0214927D02*
X0278921Y0214927D01*
X0278921Y0216126D02*
X0271127Y0216126D01*
X0271300Y0217324D02*
X0278921Y0217324D01*
X0278921Y0218523D02*
X0271172Y0218523D01*
X0270676Y0219721D02*
X0278921Y0219721D01*
X0278921Y0180170D02*
X0270248Y0180170D01*
X0270986Y0178972D02*
X0278921Y0178972D01*
X0278921Y0177773D02*
X0271300Y0177773D01*
X0271300Y0176575D02*
X0278921Y0176575D01*
X0278921Y0175376D02*
X0270817Y0175376D01*
X0269839Y0174178D02*
X0278399Y0174178D01*
X0277201Y0172979D02*
X0254100Y0172979D01*
X0254100Y0174178D02*
X0258361Y0174178D01*
X0257383Y0175376D02*
X0254100Y0175376D01*
X0254100Y0176575D02*
X0256900Y0176575D01*
X0256900Y0177773D02*
X0254100Y0177773D01*
X0254100Y0178972D02*
X0257214Y0178972D01*
X0257952Y0180170D02*
X0254100Y0180170D01*
X0254100Y0181369D02*
X0259758Y0181369D01*
X0254997Y0171781D02*
X0276002Y0171781D01*
X0274803Y0170582D02*
X0256795Y0170582D01*
X0258593Y0169384D02*
X0273605Y0169384D01*
X0272406Y0168185D02*
X0260390Y0168185D01*
X0193998Y0244890D02*
X0179202Y0244890D01*
X0180200Y0245888D02*
X0178091Y0243779D01*
X0175109Y0243779D01*
X0173000Y0245888D01*
X0173000Y0248870D01*
X0175109Y0250979D01*
X0178091Y0250979D01*
X0180200Y0248870D01*
X0180200Y0245888D01*
X0180200Y0246088D02*
X0193000Y0246088D01*
X0193000Y0247287D02*
X0180200Y0247287D01*
X0180200Y0248485D02*
X0193000Y0248485D01*
X0193814Y0249684D02*
X0179386Y0249684D01*
X0178187Y0250882D02*
X0195013Y0250882D01*
X0183291Y0235302D02*
X0179909Y0235302D01*
X0180891Y0234103D02*
X0182092Y0234103D01*
X0181900Y0232905D02*
X0181300Y0232905D01*
X0181300Y0231706D02*
X0181900Y0231706D01*
X0182238Y0230508D02*
X0180830Y0230508D01*
X0179763Y0229309D02*
X0183437Y0229309D01*
X0175291Y0235302D02*
X0157014Y0235302D01*
X0155500Y0234103D02*
X0174309Y0234103D01*
X0173998Y0244890D02*
X0156602Y0244890D01*
X0157362Y0246088D02*
X0173000Y0246088D01*
X0173000Y0247287D02*
X0157600Y0247287D01*
X0157438Y0248485D02*
X0173000Y0248485D01*
X0173814Y0249684D02*
X0156786Y0249684D01*
X0154948Y0250882D02*
X0175013Y0250882D01*
X0178532Y0273654D02*
X0194668Y0273654D01*
X0193469Y0274853D02*
X0179731Y0274853D01*
X0180600Y0276051D02*
X0192600Y0276051D01*
X0192600Y0278448D02*
X0180600Y0278448D01*
X0179989Y0279647D02*
X0193211Y0279647D01*
X0194410Y0280845D02*
X0178790Y0280845D01*
X0176800Y0280845D02*
X0176400Y0280845D01*
X0176400Y0279647D02*
X0176800Y0279647D01*
X0176800Y0278448D02*
X0176400Y0278448D01*
X0176400Y0277250D02*
X0157600Y0277250D01*
X0157454Y0278448D02*
X0172600Y0278448D01*
X0173211Y0279647D02*
X0156823Y0279647D01*
X0155038Y0280845D02*
X0174410Y0280845D01*
X0172600Y0276051D02*
X0157347Y0276051D01*
X0156565Y0274853D02*
X0173469Y0274853D01*
X0196400Y0274853D02*
X0196800Y0274853D01*
X0196800Y0276051D02*
X0196400Y0276051D01*
X0196400Y0273654D02*
X0196800Y0273654D01*
X0198532Y0273654D02*
X0214668Y0273654D01*
X0213469Y0274853D02*
X0199731Y0274853D01*
X0200600Y0276051D02*
X0212600Y0276051D01*
X0212600Y0278448D02*
X0200600Y0278448D01*
X0199989Y0279647D02*
X0213211Y0279647D01*
X0214410Y0280845D02*
X0198790Y0280845D01*
X0196800Y0280845D02*
X0196400Y0280845D01*
X0196400Y0279647D02*
X0196800Y0279647D01*
X0196800Y0278448D02*
X0196400Y0278448D01*
X0216400Y0278448D02*
X0216800Y0278448D01*
X0216800Y0279647D02*
X0216400Y0279647D01*
X0216400Y0280845D02*
X0216800Y0280845D01*
X0218790Y0280845D02*
X0234410Y0280845D01*
X0233211Y0279647D02*
X0219989Y0279647D01*
X0220600Y0278448D02*
X0232600Y0278448D01*
X0232600Y0276051D02*
X0220600Y0276051D01*
X0219731Y0274853D02*
X0233469Y0274853D01*
X0234668Y0273654D02*
X0218532Y0273654D01*
X0216800Y0273654D02*
X0216400Y0273654D01*
X0216400Y0274853D02*
X0216800Y0274853D01*
X0216800Y0276051D02*
X0216400Y0276051D01*
X0147700Y0234103D02*
X0125500Y0234103D01*
X0127014Y0235302D02*
X0146186Y0235302D01*
X0145667Y0236500D02*
X0127533Y0236500D01*
X0127600Y0237699D02*
X0145600Y0237699D01*
X0145932Y0238897D02*
X0127268Y0238897D01*
X0126374Y0240096D02*
X0146826Y0240096D01*
X0147347Y0230508D02*
X0125853Y0230508D01*
X0127097Y0229309D02*
X0146103Y0229309D01*
X0145607Y0228111D02*
X0127593Y0228111D01*
X0127600Y0226912D02*
X0145600Y0226912D01*
X0145993Y0225714D02*
X0127207Y0225714D01*
X0126228Y0224515D02*
X0146972Y0224515D01*
X0148341Y0220920D02*
X0124859Y0220920D01*
X0126749Y0219721D02*
X0146451Y0219721D01*
X0145777Y0218523D02*
X0127423Y0218523D01*
X0127600Y0217324D02*
X0145600Y0217324D01*
X0145822Y0216126D02*
X0127378Y0216126D01*
X0126640Y0214927D02*
X0146560Y0214927D01*
X0146863Y0210133D02*
X0126902Y0210133D01*
X0127685Y0208935D02*
X0145948Y0208935D01*
X0145600Y0207736D02*
X0128000Y0207736D01*
X0127911Y0206538D02*
X0145652Y0206538D01*
X0146148Y0205339D02*
X0127448Y0205339D01*
X0126354Y0204141D02*
X0147610Y0204141D01*
X0101600Y0172379D02*
X0091600Y0172379D01*
X0086600Y0177379D01*
X0086600Y0182379D01*
M02*
