<svg xmlns="http://www.w3.org/2000/svg" xmlns:xlink="http://www.w3.org/1999/xlink" viewBox="0 0 26 26">
  <rect class="line" x="0.5" y="0.5" width="25" height="25" rx="7.42" ry="7.42"/>
  <text class="utext" transform="translate(9.22 23.71)">F20</text>
  <path class="uimg" d="M15.39,6.43a.51.51,0,0,1,.65-.3l4.36,1.61a.51.51,0,0,1-.17,1,.46.46,0,0,1-.17,0L15.69,7.08a.51.51,0,0,1-.3-.65Zm-4.8-1.2c-3.38.7-5.85,
    2.87-5.85,5.45s2.47,4.75,5.85,5.45Zm9.82,6.59L16,10.21a.51.51,0,1,0-.35.95l4.36,1.61a.52.52,0,0,0,.17,0,.51.51,0,0,0,.17-1ZM12.91,6.45V5a11.4,11.4,0,0,
    0-1.82.15V16.22a11.76,11.76,0,0,0,1.82.14V14.92c.84-.14,1.51-2,1.51-4.24s-.67-4.1-1.51-4.24Zm7.49,9.45L16,14.28a.51.51,0,1,0-.35.95l4.36,1.61a.52.52,0,0,0,
    .17,0,.51.51,0,0,0,.17-1Zm0,0"/>
</svg>
