<svg xmlns="http://www.w3.org/2000/svg" viewBox="0 0 26 26">
  <rect class="dbox" x="0.5" y="0.5" width="25" height="25" rx="7.42" ry="7.42"/>
  <text class="text" transform="translate(9.22 23.71)">F20</text>
  <path class="img" d="M8.48,14a.68.68,0,0,1-.3.27l-1.26.57a.54.54,0,0,1-.41,0,.41.41,0,0,1-.28-.23.42.42,0,0,1,0-.36A.59.59,0,0,1,6.53,14l1.28-.57a.51.51,0,0,1,.39,0,.41.41,0,0,1,.27.23A.37.37,0,0,1,8.48,14Z"/>
  <path class="img" d="M13.44,18.18a.57.57,0,0,1-.14.38.42.42,0,0,1-.33.16.39.39,0,0,1-.32-.16.61.61,0,0,1-.12-.38V16.8a.61.61,0,0,1,.12-.38.39.39,0,0,1,.32-.16.42.42,0,0,1,.33.16.57.57,0,0,1,.14.38Z"/>
  <path class="img" d="M19.76,14.6a.41.41,0,0,1-.28.23.54.54,0,0,1-.41,0l-1.26-.57a.68.68,0,0,1-.3-.27.37.37,0,0,1,0-.37.41.41,0,0,1,.27-.23.51.51,0,0,1,.39,0l1.28.57a.59.59,0,0,1,.28.28A.42.42,0,0,1,19.76,14.6Z"/>
  <path class="img" d="M17.45,10.38a.67.67,0,0,1,.36-.2L19.19,10a.54.54,0,0,1,.38.09.51.51,0,0,1,.21.31.34.34,0,0,1-.1.35.58.58,0,0,1-.35.17L18,11.1a.51.51,0,0,1-.62-.37A.41.41,0,0,1,17.45,10.38Z"/>
  <path class="img" d="M17.28,17.42a.53.53,0,0,1-.19.32.48.48,0,0,1-.37,0,.52.52,0,0,1-.32-.25l-.74-1.18a.57.57,0,0,1-.1-.38.47.47,0,0,1,.17-.31.4.4,0,0,1,.37-.06.58.58,0,0,1,.32.26L17.2,17A.54.54,0,0,1,17.28,17.42Z"/>
  <rect class="img" x="11.12" y="4.88" width="3.75" height="1.06" rx="0.25" ry="0.25"/>
  <path class="img" d="M9.31,12.28a.11.11,0,0,0,0,0v0a2.2,2.2,0,0,1,0-.33l0-.33a5.34,5.34,0,0,1,.44-1.31q.32-.67.72-1.43a4.88,4.88,0,0,0,.35-.93q.1-.41.15-.7a2.09,2.09,0,0,1,.12-.47.3.3,0,0,1,.25-.2h3.16a.29.29,0,0,1,.26.2,3.68,3.68,0,0,1,.12.47q.06.3.16.7a4.86,4.86,0,0,0,.35.93l.69,1.43a5.35,5.35,0,0,1,.44,1.31l0,.33a2.2,2.2,0,0,1,0,.33.07.07,0,0,1,0,0v.1a2.88,2.88,0,0,1-1,2.41,4.12,4.12,0,0,1-2.63.83h0a4.94,4.94,0,0,1-1.47-.21,3.39,3.39,0,0,1-1.17-.62,2.87,2.87,0,0,1-.78-1,3.25,3.25,0,0,1-.28-1.39A.11.11,0,0,1,9.31,12.28Z"/>
  <path class="img" d="M8.8,17l.76-1.16a.58.58,0,0,1,.32-.26.4.4,0,0,1,.37.06.47.47,0,0,1,.17.31.57.57,0,0,1-.1.38l-.74,1.18a.52.52,0,0,1-.32.25.48.48,0,0,1-.37,0A.5.5,0,0,1,8.8,17Z"/>
  <path class="img" d="M6.66,10.88,8,11.1a.51.51,0,0,0,.62-.37.41.41,0,0,0-.11-.35.67.67,0,0,0-.36-.2L6.81,10a.54.54,0,0,0-.38.09.51.51,0,0,0-.21.31.34.34,0,0,0,.1.35A.58.58,0,0,0,6.66,10.88Z"/>
  <path class="img" d="M11.7,4.36h2.6q.2,0,.2-.27V3.52q0-.25-.2-.25H11.7q-.2,0-.2.25v.57Q11.5,4.36,11.7,4.36Z"/>
</svg>
