<svg xmlns="http://www.w3.org/2000/svg" xmlns:xlink="http://www.w3.org/1999/xlink" viewBox="0 0 26 26">
  <rect class="dbox" x="0.5" y="0.5" width="25" height="25" rx="7.42" ry="7.42"/>
  <text class="text" transform="translate(9.22 23.71)">F20</text>
  <path class="img" d="M15.23,7.3,14.67,7l1.41-2.26.56.35ZM13.33,4h-.66V6.66h.66ZM11.31,7,9.9,4.69,9.34,5l1.41,2.26Zm9.34,
    3-5.39,1.13a3.83,3.83,0,0,1,.07.87,4,4,0,0,1-7.85,1.07,1.43,1.43,0,0,1-.8.26,1.33,1.33,0,1,1,0-2.66,1.44,1.44,0,0,1,.8.26A4,
    4,0,0,1,11.34,8H12V9.33h2V8h6.65v2ZM7.35,12a.63.63,0,0,0-.66-.66.66.66,0,1,0,0,1.33A.63.63,0,0,0,7.35,12Zm0,0"/>
</svg>
