<svg xmlns="http://www.w3.org/2000/svg" xmlns:xlink="http://www.w3.org/1999/xlink" viewBox="0 0 26 26">
  <rect class="line" x="0.5" y="0.5" width="25" height="25" rx="7.42" ry="7.42"/>
  <!--<rect class="cls-3" x="0.5" y="0.5" width="25" height="25" rx="7.42" ry="7.42"/>-->
  <text class="utext" transform="translate(9.22 23.71)">F20</text>
  <path class="uimg" d="M15.71,7.3,15.15,7l1.41-2.26.56.35ZM13.81,4h-.66V6.66h.66ZM11.79,7,10.38,4.69,9.82,5l1.41,2.26Zm9.34,3-5.39,
    1.13a3.83,3.83,0,0,1,.07.87A4,4,0,0,1,8,13.05a1.43,1.43,0,0,1-.8.26,1.33,1.33,0,1,1,0-2.66,1.44,1.44,0,0,1,.8.26A4,4,0,0,1,11.82,
    8h.66V9.33h2V8h6.65v2ZM7.83,12a.63.63,0,0,0-.66-.66.66.66,0,1,0,0,1.33A.63.63,0,0,0,7.83,12Zm0,0"/>
</svg>
