<?xml version="1.0" encoding="utf-8"?>
<!-- Generator: Adobe Illustrator 21.0.2, SVG Export Plug-In . SVG Version: 6.00 Build 0)  -->
<svg version="1.1" id="Layer_1" xmlns="http://www.w3.org/2000/svg" xmlns:xlink="http://www.w3.org/1999/xlink" x="0px" y="0px" width="950" height="158"
	 viewBox="0 0 950 158" style="enable-background:new 0 0 950 158;" xml:space="preserve">

<g class="BSw0">
	<line class="L LSwO SwS0o" x1="8.1" y1="40" x2="43.8" y2="40"/>
	<path class="L LSwO SwS1o" d="M43.8,54.8l-0.1-0.1C34.3,45.3,21.6,40,8.3,40H8.1"/>
</g>
<g class="BSw1 BSw2">
	<line class="L LSwO SwS0S0o" x1="43.8" y1="54.8" x2="73.4" y2="84.4"/>
	<path class="L LSwO SwS0S1o" d="M43.8,54.8l0.1,0.1c9.4,9.4,22.1,14.6,35.4,14.6h0.2"/>
	<path class="L LSwO SwS1S0o" d="M73.4,84.4l-0.1-0.1c-9.4-9.4-22.1-14.6-35.4-14.6h-0.2"/>
	<line class="L LSwO SwS1S1o" x1="37.7" y1="69.6" x2="79.5" y2="69.6"/>
</g>
<g class="BSw3">
	<path class="L LSwO LSwS0o" d="M73.4,84.4l0.1,0.1c9.4,9.4,22.1,14.6,35.4,14.6h0.2"/>
	<line class="L LSwO LSwS1o" x1="98.6" y1="109.6" x2="73.4" y2="84.4"/>
</g>
<g class="BSw4 BSw5">
	<line class="L LSwO LSwS0S0o" x1="876.6" y1="84.4" x2="906.2" y2="54.8"/>
	<path class="L LSwO LSwS0S1o" d="M870.5,69.6h0.2c13.3,0,26-5.3,35.4-14.6l0.1-0.1"/>
	<path class="L LSwO LSwS1S0o" d="M912.3,69.6h-0.2c-13.3,0-26,5.3-35.4,14.6l-0.1,0.1"/>
	<line class="L LSwO LSwS1S1o" x1="870.5" y1="69.6" x2="912.3" y2="69.6"/>
</g>
<g class="BSw6">
	<line class="L LSwO SwS0o" x1="906.2" y1="40" x2="941.9" y2="40"/>
	<path class="L LSwO SwS1o" d="M941.9,40h-0.2c-13.3,0-26,5.3-35.4,14.6l-0.1,0.1"/>
</g>
<g class="B0">
	<line class="L" x1="0" y1="40" x2="8.1" y2="40"/>
	<g class="Sw0 SwGroup">
		<line class="L LSw LSwS0" x1="8.1" y1="40" x2="43.8" y2="40"/>
		<path class="L LSw LSwS1" d="M43.8,54.8l-0.1-0.1C34.3,45.3,21.6,40,8.3,40H8.1"/>
	</g>
</g>
<g class="B1">
	<line class="L" x1="43.8" y1="40" x2="306.8" y2="40"/>
</g>
<g class="B2">
	<line class="L" x1="306.8" y1="40" x2="475" y2="40"/>
</g>
<g class="B3">
	<line class="L" x1="475" y1="40" x2="643.2" y2="40"/>
</g>
<g class="B4">
	<line class="L" x1="643.2" y1="40" x2="906.2" y2="40"/>
</g>
<g class="B5">
	<line class="L" x1="912.3" y1="69.6" x2="950" y2="69.6"/>
	<g class="Sw6 SwGroup">
		<line class="L LSw LSwS0" x1="906.2" y1="40" x2="941.9" y2="40"/>
		<path class="L LSw LSwS1" d="M941.9,40h-0.2c-13.3,0-26,5.3-35.4,14.6l-0.1,0.1"/>
	</g>
</g>

<g class="B6">
	<line class="L" x1="0" y1="69.6" x2="37.7" y2="69.6"/>
	<g class="Sw1 Sw2 SwMGroup">
		<line class="L LSw LSwS0S0" x1="43.8" y1="54.8" x2="73.4" y2="84.4"/>
		<path class="L LSw LSwS0S1" d="M43.8,54.8l0.1,0.1c9.4,9.4,22.1,14.6,35.4,14.6h0.2"/>
		<path class="L LSw LSwS1S0" d="M73.4,84.4l-0.1-0.1c-9.4-9.4-22.1-14.6-35.4-14.6h-0.2"/>
		<line class="L LSw LSwS1S1" x1="37.7" y1="69.6" x2="79.5" y2="69.6"/>
	</g>
</g>

<g class="B7">
	<line class="L" x1="79.5" y1="69.6" x2="306.8" y2="69.6"/>
</g>
<g class="B8">
	<line class="L" x1="306.8" y1="69.6" x2="475" y2="69.6"/>
</g>
<g class="B9">
	<line class="L" x1="475" y1="69.6" x2="643.2" y2="69.6"/>
</g>
<g class="B10">
	<line class="L" x1="643.2" y1="69.6" x2="870.5" y2="69.6"/>
</g>
<g class="B11">
	<line class="L" x1="941.9" y1="40" x2="950" y2="40"/>
	<g class="Sw4 Sw5 SwMGroup">
		<line class="L LSw LSwS0S0" x1="876.6" y1="84.4" x2="906.2" y2="54.8"/>
		<path class="L LSw LSwS0S1" d="M870.5,69.6h0.2c13.3,0,26-5.3,35.4-14.6l0.1-0.1"/>
		<path class="L LSw LSwS1S0" d="M912.3,69.6h-0.2c-13.3,0-26,5.3-35.4,14.6l-0.1,0.1"/>
		<line class="L LSw LSwS1S1" x1="870.5" y1="69.6" x2="912.3" y2="69.6"/>
	</g>
</g>

<g class="B12">
	<path class="L" d="M102.9,113.9l0.1,0.1c9.4,9.4,22.1,14.6,35.4,14.6h0.2"/>
	<line class="L" x1="102.9" y1="113.9" x2="98.6" y2="109.6"/>
	<g class="Sw3 SwGroup">
		<path class="L LSw LSwS0" d="M73.4,84.4l0.1,0.1c9.4,9.4,22.1,14.6,35.4,14.6h0.2"/>
		<line class="L LSw LSwS1" x1="98.6" y1="109.6" x2="73.4" y2="84.4"/>
	</g>
</g>

<g class="B13">
	<line class="L" x1="109.1" y1="99.1" x2="306.8" y2="99.1"/>
</g>
<g class="B14">
	<line class="L" x1="306.8" y1="99.1" x2="475" y2="99.1"/>
</g>
<g class="B15">
	<line class="L" x1="805.2" y1="99.1" x2="840.9" y2="99.1"/>
</g>
<g class="B16">
	<line class="L" x1="475" y1="99.1" x2="805.6" y2="99.1"/>
	<path class="L" d="M840.9,99.1h0.2c13.3,0,26-5.3,35.4-14.6l0.1-0.1"/>
</g>

<g class="B17">
	<line class="L" x1="138.6" y1="128.7" x2="306.8" y2="128.7"/>
</g>
<g class="B18">
	<line class="L" x1="306.8" y1="128.7" x2="475" y2="128.7"/>
</g>
<g class="B19">
	<line class="L" x1="475" y1="128.7" x2="643.2" y2="128.7"/>
</g>
<g class="B20">
	<line class="L" x1="643.2" y1="128.7" x2="811" y2="128.7"/>
</g>
<g class="B21">
	<line class="L" x1="811" y1="128.7" x2="915" y2="128.7"/>
</g>
</svg>
