<?xml version="1.0" encoding="utf-8"?>
<!-- Generator: Adobe Illustrator 21.0.2, SVG Export Plug-In . SVG Version: 6.00 Build 0)  -->
<svg version="1.1" id="Layer_1" xmlns="http://www.w3.org/2000/svg" xmlns:xlink="http://www.w3.org/1999/xlink" x="0px" y="0px" width="950" height="158"
	 viewBox="0 0 950 158" style="enable-background:new 0 0 950 158;" xml:space="preserve">
<style type="text/css">
	.st0{fill:none;stroke:#D3D3D3;stroke-width:6;}
	.st1{fill:none;stroke:#D3D3D3;stroke-width:6;stroke-opacity:0;}
	.st2{fill:none;stroke:#555555;stroke-width:6;}
	.st3{fill:none;stroke:#555555;stroke-width:6;stroke-opacity:0;}
	.st4{fill:#FF0000;}
	.st5{fill:#FFA500;}
	.st6{fill:#00FF00;}
	.st7{fill:none;stroke:#B7B7B7;stroke-width:6;}
</style>
<line class="st2" x1="0" y1="40" x2="8.1" y2="40"/>
<g>
	<line class="st7" x1="43.8" y1="54.8" x2="73.4" y2="84.4"/>
	<path class="st2" d="M43.8,54.8l0.1,0.1c9.4,9.4,22.1,14.6,35.4,14.6h0.2"/>
	<path class="st2" d="M73.4,84.4l-0.1-0.1c-9.4-9.4-22.1-14.6-35.4-14.6h-0.2"/>
	<line class="st2" x1="37.7" y1="69.6" x2="79.5" y2="69.6"/>
</g>
<path class="st2" d="M102.9,113.9l0.1,0.1c9.4,9.4,22.1,14.6,35.4,14.6h0.2"/>
<line class="st2" x1="0" y1="69.6" x2="37.7" y2="69.6"/>
<g>
	<path class="st2" d="M43.8,54.8l-0.1-0.1C34.3,45.3,21.6,40,8.3,40H8.1"/>
	<line class="st2" x1="8.1" y1="40" x2="43.8" y2="40"/>
</g>
<g>
	<path class="st2" d="M73.4,84.4l0.1,0.1c9.4,9.4,22.1,14.6,35.4,14.6h0.2"/>
	<line class="st2" x1="98.6" y1="109.6" x2="73.4" y2="84.4"/>
</g>
<g>
	<line class="st2" x1="109.1" y1="99.1" x2="144.8" y2="99.1"/>
	<line class="st2" x1="144.4" y1="99.1" x2="306.8" y2="99.1"/>
</g>
<line class="st2" x1="138.6" y1="128.7" x2="306.8" y2="128.7"/>
<line class="st2" x1="102.9" y1="113.9" x2="98.6" y2="109.6"/>
<line class="st2" x1="306.8" y1="128.7" x2="475" y2="128.7"/>
<line class="st2" x1="306.8" y1="99.1" x2="475" y2="99.1"/>
<line class="st2" x1="941.9" y1="40" x2="950" y2="40"/>
<g>
	<line class="st7" x1="876.6" y1="84.4" x2="906.2" y2="54.8"/>
	<path class="st2" d="M870.5,69.6h0.2c13.3,0,26-5.3,35.4-14.6l0.1-0.1"/>
	<path class="st2" d="M912.3,69.6h-0.2c-13.3,0-26,5.3-35.4,14.6l-0.1,0.1"/>
	<line class="st2" x1="870.5" y1="69.6" x2="912.3" y2="69.6"/>
</g>
<line class="st2" x1="912.3" y1="69.6" x2="950" y2="69.6"/>
<g>
	<path class="st2" d="M941.9,40h-0.2c-13.3,0-26,5.3-35.4,14.6l-0.1,0.1"/>
	<line class="st2" x1="906.2" y1="40" x2="941.9" y2="40"/>
</g>
<path class="st2" d="M840.9,99.1h0.2c13.3,0,26-5.3,35.4-14.6l0.1-0.1"/>
<g>
	<line class="st2" x1="805.2" y1="99.1" x2="840.9" y2="99.1"/>
	<line class="st2" x1="643.2" y1="99.1" x2="805.6" y2="99.1"/>
</g>
<line class="st2" x1="643.2" y1="128.7" x2="811.4" y2="128.7"/>
<line class="st2" x1="475" y1="128.7" x2="643.2" y2="128.7"/>
<line class="st2" x1="475" y1="99.1" x2="643.2" y2="99.1"/>
<line class="st2" x1="79.5" y1="69.6" x2="306.8" y2="69.6"/>
<line class="st2" x1="306.8" y1="69.6" x2="475" y2="69.6"/>
<line class="st2" x1="643.2" y1="69.6" x2="870.5" y2="69.6"/>
<line class="st2" x1="475" y1="69.6" x2="643.2" y2="69.6"/>
<line class="st2" x1="43.8" y1="40" x2="306.8" y2="40"/>
<line class="st2" x1="306.8" y1="40" x2="475" y2="40"/>
<line class="st2" x1="643.2" y1="40" x2="906.2" y2="40"/>
<line class="st2" x1="475" y1="40" x2="643.2" y2="40"/>
<line class="st2" x1="811.4" y1="128.7" x2="915.6" y2="128.7"/>
</svg>
