<svg xmlns:dc="http://purl.org/dc/elements/1.1/" xmlns:cc="http://creativecommons.org/ns#" xmlns:rdf="http://www.w3.org/1999/02/22-rdf-syntax-ns#" xmlns:svg="http://www.w3.org/2000/svg" xmlns="http://www.w3.org/2000/svg" viewBox="0 0 140 140" id="svg6" height="140px" width="140px" version="1.1">
  <metadata id="metadata12">
	<rdf:RDF>
	  <cc:Work rdf:about="">
		<dc:format>image/svg+xml</dc:format>
	  </cc:Work>
	</rdf:RDF>
  </metadata>
  <defs id="defs10"/>
  <g>
	<path class="B" d="M 101,40 h 39"/>
	<path class="B" d="M 104.5,41.5 l -33,-33"/>
	<path class="B" d="M 48,10  h 27"/>
	<path class="B" d="M 51.5,8.5  l -33,33"/>

	<path class="B" d="M 20,38  l 0,102"/>
	<path class="B" d="M 40,140 l 0,-42"/>
	<path class="B" d="M 38.5,101.5 l 11.5,-11.5"/>

	<path class="B" d="M 51,91 l -32,-32"/>
	<path class="B" d="M 48,90  h 27"/>
	<path class="B" d="M 104.5,58.5 l -33,33"/>
	<path class="B" d="M 101,60 h 39"/>
  </g>
  <g id="B1" class="S1">
	<path class="L" style="stroke:#0f0" d="M 102,40 h 38"/>
	<path class="L" style="stroke:#0f0" d="M 104,41 l -32,-32"/>
	<path class="L" style="stroke:#0f0" d="M 49,10  h 25"/>
	<path class="L" style="stroke:#0f0" d="M 51,9  l -32,32"/>
  </g>
  <g id="B4" class="S1">
	<path class="L" style="stroke:#0f0" d="M 74,90  h -10"/>
	<path class="L" style="stroke:#0f0" d="M 104,59 l -32,32"/>
	<path class="L" style="stroke:#0f0" d="M 102,60 h 38"/>
  </g>
  <g id="B2" class="S0">
	<path class="L" style="stroke:#0ff" d="M 20,39  l 0,22"/>
	<path class="L" style="stroke:#0f0" d="M 20,81  l 0,54"/>
	
	<path id="S1S" class="L" style="stroke:#ff0" d="M 20,61  l 0,20"/>
  <path id="S1D" class="L" style="stroke:#f0f" d="M 35,75 l -16,-16"/>
  </g>
  <g id="B3" class="S0">
	<path class="L" style="stroke:#0f0" d="M 64,90  h -15"/>
	<path class="L" style="stroke:#0f0" d="M 40,135 l 0,-36"/>
	
  <path id="S1D" class="L" style="stroke:#fa3" d="M 51,91 l -16,-16"/>
	<path id="S1S" class="L" style="stroke:#0f0" d="M 39,101 l 12,-12"/>
  </g>
</svg>
