<svg xmlns:dc="http://purl.org/dc/elements/1.1/" xmlns:cc="http://creativecommons.org/ns#" xmlns:rdf="http://www.w3.org/1999/02/22-rdf-syntax-ns#" xmlns:svg="http://www.w3.org/2000/svg" xmlns="http://www.w3.org/2000/svg" viewBox="0 0 70 70" id="svg6" height="70px" width="70px" version="1.1">
  <metadata id="metadata12">
	<rdf:RDF>
	  <cc:Work rdf:about="">
		<dc:format>image/svg+xml</dc:format>
	  </cc:Work>
	</rdf:RDF>
  </metadata>
  <defs id="defs10"/>
  <!-- 2 -->
  <g>
	<path class="B" d="M 88.5,-11.5  l 33,33"/>

	<path class="B" d="M 120,18  l 0,102"/>
	<path class="B" d="M 101.5,91.5 l -11.5,-11.5"/>

	<path class="B" d="M 89,71 l 32,-32"/>
	<path class="B" d="M 65,70  h 27"/>
  </g>
  <g id="B1" class="S1">
	   <path class="L" style="stroke:#0f0" nswitch="" d="M 89,-11  l 32,32"/>
  </g>
  <g id="B4" class="S1">
  	<path class="L" style="stroke:#0f0" nswitch="" d="M 66,70  h 10"/>
  </g>
  <g id="B2" class="S0">
  	<path class="L" style="stroke:#0ff" d="M 120,19  l 0,22"/>
  	<path class="L" style="stroke:#0f0" nswitch="" d="M 120,61  l 0,9"/>

  	<path id="S1S" class="L" style="stroke:#ff0" d="M 120,41  l 0,20"/>
    <path id="S1D" class="L" style="stroke:#f0f" d="M 105,55 l 16,-16"/>
  </g>
  <g id="B3" class="S0">
  	<path class="L" style="stroke:#0f0" nswitch="" d="M 76,70  h 15"/>
  	<path class="L" style="stroke:#0f0" nswitch="" d="M 100,115 l 0,-36"/>

    <path id="S1D" class="L" style="stroke:#fa3" nswitch="" d="M 89,71 l 16,-16"/>
  	<path id="S1S" class="L" style="stroke:#0f0" nswitch="" d="M 101,81 l -12,-12"/>
  </g>
  <!-- 3 -->
  <g>

	<path class="B" d="M 220,0  l 0,70"/>
	<path class="B" d="M 200,48 l 0,22"/>
	<path class="B" d="M 201.5,51.5 l -11.5,-11.5"/>

	<path class="B" d="M 189,41 l 32,-32"/>
	<path class="B" d="M 165,40  h 27"/>
	<path class="B" d="M 168.5,41.5 l -13,-13"/>
  </g>
  <g id="B4" class="S1">
  	<path class="L" style="stroke:#0f0" nswitch="" d="M 166,40  h 10"/>
  	<path class="L" style="stroke:#0f0" nswitch="" d="M 168,41 l -12,-12"/>
  </g>
  <g id="B2" class="S0">
  	<path class="L" style="stroke:#0ff" nswitch="" d="M 220,-11  l 0,22"/>
  	<path class="L" style="stroke:#0f0" nswitch="" d="M 220,31  l 0,39"/>

  	<path id="S1S" class="L" style="stroke:#ff0" nswitch="" d="M 220,11  l 0,20"/>
    <path id="S1D" class="L" style="stroke:#f0f" nswitch="" d="M 205,25 l 16,-16"/>
  </g>
  <g id="B3" class="S0">
  	<path class="L" style="stroke:#0f0" d="M 176,40  h 15"/>
  	<path class="L" style="stroke:#0f0" d="M 200,49 l 0,21"/>

    <path id="S1D" class="L" style="stroke:#fa3" d="M 189,41 l 16,-16"/>
  	<path id="S1S" class="L" style="stroke:#0f0" d="M 201,51 l -12,-12"/>
  </g>
</svg>
