<svg preserveAspectRatio="xMidYMid meet" xmlns:dc="http://purl.org/dc/elements/1.1/" xmlns:cc="http://creativecommons.org/ns#" xmlns:rdf="http://www.w3.org/1999/02/22-rdf-syntax-ns#" xmlns:svg="http://www.w3.org/2000/svg" xmlns="http://www.w3.org/2000/svg" viewBox="0 0 800 140" id="svg6" height="140px" width="800px" version="1.1">
  <metadata id="metadata12">
    <rdf:RDF>
      <cc:Work rdf:about="">
        <dc:format>image/svg+xml</dc:format>
      </cc:Work>
    </rdf:RDF>
  </metadata>
  <defs id="defs10"/>
  <g>
    <rect x="200" y="25" width="400" height="15" style="fill:#444;"/>
    <rect x="200" y="60" width="400" height="20" style="fill:#444;"/>
    <rect x="200" y="105" width="400" height="15" style="fill:#444;"/>

    <rect x="600" y="50" width="40" height="60" style="stroke:rgb(255,0,0);stroke-width:2;fill:none"/>
    <rect x="160" y="50" width="40" height="60" style="stroke:rgb(255,0,0);stroke-width:2;fill:none"/>
    <rect x="600" y="10" width="40" height="40" style="stroke:rgb(255,0,0);stroke-width:2;fill:none"/>
    <rect x="160" y="10" width="40" height="40" style="stroke:rgb(255,0,0);stroke-width:2;fill:none"/>
  </g>
  <path class="B" d="M 0,40 h 800"/>
  <path class="B" d="M 0,60 h 800"/>
  <path class="B" d="M 162.5,20 h 475"/>
  <path class="B" d="M 162.5,80 h 607.5"/>
  <path class="B" d="M 182.5,100 h 587.5"/>
  <!-- Switch rails -->
  <path class="B" d="M 144,41 l 22,-22"/>
  <path class="B" d="M 144,59 l 42,42"/>

  <path class="B" d="M 634,19 l 22,22"/>
  <path class="B" d="M 614,101 l 42,-42"/>
  
  <g>
    <g id="B1" class="S1" onmouseenter="Show(this,$(this))" onmouseleave="Hide(this,$(this))">
      
      <path class="L" style="stroke:#ffff00" d="M 5,40 h 141"/>
      <path id="S1D" class="L" style="stroke:#ffff00" d="M 144,41 l 22,-22"/>
      <path id="S1S" class="L" style="stroke:#ffff00" d="M 146,40 h 54"/>
      <path class="L" style="stroke:#ffff00" d="M 164,20 h 36"/>
    </g>
    <g id="B2" class="S1" onmouseenter="Show(this,$(this))" onmouseleave="Hide(this,$(this))">
      <path class="L" style="stroke:#ffff00" d="M 200,20 h 100"/>
    </g>
    <g id="B2" class="S2" onmouseenter="Show(this,$(this))" onmouseleave="Hide(this,$(this))">
      <path class="L" style="stroke:#ffff00" d="M 300,20 h 100"/>
    </g>
    <g id="B2" class="S3" onmouseenter="Show(this,$(this))" onmouseleave="Hide(this,$(this))">
      <path class="L" style="stroke:#ffff00" d="M 400,20 h 100"/>
    </g>
    <g id="B2" class="S4" onmouseenter="Show(this,$(this))" onmouseleave="Hide(this,$(this))">
      <path class="L" style="stroke:#ffff00" d="M 500,20 h 100"/>
    </g>
    <g id="B3" class="S1" onmouseenter="Show(this,$(this))" onmouseleave="Hide(this,$(this))">
      <path class="L" style="stroke:#ffff00" d="M 200,40 h 100"/>
    </g>
    <g id="B3" class="S2" onmouseenter="Show(this,$(this))" onmouseleave="Hide(this,$(this))">
      <path class="L" style="stroke:#ffff00" d="M 300,40 h 100"/>
    </g>
    <g id="B3" class="S3" onmouseenter="Show(this,$(this))" onmouseleave="Hide(this,$(this))">
      <path class="L" style="stroke:#ffff00" d="M 400,40 h 100"/>
    </g>
    <g id="B3" class="S4" onmouseenter="Show(this,$(this))" onmouseleave="Hide(this,$(this))">
      <path class="L" style="stroke:#ffff00" d="M 500,40 h 100"/>
    </g>
    <g id="B4" class="S1" onmouseenter="Show(this,$(this))" onmouseleave="Hide(this,$(this))">
      <path class="L" style="stroke:#ffff00" d="M 654,40 h 141"/>

      <path id="S1D" class="L" style="stroke:#ffff00" d="M 656,41 l -22,-22"/>
      <path id="S1S" class="L" style="stroke:#ffff00" d="M 600,40 h 54"/>

      <path class="L" style="stroke:#ffff00" d="M 600,20 h 36"/>
    </g>

     <g id="B5" class="S1" onmouseenter="Show(this,$(this))" onmouseleave="Hide(this,$(this))">
      <path class="L" style="stroke:#ffff00" d="M 5,60 h 141"/>
    </g>

    <g id="B6" class="S0">
      <path id="S1D" class="L" style="stroke:#ffff00" d="M 144,59 l 22,22"/>
      <path id="S1S" class="L" style="stroke:#ffff00" d="M 146,60 h 54"/>
      <path id="S2S" class="L" style="stroke:#ffff00" d="M 164,79 l 22,22"/>
      <path id="S2D" class="L" style="stroke:#ffff00" d="M 164,80 h 36"/>
      <path class="L" style="stroke:#ffff00" d="M 184,100 h 16"/>

      <rect x="160" y="50" width="40" height="60" style="fill:rgba(0,0,0,0);" onmouseenter="console.log('Enter');" onmouseleave="console.log('Exit');"/>
    </g>
    <g id="B7" class="S1" onmouseenter="Show(this,$(this))" onmouseleave="Hide(this,$(this))">
      <path class="L" style="stroke:#ffff00" d="M 200,60 h 100"/>
    </g>
    <g id="B7" class="S2" onmouseenter="Show(this,$(this))" onmouseleave="Hide(this,$(this))">
      <path class="L" style="stroke:#ffff00" d="M 300,60 h 100"/>
    </g>
    <g id="B7" class="S3" onmouseenter="Show(this,$(this))" onmouseleave="Hide(this,$(this))">
      <path class="L" style="stroke:#ffff00" d="M 400,60 h 100"/>
    </g>
    <g id="B7" class="S4" onmouseenter="Show(this,$(this))" onmouseleave="Hide(this,$(this))">
      <path class="L" style="stroke:#ffff00" d="M 500,60 h 100"/>
    </g>
    <g id="B8" class="S1" onmouseenter="Show(this,$(this))" onmouseleave="Hide(this,$(this))">
      <path class="L" style="stroke:#ffff00" d="M 200,80 h 100"/>
    </g>
    <g id="B8" class="S2" onmouseenter="Show(this,$(this))" onmouseleave="Hide(this,$(this))">
      <path class="L" style="stroke:#ffff00" d="M 300,80 h 100"/>
    </g>
    <g id="B8" class="S3" onmouseenter="Show(this,$(this))" onmouseleave="Hide(this,$(this))">
      <path class="L" style="stroke:#ffff00" d="M 400,80 h 100"/>
    </g>
    <g id="B8" class="S4" onmouseenter="Show(this,$(this))" onmouseleave="Hide(this,$(this))">
      <path class="L" style="stroke:#ffff00" d="M 500,80 h 100"/>
    </g>
    <g id="B9" class="S1" onmouseenter="Show(this,$(this))" onmouseleave="Hide(this,$(this))">
      <path class="L" style="stroke:#ffff00" d="M 200,100 h 100"/>
    </g>
    <g id="B9" class="S2" onmouseenter="Show(this,$(this))" onmouseleave="Hide(this,$(this))">
      <path class="L" style="stroke:#ffff00" d="M 300,100 h 100"/>
    </g>
    <g id="B9" class="S3" onmouseenter="Show(this,$(this))" onmouseleave="Hide(this,$(this))">
      <path class="L" style="stroke:#ffff00" d="M 400,100 h 100"/>
    </g>
    <g id="B9" class="S4" onmouseenter="Show(this,$(this))" onmouseleave="Hide(this,$(this))">
      <path class="L" style="stroke:#ffff00" d="M 500,100 h 100"/>
    </g>
    <g id="B10" class="S0">
      <path id="S1D" class="L" style="stroke:#f0f" d="M 634,81 l 22,-22"/>
      <path id="S1S" class="L" style="stroke:#0f0" d="M 600,60 h 54"/>
      <path id="S2S" class="L" style="stroke:#f0f" d="M 614,101 l 22,-22"/>
      <path id="S2D" class="L" style="stroke:#ffff00" d="M 600,80 h 36"/>
      <path class="L" style="stroke:#ffff00" d="M 600,100 h 16"/>
      
      <rect x="600" y="50" width="40" height="60" style="fill:rgba(0,0,0,0);" onmouseenter="console.log('Enter');" onmouseleave="console.log('Exit');"/>
    </g>
    <g id="B11" class="S1" onmouseenter="Show(this,$(this))" onmouseleave="Hide(this,$(this))">
      <path class="L" style="stroke:#ff00ff" d="M 634,60 h 161"/>
    </g>
  </g>
  <g><!-- Text blocks -->
    <g id="S0B" style="display:none">
      <rect x="90" y="35" width="20" height="10" fill="black" ></rect>
      <text class="T" x="90" y="43.5" font-family="Verdana" font-size="10" fill="white" >&lt;FF</text>
    </g>
    <g id="S1B" style="display:none">
      <rect x="290" y="35" width="20" height="10" fill="black" ></rect>
      <text class="T" x="290" y="43.5" font-family="Verdana" font-size="10" fill="white" >&lt;FF</text>
    </g>
    <g id="S2B" style="display:none">
      <rect x="490" y="35" width="20" height="10" fill="black" ></rect>
      <text class="T" x="490" y="43.5" font-family="Verdana" font-size="10" fill="white" >&lt;FF</text>
    </g>
    <g id="S3B" style="display:none">
      <rect x="690" y="35" width="20" height="10" fill="black" ></rect>
      <text class="T" x="690" y="43.5" font-family="Verdana" font-size="10" fill="white" >&lt;FF</text>
    </g>

    <g id="S4B" style="display:none">
      <rect x="90" y="55" width="20" height="10" fill="black" ></rect>
      <text class="T" x="90" y="63.5" font-family="Verdana" font-size="10" fill="white" >&lt;FF</text>
    </g>
    <g id="S5B" style="display:none">
      <rect x="290" y="55" width="20" height="10" fill="black" ></rect>
      <text class="T" x="290" y="63.5" font-family="Verdana" font-size="10" fill="white" >&lt;FF</text>
    </g>
    <g id="S6B" style="display:none">
      <rect x="490" y="55" width="20" height="10" fill="black" ></rect>
      <text class="T" x="490" y="63.5" font-family="Verdana" font-size="10" fill="white" >&lt;FF</text>
    </g>
    <g id="S7B" style="display:none">
      <rect x="690" y="55" width="20" height="10" fill="black" ></rect>
      <text class="T" x="690" y="63.5" font-family="Verdana" font-size="10" fill="white" >&lt;FF</text>
    </g>

    <g id="S8B" style="display:none">
      <rect x="290" y="75" width="20" height="10" fill="black" ></rect>
      <text class="T" x="290" y="83.5" font-family="Verdana" font-size="10" fill="white" >&lt;FF</text>
    </g>
    <g id="S9B" style="display:none">
      <rect x="490" y="75" width="20" height="10" fill="black" ></rect>
      <text class="T" x="490" y="83.5" font-family="Verdana" font-size="10" fill="white" >&lt;FF</text>
    </g>
  </g>
</svg>
