<svg preserveAspectRatio="xMidYMid meet" xmlns:dc="http://purl.org/dc/elements/1.1/" xmlns:cc="http://creativecommons.org/ns#" xmlns:rdf="http://www.w3.org/1999/02/22-rdf-syntax-ns#" xmlns:svg="http://www.w3.org/2000/svg" xmlns="http://www.w3.org/2000/svg" viewBox="0 0 136 140" id="svg6" height="140px" width="136px" version="1.1">
  <metadata id="metadata12">
    <rdf:RDF>
      <cc:Work rdf:about="">
        <dc:format>image/svg+xml</dc:format>
      </cc:Work>
    </rdf:RDF>
  </metadata>
  <defs id="defs10"/>
  <g>
    <rect x="200" y="25" width="400" height="15" style="fill:#444;"/>
    <rect x="200" y="60" width="400" height="20" style="fill:#444;"/>
    <rect x="200" y="105" width="400" height="15" style="fill:#444;"/>

    <rect x="600" y="50" width="40" height="60" style="stroke:rgb(255,0,0);stroke-width:2;fill:none"/>
    <rect x="160" y="50" width="40" height="60" style="stroke:rgb(255,0,0);stroke-width:2;fill:none"/>
    <rect x="600" y="10" width="40" height="40" style="stroke:rgb(255,0,0);stroke-width:2;fill:none"/>
    <rect x="160" y="10" width="40" height="40" style="stroke:rgb(255,0,0);stroke-width:2;fill:none"/>
  </g>
  <path class="B" d="M 0,40 h 122"/>
  <path class="B" d="M 0,60 h 122"/>
  <path class="B" d="M 118.5,38.5 l 12,12"/>
  <path class="B" d="M 118.5,61.5 l 12,-12"/>
  <path class="B" d="M 135,50 h -5"/>
  
  <g>
    <g id="B1" class="S1" onmouseenter="Show(this,$(this))" onmouseleave="Hide(this,$(this))">
      <path class="L" style="stroke:#ffff00" d="M 0,40 h 121"/>
    </g>
    <g id="B2" class="S1" onmouseenter="Show(this,$(this))" onmouseleave="Hide(this,$(this))">
      <path class="L" style="stroke:#ffff00" d="M 0,60 h 121"/>
    </g>
    <g id="B3" class="S0" onmouseenter="Show(this,$(this))" onmouseleave="Hide(this,$(this))">
      
      <path id="S1S" class="L" style="stroke:#ffff00" d="M 119.5,39.5 l 11,11"/>
      <path id="S1D" class="L" style="stroke:#ffff00" d="M 119.5,60.5 l 11,-11"/>
      <path class="L" style="stroke:#ffff00" d="M 130,50 h 5"/>
    </g>
  </g>
  <g><!-- Text blocks -->
    <g id="S0B" style="display:none">
      <rect x="90" y="35" width="20" height="10" fill="black" ></rect>
      <text class="T" x="90" y="43.5" font-family="Verdana" font-size="10" fill="white" >&lt;FF</text>
    </g>
    <g id="S1B" style="display:none">
      <rect x="290" y="35" width="20" height="10" fill="black" ></rect>
      <text class="T" x="290" y="43.5" font-family="Verdana" font-size="10" fill="white" >&lt;FF</text>
    </g>
  </g>
</svg>
