<svg preserveAspectRatio="xMidYMid meet" xmlns:dc="http://purl.org/dc/elements/1.1/" xmlns:cc="http://creativecommons.org/ns#" xmlns:rdf="http://www.w3.org/1999/02/22-rdf-syntax-ns#" xmlns:svg="http://www.w3.org/2000/svg" xmlns="http://www.w3.org/2000/svg" viewBox="0 0 140 70" id="svg6" height="140px" width="70px" version="1.1" style="top:-30px">
  <metadata id="metadata12">
    <rdf:RDF>
      <cc:Work rdf:about="">
        <dc:format>image/svg+xml</dc:format>
      </cc:Work>
    </rdf:RDF>
  </metadata>
  <defs id="defs10"/>

  <path class="B" d="M 63,10 h 7"/>
  <path class="B" d="M 43,30 h 27"/>
  <path class="B" d="M 23,50 h 47"/>
  <path class="B" d="M 0,70 h 70"/>
  <path class="B" d="M 23,90 h 47"/>
  <path class="B" d="M 43,110 h 27"/>
  <path class="B" d="M 63,130 h 7"/>
  
  <path class="B" d="M 3.5,68.5 l 66,66"/>
  <path class="B" d="M 3.5,71.5 l 63,-63"/>
  
  <g>
    <g id="B1" class="S0">
      
      <path class="L" style="stroke:#ffff00" d="M 0,70 h 5"/>

      <path class="L" style="stroke:#ffff00" d="M 64,10 l 3,0"/>
  	  <path id="S1S" class="L" style="stroke:#ffff00" d="M 44,31 l 21.5,-21.5"/>
      <path id="S1D" class="L" style="stroke:#ffff00" d="M 46,30 l 21,0"/>
  	  <path id="S2S" class="L" style="stroke:#ffff00" d="M 24,51 l 22,-22"/>
      <path id="S2D" class="L" style="stroke:#ffff00" d="M 26,50 l 21,0"/>
      <path id="M3S1" class="L" style="stroke:#ffff00" d="M 4,71 l 22,-22"/>
  	  <path id="M3S2" class="L" style="stroke:#ffff00" d="M 4,70 l 23,0"/>
  	  <path id="M3S3" class="L" style="stroke:#ffff00" d="M 4,69 l 22,22"/>
  	  <path id="S4S" class="L" style="stroke:#ffff00" d="M 24,89 l 22,22"/>
      <path id="S4D" class="L" style="stroke:#ffff00" d="M 26,90 l 21,0"/>
  	  <path id="S5S" class="L" style="stroke:#ffff00" d="M 44,109 l 21.5,21.5"/>
      <path id="S5D" class="L" style="stroke:#ffff00" d="M 46,110 l 21,0"/>
      <path class="L" style="stroke:#ffff00" d="M 64,130 l 3,0"/>
	  
    </g>
    <g id="B2" class="S1">
      <path class="L" style="stroke:#ffff00" nswitch="" d="M 67,10 h 3"/>
    </g>
    <g id="B3" class="S1">
      <path class="L" style="stroke:#ffff00" nswitch="" d="M 67,30 h 3"/>
    </g>
    <g id="B4" class="S1">
      <path class="L" style="stroke:#ffff00" nswitch="" d="M 47,50 h 23"/>
    </g>
    <g id="B5" class="S1">
      <path class="L" style="stroke:#ffff00" nswitch="" d="M 27,70 h 43"/>
    </g>
    <g id="B6" class="S1">
      <path class="L" style="stroke:#ffff00" nswitch="" d="M 47,90 h 23"/>
    </g>
    <g id="B7" class="S1">
      <path class="L" style="stroke:#ffff00" nswitch="" d="M 67,110 h 3"/>
    </g>
    <g id="B8" class="S1">
      <path class="L" style="stroke:#ffff00" nswitch="" d="M 67,130 h 3"/>
    </g>
  </g>
</svg>
