<svg width='735' height='138' viewBox='0 -10 735 138'>
<g class="BSw2"><path class="L LSwO SwS0o" nr="36" part="CRail" transform="translate(126.07533905933,63.933960940673) rotate(225)" d="M -0.2,0 h 0.2 a 50,50 0,0,0 35.35533905932737,-14.64466094067262 l 0.14142135623730953,-0.1414213562373095" style="fill:none;stroke:lightgrey;stroke-width:6px;"/>
<line class="L LSwO SwS1o" nr="5" part="RS" transform="translate(90.72,49.2893) rotate(0)" x1="-0.2" x2="42.2" y2="0" style="fill:none;stroke:lightgrey;stroke-width:6px;opacity:0;"/>
</g><g class="BSw1"><path class="L LSwO SwS0o" nr="36" part="CRail" transform="translate(126.07533905933,63.933960940673) rotate(225)" d="M -0.2,0 h 0.2 a 50,50 0,0,0 35.35533905932737,-14.64466094067262 l 0.14142135623730953,-0.1414213562373095" style="fill:none;stroke:lightgrey;stroke-width:6px;"/>
<line class="L LSwO SwS1o" nr="6" part="RS" transform="translate(97.355339059327,34.644660940673) rotate(45)" x1="-0.2" x2="42.2" y2="0" style="fill:none;stroke:lightgrey;stroke-width:6px;opacity:0;"/>
</g><g class="BSw3"><line class="L LSwO SwS0o" nr="37" part="RS" transform="translate(127.05382386916,64.343145750508) rotate(45)" x1="-0.2" x2="42.2" y2="0" style="fill:none;stroke:lightgrey;stroke-width:6px;"/>
<path class="L LSwO SwS1o" nr="34" part="CRail" transform="translate(127.05382386916,64.343145750508) rotate(0)" d="M 0,0 a 48.60288096514995,48.60288096514995 0,0,0 34.367426715662305,14.23545424949242 l 6.6587494151752935,0" style="fill:none;stroke:lightgrey;stroke-width:6px;opacity:0;"/>
</g><g class="BSw0"><line class="L LSwO SwS1o" nr="3" part="RS" transform="translate(62,20) rotate(0)" x1="-0.2" x2="35.56" y2="0" style="fill:none;stroke:lightgrey;stroke-width:6px;opacity:0;"/>
</g><g class="BSw6"><path class="L LSwO SwS0o" nr="30" part="CRail" transform="translate(672.88,20) rotate(-180)" d="M -0.2,0 h 0.2 a 50,50 0,0,0 35.35533905932737,-14.64466094067262 l 0.14142135623730953,-0.1414213562373095" style="fill:none;stroke:lightgrey;stroke-width:6px;"/>
<line class="L LSwO SwS1o" nr="22" part="RS" transform="translate(637.52,20) rotate(0)" x1="-0.2" x2="35.56" y2="0" style="fill:none;stroke:lightgrey;stroke-width:6px;opacity:0;"/>
</g><g class="BSw-1"><path class="L LSwO SwS0o" nr="49" part="CRail" transform="translate(602.16932188135,49.289321881345) rotate(0)" d="M -0.2,0 h 0.2 a 50,50 0,0,0 35.35533905932737,-14.64466094067262 l 0.14142135623730953,-0.1414213562373095" style="fill:none;stroke:lightgrey;stroke-width:6px;"/>
<line class="L LSwO SwS1o" nr="25" part="RS" transform="translate(607.82617613084,64.343145750508) rotate(-45)" x1="-0.2" x2="42.2" y2="0" style="fill:none;stroke:lightgrey;stroke-width:6px;opacity:0;"/>
</g><g class="BSw1"><path class="L LSwO SwS0o" nr="50" part="CRail" transform="translate(643.18151519016,49.698484809835) rotate(180)" d="M -0.2,0 h 0.2 a 50,50 0,0,0 35.35533905932737,-14.64466094067262 l 0.14142135623730953,-0.1414213562373095" style="fill:none;stroke:lightgrey;stroke-width:6px;"/>
<line class="L LSwO SwS1o" nr="25" part="RS" transform="translate(607.82617613084,64.343145750508) rotate(-45)" x1="-0.2" x2="42.2" y2="0" style="fill:none;stroke:lightgrey;stroke-width:6px;opacity:0;"/>
</g><g class="B6">
<g class="Sw2 SwGroup">
<line class="L LSw SwS0" nr="5" part="RS" transform="translate(90.72,49.2893) rotate(0)" x1="-0.2" x2="42.2" y2="0" style="fill:none;stroke:#555;stroke-width:6px;"/>
<path class="L LSw SwS1" nr="36" part="CRail" transform="translate(126.07533905933,63.933960940673) rotate(225)" d="M -0.2,0 h 0.2 a 50,50 0,0,0 35.35533905932737,-14.64466094067262 l 0.14142135623730953,-0.1414213562373095" style="fill:none;stroke:#555;stroke-width:6px;opacity:0;"/>
</g>
<g class="Sw1 SwGroup">
<line class="L LSw SwS0" nr="6" part="RS" transform="translate(97.355339059327,34.644660940673) rotate(45)" x1="-0.2" x2="42.2" y2="0" style="fill:none;stroke:#555;stroke-width:6px;"/>
<path class="L LSw SwS1" nr="36" part="CRail" transform="translate(126.07533905933,63.933960940673) rotate(225)" d="M -0.2,0 h 0.2 a 50,50 0,0,0 35.35533905932737,-14.64466094067262 l 0.14142135623730953,-0.1414213562373095" style="fill:none;stroke:#555;stroke-width:6px;opacity:0;"/>
</g>
<g class="Sw3 SwGroup">
<path class="L LSw SwS0" nr="34" part="CRail" transform="translate(127.05382386916,64.343145750508) rotate(0)" d="M 0,0 a 48.60288096514995,48.60288096514995 0,0,0 34.367426715662305,14.23545424949242 l 6.6587494151752935,0" style="fill:none;stroke:#555;stroke-width:6px;"/>
<line class="L LSw SwS1" nr="37" part="RS" transform="translate(127.05382386916,64.343145750508) rotate(45)" x1="-0.2" x2="42.2" y2="0" style="fill:none;stroke:#555;stroke-width:6px;opacity:0;"/>
</g>
<line class="L" nr="0" part="RS" transform="translate(20,20) rotate(0)" x1="-0.2" x2="42.2" y2="0" style="fill:none;stroke:#555;stroke-width:6px;"/>
<line class="L" nr="1" part="RS" transform="translate(20,49.2893) rotate(0)" x1="-0.2" x2="35.56" y2="0" style="fill:none;stroke:#555;stroke-width:6px;"/>
<line class="L" nr="2" part="RS" transform="translate(55.36,49.2893) rotate(0)" x1="-0.2" x2="35.56" y2="0" style="fill:none;stroke:#555;stroke-width:6px;"/>
<line class="L" nr="8" part="RS" transform="translate(132.72,49.2893) rotate(0)" x1="-0.2" x2="35.56" y2="0" style="fill:none;stroke:#555;stroke-width:6px;"/>
<path class="L" nr="31" part="CRail" transform="translate(97.355339059327,34.644660940673) rotate(225)" d="M -0.2,0 h 0.2 a 50,50 0,0,0 35.35533905932737,-14.64466094067262 l 0.14142135623730953,-0.1414213562373095" style="fill:none;stroke:#555;stroke-width:6px;"/>
<path class="L" nr="35" part="CRail" transform="translate(97.364660940673,34.644639059327) rotate(45)" d="M -0.2,0 h 0.2 a 50,50 0,0,0 35.35533905932737,-14.64466094067262 l 0.14142135623730953,-0.1414213562373095" style="fill:none;stroke:#555;stroke-width:6px;"/>
</g>
<g class="B-1">
<g class="Sw0 SwGroup">
<line class="L LSw SwS0" nr="3" part="RS" transform="translate(62,20) rotate(0)" x1="-0.2" x2="35.56" y2="0" style="fill:none;stroke:#555;stroke-width:6px;"/>
</g>
<line class="L" nr="4" part="RS" transform="translate(97.36,20) rotate(0)" x1="-0.2" x2="35.56" y2="0" style="fill:none;stroke:#555;stroke-width:6px;"/>
<line class="L" nr="7" part="RS" transform="translate(132.72,20) rotate(0)" x1="-0.2" x2="35.56" y2="0" style="fill:none;stroke:#555;stroke-width:6px;"/>
<line class="L" nr="9" part="RS" transform="translate(168.08,20) rotate(0)" x1="-0.2" x2="35.56" y2="0" style="fill:none;stroke:#555;stroke-width:6px;"/>
<line class="L" nr="10" part="RS" transform="translate(168.08,49.2893) rotate(0)" x1="-0.2" x2="35.56" y2="0" style="fill:none;stroke:#555;stroke-width:6px;"/>
<line class="L" nr="11" part="RS" transform="translate(203.44,20) rotate(0)" x1="-0.2" x2="82.2" y2="0" style="fill:none;stroke:#555;stroke-width:6px;"/>
<line class="L" nr="12" part="RS" transform="translate(203.44,49.2893) rotate(0)" x1="-0.2" x2="82.2" y2="0" style="fill:none;stroke:#555;stroke-width:6px;"/>
<line class="L" nr="13" part="RS" transform="translate(285.44,20) rotate(0)" x1="-0.2" x2="82.2" y2="0" style="fill:none;stroke:#555;stroke-width:6px;"/>
<line class="L" nr="14" part="RS" transform="translate(285.44,49.2893) rotate(0)" x1="-0.2" x2="82.2" y2="0" style="fill:none;stroke:#555;stroke-width:6px;"/>
<line class="L" nr="15" part="RS" transform="translate(367.44,20) rotate(0)" x1="-0.2" x2="82.2" y2="0" style="fill:none;stroke:#555;stroke-width:6px;"/>
<line class="L" nr="17" part="RS" transform="translate(449.44,20) rotate(0)" x1="-0.2" x2="82.2" y2="0" style="fill:none;stroke:#555;stroke-width:6px;"/>
<line class="L" nr="18" part="RS" transform="translate(449.44,49.2893) rotate(0)" x1="-0.2" x2="82.2" y2="0" style="fill:none;stroke:#555;stroke-width:6px;"/>
<line class="L" nr="19" part="RS" transform="translate(531.44,20) rotate(0)" x1="-0.2" x2="35.56" y2="0" style="fill:none;stroke:#555;stroke-width:6px;"/>
<line class="L" nr="20" part="RS" transform="translate(566.8,20) rotate(0)" x1="-0.2" x2="35.56" y2="0" style="fill:none;stroke:#555;stroke-width:6px;"/>
<line class="L" nr="21" part="RS" transform="translate(602.16,20) rotate(0)" x1="-0.2" x2="35.56" y2="0" style="fill:none;stroke:#555;stroke-width:6px;"/>
<line class="L" nr="26" part="RS" transform="translate(531.44,49.2893) rotate(0)" x1="-0.2" x2="35.56" y2="0" style="fill:none;stroke:#555;stroke-width:6px;"/>
<path class="L" nr="38" part="CRail" transform="translate(156.752308679,94.041630560343) rotate(0)" d="M 0,0 a 47.20583663791052,47.20583663791052 0,0,0 33.37956719825195,13.826269439657437 l 13.308124122750655,0" style="fill:none;stroke:#555;stroke-width:6px;"/>
<line class="L" nr="40" part="RS" transform="translate(367.44,78.5786) rotate(0)" x1="-0.2" x2="82.2" y2="0" style="fill:none;stroke:#555;stroke-width:6px;"/>
<line class="L" nr="41" part="RS" transform="translate(449.44,78.5786) rotate(0)" x1="-0.2" x2="82.2" y2="0" style="fill:none;stroke:#555;stroke-width:6px;"/>
<line class="L" nr="42" part="RS" transform="translate(285.44,78.5786) rotate(0)" x1="-0.2" x2="82.2" y2="0" style="fill:none;stroke:#555;stroke-width:6px;"/>
<line class="L" nr="43" part="RS" transform="translate(537.11083707151,78.98780669118) rotate(0)" x1="-0.2" x2="35.56" y2="0" style="fill:none;stroke:#555;stroke-width:6px;"/>
<line class="L" nr="44" part="RS" transform="translate(203.44,107.8679) rotate(0)" x1="-0.2" x2="162.2" y2="0" style="fill:none;stroke:#555;stroke-width:6px;"/>
<line class="L" nr="45" part="RS" transform="translate(365.44,107.8679) rotate(0)" x1="-0.2" x2="82.2" y2="0" style="fill:none;stroke:#555;stroke-width:6px;"/>
<line class="L" nr="46" part="RS" transform="translate(447.44,107.8679) rotate(0)" x1="-0.2" x2="82.2" y2="0" style="fill:none;stroke:#555;stroke-width:6px;"/>
<line class="L" nr="47" part="RS" transform="translate(529.44,107.8679) rotate(0)" x1="-0.2" x2="42.2" y2="0" style="fill:none;stroke:#555;stroke-width:6px;"/>
</g>
<g class="B9">
<line class="L" nr="16" part="RS" transform="translate(367.44,49.2893) rotate(0)" x1="-0.2" x2="82.2" y2="0" style="fill:none;stroke:#555;stroke-width:6px;"/>
</g>
<g class="B11">
<g class="Sw6 SwGroup">
<line class="L LSw SwS0" nr="22" part="RS" transform="translate(637.52,20) rotate(0)" x1="-0.2" x2="35.56" y2="0" style="fill:none;stroke:#555;stroke-width:6px;"/>
<path class="L LSw SwS1" nr="30" part="CRail" transform="translate(672.88,20) rotate(-180)" d="M -0.2,0 h 0.2 a 50,50 0,0,0 35.35533905932737,-14.64466094067262 l 0.14142135623730953,-0.1414213562373095" style="fill:none;stroke:#555;stroke-width:6px;opacity:0;"/>
</g>
<g class="Sw-1 SwGroup">
<line class="L LSw SwS0" nr="25" part="RS" transform="translate(607.82617613084,64.343145750508) rotate(-45)" x1="-0.2" x2="42.2" y2="0" style="fill:none;stroke:#555;stroke-width:6px;"/>
<path class="L LSw SwS1" nr="49" part="CRail" transform="translate(602.16932188135,49.289321881345) rotate(0)" d="M -0.2,0 h 0.2 a 50,50 0,0,0 35.35533905932737,-14.64466094067262 l 0.14142135623730953,-0.1414213562373095" style="fill:none;stroke:#555;stroke-width:6px;opacity:0;"/>
</g>
<g class="Sw1 SwGroup">
<line class="L LSw SwS0" nr="25" part="RS" transform="translate(607.82617613084,64.343145750508) rotate(-45)" x1="-0.2" x2="42.2" y2="0" style="fill:none;stroke:#555;stroke-width:6px;"/>
<path class="L LSw SwS1" nr="50" part="CRail" transform="translate(643.18151519016,49.698484809835) rotate(180)" d="M -0.2,0 h 0.2 a 50,50 0,0,0 35.35533905932737,-14.64466094067262 l 0.14142135623730953,-0.1414213562373095" style="fill:none;stroke:#555;stroke-width:6px;opacity:0;"/>
</g>
<line class="L" nr="23" part="RS" transform="translate(672.88,20) rotate(0)" x1="-0.2" x2="42.2" y2="0" style="fill:none;stroke:#555;stroke-width:6px;"/>
<line class="L" nr="24" part="RS" transform="translate(602.16,49.2893) rotate(0)" x1="-0.2" x2="42.2" y2="0" style="fill:none;stroke:#555;stroke-width:6px;"/>
<line class="L" nr="27" part="RS" transform="translate(566.8,49.2893) rotate(0)" x1="-0.2" x2="35.56" y2="0" style="fill:none;stroke:#555;stroke-width:6px;"/>
<line class="L" nr="28" part="RS" transform="translate(644.16,49.2893) rotate(0)" x1="-0.2" x2="35.56" y2="0" style="fill:none;stroke:#555;stroke-width:6px;"/>
<line class="L" nr="29" part="RS" transform="translate(679.52,49.2893) rotate(0)" x1="-0.2" x2="35.56" y2="0" style="fill:none;stroke:#555;stroke-width:6px;"/>
<path class="L" nr="32" part="CRail" transform="translate(572.47083707151,78.98780669118) rotate(0)" d="M -0.2,0 h 0.2 a 50,50 0,0,0 35.35533905932737,-14.64466094067262 l 0.14142135623730953,-0.1414213562373095" style="fill:none;stroke:#555;stroke-width:6px;"/>
</g>
<g class="B12">
<line class="L" nr="33" part="RS" transform="translate(168.08,78.5786) rotate(0)" x1="-0.2" x2="35.56" y2="0" style="fill:none;stroke:#555;stroke-width:6px;"/>
<line class="L" nr="39" part="RS" transform="translate(203.44,78.5786) rotate(0)" x1="-0.2" x2="82.2" y2="0" style="fill:none;stroke:#555;stroke-width:6px;"/>
</g>
<g class="B19">
<line class="L" nr="48" part="RS" transform="translate(571.44,107.8679) rotate(0)" x1="-0.2" x2="35.56" y2="0" style="fill:none;stroke:#555;stroke-width:6px;"/>
</g>
<g class='Signals'>
</g>
</svg>
