<svg xmlns:dc="http://purl.org/dc/elements/1.1/" xmlns:cc="http://creativecommons.org/ns#" xmlns:rdf="http://www.w3.org/1999/02/22-rdf-syntax-ns#" xmlns:svg="http://www.w3.org/2000/svg" xmlns="http://www.w3.org/2000/svg" viewBox="0 0 140 140" id="svg6" height="140px" width="140px" version="1.1">
  <metadata id="metadata12">
	<rdf:rdf>
	  <cc:work rdf:about="">
		<dc:format>image/svg+xml</dc:format>
	  </cc:work>
	</rdf:rdf>
  </metadata>
  <defs id="defs10"></defs>
  <g>
  	<path class="B" d="M 0,40 h 39"></path>
  	<path class="B" d="M 36.5,41 l 32,-32"></path>
  	<path class="B" d="M 66,10  h 25"></path>
  	<path class="B" d="M 88.5,9  l 32,32"></path>

  	<path class="B" d="M 120,39  l 0,101"></path>
  	<path class="B" d="M 100,140 l 0,-41"></path>
  	<path class="B" d="M 101,101.5 l -11.5,-11.5"></path>

  	<path class="B" d="M 88.5,91 l 32,-32"></path>
  	<path class="B" d="M 66,90  h 25"></path>
  	<path class="B" d="M 36.5,59 l 32,32"></path>
  	<path class="B" d="M 0,60 h 39"></path>
  </g>
  <g id="B0">
  	<path class="L" style="stroke: rgb(0, 255, 0);" d="M 0,40 h 38"></path>
  	<path class="L" style="stroke: rgb(0, 255, 0);" d="M 37,40.5 l 31,-31"></path>
  	<path class="L" style="stroke: rgb(0, 255, 0);" d="M 67,10  h 23"></path>
  	<path class="L" style="stroke: rgb(0, 255, 0);" d="M 89,9.5  l 31,31"></path>
  </g>
  <g id="B1">
  	<path class="L" style="stroke: rgb(0, 255, 0);" d="M 120,40  l 0,20"></path>
  	<path class="L" style="stroke: rgb(0, 255, 0);" d="M 120,80  l 0,60"></path>

  	<path class="Sw1S L" style="stroke: rgb(0, 255, 0); opacity: 0;" d="M 120,60  l 0,20"></path>
    <path class="Sw1D L" style="stroke: rgb(0, 255, 0); opacity: 1;" d="M 120,59.5 l -15,15"></path>
    <rect x="105" y="58" height="20" width="16" class="Switch" onclick="throw_Switch('S',2,1);" style="cursor: pointer;"></rect>
  </g>
  <g id="B2">
  	<path class="L" style="stroke: rgb(0, 255, 0);" d="M 76,90  h 14"></path>
  	<path class="L" style="stroke: rgb(0, 255, 0);" d="M 100,140 l 0,-40"></path>

    <path class="Sw0D L" style="stroke: rgb(0, 255, 0); opacity: 0;" d="M 89.5,90 l 15.5,-15.5"></path>
  	<path class="Sw0S L" style="stroke: rgb(0, 255, 0); opacity: 1;" d="M 100.5,101 l -11,-11"></path>
    <rect x="89" y="75" height="28" width="16" class="Switch" onclick="throw_Switch('S',2,0);" style="cursor: pointer;"></rect>
  </g>
  <g id="B3">
  	<path class="L" style="stroke: rgb(0, 255, 0);" d="M 67,90  h 9"></path>
  	<path class="L" style="stroke: rgb(0, 255, 0);" d="M 37,59.5 l 31,31"></path>
  	<path class="L" style="stroke: rgb(0, 255, 0);" d="M 0,60 h 38"></path>
  </g>
</svg>
