<svg xmlns="http://www.w3.org/2000/svg" viewBox="0 0 15 29"><defs><style>.cls-1{stroke:#000;}.cls-2{fill:lime;stroke:lime;}.cls-3{fill:#ff0;stroke:#ff0;}.cls-4{fill:red;stroke:red;}</style></defs><title>2</title><g id="Layer_2" data-name="Layer 2"><g id="Layer_1-2" data-name="Layer 1"><path class="cls-1" d="M7.5,28.5h2l2-1,2-2,1-2V5.5l-1-2-2-2-2-1h-4l-2,1-2,2-1,2v18l1,2,2,2,2,1Z"/><path class="cls-2" d="M4.5,6.5l2-2h2l2,2v2l-2,2h-2l-2-2Z"/><path class="cls-3" d="M6.5,11.5h2l2,2v2l-2,2h-2l-2-2v-2l2-2Z"/><path class="cls-4" d="M6.5,18.5h2l2,2v2l-2,2h-2l-2-2v-2Z"/></g></g></svg>