<svg xmlns="http://www.w3.org/2000/svg" viewBox="0 0 13.91 32.84"><defs><style>.cls-1,.cls-5,.cls-6,.cls-8,.cls-9{stroke:#000;}.cls-2{fill:#f0f0f0;stroke:#e0e0e0;}.cls-3{fill:red;stroke:red;}.cls-4{fill:#fff;stroke:#fff;}.cls-5{fill:lime;}.cls-6{fill:#5a0000;}.cls-7,.cls-8{fill:#ff0;}.cls-7{stroke:#ff0;}.cls-9{fill:#00285a;}</style></defs><title>3</title><g id="Layer_2" data-name="Layer 2"><g id="Layer_1-2" data-name="Layer 1"><path class="cls-1" d="M7.75,26.88v3.27H11v2.18H3.39V30.15H6.66V26.88Z"/><path class="cls-2" d="M7.75.71V26.88H6.66V.71Z"/><path class="cls-3" d="M12.11,9.43,9.93,11.61,1.21,2.89,3.39.71Z"/><path class="cls-4" d="M3.39,5.07,5.57,2.89,4.48,1.8,2.3,4Z"/><path class="cls-1" d="M12.11,9.43l1.09,1.09L11,12.7,9.93,11.61Z"/><path class="cls-5" d="M12.11,10.52v1.09L11,12.7H9.93L8.84,11.61V10.52L9.93,9.43H11Z"/><path class="cls-6" d="M8.84,11.61V12.7L7.75,13.79H6.66L5.57,12.7V11.61l1.09-1.09H7.75Z"/><path class="cls-7" d="M12.11,19.25H1.21L2.3,20.34,1.21,21.43H12.11Z"/><path class="cls-1" d="M4.48,19.25H3.39l1.09,1.09L3.39,21.43H4.48l1.09-1.09Z"/><path class="cls-1" d="M12.11,19.25H9.93v2.18h2.18Z"/><path class="cls-8" d="M12.11,23.61V24.7L11,25.79H9.93L8.84,24.7V23.61l1.09-1.09H11Z"/><path class="cls-9" d="M13.2,20.34v1.09l-1.09,1.09H11L9.93,21.43V20.34L11,19.25h1.09Z"/></g></g></svg>