<svg width='674' height='158' viewBox='0 -59 674 158'>
<g class="BSw0">
	<line class="L LSwO SwS0o" nr="3" part="RS" transform="translate(55.36,20) rotate(0)" x1="-0.2" x2="35.56" y2="0" style="fill:none;stroke:lightgrey;stroke-width:6px;"/>
	<path class="L LSwO SwS0o" nr="2" part="CRail" transform="translate(90.715339059327,34.644660940673) rotate(225)" d="M -0.2,0 h 0.2 a 50,50 0,0,0 35.35533905932737,-14.64466094067262 l 0.14142135623730953,-0.1414213562373095" style="fill:none;stroke:lightgrey;stroke-width:6px;"/>
	<path class="L LSwO SwS1o" nr="1" part="CRail" transform="translate(55.36,20) rotate(0)" d="M -0.2,0 h 0.2 a 50,50 0,0,0 35.35533905932737,-14.64466094067262 l 0.14142135623730953,-0.1414213562373095" style="fill:none;stroke:lightgrey;stroke-width:6px;opacity:0;"/>
	<path class="L LSwO SwS1o" nr="2" part="CRail" transform="translate(90.715339059327,34.644660940673) rotate(225)" d="M -0.2,0 h 0.2 a 50,50 0,0,0 35.35533905932737,-14.64466094067262 l 0.14142135623730953,-0.1414213562373095" style="fill:none;stroke:lightgrey;stroke-width:6px;opacity:0;"/>
	<path class="L LSwO SwS2o" nr="1" part="CRail" transform="translate(55.36,20) rotate(0)" d="M -0.2,0 h 0.2 a 50,50 0,0,0 35.35533905932737,-14.64466094067262 l 0.14142135623730953,-0.1414213562373095" style="fill:none;stroke:lightgrey;stroke-width:6px;opacity:0;"/>
	<line class="L LSwO SwS2o" nr="3" part="RS" transform="translate(55.36,20) rotate(0)" x1="-0.2" x2="35.56" y2="0" style="fill:none;stroke:lightgrey;stroke-width:6px;opacity:0;"/>
</g>
<g class="BSw-1">
	<path class="L LSwO SwS0o" nr="9" part="CRail" transform="translate(90.715339059327,34.644660940673) rotate(45)" d="M -0.2,0 h 0.2 a 50,50 0,0,0 35.35533905932737,-14.64466094067262 l 0.14142135623730953,-0.1414213562373095" style="fill:none;stroke:lightgrey;stroke-width:6px;"/>
	<line class="L LSwO SwS1o" nr="8" part="RS" transform="translate(90.715339059327,34.644660940673) rotate(45)" x1="-0.2" x2="42.2" y2="0" style="fill:none;stroke:lightgrey;stroke-width:6px;opacity:0;"/>
</g>
<g class="B-1">
	<g class="Sw0 SwGroup">
		<path class="L LSw SwS0" nr="1" part="CRail" transform="translate(55.36,20) rotate(0)" d="M -0.2,0 h 0.2 a 50,50 0,0,0 35.35533905932737,-14.64466094067262 l 0.14142135623730953,-0.1414213562373095" style="fill:none;stroke:#555;stroke-width:6px;"/>
		<line class="L LSw SwS1" nr="3" part="RS" transform="translate(55.36,20) rotate(0)" x1="-0.2" x2="35.56" y2="0" style="fill:none;stroke:#555;stroke-width:6px;opacity:0;"/>
		<path class="L LSw SwS2" nr="2" part="CRail" transform="translate(90.715339059327,34.644660940673) rotate(225)" d="M -0.2,0 h 0.2 a 50,50 0,0,0 35.35533905932737,-14.64466094067262 l 0.14142135623730953,-0.1414213562373095" style="fill:none;stroke:#555;stroke-width:6px;opacity:0;"/>
	</g>
	<g class="Sw-1 SwGroup">
		<line class="L LSw SwS0" nr="8" part="RS" transform="translate(90.715339059327,34.644660940673) rotate(45)" x1="-0.2" x2="42.2" y2="0" style="fill:none;stroke:#555;stroke-width:6px;"/>
		<path class="L LSw SwS1" nr="9" part="CRail" transform="translate(90.715339059327,34.644660940673) rotate(45)" d="M -0.2,0 h 0.2 a 50,50 0,0,0 35.35533905932737,-14.64466094067262 l 0.14142135623730953,-0.1414213562373095" style="fill:none;stroke:#555;stroke-width:6px;opacity:0;"/>
	</g>
	<line class="L" nr="0" part="RS" transform="translate(20,20) rotate(0)" x1="-0.2" x2="35.56" y2="0" style="fill:none;stroke:#555;stroke-width:6px;"/>
	<line class="L" nr="4" part="RS" transform="translate(90.72,20) rotate(0)" x1="-0.2" x2="35.56" y2="0" style="fill:none;stroke:#555;stroke-width:6px;"/>
	<line class="L" nr="5" part="RS" transform="translate(126.08,20) rotate(0)" x1="-0.2" x2="35.56" y2="0" style="fill:none;stroke:#555;stroke-width:6px;"/>
	<line class="L" nr="6" part="RS" transform="translate(126.07067811865,-9.2893218813452) rotate(0)" x1="-0.2" x2="35.56" y2="0" style="fill:none;stroke:#555;stroke-width:6px;"/>
	<path class="L" nr="7" part="CRail" transform="translate(126.07067811865,-9.2893218813452) rotate(180)" d="M -0.2,0 h 0.2 a 50,50 0,0,0 35.35533905932737,-14.64466094067262 l 0.14142135623730953,-0.1414213562373095" style="fill:none;stroke:#555;stroke-width:6px;"/>
	<line class="L" nr="10" part="RS" transform="translate(161.43067811865,-38.578621881345) rotate(0)" x1="-0.2" x2="82.2" y2="0" style="fill:none;stroke:#555;stroke-width:6px;"/>
	<line class="L" nr="11" part="RS" transform="translate(90.715339059327,5.3553390593274) rotate(-45)" x1="-0.2" x2="42.2" y2="0" style="fill:none;stroke:#555;stroke-width:6px;"/>
	<path class="L" nr="12" part="CRail" transform="translate(161.43067811865,-38.578621881345) rotate(0)" d="M 0,0 l -6.6493747075776355,0 a 48.60295567275898,48.60295567275898 0,0,0 -34.36747954191469,14.23547613083764" style="fill:none;stroke:#555;stroke-width:6px;"/>
	<line class="L" nr="13" part="RS" transform="translate(161.43067811865,-9.2893218813452) rotate(0)" x1="-0.2" x2="82.2" y2="0" style="fill:none;stroke:#555;stroke-width:6px;"/>
	<line class="L" nr="14" part="RS" transform="translate(161.44,20) rotate(0)" x1="-0.2" x2="82.2" y2="0" style="fill:none;stroke:#555;stroke-width:6px;"/>
	<line class="L" nr="15" part="RS" transform="translate(243.43067811865,-38.578621881345) rotate(0)" x1="-0.2" x2="82.2" y2="0" style="fill:none;stroke:#555;stroke-width:6px;"/>
	<line class="L" nr="16" part="RS" transform="translate(243.43067811865,-9.2893218813452) rotate(0)" x1="-0.2" x2="82.2" y2="0" style="fill:none;stroke:#555;stroke-width:6px;"/>
	<line class="L" nr="17" part="RS" transform="translate(243.44,20) rotate(0)" x1="-0.2" x2="82.2" y2="0" style="fill:none;stroke:#555;stroke-width:6px;"/>
	<line class="L" nr="18" part="RS" transform="translate(325.43067811865,-38.578621881345) rotate(0)" x1="-0.2" x2="82.2" y2="0" style="fill:none;stroke:#555;stroke-width:6px;"/>
	<line class="L" nr="19" part="RS" transform="translate(325.43067811865,-9.2893218813452) rotate(0)" x1="-0.2" x2="82.2" y2="0" style="fill:none;stroke:#555;stroke-width:6px;"/>
	<line class="L" nr="20" part="RS" transform="translate(325.44,20) rotate(0)" x1="-0.2" x2="82.2" y2="0" style="fill:none;stroke:#555;stroke-width:6px;"/>
	<line class="L" nr="21" part="RS" transform="translate(407.43067811865,-38.578621881345) rotate(0)" x1="-0.2" x2="82.2" y2="0" style="fill:none;stroke:#555;stroke-width:6px;"/>
	<line class="L" nr="22" part="RS" transform="translate(407.43067811865,-9.2893218813452) rotate(0)" x1="-0.2" x2="82.2" y2="0" style="fill:none;stroke:#555;stroke-width:6px;"/>
	<line class="L" nr="23" part="RS" transform="translate(407.44,20) rotate(0)" x1="-0.2" x2="82.2" y2="0" style="fill:none;stroke:#555;stroke-width:6px;"/>
	<line class="L" nr="24" part="RS" transform="translate(161.43067811865,49.289321881345) rotate(0)" x1="-0.2" x2="82.2" y2="0" style="fill:none;stroke:#555;stroke-width:6px;"/>
	<line class="L" nr="25" part="RS" transform="translate(126.07067811865,49.289321881345) rotate(0)" x1="-0.2" x2="35.56" y2="0" style="fill:none;stroke:#555;stroke-width:6px;"/>
	<path class="L" nr="26" part="CRail" transform="translate(120.41382386916,64.343145750508) rotate(0)" d="M 0,0 a 48.60295567276171,48.60295567276171 0,0,0 34.36747954191969,14.23547613083764 l 6.649374707572633,0" style="fill:none;stroke:#555;stroke-width:6px;"/>
	<line class="L" nr="27" part="RS" transform="translate(161.43067811865,78.578621881345) rotate(0)" x1="-0.2" x2="82.2" y2="0" style="fill:none;stroke:#555;stroke-width:6px;"/>
	<line class="L" nr="28" part="RS" transform="translate(243.43067811865,49.289321881345) rotate(0)" x1="-0.2" x2="82.2" y2="0" style="fill:none;stroke:#555;stroke-width:6px;"/>
	<line class="L" nr="29" part="RS" transform="translate(243.43067811865,78.578621881345) rotate(0)" x1="-0.2" x2="82.2" y2="0" style="fill:none;stroke:#555;stroke-width:6px;"/>
	<line class="L" nr="30" part="RS" transform="translate(325.43067811865,49.289321881345) rotate(0)" x1="-0.2" x2="82.2" y2="0" style="fill:none;stroke:#555;stroke-width:6px;"/>
	<line class="L" nr="31" part="RS" transform="translate(325.43067811865,78.578621881345) rotate(0)" x1="-0.2" x2="82.2" y2="0" style="fill:none;stroke:#555;stroke-width:6px;"/>
	<line class="L" nr="32" part="RS" transform="translate(407.43067811865,49.289321881345) rotate(0)" x1="-0.2" x2="82.2" y2="0" style="fill:none;stroke:#555;stroke-width:6px;"/>
	<line class="L" nr="33" part="RS" transform="translate(407.43067811865,78.578621881345) rotate(0)" x1="-0.2" x2="82.2" y2="0" style="fill:none;stroke:#555;stroke-width:6px;"/>
	<line class="L" nr="34" part="RS" transform="translate(489.43067811865,-38.578621881345) rotate(0)" x1="-0.2" x2="82.2" y2="0" style="fill:none;stroke:#555;stroke-width:6px;"/>
	<line class="L" nr="35" part="RS" transform="translate(571.43067811865,-38.578621881345) rotate(0)" x1="-0.2" x2="82.2" y2="0" style="fill:none;stroke:#555;stroke-width:6px;"/>
	<line class="L" nr="36" part="RS" transform="translate(489.43067811865,-9.2893218813452) rotate(0)" x1="-0.2" x2="82.2" y2="0" style="fill:none;stroke:#555;stroke-width:6px;"/>
	<line class="L" nr="37" part="RS" transform="translate(489.44,20) rotate(0)" x1="-0.2" x2="82.2" y2="0" style="fill:none;stroke:#555;stroke-width:6px;"/>
	<line class="L" nr="38" part="RS" transform="translate(489.43067811865,49.289321881345) rotate(0)" x1="-0.2" x2="82.2" y2="0" style="fill:none;stroke:#555;stroke-width:6px;"/>
	<line class="L" nr="39" part="RS" transform="translate(489.43067811865,78.578621881345) rotate(0)" x1="-0.2" x2="82.2" y2="0" style="fill:none;stroke:#555;stroke-width:6px;"/>
	<line class="L" nr="40" part="RS" transform="translate(571.43067811865,-9.2893218813452) rotate(0)" x1="-0.2" x2="82.2" y2="0" style="fill:none;stroke:#555;stroke-width:6px;"/>
	<line class="L" nr="41" part="RS" transform="translate(571.44,20) rotate(0)" x1="-0.2" x2="82.2" y2="0" style="fill:none;stroke:#555;stroke-width:6px;"/>
	<line class="L" nr="42" part="RS" transform="translate(571.43067811865,49.289321881345) rotate(0)" x1="-0.2" x2="82.2" y2="0" style="fill:none;stroke:#555;stroke-width:6px;"/>
	<line class="L" nr="43" part="RS" transform="translate(571.43067811865,78.578621881345) rotate(0)" x1="-0.2" x2="82.2" y2="0" style="fill:none;stroke:#555;stroke-width:6px;"/>
</g>
<g class='Signals'>
</g>
</svg>
