%
M48
M72
T01C0.03150
T02C0.03200
T03C0.04000
T04C0.04700
T05C0.12205
%
T01
X81600Y72339
X71561Y82379
X81600Y92418
X91639Y82379
X106600Y102339
X96561Y112379
X106600Y122418
X116639Y112379
X131600Y92418
X121561Y82379
X131600Y72339
X141639Y82379
X156600Y102339
X146561Y112379
X156600Y122418
X166639Y112379
X181600Y92418
X191639Y82379
X181600Y72339
X171561Y82379
X196561Y112379
X206600Y122418
X216639Y112379
X206600Y102339
X221561Y82379
X231600Y92418
X241639Y82379
X231600Y72339
X66639Y112379
X56600Y122418
X46561Y112379
X56600Y102339
T02
X46600Y132379
X71600Y132379
X96600Y132379
X121600Y132379
X146600Y132379
X171600Y132379
X196600Y132379
X221600Y132379
X221600Y162379
X216600Y182379
X206600Y182379
X196600Y182379
X186600Y182379
X176600Y182379
X171600Y162379
X146600Y162379
X121600Y162379
X106600Y182379
X96600Y182379
X86600Y182379
X76600Y182379
X66600Y182379
X56600Y182379
X46600Y182379
X36600Y182379
X46600Y162379
X71600Y162379
X96600Y162379
X121600Y207379
X121600Y217379
X121600Y227379
X121600Y237379
X121600Y247379
X121600Y257379
X121600Y267379
X121600Y277379
X96600Y277379
X76600Y277379
X56600Y277379
X36600Y277379
X36600Y247379
X37600Y232379
X45600Y232379
X57600Y232379
X65600Y232379
X77600Y232379
X85600Y232379
X97600Y232379
X105600Y232379
X96600Y247379
X76600Y247379
X56600Y247379
X56600Y212379
X46600Y212379
X36600Y212379
X66600Y212379
X76600Y212379
X86600Y212379
X96600Y212379
X106600Y212379
X151600Y217379
X151600Y207379
X151600Y227379
X151600Y237379
X151600Y247379
X151600Y257379
X151600Y267379
X151600Y277379
X176600Y277379
X196600Y277379
X216600Y277379
X236600Y277379
X236600Y247379
X237600Y232379
X245600Y232379
X225600Y232379
X217600Y232379
X205600Y232379
X197600Y232379
X185600Y232379
X177600Y232379
X176600Y247379
X196600Y247379
X216600Y247379
X216600Y212379
X206600Y212379
X196600Y212379
X186600Y212379
X176600Y212379
X196600Y162379
X226600Y182379
X236600Y182379
X246600Y182379
X246600Y212379
X236600Y212379
X226600Y212379
T03
X264100Y217379
X264100Y207379
X264100Y197379
X264100Y187379
X264100Y177379
X264100Y227379
X19100Y227379
X19100Y217379
X19100Y207379
X19100Y197379
X19100Y187379
X19100Y177379
T04
X72466Y27300
X92151Y27300
X111836Y27300
X131521Y27300
X151206Y27300
X170891Y27300
X190576Y27300
X210261Y27300
X229946Y27300
T05
X16600Y32379
X16600Y277379
X266600Y277379
X266600Y32379
M30
