<?xml version="1.0" encoding="utf-8"?>
<!-- Generator: Adobe Illustrator 21.0.2, SVG Export Plug-In . SVG Version: 6.00 Build 0)  -->
<svg version="1.1" id="Layer_1" xmlns="http://www.w3.org/2000/svg" xmlns:xlink="http://www.w3.org/1999/xlink" x="0px" y="0px"
	 viewBox="0 0 950 158" style="enable-background:new 0 0 950 158;" xml:space="preserve">
<style type="text/css">
	.st0{fill:none;stroke:#D3D3D3;stroke-width:6;}
	.st1{fill:none;stroke:#D3D3D3;stroke-width:6;stroke-opacity:0;}
	.st2{fill:none;stroke:#555555;stroke-width:6;}
	.st3{fill:none;stroke:#555555;stroke-width:6;stroke-opacity:0;}
	.st4{fill:#FF0000;}
	.st5{fill:#FFA500;}
	.st6{fill:#00FF00;}
	.st7{fill:none;stroke:#B7B7B7;stroke-width:6;}
	.st8{fill:none;stroke:#555555;stroke-width:6;stroke-miterlimit:10;}
</style>
<path class="st8" d="M90.2,80c13.3,13.3,30.8,20,48.3,20"/>
<line class="st8" x1="90.2" y1="80" x2="130.2" y2="120"/>
<path class="st8" d="M41.9,60c18.9,0,35.9,7.6,48.3,20"/>
<path class="st8" d="M98.5,60c-18.9,0-35.9-7.6-48.3-20"/>
<line class="st8" x1="50.2" y1="40" x2="90.2" y2="80"/>
<line class="st8" x1="40.2" y1="60" x2="41.9" y2="60"/>
<line class="st8" x1="98.5" y1="60" x2="100" y2="60"/>
<line class="st8" x1="41.9" y1="60" x2="98.5" y2="60"/>
<path class="st8" d="M1.9,20c18.9,0,35.9,7.6,48.3,20"/>
<line class="st8" x1="0" y1="20" x2="1.9" y2="20"/>
<path class="st8" d="M130.2,120c13.3,13.3,30.8,20,48.3,20"/>
<line class="st8" x1="40.2" y1="60" x2="0" y2="60"/>
<line class="st8" x1="1.9" y1="20" x2="50" y2="20"/>
<line class="st8" x1="179" y1="140" x2="475" y2="140"/>
<line class="st8" x1="139" y1="100" x2="475" y2="100"/>
<line class="st8" x1="100" y1="60" x2="250" y2="60"/>
<line class="st8" x1="50" y1="20" x2="260" y2="20"/>
<line class="st8" x1="250" y1="60" x2="475" y2="60"/>
<line class="st8" x1="260" y1="20" x2="475" y2="20"/>
<line class="st8" x1="138.5" y1="100" x2="139" y2="100"/>
<line class="st8" x1="178.5" y1="140" x2="179" y2="140"/>
<path class="st8" d="M859.8,80c-13.3,13.3-30.8,20-48.3,20"/>
<path class="st8" d="M908.1,60c-18.9,0-35.9,7.6-48.3,20"/>
<path class="st8" d="M851.5,60c18.9,0,35.9-7.6,48.3-20"/>
<line class="st8" x1="899.8" y1="40" x2="859.8" y2="80"/>
<line class="st8" x1="909.8" y1="60" x2="908.1" y2="60"/>
<line class="st8" x1="851.5" y1="60" x2="850" y2="60"/>
<line class="st8" x1="908.1" y1="60" x2="851.5" y2="60"/>
<path class="st8" d="M948.1,20c-18.9,0-35.9,7.6-48.3,20"/>
<line class="st8" x1="950" y1="20" x2="948.1" y2="20"/>
<line class="st8" x1="909.8" y1="60" x2="950" y2="60"/>
<line class="st8" x1="948.1" y1="20" x2="900" y2="20"/>
<line class="st8" x1="811" y1="100" x2="655" y2="100"/>
<line class="st8" x1="850" y1="60" x2="700" y2="60"/>
<line class="st8" x1="900" y1="20" x2="690" y2="20"/>
<line class="st8" x1="700" y1="60" x2="475" y2="60"/>
<line class="st8" x1="690" y1="20" x2="475" y2="20"/>
<line class="st8" x1="811.5" y1="100" x2="811" y2="100"/>
<line class="st8" x1="655" y1="100" x2="475" y2="100"/>
<line class="st8" x1="811" y1="140" x2="655" y2="140"/>
<line class="st8" x1="655" y1="140" x2="475" y2="140"/>
<line class="st8" x1="831" y1="140" x2="811" y2="140"/>
</svg>
