<?xml version="1.0" encoding="utf-8"?>
<!-- Generator: Adobe Illustrator 21.0.2, SVG Export Plug-In . SVG Version: 6.00 Build 0)  -->
<svg version="1.1" id="Layer_1" xmlns="http://www.w3.org/2000/svg" xmlns:xlink="http://www.w3.org/1999/xlink" x="0px" y="0px"
	 viewBox="0 0 950 158" style="enable-background:new 0 0 950 158;" xml:space="preserve">
<style type="text/css">
	.st0{fill:none;stroke:#D3D3D3;stroke-width:6;}
	.st1{fill:none;stroke:#D3D3D3;stroke-width:6;stroke-opacity:0;}
	.st2{fill:none;stroke:#555555;stroke-width:6;}
	.st3{fill:none;stroke:#555555;stroke-width:6;stroke-opacity:0;}
	.st4{fill:#FF0000;}
	.st5{fill:#FFA500;}
	.st6{fill:#00FF00;}
	.st7{fill:none;stroke:#B7B7B7;stroke-width:6;}
	.st8{fill:none;stroke:#555555;stroke-width:6;stroke-miterlimit:10;}
</style>
<line class="st8" x1="0" y1="20" x2="1.9" y2="20"/>
<line class="st8" x1="1.9" y1="20" x2="50" y2="20"/>
<line class="st8" x1="50" y1="20" x2="260" y2="20"/>
<line class="st8" x1="260" y1="20" x2="475" y2="20"/>
<line class="st8" x1="950" y1="20" x2="948.1" y2="20"/>
<line class="st8" x1="948.1" y1="20" x2="900" y2="20"/>
<line class="st8" x1="900" y1="20" x2="690" y2="20"/>
<line class="st8" x1="690" y1="20" x2="475" y2="20"/>
<path class="st8" d="M98.5,100c-18.9,0-35.9-7.6-48.3-20"/>
<line class="st8" x1="98.5" y1="100" x2="100" y2="100"/>
<path class="st8" d="M1.9,60c18.9,0,35.9,7.6,48.3,20"/>
<line class="st8" x1="0" y1="60" x2="1.9" y2="60"/>
<line class="st8" x1="1.9" y1="60" x2="50" y2="60"/>
<line class="st8" x1="100" y1="100" x2="250" y2="100"/>
<line class="st8" x1="50" y1="60" x2="260" y2="60"/>
<line class="st8" x1="250" y1="100" x2="475" y2="100"/>
<line class="st8" x1="260" y1="60" x2="475" y2="60"/>
<path class="st8" d="M851.5,100c18.9,0,35.9-7.6,48.3-20"/>
<line class="st8" x1="851.5" y1="100" x2="850" y2="100"/>
<path class="st8" d="M948.1,60c-18.9,0-35.9,7.6-48.3,20"/>
<line class="st8" x1="950" y1="60" x2="948.1" y2="60"/>
<line class="st8" x1="948.1" y1="60" x2="900" y2="60"/>
<line class="st8" x1="850" y1="100" x2="700" y2="100"/>
<line class="st8" x1="900" y1="60" x2="690" y2="60"/>
<line class="st8" x1="700" y1="100" x2="475" y2="100"/>
<line class="st8" x1="690" y1="60" x2="475" y2="60"/>
</svg>
