<?xml version="1.0" encoding="utf-8"?>
<!-- Generator: Adobe Illustrator 21.0.2, SVG Export Plug-In . SVG Version: 6.00 Build 0)  -->
<svg version="1.1" id="Layer_1" xmlns="http://www.w3.org/2000/svg" xmlns:xlink="http://www.w3.org/1999/xlink" x="0px" y="0px"
	 viewBox="0 0 950 158" style="enable-background:new 0 0 950 158;" xml:space="preserve">
<style type="text/css">
	.st0{fill:none;stroke:#D3D3D3;stroke-width:6;}
	.st1{fill:none;stroke:#D3D3D3;stroke-width:6;stroke-opacity:0;}
	.st2{fill:none;stroke:#555555;stroke-width:6;}
	.st3{fill:none;stroke:#555555;stroke-width:6;stroke-opacity:0;}
	.st4{fill:#FF0000;}
	.st5{fill:#FFA500;}
	.st6{fill:#00FF00;}
	.st7{fill:none;stroke:#B7B7B7;stroke-width:6;}
</style>
<path class="st2" d="M43.3,84.4l0.1,0.1c9.4,9.4,22.1,14.6,35.4,14.6H79"/>
<line class="st2" x1="0" y1="69.6" x2="8.1" y2="69.6"/>
<path class="st2" d="M43.3,84.4l-0.1-0.1C33.8,74.8,21,69.6,7.8,69.6H7.6"/>
<line class="st2" x1="7.6" y1="69.6" x2="43.3" y2="69.6"/>
<g>
	<line class="st2" x1="79" y1="99.1" x2="120.2" y2="99.1"/>
	<line class="st2" x1="119.7" y1="99.1" x2="306.8" y2="99.1"/>
</g>
<line class="st2" x1="306.8" y1="99.1" x2="475" y2="99.1"/>
<path class="st2" d="M870.5,99.1h0.2c13.3,0,26-5.3,35.4-14.6l0.1-0.1"/>
<line class="st2" x1="941.9" y1="69.6" x2="950" y2="69.6"/>
<path class="st2" d="M941.9,69.6h-0.2c-13.3,0-26,5.3-35.4,14.6l-0.1,0.1"/>
<line class="st2" x1="906.2" y1="69.6" x2="941.9" y2="69.6"/>
<g>
	<line class="st2" x1="829.4" y1="99.1" x2="870.5" y2="99.1"/>
	<line class="st2" x1="643.2" y1="99.1" x2="829.9" y2="99.1"/>
</g>
<line class="st2" x1="475" y1="99.1" x2="643.2" y2="99.1"/>
<line class="st2" x1="43.3" y1="69.6" x2="306.8" y2="69.6"/>
<line class="st2" x1="306.8" y1="69.6" x2="475" y2="69.6"/>
<line class="st2" x1="643.2" y1="69.6" x2="906.2" y2="69.6"/>
<line class="st2" x1="475" y1="69.6" x2="643.2" y2="69.6"/>
<line class="st2" x1="0" y1="40" x2="306.8" y2="40"/>
<line class="st2" x1="306.8" y1="40" x2="475" y2="40"/>
<line class="st2" x1="643.2" y1="40" x2="950" y2="40"/>
<line class="st2" x1="475" y1="40" x2="643.2" y2="40"/>
</svg>
