<svg width='1206' height='168' viewBox='0 -40 1206 168'>
<g class="BSw0"><path class="L LSwO SwS0o" nr="35" part="CRail" transform="translate(137.35533905933,34.644660940673) rotate(225)" d="M -0.2,0 h 0.2 a 50,50 0,0,0 35.35533905932737,-14.64466094067262 l 0.14142135623730953,-0.1414213562373095" style="fill:none;stroke:lightgrey;stroke-width:6px;"/>
<line class="L LSwO SwS1o" nr="2" part="RS" transform="translate(102,20) rotate(0)" x1="-0.2" x2="35.56" y2="0" style="fill:none;stroke:lightgrey;stroke-width:6px;opacity:0;"/>
</g><g class="BSw1"><path class="L LSwO SwS0o" nr="33" part="CRail" transform="translate(172.72,20) rotate(0)" d="M -0.2,0 h 0.2 a 50,50 0,0,0 35.35533905932737,-14.64466094067262 l 0.14142135623730953,-0.1414213562373095" style="fill:none;stroke:lightgrey;stroke-width:6px;"/>
<line class="L LSwO SwS1o" nr="4" part="RS" transform="translate(172.72,20) rotate(0)" x1="-0.2" x2="35.56" y2="0" style="fill:none;stroke:lightgrey;stroke-width:6px;opacity:0;"/>
</g><g class="BSw3"><path class="L LSwO SwS0o" nr="32" part="CRail" transform="translate(137.36466094067,34.644639059327) rotate(45)" d="M -0.2,0 h 0.2 a 50,50 0,0,0 35.35533905932737,-14.64466094067262 l 0.14142135623730953,-0.1414213562373095" style="fill:none;stroke:lightgrey;stroke-width:6px;"/>
<line class="L LSwO SwS1o" nr="8" part="RS" transform="translate(137.36,49.2893) rotate(0)" x1="-0.2" x2="35.56" y2="0" style="fill:none;stroke:lightgrey;stroke-width:6px;opacity:0;"/>
</g><g class="BSw2"><path class="L LSwO SwS0o" nr="36" part="CRail" transform="translate(208.07533905933,63.933960940673) rotate(225)" d="M -0.2,0 h 0.2 a 50,50 0,0,0 35.35533905932737,-14.64466094067262 l 0.14142135623730953,-0.1414213562373095" style="fill:none;stroke:lightgrey;stroke-width:6px;"/>
<line class="L LSwO SwS1o" nr="9" part="RS" transform="translate(172.72,49.2893) rotate(0)" x1="-0.2" x2="35.56" y2="0" style="fill:none;stroke:lightgrey;stroke-width:6px;opacity:0;"/>
</g><g class="BSw4"><path class="L LSwO SwS0o" nr="37" part="CRail" transform="translate(208.07533905933,63.933960940673) rotate(45)" d="M -0.2,0 h 0.2 a 50,50 0,0,0 35.35533905932737,-14.64466094067262 l 0.14142135623730953,-0.1414213562373095" style="fill:none;stroke:lightgrey;stroke-width:6px;"/>
<line class="L LSwO SwS1o" nr="56" part="RS" transform="translate(208.07533905933,63.933960940673) rotate(45)" x1="-0.2" x2="42.2" y2="0" style="fill:none;stroke:lightgrey;stroke-width:6px;opacity:0;"/>
</g><g class="BSw6"><path class="L LSwO SwS0o" nr="43" part="CRail" transform="translate(1103.5906781187,19.999978118655) rotate(180)" d="M -0.2,0 h 0.2 a 50,50 0,0,0 35.35533905932737,-14.64466094067262 l 0.14142135623730953,-0.1414213562373095" style="fill:none;stroke:lightgrey;stroke-width:6px;"/>
<line class="L LSwO SwS1o" nr="24" part="RS" transform="translate(1068.24,20) rotate(0)" x1="-0.2" x2="35.56" y2="0" style="fill:none;stroke:lightgrey;stroke-width:6px;opacity:0;"/>
</g><g class="BSw5"><path class="L LSwO SwS0o" nr="42" part="CRail" transform="translate(997.52466094067,5.3553390593274) rotate(45)" d="M -0.2,0 h 0.2 a 50,50 0,0,0 35.35533905932737,-14.64466094067262 l 0.14142135623730953,-0.1414213562373095" style="fill:none;stroke:lightgrey;stroke-width:6px;"/>
<line class="L LSwO SwS1o" nr="22" part="RS" transform="translate(997.52,20) rotate(0)" x1="-0.2" x2="35.56" y2="0" style="fill:none;stroke:lightgrey;stroke-width:6px;opacity:0;"/>
</g><g class="BSw7"><path class="L LSwO SwS0o" nr="41" part="CRail" transform="translate(1032.88,49.2893) rotate(180)" d="M -0.2,0 h 0.2 a 50,50 0,0,0 35.35533905932737,-14.64466094067262 l 0.14142135623730953,-0.1414213562373095" style="fill:none;stroke:lightgrey;stroke-width:6px;"/>
<line class="L LSwO SwS1o" nr="27" part="RS" transform="translate(997.52,49.2893) rotate(0)" x1="-0.2" x2="35.56" y2="0" style="fill:none;stroke:lightgrey;stroke-width:6px;opacity:0;"/>
</g><g class="BSw8"><path class="L LSwO SwS0o" nr="40" part="CRail" transform="translate(1032.88,49.2893) rotate(0)" d="M -0.2,0 h 0.2 a 50,50 0,0,0 35.35533905932737,-14.64466094067262 l 0.14142135623730953,-0.1414213562373095" style="fill:none;stroke:lightgrey;stroke-width:6px;"/>
<line class="L LSwO SwS1o" nr="28" part="RS" transform="translate(1032.88,49.2893) rotate(0)" x1="-0.2" x2="35.56" y2="0" style="fill:none;stroke:lightgrey;stroke-width:6px;opacity:0;"/>
</g><g class="BSw9"><path class="L LSwO SwS0o" nr="44" part="CRail" transform="translate(962.16932188135,78.578621881345) rotate(0)" d="M -0.2,0 h 0.2 a 50,50 0,0,0 35.35533905932737,-14.64466094067262 l 0.14142135623730953,-0.1414213562373095" style="fill:none;stroke:lightgrey;stroke-width:6px;"/>
<line class="L LSwO SwS1o" nr="57" part="RS" transform="translate(967.82617613084,93.632445750508) rotate(315)" x1="-0.2" x2="42.2" y2="0" style="fill:none;stroke:lightgrey;stroke-width:6px;opacity:0;"/>
</g><g class="B0">
<line class="L" nr="0" part="RS" transform="translate(20,20) rotate(0)" x1="-0.2" x2="82.2" y2="0" style="fill:none;stroke:#555;stroke-width:6px;"/>
</g>
<g class="B12">
<line class="L" nr="1" part="RS" transform="translate(20,49.2893) rotate(0)" x1="-0.2" x2="82.2" y2="0" style="fill:none;stroke:#555;stroke-width:6px;"/>
</g>
<g class="B1">
<g class="Sw0 SwGroup">
<line class="L LSw SwS0" nr="2" part="RS" transform="translate(102,20) rotate(0)" x1="-0.2" x2="35.56" y2="0" style="fill:none;stroke:#555;stroke-width:6px;"/>
<path class="L LSw SwS1" nr="35" part="CRail" transform="translate(137.35533905933,34.644660940673) rotate(225)" d="M -0.2,0 h 0.2 a 50,50 0,0,0 35.35533905932737,-14.64466094067262 l 0.14142135623730953,-0.1414213562373095" style="fill:none;stroke:#555;stroke-width:6px;opacity:0;"/>
</g>
<g class="Sw1 SwGroup">
<line class="L LSw SwS0" nr="4" part="RS" transform="translate(172.72,20) rotate(0)" x1="-0.2" x2="35.56" y2="0" style="fill:none;stroke:#555;stroke-width:6px;"/>
<path class="L LSw SwS1" nr="33" part="CRail" transform="translate(172.72,20) rotate(0)" d="M -0.2,0 h 0.2 a 50,50 0,0,0 35.35533905932737,-14.64466094067262 l 0.14142135623730953,-0.1414213562373095" style="fill:none;stroke:#555;stroke-width:6px;opacity:0;"/>
</g>
<line class="L" nr="3" part="RS" transform="translate(137.36,20) rotate(0)" x1="-0.2" x2="35.56" y2="0" style="fill:none;stroke:#555;stroke-width:6px;"/>
<line class="L" nr="5" part="RS" transform="translate(208.08,20) rotate(0)" x1="-0.2" x2="35.56" y2="0" style="fill:none;stroke:#555;stroke-width:6px;"/>
<path class="L" nr="34" part="CRail" transform="translate(243.43067811865,-9.2893218813452) rotate(180)" d="M -0.2,0 h 0.2 a 50,50 0,0,0 35.35533905932737,-14.64466094067262 l 0.14142135623730953,-0.1414213562373095" style="fill:none;stroke:#555;stroke-width:6px;"/>
</g>
<g class="B6">
<line class="L" nr="6" part="RS" transform="translate(243.44,20) rotate(0)" x1="-0.2" x2="35.56" y2="0" style="fill:none;stroke:#555;stroke-width:6px;"/>
<line class="L" nr="12" part="RS" transform="translate(278.8,20) rotate(0)" x1="-0.2" x2="162.2" y2="0" style="fill:none;stroke:#555;stroke-width:6px;"/>
</g>
<g class="B13">
<g class="Sw3 SwGroup">
<line class="L LSw SwS0" nr="8" part="RS" transform="translate(137.36,49.2893) rotate(0)" x1="-0.2" x2="35.56" y2="0" style="fill:none;stroke:#555;stroke-width:6px;"/>
<path class="L LSw SwS1" nr="32" part="CRail" transform="translate(137.36466094067,34.644639059327) rotate(45)" d="M -0.2,0 h 0.2 a 50,50 0,0,0 35.35533905932737,-14.64466094067262 l 0.14142135623730953,-0.1414213562373095" style="fill:none;stroke:#555;stroke-width:6px;opacity:0;"/>
</g>
<g class="Sw2 SwGroup">
<line class="L LSw SwS0" nr="9" part="RS" transform="translate(172.72,49.2893) rotate(0)" x1="-0.2" x2="35.56" y2="0" style="fill:none;stroke:#555;stroke-width:6px;"/>
<path class="L LSw SwS1" nr="36" part="CRail" transform="translate(208.07533905933,63.933960940673) rotate(225)" d="M -0.2,0 h 0.2 a 50,50 0,0,0 35.35533905932737,-14.64466094067262 l 0.14142135623730953,-0.1414213562373095" style="fill:none;stroke:#555;stroke-width:6px;opacity:0;"/>
</g>
<g class="Sw4 SwGroup">
<line class="L LSw SwS0" nr="56" part="RS" transform="translate(208.07533905933,63.933960940673) rotate(45)" x1="-0.2" x2="42.2" y2="0" style="fill:none;stroke:#555;stroke-width:6px;"/>
<path class="L LSw SwS1" nr="37" part="CRail" transform="translate(208.07533905933,63.933960940673) rotate(45)" d="M -0.2,0 h 0.2 a 50,50 0,0,0 35.35533905932737,-14.64466094067262 l 0.14142135623730953,-0.1414213562373095" style="fill:none;stroke:#555;stroke-width:6px;opacity:0;"/>
</g>
<line class="L" nr="7" part="RS" transform="translate(102,49.2893) rotate(0)" x1="-0.2" x2="35.56" y2="0" style="fill:none;stroke:#555;stroke-width:6px;"/>
<line class="L" nr="10" part="RS" transform="translate(208.08,49.2893) rotate(0)" x1="-0.2" x2="35.56" y2="0" style="fill:none;stroke:#555;stroke-width:6px;"/>
</g>
<g class="B14">
<line class="L" nr="11" part="RS" transform="translate(243.44,49.2893) rotate(0)" x1="-0.2" x2="35.56" y2="0" style="fill:none;stroke:#555;stroke-width:6px;"/>
<line class="L" nr="13" part="RS" transform="translate(278.8,49.2893) rotate(0)" x1="-0.2" x2="162.2" y2="0" style="fill:none;stroke:#555;stroke-width:6px;"/>
</g>
<g class="B7">
<line class="L" nr="14" part="RS" transform="translate(440.8,20) rotate(0)" x1="-0.2" x2="162.2" y2="0" style="fill:none;stroke:#555;stroke-width:6px;"/>
</g>
<g class="B15">
<line class="L" nr="15" part="RS" transform="translate(440.8,49.2893) rotate(0)" x1="-0.2" x2="162.2" y2="0" style="fill:none;stroke:#555;stroke-width:6px;"/>
</g>
<g class="B8">
<line class="L" nr="16" part="RS" transform="translate(602.8,20) rotate(0)" x1="-0.2" x2="162.2" y2="0" style="fill:none;stroke:#555;stroke-width:6px;"/>
</g>
<g class="B16">
<line class="L" nr="17" part="RS" transform="translate(602.8,49.2893) rotate(0)" x1="-0.2" x2="162.2" y2="0" style="fill:none;stroke:#555;stroke-width:6px;"/>
</g>
<g class="B9">
<line class="L" nr="18" part="RS" transform="translate(764.8,20) rotate(0)" x1="-0.2" x2="162.2" y2="0" style="fill:none;stroke:#555;stroke-width:6px;"/>
<line class="L" nr="20" part="RS" transform="translate(926.8,20) rotate(0)" x1="-0.2" x2="35.56" y2="0" style="fill:none;stroke:#555;stroke-width:6px;"/>
</g>
<g class="B17">
<line class="L" nr="19" part="RS" transform="translate(764.8,49.2893) rotate(0)" x1="-0.2" x2="162.2" y2="0" style="fill:none;stroke:#555;stroke-width:6px;"/>
<line class="L" nr="25" part="RS" transform="translate(926.8,49.2893) rotate(0)" x1="-0.2" x2="35.56" y2="0" style="fill:none;stroke:#555;stroke-width:6px;"/>
</g>
<g class="B10">
<g class="Sw6 SwGroup">
<line class="L LSw SwS0" nr="24" part="RS" transform="translate(1068.24,20) rotate(0)" x1="-0.2" x2="35.56" y2="0" style="fill:none;stroke:#555;stroke-width:6px;"/>
<path class="L LSw SwS1" nr="43" part="CRail" transform="translate(1103.5906781187,19.999978118655) rotate(180)" d="M -0.2,0 h 0.2 a 50,50 0,0,0 35.35533905932737,-14.64466094067262 l 0.14142135623730953,-0.1414213562373095" style="fill:none;stroke:#555;stroke-width:6px;opacity:0;"/>
</g>
<g class="Sw5 SwGroup">
<line class="L LSw SwS0" nr="22" part="RS" transform="translate(997.52,20) rotate(0)" x1="-0.2" x2="35.56" y2="0" style="fill:none;stroke:#555;stroke-width:6px;"/>
<path class="L LSw SwS1" nr="42" part="CRail" transform="translate(997.52466094067,5.3553390593274) rotate(45)" d="M -0.2,0 h 0.2 a 50,50 0,0,0 35.35533905932737,-14.64466094067262 l 0.14142135623730953,-0.1414213562373095" style="fill:none;stroke:#555;stroke-width:6px;opacity:0;"/>
</g>
<line class="L" nr="21" part="RS" transform="translate(962.16,20) rotate(0)" x1="-0.2" x2="35.56" y2="0" style="fill:none;stroke:#555;stroke-width:6px;"/>
<line class="L" nr="23" part="RS" transform="translate(1032.88,20) rotate(0)" x1="-0.2" x2="35.56" y2="0" style="fill:none;stroke:#555;stroke-width:6px;"/>
<path class="L" nr="45" part="CRail" transform="translate(997.52466094067,5.3553390593274) rotate(225)" d="M -0.2,0 h 0.2 a 50,50 0,0,0 35.35533905932737,-14.64466094067262 l 0.14142135623730953,-0.1414213562373095" style="fill:none;stroke:#555;stroke-width:6px;"/>
</g>
<g class="B26">
<g class="Sw7 SwGroup">
<line class="L LSw SwS0" nr="27" part="RS" transform="translate(997.52,49.2893) rotate(0)" x1="-0.2" x2="35.56" y2="0" style="fill:none;stroke:#555;stroke-width:6px;"/>
<path class="L LSw SwS1" nr="41" part="CRail" transform="translate(1032.88,49.2893) rotate(180)" d="M -0.2,0 h 0.2 a 50,50 0,0,0 35.35533905932737,-14.64466094067262 l 0.14142135623730953,-0.1414213562373095" style="fill:none;stroke:#555;stroke-width:6px;opacity:0;"/>
</g>
<g class="Sw8 SwGroup">
<line class="L LSw SwS0" nr="28" part="RS" transform="translate(1032.88,49.2893) rotate(0)" x1="-0.2" x2="35.56" y2="0" style="fill:none;stroke:#555;stroke-width:6px;"/>
<path class="L LSw SwS1" nr="40" part="CRail" transform="translate(1032.88,49.2893) rotate(0)" d="M -0.2,0 h 0.2 a 50,50 0,0,0 35.35533905932737,-14.64466094067262 l 0.14142135623730953,-0.1414213562373095" style="fill:none;stroke:#555;stroke-width:6px;opacity:0;"/>
</g>
<g class="Sw9 SwGroup">
<line class="L LSw SwS0" nr="57" part="RS" transform="translate(967.82617613084,93.632445750508) rotate(315)" x1="-0.2" x2="42.2" y2="0" style="fill:none;stroke:#555;stroke-width:6px;"/>
<path class="L LSw SwS1" nr="44" part="CRail" transform="translate(962.16932188135,78.578621881345) rotate(0)" d="M -0.2,0 h 0.2 a 50,50 0,0,0 35.35533905932737,-14.64466094067262 l 0.14142135623730953,-0.1414213562373095" style="fill:none;stroke:#555;stroke-width:6px;opacity:0;"/>
</g>
<line class="L" nr="26" part="RS" transform="translate(962.16,49.2893) rotate(0)" x1="-0.2" x2="35.56" y2="0" style="fill:none;stroke:#555;stroke-width:6px;"/>
<line class="L" nr="29" part="RS" transform="translate(1068.24,49.2893) rotate(0)" x1="-0.2" x2="35.56" y2="0" style="fill:none;stroke:#555;stroke-width:6px;"/>
</g>
<g class="B11">
<line class="L" nr="30" part="RS" transform="translate(1103.6,20) rotate(0)" x1="-0.2" x2="82.2" y2="0" style="fill:none;stroke:#555;stroke-width:6px;"/>
</g>
<g class="B27">
<line class="L" nr="31" part="RS" transform="translate(1103.6,49.2893) rotate(0)" x1="-0.2" x2="82.2" y2="0" style="fill:none;stroke:#555;stroke-width:6px;"/>
</g>
<g class="B2">
<line class="L" nr="38" part="RS" transform="translate(243.43067811865,-9.2893218813452) rotate(0)" x1="-0.2" x2="35.56" y2="0" style="fill:none;stroke:#555;stroke-width:6px;"/>
<line class="L" nr="48" part="RS" transform="translate(278.79067811865,-9.2893218813452) rotate(0)" x1="-0.2" x2="162.2" y2="0" style="fill:none;stroke:#555;stroke-width:6px;"/>
</g>
<g class="B18">
<line class="L" nr="39" part="RS" transform="translate(243.43067811865,78.578621881345) rotate(0)" x1="-0.2" x2="35.56" y2="0" style="fill:none;stroke:#555;stroke-width:6px;"/>
<line class="L" nr="52" part="RS" transform="translate(278.79067811865,78.578621881345) rotate(0)" x1="-0.2" x2="162.2" y2="0" style="fill:none;stroke:#555;stroke-width:6px;"/>
</g>
<g class="B5">
<line class="L" nr="46" part="RS" transform="translate(926.80932188135,-9.2893218813452) rotate(0)" x1="-0.2" x2="35.56" y2="0" style="fill:none;stroke:#555;stroke-width:6px;"/>
<line class="L" nr="51" part="RS" transform="translate(764.80932188135,-9.2893218813452) rotate(0)" x1="-0.2" x2="162.2" y2="0" style="fill:none;stroke:#555;stroke-width:6px;"/>
</g>
<g class="B21">
<line class="L" nr="47" part="RS" transform="translate(926.80932188135,78.578621881345) rotate(0)" x1="-0.2" x2="35.56" y2="0" style="fill:none;stroke:#555;stroke-width:6px;"/>
<line class="L" nr="55" part="RS" transform="translate(764.80932188135,78.578621881345) rotate(0)" x1="-0.2" x2="162.2" y2="0" style="fill:none;stroke:#555;stroke-width:6px;"/>
</g>
<g class="B3">
<line class="L" nr="49" part="RS" transform="translate(440.79067811865,-9.2893218813452) rotate(0)" x1="-0.2" x2="162.2" y2="0" style="fill:none;stroke:#555;stroke-width:6px;"/>
</g>
<g class="B4">
<line class="L" nr="50" part="RS" transform="translate(602.79067811865,-9.2893218813452) rotate(0)" x1="-0.2" x2="162.2" y2="0" style="fill:none;stroke:#555;stroke-width:6px;"/>
</g>
<g class="B19">
<line class="L" nr="53" part="RS" transform="translate(440.79067811865,78.578621881345) rotate(0)" x1="-0.2" x2="162.2" y2="0" style="fill:none;stroke:#555;stroke-width:6px;"/>
</g>
<g class="B20">
<line class="L" nr="54" part="RS" transform="translate(602.79067811865,78.578621881345) rotate(0)" x1="-0.2" x2="162.2" y2="0" style="fill:none;stroke:#555;stroke-width:6px;"/>
</g>
<g class="B22">
<line class="L" nr="58" part="RS" transform="translate(278.78135623731,107.86794376269) rotate(0)" x1="-0.2" x2="162.2" y2="0" style="fill:none;stroke:#555;stroke-width:6px;"/>
<path class="L" nr="62" part="CRail" transform="translate(278.78135623731,107.86794376269) rotate(0)" d="M 0,0 l -6.639999999995325,0 a 48.603030380332314,48.603030380332314 0,0,1 -34.367532368151615,-14.235498012182859" style="fill:none;stroke:#555;stroke-width:6px;"/>
</g>
<g class="B23">
<line class="L" nr="59" part="RS" transform="translate(440.78135623731,107.86794376269) rotate(0)" x1="-0.2" x2="162.2" y2="0" style="fill:none;stroke:#555;stroke-width:6px;"/>
</g>
<g class="B24">
<line class="L" nr="60" part="RS" transform="translate(602.78135623731,107.86794376269) rotate(0)" x1="-0.2" x2="162.2" y2="0" style="fill:none;stroke:#555;stroke-width:6px;"/>
</g>
<g class="B25">
<line class="L" nr="61" part="RS" transform="translate(764.78135623731,107.86794376269) rotate(0)" x1="-0.2" x2="162.2" y2="0" style="fill:none;stroke:#555;stroke-width:6px;"/>
<path class="L" nr="63" part="CRail" transform="translate(926.78135623731,107.86794376269) rotate(0)" d="M 0,0 l 6.677287525343672,0 a 48.60303038037068,48.60303038037068 0,0,0 34.36753236818436,-14.235498012182859" style="fill:none;stroke:#555;stroke-width:6px;"/>
</g>
<g class='Signals'>
<g transform="translate(278.78135623731,107.86794376269) rotate(-90)" class="Sig0"><path d="M 15,5 v 10 a 5,5 0,0,1 -10,0 v -10 a 5,5 0,0,1 10,0" style="stroke-width:0px;stroke:black;fill:black;"/><circle cx="10" cy=" 5" r="2" style="stroke-width:0px;fill:red"/><circle cx="10" cy="10" r="2" style="stroke-width:0px;fill:orange"/><circle cx="10" cy="15" r="2" style="stroke-width:0px;fill:lime"/></g>
<g transform="translate(278.79067811865,78.578621881345) rotate(-90)" class="Sig1"><path d="M 15,5 v 10 a 5,5 0,0,1 -10,0 v -10 a 5,5 0,0,1 10,0" style="stroke-width:0px;stroke:black;fill:black;"/><circle cx="10" cy=" 5" r="2" style="stroke-width:0px;fill:red"/><circle cx="10" cy="10" r="2" style="stroke-width:0px;fill:orange"/><circle cx="10" cy="15" r="2" style="stroke-width:0px;fill:lime"/></g>
<g transform="translate(278.8,49.2893) rotate(-90)" class="Sig2"><path d="M 15,5 v 10 a 5,5 0,0,1 -10,0 v -10 a 5,5 0,0,1 10,0" style="stroke-width:0px;stroke:black;fill:black;"/><circle cx="10" cy=" 5" r="2" style="stroke-width:0px;fill:red"/><circle cx="10" cy="10" r="2" style="stroke-width:0px;fill:orange"/><circle cx="10" cy="15" r="2" style="stroke-width:0px;fill:lime"/></g>
<g transform="translate(278.8,20) rotate(-90)" class="Sig3"><path d="M 15,5 v 10 a 5,5 0,0,1 -10,0 v -10 a 5,5 0,0,1 10,0" style="stroke-width:0px;stroke:black;fill:black;"/><circle cx="10" cy=" 5" r="2" style="stroke-width:0px;fill:red"/><circle cx="10" cy="10" r="2" style="stroke-width:0px;fill:orange"/><circle cx="10" cy="15" r="2" style="stroke-width:0px;fill:lime"/></g>
<g transform="translate(278.79067811865,-9.2893218813452) rotate(-90)" class="Sig4"><path d="M 15,5 v 10 a 5,5 0,0,1 -10,0 v -10 a 5,5 0,0,1 10,0" style="stroke-width:0px;stroke:black;fill:black;"/><circle cx="10" cy=" 5" r="2" style="stroke-width:0px;fill:red"/><circle cx="10" cy="10" r="2" style="stroke-width:0px;fill:orange"/><circle cx="10" cy="15" r="2" style="stroke-width:0px;fill:lime"/></g>
<g transform="translate(926.78135623731,107.86794376269) rotate(-270)" class="Sig5"><path d="M 15,5 v 10 a 5,5 0,0,1 -10,0 v -10 a 5,5 0,0,1 10,0" style="stroke-width:0px;stroke:black;fill:black;"/><circle cx="10" cy=" 5" r="2" style="stroke-width:0px;fill:red"/><circle cx="10" cy="10" r="2" style="stroke-width:0px;fill:orange"/><circle cx="10" cy="15" r="2" style="stroke-width:0px;fill:lime"/></g>
<g transform="translate(926.80932188135,78.578621881345) rotate(90)" class="Sig6"><path d="M 15,5 v 10 a 5,5 0,0,1 -10,0 v -10 a 5,5 0,0,1 10,0" style="stroke-width:0px;stroke:black;fill:black;"/><circle cx="10" cy=" 5" r="2" style="stroke-width:0px;fill:red"/><circle cx="10" cy="10" r="2" style="stroke-width:0px;fill:orange"/><circle cx="10" cy="15" r="2" style="stroke-width:0px;fill:lime"/></g>
<g transform="translate(926.8,49.2893) rotate(-270)" class="Sig7"><path d="M 15,5 v 10 a 5,5 0,0,1 -10,0 v -10 a 5,5 0,0,1 10,0" style="stroke-width:0px;stroke:black;fill:black;"/><circle cx="10" cy=" 5" r="2" style="stroke-width:0px;fill:red"/><circle cx="10" cy="10" r="2" style="stroke-width:0px;fill:orange"/><circle cx="10" cy="15" r="2" style="stroke-width:0px;fill:lime"/></g>
</g>
</svg>
