<svg width='361' height='391' viewBox='-262 -22 361 391'>
<g class="B4">
<path class="L" nr="0" part="CRail" transform="translate(-135.90537029047,72.125440246614) rotate(202)" d="M -0.2,0 h 0.2 a 300,300 0,0,0 114.80502970952693,-22.83614024661398 l 0.18477590650225736,-0.07653668647301796" style="fill:none;stroke:#555;stroke-width:6px;"/>
</g>
<g class="B5">
<path class="L" nr="1" part="CRail" transform="translate(-38.578365644036,137.15726564404) rotate(225)" d="M -0.2,0 h 0.2 a 300,300 0,0,0 114.80502970952693,-22.83614024661398 l 0.18477590650225736,-0.07653668647301796" style="fill:none;stroke:#555;stroke-width:6px;"/>
</g>
<g class="B6">
<path class="L" nr="2" part="CRail" transform="translate(26.453459753386,234.48427029047) rotate(247)" d="M -0.2,0 h 0.2 a 300,300 0,0,0 114.80502970952693,-22.83614024661398 l 0.18477590650225736,-0.07653668647301796" style="fill:none;stroke:#555;stroke-width:6px;"/>
</g>
<g class="B7">
<path class="L" nr="3" part="CRail" transform="translate(49.2896,349.2893) rotate(270)" d="M -0.2,0 h 0.2 a 300,300 0,0,0 114.80502970952693,-22.83614024661398 l 0.18477590650225736,-0.07653668647301796" style="fill:none;stroke:#555;stroke-width:6px;"/>
</g>
<g class="B0">
<path class="L" nr="4" part="CRail" transform="translate(-124.69695523993,45.065632618891) rotate(202)" d="M -0.2,0 h 0.2 a 329.289,329.289 0,0,0 126.01344476006804,-25.0656326188909 l 0.18477590650225736,-0.07653668647301796" style="fill:none;stroke:#555;stroke-width:6px;"/>
</g>
<g class="B1">
<path class="L" nr="5" part="CRail" transform="translate(-17.867915129863,116.44651512986) rotate(225)" d="M -0.2,0 h 0.2 a 329.289,329.289 0,0,0 126.01344476006804,-25.0656326188909 l 0.18477590650225736,-0.07653668647301796" style="fill:none;stroke:#555;stroke-width:6px;"/>
</g>
<g class="B2">
<path class="L" nr="6" part="CRail" transform="translate(53.512967381109,223.27555523993) rotate(247)" d="M -0.2,0 h 0.2 a 329.289,329.289 0,0,0 126.01344476006804,-25.0656326188909 l 0.18477590650225736,-0.07653668647301796" style="fill:none;stroke:#555;stroke-width:6px;"/>
</g>
<g class="B3">
<path class="L" nr="7" part="CRail" transform="translate(78.5786,349.289) rotate(270)" d="M -0.2,0 h 0.2 a 329.289,329.289 0,0,0 126.01344476006804,-25.0656326188909 l 0.18477590650225736,-0.07653668647301796" style="fill:none;stroke:#555;stroke-width:6px;"/>
</g>
<g class='Signals'>
</g>
</svg>
