<?xml version="1.0" encoding="utf-8"?>
<svg version="1.1" xmlns="http://www.w3.org/2000/svg" xmlns:xlink="http://www.w3.org/1999/xlink" width='273' height='75' viewBox='0 -20 273 75'>
<g class="BSw0">
	<path class="L LSwO SwS0o" nr="3" part="CRail" transform="translate(217.35533905933,20) rotate(180)" d="M -0.2,0 h 0.2 a 25,25 0,0,0 17.677669529663685,-7.32233047033631 l 0.14142135623730953,-0.1414213562373095" style="fill:none;stroke:lightgrey;stroke-width:6px;opacity:0"/>
	<path class="L LSwO SwS0o" nr="2" part="CRail" transform="translate(182,34.644660940673) rotate(0)" d="M -0.2,0 h 0.2 a 25,25 0,0,0 17.677669529663685,-7.32233047033631 l 0.14142135623730953,-0.1414213562373095" style="fill:none;stroke:lightgrey;stroke-width:6px;opacity:0"/>

	<path class="L LSwO SwS1o" nr="5" part="CRail" transform="translate(199.67766952966,12.677669529664) rotate(45)" d="M -0.2,0 h 0.2 a 25,25 0,0,0 17.677669529663685,-7.32233047033631 l 0.14142135623730953,-0.1414213562373095" style="fill:none;stroke:lightgrey;stroke-width:6px;opacity:1;"/>
	<path class="L LSwO SwS1o" nr="6" part="CRail" transform="translate(199.67766952966,12.677691411009) rotate(225)" d="M -0.2,0 h 0.2 a 25,25 0,0,0 17.677669529663685,-7.32233047033631 l 0.14142135623730953,-0.1414213562373095" style="fill:none;stroke:lightgrey;stroke-width:6px;opacity:1;"/>
</g>
<g class="B0">
	<line class="L" nr="0" part="RS" transform="translate(20,5.3553609406725) rotate(0)" x1="-0.2" x2="162.2" y2="0" style="fill:none;stroke:#555;stroke-width:6px;"/>
</g>
<g class="B1">
	<line class="L" nr="1" part="RS" transform="translate(20,34.644660940673) rotate(0)" x1="-0.2" x2="162.2" y2="0" style="fill:none;stroke:#555;stroke-width:6px;"/>
</g>
<g class="B2">
	<g class="Sw0 SwGroup">
		<path class="L LSw SwS0" nr="5" part="CRail" transform="translate(199.67766952966,12.677669529664) rotate(45)" d="M -0.2,0 h 0.2 a 25,25 0,0,0 17.677669529663685,-7.32233047033631 l 0.14142135623730953,-0.1414213562373095" style="fill:none;stroke:#555;stroke-width:6px;opacity:0"/>
		<path class="L LSw SwS0" nr="6" part="CRail" transform="translate(199.67766952966,12.677691411009) rotate(225)" d="M -0.2,0 h 0.2 a 25,25 0,0,0 17.677669529663685,-7.32233047033631 l 0.14142135623730953,-0.1414213562373095" style="fill:none;stroke:#555;stroke-width:6px;opacity:0"/>
		
		<path class="L LSw SwS1" nr="3" part="CRail" transform="translate(217.35533905933,20) rotate(180)" d="M -0.2,0 h 0.2 a 25,25 0,0,0 17.677669529663685,-7.32233047033631 l 0.14142135623730953,-0.1414213562373095" style="fill:none;stroke:#555;stroke-width:6px;opacity:1;"/>
		<path class="L LSw SwS1" nr="2" part="CRail" transform="translate(182,34.644660940673) rotate(0)" d="M -0.2,0 h 0.2 a 25,25 0,0,0 17.677669529663685,-7.32233047033631 l 0.14142135623730953,-0.1414213562373095" style="fill:none;stroke:#555;stroke-width:6px;opacity:1"/>
	</g>
	<line class="L" nr="4" part="RS" transform="translate(217.35533905933,20) rotate(0)" x1="-0.2" x2="35.56" y2="0" style="fill:none;stroke:#555;stroke-width:6px;"/>
</g>
</svg>
