<svg xmlns="http://www.w3.org/2000/svg" xmlns:xlink="http://www.w3.org/1999/xlink" viewBox="0 0 601.71 295.18"><defs><style>.cls-1,.cls-4,.cls-5,.cls-55,.cls-6,.cls-70,.cls-76{fill:none;}.cls-11,.cls-2,.cls-21{fill:#f7f7f7;}.cls-2,.cls-76{stroke:#cccccb;}.cls-11,.cls-2,.cls-21,.cls-3,.cls-4,.cls-5,.cls-55,.cls-6,.cls-70,.cls-76,.cls-82{stroke-linecap:round;stroke-width:2px;}.cls-11,.cls-2,.cls-21,.cls-82{stroke-linejoin:round;}.cls-2{opacity:0.7;}.cls-3,.cls-82{fill:#dc2126;stroke:#b03b3b;}.cls-3{stroke-linejoin:bevel;}.cls-4{stroke:#a11d21;}.cls-4,.cls-5,.cls-55,.cls-6,.cls-61,.cls-62,.cls-63,.cls-70{stroke-miterlimit:10;}.cls-5{stroke:#faa41a;}.cls-6{stroke:#90c73e;}.cls-7{fill:#a0622b;}.cls-8{fill:#8d5022;}.cls-9{fill:#82939a;}.cls-10{fill:#687b80;}.cls-11,.cls-21{stroke:#e2e2e2;}.cls-11{opacity:0.95;}.cls-12{fill:#e1e5e8;}.cls-13{fill:#657989;}.cls-14{fill:#fad364;}.cls-15{fill:#4fbf9f;}.cls-16{fill:#2aa1db;}.cls-17{fill:#e66455;}.cls-18{fill:#324959;}.cls-19,.cls-49,.cls-50,.cls-53,.cls-56,.cls-58,.cls-64,.cls-72,.cls-80{font-size:9px;}.cls-19,.cls-69,.cls-79,.cls-80{fill:#7f7f7f;}.cls-19,.cls-49,.cls-50,.cls-53,.cls-56,.cls-58,.cls-64,.cls-69,.cls-72,.cls-79,.cls-80{font-family:MyriadPro-Regular, Myriad Pro;}.cls-20{letter-spacing:0.01em;}.cls-22{fill:#78973c;}.cls-23{fill:#5f7232;}.cls-24{fill:#77963c;}.cls-25{fill:#e21e27;}.cls-26{fill:#a51d2e;}.cls-27{fill:#e11f2a;}.cls-28{fill:#df1f29;}.cls-29{fill:#cd202d;}.cls-30{fill:#cf202d;}.cls-31{fill:#637633;}.cls-32{fill:#ee2c51;}.cls-33{fill:#ed1b33;}.cls-34{letter-spacing:0.01em;}.cls-35{letter-spacing:0em;}.cls-36{letter-spacing:0em;}.cls-37{letter-spacing:0.03em;}.cls-38{letter-spacing:-0.02em;}.cls-39{fill:#28a2db;}.cls-40{fill:#e1e6e9;}.cls-41{fill:#ecf0f3;}.cls-42{fill:#647a8a;}.cls-43{fill:#d5d6dc;}.cls-44{fill:#3da69b;}.cls-45{letter-spacing:-0.03em;}.cls-46{letter-spacing:0em;}.cls-47{fill:#6e7072;}.cls-48,.cls-49{fill:#faa41a;}.cls-50,.cls-54{fill:#90c73e;}.cls-51{letter-spacing:-0.01em;}.cls-52,.cls-53{fill:#a11d21;}.cls-55{stroke:#000;}.cls-56{fill:#231f20;}.cls-57{letter-spacing:-0.02em;}.cls-58{fill:#fff;}.cls-59{letter-spacing:0em;}.cls-60{fill:#010101;stroke:#010101;}.cls-61{fill:#ed2224;stroke:#ed2224;}.cls-62{fill:#f6eb16;stroke:#f6eb16;}.cls-63{fill:#6abd45;stroke:#6abd45;}.cls-64{fill:#a09f9f;}.cls-65{letter-spacing:0em;}.cls-66{fill:#c4c2b7;}.cls-67{clip-path:url(#clip-path);}.cls-68{fill:#1a1a1a;}.cls-69{font-size:8px;}.cls-70{stroke:#38419a;}.cls-71{fill:#38419a;}.cls-72{fill:#384399;}.cls-73{letter-spacing:-0.03em;}.cls-74{letter-spacing:0.01em;}.cls-75{clip-path:url(#clip-path-2);}.cls-77{fill:#cccccb;}.cls-78{letter-spacing:0.01em;}.cls-79{font-size:6px;}.cls-80{letter-spacing:0.01em;}.cls-81{letter-spacing:0em;}.cls-83{letter-spacing:-0.02em;}.cls-84{letter-spacing:0.02em;}</style><clipPath id="clip-path"><rect class="cls-1" x="271.3" y="107.09" width="28.35" height="28.43" transform="translate(-2.16 237.39) rotate(-45)"/></clipPath><clipPath id="clip-path-2"><rect class="cls-1" x="369.92" y="123.59" width="28.35" height="28.43" transform="translate(15.06 311.96) rotate(-45)"/></clipPath></defs><title>devices</title><g id="Layer_2" data-name="Layer 2"><g id="Layer_1-2" data-name="Layer 1"><rect class="cls-2" x="370.23" y="183.99" width="70.36" height="15.07"/><rect class="cls-2" x="352.25" y="91.61" width="205.67" height="92.37"/><polyline class="cls-3" points="432.72 74.47 291.14 74.47 291.14 91.61 285.44 97.53 279.77 91.61 279.77 63.13 600.71 63.13 600.71 74.47 432.72 74.47"/><line class="cls-4" x1="74.98" y1="160.34" x2="58.48" y2="176.84"/><line class="cls-5" x1="74.98" y1="110.86" x2="49.79" y2="85.67"/><line class="cls-6" x1="74.98" y1="135.6" x2="25.04" y2="85.67"/><rect class="cls-7" x="257.13" y="234.05" width="56.69" height="13.72"/><rect class="cls-7" x="257.13" y="213.67" width="56.69" height="13.72"/><rect class="cls-7" x="257.13" y="193.29" width="56.69" height="13.72"/><rect class="cls-8" x="303.63" y="234.05" width="5.09" height="13.72"/><rect class="cls-8" x="303.63" y="213.67" width="5.09" height="13.72"/><rect class="cls-8" x="303.63" y="193.29" width="5.09" height="13.72"/><rect class="cls-8" x="267.43" y="234.05" width="5.09" height="13.72"/><rect class="cls-8" x="267.43" y="213.67" width="5.09" height="13.72"/><rect class="cls-8" x="267.43" y="193.29" width="5.09" height="13.72"/><rect class="cls-7" x="257.13" y="274.8" width="56.69" height="13.72"/><rect class="cls-7" x="257.13" y="254.42" width="56.69" height="13.72"/><rect class="cls-8" x="303.63" y="274.8" width="5.09" height="13.72"/><rect class="cls-8" x="303.63" y="254.42" width="5.09" height="13.72"/><rect class="cls-8" x="267.43" y="274.8" width="5.09" height="13.72"/><rect class="cls-8" x="267.43" y="254.42" width="5.09" height="13.72"/><rect class="cls-9" x="301.11" y="187.57" width="5.04" height="107.61"/><rect class="cls-9" x="264.79" y="187.57" width="5.04" height="107.61"/><rect class="cls-10" x="301.11" y="187.57" width="2.52" height="107.61"/><rect class="cls-10" x="264.79" y="187.57" width="2.52" height="107.61"/><rect class="cls-11" x="1" y="91.61" width="68.03" height="79.37"/><path class="cls-12" d="M63.36,136v12.85H6.67V136a2.27,2.27,0,0,1,2.27-2.27H61.09A2.27,2.27,0,0,1,63.36,136Z"/><path class="cls-13" d="M56.67,140.42v8.45H13.35v-8.45a1.51,1.51,0,0,1,1.51-1.51h40.3A1.51,1.51,0,0,1,56.67,140.42Z"/><circle class="cls-14" cx="19.84" cy="143.89" r="2.65"/><circle class="cls-15" cx="26.64" cy="143.89" r="1.89"/><circle class="cls-16" cx="32.69" cy="143.89" r="1.89"/><circle class="cls-17" cx="19.84" cy="143.89" r="1.13"/><path class="cls-13" d="M14.95,114.42l-1.51,19.33H18l-1.51-19.33A.76.76,0,0,0,14.95,114.42Z"/><path class="cls-13" d="M53.58,114.42l-1.51,19.33H56.6l-1.51-19.33A.76.76,0,0,0,53.58,114.42Z"/><path class="cls-18" d="M47.14,118.92a17.78,17.78,0,0,0-25.12,0,1.13,1.13,0,0,0,1.6,1.6,15.52,15.52,0,0,1,21.92,0,1.13,1.13,0,0,0,1.6-1.6Z"/><path class="cls-18" d="M34.58,119.77a11.64,11.64,0,0,0-8.28,3.43,1.13,1.13,0,0,0,1.6,1.6,9.46,9.46,0,0,1,13.36,0,1.13,1.13,0,0,0,1.6-1.6A11.64,11.64,0,0,0,34.58,119.77Z"/><path class="cls-18" d="M30.57,127.47a1.13,1.13,0,0,0,1.6,1.6,3.41,3.41,0,0,1,4.81,0,1.13,1.13,0,0,0,1.6-1.6A5.68,5.68,0,0,0,30.57,127.47Z"/><text class="cls-19" transform="translate(20.35 168.69)"><tspan class="cls-20">M</tspan><tspan x="7.29" y="0">odem</tspan></text><rect class="cls-21" x="131.14" y="91.61" width="68.03" height="79.37"/><rect class="cls-22" x="162.72" y="114.64" width="4.82" height="3.4"/><path class="cls-23" d="M152.18,110.23a19.64,19.64,0,0,0,2.48,9.27s5.29,4.74,7.36,2.28a10.15,10.15,0,0,0,2.37-4.14,4.94,4.94,0,0,0-.51-2.23,10.21,10.21,0,0,0-2-2.71A9.45,9.45,0,0,0,158.4,111,26.52,26.52,0,0,0,152.18,110.23Z"/><path class="cls-24" d="M143.88,121.86c5.19-4.25,7.59-4.89,9.4-4.89a6.62,6.62,0,0,1,5.22,2.14c1.69,1.77,1.2,1.28,1.2,1.28l.79,1.88-3.87,2.1s-6.88.68-8.12.64S143.88,121.86,143.88,121.86Z"/><circle class="cls-25" cx="154.86" cy="128.06" r="6.74"/><circle class="cls-26" cx="152.49" cy="134.8" r="6.74"/><path class="cls-23" d="M178.13,110.23a19.63,19.63,0,0,1-2.48,9.27s-5.29,4.74-7.36,2.28a10.14,10.14,0,0,1-2.37-4.14,4.94,4.94,0,0,1,.51-2.23,10.2,10.2,0,0,1,2-2.71,9.44,9.44,0,0,1,3.45-1.74A26.51,26.51,0,0,1,178.13,110.23Z"/><path class="cls-24" d="M186.43,121.85c-5.19-4.25-7.59-4.88-9.39-4.88a6.62,6.62,0,0,0-5.22,2.14c-1.69,1.77-1.2,1.28-1.2,1.28l-.79,1.88,3.87,2.1s6.88.68,8.12.64S186.43,121.85,186.43,121.85Z"/><circle class="cls-27" cx="165.13" cy="152.91" r="6.74"/><circle class="cls-28" cx="175.49" cy="128.06" r="6.74"/><circle class="cls-29" cx="154.86" cy="143.61" r="6.74"/><circle class="cls-26" cx="165.13" cy="124.61" r="6.74"/><circle class="cls-26" cx="177.86" cy="134.8" r="6.74"/><circle class="cls-26" cx="175.52" cy="143.61" r="6.74"/><circle class="cls-30" cx="170.9" cy="148.27" r="6.74"/><path class="cls-31" d="M164.47,114.64H166a10.34,10.34,0,0,1-.47-3.33c0-2.07.23-3.48,2.07-5a5.64,5.64,0,0,1,3.8-1.4l-.79-1.93a14.15,14.15,0,0,0-3,.94,7.18,7.18,0,0,0-2.84,3,9.17,9.17,0,0,0-.71,3.95A28.31,28.31,0,0,0,164.47,114.64Z"/><circle class="cls-32" cx="160.27" cy="148.27" r="6.74"/><circle class="cls-29" cx="160.27" cy="131.35" r="6.74"/><circle class="cls-33" cx="161.6" cy="141.53" r="6.74"/><circle class="cls-32" cx="169.69" cy="136.56" r="6.74"/><text class="cls-19" transform="translate(141.83 167.69)"><tspan class="cls-34">R</tspan><tspan class="cls-35" x="4.95" y="0">aspbe</tspan><tspan class="cls-36" x="27.6" y="0">r</tspan><tspan class="cls-37" x="30.58" y="0">r</tspan><tspan x="33.75" y="0">y </tspan><tspan class="cls-38" x="39.9" y="0">P</tspan><tspan x="44.54" y="0">i</tspan></text><rect class="cls-21" x="131.14" y="1" width="68.03" height="79.37"/><path class="cls-39" d="M180.48,44.88H136.81V16.15a1.51,1.51,0,0,1,1.51-1.51H179a1.51,1.51,0,0,1,1.51,1.51Z"/><path class="cls-40" d="M179,51.32H138.32a1.51,1.51,0,0,1-1.51-1.51V44.88h43.68v4.93A1.51,1.51,0,0,1,179,51.32Z"/><rect class="cls-41" x="138.49" y="16.32" width="40.32" height="26.88"/><circle class="cls-42" cx="158.64" cy="48.1" r="2.52"/><path class="cls-43" d="M141.85,28.58a.63.63,0,0,1-.42-1.1l4.21-3.75a.63.63,0,0,1,.84.94l-4.21,3.75A.63.63,0,0,1,141.85,28.58Z"/><path class="cls-43" d="M149,22.18a.63.63,0,0,1-.42-1.1l2.1-1.87a.63.63,0,1,1,.84.94L149.46,22A.63.63,0,0,1,149,22.18Z"/><path class="cls-43" d="M142.25,33.45a.63.63,0,0,1-.42-1.1L146,28.59a.63.63,0,0,1,.84.94l-4.22,3.76A.63.63,0,0,1,142.25,33.45Z"/><path class="cls-43" d="M149.48,27a.63.63,0,0,1-.42-1.1l6.79-6a.63.63,0,1,1,.84.94l-6.79,6A.63.63,0,0,1,149.48,27Z"/><path class="cls-43" d="M147.46,33.57a.63.63,0,0,1-.42-1.1l4.21-3.75a.63.63,0,0,1,.84.94l-4.21,3.75A.63.63,0,0,1,147.46,33.57Z"/><path class="cls-43" d="M153.79,27.94a.63.63,0,0,1-.42-1.1l2.3-2.05a.63.63,0,0,1,.84.94l-2.3,2.05A.63.63,0,0,1,153.79,27.94Z"/><path class="cls-40" d="M169.46,58.35H147.83a.94.94,0,0,1-.94-.94v-.21a.94.94,0,0,1,.94-.94h21.63a.94.94,0,0,1,.94.94v.21A.94.94,0,0,1,169.46,58.35Z"/><polygon class="cls-43" points="168.78 56.25 148.5 56.25 150.75 51.32 166.54 51.32 168.78 56.25"/><path class="cls-15" d="M192,66.73H176.53A1.51,1.51,0,0,1,175,65.22V40.52A1.51,1.51,0,0,1,176.53,39H192a1.51,1.51,0,0,1,1.51,1.51V65.22A1.51,1.51,0,0,1,192,66.73Z"/><rect class="cls-41" x="176.7" y="41.92" width="15.12" height="20.27"/><circle class="cls-44" cx="184.26" cy="64.47" r="1.68"/><path class="cls-44" d="M186.82,40.89H181.7a.38.38,0,0,1-.38-.38v-.08a.38.38,0,0,1,.38-.38h5.12a.38.38,0,0,1,.38.38v.08A.38.38,0,0,1,186.82,40.89Z"/><text class="cls-19" transform="translate(144.78 77.44)"><tspan class="cls-45">W</tspan><tspan class="cls-35" x="7.32" y="0">eb Clie</tspan><tspan class="cls-46" x="32.81" y="0">n</tspan><tspan x="37.77" y="0">t</tspan></text><rect class="cls-21" x="131.14" y="182.23" width="68.03" height="79.37"/><path class="cls-47" d="M193.5,216.62v12.85H136.81V216.62a2.27,2.27,0,0,1,2.27-2.27h52.16A2.27,2.27,0,0,1,193.5,216.62Z"/><path class="cls-13" d="M186.81,221v8.45H143.49V221a1.51,1.51,0,0,1,1.51-1.51h40.3A1.51,1.51,0,0,1,186.81,221Z"/><circle class="cls-14" cx="149.97" cy="224.49" r="2.65"/><circle class="cls-15" cx="156.78" cy="224.49" r="1.89"/><circle class="cls-16" cx="162.82" cy="224.49" r="1.89"/><circle class="cls-17" cx="149.97" cy="224.49" r="1.13"/><text class="cls-19" transform="translate(158.05 258.94)">Z21</text><line class="cls-5" x1="118.03" y1="110.86" x2="74.98" y2="110.86"/><polygon class="cls-48" points="114.66 106.41 116.55 110.86 114.66 115.3 125.19 110.86 114.66 106.41"/><text class="cls-49" transform="translate(79.02 105.61)"><tspan class="cls-45">W</tspan><tspan class="cls-35" x="7.32" y="0">eb</tspan><tspan class="cls-20" x="16.95" y="0">S</tspan><tspan x="21.44" y="0">ocket</tspan></text><line class="cls-6" x1="125.19" y1="135.6" x2="74.98" y2="135.6"/><text class="cls-50" transform="translate(80.15 130.35)"><tspan class="cls-45">W</tspan><tspan class="cls-35" x="7.32" y="0">ebse</tspan><tspan class="cls-37" x="25.02" y="0">r</tspan><tspan class="cls-51" x="28.19" y="0">v</tspan><tspan x="32.43" y="0">er</tspan></text><line class="cls-4" x1="118.03" y1="160.34" x2="74.98" y2="160.34"/><polygon class="cls-52" points="114.66 155.9 116.55 160.34 114.66 164.79 125.19 160.34 114.66 155.9"/><text class="cls-53" transform="translate(83.72 155.09)">UDP Z21</text><line class="cls-5" x1="49.79" y1="85.67" x2="49.79" y2="52.06"/><line class="cls-5" x1="49.79" y1="52.06" x2="118.03" y2="52.06"/><polygon class="cls-48" points="114.66 56.51 116.55 52.06 114.66 47.62 125.19 52.06 114.66 56.51"/><line class="cls-6" x1="25.04" y1="27.32" x2="118.03" y2="27.32"/><polygon class="cls-54" points="114.66 31.76 116.55 27.32 114.66 22.87 125.19 27.32 114.66 31.76"/><line class="cls-6" x1="25.04" y1="85.67" x2="25.04" y2="27.32"/><line class="cls-4" x1="58.48" y1="176.84" x2="58.48" y2="224.49"/><line class="cls-4" x1="58.48" y1="224.49" x2="118.03" y2="224.49"/><polygon class="cls-52" points="114.66 228.94 116.55 224.49 114.66 220.05 125.19 224.49 114.66 228.94"/><line class="cls-55" x1="204.49" y1="221.91" x2="239.08" y2="221.91"/><polygon points="235.71 226.36 237.6 221.91 235.71 217.47 246.24 221.91 235.71 226.36"/><text class="cls-56" transform="translate(217.24 216.66)">D<tspan class="cls-57" x="5.99" y="0">C</tspan><tspan x="11.02" y="0">C</tspan></text><rect class="cls-2" x="251.46" y="91.61" width="68.03" height="79.37"/><text class="cls-58" transform="translate(344.07 71.37)">RNe<tspan class="cls-59" x="15.27" y="0">t</tspan><tspan x="18.21" y="0">-Bus</tspan></text><path class="cls-60" d="M327.12,251.7h-1.85l-1.85.92-1.85,1.85-.92,1.85v16.61l.92,1.85,1.85,1.85,1.85.92H329l1.85-.92,1.85-1.85.92-1.85V256.31l-.92-1.85-1.85-1.85L329,251.7Z"/><circle class="cls-61" cx="327.12" cy="257.62" r="2"/><circle class="cls-62" cx="327.12" cy="264.62" r="2"/><circle class="cls-63" cx="327.12" cy="271.62" r="2"/><text class="cls-64" transform="translate(348.46 271.62)"><tspan class="cls-65">O</tspan><tspan x="6.23" y="0">utputs</tspan></text><path class="cls-66" d="M275.67,120.22a.67.67,0,0,1-.94,0l-3.67-3.67a.67.67,0,0,1,.94-.94l3.67,3.67a.67.67,0,0,1,0,.94Zm0,0"/><path class="cls-66" d="M277.85,118a.67.67,0,0,1-.94,0l-3.67-3.67a.67.67,0,0,1,.94-.94l3.67,3.67a.67.67,0,0,1,0,.94Zm0,0"/><path class="cls-66" d="M280,115.86a.67.67,0,0,1-.94,0l-3.67-3.67a.67.67,0,0,1,.94-.94l3.67,3.67a.67.67,0,0,1,0,.94Zm0,0"/><path class="cls-66" d="M282.21,113.68a.67.67,0,0,1-.94,0L277.6,110a.67.67,0,0,1,.94-.94l3.67,3.67a.67.67,0,0,1,0,.94Zm0,0"/><path class="cls-66" d="M284.4,111.49a.67.67,0,0,1-.94,0l-3.67-3.67a.67.67,0,0,1,.94-.94l3.67,3.67a.67.67,0,0,1,0,.94Zm0,0"/><path class="cls-66" d="M291.1,135.66a.67.67,0,0,1-.94,0L286.49,132a.67.67,0,0,1,.94-.94l3.67,3.67a.67.67,0,0,1,0,.94Zm0,0"/><path class="cls-66" d="M293.28,133.48a.67.67,0,0,1-.94,0l-3.67-3.67a.67.67,0,0,1,.94-.94l3.67,3.67a.67.67,0,0,1,0,.94Zm0,0"/><path class="cls-66" d="M295.47,131.29a.67.67,0,0,1-.94,0l-3.67-3.67a.67.67,0,1,1,.94-.94l3.67,3.67a.67.67,0,0,1,0,.94Zm0,0"/><path class="cls-66" d="M297.65,129.11a.67.67,0,0,1-.94,0L293,125.44a.67.67,0,1,1,.94-.94l3.67,3.67a.67.67,0,0,1,0,.94Zm0,0"/><g class="cls-67"><path class="cls-66" d="M299.83,126.93a.67.67,0,0,1-.94,0l-3.67-3.67a.67.67,0,0,1,.94-.94l3.67,3.67a.67.67,0,0,1,0,.94Zm0,0"/><path class="cls-66" d="M291.1,107.83l-3.67,3.67a.67.67,0,0,1-.94-.94l3.67-3.67a.67.67,0,0,1,.94.94Zm0,0"/><path class="cls-66" d="M293.28,110l-3.67,3.67a.67.67,0,0,1-.94-.94l3.67-3.67a.67.67,0,1,1,.94.94Zm0,0"/><path class="cls-66" d="M295.47,112.19l-3.67,3.67a.67.67,0,0,1-.94-.94l3.67-3.67a.67.67,0,0,1,.94.94Zm0,0"/><path class="cls-66" d="M297.65,114.37,294,118a.67.67,0,0,1-.94-.94l3.67-3.67a.67.67,0,0,1,.94.94Zm0,0"/><path class="cls-66" d="M299.83,116.55l-3.67,3.67a.67.67,0,1,1-.94-.94l3.67-3.67a.67.67,0,1,1,.94.94Zm0,0"/></g><path class="cls-66" d="M275.67,123.26,272,126.93a.67.67,0,0,1-.94-.94l3.67-3.67a.67.67,0,0,1,.94.94Zm0,0"/><path class="cls-66" d="M277.85,125.44l-3.67,3.67a.67.67,0,1,1-.94-.94l3.67-3.67a.67.67,0,0,1,.94.94Zm0,0"/><path class="cls-66" d="M280,127.62l-3.67,3.67a.67.67,0,1,1-.94-.94l3.67-3.67a.67.67,0,0,1,.94.94Zm0,0"/><path class="cls-66" d="M282.21,129.81l-3.67,3.67a.67.67,0,0,1-.94-.94l3.67-3.67a.67.67,0,0,1,.94.94Zm0,0"/><path class="cls-66" d="M284.4,132l-3.67,3.67a.67.67,0,1,1-.94-.94l3.67-3.67a.67.67,0,0,1,.94.94Zm0,0"/><path class="cls-68" d="M273.08,120.1l11.19-11.19a1.66,1.66,0,0,1,2.35,0l11.19,11.19a1.66,1.66,0,0,1,0,2.35l-11.19,11.19a1.66,1.66,0,0,1-2.35,0l-11.19-11.19a1.66,1.66,0,0,1,0-2.35Zm0,0"/><circle class="cls-66" cx="275.51" cy="121.27" r="0.88" transform="translate(-5.06 230.33) rotate(-45)"/><path class="cls-66" d="M442.6,140.68,440,143.25a.47.47,0,0,1-.66-.66l2.57-2.57a.47.47,0,0,1,.66.66Zm0,0"/><path class="cls-66" d="M444.12,142.21l-2.57,2.57a.47.47,0,1,1-.66-.66l2.57-2.57a.47.47,0,0,1,.66.66Zm0,0"/><path class="cls-66" d="M445.65,143.73l-2.57,2.57a.47.47,0,0,1-.66-.66l2.57-2.57a.47.47,0,0,1,.66.66Zm0,0"/><path class="cls-66" d="M447.18,145.26l-2.57,2.57a.47.47,0,0,1-.66-.66l2.57-2.57a.47.47,0,0,1,.66.66Zm0,0"/><path class="cls-66" d="M448.7,146.78l-2.57,2.57a.47.47,0,1,1-.66-.66l2.57-2.57a.47.47,0,0,1,.66.66Zm0,0"/><path class="cls-66" d="M450.23,148.31l-2.57,2.57a.47.47,0,0,1-.66-.66l2.57-2.57a.47.47,0,0,1,.66.66Zm0,0"/><path class="cls-66" d="M451.75,149.84l-2.57,2.57a.47.47,0,0,1-.66-.66l2.57-2.57a.47.47,0,0,1,.66.66Zm0,0"/><path class="cls-66" d="M453.28,151.36l-2.57,2.57a.47.47,0,0,1-.66-.66l2.57-2.57a.47.47,0,0,1,.66.66Zm0,0"/><path class="cls-66" d="M441.08,139.17l-2.57,2.57a.47.47,0,0,1-.66-.66l2.57-2.57a.47.47,0,0,1,.66.66Zm0,0"/><path class="cls-66" d="M459.45,123.89l-2.57,2.57a.47.47,0,1,1-.66-.66l2.57-2.57a.47.47,0,0,1,.66.66Zm0,0"/><path class="cls-66" d="M461,125.42,458.41,128a.47.47,0,1,1-.66-.66l2.57-2.57a.47.47,0,0,1,.66.66Zm0,0"/><path class="cls-66" d="M462.5,126.95l-2.57,2.57a.47.47,0,0,1-.66-.66l2.57-2.57a.47.47,0,0,1,.66.66Zm0,0"/><path class="cls-66" d="M464,128.47,461.46,131a.47.47,0,0,1-.66-.66l2.57-2.57a.47.47,0,0,1,.66.66Zm0,0"/><path class="cls-66" d="M465.56,130,463,132.56a.47.47,0,0,1-.66-.66l2.57-2.57a.47.47,0,0,1,.66.66Zm0,0"/><path class="cls-66" d="M467.08,131.52l-2.57,2.57a.47.47,0,0,1-.66-.66l2.57-2.57a.47.47,0,0,1,.66.66Zm0,0"/><path class="cls-66" d="M468.61,133,466,135.61a.47.47,0,0,1-.66-.66l2.57-2.57a.47.47,0,0,1,.66.66Zm0,0"/><path class="cls-66" d="M470.13,134.58l-2.57,2.57a.47.47,0,0,1-.66-.66l2.57-2.57a.47.47,0,0,1,.66.66Zm0,0"/><path class="cls-66" d="M457.94,122.38l-2.57,2.57a.47.47,0,0,1-.66-.66l2.57-2.57a.47.47,0,0,1,.66.66Zm0,0"/><path class="cls-66" d="M441.08,137a.47.47,0,0,1-.66,0l-2.57-2.57a.47.47,0,0,1,.66-.66l2.57,2.57a.47.47,0,0,1,0,.66Zm0,0"/><path class="cls-66" d="M442.6,135.51a.47.47,0,0,1-.66,0l-2.57-2.57a.47.47,0,0,1,.66-.66l2.57,2.57a.47.47,0,0,1,0,.66Zm0,0"/><path class="cls-66" d="M444.13,134a.47.47,0,0,1-.66,0l-2.57-2.57a.47.47,0,0,1,.66-.66l2.57,2.57a.47.47,0,0,1,0,.66Zm0,0"/><path class="cls-66" d="M445.65,132.46a.47.47,0,0,1-.66,0l-2.57-2.57a.47.47,0,1,1,.66-.66l2.57,2.57a.47.47,0,0,1,0,.66Zm0,0"/><path class="cls-66" d="M447.18,130.93a.47.47,0,0,1-.66,0L444,128.37a.47.47,0,0,1,.66-.66l2.57,2.57a.47.47,0,0,1,0,.66Zm0,0"/><path class="cls-66" d="M458,154a.47.47,0,0,1-.66,0l-2.57-2.57a.47.47,0,1,1,.66-.66l2.57,2.57a.47.47,0,0,1,0,.66Zm0,0"/><path class="cls-66" d="M459.56,152.47a.47.47,0,0,1-.66,0l-2.57-2.57a.47.47,0,0,1,.66-.66l2.57,2.57a.47.47,0,0,1,0,.66Zm0,0"/><path class="cls-66" d="M461.09,150.94a.47.47,0,0,1-.66,0l-2.57-2.57a.47.47,0,1,1,.66-.66l2.57,2.57a.47.47,0,0,1,0,.66Zm0,0"/><path class="cls-66" d="M462.62,149.42a.47.47,0,0,1-.66,0l-2.57-2.57a.47.47,0,1,1,.66-.66l2.57,2.57a.47.47,0,0,1,0,.66Zm0,0"/><path class="cls-66" d="M464.14,147.89a.47.47,0,0,1-.66,0l-2.57-2.57a.47.47,0,0,1,.66-.66l2.57,2.57a.47.47,0,0,1,0,.66Zm0,0"/><path class="cls-66" d="M465.67,146.37a.47.47,0,0,1-.66,0l-2.57-2.57a.47.47,0,0,1,.66-.66l2.57,2.57a.47.47,0,0,1,0,.66Zm0,0"/><path class="cls-66" d="M467.19,144.84a.47.47,0,0,1-.66,0L464,142.28a.47.47,0,1,1,.66-.66l2.57,2.57a.47.47,0,0,1,0,.66Zm0,0"/><path class="cls-66" d="M468.72,143.31a.47.47,0,0,1-.66,0l-2.57-2.57a.47.47,0,0,1,.66-.66l2.57,2.57a.47.47,0,0,1,0,.66Zm0,0"/><path class="cls-66" d="M470.24,141.79a.47.47,0,0,1-.66,0L467,139.22a.47.47,0,0,1,.66-.66l2.57,2.57a.47.47,0,0,1,0,.66Zm0,0"/><path class="cls-66" d="M448.71,129.41a.47.47,0,0,1-.66,0l-2.57-2.57a.47.47,0,0,1,.66-.66l2.57,2.57a.47.47,0,0,1,0,.66Zm0,0"/><path class="cls-66" d="M450.23,127.88a.47.47,0,0,1-.66,0L447,125.31a.47.47,0,0,1,.66-.66l2.57,2.57a.47.47,0,0,1,0,.66Zm0,0"/><path class="cls-66" d="M451.76,126.35a.47.47,0,0,1-.66,0l-2.57-2.57a.47.47,0,0,1,.66-.66l2.57,2.57a.47.47,0,0,1,0,.66Zm0,0"/><path class="cls-66" d="M453.28,124.83a.47.47,0,0,1-.66,0l-2.57-2.57a.47.47,0,0,1,.66-.66l2.57,2.57a.47.47,0,0,1,0,.66Zm0,0"/><path class="cls-68" d="M439.27,136.95l14-14a1.16,1.16,0,0,1,1.64,0l14,14a1.16,1.16,0,0,1,0,1.64l-14,14a1.16,1.16,0,0,1-1.64,0l-14-14a1.16,1.16,0,0,1,0-1.64Zm0,0"/><circle class="cls-66" cx="440.96" cy="137.77" r="0.62" transform="translate(31.74 352.16) rotate(-45)"/><text class="cls-19" transform="translate(266.16 167.73)">RNet <tspan class="cls-57" x="20.16" y="0">C</tspan><tspan x="25.19" y="0">OM</tspan></text><text class="cls-69" transform="translate(449.38 145.46) rotate(-45)">Node</text><line class="cls-70" x1="204.44" y1="139.72" x2="239.02" y2="139.72"/><polygon class="cls-71" points="235.65 144.16 237.54 139.72 235.65 135.27 246.19 139.72 235.65 144.16"/><text class="cls-72" transform="translate(215.1 134.47)"><tspan class="cls-73">U</tspan><tspan x="5.52" y="0">A</tspan><tspan class="cls-74" x="11.02" y="0">R</tspan><tspan x="15.95" y="0">T</tspan></text><text class="cls-72" transform="translate(216.19 150.25)">RNet</text><path class="cls-66" d="M374.29,136.72a.67.67,0,0,1-.94,0l-3.67-3.67a.67.67,0,1,1,.94-.94l3.67,3.67a.67.67,0,0,1,0,.94Zm0,0"/><path class="cls-66" d="M376.48,134.54a.67.67,0,0,1-.94,0l-3.67-3.67a.67.67,0,0,1,.94-.94l3.67,3.67a.67.67,0,0,1,0,.94Zm0,0"/><path class="cls-66" d="M378.66,132.36a.67.67,0,0,1-.94,0L374,128.69a.67.67,0,0,1,.94-.94l3.67,3.67a.67.67,0,0,1,0,.94Zm0,0"/><path class="cls-66" d="M380.84,130.18a.67.67,0,0,1-.94,0l-3.67-3.67a.67.67,0,0,1,.94-.94l3.67,3.67a.67.67,0,0,1,0,.94Zm0,0"/><path class="cls-66" d="M383,128a.67.67,0,0,1-.94,0l-3.67-3.67a.67.67,0,0,1,.94-.94l3.67,3.67a.67.67,0,0,1,0,.94Zm0,0"/><path class="cls-66" d="M389.73,152.16a.67.67,0,0,1-.94,0l-3.67-3.67a.67.67,0,1,1,.94-.94l3.67,3.67a.67.67,0,0,1,0,.94Zm0,0"/><path class="cls-66" d="M391.91,150a.67.67,0,0,1-.94,0l-3.67-3.67a.67.67,0,0,1,.94-.94l3.67,3.67a.67.67,0,0,1,0,.94Zm0,0"/><path class="cls-66" d="M394.09,147.79a.67.67,0,0,1-.94,0l-3.67-3.67a.67.67,0,0,1,.94-.94l3.67,3.67a.67.67,0,0,1,0,.94Zm0,0"/><path class="cls-66" d="M396.27,145.61a.67.67,0,0,1-.94,0l-3.67-3.67a.67.67,0,1,1,.94-.94l3.67,3.67a.67.67,0,0,1,0,.94Zm0,0"/><g class="cls-75"><path class="cls-66" d="M398.46,143.43a.67.67,0,0,1-.94,0l-3.67-3.67a.67.67,0,0,1,.94-.94l3.67,3.67a.67.67,0,0,1,0,.94Zm0,0"/><path class="cls-66" d="M389.73,124.33,386.06,128a.67.67,0,0,1-.94-.94l3.67-3.67a.67.67,0,0,1,.94.94Zm0,0"/><path class="cls-66" d="M391.91,126.51l-3.67,3.67a.67.67,0,0,1-.94-.94l3.67-3.67a.67.67,0,1,1,.94.94Zm0,0"/><path class="cls-66" d="M394.09,128.69l-3.67,3.67a.67.67,0,0,1-.94-.94l3.67-3.67a.67.67,0,1,1,.94.94Zm0,0"/><path class="cls-66" d="M396.27,130.87l-3.67,3.67a.67.67,0,0,1-.94-.94l3.67-3.67a.67.67,0,0,1,.94.94Zm0,0"/><path class="cls-66" d="M398.46,133.06l-3.67,3.67a.67.67,0,1,1-.94-.94l3.67-3.67a.67.67,0,1,1,.94.94Zm0,0"/></g><path class="cls-66" d="M374.29,139.76l-3.67,3.67a.67.67,0,0,1-.94-.94l3.67-3.67a.67.67,0,0,1,.94.94Zm0,0"/><path class="cls-66" d="M376.48,141.94l-3.67,3.67a.67.67,0,1,1-.94-.94l3.67-3.67a.67.67,0,0,1,.94.94Zm0,0"/><path class="cls-66" d="M378.66,144.13,375,147.79a.67.67,0,1,1-.94-.94l3.67-3.67a.67.67,0,0,1,.94.94Zm0,0"/><path class="cls-66" d="M380.84,146.31,377.17,150a.67.67,0,0,1-.94-.94l3.67-3.67a.67.67,0,0,1,.94.94Zm0,0"/><path class="cls-66" d="M383,148.49l-3.67,3.67a.67.67,0,0,1-.94-.94l3.67-3.67a.67.67,0,0,1,.94.94Zm0,0"/><path class="cls-68" d="M371.71,136.6l11.19-11.19a1.66,1.66,0,0,1,2.35,0l11.19,11.19a1.66,1.66,0,0,1,0,2.35l-11.19,11.19a1.66,1.66,0,0,1-2.35,0l-11.19-11.19a1.66,1.66,0,0,1,0-2.35Zm0,0"/><circle class="cls-66" cx="374.13" cy="137.77" r="0.88" transform="translate(12.16 304.9) rotate(-45)"/><line class="cls-76" x1="321.24" y1="240.91" x2="384.92" y2="240.91"/><line class="cls-76" x1="384.92" y1="213.53" x2="384.92" y2="240.91"/><polygon class="cls-77" points="380.48 216.9 384.92 215.01 389.37 216.9 384.92 206.37 380.48 216.9"/><text class="cls-64" transform="translate(327.12 236.13)"><tspan class="cls-78">I</tspan><tspan x="2.24" y="0">nputs</tspan></text><line class="cls-76" x1="345.91" y1="261.28" x2="413.24" y2="261.28"/><polygon class="cls-77" points="349.28 265.73 347.39 261.28 349.28 256.84 338.74 261.28 349.28 265.73"/><line class="cls-76" x1="413.24" y1="206.37" x2="413.24" y2="261.28"/><path class="cls-66" d="M500.44,140.67l-2.57,2.57a.47.47,0,1,1-.66-.66l2.57-2.57a.47.47,0,0,1,.66.66Zm0,0"/><path class="cls-66" d="M502,142.19l-2.57,2.57a.47.47,0,1,1-.66-.66l2.57-2.57a.47.47,0,0,1,.66.66Zm0,0"/><path class="cls-66" d="M503.49,143.72l-2.57,2.57a.47.47,0,0,1-.66-.66l2.57-2.57a.47.47,0,0,1,.66.66Zm0,0"/><path class="cls-66" d="M505,145.24l-2.57,2.57a.47.47,0,1,1-.66-.66l2.57-2.57a.47.47,0,0,1,.66.66Zm0,0"/><path class="cls-66" d="M506.54,146.77,504,149.34a.47.47,0,1,1-.66-.66l2.57-2.57a.47.47,0,0,1,.66.66Zm0,0"/><path class="cls-66" d="M508.07,148.3l-2.57,2.57a.47.47,0,1,1-.66-.66l2.57-2.57a.47.47,0,0,1,.66.66Zm0,0"/><path class="cls-66" d="M509.59,149.82,507,152.39a.47.47,0,0,1-.66-.66l2.57-2.57a.47.47,0,0,1,.66.66Zm0,0"/><path class="cls-66" d="M511.12,151.35l-2.57,2.57a.47.47,0,1,1-.66-.66l2.57-2.57a.47.47,0,0,1,.66.66Zm0,0"/><path class="cls-66" d="M498.93,139.15l-2.57,2.57a.47.47,0,0,1-.66-.66l2.57-2.57a.47.47,0,0,1,.66.66Zm0,0"/><path class="cls-66" d="M498.92,137a.47.47,0,0,1-.66,0l-2.57-2.57a.47.47,0,0,1,.66-.66l2.57,2.57a.47.47,0,0,1,0,.66Zm0,0"/><path class="cls-66" d="M500.44,135.5a.47.47,0,0,1-.66,0l-2.57-2.57a.47.47,0,0,1,.66-.66l2.57,2.57a.47.47,0,0,1,0,.66Zm0,0"/><path class="cls-66" d="M502,134a.47.47,0,0,1-.66,0l-2.57-2.57a.47.47,0,0,1,.66-.66l2.57,2.57a.47.47,0,0,1,0,.66Zm0,0"/><path class="cls-66" d="M503.49,132.44a.47.47,0,0,1-.66,0l-2.57-2.57a.47.47,0,1,1,.66-.66l2.57,2.57a.47.47,0,0,1,0,.66Zm0,0"/><path class="cls-66" d="M505,130.92a.47.47,0,0,1-.66,0l-2.57-2.57a.47.47,0,0,1,.66-.66l2.57,2.57a.47.47,0,0,1,0,.66Zm0,0"/><path class="cls-66" d="M506.55,129.39a.47.47,0,0,1-.66,0l-2.57-2.57a.47.47,0,0,1,.66-.66l2.57,2.57a.47.47,0,0,1,0,.66Zm0,0"/><path class="cls-66" d="M508.07,127.87a.47.47,0,0,1-.66,0l-2.57-2.57a.47.47,0,0,1,.66-.66l2.57,2.57a.47.47,0,0,1,0,.66Zm0,0"/><path class="cls-66" d="M509.6,126.34a.47.47,0,0,1-.66,0l-2.57-2.57a.47.47,0,0,1,.66-.66l2.57,2.57a.47.47,0,0,1,0,.66Zm0,0"/><path class="cls-66" d="M511.12,124.81a.47.47,0,0,1-.66,0l-2.57-2.57a.47.47,0,0,1,.66-.66l2.57,2.57a.47.47,0,0,1,0,.66Zm0,0"/><path class="cls-66" d="M512.63,152.86l-2.57,2.57a.47.47,0,0,1-.66-.66L512,152.2a.47.47,0,0,1,.66.66Zm0,0"/><path class="cls-66" d="M514.16,154.39,511.59,157a.47.47,0,1,1-.66-.66l2.57-2.57a.47.47,0,0,1,.66.66Zm0,0"/><path class="cls-66" d="M515.68,155.91l-2.57,2.57a.47.47,0,0,1-.66-.66l2.57-2.57a.47.47,0,0,1,.66.66Zm0,0"/><path class="cls-66" d="M517.21,157.44,514.64,160a.47.47,0,0,1-.66-.66l2.57-2.57a.47.47,0,0,1,.66.66Zm0,0"/><path class="cls-66" d="M518.74,159l-2.57,2.57a.47.47,0,1,1-.66-.66l2.57-2.57a.47.47,0,0,1,.66.66Zm0,0"/><path class="cls-66" d="M520.26,160.49l-2.57,2.57a.47.47,0,1,1-.66-.66l2.57-2.57a.47.47,0,0,1,.66.66Zm0,0"/><path class="cls-66" d="M521.79,162l-2.57,2.57a.47.47,0,0,1-.66-.66l2.57-2.57a.47.47,0,0,1,.66.66Zm0,0"/><path class="cls-66" d="M523.31,163.54l-2.57,2.57a.47.47,0,1,1-.66-.66l2.57-2.57a.47.47,0,0,1,.66.66Zm0,0"/><path class="cls-66" d="M512.54,123.4a.47.47,0,0,1-.66,0l-2.57-2.57a.47.47,0,0,1,.66-.66l2.57,2.57a.47.47,0,0,1,0,.66Zm0,0"/><path class="cls-66" d="M514.07,121.87a.47.47,0,0,1-.66,0l-2.57-2.57a.47.47,0,1,1,.66-.66l2.57,2.57a.47.47,0,0,1,0,.66Zm0,0"/><path class="cls-66" d="M515.59,120.35a.47.47,0,0,1-.66,0l-2.57-2.57a.47.47,0,1,1,.66-.66l2.57,2.57a.47.47,0,0,1,0,.66Zm0,0"/><path class="cls-66" d="M517.12,118.82a.47.47,0,0,1-.66,0l-2.57-2.57a.47.47,0,0,1,.66-.66l2.57,2.57a.47.47,0,0,1,0,.66Zm0,0"/><path class="cls-66" d="M518.65,117.29a.47.47,0,0,1-.66,0l-2.57-2.57a.47.47,0,0,1,.66-.66l2.57,2.57a.47.47,0,0,1,0,.66Zm0,0"/><path class="cls-66" d="M520.17,115.77a.47.47,0,0,1-.66,0l-2.57-2.57a.47.47,0,0,1,.66-.66l2.57,2.57a.47.47,0,0,1,0,.66Zm0,0"/><path class="cls-66" d="M521.7,114.24a.47.47,0,0,1-.66,0l-2.57-2.57a.47.47,0,1,1,.66-.66l2.57,2.57a.47.47,0,0,1,0,.66Zm0,0"/><path class="cls-66" d="M523.22,112.72a.47.47,0,0,1-.66,0L520,110.15a.47.47,0,0,1,.66-.66l2.57,2.57a.47.47,0,0,1,0,.66Zm0,0"/><path class="cls-66" d="M529.43,111.68l-2.57,2.57a.47.47,0,0,1-.66-.66l2.57-2.57a.47.47,0,0,1,.66.66Zm0,0"/><path class="cls-66" d="M531,113.2l-2.57,2.57a.47.47,0,1,1-.66-.66l2.57-2.57a.47.47,0,0,1,.66.66Zm0,0"/><path class="cls-66" d="M532.48,114.73l-2.57,2.57a.47.47,0,0,1-.66-.66l2.57-2.57a.47.47,0,0,1,.66.66Zm0,0"/><path class="cls-66" d="M534,116.25l-2.57,2.57a.47.47,0,0,1-.66-.66l2.57-2.57a.47.47,0,0,1,.66.66Zm0,0"/><path class="cls-66" d="M535.53,117.78,533,120.34a.47.47,0,0,1-.66-.66l2.57-2.57a.47.47,0,0,1,.66.66Zm0,0"/><path class="cls-66" d="M537.06,119.3l-2.57,2.57a.47.47,0,0,1-.66-.66l2.57-2.57a.47.47,0,0,1,.66.66Zm0,0"/><path class="cls-66" d="M538.59,120.83,536,123.4a.47.47,0,0,1-.66-.66l2.57-2.57a.47.47,0,0,1,.66.66Zm0,0"/><path class="cls-66" d="M540.11,122.36l-2.57,2.57a.47.47,0,1,1-.66-.66l2.57-2.57a.47.47,0,0,1,.66.66Zm0,0"/><path class="cls-66" d="M527.92,110.16l-2.57,2.57a.47.47,0,0,1-.66-.66l2.57-2.57a.47.47,0,0,1,.66.66Zm0,0"/><path class="cls-66" d="M541.62,123.87l-2.57,2.57a.47.47,0,0,1-.66-.66l2.57-2.57a.47.47,0,0,1,.66.66Zm0,0"/><path class="cls-66" d="M543.15,125.4,540.58,128a.47.47,0,1,1-.66-.66l2.57-2.57a.47.47,0,0,1,.66.66Zm0,0"/><path class="cls-66" d="M544.68,126.92l-2.57,2.57a.47.47,0,0,1-.66-.66l2.57-2.57a.47.47,0,0,1,.66.66Zm0,0"/><path class="cls-66" d="M546.2,128.45,543.64,131a.47.47,0,1,1-.66-.66l2.57-2.57a.47.47,0,0,1,.66.66Zm0,0"/><path class="cls-66" d="M547.73,130l-2.57,2.57a.47.47,0,0,1-.66-.66l2.57-2.57a.47.47,0,0,1,.66.66Zm0,0"/><path class="cls-66" d="M549.25,131.5l-2.57,2.57a.47.47,0,0,1-.66-.66l2.57-2.57a.47.47,0,0,1,.66.66Zm0,0"/><path class="cls-66" d="M550.78,133l-2.57,2.57a.47.47,0,0,1-.66-.66l2.57-2.57a.47.47,0,0,1,.66.66Zm0,0"/><path class="cls-66" d="M552.31,134.55l-2.57,2.57a.47.47,0,1,1-.66-.66l2.57-2.57a.47.47,0,0,1,.66.66Zm0,0"/><path class="cls-66" d="M527.9,166a.47.47,0,0,1-.66,0l-2.57-2.57a.47.47,0,1,1,.66-.66l2.57,2.57a.47.47,0,0,1,0,.66Zm0,0"/><path class="cls-66" d="M529.43,164.5a.47.47,0,0,1-.66,0l-2.57-2.57a.47.47,0,0,1,.66-.66l2.57,2.57a.47.47,0,0,1,0,.66Zm0,0"/><path class="cls-66" d="M531,163a.47.47,0,0,1-.66,0l-2.57-2.57a.47.47,0,0,1,.66-.66l2.57,2.57a.47.47,0,0,1,0,.66Zm0,0"/><path class="cls-66" d="M532.48,161.44a.47.47,0,0,1-.66,0l-2.57-2.57a.47.47,0,0,1,.66-.66l2.57,2.57a.47.47,0,0,1,0,.66Zm0,0"/><path class="cls-66" d="M534,159.92a.47.47,0,0,1-.66,0l-2.57-2.57a.47.47,0,0,1,.66-.66l2.57,2.57a.47.47,0,0,1,0,.66Zm0,0"/><path class="cls-66" d="M535.53,158.39a.47.47,0,0,1-.66,0l-2.57-2.57a.47.47,0,0,1,.66-.66l2.57,2.57a.47.47,0,0,1,0,.66Zm0,0"/><path class="cls-66" d="M537.06,156.87a.47.47,0,0,1-.66,0l-2.57-2.57a.47.47,0,0,1,.66-.66l2.57,2.57a.47.47,0,0,1,0,.66Zm0,0"/><path class="cls-66" d="M538.58,155.34a.47.47,0,0,1-.66,0l-2.57-2.57a.47.47,0,0,1,.66-.66l2.57,2.57a.47.47,0,0,1,0,.66Zm0,0"/><path class="cls-66" d="M540.11,153.81a.47.47,0,0,1-.66,0l-2.57-2.57a.47.47,0,0,1,.66-.66l2.57,2.57a.47.47,0,0,1,0,.66Zm0,0"/><path class="cls-66" d="M541.52,152.4a.47.47,0,0,1-.66,0l-2.57-2.57a.47.47,0,0,1,.66-.66l2.57,2.57a.47.47,0,0,1,0,.66Zm0,0"/><path class="cls-66" d="M543,150.87a.47.47,0,0,1-.66,0l-2.57-2.57a.47.47,0,0,1,.66-.66l2.57,2.57a.47.47,0,0,1,0,.66Zm0,0"/><path class="cls-66" d="M544.58,149.35a.47.47,0,0,1-.66,0l-2.57-2.57a.47.47,0,0,1,.66-.66l2.57,2.57a.47.47,0,0,1,0,.66Zm0,0"/><path class="cls-66" d="M546.1,147.82a.47.47,0,0,1-.66,0l-2.57-2.57a.47.47,0,0,1,.66-.66l2.57,2.57a.47.47,0,0,1,0,.66Zm0,0"/><path class="cls-66" d="M547.63,146.29a.47.47,0,0,1-.66,0l-2.57-2.57a.47.47,0,0,1,.66-.66l2.57,2.57a.47.47,0,0,1,0,.66Zm0,0"/><path class="cls-66" d="M549.15,144.77a.47.47,0,0,1-.66,0l-2.57-2.57a.47.47,0,0,1,.66-.66l2.57,2.57a.47.47,0,0,1,0,.66Zm0,0"/><path class="cls-66" d="M550.68,143.24a.47.47,0,0,1-.66,0l-2.57-2.57a.47.47,0,0,1,.66-.66l2.57,2.57a.47.47,0,0,1,0,.66Zm0,0"/><path class="cls-66" d="M552.21,141.72a.47.47,0,0,1-.66,0L549,139.15a.47.47,0,0,1,.66-.66l2.57,2.57a.47.47,0,0,1,0,.66Zm0,0"/><path class="cls-68" d="M497.74,136.3l24.75-24.75a2.05,2.05,0,0,1,2.9,0l24.75,24.75a2.05,2.05,0,0,1,0,2.9L525.39,164a2.05,2.05,0,0,1-2.9,0l-24.75-24.75a2.05,2.05,0,0,1,0-2.9Zm0,0"/><circle class="cls-66" cx="498.8" cy="137.75" r="0.62" transform="translate(48.69 393.06) rotate(-45)"/><text class="cls-19" transform="translate(518.87 147.35) rotate(-45)">Node</text><text class="cls-79" transform="translate(380.72 143.31) rotate(-45)">Node</text><text class="cls-80" transform="translate(440.63 180.07)">M<tspan class="cls-81" x="7.29" y="0">odule</tspan></text><polygon class="cls-82" points="378.4 74.64 378.4 97.7 384.07 104.92 389.74 97.7 389.74 74.64 378.4 74.64"/><polygon class="cls-82" points="448.41 74.64 448.41 97.7 454.08 104.92 459.75 97.7 459.75 74.64 448.41 74.64"/><polygon class="cls-82" points="518.27 74.64 518.27 97.7 523.94 104.92 529.61 97.7 529.61 74.64 518.27 74.64"/><text class="cls-19" transform="translate(389.92 194.23)">IO <tspan class="cls-83" x="10.26" y="0">P</tspan><tspan class="cls-81" x="14.82" y="0">o</tspan><tspan class="cls-84" x="19.76" y="0">r</tspan><tspan x="22.92" y="0">ts</tspan></text></g></g></svg>