<svg xmlns="http://www.w3.org/2000/svg" viewBox="0 0 27 19.03"><defs><style>.cls-1{stroke:#000;}.cls-2{fill:red;stroke:red;}.cls-3{fill:#ff0;stroke:#ff0;}.cls-4{fill:lime;stroke:lime;}</style></defs><title>1</title><g id="Layer_2" data-name="Layer 2"><g id="Layer_1-2" data-name="Layer 1"><path class="cls-1" d="M3.5,18.53l-2-1-1-2v-2l1-2,9-10,3-1,3,1,9,10,1,2v2l-1,2-2,1Z"/><path class="cls-2" d="M3.5,15.53v-2l2-2h2l2,2v2l-2,2h-2Z"/><path class="cls-3" d="M23.5,13.53v2l-2,2h-2l-2-2v-2l2-2h2Z"/><path class="cls-4" d="M12.5,2.53h2l2,2v2l-2,2h-2l-2-2v-2Z"/></g></g></svg>