<svg xmlns="http://www.w3.org/2000/svg" viewBox="0 0 13.41 32.84"><defs><style>.cls-1,.cls-5,.cls-6{stroke:#000;}.cls-2{fill:#f0f0f0;stroke:#e0e0e0;}.cls-3{fill:red;stroke:red;}.cls-4{fill:#fff;stroke:#fff;}.cls-5{fill:lime;}.cls-6{fill:#5a0000;}</style></defs><title>4</title><g id="Layer_2" data-name="Layer 2"><g id="Layer_1-2" data-name="Layer 1"><path class="cls-1" d="M7.25,26.88v3.27h3.27v2.18H2.89V30.15H6.16V26.88Z"/><path class="cls-2" d="M7.25.71V26.88H6.16V.71Z"/><path class="cls-3" d="M11.61,9.43,9.43,11.61.71,2.89,2.89.71Z"/><path class="cls-4" d="M2.89,5.07,5.07,2.89,4,1.8,1.8,4Z"/><path class="cls-1" d="M11.61,9.43l1.09,1.09L10.52,12.7,9.43,11.61Z"/><path class="cls-5" d="M11.61,10.52v1.09L10.52,12.7H9.43L8.34,11.61V10.52L9.43,9.43h1.09Z"/><path class="cls-6" d="M8.34,11.61V12.7L7.25,13.79H6.16L5.07,12.7V11.61l1.09-1.09H7.25Z"/></g></g></svg>