<svg width='243' height='263' viewBox='29 -40 243 263'>
<g class="BSw1"><path class="L LSwO SwS0o" nr="16" part="CRail" transform="translate(78.5786,167.34135623731) rotate(0)" d="M 0,0 l 0,-17.28699648763768 a 39.033402986180704,39.033402986180704 0,0,1 39.03340298618082,-39.03340298618059" style="fill:none;stroke:lightgrey;stroke-width:6px;"/>
<path class="L LSwO SwS1o" nr="9" part="CRail" transform="translate(63.933939059328,76.066017177982) rotate(0)" d="M 0,0 l 21.715691398745548,21.71569139874549 a 45.201620714871126,45.201620714871126 0,0,0 31.962372528107835,13.239248186763461" style="fill:none;stroke:lightgrey;stroke-width:6px;opacity:0;"/>
</g><g class="BSw0"><path class="L LSwO SwS0o" nr="7" part="CRail" transform="translate(49.289278118655,40.710678118655) rotate(90)" d="M -0.2,0 h 0.2 a 50,50 0,0,0 35.35533905932737,-14.64466094067262 l 0.14142135623730953,-0.1414213562373095" style="fill:none;stroke:lightgrey;stroke-width:6px;"/>
<line class="L LSwO SwS1o" nr="4" part="RS" transform="translate(49.2893,40.701356237309) rotate(90)" x1="-0.2" x2="162.2" y2="0" style="fill:none;stroke:lightgrey;stroke-width:6px;opacity:0;"/>
</g><g class="B0">
<line class="L" nr="0" part="RS" transform="translate(169.99995623731,20) rotate(0)" x1="-0.2" x2="82.2" y2="0" style="fill:none;stroke:#555;stroke-width:6px;"/>
<path class="L" nr="6" part="CRail" transform="translate(134.64461717798,5.3553390593274) rotate(225)" d="M -0.2,0 h 0.2 a 50,50 0,0,0 35.35533905932737,-14.64466094067262 l 0.14142135623730953,-0.1414213562373095" style="fill:none;stroke:#555;stroke-width:6px;"/>
<path class="L" nr="8" part="CRail" transform="translate(134.64461717798,5.3553390593274) rotate(45)" d="M -0.2,0 h 0.2 a 50,50 0,0,0 35.35533905932737,-14.64466094067262 l 0.14142135623730953,-0.1414213562373095" style="fill:none;stroke:#555;stroke-width:6px;"/>
</g>
<g class="B3">
<line class="L" nr="1" part="RS" transform="translate(209.99995623731,49.2893) rotate(0)" x1="-0.2" x2="42.2" y2="0" style="fill:none;stroke:#555;stroke-width:6px;"/>
<path class="L" nr="2" part="CRail" transform="translate(209.99995623731,49.2893) rotate(180)" d="M -0.2,0 h 0.2 a 50,50 0,0,0 46.19397662556434,-30.86582838174551 l 0.07653668647301798,-0.18477590650225736" style="fill:none;stroke:#555;stroke-width:6px;"/>
</g>
<g class="B2">
<g class="Sw1 SwGroup">
<path class="L LSw SwS0" nr="9" part="CRail" transform="translate(63.933939059328,76.066017177982) rotate(0)" d="M 0,0 l 21.715691398745548,21.71569139874549 a 45.201620714871126,45.201620714871126 0,0,0 31.962372528107835,13.239248186763461" style="fill:none;stroke:#555;stroke-width:6px;"/>
<path class="L LSw SwS1" nr="16" part="CRail" transform="translate(78.5786,167.34135623731) rotate(0)" d="M 0,0 l 0,-17.28699648763768 a 39.033402986180704,39.033402986180704 0,0,1 39.03340298618082,-39.03340298618059" style="fill:none;stroke:#555;stroke-width:6px;opacity:0;"/>
</g>
<path class="L" nr="3" part="CRail" transform="translate(117.61200298618,111.02095676349) rotate(0)" d="M -0.2,0 h 0.2 a 50,50 0,0,0 46.19397662556434,-30.86582838174551 l 0.07653668647301798,-0.18477590650225736" style="fill:none;stroke:#555;stroke-width:6px;"/>
<line class="L" nr="15" part="RS" transform="translate(78.5786,167.34135623731) rotate(90)" x1="-0.2" x2="35.56" y2="0" style="fill:none;stroke:#555;stroke-width:6px;"/>
</g>
<g class="B1">
<g class="Sw0 SwGroup">
<line class="L LSw SwS0" nr="4" part="RS" transform="translate(49.2893,40.701356237309) rotate(90)" x1="-0.2" x2="162.2" y2="0" style="fill:none;stroke:#555;stroke-width:6px;"/>
<path class="L LSw SwS1" nr="7" part="CRail" transform="translate(49.289278118655,40.710678118655) rotate(90)" d="M -0.2,0 h 0.2 a 50,50 0,0,0 35.35533905932737,-14.64466094067262 l 0.14142135623730953,-0.1414213562373095" style="fill:none;stroke:#555;stroke-width:6px;opacity:0;"/>
</g>
<path class="L" nr="5" part="CRail" transform="translate(99.289278118655,-9.2893218813452) rotate(180)" d="M -0.2,0 h 0.2 a 50,50 0,0,0 50,-49.99999999999999 l 1.2246467991473533e-17,-0.2" style="fill:none;stroke:#555;stroke-width:6px;"/>
</g>
<g class='Signals'>
</g>
</svg>
