<svg preserveAspectRatio="xMidYMid meet" xmlns:dc="http://purl.org/dc/elements/1.1/" xmlns:cc="http://creativecommons.org/ns#" xmlns:rdf="http://www.w3.org/1999/02/22-rdf-syntax-ns#" xmlns:svg="http://www.w3.org/2000/svg" xmlns="http://www.w3.org/2000/svg" viewBox="0 0 800 140" id="svg6" height="140px" width="800px" version="1.1">
  <metadata id="metadata12">
    <rdf:rdf>
      <cc:work rdf:about="">
        <dc:format>image/svg+xml</dc:format>
      </cc:work>
    </rdf:rdf>
  </metadata>
  <defs id="defs10"></defs>
  <path class="B" d="M 0,40 h 800"></path>
  <path class="B" d="M 0,60 h 800"></path>
  <path class="B" d="M 163.5,20 h 473"></path>
  <path class="B" d="M 163.5,80 h 607.5"></path>
  <path class="B" d="M 183.5,100 h 587.5"></path>
  <!-- Switch rails -->
  <path class="B" d="M 102.5,39 l 22,22"></path>
  <path class="B" d="M 675.5,61 l 22,-22"></path>

  <path class="B" d="M 144,41 l 22,-22"></path>
  <path class="B" d="M 144,59 l 42,42"></path>

  <path class="B" d="M 634,19 l 22,22"></path>
  <path class="B" d="M 614,101 l 42,-42"></path>

<!--
  <path class="W" d="M 5,40 h 790"></path>
  <path class="W" d="M 5,60 h 790"></path>
-->
  <g>
    <g id="B0">
      <path class="L" style="stroke: rgb(0, 255, 0);" d="M 0,40 h 104"></path>
    </g>
    <g id="B1">
      <path class="Sw0D L" style="stroke: rgb(0, 255, 0); opacity: 1;" d="M 103.5,40 l 10,10"></path>
      <path class="Sw0S L" style="stroke: rgb(0, 255, 0); opacity: 0;" d="M 104,40 h 22"></path>
      <path class="L" style="stroke: rgb(0, 255, 0);" d="M 126,40 h 19.5"></path>

      <path class="L" style="stroke: rgb(0, 255, 0);" d="M 164.5,20 h 35.5"></path>

      <path class="Sw1D L" style="stroke: rgb(0, 255, 0); opacity: 1;" d="M 145,40 l 20,-20"></path>
      <path class="Sw1S L" style="stroke: rgb(0, 255, 0); opacity: 0;" d="M 145.5,40 h 54.5"></path>

      <rect x="104" y="39" height="11" width="22" class="Switch" onclick="throw_Switch('S',4,0);" style="cursor: pointer;"></rect>
      <rect x="143" y="19" height="22" width="22" class="Switch" onclick="throw_Switch('S',4,1);" style="cursor: pointer;"></rect>
    </g>

    <g id="B2">
      <path class="L" style="stroke: rgb(255, 119, 0);" d="M 200,20 h 100"></path>
      <g class="Signal"></g>
        <path class="Sig" d="M 200,13 h 6"></path>
        <path d="M200 13 h 0" style="stroke-linecap:round;stroke:green;fill:none;vector-effects:non-scaling-stroke;stroke-width:2px"></path>
        <path d="M203 13 h 0" style="stroke-linecap:round;stroke:orange;fill:none;vector-effects:non-scaling-stroke;stroke-width:2px"></path>
        <path d="M206 13 h 0" style="stroke-linecap:round;stroke:red;fill:none;vector-effects:non-scaling-stroke;stroke-width:2px"></path>
      </g>
    </g>
    <g id="B3">
      <path class="L" style="stroke: rgb(0, 255, 0);" d="M 300,20 h 100"></path>
    </g>
    <g id="B4">
      <path class="L" style="stroke: rgb(0, 255, 0);" d="M 400,20 h 100"></path>
    </g>
    <g id="B5">
      <path class="L" style="stroke: rgb(0, 255, 0);" d="M 500,20 h 100"></path>
    </g>

    <g id="B6">
      <path class="L" style="stroke: rgb(255, 119, 0);" d="M 200,40 h 100"></path>
      <g class="Signal"></g>
        <path class="Sig" d="M 200,33 h 6"></path>
        <path d="M200 33 h 0" style="stroke-linecap:round;stroke:green;fill:none;vector-effects:non-scaling-stroke;stroke-width:2px"></path>
        <path d="M203 33 h 0" style="stroke-linecap:round;stroke:orange;fill:none;vector-effects:non-scaling-stroke;stroke-width:2px"></path>
        <path d="M206 33 h 0" style="stroke-linecap:round;stroke:red;fill:none;vector-effects:non-scaling-stroke;stroke-width:2px"></path>
      </g>
    <g id="B7">
      <path class="L" style="stroke: rgb(0, 255, 0);" d="M 300,40 h 100"></path>
    </g>
    <g id="B8">
      <path class="L" style="stroke: rgb(0, 255, 0);" d="M 400,40 h 100"></path>
    </g>
    <g id="B9">
      <path class="L" style="stroke: rgb(0, 255, 0);" d="M 500,40 h 100"></path>
    </g>

    <g id="B10">
      <path class="L" style="stroke: rgb(0, 255, 0);" d="M 654.5,40 h 21.5"></path>

      <path class="Sw5D L" style="stroke: rgb(0, 255, 0); opacity: 1;" d="M 655,40 l -20,-20"></path>
      <path class="Sw5S L" style="stroke: rgb(0, 255, 0); opacity: 0;" d="M 600,40 h 54.5"></path>

      <path class="L" style="stroke: rgb(0, 255, 0);" d="M 600,20 h 35.5"></path>

      <path class="Sw6D L" style="stroke: rgb(0, 255, 0); opacity: 1;" d="M 696.5,40 l -10,10"></path>
      <path class="Sw6S L" style="stroke: rgb(0, 255, 0); opacity: 0;" d="M 697,40 h -21"></path>

      <rect x="676" y="39" height="11" width="22" class="Switch" onclick="throw_Switch('S',4,6);" style="cursor: pointer;"></rect>
      <rect x="634" y="19" height="22" width="22" class="Switch" onclick="throw_Switch('S',4,5);" style="cursor: pointer;"></rect>
    </g>
    <g id="B11">
      <path class="L" style="stroke: rgb(0, 255, 0);" d="M 800,40 h -104"></path>
    </g>

    <g id="B12">
      <path class="L" style="stroke: rgb(255, 119, 0);" d="M 0,60 h 104"></path>
    </g>
    <g id="B13">

      <path class="Sw2D L" style="stroke: rgb(0, 255, 0); opacity: 1;" d="M 123.5,60 l -10,-10"></path>
      <path class="Sw2S L" style="stroke: rgb(0, 255, 0); opacity: 0;" d="M 104,60 h 19"></path>
      <path class="L" style="stroke: rgb(0, 255, 0);" d="M 123,60 h 22"></path>

      <path class="Sw3D L" style="stroke: rgb(0, 255, 0); opacity: 0;" d="M 145,60 l 20,20"></path>
      <path class="Sw3S L" style="stroke: rgb(0, 255, 0); opacity: 1;" d="M 145,60 h 55"></path>
      <path class="Sw4S L" style="stroke: rgb(0, 255, 0); opacity: 1;" d="M 165,80 l 20,20"></path>
      <path class="Sw4D L" style="stroke: rgb(0, 255, 0); opacity: 0;" d="M 164.5,80 h 35.5"></path>
      <path class="L" style="stroke: rgb(0, 255, 0);" d="M 184.5,100 h 15.5"></path>

      <rect x="104" y="50" height="11" width="22" class="Switch" onclick="throw_Switch('S',4,2);" style="cursor: pointer;"></rect>
      <rect x="144" y="59" height="22" width="22" class="Switch" onclick="throw_Switch('S',4,3);" style="cursor: pointer;"></rect>
      <rect x="164" y="79" height="22" width="22" class="Switch" onclick="throw_Switch('S',4,4);" style="cursor: pointer;"></rect>
    </g>

    <g id="B14">
      <path class="L" style="stroke: rgb(0, 255, 0);" d="M 200,60 h 100"></path>
      <g class="Signal"></g>
        <path class="Sig" d="M 200,53 h 6"></path>
        <path d="M200 53 h 0" style="stroke-linecap:round;stroke:green;fill:none;vector-effects:non-scaling-stroke;stroke-width:2px"></path>
        <path d="M203 53 h 0" style="stroke-linecap:round;stroke:orange;fill:none;vector-effects:non-scaling-stroke;stroke-width:2px"></path>
        <path d="M206 53 h 0" style="stroke-linecap:round;stroke:red;fill:none;vector-effects:non-scaling-stroke;stroke-width:2px"></path>
      </g>
    <g id="B15">
      <path class="L" style="stroke: rgb(0, 255, 0);" d="M 300,60 h 100"></path>
    </g>
    <g id="B16">
      <path class="L" style="stroke: rgb(0, 255, 0);" d="M 400,60 h 100"></path>
    </g>
    <g id="B17">
      <path class="L" style="stroke: rgb(0, 255, 0);" d="M 500,60 h 100"></path>
      <g class="Signal"></g>
        <path class="Sig" d="M 600,67 h -6"></path>
        <path d="M600 67 h 0" style="stroke-linecap:round;stroke:green;fill:none;vector-effects:non-scaling-stroke;stroke-width:2px"></path>
        <path d="M597 67 h 0" style="stroke-linecap:round;stroke:orange;fill:none;vector-effects:non-scaling-stroke;stroke-width:2px"></path>
        <path d="M594 67 h 0" style="stroke-linecap:round;stroke:red;fill:none;vector-effects:non-scaling-stroke;stroke-width:2px"></path>
      </g>

    <g id="B18">
      <path class="L" style="stroke: rgb(0, 255, 0);" d="M 200,80 h 100"></path>
      <g class="Signal"></g>
        <path class="Sig" d="M 200,73 h 6"></path>
        <path d="M200 73 h 0" style="stroke-linecap:round;stroke:green;fill:none;vector-effects:non-scaling-stroke;stroke-width:2px"></path>
        <path d="M203 73 h 0" style="stroke-linecap:round;stroke:orange;fill:none;vector-effects:non-scaling-stroke;stroke-width:2px"></path>
        <path d="M206 73 h 0" style="stroke-linecap:round;stroke:red;fill:none;vector-effects:non-scaling-stroke;stroke-width:2px"></path>
      </g>
    <g id="B19">
      <path class="L" style="stroke: rgb(0, 255, 0);" d="M 300,80 h 100"></path>
    </g>
    <g id="B20">
      <path class="L" style="stroke: rgb(0, 255, 0);" d="M 400,80 h 100"></path>
    </g>
    <g id="B21">
      <path class="L" style="stroke: rgb(255, 119, 0);" d="M 500,80 h 100"></path>
      <g class="Signal"></g>
        <path class="Sig" d="M 600,87 h -6"></path>
        <path d="M600 87 h 0" style="stroke-linecap:round;stroke:green;fill:none;vector-effects:non-scaling-stroke;stroke-width:2px"></path>
        <path d="M597 87 h 0" style="stroke-linecap:round;stroke:orange;fill:none;vector-effects:non-scaling-stroke;stroke-width:2px"></path>
        <path d="M594 87 h 0" style="stroke-linecap:round;stroke:red;fill:none;vector-effects:non-scaling-stroke;stroke-width:2px"></path>
      </g>

    <g id="B22">
      <path class="L" style="stroke: rgb(0, 255, 0);" d="M 200,100 h 100"></path>
      <g class="Signal"></g>
        <path class="Sig" d="M 200,93 h 6"></path>
        <path d="M200 93 h 0" style="stroke-linecap:round;stroke:green;fill:none;vector-effects:non-scaling-stroke;stroke-width:2px"></path>
        <path d="M203 93 h 0" style="stroke-linecap:round;stroke:orange;fill:none;vector-effects:non-scaling-stroke;stroke-width:2px"></path>
        <path d="M206 93 h 0" style="stroke-linecap:round;stroke:red;fill:none;vector-effects:non-scaling-stroke;stroke-width:2px"></path>
      </g>
    <g id="B23">
      <path class="L" style="stroke: rgb(0, 255, 0);" d="M 300,100 h 100"></path>
    </g>
    <g id="B24">
      <path class="L" style="stroke: rgb(0, 255, 0);" d="M 400,100 h 100"></path>
    </g>
    <g id="B25">
      <path class="L" style="stroke: rgb(255, 119, 0);" d="M 500,100 h 100"></path>
      <g class="Signal"></g>
        <path class="Sig" d="M 600,107 h -6"></path>
        <path d="M600 107 h 0" style="stroke-linecap:round;stroke:green;fill:none;vector-effects:non-scaling-stroke;stroke-width:2px"></path>
        <path d="M597 107 h 0" style="stroke-linecap:round;stroke:orange;fill:none;vector-effects:non-scaling-stroke;stroke-width:2px"></path>
        <path d="M594 107 h 0" style="stroke-linecap:round;stroke:red;fill:none;vector-effects:non-scaling-stroke;stroke-width:2px"></path>
      </g>

    <g id="B26">
      <path class="L" style="stroke: rgb(0, 255, 0);" d="M 677,60 h -22.5"></path>

      <path class="Sw7D L" style="stroke: rgb(0, 255, 0); opacity: 0;" d="M 635,80 l 20,-20"></path>
      <path class="Sw7S L" style="stroke: rgb(0, 255, 0); opacity: 1;" d="M 600,60 h 55"></path>
      <path class="Sw9S L" style="stroke: rgb(0, 255, 0); opacity: 1;" d="M 615,100 l 20,-20"></path>
      <path class="Sw9D L" style="stroke: rgb(0, 255, 0); opacity: 0;" d="M 600,80 h 35.5"></path>
      <path class="L" style="stroke: rgb(0, 255, 0);" d="M 600,100 h 15.5"></path>

      <path class="Sw8D L" style="stroke: rgb(0, 255, 0); opacity: 1;" d="M 676.5,60 l 10,-10"></path>
      <path class="Sw8S L" style="stroke: rgb(0, 255, 0); opacity: 0;" d="M 696,60 h -19"></path>

      <rect x="676" y="50" height="11" width="22" class="Switch" onclick="throw_Switch('S',4,8);" style="cursor: pointer;"></rect>
      <rect x="634" y="59" height="22" width="22" class="Switch" onclick="throw_Switch('S',4,7);" style="cursor: pointer;"></rect>
      <rect x="614" y="79" height="22" width="22" class="Switch" onclick="throw_Switch('S',4,9);" style="cursor: pointer;"></rect>
    </g>
    <g id="B27">
      <path class="L" style="stroke: rgb(0, 255, 0);" d="M 800,60 h -104"></path>
    </g>

</svg>
