<svg width='189' height='256' viewBox='-90 -37 189 256'>
<g class="B0">
<path class="L" nr="0" part="CRail" transform="translate(26.066067692155,72.512532307845) rotate(225)" d="M -0.2,0 h 0.2 a 179.289,179.289 0,0,0 126.7764676921549,-52.51253230784507 l 0.14142135623730953,-0.1414213562373095" style="fill:none;stroke:#555;stroke-width:6px;"/>
</g>
<g class="B1">
<path class="L" nr="1" part="CRail" transform="translate(78.5786,199.289) rotate(270)" d="M -0.2,0 h 0.2 a 179.289,179.289 0,0,0 126.7764676921549,-52.51253230784507 l 0.14142135623730953,-0.1414213562373095" style="fill:none;stroke:#555;stroke-width:6px;"/>
</g>
<g class="B2">
<path class="L" nr="2" part="CRail" transform="translate(5.3556171779821,93.223282822018) rotate(225)" d="M -0.2,0 h 0.2 a 150,150 0,0,0 106.06601717798212,-43.93398282201787 l 0.14142135623730953,-0.1414213562373095" style="fill:none;stroke:#555;stroke-width:6px;"/>
</g>
<g class="B3">
<path class="L" nr="3" part="CRail" transform="translate(49.2896,199.2893) rotate(270)" d="M -0.2,0 h 0.2 a 150,150 0,0,0 106.06601717798212,-43.93398282201787 l 0.14142135623730953,-0.1414213562373095" style="fill:none;stroke:#555;stroke-width:6px;"/>
</g>
<g class='Signals'>
</g>
</svg>
