G75*
%MOIN*%
%OFA0B0*%
%FSLAX25Y25*%
%IPPOS*%
%LPD*%
%AMOC8*
5,1,8,0,0,1.08239X$1,22.5*
%
%ADD10C,0.00000*%
%ADD11C,0.00600*%
%ADD12C,0.01600*%
%ADD13C,0.00500*%
%ADD14C,0.06600*%
%ADD15C,0.01000*%
%ADD16C,0.00400*%
D10*
X0001000Y0001000D02*
X0001000Y0204701D01*
X0115921Y0204701D01*
X0115921Y0001000D01*
X0001000Y0001000D01*
X0052398Y0013500D02*
X0052400Y0013656D01*
X0052406Y0013812D01*
X0052416Y0013967D01*
X0052430Y0014122D01*
X0052448Y0014277D01*
X0052470Y0014431D01*
X0052495Y0014585D01*
X0052525Y0014738D01*
X0052559Y0014890D01*
X0052596Y0015042D01*
X0052637Y0015192D01*
X0052682Y0015341D01*
X0052731Y0015489D01*
X0052784Y0015636D01*
X0052840Y0015781D01*
X0052900Y0015925D01*
X0052964Y0016067D01*
X0053032Y0016208D01*
X0053103Y0016346D01*
X0053177Y0016483D01*
X0053255Y0016618D01*
X0053336Y0016751D01*
X0053421Y0016882D01*
X0053509Y0017011D01*
X0053600Y0017137D01*
X0053695Y0017261D01*
X0053792Y0017382D01*
X0053893Y0017501D01*
X0053997Y0017618D01*
X0054103Y0017731D01*
X0054213Y0017842D01*
X0054325Y0017950D01*
X0054440Y0018055D01*
X0054558Y0018158D01*
X0054678Y0018257D01*
X0054801Y0018353D01*
X0054926Y0018446D01*
X0055053Y0018535D01*
X0055183Y0018622D01*
X0055315Y0018705D01*
X0055449Y0018784D01*
X0055585Y0018861D01*
X0055723Y0018933D01*
X0055862Y0019003D01*
X0056004Y0019068D01*
X0056147Y0019130D01*
X0056291Y0019188D01*
X0056437Y0019243D01*
X0056585Y0019294D01*
X0056733Y0019341D01*
X0056883Y0019384D01*
X0057034Y0019423D01*
X0057186Y0019459D01*
X0057338Y0019490D01*
X0057492Y0019518D01*
X0057646Y0019542D01*
X0057800Y0019562D01*
X0057955Y0019578D01*
X0058111Y0019590D01*
X0058266Y0019598D01*
X0058422Y0019602D01*
X0058578Y0019602D01*
X0058734Y0019598D01*
X0058889Y0019590D01*
X0059045Y0019578D01*
X0059200Y0019562D01*
X0059354Y0019542D01*
X0059508Y0019518D01*
X0059662Y0019490D01*
X0059814Y0019459D01*
X0059966Y0019423D01*
X0060117Y0019384D01*
X0060267Y0019341D01*
X0060415Y0019294D01*
X0060563Y0019243D01*
X0060709Y0019188D01*
X0060853Y0019130D01*
X0060996Y0019068D01*
X0061138Y0019003D01*
X0061277Y0018933D01*
X0061415Y0018861D01*
X0061551Y0018784D01*
X0061685Y0018705D01*
X0061817Y0018622D01*
X0061947Y0018535D01*
X0062074Y0018446D01*
X0062199Y0018353D01*
X0062322Y0018257D01*
X0062442Y0018158D01*
X0062560Y0018055D01*
X0062675Y0017950D01*
X0062787Y0017842D01*
X0062897Y0017731D01*
X0063003Y0017618D01*
X0063107Y0017501D01*
X0063208Y0017382D01*
X0063305Y0017261D01*
X0063400Y0017137D01*
X0063491Y0017011D01*
X0063579Y0016882D01*
X0063664Y0016751D01*
X0063745Y0016618D01*
X0063823Y0016483D01*
X0063897Y0016346D01*
X0063968Y0016208D01*
X0064036Y0016067D01*
X0064100Y0015925D01*
X0064160Y0015781D01*
X0064216Y0015636D01*
X0064269Y0015489D01*
X0064318Y0015341D01*
X0064363Y0015192D01*
X0064404Y0015042D01*
X0064441Y0014890D01*
X0064475Y0014738D01*
X0064505Y0014585D01*
X0064530Y0014431D01*
X0064552Y0014277D01*
X0064570Y0014122D01*
X0064584Y0013967D01*
X0064594Y0013812D01*
X0064600Y0013656D01*
X0064602Y0013500D01*
X0064600Y0013344D01*
X0064594Y0013188D01*
X0064584Y0013033D01*
X0064570Y0012878D01*
X0064552Y0012723D01*
X0064530Y0012569D01*
X0064505Y0012415D01*
X0064475Y0012262D01*
X0064441Y0012110D01*
X0064404Y0011958D01*
X0064363Y0011808D01*
X0064318Y0011659D01*
X0064269Y0011511D01*
X0064216Y0011364D01*
X0064160Y0011219D01*
X0064100Y0011075D01*
X0064036Y0010933D01*
X0063968Y0010792D01*
X0063897Y0010654D01*
X0063823Y0010517D01*
X0063745Y0010382D01*
X0063664Y0010249D01*
X0063579Y0010118D01*
X0063491Y0009989D01*
X0063400Y0009863D01*
X0063305Y0009739D01*
X0063208Y0009618D01*
X0063107Y0009499D01*
X0063003Y0009382D01*
X0062897Y0009269D01*
X0062787Y0009158D01*
X0062675Y0009050D01*
X0062560Y0008945D01*
X0062442Y0008842D01*
X0062322Y0008743D01*
X0062199Y0008647D01*
X0062074Y0008554D01*
X0061947Y0008465D01*
X0061817Y0008378D01*
X0061685Y0008295D01*
X0061551Y0008216D01*
X0061415Y0008139D01*
X0061277Y0008067D01*
X0061138Y0007997D01*
X0060996Y0007932D01*
X0060853Y0007870D01*
X0060709Y0007812D01*
X0060563Y0007757D01*
X0060415Y0007706D01*
X0060267Y0007659D01*
X0060117Y0007616D01*
X0059966Y0007577D01*
X0059814Y0007541D01*
X0059662Y0007510D01*
X0059508Y0007482D01*
X0059354Y0007458D01*
X0059200Y0007438D01*
X0059045Y0007422D01*
X0058889Y0007410D01*
X0058734Y0007402D01*
X0058578Y0007398D01*
X0058422Y0007398D01*
X0058266Y0007402D01*
X0058111Y0007410D01*
X0057955Y0007422D01*
X0057800Y0007438D01*
X0057646Y0007458D01*
X0057492Y0007482D01*
X0057338Y0007510D01*
X0057186Y0007541D01*
X0057034Y0007577D01*
X0056883Y0007616D01*
X0056733Y0007659D01*
X0056585Y0007706D01*
X0056437Y0007757D01*
X0056291Y0007812D01*
X0056147Y0007870D01*
X0056004Y0007932D01*
X0055862Y0007997D01*
X0055723Y0008067D01*
X0055585Y0008139D01*
X0055449Y0008216D01*
X0055315Y0008295D01*
X0055183Y0008378D01*
X0055053Y0008465D01*
X0054926Y0008554D01*
X0054801Y0008647D01*
X0054678Y0008743D01*
X0054558Y0008842D01*
X0054440Y0008945D01*
X0054325Y0009050D01*
X0054213Y0009158D01*
X0054103Y0009269D01*
X0053997Y0009382D01*
X0053893Y0009499D01*
X0053792Y0009618D01*
X0053695Y0009739D01*
X0053600Y0009863D01*
X0053509Y0009989D01*
X0053421Y0010118D01*
X0053336Y0010249D01*
X0053255Y0010382D01*
X0053177Y0010517D01*
X0053103Y0010654D01*
X0053032Y0010792D01*
X0052964Y0010933D01*
X0052900Y0011075D01*
X0052840Y0011219D01*
X0052784Y0011364D01*
X0052731Y0011511D01*
X0052682Y0011659D01*
X0052637Y0011808D01*
X0052596Y0011958D01*
X0052559Y0012110D01*
X0052525Y0012262D01*
X0052495Y0012415D01*
X0052470Y0012569D01*
X0052448Y0012723D01*
X0052430Y0012878D01*
X0052416Y0013033D01*
X0052406Y0013188D01*
X0052400Y0013344D01*
X0052398Y0013500D01*
X0004898Y0191000D02*
X0004900Y0191156D01*
X0004906Y0191312D01*
X0004916Y0191467D01*
X0004930Y0191622D01*
X0004948Y0191777D01*
X0004970Y0191931D01*
X0004995Y0192085D01*
X0005025Y0192238D01*
X0005059Y0192390D01*
X0005096Y0192542D01*
X0005137Y0192692D01*
X0005182Y0192841D01*
X0005231Y0192989D01*
X0005284Y0193136D01*
X0005340Y0193281D01*
X0005400Y0193425D01*
X0005464Y0193567D01*
X0005532Y0193708D01*
X0005603Y0193846D01*
X0005677Y0193983D01*
X0005755Y0194118D01*
X0005836Y0194251D01*
X0005921Y0194382D01*
X0006009Y0194511D01*
X0006100Y0194637D01*
X0006195Y0194761D01*
X0006292Y0194882D01*
X0006393Y0195001D01*
X0006497Y0195118D01*
X0006603Y0195231D01*
X0006713Y0195342D01*
X0006825Y0195450D01*
X0006940Y0195555D01*
X0007058Y0195658D01*
X0007178Y0195757D01*
X0007301Y0195853D01*
X0007426Y0195946D01*
X0007553Y0196035D01*
X0007683Y0196122D01*
X0007815Y0196205D01*
X0007949Y0196284D01*
X0008085Y0196361D01*
X0008223Y0196433D01*
X0008362Y0196503D01*
X0008504Y0196568D01*
X0008647Y0196630D01*
X0008791Y0196688D01*
X0008937Y0196743D01*
X0009085Y0196794D01*
X0009233Y0196841D01*
X0009383Y0196884D01*
X0009534Y0196923D01*
X0009686Y0196959D01*
X0009838Y0196990D01*
X0009992Y0197018D01*
X0010146Y0197042D01*
X0010300Y0197062D01*
X0010455Y0197078D01*
X0010611Y0197090D01*
X0010766Y0197098D01*
X0010922Y0197102D01*
X0011078Y0197102D01*
X0011234Y0197098D01*
X0011389Y0197090D01*
X0011545Y0197078D01*
X0011700Y0197062D01*
X0011854Y0197042D01*
X0012008Y0197018D01*
X0012162Y0196990D01*
X0012314Y0196959D01*
X0012466Y0196923D01*
X0012617Y0196884D01*
X0012767Y0196841D01*
X0012915Y0196794D01*
X0013063Y0196743D01*
X0013209Y0196688D01*
X0013353Y0196630D01*
X0013496Y0196568D01*
X0013638Y0196503D01*
X0013777Y0196433D01*
X0013915Y0196361D01*
X0014051Y0196284D01*
X0014185Y0196205D01*
X0014317Y0196122D01*
X0014447Y0196035D01*
X0014574Y0195946D01*
X0014699Y0195853D01*
X0014822Y0195757D01*
X0014942Y0195658D01*
X0015060Y0195555D01*
X0015175Y0195450D01*
X0015287Y0195342D01*
X0015397Y0195231D01*
X0015503Y0195118D01*
X0015607Y0195001D01*
X0015708Y0194882D01*
X0015805Y0194761D01*
X0015900Y0194637D01*
X0015991Y0194511D01*
X0016079Y0194382D01*
X0016164Y0194251D01*
X0016245Y0194118D01*
X0016323Y0193983D01*
X0016397Y0193846D01*
X0016468Y0193708D01*
X0016536Y0193567D01*
X0016600Y0193425D01*
X0016660Y0193281D01*
X0016716Y0193136D01*
X0016769Y0192989D01*
X0016818Y0192841D01*
X0016863Y0192692D01*
X0016904Y0192542D01*
X0016941Y0192390D01*
X0016975Y0192238D01*
X0017005Y0192085D01*
X0017030Y0191931D01*
X0017052Y0191777D01*
X0017070Y0191622D01*
X0017084Y0191467D01*
X0017094Y0191312D01*
X0017100Y0191156D01*
X0017102Y0191000D01*
X0017100Y0190844D01*
X0017094Y0190688D01*
X0017084Y0190533D01*
X0017070Y0190378D01*
X0017052Y0190223D01*
X0017030Y0190069D01*
X0017005Y0189915D01*
X0016975Y0189762D01*
X0016941Y0189610D01*
X0016904Y0189458D01*
X0016863Y0189308D01*
X0016818Y0189159D01*
X0016769Y0189011D01*
X0016716Y0188864D01*
X0016660Y0188719D01*
X0016600Y0188575D01*
X0016536Y0188433D01*
X0016468Y0188292D01*
X0016397Y0188154D01*
X0016323Y0188017D01*
X0016245Y0187882D01*
X0016164Y0187749D01*
X0016079Y0187618D01*
X0015991Y0187489D01*
X0015900Y0187363D01*
X0015805Y0187239D01*
X0015708Y0187118D01*
X0015607Y0186999D01*
X0015503Y0186882D01*
X0015397Y0186769D01*
X0015287Y0186658D01*
X0015175Y0186550D01*
X0015060Y0186445D01*
X0014942Y0186342D01*
X0014822Y0186243D01*
X0014699Y0186147D01*
X0014574Y0186054D01*
X0014447Y0185965D01*
X0014317Y0185878D01*
X0014185Y0185795D01*
X0014051Y0185716D01*
X0013915Y0185639D01*
X0013777Y0185567D01*
X0013638Y0185497D01*
X0013496Y0185432D01*
X0013353Y0185370D01*
X0013209Y0185312D01*
X0013063Y0185257D01*
X0012915Y0185206D01*
X0012767Y0185159D01*
X0012617Y0185116D01*
X0012466Y0185077D01*
X0012314Y0185041D01*
X0012162Y0185010D01*
X0012008Y0184982D01*
X0011854Y0184958D01*
X0011700Y0184938D01*
X0011545Y0184922D01*
X0011389Y0184910D01*
X0011234Y0184902D01*
X0011078Y0184898D01*
X0010922Y0184898D01*
X0010766Y0184902D01*
X0010611Y0184910D01*
X0010455Y0184922D01*
X0010300Y0184938D01*
X0010146Y0184958D01*
X0009992Y0184982D01*
X0009838Y0185010D01*
X0009686Y0185041D01*
X0009534Y0185077D01*
X0009383Y0185116D01*
X0009233Y0185159D01*
X0009085Y0185206D01*
X0008937Y0185257D01*
X0008791Y0185312D01*
X0008647Y0185370D01*
X0008504Y0185432D01*
X0008362Y0185497D01*
X0008223Y0185567D01*
X0008085Y0185639D01*
X0007949Y0185716D01*
X0007815Y0185795D01*
X0007683Y0185878D01*
X0007553Y0185965D01*
X0007426Y0186054D01*
X0007301Y0186147D01*
X0007178Y0186243D01*
X0007058Y0186342D01*
X0006940Y0186445D01*
X0006825Y0186550D01*
X0006713Y0186658D01*
X0006603Y0186769D01*
X0006497Y0186882D01*
X0006393Y0186999D01*
X0006292Y0187118D01*
X0006195Y0187239D01*
X0006100Y0187363D01*
X0006009Y0187489D01*
X0005921Y0187618D01*
X0005836Y0187749D01*
X0005755Y0187882D01*
X0005677Y0188017D01*
X0005603Y0188154D01*
X0005532Y0188292D01*
X0005464Y0188433D01*
X0005400Y0188575D01*
X0005340Y0188719D01*
X0005284Y0188864D01*
X0005231Y0189011D01*
X0005182Y0189159D01*
X0005137Y0189308D01*
X0005096Y0189458D01*
X0005059Y0189610D01*
X0005025Y0189762D01*
X0004995Y0189915D01*
X0004970Y0190069D01*
X0004948Y0190223D01*
X0004930Y0190378D01*
X0004916Y0190533D01*
X0004906Y0190688D01*
X0004900Y0190844D01*
X0004898Y0191000D01*
X0099898Y0191000D02*
X0099900Y0191156D01*
X0099906Y0191312D01*
X0099916Y0191467D01*
X0099930Y0191622D01*
X0099948Y0191777D01*
X0099970Y0191931D01*
X0099995Y0192085D01*
X0100025Y0192238D01*
X0100059Y0192390D01*
X0100096Y0192542D01*
X0100137Y0192692D01*
X0100182Y0192841D01*
X0100231Y0192989D01*
X0100284Y0193136D01*
X0100340Y0193281D01*
X0100400Y0193425D01*
X0100464Y0193567D01*
X0100532Y0193708D01*
X0100603Y0193846D01*
X0100677Y0193983D01*
X0100755Y0194118D01*
X0100836Y0194251D01*
X0100921Y0194382D01*
X0101009Y0194511D01*
X0101100Y0194637D01*
X0101195Y0194761D01*
X0101292Y0194882D01*
X0101393Y0195001D01*
X0101497Y0195118D01*
X0101603Y0195231D01*
X0101713Y0195342D01*
X0101825Y0195450D01*
X0101940Y0195555D01*
X0102058Y0195658D01*
X0102178Y0195757D01*
X0102301Y0195853D01*
X0102426Y0195946D01*
X0102553Y0196035D01*
X0102683Y0196122D01*
X0102815Y0196205D01*
X0102949Y0196284D01*
X0103085Y0196361D01*
X0103223Y0196433D01*
X0103362Y0196503D01*
X0103504Y0196568D01*
X0103647Y0196630D01*
X0103791Y0196688D01*
X0103937Y0196743D01*
X0104085Y0196794D01*
X0104233Y0196841D01*
X0104383Y0196884D01*
X0104534Y0196923D01*
X0104686Y0196959D01*
X0104838Y0196990D01*
X0104992Y0197018D01*
X0105146Y0197042D01*
X0105300Y0197062D01*
X0105455Y0197078D01*
X0105611Y0197090D01*
X0105766Y0197098D01*
X0105922Y0197102D01*
X0106078Y0197102D01*
X0106234Y0197098D01*
X0106389Y0197090D01*
X0106545Y0197078D01*
X0106700Y0197062D01*
X0106854Y0197042D01*
X0107008Y0197018D01*
X0107162Y0196990D01*
X0107314Y0196959D01*
X0107466Y0196923D01*
X0107617Y0196884D01*
X0107767Y0196841D01*
X0107915Y0196794D01*
X0108063Y0196743D01*
X0108209Y0196688D01*
X0108353Y0196630D01*
X0108496Y0196568D01*
X0108638Y0196503D01*
X0108777Y0196433D01*
X0108915Y0196361D01*
X0109051Y0196284D01*
X0109185Y0196205D01*
X0109317Y0196122D01*
X0109447Y0196035D01*
X0109574Y0195946D01*
X0109699Y0195853D01*
X0109822Y0195757D01*
X0109942Y0195658D01*
X0110060Y0195555D01*
X0110175Y0195450D01*
X0110287Y0195342D01*
X0110397Y0195231D01*
X0110503Y0195118D01*
X0110607Y0195001D01*
X0110708Y0194882D01*
X0110805Y0194761D01*
X0110900Y0194637D01*
X0110991Y0194511D01*
X0111079Y0194382D01*
X0111164Y0194251D01*
X0111245Y0194118D01*
X0111323Y0193983D01*
X0111397Y0193846D01*
X0111468Y0193708D01*
X0111536Y0193567D01*
X0111600Y0193425D01*
X0111660Y0193281D01*
X0111716Y0193136D01*
X0111769Y0192989D01*
X0111818Y0192841D01*
X0111863Y0192692D01*
X0111904Y0192542D01*
X0111941Y0192390D01*
X0111975Y0192238D01*
X0112005Y0192085D01*
X0112030Y0191931D01*
X0112052Y0191777D01*
X0112070Y0191622D01*
X0112084Y0191467D01*
X0112094Y0191312D01*
X0112100Y0191156D01*
X0112102Y0191000D01*
X0112100Y0190844D01*
X0112094Y0190688D01*
X0112084Y0190533D01*
X0112070Y0190378D01*
X0112052Y0190223D01*
X0112030Y0190069D01*
X0112005Y0189915D01*
X0111975Y0189762D01*
X0111941Y0189610D01*
X0111904Y0189458D01*
X0111863Y0189308D01*
X0111818Y0189159D01*
X0111769Y0189011D01*
X0111716Y0188864D01*
X0111660Y0188719D01*
X0111600Y0188575D01*
X0111536Y0188433D01*
X0111468Y0188292D01*
X0111397Y0188154D01*
X0111323Y0188017D01*
X0111245Y0187882D01*
X0111164Y0187749D01*
X0111079Y0187618D01*
X0110991Y0187489D01*
X0110900Y0187363D01*
X0110805Y0187239D01*
X0110708Y0187118D01*
X0110607Y0186999D01*
X0110503Y0186882D01*
X0110397Y0186769D01*
X0110287Y0186658D01*
X0110175Y0186550D01*
X0110060Y0186445D01*
X0109942Y0186342D01*
X0109822Y0186243D01*
X0109699Y0186147D01*
X0109574Y0186054D01*
X0109447Y0185965D01*
X0109317Y0185878D01*
X0109185Y0185795D01*
X0109051Y0185716D01*
X0108915Y0185639D01*
X0108777Y0185567D01*
X0108638Y0185497D01*
X0108496Y0185432D01*
X0108353Y0185370D01*
X0108209Y0185312D01*
X0108063Y0185257D01*
X0107915Y0185206D01*
X0107767Y0185159D01*
X0107617Y0185116D01*
X0107466Y0185077D01*
X0107314Y0185041D01*
X0107162Y0185010D01*
X0107008Y0184982D01*
X0106854Y0184958D01*
X0106700Y0184938D01*
X0106545Y0184922D01*
X0106389Y0184910D01*
X0106234Y0184902D01*
X0106078Y0184898D01*
X0105922Y0184898D01*
X0105766Y0184902D01*
X0105611Y0184910D01*
X0105455Y0184922D01*
X0105300Y0184938D01*
X0105146Y0184958D01*
X0104992Y0184982D01*
X0104838Y0185010D01*
X0104686Y0185041D01*
X0104534Y0185077D01*
X0104383Y0185116D01*
X0104233Y0185159D01*
X0104085Y0185206D01*
X0103937Y0185257D01*
X0103791Y0185312D01*
X0103647Y0185370D01*
X0103504Y0185432D01*
X0103362Y0185497D01*
X0103223Y0185567D01*
X0103085Y0185639D01*
X0102949Y0185716D01*
X0102815Y0185795D01*
X0102683Y0185878D01*
X0102553Y0185965D01*
X0102426Y0186054D01*
X0102301Y0186147D01*
X0102178Y0186243D01*
X0102058Y0186342D01*
X0101940Y0186445D01*
X0101825Y0186550D01*
X0101713Y0186658D01*
X0101603Y0186769D01*
X0101497Y0186882D01*
X0101393Y0186999D01*
X0101292Y0187118D01*
X0101195Y0187239D01*
X0101100Y0187363D01*
X0101009Y0187489D01*
X0100921Y0187618D01*
X0100836Y0187749D01*
X0100755Y0187882D01*
X0100677Y0188017D01*
X0100603Y0188154D01*
X0100532Y0188292D01*
X0100464Y0188433D01*
X0100400Y0188575D01*
X0100340Y0188719D01*
X0100284Y0188864D01*
X0100231Y0189011D01*
X0100182Y0189159D01*
X0100137Y0189308D01*
X0100096Y0189458D01*
X0100059Y0189610D01*
X0100025Y0189762D01*
X0099995Y0189915D01*
X0099970Y0190069D01*
X0099948Y0190223D01*
X0099930Y0190378D01*
X0099916Y0190533D01*
X0099906Y0190688D01*
X0099900Y0190844D01*
X0099898Y0191000D01*
D11*
X0078500Y0193500D02*
X0076000Y0191000D01*
X0071000Y0191000D01*
X0068500Y0193500D01*
X0066000Y0191000D01*
X0061000Y0191000D01*
X0058500Y0193500D01*
X0056000Y0191000D01*
X0051000Y0191000D01*
X0048500Y0193500D01*
X0046000Y0191000D01*
X0041000Y0191000D01*
X0038500Y0193500D01*
X0038500Y0198500D01*
X0041000Y0201000D01*
X0046000Y0201000D01*
X0048500Y0198500D01*
X0051000Y0201000D01*
X0056000Y0201000D01*
X0058500Y0198500D01*
X0058500Y0193500D01*
X0058500Y0198500D02*
X0061000Y0201000D01*
X0066000Y0201000D01*
X0068500Y0198500D01*
X0071000Y0201000D01*
X0076000Y0201000D01*
X0078500Y0198500D01*
X0078500Y0193500D01*
X0073780Y0187705D02*
X0074848Y0186638D01*
X0074848Y0182368D01*
X0073780Y0181300D01*
X0070577Y0181300D01*
X0070577Y0187705D01*
X0073780Y0187705D01*
X0068500Y0193500D02*
X0068500Y0198500D01*
X0063780Y0187705D02*
X0061645Y0187705D01*
X0060577Y0186638D01*
X0060577Y0182368D01*
X0061645Y0181300D01*
X0063780Y0181300D01*
X0064848Y0182368D01*
X0064848Y0186638D02*
X0063780Y0187705D01*
X0054848Y0186638D02*
X0054848Y0185570D01*
X0053780Y0184503D01*
X0050577Y0184503D01*
X0050577Y0187705D02*
X0050577Y0181300D01*
X0053780Y0181300D01*
X0054848Y0182368D01*
X0054848Y0183435D01*
X0053780Y0184503D01*
X0054848Y0186638D02*
X0053780Y0187705D01*
X0050577Y0187705D01*
X0048500Y0193500D02*
X0048500Y0198500D01*
X0042712Y0187705D02*
X0044848Y0185570D01*
X0044848Y0181300D01*
X0044848Y0184503D02*
X0040577Y0184503D01*
X0040577Y0185570D02*
X0040577Y0181300D01*
X0040577Y0185570D02*
X0042712Y0187705D01*
X0046500Y0158000D02*
X0046500Y0156000D01*
X0045500Y0157000D02*
X0047500Y0157000D01*
X0050000Y0157000D02*
X0052000Y0157000D01*
X0040000Y0151000D02*
X0040003Y0151209D01*
X0040010Y0151417D01*
X0040023Y0151625D01*
X0040041Y0151833D01*
X0040064Y0152040D01*
X0040092Y0152247D01*
X0040125Y0152453D01*
X0040163Y0152658D01*
X0040207Y0152862D01*
X0040255Y0153065D01*
X0040308Y0153267D01*
X0040366Y0153467D01*
X0040429Y0153666D01*
X0040497Y0153864D01*
X0040570Y0154059D01*
X0040647Y0154253D01*
X0040729Y0154445D01*
X0040816Y0154634D01*
X0040908Y0154822D01*
X0041004Y0155007D01*
X0041104Y0155190D01*
X0041209Y0155370D01*
X0041319Y0155547D01*
X0041433Y0155722D01*
X0041551Y0155894D01*
X0041673Y0156063D01*
X0041799Y0156229D01*
X0041929Y0156392D01*
X0042064Y0156552D01*
X0042202Y0156708D01*
X0042344Y0156861D01*
X0042490Y0157010D01*
X0042639Y0157156D01*
X0042792Y0157298D01*
X0042948Y0157436D01*
X0043108Y0157571D01*
X0043271Y0157701D01*
X0043437Y0157827D01*
X0043606Y0157949D01*
X0043778Y0158067D01*
X0043953Y0158181D01*
X0044130Y0158291D01*
X0044310Y0158396D01*
X0044493Y0158496D01*
X0044678Y0158592D01*
X0044866Y0158684D01*
X0045055Y0158771D01*
X0045247Y0158853D01*
X0045441Y0158930D01*
X0045636Y0159003D01*
X0045834Y0159071D01*
X0046033Y0159134D01*
X0046233Y0159192D01*
X0046435Y0159245D01*
X0046638Y0159293D01*
X0046842Y0159337D01*
X0047047Y0159375D01*
X0047253Y0159408D01*
X0047460Y0159436D01*
X0047667Y0159459D01*
X0047875Y0159477D01*
X0048083Y0159490D01*
X0048291Y0159497D01*
X0048500Y0159500D01*
X0048709Y0159497D01*
X0048917Y0159490D01*
X0049125Y0159477D01*
X0049333Y0159459D01*
X0049540Y0159436D01*
X0049747Y0159408D01*
X0049953Y0159375D01*
X0050158Y0159337D01*
X0050362Y0159293D01*
X0050565Y0159245D01*
X0050767Y0159192D01*
X0050967Y0159134D01*
X0051166Y0159071D01*
X0051364Y0159003D01*
X0051559Y0158930D01*
X0051753Y0158853D01*
X0051945Y0158771D01*
X0052134Y0158684D01*
X0052322Y0158592D01*
X0052507Y0158496D01*
X0052690Y0158396D01*
X0052870Y0158291D01*
X0053047Y0158181D01*
X0053222Y0158067D01*
X0053394Y0157949D01*
X0053563Y0157827D01*
X0053729Y0157701D01*
X0053892Y0157571D01*
X0054052Y0157436D01*
X0054208Y0157298D01*
X0054361Y0157156D01*
X0054510Y0157010D01*
X0054656Y0156861D01*
X0054798Y0156708D01*
X0054936Y0156552D01*
X0055071Y0156392D01*
X0055201Y0156229D01*
X0055327Y0156063D01*
X0055449Y0155894D01*
X0055567Y0155722D01*
X0055681Y0155547D01*
X0055791Y0155370D01*
X0055896Y0155190D01*
X0055996Y0155007D01*
X0056092Y0154822D01*
X0056184Y0154634D01*
X0056271Y0154445D01*
X0056353Y0154253D01*
X0056430Y0154059D01*
X0056503Y0153864D01*
X0056571Y0153666D01*
X0056634Y0153467D01*
X0056692Y0153267D01*
X0056745Y0153065D01*
X0056793Y0152862D01*
X0056837Y0152658D01*
X0056875Y0152453D01*
X0056908Y0152247D01*
X0056936Y0152040D01*
X0056959Y0151833D01*
X0056977Y0151625D01*
X0056990Y0151417D01*
X0056997Y0151209D01*
X0057000Y0151000D01*
X0056997Y0150791D01*
X0056990Y0150583D01*
X0056977Y0150375D01*
X0056959Y0150167D01*
X0056936Y0149960D01*
X0056908Y0149753D01*
X0056875Y0149547D01*
X0056837Y0149342D01*
X0056793Y0149138D01*
X0056745Y0148935D01*
X0056692Y0148733D01*
X0056634Y0148533D01*
X0056571Y0148334D01*
X0056503Y0148136D01*
X0056430Y0147941D01*
X0056353Y0147747D01*
X0056271Y0147555D01*
X0056184Y0147366D01*
X0056092Y0147178D01*
X0055996Y0146993D01*
X0055896Y0146810D01*
X0055791Y0146630D01*
X0055681Y0146453D01*
X0055567Y0146278D01*
X0055449Y0146106D01*
X0055327Y0145937D01*
X0055201Y0145771D01*
X0055071Y0145608D01*
X0054936Y0145448D01*
X0054798Y0145292D01*
X0054656Y0145139D01*
X0054510Y0144990D01*
X0054361Y0144844D01*
X0054208Y0144702D01*
X0054052Y0144564D01*
X0053892Y0144429D01*
X0053729Y0144299D01*
X0053563Y0144173D01*
X0053394Y0144051D01*
X0053222Y0143933D01*
X0053047Y0143819D01*
X0052870Y0143709D01*
X0052690Y0143604D01*
X0052507Y0143504D01*
X0052322Y0143408D01*
X0052134Y0143316D01*
X0051945Y0143229D01*
X0051753Y0143147D01*
X0051559Y0143070D01*
X0051364Y0142997D01*
X0051166Y0142929D01*
X0050967Y0142866D01*
X0050767Y0142808D01*
X0050565Y0142755D01*
X0050362Y0142707D01*
X0050158Y0142663D01*
X0049953Y0142625D01*
X0049747Y0142592D01*
X0049540Y0142564D01*
X0049333Y0142541D01*
X0049125Y0142523D01*
X0048917Y0142510D01*
X0048709Y0142503D01*
X0048500Y0142500D01*
X0048291Y0142503D01*
X0048083Y0142510D01*
X0047875Y0142523D01*
X0047667Y0142541D01*
X0047460Y0142564D01*
X0047253Y0142592D01*
X0047047Y0142625D01*
X0046842Y0142663D01*
X0046638Y0142707D01*
X0046435Y0142755D01*
X0046233Y0142808D01*
X0046033Y0142866D01*
X0045834Y0142929D01*
X0045636Y0142997D01*
X0045441Y0143070D01*
X0045247Y0143147D01*
X0045055Y0143229D01*
X0044866Y0143316D01*
X0044678Y0143408D01*
X0044493Y0143504D01*
X0044310Y0143604D01*
X0044130Y0143709D01*
X0043953Y0143819D01*
X0043778Y0143933D01*
X0043606Y0144051D01*
X0043437Y0144173D01*
X0043271Y0144299D01*
X0043108Y0144429D01*
X0042948Y0144564D01*
X0042792Y0144702D01*
X0042639Y0144844D01*
X0042490Y0144990D01*
X0042344Y0145139D01*
X0042202Y0145292D01*
X0042064Y0145448D01*
X0041929Y0145608D01*
X0041799Y0145771D01*
X0041673Y0145937D01*
X0041551Y0146106D01*
X0041433Y0146278D01*
X0041319Y0146453D01*
X0041209Y0146630D01*
X0041104Y0146810D01*
X0041004Y0146993D01*
X0040908Y0147178D01*
X0040816Y0147366D01*
X0040729Y0147555D01*
X0040647Y0147747D01*
X0040570Y0147941D01*
X0040497Y0148136D01*
X0040429Y0148334D01*
X0040366Y0148533D01*
X0040308Y0148733D01*
X0040255Y0148935D01*
X0040207Y0149138D01*
X0040163Y0149342D01*
X0040125Y0149547D01*
X0040092Y0149753D01*
X0040064Y0149960D01*
X0040041Y0150167D01*
X0040023Y0150375D01*
X0040010Y0150583D01*
X0040003Y0150791D01*
X0040000Y0151000D01*
X0032000Y0157000D02*
X0030000Y0157000D01*
X0027500Y0157000D02*
X0025500Y0157000D01*
X0026500Y0156000D02*
X0026500Y0158000D01*
X0020000Y0151000D02*
X0020003Y0151209D01*
X0020010Y0151417D01*
X0020023Y0151625D01*
X0020041Y0151833D01*
X0020064Y0152040D01*
X0020092Y0152247D01*
X0020125Y0152453D01*
X0020163Y0152658D01*
X0020207Y0152862D01*
X0020255Y0153065D01*
X0020308Y0153267D01*
X0020366Y0153467D01*
X0020429Y0153666D01*
X0020497Y0153864D01*
X0020570Y0154059D01*
X0020647Y0154253D01*
X0020729Y0154445D01*
X0020816Y0154634D01*
X0020908Y0154822D01*
X0021004Y0155007D01*
X0021104Y0155190D01*
X0021209Y0155370D01*
X0021319Y0155547D01*
X0021433Y0155722D01*
X0021551Y0155894D01*
X0021673Y0156063D01*
X0021799Y0156229D01*
X0021929Y0156392D01*
X0022064Y0156552D01*
X0022202Y0156708D01*
X0022344Y0156861D01*
X0022490Y0157010D01*
X0022639Y0157156D01*
X0022792Y0157298D01*
X0022948Y0157436D01*
X0023108Y0157571D01*
X0023271Y0157701D01*
X0023437Y0157827D01*
X0023606Y0157949D01*
X0023778Y0158067D01*
X0023953Y0158181D01*
X0024130Y0158291D01*
X0024310Y0158396D01*
X0024493Y0158496D01*
X0024678Y0158592D01*
X0024866Y0158684D01*
X0025055Y0158771D01*
X0025247Y0158853D01*
X0025441Y0158930D01*
X0025636Y0159003D01*
X0025834Y0159071D01*
X0026033Y0159134D01*
X0026233Y0159192D01*
X0026435Y0159245D01*
X0026638Y0159293D01*
X0026842Y0159337D01*
X0027047Y0159375D01*
X0027253Y0159408D01*
X0027460Y0159436D01*
X0027667Y0159459D01*
X0027875Y0159477D01*
X0028083Y0159490D01*
X0028291Y0159497D01*
X0028500Y0159500D01*
X0028709Y0159497D01*
X0028917Y0159490D01*
X0029125Y0159477D01*
X0029333Y0159459D01*
X0029540Y0159436D01*
X0029747Y0159408D01*
X0029953Y0159375D01*
X0030158Y0159337D01*
X0030362Y0159293D01*
X0030565Y0159245D01*
X0030767Y0159192D01*
X0030967Y0159134D01*
X0031166Y0159071D01*
X0031364Y0159003D01*
X0031559Y0158930D01*
X0031753Y0158853D01*
X0031945Y0158771D01*
X0032134Y0158684D01*
X0032322Y0158592D01*
X0032507Y0158496D01*
X0032690Y0158396D01*
X0032870Y0158291D01*
X0033047Y0158181D01*
X0033222Y0158067D01*
X0033394Y0157949D01*
X0033563Y0157827D01*
X0033729Y0157701D01*
X0033892Y0157571D01*
X0034052Y0157436D01*
X0034208Y0157298D01*
X0034361Y0157156D01*
X0034510Y0157010D01*
X0034656Y0156861D01*
X0034798Y0156708D01*
X0034936Y0156552D01*
X0035071Y0156392D01*
X0035201Y0156229D01*
X0035327Y0156063D01*
X0035449Y0155894D01*
X0035567Y0155722D01*
X0035681Y0155547D01*
X0035791Y0155370D01*
X0035896Y0155190D01*
X0035996Y0155007D01*
X0036092Y0154822D01*
X0036184Y0154634D01*
X0036271Y0154445D01*
X0036353Y0154253D01*
X0036430Y0154059D01*
X0036503Y0153864D01*
X0036571Y0153666D01*
X0036634Y0153467D01*
X0036692Y0153267D01*
X0036745Y0153065D01*
X0036793Y0152862D01*
X0036837Y0152658D01*
X0036875Y0152453D01*
X0036908Y0152247D01*
X0036936Y0152040D01*
X0036959Y0151833D01*
X0036977Y0151625D01*
X0036990Y0151417D01*
X0036997Y0151209D01*
X0037000Y0151000D01*
X0036997Y0150791D01*
X0036990Y0150583D01*
X0036977Y0150375D01*
X0036959Y0150167D01*
X0036936Y0149960D01*
X0036908Y0149753D01*
X0036875Y0149547D01*
X0036837Y0149342D01*
X0036793Y0149138D01*
X0036745Y0148935D01*
X0036692Y0148733D01*
X0036634Y0148533D01*
X0036571Y0148334D01*
X0036503Y0148136D01*
X0036430Y0147941D01*
X0036353Y0147747D01*
X0036271Y0147555D01*
X0036184Y0147366D01*
X0036092Y0147178D01*
X0035996Y0146993D01*
X0035896Y0146810D01*
X0035791Y0146630D01*
X0035681Y0146453D01*
X0035567Y0146278D01*
X0035449Y0146106D01*
X0035327Y0145937D01*
X0035201Y0145771D01*
X0035071Y0145608D01*
X0034936Y0145448D01*
X0034798Y0145292D01*
X0034656Y0145139D01*
X0034510Y0144990D01*
X0034361Y0144844D01*
X0034208Y0144702D01*
X0034052Y0144564D01*
X0033892Y0144429D01*
X0033729Y0144299D01*
X0033563Y0144173D01*
X0033394Y0144051D01*
X0033222Y0143933D01*
X0033047Y0143819D01*
X0032870Y0143709D01*
X0032690Y0143604D01*
X0032507Y0143504D01*
X0032322Y0143408D01*
X0032134Y0143316D01*
X0031945Y0143229D01*
X0031753Y0143147D01*
X0031559Y0143070D01*
X0031364Y0142997D01*
X0031166Y0142929D01*
X0030967Y0142866D01*
X0030767Y0142808D01*
X0030565Y0142755D01*
X0030362Y0142707D01*
X0030158Y0142663D01*
X0029953Y0142625D01*
X0029747Y0142592D01*
X0029540Y0142564D01*
X0029333Y0142541D01*
X0029125Y0142523D01*
X0028917Y0142510D01*
X0028709Y0142503D01*
X0028500Y0142500D01*
X0028291Y0142503D01*
X0028083Y0142510D01*
X0027875Y0142523D01*
X0027667Y0142541D01*
X0027460Y0142564D01*
X0027253Y0142592D01*
X0027047Y0142625D01*
X0026842Y0142663D01*
X0026638Y0142707D01*
X0026435Y0142755D01*
X0026233Y0142808D01*
X0026033Y0142866D01*
X0025834Y0142929D01*
X0025636Y0142997D01*
X0025441Y0143070D01*
X0025247Y0143147D01*
X0025055Y0143229D01*
X0024866Y0143316D01*
X0024678Y0143408D01*
X0024493Y0143504D01*
X0024310Y0143604D01*
X0024130Y0143709D01*
X0023953Y0143819D01*
X0023778Y0143933D01*
X0023606Y0144051D01*
X0023437Y0144173D01*
X0023271Y0144299D01*
X0023108Y0144429D01*
X0022948Y0144564D01*
X0022792Y0144702D01*
X0022639Y0144844D01*
X0022490Y0144990D01*
X0022344Y0145139D01*
X0022202Y0145292D01*
X0022064Y0145448D01*
X0021929Y0145608D01*
X0021799Y0145771D01*
X0021673Y0145937D01*
X0021551Y0146106D01*
X0021433Y0146278D01*
X0021319Y0146453D01*
X0021209Y0146630D01*
X0021104Y0146810D01*
X0021004Y0146993D01*
X0020908Y0147178D01*
X0020816Y0147366D01*
X0020729Y0147555D01*
X0020647Y0147747D01*
X0020570Y0147941D01*
X0020497Y0148136D01*
X0020429Y0148334D01*
X0020366Y0148533D01*
X0020308Y0148733D01*
X0020255Y0148935D01*
X0020207Y0149138D01*
X0020163Y0149342D01*
X0020125Y0149547D01*
X0020092Y0149753D01*
X0020064Y0149960D01*
X0020041Y0150167D01*
X0020023Y0150375D01*
X0020010Y0150583D01*
X0020003Y0150791D01*
X0020000Y0151000D01*
X0065500Y0157000D02*
X0067500Y0157000D01*
X0066500Y0156000D02*
X0066500Y0158000D01*
X0070000Y0157000D02*
X0072000Y0157000D01*
X0060000Y0151000D02*
X0060003Y0151209D01*
X0060010Y0151417D01*
X0060023Y0151625D01*
X0060041Y0151833D01*
X0060064Y0152040D01*
X0060092Y0152247D01*
X0060125Y0152453D01*
X0060163Y0152658D01*
X0060207Y0152862D01*
X0060255Y0153065D01*
X0060308Y0153267D01*
X0060366Y0153467D01*
X0060429Y0153666D01*
X0060497Y0153864D01*
X0060570Y0154059D01*
X0060647Y0154253D01*
X0060729Y0154445D01*
X0060816Y0154634D01*
X0060908Y0154822D01*
X0061004Y0155007D01*
X0061104Y0155190D01*
X0061209Y0155370D01*
X0061319Y0155547D01*
X0061433Y0155722D01*
X0061551Y0155894D01*
X0061673Y0156063D01*
X0061799Y0156229D01*
X0061929Y0156392D01*
X0062064Y0156552D01*
X0062202Y0156708D01*
X0062344Y0156861D01*
X0062490Y0157010D01*
X0062639Y0157156D01*
X0062792Y0157298D01*
X0062948Y0157436D01*
X0063108Y0157571D01*
X0063271Y0157701D01*
X0063437Y0157827D01*
X0063606Y0157949D01*
X0063778Y0158067D01*
X0063953Y0158181D01*
X0064130Y0158291D01*
X0064310Y0158396D01*
X0064493Y0158496D01*
X0064678Y0158592D01*
X0064866Y0158684D01*
X0065055Y0158771D01*
X0065247Y0158853D01*
X0065441Y0158930D01*
X0065636Y0159003D01*
X0065834Y0159071D01*
X0066033Y0159134D01*
X0066233Y0159192D01*
X0066435Y0159245D01*
X0066638Y0159293D01*
X0066842Y0159337D01*
X0067047Y0159375D01*
X0067253Y0159408D01*
X0067460Y0159436D01*
X0067667Y0159459D01*
X0067875Y0159477D01*
X0068083Y0159490D01*
X0068291Y0159497D01*
X0068500Y0159500D01*
X0068709Y0159497D01*
X0068917Y0159490D01*
X0069125Y0159477D01*
X0069333Y0159459D01*
X0069540Y0159436D01*
X0069747Y0159408D01*
X0069953Y0159375D01*
X0070158Y0159337D01*
X0070362Y0159293D01*
X0070565Y0159245D01*
X0070767Y0159192D01*
X0070967Y0159134D01*
X0071166Y0159071D01*
X0071364Y0159003D01*
X0071559Y0158930D01*
X0071753Y0158853D01*
X0071945Y0158771D01*
X0072134Y0158684D01*
X0072322Y0158592D01*
X0072507Y0158496D01*
X0072690Y0158396D01*
X0072870Y0158291D01*
X0073047Y0158181D01*
X0073222Y0158067D01*
X0073394Y0157949D01*
X0073563Y0157827D01*
X0073729Y0157701D01*
X0073892Y0157571D01*
X0074052Y0157436D01*
X0074208Y0157298D01*
X0074361Y0157156D01*
X0074510Y0157010D01*
X0074656Y0156861D01*
X0074798Y0156708D01*
X0074936Y0156552D01*
X0075071Y0156392D01*
X0075201Y0156229D01*
X0075327Y0156063D01*
X0075449Y0155894D01*
X0075567Y0155722D01*
X0075681Y0155547D01*
X0075791Y0155370D01*
X0075896Y0155190D01*
X0075996Y0155007D01*
X0076092Y0154822D01*
X0076184Y0154634D01*
X0076271Y0154445D01*
X0076353Y0154253D01*
X0076430Y0154059D01*
X0076503Y0153864D01*
X0076571Y0153666D01*
X0076634Y0153467D01*
X0076692Y0153267D01*
X0076745Y0153065D01*
X0076793Y0152862D01*
X0076837Y0152658D01*
X0076875Y0152453D01*
X0076908Y0152247D01*
X0076936Y0152040D01*
X0076959Y0151833D01*
X0076977Y0151625D01*
X0076990Y0151417D01*
X0076997Y0151209D01*
X0077000Y0151000D01*
X0076997Y0150791D01*
X0076990Y0150583D01*
X0076977Y0150375D01*
X0076959Y0150167D01*
X0076936Y0149960D01*
X0076908Y0149753D01*
X0076875Y0149547D01*
X0076837Y0149342D01*
X0076793Y0149138D01*
X0076745Y0148935D01*
X0076692Y0148733D01*
X0076634Y0148533D01*
X0076571Y0148334D01*
X0076503Y0148136D01*
X0076430Y0147941D01*
X0076353Y0147747D01*
X0076271Y0147555D01*
X0076184Y0147366D01*
X0076092Y0147178D01*
X0075996Y0146993D01*
X0075896Y0146810D01*
X0075791Y0146630D01*
X0075681Y0146453D01*
X0075567Y0146278D01*
X0075449Y0146106D01*
X0075327Y0145937D01*
X0075201Y0145771D01*
X0075071Y0145608D01*
X0074936Y0145448D01*
X0074798Y0145292D01*
X0074656Y0145139D01*
X0074510Y0144990D01*
X0074361Y0144844D01*
X0074208Y0144702D01*
X0074052Y0144564D01*
X0073892Y0144429D01*
X0073729Y0144299D01*
X0073563Y0144173D01*
X0073394Y0144051D01*
X0073222Y0143933D01*
X0073047Y0143819D01*
X0072870Y0143709D01*
X0072690Y0143604D01*
X0072507Y0143504D01*
X0072322Y0143408D01*
X0072134Y0143316D01*
X0071945Y0143229D01*
X0071753Y0143147D01*
X0071559Y0143070D01*
X0071364Y0142997D01*
X0071166Y0142929D01*
X0070967Y0142866D01*
X0070767Y0142808D01*
X0070565Y0142755D01*
X0070362Y0142707D01*
X0070158Y0142663D01*
X0069953Y0142625D01*
X0069747Y0142592D01*
X0069540Y0142564D01*
X0069333Y0142541D01*
X0069125Y0142523D01*
X0068917Y0142510D01*
X0068709Y0142503D01*
X0068500Y0142500D01*
X0068291Y0142503D01*
X0068083Y0142510D01*
X0067875Y0142523D01*
X0067667Y0142541D01*
X0067460Y0142564D01*
X0067253Y0142592D01*
X0067047Y0142625D01*
X0066842Y0142663D01*
X0066638Y0142707D01*
X0066435Y0142755D01*
X0066233Y0142808D01*
X0066033Y0142866D01*
X0065834Y0142929D01*
X0065636Y0142997D01*
X0065441Y0143070D01*
X0065247Y0143147D01*
X0065055Y0143229D01*
X0064866Y0143316D01*
X0064678Y0143408D01*
X0064493Y0143504D01*
X0064310Y0143604D01*
X0064130Y0143709D01*
X0063953Y0143819D01*
X0063778Y0143933D01*
X0063606Y0144051D01*
X0063437Y0144173D01*
X0063271Y0144299D01*
X0063108Y0144429D01*
X0062948Y0144564D01*
X0062792Y0144702D01*
X0062639Y0144844D01*
X0062490Y0144990D01*
X0062344Y0145139D01*
X0062202Y0145292D01*
X0062064Y0145448D01*
X0061929Y0145608D01*
X0061799Y0145771D01*
X0061673Y0145937D01*
X0061551Y0146106D01*
X0061433Y0146278D01*
X0061319Y0146453D01*
X0061209Y0146630D01*
X0061104Y0146810D01*
X0061004Y0146993D01*
X0060908Y0147178D01*
X0060816Y0147366D01*
X0060729Y0147555D01*
X0060647Y0147747D01*
X0060570Y0147941D01*
X0060497Y0148136D01*
X0060429Y0148334D01*
X0060366Y0148533D01*
X0060308Y0148733D01*
X0060255Y0148935D01*
X0060207Y0149138D01*
X0060163Y0149342D01*
X0060125Y0149547D01*
X0060092Y0149753D01*
X0060064Y0149960D01*
X0060041Y0150167D01*
X0060023Y0150375D01*
X0060010Y0150583D01*
X0060003Y0150791D01*
X0060000Y0151000D01*
X0085500Y0157000D02*
X0087500Y0157000D01*
X0086500Y0156000D02*
X0086500Y0158000D01*
X0090000Y0157000D02*
X0092000Y0157000D01*
X0080000Y0151000D02*
X0080003Y0151209D01*
X0080010Y0151417D01*
X0080023Y0151625D01*
X0080041Y0151833D01*
X0080064Y0152040D01*
X0080092Y0152247D01*
X0080125Y0152453D01*
X0080163Y0152658D01*
X0080207Y0152862D01*
X0080255Y0153065D01*
X0080308Y0153267D01*
X0080366Y0153467D01*
X0080429Y0153666D01*
X0080497Y0153864D01*
X0080570Y0154059D01*
X0080647Y0154253D01*
X0080729Y0154445D01*
X0080816Y0154634D01*
X0080908Y0154822D01*
X0081004Y0155007D01*
X0081104Y0155190D01*
X0081209Y0155370D01*
X0081319Y0155547D01*
X0081433Y0155722D01*
X0081551Y0155894D01*
X0081673Y0156063D01*
X0081799Y0156229D01*
X0081929Y0156392D01*
X0082064Y0156552D01*
X0082202Y0156708D01*
X0082344Y0156861D01*
X0082490Y0157010D01*
X0082639Y0157156D01*
X0082792Y0157298D01*
X0082948Y0157436D01*
X0083108Y0157571D01*
X0083271Y0157701D01*
X0083437Y0157827D01*
X0083606Y0157949D01*
X0083778Y0158067D01*
X0083953Y0158181D01*
X0084130Y0158291D01*
X0084310Y0158396D01*
X0084493Y0158496D01*
X0084678Y0158592D01*
X0084866Y0158684D01*
X0085055Y0158771D01*
X0085247Y0158853D01*
X0085441Y0158930D01*
X0085636Y0159003D01*
X0085834Y0159071D01*
X0086033Y0159134D01*
X0086233Y0159192D01*
X0086435Y0159245D01*
X0086638Y0159293D01*
X0086842Y0159337D01*
X0087047Y0159375D01*
X0087253Y0159408D01*
X0087460Y0159436D01*
X0087667Y0159459D01*
X0087875Y0159477D01*
X0088083Y0159490D01*
X0088291Y0159497D01*
X0088500Y0159500D01*
X0088709Y0159497D01*
X0088917Y0159490D01*
X0089125Y0159477D01*
X0089333Y0159459D01*
X0089540Y0159436D01*
X0089747Y0159408D01*
X0089953Y0159375D01*
X0090158Y0159337D01*
X0090362Y0159293D01*
X0090565Y0159245D01*
X0090767Y0159192D01*
X0090967Y0159134D01*
X0091166Y0159071D01*
X0091364Y0159003D01*
X0091559Y0158930D01*
X0091753Y0158853D01*
X0091945Y0158771D01*
X0092134Y0158684D01*
X0092322Y0158592D01*
X0092507Y0158496D01*
X0092690Y0158396D01*
X0092870Y0158291D01*
X0093047Y0158181D01*
X0093222Y0158067D01*
X0093394Y0157949D01*
X0093563Y0157827D01*
X0093729Y0157701D01*
X0093892Y0157571D01*
X0094052Y0157436D01*
X0094208Y0157298D01*
X0094361Y0157156D01*
X0094510Y0157010D01*
X0094656Y0156861D01*
X0094798Y0156708D01*
X0094936Y0156552D01*
X0095071Y0156392D01*
X0095201Y0156229D01*
X0095327Y0156063D01*
X0095449Y0155894D01*
X0095567Y0155722D01*
X0095681Y0155547D01*
X0095791Y0155370D01*
X0095896Y0155190D01*
X0095996Y0155007D01*
X0096092Y0154822D01*
X0096184Y0154634D01*
X0096271Y0154445D01*
X0096353Y0154253D01*
X0096430Y0154059D01*
X0096503Y0153864D01*
X0096571Y0153666D01*
X0096634Y0153467D01*
X0096692Y0153267D01*
X0096745Y0153065D01*
X0096793Y0152862D01*
X0096837Y0152658D01*
X0096875Y0152453D01*
X0096908Y0152247D01*
X0096936Y0152040D01*
X0096959Y0151833D01*
X0096977Y0151625D01*
X0096990Y0151417D01*
X0096997Y0151209D01*
X0097000Y0151000D01*
X0096997Y0150791D01*
X0096990Y0150583D01*
X0096977Y0150375D01*
X0096959Y0150167D01*
X0096936Y0149960D01*
X0096908Y0149753D01*
X0096875Y0149547D01*
X0096837Y0149342D01*
X0096793Y0149138D01*
X0096745Y0148935D01*
X0096692Y0148733D01*
X0096634Y0148533D01*
X0096571Y0148334D01*
X0096503Y0148136D01*
X0096430Y0147941D01*
X0096353Y0147747D01*
X0096271Y0147555D01*
X0096184Y0147366D01*
X0096092Y0147178D01*
X0095996Y0146993D01*
X0095896Y0146810D01*
X0095791Y0146630D01*
X0095681Y0146453D01*
X0095567Y0146278D01*
X0095449Y0146106D01*
X0095327Y0145937D01*
X0095201Y0145771D01*
X0095071Y0145608D01*
X0094936Y0145448D01*
X0094798Y0145292D01*
X0094656Y0145139D01*
X0094510Y0144990D01*
X0094361Y0144844D01*
X0094208Y0144702D01*
X0094052Y0144564D01*
X0093892Y0144429D01*
X0093729Y0144299D01*
X0093563Y0144173D01*
X0093394Y0144051D01*
X0093222Y0143933D01*
X0093047Y0143819D01*
X0092870Y0143709D01*
X0092690Y0143604D01*
X0092507Y0143504D01*
X0092322Y0143408D01*
X0092134Y0143316D01*
X0091945Y0143229D01*
X0091753Y0143147D01*
X0091559Y0143070D01*
X0091364Y0142997D01*
X0091166Y0142929D01*
X0090967Y0142866D01*
X0090767Y0142808D01*
X0090565Y0142755D01*
X0090362Y0142707D01*
X0090158Y0142663D01*
X0089953Y0142625D01*
X0089747Y0142592D01*
X0089540Y0142564D01*
X0089333Y0142541D01*
X0089125Y0142523D01*
X0088917Y0142510D01*
X0088709Y0142503D01*
X0088500Y0142500D01*
X0088291Y0142503D01*
X0088083Y0142510D01*
X0087875Y0142523D01*
X0087667Y0142541D01*
X0087460Y0142564D01*
X0087253Y0142592D01*
X0087047Y0142625D01*
X0086842Y0142663D01*
X0086638Y0142707D01*
X0086435Y0142755D01*
X0086233Y0142808D01*
X0086033Y0142866D01*
X0085834Y0142929D01*
X0085636Y0142997D01*
X0085441Y0143070D01*
X0085247Y0143147D01*
X0085055Y0143229D01*
X0084866Y0143316D01*
X0084678Y0143408D01*
X0084493Y0143504D01*
X0084310Y0143604D01*
X0084130Y0143709D01*
X0083953Y0143819D01*
X0083778Y0143933D01*
X0083606Y0144051D01*
X0083437Y0144173D01*
X0083271Y0144299D01*
X0083108Y0144429D01*
X0082948Y0144564D01*
X0082792Y0144702D01*
X0082639Y0144844D01*
X0082490Y0144990D01*
X0082344Y0145139D01*
X0082202Y0145292D01*
X0082064Y0145448D01*
X0081929Y0145608D01*
X0081799Y0145771D01*
X0081673Y0145937D01*
X0081551Y0146106D01*
X0081433Y0146278D01*
X0081319Y0146453D01*
X0081209Y0146630D01*
X0081104Y0146810D01*
X0081004Y0146993D01*
X0080908Y0147178D01*
X0080816Y0147366D01*
X0080729Y0147555D01*
X0080647Y0147747D01*
X0080570Y0147941D01*
X0080497Y0148136D01*
X0080429Y0148334D01*
X0080366Y0148533D01*
X0080308Y0148733D01*
X0080255Y0148935D01*
X0080207Y0149138D01*
X0080163Y0149342D01*
X0080125Y0149547D01*
X0080092Y0149753D01*
X0080064Y0149960D01*
X0080041Y0150167D01*
X0080023Y0150375D01*
X0080010Y0150583D01*
X0080003Y0150791D01*
X0080000Y0151000D01*
X0106300Y0061705D02*
X0109503Y0061705D01*
X0110570Y0060638D01*
X0110570Y0056368D01*
X0109503Y0055300D01*
X0106300Y0055300D01*
X0106300Y0061705D01*
X0107368Y0031705D02*
X0106300Y0030638D01*
X0106300Y0026368D01*
X0107368Y0025300D01*
X0109503Y0025300D01*
X0110570Y0026368D01*
X0110570Y0030638D02*
X0109503Y0031705D01*
X0107368Y0031705D01*
X0009125Y0029570D02*
X0009125Y0025300D01*
X0009125Y0028503D02*
X0004855Y0028503D01*
X0004855Y0029570D02*
X0004855Y0025300D01*
X0004855Y0029570D02*
X0006990Y0031705D01*
X0009125Y0029570D01*
X0008057Y0055300D02*
X0004855Y0055300D01*
X0004855Y0061705D01*
X0008057Y0061705D01*
X0009125Y0060638D01*
X0009125Y0059570D01*
X0008057Y0058503D01*
X0004855Y0058503D01*
X0008057Y0058503D02*
X0009125Y0057435D01*
X0009125Y0056368D01*
X0008057Y0055300D01*
D12*
X0008500Y0136000D02*
X0003500Y0136000D01*
X0006000Y0153500D02*
X0006000Y0158500D01*
X0003500Y0156000D02*
X0008500Y0156000D01*
X0108500Y0156000D02*
X0113500Y0156000D01*
X0111000Y0158500D02*
X0111000Y0153500D01*
X0113500Y0136000D02*
X0108500Y0136000D01*
D13*
X0098500Y0128500D02*
X0018500Y0128500D01*
X0018500Y0103500D01*
X0098500Y0103500D01*
X0098500Y0128500D01*
D14*
X0023400Y0108500D02*
X0023402Y0108520D01*
X0023408Y0108538D01*
X0023417Y0108556D01*
X0023429Y0108571D01*
X0023444Y0108583D01*
X0023462Y0108592D01*
X0023480Y0108598D01*
X0023500Y0108600D01*
X0023520Y0108598D01*
X0023538Y0108592D01*
X0023556Y0108583D01*
X0023571Y0108571D01*
X0023583Y0108556D01*
X0023592Y0108538D01*
X0023598Y0108520D01*
X0023600Y0108500D01*
X0023598Y0108480D01*
X0023592Y0108462D01*
X0023583Y0108444D01*
X0023571Y0108429D01*
X0023556Y0108417D01*
X0023538Y0108408D01*
X0023520Y0108402D01*
X0023500Y0108400D01*
X0023480Y0108402D01*
X0023462Y0108408D01*
X0023444Y0108417D01*
X0023429Y0108429D01*
X0023417Y0108444D01*
X0023408Y0108462D01*
X0023402Y0108480D01*
X0023400Y0108500D01*
D15*
X0033224Y0065154D02*
X0048776Y0065154D01*
X0048776Y0046846D01*
X0033224Y0046846D01*
X0033224Y0065154D01*
X0033224Y0040154D02*
X0048776Y0040154D01*
X0048776Y0021846D01*
X0033224Y0021846D01*
X0033224Y0040154D01*
X0068224Y0040154D02*
X0068224Y0021846D01*
X0083776Y0021846D01*
X0083776Y0040154D01*
X0068224Y0040154D01*
X0068224Y0046846D02*
X0068224Y0065154D01*
X0083776Y0065154D01*
X0083776Y0046846D01*
X0068224Y0046846D01*
D16*
X0071374Y0049937D02*
X0071374Y0052102D01*
X0071374Y0059937D02*
X0071374Y0062102D01*
X0070390Y0061020D02*
X0072457Y0061020D01*
X0080921Y0060921D02*
X0080974Y0060926D01*
X0081026Y0060935D01*
X0081078Y0060948D01*
X0081128Y0060965D01*
X0081177Y0060985D01*
X0081224Y0061008D01*
X0081270Y0061035D01*
X0081314Y0061065D01*
X0081355Y0061098D01*
X0081394Y0061134D01*
X0081430Y0061173D01*
X0081463Y0061214D01*
X0081494Y0061258D01*
X0081521Y0061303D01*
X0081545Y0061351D01*
X0081565Y0061400D01*
X0081582Y0061450D01*
X0081595Y0061501D01*
X0081604Y0061553D01*
X0081610Y0061606D01*
X0081612Y0061659D01*
X0081610Y0061712D01*
X0081604Y0061765D01*
X0081595Y0061817D01*
X0081582Y0061868D01*
X0081565Y0061918D01*
X0081545Y0061967D01*
X0081521Y0062015D01*
X0081494Y0062060D01*
X0081463Y0062104D01*
X0081430Y0062145D01*
X0081394Y0062184D01*
X0081355Y0062220D01*
X0081314Y0062253D01*
X0081270Y0062283D01*
X0081224Y0062310D01*
X0081177Y0062333D01*
X0081128Y0062353D01*
X0081078Y0062370D01*
X0081026Y0062383D01*
X0080974Y0062392D01*
X0080921Y0062397D01*
X0080921Y0060921D02*
X0080868Y0060916D01*
X0080816Y0060907D01*
X0080764Y0060894D01*
X0080714Y0060877D01*
X0080665Y0060857D01*
X0080618Y0060834D01*
X0080572Y0060807D01*
X0080528Y0060777D01*
X0080487Y0060744D01*
X0080448Y0060708D01*
X0080412Y0060669D01*
X0080379Y0060628D01*
X0080348Y0060584D01*
X0080321Y0060539D01*
X0080297Y0060491D01*
X0080277Y0060442D01*
X0080260Y0060392D01*
X0080247Y0060341D01*
X0080238Y0060289D01*
X0080232Y0060236D01*
X0080230Y0060183D01*
X0080232Y0060130D01*
X0080238Y0060077D01*
X0080247Y0060025D01*
X0080260Y0059974D01*
X0080277Y0059924D01*
X0080297Y0059875D01*
X0080321Y0059827D01*
X0080348Y0059782D01*
X0080379Y0059738D01*
X0080412Y0059697D01*
X0080448Y0059658D01*
X0080487Y0059622D01*
X0080528Y0059589D01*
X0080572Y0059559D01*
X0080618Y0059532D01*
X0080665Y0059509D01*
X0080714Y0059489D01*
X0080764Y0059472D01*
X0080816Y0059459D01*
X0080868Y0059450D01*
X0080921Y0059445D01*
X0080921Y0052555D02*
X0080974Y0052550D01*
X0081026Y0052541D01*
X0081078Y0052528D01*
X0081128Y0052511D01*
X0081177Y0052491D01*
X0081224Y0052468D01*
X0081270Y0052441D01*
X0081314Y0052411D01*
X0081355Y0052378D01*
X0081394Y0052342D01*
X0081430Y0052303D01*
X0081463Y0052262D01*
X0081494Y0052218D01*
X0081521Y0052173D01*
X0081545Y0052125D01*
X0081565Y0052076D01*
X0081582Y0052026D01*
X0081595Y0051975D01*
X0081604Y0051923D01*
X0081610Y0051870D01*
X0081612Y0051817D01*
X0081610Y0051764D01*
X0081604Y0051711D01*
X0081595Y0051659D01*
X0081582Y0051608D01*
X0081565Y0051558D01*
X0081545Y0051509D01*
X0081521Y0051461D01*
X0081494Y0051416D01*
X0081463Y0051372D01*
X0081430Y0051331D01*
X0081394Y0051292D01*
X0081355Y0051256D01*
X0081314Y0051223D01*
X0081270Y0051193D01*
X0081224Y0051166D01*
X0081177Y0051143D01*
X0081128Y0051123D01*
X0081078Y0051106D01*
X0081026Y0051093D01*
X0080974Y0051084D01*
X0080921Y0051079D01*
X0080868Y0051074D01*
X0080816Y0051065D01*
X0080764Y0051052D01*
X0080714Y0051035D01*
X0080665Y0051015D01*
X0080618Y0050992D01*
X0080572Y0050965D01*
X0080528Y0050935D01*
X0080487Y0050902D01*
X0080448Y0050866D01*
X0080412Y0050827D01*
X0080379Y0050786D01*
X0080348Y0050742D01*
X0080321Y0050697D01*
X0080297Y0050649D01*
X0080277Y0050600D01*
X0080260Y0050550D01*
X0080247Y0050499D01*
X0080238Y0050447D01*
X0080232Y0050394D01*
X0080230Y0050341D01*
X0080232Y0050288D01*
X0080238Y0050235D01*
X0080247Y0050183D01*
X0080260Y0050132D01*
X0080277Y0050082D01*
X0080297Y0050033D01*
X0080321Y0049985D01*
X0080348Y0049940D01*
X0080379Y0049896D01*
X0080412Y0049855D01*
X0080448Y0049816D01*
X0080487Y0049780D01*
X0080528Y0049747D01*
X0080572Y0049717D01*
X0080618Y0049690D01*
X0080665Y0049667D01*
X0080714Y0049647D01*
X0080764Y0049630D01*
X0080816Y0049617D01*
X0080868Y0049608D01*
X0080921Y0049603D01*
X0080921Y0037397D02*
X0080974Y0037392D01*
X0081026Y0037383D01*
X0081078Y0037370D01*
X0081128Y0037353D01*
X0081177Y0037333D01*
X0081224Y0037310D01*
X0081270Y0037283D01*
X0081314Y0037253D01*
X0081355Y0037220D01*
X0081394Y0037184D01*
X0081430Y0037145D01*
X0081463Y0037104D01*
X0081494Y0037060D01*
X0081521Y0037015D01*
X0081545Y0036967D01*
X0081565Y0036918D01*
X0081582Y0036868D01*
X0081595Y0036817D01*
X0081604Y0036765D01*
X0081610Y0036712D01*
X0081612Y0036659D01*
X0081610Y0036606D01*
X0081604Y0036553D01*
X0081595Y0036501D01*
X0081582Y0036450D01*
X0081565Y0036400D01*
X0081545Y0036351D01*
X0081521Y0036303D01*
X0081494Y0036258D01*
X0081463Y0036214D01*
X0081430Y0036173D01*
X0081394Y0036134D01*
X0081355Y0036098D01*
X0081314Y0036065D01*
X0081270Y0036035D01*
X0081224Y0036008D01*
X0081177Y0035985D01*
X0081128Y0035965D01*
X0081078Y0035948D01*
X0081026Y0035935D01*
X0080974Y0035926D01*
X0080921Y0035921D01*
X0080868Y0035916D01*
X0080816Y0035907D01*
X0080764Y0035894D01*
X0080714Y0035877D01*
X0080665Y0035857D01*
X0080618Y0035834D01*
X0080572Y0035807D01*
X0080528Y0035777D01*
X0080487Y0035744D01*
X0080448Y0035708D01*
X0080412Y0035669D01*
X0080379Y0035628D01*
X0080348Y0035584D01*
X0080321Y0035539D01*
X0080297Y0035491D01*
X0080277Y0035442D01*
X0080260Y0035392D01*
X0080247Y0035341D01*
X0080238Y0035289D01*
X0080232Y0035236D01*
X0080230Y0035183D01*
X0080232Y0035130D01*
X0080238Y0035077D01*
X0080247Y0035025D01*
X0080260Y0034974D01*
X0080277Y0034924D01*
X0080297Y0034875D01*
X0080321Y0034827D01*
X0080348Y0034782D01*
X0080379Y0034738D01*
X0080412Y0034697D01*
X0080448Y0034658D01*
X0080487Y0034622D01*
X0080528Y0034589D01*
X0080572Y0034559D01*
X0080618Y0034532D01*
X0080665Y0034509D01*
X0080714Y0034489D01*
X0080764Y0034472D01*
X0080816Y0034459D01*
X0080868Y0034450D01*
X0080921Y0034445D01*
X0080921Y0027555D02*
X0080974Y0027550D01*
X0081026Y0027541D01*
X0081078Y0027528D01*
X0081128Y0027511D01*
X0081177Y0027491D01*
X0081224Y0027468D01*
X0081270Y0027441D01*
X0081314Y0027411D01*
X0081355Y0027378D01*
X0081394Y0027342D01*
X0081430Y0027303D01*
X0081463Y0027262D01*
X0081494Y0027218D01*
X0081521Y0027173D01*
X0081545Y0027125D01*
X0081565Y0027076D01*
X0081582Y0027026D01*
X0081595Y0026975D01*
X0081604Y0026923D01*
X0081610Y0026870D01*
X0081612Y0026817D01*
X0081610Y0026764D01*
X0081604Y0026711D01*
X0081595Y0026659D01*
X0081582Y0026608D01*
X0081565Y0026558D01*
X0081545Y0026509D01*
X0081521Y0026461D01*
X0081494Y0026416D01*
X0081463Y0026372D01*
X0081430Y0026331D01*
X0081394Y0026292D01*
X0081355Y0026256D01*
X0081314Y0026223D01*
X0081270Y0026193D01*
X0081224Y0026166D01*
X0081177Y0026143D01*
X0081128Y0026123D01*
X0081078Y0026106D01*
X0081026Y0026093D01*
X0080974Y0026084D01*
X0080921Y0026079D01*
X0080868Y0026074D01*
X0080816Y0026065D01*
X0080764Y0026052D01*
X0080714Y0026035D01*
X0080665Y0026015D01*
X0080618Y0025992D01*
X0080572Y0025965D01*
X0080528Y0025935D01*
X0080487Y0025902D01*
X0080448Y0025866D01*
X0080412Y0025827D01*
X0080379Y0025786D01*
X0080348Y0025742D01*
X0080321Y0025697D01*
X0080297Y0025649D01*
X0080277Y0025600D01*
X0080260Y0025550D01*
X0080247Y0025499D01*
X0080238Y0025447D01*
X0080232Y0025394D01*
X0080230Y0025341D01*
X0080232Y0025288D01*
X0080238Y0025235D01*
X0080247Y0025183D01*
X0080260Y0025132D01*
X0080277Y0025082D01*
X0080297Y0025033D01*
X0080321Y0024985D01*
X0080348Y0024940D01*
X0080379Y0024896D01*
X0080412Y0024855D01*
X0080448Y0024816D01*
X0080487Y0024780D01*
X0080528Y0024747D01*
X0080572Y0024717D01*
X0080618Y0024690D01*
X0080665Y0024667D01*
X0080714Y0024647D01*
X0080764Y0024630D01*
X0080816Y0024617D01*
X0080868Y0024608D01*
X0080921Y0024603D01*
X0072457Y0036020D02*
X0070390Y0036020D01*
X0071374Y0037102D02*
X0071374Y0034937D01*
X0071374Y0027102D02*
X0071374Y0024937D01*
X0046610Y0025980D02*
X0044543Y0025980D01*
X0045626Y0024898D02*
X0045626Y0027063D01*
X0045626Y0034898D02*
X0045626Y0037063D01*
X0045626Y0049898D02*
X0045626Y0052063D01*
X0046610Y0050980D02*
X0044543Y0050980D01*
X0045626Y0059898D02*
X0045626Y0062063D01*
X0036079Y0062397D02*
X0036132Y0062392D01*
X0036184Y0062383D01*
X0036236Y0062370D01*
X0036286Y0062353D01*
X0036335Y0062333D01*
X0036382Y0062310D01*
X0036428Y0062283D01*
X0036472Y0062253D01*
X0036513Y0062220D01*
X0036552Y0062184D01*
X0036588Y0062145D01*
X0036621Y0062104D01*
X0036652Y0062060D01*
X0036679Y0062015D01*
X0036703Y0061967D01*
X0036723Y0061918D01*
X0036740Y0061868D01*
X0036753Y0061817D01*
X0036762Y0061765D01*
X0036768Y0061712D01*
X0036770Y0061659D01*
X0036768Y0061606D01*
X0036762Y0061553D01*
X0036753Y0061501D01*
X0036740Y0061450D01*
X0036723Y0061400D01*
X0036703Y0061351D01*
X0036679Y0061303D01*
X0036652Y0061258D01*
X0036621Y0061214D01*
X0036588Y0061173D01*
X0036552Y0061134D01*
X0036513Y0061098D01*
X0036472Y0061065D01*
X0036428Y0061035D01*
X0036382Y0061008D01*
X0036335Y0060985D01*
X0036286Y0060965D01*
X0036236Y0060948D01*
X0036184Y0060935D01*
X0036132Y0060926D01*
X0036079Y0060921D01*
X0036026Y0060916D01*
X0035974Y0060907D01*
X0035922Y0060894D01*
X0035872Y0060877D01*
X0035823Y0060857D01*
X0035776Y0060834D01*
X0035730Y0060807D01*
X0035686Y0060777D01*
X0035645Y0060744D01*
X0035606Y0060708D01*
X0035570Y0060669D01*
X0035537Y0060628D01*
X0035506Y0060584D01*
X0035479Y0060539D01*
X0035455Y0060491D01*
X0035435Y0060442D01*
X0035418Y0060392D01*
X0035405Y0060341D01*
X0035396Y0060289D01*
X0035390Y0060236D01*
X0035388Y0060183D01*
X0035390Y0060130D01*
X0035396Y0060077D01*
X0035405Y0060025D01*
X0035418Y0059974D01*
X0035435Y0059924D01*
X0035455Y0059875D01*
X0035479Y0059827D01*
X0035506Y0059782D01*
X0035537Y0059738D01*
X0035570Y0059697D01*
X0035606Y0059658D01*
X0035645Y0059622D01*
X0035686Y0059589D01*
X0035730Y0059559D01*
X0035776Y0059532D01*
X0035823Y0059509D01*
X0035872Y0059489D01*
X0035922Y0059472D01*
X0035974Y0059459D01*
X0036026Y0059450D01*
X0036079Y0059445D01*
X0036079Y0052555D02*
X0036132Y0052550D01*
X0036184Y0052541D01*
X0036236Y0052528D01*
X0036286Y0052511D01*
X0036335Y0052491D01*
X0036382Y0052468D01*
X0036428Y0052441D01*
X0036472Y0052411D01*
X0036513Y0052378D01*
X0036552Y0052342D01*
X0036588Y0052303D01*
X0036621Y0052262D01*
X0036652Y0052218D01*
X0036679Y0052173D01*
X0036703Y0052125D01*
X0036723Y0052076D01*
X0036740Y0052026D01*
X0036753Y0051975D01*
X0036762Y0051923D01*
X0036768Y0051870D01*
X0036770Y0051817D01*
X0036768Y0051764D01*
X0036762Y0051711D01*
X0036753Y0051659D01*
X0036740Y0051608D01*
X0036723Y0051558D01*
X0036703Y0051509D01*
X0036679Y0051461D01*
X0036652Y0051416D01*
X0036621Y0051372D01*
X0036588Y0051331D01*
X0036552Y0051292D01*
X0036513Y0051256D01*
X0036472Y0051223D01*
X0036428Y0051193D01*
X0036382Y0051166D01*
X0036335Y0051143D01*
X0036286Y0051123D01*
X0036236Y0051106D01*
X0036184Y0051093D01*
X0036132Y0051084D01*
X0036079Y0051079D01*
X0036026Y0051074D01*
X0035974Y0051065D01*
X0035922Y0051052D01*
X0035872Y0051035D01*
X0035823Y0051015D01*
X0035776Y0050992D01*
X0035730Y0050965D01*
X0035686Y0050935D01*
X0035645Y0050902D01*
X0035606Y0050866D01*
X0035570Y0050827D01*
X0035537Y0050786D01*
X0035506Y0050742D01*
X0035479Y0050697D01*
X0035455Y0050649D01*
X0035435Y0050600D01*
X0035418Y0050550D01*
X0035405Y0050499D01*
X0035396Y0050447D01*
X0035390Y0050394D01*
X0035388Y0050341D01*
X0035390Y0050288D01*
X0035396Y0050235D01*
X0035405Y0050183D01*
X0035418Y0050132D01*
X0035435Y0050082D01*
X0035455Y0050033D01*
X0035479Y0049985D01*
X0035506Y0049940D01*
X0035537Y0049896D01*
X0035570Y0049855D01*
X0035606Y0049816D01*
X0035645Y0049780D01*
X0035686Y0049747D01*
X0035730Y0049717D01*
X0035776Y0049690D01*
X0035823Y0049667D01*
X0035872Y0049647D01*
X0035922Y0049630D01*
X0035974Y0049617D01*
X0036026Y0049608D01*
X0036079Y0049603D01*
X0036079Y0037397D02*
X0036132Y0037392D01*
X0036184Y0037383D01*
X0036236Y0037370D01*
X0036286Y0037353D01*
X0036335Y0037333D01*
X0036382Y0037310D01*
X0036428Y0037283D01*
X0036472Y0037253D01*
X0036513Y0037220D01*
X0036552Y0037184D01*
X0036588Y0037145D01*
X0036621Y0037104D01*
X0036652Y0037060D01*
X0036679Y0037015D01*
X0036703Y0036967D01*
X0036723Y0036918D01*
X0036740Y0036868D01*
X0036753Y0036817D01*
X0036762Y0036765D01*
X0036768Y0036712D01*
X0036770Y0036659D01*
X0036768Y0036606D01*
X0036762Y0036553D01*
X0036753Y0036501D01*
X0036740Y0036450D01*
X0036723Y0036400D01*
X0036703Y0036351D01*
X0036679Y0036303D01*
X0036652Y0036258D01*
X0036621Y0036214D01*
X0036588Y0036173D01*
X0036552Y0036134D01*
X0036513Y0036098D01*
X0036472Y0036065D01*
X0036428Y0036035D01*
X0036382Y0036008D01*
X0036335Y0035985D01*
X0036286Y0035965D01*
X0036236Y0035948D01*
X0036184Y0035935D01*
X0036132Y0035926D01*
X0036079Y0035921D01*
X0036026Y0035916D01*
X0035974Y0035907D01*
X0035922Y0035894D01*
X0035872Y0035877D01*
X0035823Y0035857D01*
X0035776Y0035834D01*
X0035730Y0035807D01*
X0035686Y0035777D01*
X0035645Y0035744D01*
X0035606Y0035708D01*
X0035570Y0035669D01*
X0035537Y0035628D01*
X0035506Y0035584D01*
X0035479Y0035539D01*
X0035455Y0035491D01*
X0035435Y0035442D01*
X0035418Y0035392D01*
X0035405Y0035341D01*
X0035396Y0035289D01*
X0035390Y0035236D01*
X0035388Y0035183D01*
X0035390Y0035130D01*
X0035396Y0035077D01*
X0035405Y0035025D01*
X0035418Y0034974D01*
X0035435Y0034924D01*
X0035455Y0034875D01*
X0035479Y0034827D01*
X0035506Y0034782D01*
X0035537Y0034738D01*
X0035570Y0034697D01*
X0035606Y0034658D01*
X0035645Y0034622D01*
X0035686Y0034589D01*
X0035730Y0034559D01*
X0035776Y0034532D01*
X0035823Y0034509D01*
X0035872Y0034489D01*
X0035922Y0034472D01*
X0035974Y0034459D01*
X0036026Y0034450D01*
X0036079Y0034445D01*
X0036079Y0027555D02*
X0036132Y0027550D01*
X0036184Y0027541D01*
X0036236Y0027528D01*
X0036286Y0027511D01*
X0036335Y0027491D01*
X0036382Y0027468D01*
X0036428Y0027441D01*
X0036472Y0027411D01*
X0036513Y0027378D01*
X0036552Y0027342D01*
X0036588Y0027303D01*
X0036621Y0027262D01*
X0036652Y0027218D01*
X0036679Y0027173D01*
X0036703Y0027125D01*
X0036723Y0027076D01*
X0036740Y0027026D01*
X0036753Y0026975D01*
X0036762Y0026923D01*
X0036768Y0026870D01*
X0036770Y0026817D01*
X0036768Y0026764D01*
X0036762Y0026711D01*
X0036753Y0026659D01*
X0036740Y0026608D01*
X0036723Y0026558D01*
X0036703Y0026509D01*
X0036679Y0026461D01*
X0036652Y0026416D01*
X0036621Y0026372D01*
X0036588Y0026331D01*
X0036552Y0026292D01*
X0036513Y0026256D01*
X0036472Y0026223D01*
X0036428Y0026193D01*
X0036382Y0026166D01*
X0036335Y0026143D01*
X0036286Y0026123D01*
X0036236Y0026106D01*
X0036184Y0026093D01*
X0036132Y0026084D01*
X0036079Y0026079D01*
X0036026Y0026074D01*
X0035974Y0026065D01*
X0035922Y0026052D01*
X0035872Y0026035D01*
X0035823Y0026015D01*
X0035776Y0025992D01*
X0035730Y0025965D01*
X0035686Y0025935D01*
X0035645Y0025902D01*
X0035606Y0025866D01*
X0035570Y0025827D01*
X0035537Y0025786D01*
X0035506Y0025742D01*
X0035479Y0025697D01*
X0035455Y0025649D01*
X0035435Y0025600D01*
X0035418Y0025550D01*
X0035405Y0025499D01*
X0035396Y0025447D01*
X0035390Y0025394D01*
X0035388Y0025341D01*
X0035390Y0025288D01*
X0035396Y0025235D01*
X0035405Y0025183D01*
X0035418Y0025132D01*
X0035435Y0025082D01*
X0035455Y0025033D01*
X0035479Y0024985D01*
X0035506Y0024940D01*
X0035537Y0024896D01*
X0035570Y0024855D01*
X0035606Y0024816D01*
X0035645Y0024780D01*
X0035686Y0024747D01*
X0035730Y0024717D01*
X0035776Y0024690D01*
X0035823Y0024667D01*
X0035872Y0024647D01*
X0035922Y0024630D01*
X0035974Y0024617D01*
X0036026Y0024608D01*
X0036079Y0024603D01*
M02*
