%
M48
M72
T01C0.01969
T02C0.03200
T03C0.04000
T04C0.04331
T05C0.05118
T06C0.12205
%
T01
X33500Y166000
X53500Y166000
X73500Y166000
X93500Y166000
T02
X92500Y151000
X84500Y151000
X72500Y151000
X64500Y151000
X52500Y151000
X44500Y151000
X32500Y151000
X24500Y151000
T03
X43500Y196000
X53500Y196000
X63500Y196000
X73500Y196000
T04
X106000Y151000
X106000Y141000
X11000Y141000
X11000Y151000
T05
X16000Y21000
X16000Y36000
X16000Y51000
X16000Y66000
X101000Y66000
X101000Y51000
X101000Y36000
X101000Y21000
T06
X58500Y13500
X11000Y191000
X106000Y191000
M30
