G75*
%MOIN*%
%OFA0B0*%
%FSLAX25Y25*%
%IPPOS*%
%LPD*%
%AMOC8*
5,1,8,0,0,1.08239X$1,22.5*
%
%ADD10C,0.12205*%
%ADD11C,0.08600*%
%ADD12C,0.07000*%
%ADD13R,0.05906X0.05118*%
%ADD14OC8,0.05000*%
%ADD15C,0.05000*%
%ADD16C,0.06000*%
%ADD17C,0.01197*%
%ADD18R,0.05118X0.03937*%
D10*
X0058500Y0013500D03*
X0011000Y0191000D03*
X0106000Y0191000D03*
D11*
X0016000Y0021000D02*
X0015900Y0021000D01*
X0016000Y0036000D02*
X0015900Y0036000D01*
X0016000Y0051000D02*
X0015900Y0051000D01*
X0016000Y0066000D02*
X0015900Y0066000D01*
X0100900Y0066000D02*
X0101000Y0066000D01*
X0101000Y0051000D02*
X0100900Y0051000D01*
X0101000Y0036000D02*
X0100900Y0036000D01*
X0101000Y0021000D02*
X0100900Y0021000D01*
D12*
X0105900Y0141000D02*
X0106000Y0141000D01*
X0106000Y0151000D02*
X0105900Y0151000D01*
X0011000Y0151000D02*
X0010900Y0151000D01*
X0011000Y0141000D02*
X0010900Y0141000D01*
D13*
X0023500Y0167260D03*
X0023500Y0174740D03*
X0043500Y0174740D03*
X0043500Y0167260D03*
X0063500Y0167260D03*
X0063500Y0174740D03*
X0083500Y0174740D03*
X0083500Y0167260D03*
X0081000Y0084740D03*
X0081000Y0077260D03*
X0071000Y0077260D03*
X0071000Y0084740D03*
X0046000Y0084740D03*
X0046000Y0077260D03*
X0036000Y0077260D03*
X0036000Y0084740D03*
D14*
X0032500Y0151000D03*
X0052500Y0151000D03*
X0072500Y0151000D03*
X0092500Y0151000D03*
D15*
X0084500Y0151000D03*
X0064500Y0151000D03*
X0044500Y0151000D03*
X0024500Y0151000D03*
D16*
X0043500Y0193000D02*
X0043500Y0199000D01*
X0053500Y0199000D02*
X0053500Y0193000D01*
X0063500Y0193000D02*
X0063500Y0199000D01*
X0073500Y0199000D02*
X0073500Y0193000D01*
D17*
X0076406Y0137134D02*
X0076406Y0132346D01*
X0070594Y0132346D01*
X0070594Y0137134D01*
X0076406Y0137134D01*
X0076406Y0133542D02*
X0070594Y0133542D01*
X0070594Y0134738D02*
X0076406Y0134738D01*
X0076406Y0135934D02*
X0070594Y0135934D01*
X0070594Y0137130D02*
X0076406Y0137130D01*
X0086406Y0137134D02*
X0086406Y0132346D01*
X0080594Y0132346D01*
X0080594Y0137134D01*
X0086406Y0137134D01*
X0086406Y0133542D02*
X0080594Y0133542D01*
X0080594Y0134738D02*
X0086406Y0134738D01*
X0086406Y0135934D02*
X0080594Y0135934D01*
X0080594Y0137130D02*
X0086406Y0137130D01*
X0096406Y0137134D02*
X0096406Y0132346D01*
X0090594Y0132346D01*
X0090594Y0137134D01*
X0096406Y0137134D01*
X0096406Y0133542D02*
X0090594Y0133542D01*
X0090594Y0134738D02*
X0096406Y0134738D01*
X0096406Y0135934D02*
X0090594Y0135934D01*
X0090594Y0137130D02*
X0096406Y0137130D01*
X0096406Y0099654D02*
X0096406Y0094866D01*
X0090594Y0094866D01*
X0090594Y0099654D01*
X0096406Y0099654D01*
X0096406Y0096062D02*
X0090594Y0096062D01*
X0090594Y0097258D02*
X0096406Y0097258D01*
X0096406Y0098454D02*
X0090594Y0098454D01*
X0090594Y0099650D02*
X0096406Y0099650D01*
X0086406Y0099654D02*
X0086406Y0094866D01*
X0080594Y0094866D01*
X0080594Y0099654D01*
X0086406Y0099654D01*
X0086406Y0096062D02*
X0080594Y0096062D01*
X0080594Y0097258D02*
X0086406Y0097258D01*
X0086406Y0098454D02*
X0080594Y0098454D01*
X0080594Y0099650D02*
X0086406Y0099650D01*
X0076406Y0099654D02*
X0076406Y0094866D01*
X0070594Y0094866D01*
X0070594Y0099654D01*
X0076406Y0099654D01*
X0076406Y0096062D02*
X0070594Y0096062D01*
X0070594Y0097258D02*
X0076406Y0097258D01*
X0076406Y0098454D02*
X0070594Y0098454D01*
X0070594Y0099650D02*
X0076406Y0099650D01*
X0066406Y0099654D02*
X0066406Y0094866D01*
X0060594Y0094866D01*
X0060594Y0099654D01*
X0066406Y0099654D01*
X0066406Y0096062D02*
X0060594Y0096062D01*
X0060594Y0097258D02*
X0066406Y0097258D01*
X0066406Y0098454D02*
X0060594Y0098454D01*
X0060594Y0099650D02*
X0066406Y0099650D01*
X0056406Y0099654D02*
X0056406Y0094866D01*
X0050594Y0094866D01*
X0050594Y0099654D01*
X0056406Y0099654D01*
X0056406Y0096062D02*
X0050594Y0096062D01*
X0050594Y0097258D02*
X0056406Y0097258D01*
X0056406Y0098454D02*
X0050594Y0098454D01*
X0050594Y0099650D02*
X0056406Y0099650D01*
X0046406Y0099654D02*
X0046406Y0094866D01*
X0040594Y0094866D01*
X0040594Y0099654D01*
X0046406Y0099654D01*
X0046406Y0096062D02*
X0040594Y0096062D01*
X0040594Y0097258D02*
X0046406Y0097258D01*
X0046406Y0098454D02*
X0040594Y0098454D01*
X0040594Y0099650D02*
X0046406Y0099650D01*
X0036406Y0099654D02*
X0036406Y0094866D01*
X0030594Y0094866D01*
X0030594Y0099654D01*
X0036406Y0099654D01*
X0036406Y0096062D02*
X0030594Y0096062D01*
X0030594Y0097258D02*
X0036406Y0097258D01*
X0036406Y0098454D02*
X0030594Y0098454D01*
X0030594Y0099650D02*
X0036406Y0099650D01*
X0026406Y0099654D02*
X0026406Y0094866D01*
X0020594Y0094866D01*
X0020594Y0099654D01*
X0026406Y0099654D01*
X0026406Y0096062D02*
X0020594Y0096062D01*
X0020594Y0097258D02*
X0026406Y0097258D01*
X0026406Y0098454D02*
X0020594Y0098454D01*
X0020594Y0099650D02*
X0026406Y0099650D01*
X0026406Y0132346D02*
X0026406Y0137134D01*
X0026406Y0132346D02*
X0020594Y0132346D01*
X0020594Y0137134D01*
X0026406Y0137134D01*
X0026406Y0133542D02*
X0020594Y0133542D01*
X0020594Y0134738D02*
X0026406Y0134738D01*
X0026406Y0135934D02*
X0020594Y0135934D01*
X0020594Y0137130D02*
X0026406Y0137130D01*
X0036406Y0137134D02*
X0036406Y0132346D01*
X0030594Y0132346D01*
X0030594Y0137134D01*
X0036406Y0137134D01*
X0036406Y0133542D02*
X0030594Y0133542D01*
X0030594Y0134738D02*
X0036406Y0134738D01*
X0036406Y0135934D02*
X0030594Y0135934D01*
X0030594Y0137130D02*
X0036406Y0137130D01*
X0046406Y0137134D02*
X0046406Y0132346D01*
X0040594Y0132346D01*
X0040594Y0137134D01*
X0046406Y0137134D01*
X0046406Y0133542D02*
X0040594Y0133542D01*
X0040594Y0134738D02*
X0046406Y0134738D01*
X0046406Y0135934D02*
X0040594Y0135934D01*
X0040594Y0137130D02*
X0046406Y0137130D01*
X0056406Y0137134D02*
X0056406Y0132346D01*
X0050594Y0132346D01*
X0050594Y0137134D01*
X0056406Y0137134D01*
X0056406Y0133542D02*
X0050594Y0133542D01*
X0050594Y0134738D02*
X0056406Y0134738D01*
X0056406Y0135934D02*
X0050594Y0135934D01*
X0050594Y0137130D02*
X0056406Y0137130D01*
X0066406Y0137134D02*
X0066406Y0132346D01*
X0060594Y0132346D01*
X0060594Y0137134D01*
X0066406Y0137134D01*
X0066406Y0133542D02*
X0060594Y0133542D01*
X0060594Y0134738D02*
X0066406Y0134738D01*
X0066406Y0135934D02*
X0060594Y0135934D01*
X0060594Y0137130D02*
X0066406Y0137130D01*
D18*
X0064189Y0061000D03*
X0064189Y0051000D03*
X0064189Y0036000D03*
X0064189Y0026000D03*
X0052811Y0026000D03*
X0052811Y0036000D03*
X0052811Y0051000D03*
X0052811Y0061000D03*
X0029189Y0061000D03*
X0029189Y0051000D03*
X0029189Y0036000D03*
X0029189Y0026000D03*
X0087811Y0026000D03*
X0087811Y0036000D03*
X0087811Y0051000D03*
X0087811Y0061000D03*
M02*
