G75*
%MOIN*%
%OFA0B0*%
%FSLAX25Y25*%
%IPPOS*%
%LPD*%
%AMOC8*
5,1,8,0,0,1.08239X$1,22.5*
%
%ADD10C,0.12205*%
%ADD11C,0.08600*%
%ADD12C,0.07000*%
%ADD13OC8,0.05000*%
%ADD14C,0.05000*%
%ADD15C,0.06000*%
D10*
X0058500Y0013500D03*
X0011000Y0191000D03*
X0106000Y0191000D03*
D11*
X0021000Y0021000D02*
X0016000Y0021000D01*
X0016000Y0036000D02*
X0021000Y0036000D01*
X0021000Y0051000D02*
X0016000Y0051000D01*
X0016000Y0066000D02*
X0021000Y0066000D01*
X0096000Y0066000D02*
X0101000Y0066000D01*
X0101000Y0051000D02*
X0096000Y0051000D01*
X0096000Y0036000D02*
X0101000Y0036000D01*
X0101000Y0021000D02*
X0096000Y0021000D01*
D12*
X0105900Y0141000D02*
X0106000Y0141000D01*
X0106000Y0151000D02*
X0105900Y0151000D01*
X0125900Y0146000D02*
X0126000Y0146000D01*
X0011000Y0141000D02*
X0010900Y0141000D01*
X0011000Y0151000D02*
X0010900Y0151000D01*
D13*
X0032500Y0151000D03*
X0052500Y0151000D03*
X0072500Y0151000D03*
X0092500Y0151000D03*
D14*
X0084500Y0151000D03*
X0064500Y0151000D03*
X0044500Y0151000D03*
X0024500Y0151000D03*
D15*
X0043500Y0193000D02*
X0043500Y0199000D01*
X0053500Y0199000D02*
X0053500Y0193000D01*
X0063500Y0193000D02*
X0063500Y0199000D01*
X0073500Y0199000D02*
X0073500Y0193000D01*
M02*
