<svg xmlns="http://www.w3.org/2000/svg" viewBox="0 0 550 550"><title>connected</title><path d="M172.82,183.25c-.41-.49-.83-1-1.29-1.43a21.1,21.1,0,1,0-29.84,29.84c.46.46.94.89,1.43,1.29l17,17L129,261.08h0A113.18,113.18,0,0,0,115.9,404.26L23.58,496.58l0,0a21.08,21.08,0,0,0,29.8,29.8l0,0,92.33-92.33a113.18,113.18,0,0,0,143.08-13.2h0L320,389.78l17.1,17.1c.41.49.83,1,1.29,1.43a21.1,21.1,0,0,0,29.84-29.84c-.46-.46-.94-.89-1.43-1.29" style="fill:#0c0"/><path d="M377.18,366.75c.41.49.83,1,1.29,1.43a21.1,21.1,0,0,0,29.84-29.84c-.46-.46-.94-.89-1.43-1.29l-17-17L421,288.92h0A113.18,113.18,0,0,0,434.1,145.74l92.32-92.32,0,0a21.08,21.08,0,0,0-29.8-29.8l0,0-92.33,92.33a113.18,113.18,0,0,0-143.08,13.2h0L230,160.22l-17.1-17.1c-.41-.49-.83-1-1.29-1.43a21.1,21.1,0,0,0-29.84,29.84c.46.46.94.89,1.43,1.29" style="fill:#0c0"/></svg>