<svg xmlns:dc="http://purl.org/dc/elements/1.1/" xmlns:cc="http://creativecommons.org/ns#" xmlns:rdf="http://www.w3.org/1999/02/22-rdf-syntax-ns#" xmlns:svg="http://www.w3.org/2000/svg" xmlns="http://www.w3.org/2000/svg" viewBox="0 0 400 140" id="svg6" height="140px" width="400px" version="1.1">
  <metadata id="metadata12">
    <rdf:RDF>
      <cc:Work rdf:about="">
        <dc:format>image/svg+xml</dc:format>
      </cc:Work>
    </rdf:RDF>
  </metadata>
  <defs id="defs10"/>
  <path class="B" d="M 0,40 h 200"/>
  <path class="B" d="M 0,60 h 200"/>

  <path class="B" d="M 24.5,59.5 l 67,67"/>
  <path class="B" d="M 175.5,59.5 l -67,67"/>

  <path class="B" d="M 90,123 l 0,17"/>
  <path class="B" d="M 110,123 l 0,17"/>
  <g id="S0" onmouseenter="Show(this,$(this).parent().parent().attr('id'))" onmouseleave="Hide(this,$(this).parent().parent().attr('id'))">
    <path class="L" style="stroke:#ffff00" d="M 5,40 h 95"/>
    <path class="L" style="stroke:#ffff00" d="M 100,40 h 95"/>
  </g>

  <g id="S1" onmouseenter="Show(this,$(this).parent().parent().attr('id'))" onmouseleave="Hide(this,$(this).parent().parent().attr('id'))">
    <path class="L" style="stroke:#ffff00" d="M 5,60 h 21"/>
    <path class="L" id="S0R" style="stroke:#ff0" d="M 25,60 h 20"/>
    <path class="L" id="S0A" style="stroke:#ff0" d="M 24.3,59.3 l 20.1,20.1"/>
    <path class="L" style="stroke:#ffff00" d="M 45,60 h 110"/>
    <path class="L" style="stroke:#ffff00" d="M 174,60 h 21"/>
    <path class="L" id="S0R" style="stroke:#ff0" d="M 175,60 h -20"/>
    <path class="L" id="S0A" style="stroke:#ff0" d="M 175.7,59.3 l -20.1,20.1"/>
  </g>

  <g id="S2" onmouseenter="Show(this,$(this).parent().parent().attr('id'))" onmouseleave="Hide(this,$(this).parent().parent().attr('id'))">
    <path class="L" style="stroke:#ffff00" d="M 44.3,79.3 l 46.5,46.5"/>
    <path class="L" style="stroke:#ffff00" d="M 90,124 l 0,11"/>
  </g>
  <g id="S3" onmouseenter="Show(this,$(this).parent().parent().attr('id'))" onmouseleave="Hide(this,$(this).parent().parent().attr('id'))">
    <path class="L" style="stroke:#00ff00" d="M 155.7,79.3 l -46.5,46.5"/>
    <path class="L" style="stroke:#ffff00" d="M 110,124 l 0,11"/>
  </g>
  <g><!-- Text blocks -->
    <g id="S0B" style="display:none">
      <rect x="90" y="35" width="20" height="10" fill="black" ></rect>
      <text class="T" x="90" y="43.5" font-family="Verdana" font-size="10" fill="white" >&lt;FF</text>
    </g>
    <g id="S1B" style="display:none">
      <rect x="290" y="35" width="20" height="10" fill="black" ></rect>
      <text class="T" x="290" y="43.5" font-family="Verdana" font-size="10" fill="white" >&lt;FF</text>
    </g>
    <g id="S2B" style="display:none">
      <rect x="90" y="55" width="20" height="10" fill="black" ></rect>
      <text class="T" x="90" y="63.5" font-family="Verdana" font-size="10" fill="white" >&lt;FF</text>
    </g>
    <g id="S3B" style="display:none">
      <rect x="290" y="55" width="20" height="10" fill="black" ></rect>
      <text class="T" x="290" y="63.5" font-family="Verdana" font-size="10" fill="white" >&lt;FF</text>
    </g>
  </g>
</svg>
