<svg xmlns:dc="http://purl.org/dc/elements/1.1/" xmlns:cc="http://creativecommons.org/ns#" xmlns:rdf="http://www.w3.org/1999/02/22-rdf-syntax-ns#" xmlns:svg="http://www.w3.org/2000/svg" xmlns="http://www.w3.org/2000/svg" viewBox="160 0 100 100" id="svg6" height="70px" width="70px" version="1.1">
  <metadata id="metadata12">
	<rdf:RDF>
	  <cc:Work rdf:about="">
		<dc:format>image/svg+xml</dc:format>
	  </cc:Work>
	</rdf:RDF>
  </metadata>
  <defs id="defs10"/>
  <g>

<!-- 2,1 -->
  	<path class="B" d="M 146.5,-11.5  l -33,33"/>

  	<path class="B" d="M 115,18  l 0,62"/>
  	<path class="B" d="M 135,78 l 0,2"/>
  	<path class="B" d="M 133.5,81.5 l 11.5,-11.5"/>

    <path class="B" d="M 146,71 l -32,-32"/>
  	<path class="B" d="M 143,70  h 7"/>
  </g>
  <g id="B1" class="S1">
	   <path class="L" style="stroke:#0f0" nswitch="" d="M 146,-11  l -32,32"/>
  </g>
  <g id="B2" class="S0">
	  <path class="L" style="stroke:#0ff" d="M 115,19  l 0,22"/>
	  <path class="L" style="stroke:#0f0" nswitch="" d="M 115,61  l 0,19"/>

	  <path id="S1S" class="L" style="stroke:#ff0" d="M 115,41  l 0,20"/>
    <path id="S1D" class="L" style="stroke:#f0f" d="M 130,55 l -16,-16"/>
  </g>
  <g id="B3" class="S0">
  	<path class="L" style="stroke:#0f0;" nswitch="" d="M 144,70  h 6"/>
  	<path class="L" style="stroke:#0f0;" nswitch="" d="M 135,79 l 0,1"/>

    <path id="S1D" class="L" style="stroke:#fa3;" nswitch="" d="M 146,71 l -16,-16"/>
  	<path id="S1S" class="L" style="stroke:#0f0;" nswitch="" d="M 134,81 l 12,-12"/>
  </g>

<!-- 3,1 -->
<g>
	<path class="B" d="M 170,0  l 0,70"/>
	<path class="B" d="M 190,48 l 0,22"/>
	<path class="B" d="M 188.5,51.5 l 11.5,-11.5"/>

	<path class="B" d="M 201,41 l -32,-32"/>
	<path class="B" d="M 198,40  h 27"/>
	<path class="B" d="M 221.5,41.5 l 12,-12"/>
  </g>
  <g id="B4" class="S1">
  	<path class="L" style="stroke:#0f0;" nswitch="" d="M 224,40  h -10"/>
  	<path class="L" style="stroke:#0f0;" nswitch="" d="M 222,41 l 10,-10"/>
  </g>
  <g id="B2" class="S0">
  	<path class="L" style="stroke:#0ff;" nswitch="" d="M 170,0  l 0,11"/>
  	<path class="L" style="stroke:#0f0;" nswitch="" d="M 170,31  l 0,39"/>

  	<path id="S1S" class="L" style="stroke:#ff0;" nswitch="" d="M 170,11  l 0,20"/>
    <path id="S1D" class="L" style="stroke:#f0f;" nswitch="" d="M 185,25 l -16,-16"/>
  </g>
  <g id="B3" class="S0">
  	<path class="L" style="stroke:#0f0" d="M 214,40  h -15"/>
  	<path class="L" style="stroke:#0f0" nswitch="" d="M 190,49 l 0,21"/>

    <path id="S1D" class="L" style="stroke:#fa3" d="M 201,41 l -16,-16"/>
  	<path id="S1S" class="L" style="stroke:#0f0" d="M 189,51 l 12,-12"/>-->
  </g>
</svg>
