G75*
%MOIN*%
%OFA0B0*%
%FSLAX25Y25*%
%IPPOS*%
%LPD*%
%AMOC8*
5,1,8,0,0,1.08239X$1,22.5*
%
%ADD10R,0.06299X0.10236*%
%ADD11R,0.08000X0.02600*%
%ADD12C,0.06000*%
%ADD13OC8,0.06000*%
%ADD14R,0.03150X0.10236*%
%ADD15R,0.02000X0.05800*%
%ADD16R,0.05800X0.02000*%
%ADD17C,0.03200*%
%ADD18C,0.01600*%
%ADD19C,0.02800*%
%ADD20C,0.07087*%
D10*
X0056800Y0044713D03*
X0056800Y0058887D03*
D11*
X0079700Y0034300D03*
X0079700Y0029300D03*
X0079700Y0024300D03*
X0079700Y0019300D03*
X0103900Y0019300D03*
X0103900Y0024300D03*
X0103900Y0029300D03*
X0103900Y0034300D03*
D12*
X0034800Y0056800D02*
X0028800Y0056800D01*
X0019800Y0056800D02*
X0013800Y0056800D01*
X0013800Y0066800D02*
X0019800Y0066800D01*
X0028800Y0066800D02*
X0034800Y0066800D01*
X0034800Y0076800D02*
X0028800Y0076800D01*
X0019800Y0076800D02*
X0013800Y0076800D01*
X0036800Y0098800D02*
X0036800Y0104800D01*
X0046800Y0104800D02*
X0046800Y0098800D01*
X0056800Y0098800D02*
X0056800Y0104800D01*
X0066800Y0104800D02*
X0066800Y0098800D01*
X0076800Y0098800D02*
X0076800Y0104800D01*
X0086800Y0104800D02*
X0086800Y0098800D01*
X0096800Y0098800D02*
X0096800Y0104800D01*
X0106800Y0104800D02*
X0106800Y0098800D01*
X0116800Y0098800D02*
X0116800Y0104800D01*
X0126800Y0104800D02*
X0126800Y0098800D01*
X0136800Y0098800D02*
X0136800Y0104800D01*
X0146800Y0104800D02*
X0146800Y0098800D01*
D13*
X0146800Y0081800D03*
X0156800Y0081800D03*
X0156800Y0071800D03*
X0146800Y0071800D03*
X0146800Y0061800D03*
X0156800Y0061800D03*
D14*
X0127706Y0041800D03*
X0121800Y0041800D03*
X0115894Y0041800D03*
D15*
X0107800Y0055600D03*
X0104700Y0055600D03*
X0101500Y0055600D03*
X0098400Y0055600D03*
X0095200Y0055600D03*
X0092100Y0055600D03*
X0088900Y0055600D03*
X0085800Y0055600D03*
X0085800Y0088000D03*
X0088900Y0088000D03*
X0092100Y0088000D03*
X0095200Y0088000D03*
X0098400Y0088000D03*
X0101500Y0088000D03*
X0104700Y0088000D03*
X0107800Y0088000D03*
D16*
X0113000Y0082800D03*
X0113000Y0079700D03*
X0113000Y0076500D03*
X0113000Y0073400D03*
X0113000Y0070200D03*
X0113000Y0067100D03*
X0113000Y0063900D03*
X0113000Y0060800D03*
X0080600Y0060800D03*
X0080600Y0063900D03*
X0080600Y0067100D03*
X0080600Y0070200D03*
X0080600Y0073400D03*
X0080600Y0076500D03*
X0080600Y0079700D03*
X0080600Y0082800D03*
D17*
X0056800Y0044713D02*
X0047627Y0044713D01*
X0045757Y0042843D01*
X0031800Y0028887D01*
X0031800Y0011800D01*
D18*
X0021959Y0007592D02*
X0021387Y0006600D01*
X0152213Y0006600D01*
X0151641Y0007592D01*
X0150898Y0010365D01*
X0150898Y0013235D01*
X0151641Y0016008D01*
X0153076Y0018494D01*
X0155106Y0020524D01*
X0157592Y0021959D01*
X0160365Y0022702D01*
X0163235Y0022702D01*
X0166008Y0021959D01*
X0166921Y0021432D01*
X0166921Y0094668D01*
X0166008Y0094141D01*
X0163235Y0093398D01*
X0160365Y0093398D01*
X0157592Y0094141D01*
X0155106Y0095576D01*
X0153076Y0097606D01*
X0151641Y0100092D01*
X0151100Y0102110D01*
X0151100Y0097945D01*
X0150445Y0096364D01*
X0149236Y0095155D01*
X0147655Y0094500D01*
X0145945Y0094500D01*
X0144364Y0095155D01*
X0143155Y0096364D01*
X0142500Y0097945D01*
X0142500Y0105655D01*
X0143155Y0107236D01*
X0144120Y0108201D01*
X0139480Y0108201D01*
X0140445Y0107236D01*
X0141100Y0105655D01*
X0141100Y0097945D01*
X0140445Y0096364D01*
X0139236Y0095155D01*
X0137655Y0094500D01*
X0135945Y0094500D01*
X0134364Y0095155D01*
X0133155Y0096364D01*
X0132500Y0097945D01*
X0132500Y0105655D01*
X0133155Y0107236D01*
X0134120Y0108201D01*
X0129480Y0108201D01*
X0130445Y0107236D01*
X0131100Y0105655D01*
X0131100Y0097945D01*
X0130445Y0096364D01*
X0129236Y0095155D01*
X0127655Y0094500D01*
X0125945Y0094500D01*
X0124364Y0095155D01*
X0123155Y0096364D01*
X0122500Y0097945D01*
X0122500Y0105655D01*
X0123155Y0107236D01*
X0124120Y0108201D01*
X0119480Y0108201D01*
X0120445Y0107236D01*
X0121100Y0105655D01*
X0121100Y0097945D01*
X0120445Y0096364D01*
X0119236Y0095155D01*
X0117655Y0094500D01*
X0115945Y0094500D01*
X0114364Y0095155D01*
X0113155Y0096364D01*
X0112500Y0097945D01*
X0112500Y0105655D01*
X0113155Y0107236D01*
X0114120Y0108201D01*
X0109480Y0108201D01*
X0110445Y0107236D01*
X0111100Y0105655D01*
X0111100Y0097945D01*
X0110445Y0096364D01*
X0109236Y0095155D01*
X0107655Y0094500D01*
X0105945Y0094500D01*
X0104364Y0095155D01*
X0103155Y0096364D01*
X0102500Y0097945D01*
X0102500Y0105655D01*
X0103155Y0107236D01*
X0104120Y0108201D01*
X0099480Y0108201D01*
X0100445Y0107236D01*
X0101100Y0105655D01*
X0101100Y0097945D01*
X0100445Y0096364D01*
X0099236Y0095155D01*
X0097655Y0094500D01*
X0097470Y0094500D01*
X0095670Y0092700D01*
X0096437Y0092700D01*
X0096895Y0092577D01*
X0097305Y0092340D01*
X0097446Y0092200D01*
X0099938Y0092200D01*
X0099950Y0092188D01*
X0099962Y0092200D01*
X0103038Y0092200D01*
X0103100Y0092138D01*
X0103162Y0092200D01*
X0106238Y0092200D01*
X0106250Y0092188D01*
X0106262Y0092200D01*
X0109338Y0092200D01*
X0110100Y0091438D01*
X0110100Y0090100D01*
X0111470Y0090100D01*
X0112670Y0088900D01*
X0160170Y0088900D01*
X0162670Y0086400D01*
X0163900Y0085170D01*
X0163900Y0068430D01*
X0161400Y0065930D01*
X0160429Y0064959D01*
X0161600Y0063788D01*
X0161600Y0062000D01*
X0157000Y0062000D01*
X0157000Y0061600D01*
X0161600Y0061600D01*
X0161600Y0059812D01*
X0158788Y0057000D01*
X0157000Y0057000D01*
X0157000Y0061600D01*
X0156600Y0061600D01*
X0156600Y0057000D01*
X0154812Y0057000D01*
X0152000Y0059812D01*
X0152000Y0061600D01*
X0156600Y0061600D01*
X0156600Y0062000D01*
X0152000Y0062000D01*
X0152000Y0063788D01*
X0152912Y0064700D01*
X0150930Y0064700D01*
X0148130Y0067500D01*
X0145019Y0067500D01*
X0142500Y0070019D01*
X0142500Y0073581D01*
X0143619Y0074700D01*
X0140930Y0074700D01*
X0139700Y0075930D01*
X0138030Y0077600D01*
X0123970Y0077600D01*
X0124570Y0077000D01*
X0124837Y0077000D01*
X0125829Y0076589D01*
X0126589Y0075829D01*
X0127000Y0074837D01*
X0127000Y0073763D01*
X0126589Y0072771D01*
X0126468Y0072650D01*
X0126730Y0072650D01*
X0127011Y0073329D01*
X0127771Y0074089D01*
X0128763Y0074500D01*
X0129837Y0074500D01*
X0130829Y0074089D01*
X0131589Y0073329D01*
X0132000Y0072337D01*
X0132000Y0071263D01*
X0131589Y0070271D01*
X0130829Y0069511D01*
X0130320Y0069300D01*
X0130829Y0069089D01*
X0131589Y0068329D01*
X0132000Y0067337D01*
X0132000Y0066263D01*
X0131589Y0065271D01*
X0130829Y0064511D01*
X0129837Y0064100D01*
X0128763Y0064100D01*
X0127771Y0064511D01*
X0127582Y0064700D01*
X0125218Y0064700D01*
X0125339Y0064579D01*
X0125750Y0063587D01*
X0125750Y0062513D01*
X0125339Y0061521D01*
X0124579Y0060761D01*
X0123587Y0060350D01*
X0123320Y0060350D01*
X0121670Y0058700D01*
X0116638Y0058700D01*
X0116438Y0058500D01*
X0110100Y0058500D01*
X0110100Y0052670D01*
X0110970Y0051800D01*
X0126370Y0051800D01*
X0127600Y0050570D01*
X0129800Y0048370D01*
X0129800Y0048218D01*
X0129819Y0048218D01*
X0130580Y0047457D01*
X0130580Y0036143D01*
X0129819Y0035382D01*
X0125592Y0035382D01*
X0125028Y0035946D01*
X0124815Y0035577D01*
X0124480Y0035242D01*
X0124070Y0035005D01*
X0123612Y0034882D01*
X0121800Y0034882D01*
X0121800Y0041800D01*
X0121800Y0041800D01*
X0121800Y0034882D01*
X0119988Y0034882D01*
X0119530Y0035005D01*
X0119120Y0035242D01*
X0118785Y0035577D01*
X0118572Y0035946D01*
X0118008Y0035382D01*
X0113781Y0035382D01*
X0113020Y0036143D01*
X0113020Y0041705D01*
X0110025Y0044700D01*
X0106000Y0044700D01*
X0106000Y0036900D01*
X0108438Y0036900D01*
X0109200Y0036138D01*
X0109200Y0032462D01*
X0108538Y0031800D01*
X0108938Y0031400D01*
X0135170Y0031400D01*
X0142670Y0023900D01*
X0143900Y0022670D01*
X0143900Y0016172D01*
X0144544Y0015906D01*
X0145906Y0014544D01*
X0146643Y0012763D01*
X0146643Y0010837D01*
X0145906Y0009056D01*
X0144544Y0007694D01*
X0142763Y0006957D01*
X0140837Y0006957D01*
X0139056Y0007694D01*
X0137694Y0009056D01*
X0136957Y0010837D01*
X0136957Y0012763D01*
X0137694Y0014544D01*
X0139056Y0015906D01*
X0139700Y0016172D01*
X0139700Y0020930D01*
X0133430Y0027200D01*
X0108938Y0027200D01*
X0108538Y0026800D01*
X0108938Y0026400D01*
X0115170Y0026400D01*
X0122670Y0018900D01*
X0123900Y0017670D01*
X0123900Y0016172D01*
X0124544Y0015906D01*
X0125906Y0014544D01*
X0126643Y0012763D01*
X0126643Y0010837D01*
X0125906Y0009056D01*
X0124544Y0007694D01*
X0122763Y0006957D01*
X0120837Y0006957D01*
X0119056Y0007694D01*
X0117694Y0009056D01*
X0116957Y0010837D01*
X0116957Y0012763D01*
X0117694Y0014544D01*
X0119056Y0015906D01*
X0119529Y0016102D01*
X0113430Y0022200D01*
X0108938Y0022200D01*
X0108862Y0022123D01*
X0109005Y0022040D01*
X0109340Y0021705D01*
X0109577Y0021295D01*
X0109700Y0020837D01*
X0109700Y0019300D01*
X0103900Y0019300D01*
X0103900Y0019300D01*
X0109700Y0019300D01*
X0109700Y0017763D01*
X0109577Y0017305D01*
X0109340Y0016895D01*
X0109005Y0016560D01*
X0108595Y0016323D01*
X0108137Y0016200D01*
X0103900Y0016200D01*
X0103900Y0019300D01*
X0103900Y0019300D01*
X0103900Y0019300D01*
X0098100Y0019300D01*
X0098100Y0020837D01*
X0098223Y0021295D01*
X0098460Y0021705D01*
X0098795Y0022040D01*
X0098938Y0022123D01*
X0098600Y0022462D01*
X0098600Y0026138D01*
X0099262Y0026800D01*
X0098600Y0027462D01*
X0098600Y0031138D01*
X0099262Y0031800D01*
X0098600Y0032462D01*
X0098600Y0036138D01*
X0099362Y0036900D01*
X0101800Y0036900D01*
X0101800Y0042500D01*
X0100763Y0042500D01*
X0099771Y0042911D01*
X0099011Y0043671D01*
X0098600Y0044663D01*
X0098600Y0044700D01*
X0094330Y0044700D01*
X0093100Y0045930D01*
X0093100Y0050900D01*
X0092100Y0050900D01*
X0092100Y0055600D01*
X0092100Y0055600D01*
X0092100Y0060300D01*
X0093337Y0060300D01*
X0093795Y0060177D01*
X0094205Y0059940D01*
X0094346Y0059800D01*
X0096154Y0059800D01*
X0096295Y0059940D01*
X0096705Y0060177D01*
X0097163Y0060300D01*
X0098400Y0060300D01*
X0098400Y0055600D01*
X0098400Y0055600D01*
X0098400Y0060300D01*
X0099400Y0060300D01*
X0099400Y0077630D01*
X0096300Y0080730D01*
X0096300Y0083300D01*
X0095200Y0083300D01*
X0095200Y0088000D01*
X0095200Y0088000D01*
X0095200Y0083300D01*
X0093963Y0083300D01*
X0093505Y0083423D01*
X0093095Y0083660D01*
X0092954Y0083800D01*
X0090562Y0083800D01*
X0090500Y0083862D01*
X0090438Y0083800D01*
X0087362Y0083800D01*
X0087350Y0083812D01*
X0087338Y0083800D01*
X0084800Y0083800D01*
X0084800Y0081262D01*
X0084788Y0081250D01*
X0084800Y0081238D01*
X0084800Y0078162D01*
X0084738Y0078100D01*
X0084800Y0078038D01*
X0084800Y0074962D01*
X0084788Y0074950D01*
X0084800Y0074938D01*
X0084800Y0072300D01*
X0089270Y0072300D01*
X0089570Y0072000D01*
X0089837Y0072000D01*
X0090829Y0071589D01*
X0091589Y0070829D01*
X0092000Y0069837D01*
X0092000Y0068763D01*
X0091589Y0067771D01*
X0090829Y0067011D01*
X0089837Y0066600D01*
X0088763Y0066600D01*
X0087771Y0067011D01*
X0087011Y0067771D01*
X0086875Y0068100D01*
X0084800Y0068100D01*
X0084800Y0065562D01*
X0084738Y0065500D01*
X0084800Y0065438D01*
X0084800Y0062362D01*
X0084788Y0062350D01*
X0084800Y0062338D01*
X0084800Y0059800D01*
X0087338Y0059800D01*
X0087350Y0059788D01*
X0087362Y0059800D01*
X0089854Y0059800D01*
X0089995Y0059940D01*
X0090405Y0060177D01*
X0090863Y0060300D01*
X0092100Y0060300D01*
X0092100Y0055600D01*
X0092100Y0055600D01*
X0092100Y0050900D01*
X0091000Y0050900D01*
X0091000Y0049130D01*
X0087000Y0045130D01*
X0085770Y0043900D01*
X0077070Y0043900D01*
X0073800Y0040630D01*
X0073800Y0028670D01*
X0073900Y0028570D01*
X0073900Y0029300D01*
X0079700Y0029300D01*
X0085500Y0029300D01*
X0085500Y0030837D01*
X0085377Y0031295D01*
X0085140Y0031705D01*
X0084805Y0032040D01*
X0084662Y0032123D01*
X0085000Y0032462D01*
X0085000Y0036138D01*
X0084238Y0036900D01*
X0081800Y0036900D01*
X0081800Y0039282D01*
X0081989Y0039471D01*
X0082400Y0040463D01*
X0082400Y0041537D01*
X0081989Y0042529D01*
X0081229Y0043289D01*
X0080237Y0043700D01*
X0079163Y0043700D01*
X0078171Y0043289D01*
X0077411Y0042529D01*
X0077000Y0041537D01*
X0077000Y0040463D01*
X0077411Y0039471D01*
X0077600Y0039282D01*
X0077600Y0036900D01*
X0075162Y0036900D01*
X0074400Y0036138D01*
X0074400Y0032462D01*
X0074738Y0032123D01*
X0074595Y0032040D01*
X0074260Y0031705D01*
X0074023Y0031295D01*
X0073900Y0030837D01*
X0073900Y0029300D01*
X0079700Y0029300D01*
X0079700Y0029300D01*
X0079700Y0029300D01*
X0085500Y0029300D01*
X0085500Y0027763D01*
X0085377Y0027305D01*
X0085140Y0026895D01*
X0084805Y0026560D01*
X0084662Y0026477D01*
X0085000Y0026138D01*
X0085000Y0022462D01*
X0084338Y0021800D01*
X0085000Y0021138D01*
X0085000Y0017462D01*
X0084238Y0016700D01*
X0075162Y0016700D01*
X0074662Y0017200D01*
X0073630Y0017200D01*
X0067730Y0023100D01*
X0066500Y0024330D01*
X0066500Y0044070D01*
X0074330Y0051900D01*
X0083230Y0051900D01*
X0083500Y0052170D01*
X0083500Y0058500D01*
X0077162Y0058500D01*
X0076962Y0058700D01*
X0076268Y0058700D01*
X0075829Y0058261D01*
X0074837Y0057850D01*
X0073763Y0057850D01*
X0072771Y0058261D01*
X0072011Y0059021D01*
X0071600Y0060013D01*
X0071600Y0061087D01*
X0071895Y0061800D01*
X0068830Y0061800D01*
X0066530Y0064100D01*
X0066263Y0064100D01*
X0065271Y0064511D01*
X0064511Y0065271D01*
X0064100Y0066263D01*
X0064100Y0067337D01*
X0064511Y0068329D01*
X0065271Y0069089D01*
X0066263Y0069500D01*
X0067337Y0069500D01*
X0068329Y0069089D01*
X0069089Y0068329D01*
X0069500Y0067337D01*
X0069500Y0067070D01*
X0070570Y0066000D01*
X0072130Y0066000D01*
X0071530Y0066600D01*
X0071263Y0066600D01*
X0070271Y0067011D01*
X0069511Y0067771D01*
X0069100Y0068763D01*
X0069100Y0069837D01*
X0069511Y0070829D01*
X0070082Y0071400D01*
X0055170Y0071400D01*
X0038665Y0054896D01*
X0038445Y0054364D01*
X0037236Y0053155D01*
X0035655Y0052500D01*
X0027945Y0052500D01*
X0026364Y0053155D01*
X0025155Y0054364D01*
X0025016Y0054700D01*
X0023584Y0054700D01*
X0023445Y0054364D01*
X0022236Y0053155D01*
X0020655Y0052500D01*
X0012945Y0052500D01*
X0011364Y0053155D01*
X0010155Y0054364D01*
X0009500Y0055945D01*
X0009500Y0057655D01*
X0010155Y0059236D01*
X0011364Y0060445D01*
X0012945Y0061100D01*
X0020655Y0061100D01*
X0022236Y0060445D01*
X0023445Y0059236D01*
X0023584Y0058900D01*
X0025016Y0058900D01*
X0025155Y0059236D01*
X0026364Y0060445D01*
X0027945Y0061100D01*
X0035655Y0061100D01*
X0037236Y0060445D01*
X0037756Y0059925D01*
X0042530Y0064700D01*
X0038584Y0064700D01*
X0038445Y0064364D01*
X0037236Y0063155D01*
X0035655Y0062500D01*
X0027945Y0062500D01*
X0026364Y0063155D01*
X0025155Y0064364D01*
X0025016Y0064700D01*
X0023584Y0064700D01*
X0023445Y0064364D01*
X0022236Y0063155D01*
X0020655Y0062500D01*
X0012945Y0062500D01*
X0011364Y0063155D01*
X0010155Y0064364D01*
X0009500Y0065945D01*
X0009500Y0067655D01*
X0010155Y0069236D01*
X0011364Y0070445D01*
X0012945Y0071100D01*
X0020655Y0071100D01*
X0022236Y0070445D01*
X0023445Y0069236D01*
X0023584Y0068900D01*
X0025016Y0068900D01*
X0025155Y0069236D01*
X0026364Y0070445D01*
X0027945Y0071100D01*
X0035655Y0071100D01*
X0037236Y0070445D01*
X0038445Y0069236D01*
X0038584Y0068900D01*
X0041930Y0068900D01*
X0050400Y0077370D01*
X0051630Y0078600D01*
X0072030Y0078600D01*
X0065930Y0084700D01*
X0064700Y0085930D01*
X0064700Y0095016D01*
X0064364Y0095155D01*
X0063155Y0096364D01*
X0062500Y0097945D01*
X0062500Y0105655D01*
X0063155Y0107236D01*
X0064120Y0108201D01*
X0059480Y0108201D01*
X0060445Y0107236D01*
X0061100Y0105655D01*
X0061100Y0097945D01*
X0060445Y0096364D01*
X0059236Y0095155D01*
X0057655Y0094500D01*
X0055945Y0094500D01*
X0054364Y0095155D01*
X0053155Y0096364D01*
X0052500Y0097945D01*
X0052500Y0105655D01*
X0053155Y0107236D01*
X0054120Y0108201D01*
X0049480Y0108201D01*
X0050445Y0107236D01*
X0051100Y0105655D01*
X0051100Y0097945D01*
X0050445Y0096364D01*
X0049236Y0095155D01*
X0047655Y0094500D01*
X0045945Y0094500D01*
X0044364Y0095155D01*
X0043155Y0096364D01*
X0042500Y0097945D01*
X0042500Y0105655D01*
X0043155Y0107236D01*
X0044120Y0108201D01*
X0039480Y0108201D01*
X0040445Y0107236D01*
X0041100Y0105655D01*
X0041100Y0097945D01*
X0040445Y0096364D01*
X0039236Y0095155D01*
X0037655Y0094500D01*
X0035945Y0094500D01*
X0034364Y0095155D01*
X0033155Y0096364D01*
X0032500Y0097945D01*
X0032500Y0105655D01*
X0033155Y0107236D01*
X0034120Y0108201D01*
X0022042Y0108201D01*
X0022702Y0105735D01*
X0022702Y0102865D01*
X0021959Y0100092D01*
X0020524Y0097606D01*
X0018494Y0095576D01*
X0016008Y0094141D01*
X0013235Y0093398D01*
X0010365Y0093398D01*
X0007592Y0094141D01*
X0006600Y0094713D01*
X0006600Y0021387D01*
X0007592Y0021959D01*
X0010365Y0022702D01*
X0013235Y0022702D01*
X0016008Y0021959D01*
X0018494Y0020524D01*
X0020524Y0018494D01*
X0021959Y0016008D01*
X0022702Y0013235D01*
X0022702Y0010365D01*
X0021959Y0007592D01*
X0022121Y0008194D02*
X0028556Y0008194D01*
X0029056Y0007694D02*
X0030837Y0006957D01*
X0032763Y0006957D01*
X0034544Y0007694D01*
X0035906Y0009056D01*
X0036643Y0010837D01*
X0036643Y0012763D01*
X0035906Y0014544D01*
X0034700Y0015749D01*
X0034700Y0027685D01*
X0046322Y0039308D01*
X0052730Y0032900D01*
X0053582Y0032900D01*
X0053771Y0032711D01*
X0054763Y0032300D01*
X0055837Y0032300D01*
X0056829Y0032711D01*
X0057589Y0033471D01*
X0058000Y0034463D01*
X0058000Y0035537D01*
X0057589Y0036529D01*
X0056829Y0037289D01*
X0055837Y0037700D01*
X0054763Y0037700D01*
X0054131Y0037438D01*
X0053275Y0038295D01*
X0060488Y0038295D01*
X0061250Y0039057D01*
X0061250Y0050370D01*
X0060488Y0051131D01*
X0053112Y0051131D01*
X0052350Y0050370D01*
X0052350Y0047613D01*
X0047050Y0047613D01*
X0045984Y0047172D01*
X0043298Y0044486D01*
X0030157Y0031345D01*
X0029341Y0030529D01*
X0028900Y0029463D01*
X0028900Y0015749D01*
X0027694Y0014544D01*
X0026957Y0012763D01*
X0026957Y0010837D01*
X0027694Y0009056D01*
X0029056Y0007694D01*
X0027389Y0009793D02*
X0022549Y0009793D01*
X0022702Y0011391D02*
X0026957Y0011391D01*
X0027050Y0012990D02*
X0022702Y0012990D01*
X0022340Y0014588D02*
X0027739Y0014588D01*
X0028900Y0016187D02*
X0021856Y0016187D01*
X0020933Y0017785D02*
X0028900Y0017785D01*
X0028900Y0019384D02*
X0019635Y0019384D01*
X0017701Y0020982D02*
X0028900Y0020982D01*
X0028900Y0022581D02*
X0013690Y0022581D01*
X0009910Y0022581D02*
X0006600Y0022581D01*
X0006600Y0024179D02*
X0028900Y0024179D01*
X0028900Y0025778D02*
X0006600Y0025778D01*
X0006600Y0027376D02*
X0028900Y0027376D01*
X0028900Y0028975D02*
X0006600Y0028975D01*
X0006600Y0030573D02*
X0029385Y0030573D01*
X0030157Y0031345D02*
X0030157Y0031345D01*
X0030984Y0032172D02*
X0006600Y0032172D01*
X0006600Y0033770D02*
X0032582Y0033770D01*
X0034181Y0035369D02*
X0006600Y0035369D01*
X0006600Y0036967D02*
X0035779Y0036967D01*
X0037378Y0038566D02*
X0006600Y0038566D01*
X0006600Y0040164D02*
X0038976Y0040164D01*
X0040575Y0041763D02*
X0006600Y0041763D01*
X0006600Y0043361D02*
X0042173Y0043361D01*
X0043298Y0044486D02*
X0043298Y0044486D01*
X0043772Y0044960D02*
X0006600Y0044960D01*
X0006600Y0046558D02*
X0045370Y0046558D01*
X0045757Y0042843D02*
X0053600Y0035000D01*
X0055300Y0035000D01*
X0057151Y0036967D02*
X0066500Y0036967D01*
X0066500Y0035369D02*
X0058000Y0035369D01*
X0057713Y0033770D02*
X0066500Y0033770D01*
X0066500Y0032172D02*
X0039186Y0032172D01*
X0037588Y0030573D02*
X0066500Y0030573D01*
X0066500Y0028975D02*
X0035989Y0028975D01*
X0034700Y0027376D02*
X0066500Y0027376D01*
X0066500Y0025778D02*
X0034700Y0025778D01*
X0034700Y0024179D02*
X0066651Y0024179D01*
X0068600Y0025200D02*
X0068600Y0043200D01*
X0075200Y0049800D01*
X0084100Y0049800D01*
X0085800Y0051500D01*
X0085800Y0055600D01*
X0083500Y0056149D02*
X0061750Y0056149D01*
X0061750Y0057748D02*
X0083500Y0057748D01*
X0083500Y0054551D02*
X0061750Y0054551D01*
X0061750Y0053532D02*
X0061750Y0058112D01*
X0057575Y0058112D01*
X0057575Y0059661D01*
X0061750Y0059661D01*
X0061750Y0064242D01*
X0061627Y0064699D01*
X0061390Y0065110D01*
X0061055Y0065445D01*
X0060644Y0065682D01*
X0060187Y0065805D01*
X0057575Y0065805D01*
X0057575Y0059661D01*
X0056025Y0059661D01*
X0056025Y0058112D01*
X0051850Y0058112D01*
X0051850Y0053532D01*
X0051973Y0053074D01*
X0052210Y0052663D01*
X0052545Y0052328D01*
X0052956Y0052091D01*
X0053413Y0051969D01*
X0056025Y0051969D01*
X0056025Y0058112D01*
X0057575Y0058112D01*
X0057575Y0051969D01*
X0060187Y0051969D01*
X0060644Y0052091D01*
X0061055Y0052328D01*
X0061390Y0052663D01*
X0061627Y0053074D01*
X0061750Y0053532D01*
X0061557Y0052952D02*
X0083500Y0052952D01*
X0088900Y0055600D02*
X0088900Y0050000D01*
X0084900Y0046000D01*
X0076200Y0046000D01*
X0071700Y0041500D01*
X0071700Y0027800D01*
X0075200Y0024300D01*
X0079700Y0024300D01*
X0085000Y0024179D02*
X0098600Y0024179D01*
X0098600Y0022581D02*
X0085000Y0022581D01*
X0085000Y0020982D02*
X0098139Y0020982D01*
X0098100Y0019384D02*
X0085000Y0019384D01*
X0085000Y0017785D02*
X0098100Y0017785D01*
X0098100Y0017763D02*
X0098223Y0017305D01*
X0098460Y0016895D01*
X0098795Y0016560D01*
X0099205Y0016323D01*
X0099663Y0016200D01*
X0103900Y0016200D01*
X0103900Y0019300D01*
X0098100Y0019300D01*
X0098100Y0017763D01*
X0103900Y0017785D02*
X0103900Y0017785D01*
X0109700Y0017785D02*
X0117845Y0017785D01*
X0116247Y0019384D02*
X0109700Y0019384D01*
X0109661Y0020982D02*
X0114648Y0020982D01*
X0114300Y0024300D02*
X0121800Y0016800D01*
X0121800Y0011800D01*
X0126211Y0009793D02*
X0137389Y0009793D01*
X0136957Y0011391D02*
X0126643Y0011391D01*
X0126550Y0012990D02*
X0137050Y0012990D01*
X0137739Y0014588D02*
X0125861Y0014588D01*
X0123900Y0016187D02*
X0139700Y0016187D01*
X0139700Y0017785D02*
X0123785Y0017785D01*
X0122186Y0019384D02*
X0139700Y0019384D01*
X0139648Y0020982D02*
X0120588Y0020982D01*
X0118989Y0022581D02*
X0138049Y0022581D01*
X0136451Y0024179D02*
X0117391Y0024179D01*
X0115792Y0025778D02*
X0134852Y0025778D01*
X0137595Y0028975D02*
X0166921Y0028975D01*
X0166921Y0027376D02*
X0139194Y0027376D01*
X0140792Y0025778D02*
X0166921Y0025778D01*
X0166921Y0024179D02*
X0142391Y0024179D01*
X0143900Y0022581D02*
X0159910Y0022581D01*
X0163690Y0022581D02*
X0166921Y0022581D01*
X0166921Y0030573D02*
X0135997Y0030573D01*
X0134300Y0029300D02*
X0141800Y0021800D01*
X0141800Y0011800D01*
X0146211Y0009793D02*
X0151051Y0009793D01*
X0150898Y0011391D02*
X0146643Y0011391D01*
X0146550Y0012990D02*
X0150898Y0012990D01*
X0151260Y0014588D02*
X0145861Y0014588D01*
X0143900Y0016187D02*
X0151744Y0016187D01*
X0152667Y0017785D02*
X0143900Y0017785D01*
X0143900Y0019384D02*
X0153965Y0019384D01*
X0155899Y0020982D02*
X0143900Y0020982D01*
X0134300Y0029300D02*
X0103900Y0029300D01*
X0098600Y0028975D02*
X0085500Y0028975D01*
X0085396Y0027376D02*
X0098685Y0027376D01*
X0098600Y0025778D02*
X0085000Y0025778D01*
X0085500Y0030573D02*
X0098600Y0030573D01*
X0098890Y0032172D02*
X0084710Y0032172D01*
X0085000Y0033770D02*
X0098600Y0033770D01*
X0098600Y0035369D02*
X0085000Y0035369D01*
X0081800Y0036967D02*
X0101800Y0036967D01*
X0101800Y0038566D02*
X0081800Y0038566D01*
X0082276Y0040164D02*
X0101800Y0040164D01*
X0101800Y0041763D02*
X0082306Y0041763D01*
X0081055Y0043361D02*
X0099320Y0043361D01*
X0101300Y0045200D02*
X0101800Y0045700D01*
X0101800Y0046800D01*
X0095200Y0046800D01*
X0095200Y0055600D01*
X0092100Y0056149D02*
X0092100Y0056149D01*
X0092100Y0057748D02*
X0092100Y0057748D01*
X0092100Y0059346D02*
X0092100Y0059346D01*
X0098400Y0059346D02*
X0098400Y0059346D01*
X0099400Y0060945D02*
X0084800Y0060945D01*
X0084800Y0062543D02*
X0099400Y0062543D01*
X0099400Y0064142D02*
X0084800Y0064142D01*
X0084800Y0065740D02*
X0099400Y0065740D01*
X0099400Y0067339D02*
X0091157Y0067339D01*
X0092000Y0068937D02*
X0099400Y0068937D01*
X0099400Y0070536D02*
X0091710Y0070536D01*
X0089300Y0069300D02*
X0088400Y0070200D01*
X0080600Y0070200D01*
X0084800Y0067339D02*
X0087443Y0067339D01*
X0089435Y0072134D02*
X0099400Y0072134D01*
X0099400Y0073733D02*
X0084800Y0073733D01*
X0084800Y0075332D02*
X0099400Y0075332D01*
X0099400Y0076930D02*
X0084800Y0076930D01*
X0084800Y0078529D02*
X0098502Y0078529D01*
X0096903Y0080127D02*
X0084800Y0080127D01*
X0084800Y0081726D02*
X0096300Y0081726D01*
X0095200Y0083324D02*
X0095200Y0083324D01*
X0093873Y0083324D02*
X0084800Y0083324D01*
X0080600Y0082800D02*
X0076800Y0086600D01*
X0076800Y0101800D01*
X0085800Y0100800D02*
X0086800Y0101800D01*
X0085800Y0100800D02*
X0085800Y0088000D01*
X0088900Y0088000D02*
X0088900Y0091400D01*
X0091800Y0094300D01*
X0094300Y0094300D01*
X0096800Y0096800D01*
X0096800Y0101800D01*
X0101100Y0102506D02*
X0102500Y0102506D01*
X0102500Y0104105D02*
X0101100Y0104105D01*
X0101080Y0105703D02*
X0102520Y0105703D01*
X0103221Y0107302D02*
X0100379Y0107302D01*
X0101100Y0100908D02*
X0102500Y0100908D01*
X0102500Y0099309D02*
X0101100Y0099309D01*
X0101003Y0097711D02*
X0102597Y0097711D01*
X0103407Y0096112D02*
X0100193Y0096112D01*
X0097688Y0094514D02*
X0105912Y0094514D01*
X0107688Y0094514D02*
X0115912Y0094514D01*
X0117688Y0094514D02*
X0125912Y0094514D01*
X0127688Y0094514D02*
X0135912Y0094514D01*
X0137688Y0094514D02*
X0145912Y0094514D01*
X0147688Y0094514D02*
X0156946Y0094514D01*
X0154570Y0096112D02*
X0150193Y0096112D01*
X0151003Y0097711D02*
X0153015Y0097711D01*
X0152092Y0099309D02*
X0151100Y0099309D01*
X0151100Y0100908D02*
X0151422Y0100908D01*
X0142500Y0100908D02*
X0141100Y0100908D01*
X0141100Y0099309D02*
X0142500Y0099309D01*
X0142597Y0097711D02*
X0141003Y0097711D01*
X0140193Y0096112D02*
X0143407Y0096112D01*
X0142500Y0102506D02*
X0141100Y0102506D01*
X0141100Y0104105D02*
X0142500Y0104105D01*
X0142520Y0105703D02*
X0141080Y0105703D01*
X0140379Y0107302D02*
X0143221Y0107302D01*
X0133221Y0107302D02*
X0130379Y0107302D01*
X0131080Y0105703D02*
X0132520Y0105703D01*
X0132500Y0104105D02*
X0131100Y0104105D01*
X0131100Y0102506D02*
X0132500Y0102506D01*
X0132500Y0100908D02*
X0131100Y0100908D01*
X0131100Y0099309D02*
X0132500Y0099309D01*
X0132597Y0097711D02*
X0131003Y0097711D01*
X0130193Y0096112D02*
X0133407Y0096112D01*
X0123407Y0096112D02*
X0120193Y0096112D01*
X0121003Y0097711D02*
X0122597Y0097711D01*
X0122500Y0099309D02*
X0121100Y0099309D01*
X0121100Y0100908D02*
X0122500Y0100908D01*
X0122500Y0102506D02*
X0121100Y0102506D01*
X0121100Y0104105D02*
X0122500Y0104105D01*
X0122520Y0105703D02*
X0121080Y0105703D01*
X0120379Y0107302D02*
X0123221Y0107302D01*
X0113221Y0107302D02*
X0110379Y0107302D01*
X0111080Y0105703D02*
X0112520Y0105703D01*
X0112500Y0104105D02*
X0111100Y0104105D01*
X0111100Y0102506D02*
X0112500Y0102506D01*
X0112500Y0100908D02*
X0111100Y0100908D01*
X0111100Y0099309D02*
X0112500Y0099309D01*
X0112597Y0097711D02*
X0111003Y0097711D01*
X0110193Y0096112D02*
X0113407Y0096112D01*
X0110100Y0091317D02*
X0166921Y0091317D01*
X0166921Y0089718D02*
X0111852Y0089718D01*
X0110600Y0088000D02*
X0107800Y0088000D01*
X0110600Y0088000D02*
X0111800Y0086800D01*
X0159300Y0086800D01*
X0161800Y0084300D01*
X0161800Y0069300D01*
X0159300Y0066800D01*
X0151800Y0066800D01*
X0146800Y0071800D01*
X0143581Y0068937D02*
X0130981Y0068937D01*
X0131699Y0070536D02*
X0142500Y0070536D01*
X0142500Y0072134D02*
X0132000Y0072134D01*
X0131185Y0073733D02*
X0142652Y0073733D01*
X0140299Y0075332D02*
X0126795Y0075332D01*
X0126988Y0073733D02*
X0127415Y0073733D01*
X0129300Y0071800D02*
X0128050Y0070550D01*
X0123050Y0070550D01*
X0120200Y0073400D01*
X0113000Y0073400D01*
X0113000Y0076500D02*
X0122100Y0076500D01*
X0124300Y0074300D01*
X0125006Y0076930D02*
X0138700Y0076930D01*
X0138900Y0079700D02*
X0141800Y0076800D01*
X0151800Y0076800D01*
X0156800Y0071800D01*
X0162809Y0067339D02*
X0166921Y0067339D01*
X0166921Y0068937D02*
X0163900Y0068937D01*
X0163900Y0070536D02*
X0166921Y0070536D01*
X0166921Y0072134D02*
X0163900Y0072134D01*
X0163900Y0073733D02*
X0166921Y0073733D01*
X0166921Y0075332D02*
X0163900Y0075332D01*
X0163900Y0076930D02*
X0166921Y0076930D01*
X0166921Y0078529D02*
X0163900Y0078529D01*
X0163900Y0080127D02*
X0166921Y0080127D01*
X0166921Y0081726D02*
X0163900Y0081726D01*
X0163900Y0083324D02*
X0166921Y0083324D01*
X0166921Y0084923D02*
X0163900Y0084923D01*
X0162549Y0086521D02*
X0166921Y0086521D01*
X0166921Y0088120D02*
X0160950Y0088120D01*
X0166921Y0092915D02*
X0095885Y0092915D01*
X0098400Y0088000D02*
X0098400Y0081600D01*
X0101500Y0078500D01*
X0104700Y0081700D01*
X0104700Y0088000D01*
X0113000Y0082800D02*
X0145800Y0082800D01*
X0146800Y0081800D01*
X0138900Y0079700D02*
X0113000Y0079700D01*
X0101500Y0078500D02*
X0101500Y0055600D01*
X0101500Y0047100D01*
X0101800Y0046800D01*
X0103900Y0044700D01*
X0103900Y0034300D01*
X0106000Y0036967D02*
X0113020Y0036967D01*
X0113020Y0038566D02*
X0106000Y0038566D01*
X0106000Y0040164D02*
X0113020Y0040164D01*
X0112962Y0041763D02*
X0106000Y0041763D01*
X0106000Y0043361D02*
X0111363Y0043361D01*
X0110894Y0046800D02*
X0115894Y0041800D01*
X0121800Y0041763D02*
X0121800Y0041763D01*
X0121800Y0040164D02*
X0121800Y0040164D01*
X0121800Y0038566D02*
X0121800Y0038566D01*
X0121800Y0036967D02*
X0121800Y0036967D01*
X0121800Y0035369D02*
X0121800Y0035369D01*
X0124607Y0035369D02*
X0166921Y0035369D01*
X0166921Y0036967D02*
X0130580Y0036967D01*
X0130580Y0038566D02*
X0166921Y0038566D01*
X0166921Y0040164D02*
X0130580Y0040164D01*
X0130580Y0041763D02*
X0166921Y0041763D01*
X0166921Y0043361D02*
X0130580Y0043361D01*
X0130580Y0044960D02*
X0166921Y0044960D01*
X0166921Y0046558D02*
X0130580Y0046558D01*
X0129880Y0048157D02*
X0166921Y0048157D01*
X0166921Y0049755D02*
X0128414Y0049755D01*
X0127700Y0047500D02*
X0125500Y0049700D01*
X0110100Y0049700D01*
X0107800Y0052000D01*
X0107800Y0055600D01*
X0108000Y0055600D01*
X0110100Y0056149D02*
X0166921Y0056149D01*
X0166921Y0057748D02*
X0159536Y0057748D01*
X0157000Y0057748D02*
X0156600Y0057748D01*
X0156600Y0059346D02*
X0157000Y0059346D01*
X0157000Y0060945D02*
X0156600Y0060945D01*
X0161135Y0059346D02*
X0166921Y0059346D01*
X0166921Y0060945D02*
X0161600Y0060945D01*
X0161600Y0062543D02*
X0166921Y0062543D01*
X0166921Y0064142D02*
X0161246Y0064142D01*
X0161210Y0065740D02*
X0166921Y0065740D01*
X0154064Y0057748D02*
X0148829Y0057748D01*
X0148581Y0057500D02*
X0151100Y0060019D01*
X0151100Y0063581D01*
X0148581Y0066100D01*
X0145019Y0066100D01*
X0142500Y0063581D01*
X0142500Y0060019D01*
X0145019Y0057500D01*
X0148581Y0057500D01*
X0150428Y0059346D02*
X0152465Y0059346D01*
X0152000Y0060945D02*
X0151100Y0060945D01*
X0151100Y0062543D02*
X0152000Y0062543D01*
X0152354Y0064142D02*
X0150539Y0064142D01*
X0149890Y0065740D02*
X0148941Y0065740D01*
X0148291Y0067339D02*
X0131999Y0067339D01*
X0131784Y0065740D02*
X0144659Y0065740D01*
X0143061Y0064142D02*
X0129938Y0064142D01*
X0128662Y0064142D02*
X0125520Y0064142D01*
X0125750Y0062543D02*
X0142500Y0062543D01*
X0142500Y0060945D02*
X0124763Y0060945D01*
X0122316Y0059346D02*
X0143172Y0059346D01*
X0144771Y0057748D02*
X0110100Y0057748D01*
X0110100Y0054551D02*
X0166921Y0054551D01*
X0166921Y0052952D02*
X0110100Y0052952D01*
X0104700Y0055600D02*
X0104700Y0048900D01*
X0106800Y0046800D01*
X0110894Y0046800D01*
X0099400Y0048900D02*
X0097300Y0048900D01*
X0097300Y0050900D01*
X0098400Y0050900D01*
X0099400Y0050900D01*
X0099400Y0048900D01*
X0099400Y0049755D02*
X0097300Y0049755D01*
X0098400Y0050900D02*
X0098400Y0055600D01*
X0098400Y0050900D01*
X0098400Y0051354D02*
X0098400Y0051354D01*
X0098400Y0052952D02*
X0098400Y0052952D01*
X0098400Y0054551D02*
X0098400Y0054551D01*
X0098400Y0055600D02*
X0098400Y0055600D01*
X0098400Y0056149D02*
X0098400Y0056149D01*
X0098400Y0057748D02*
X0098400Y0057748D01*
X0092100Y0054551D02*
X0092100Y0054551D01*
X0092100Y0052952D02*
X0092100Y0052952D01*
X0092100Y0051354D02*
X0092100Y0051354D01*
X0093100Y0049755D02*
X0091000Y0049755D01*
X0090027Y0048157D02*
X0093100Y0048157D01*
X0093100Y0046558D02*
X0088428Y0046558D01*
X0086830Y0044960D02*
X0094070Y0044960D01*
X0109200Y0035369D02*
X0118993Y0035369D01*
X0109200Y0033770D02*
X0166921Y0033770D01*
X0166921Y0032172D02*
X0108910Y0032172D01*
X0103900Y0024300D02*
X0114300Y0024300D01*
X0119444Y0016187D02*
X0034700Y0016187D01*
X0035861Y0014588D02*
X0117739Y0014588D01*
X0117050Y0012990D02*
X0036550Y0012990D01*
X0036643Y0011391D02*
X0116957Y0011391D01*
X0117389Y0009793D02*
X0036211Y0009793D01*
X0035044Y0008194D02*
X0118556Y0008194D01*
X0125044Y0008194D02*
X0138556Y0008194D01*
X0145044Y0008194D02*
X0151479Y0008194D01*
X0127706Y0041800D02*
X0127700Y0041806D01*
X0127700Y0047500D01*
X0126816Y0051354D02*
X0166921Y0051354D01*
X0129300Y0066800D02*
X0121800Y0066800D01*
X0118900Y0063900D01*
X0113000Y0063900D01*
X0113000Y0067100D02*
X0117100Y0067100D01*
X0119300Y0069300D01*
X0113000Y0070200D02*
X0107300Y0070200D01*
X0106300Y0069200D01*
X0113000Y0060800D02*
X0120800Y0060800D01*
X0123050Y0063050D01*
X0095200Y0084923D02*
X0095200Y0084923D01*
X0095200Y0086521D02*
X0095200Y0086521D01*
X0080600Y0079700D02*
X0073900Y0079700D01*
X0066800Y0086800D01*
X0066800Y0101800D01*
X0062500Y0102506D02*
X0061100Y0102506D01*
X0061100Y0104105D02*
X0062500Y0104105D01*
X0062520Y0105703D02*
X0061080Y0105703D01*
X0060379Y0107302D02*
X0063221Y0107302D01*
X0062500Y0100908D02*
X0061100Y0100908D01*
X0061100Y0099309D02*
X0062500Y0099309D01*
X0062597Y0097711D02*
X0061003Y0097711D01*
X0060193Y0096112D02*
X0063407Y0096112D01*
X0064700Y0094514D02*
X0057688Y0094514D01*
X0055912Y0094514D02*
X0047688Y0094514D01*
X0045912Y0094514D02*
X0037688Y0094514D01*
X0035912Y0094514D02*
X0016654Y0094514D01*
X0019030Y0096112D02*
X0033407Y0096112D01*
X0032597Y0097711D02*
X0020585Y0097711D01*
X0021508Y0099309D02*
X0032500Y0099309D01*
X0032500Y0100908D02*
X0022178Y0100908D01*
X0022606Y0102506D02*
X0032500Y0102506D01*
X0032500Y0104105D02*
X0022702Y0104105D01*
X0022702Y0105703D02*
X0032520Y0105703D01*
X0033221Y0107302D02*
X0022283Y0107302D01*
X0040379Y0107302D02*
X0043221Y0107302D01*
X0042520Y0105703D02*
X0041080Y0105703D01*
X0041100Y0104105D02*
X0042500Y0104105D01*
X0042500Y0102506D02*
X0041100Y0102506D01*
X0041100Y0100908D02*
X0042500Y0100908D01*
X0042500Y0099309D02*
X0041100Y0099309D01*
X0041003Y0097711D02*
X0042597Y0097711D01*
X0043407Y0096112D02*
X0040193Y0096112D01*
X0050193Y0096112D02*
X0053407Y0096112D01*
X0052597Y0097711D02*
X0051003Y0097711D01*
X0051100Y0099309D02*
X0052500Y0099309D01*
X0052500Y0100908D02*
X0051100Y0100908D01*
X0051100Y0102506D02*
X0052500Y0102506D01*
X0052500Y0104105D02*
X0051100Y0104105D01*
X0051080Y0105703D02*
X0052520Y0105703D01*
X0053221Y0107302D02*
X0050379Y0107302D01*
X0064700Y0092915D02*
X0006600Y0092915D01*
X0006600Y0094514D02*
X0006946Y0094514D01*
X0006600Y0091317D02*
X0064700Y0091317D01*
X0064700Y0089718D02*
X0006600Y0089718D01*
X0006600Y0088120D02*
X0064700Y0088120D01*
X0064700Y0086521D02*
X0006600Y0086521D01*
X0006600Y0084923D02*
X0065708Y0084923D01*
X0067306Y0083324D02*
X0006600Y0083324D01*
X0006600Y0081726D02*
X0068905Y0081726D01*
X0070503Y0080127D02*
X0038261Y0080127D01*
X0038461Y0079927D02*
X0037927Y0080461D01*
X0037316Y0080905D01*
X0036643Y0081248D01*
X0035924Y0081482D01*
X0035178Y0081600D01*
X0032000Y0081600D01*
X0032000Y0077000D01*
X0031600Y0077000D01*
X0031600Y0081600D01*
X0028422Y0081600D01*
X0027676Y0081482D01*
X0026957Y0081248D01*
X0026284Y0080905D01*
X0025673Y0080461D01*
X0025139Y0079927D01*
X0024695Y0079316D01*
X0024352Y0078643D01*
X0024300Y0078484D01*
X0024248Y0078643D01*
X0023905Y0079316D01*
X0023461Y0079927D01*
X0022927Y0080461D01*
X0022316Y0080905D01*
X0021643Y0081248D01*
X0020924Y0081482D01*
X0020178Y0081600D01*
X0017000Y0081600D01*
X0017000Y0077000D01*
X0016600Y0077000D01*
X0016600Y0081600D01*
X0013422Y0081600D01*
X0012676Y0081482D01*
X0011957Y0081248D01*
X0011284Y0080905D01*
X0010673Y0080461D01*
X0010139Y0079927D01*
X0009695Y0079316D01*
X0009352Y0078643D01*
X0009118Y0077924D01*
X0009000Y0077178D01*
X0009000Y0077000D01*
X0016600Y0077000D01*
X0016600Y0076600D01*
X0017000Y0076600D01*
X0017000Y0077000D01*
X0031600Y0077000D01*
X0031600Y0076600D01*
X0032000Y0076600D01*
X0032000Y0077000D01*
X0039600Y0077000D01*
X0039600Y0077178D01*
X0039482Y0077924D01*
X0039248Y0078643D01*
X0038905Y0079316D01*
X0038461Y0079927D01*
X0039285Y0078529D02*
X0051559Y0078529D01*
X0049960Y0076930D02*
X0032000Y0076930D01*
X0032000Y0076600D02*
X0039600Y0076600D01*
X0039600Y0076422D01*
X0039482Y0075676D01*
X0039248Y0074957D01*
X0038905Y0074284D01*
X0038461Y0073673D01*
X0037927Y0073139D01*
X0037316Y0072695D01*
X0036643Y0072352D01*
X0035924Y0072118D01*
X0035178Y0072000D01*
X0032000Y0072000D01*
X0032000Y0076600D01*
X0031600Y0076600D02*
X0031600Y0072000D01*
X0028422Y0072000D01*
X0027676Y0072118D01*
X0026957Y0072352D01*
X0026284Y0072695D01*
X0025673Y0073139D01*
X0025139Y0073673D01*
X0024695Y0074284D01*
X0024352Y0074957D01*
X0024300Y0075116D01*
X0024248Y0074957D01*
X0023905Y0074284D01*
X0023461Y0073673D01*
X0022927Y0073139D01*
X0022316Y0072695D01*
X0021643Y0072352D01*
X0020924Y0072118D01*
X0020178Y0072000D01*
X0017000Y0072000D01*
X0017000Y0076600D01*
X0024600Y0076600D01*
X0031600Y0076600D01*
X0031600Y0076930D02*
X0017000Y0076930D01*
X0016600Y0076930D02*
X0006600Y0076930D01*
X0006600Y0078529D02*
X0009315Y0078529D01*
X0010339Y0080127D02*
X0006600Y0080127D01*
X0009000Y0076600D02*
X0009000Y0076422D01*
X0009118Y0075676D01*
X0009352Y0074957D01*
X0009695Y0074284D01*
X0010139Y0073673D01*
X0010673Y0073139D01*
X0011284Y0072695D01*
X0011957Y0072352D01*
X0012676Y0072118D01*
X0013422Y0072000D01*
X0016600Y0072000D01*
X0016600Y0076600D01*
X0009000Y0076600D01*
X0009230Y0075332D02*
X0006600Y0075332D01*
X0006600Y0073733D02*
X0010095Y0073733D01*
X0012626Y0072134D02*
X0006600Y0072134D01*
X0006600Y0070536D02*
X0011583Y0070536D01*
X0010031Y0068937D02*
X0006600Y0068937D01*
X0006600Y0067339D02*
X0009500Y0067339D01*
X0009585Y0065740D02*
X0006600Y0065740D01*
X0006600Y0064142D02*
X0010377Y0064142D01*
X0012840Y0062543D02*
X0006600Y0062543D01*
X0006600Y0060945D02*
X0012570Y0060945D01*
X0010265Y0059346D02*
X0006600Y0059346D01*
X0006600Y0057748D02*
X0009538Y0057748D01*
X0009500Y0056149D02*
X0006600Y0056149D01*
X0006600Y0054551D02*
X0010077Y0054551D01*
X0011853Y0052952D02*
X0006600Y0052952D01*
X0006600Y0051354D02*
X0073784Y0051354D01*
X0072185Y0049755D02*
X0061250Y0049755D01*
X0061250Y0048157D02*
X0070587Y0048157D01*
X0068988Y0046558D02*
X0061250Y0046558D01*
X0061250Y0044960D02*
X0067390Y0044960D01*
X0066500Y0043361D02*
X0061250Y0043361D01*
X0061250Y0041763D02*
X0066500Y0041763D01*
X0066500Y0040164D02*
X0061250Y0040164D01*
X0060759Y0038566D02*
X0066500Y0038566D01*
X0073800Y0038566D02*
X0077600Y0038566D01*
X0077124Y0040164D02*
X0073800Y0040164D01*
X0074933Y0041763D02*
X0077094Y0041763D01*
X0079700Y0041000D02*
X0079700Y0034300D01*
X0077600Y0036967D02*
X0073800Y0036967D01*
X0073800Y0035369D02*
X0074400Y0035369D01*
X0074400Y0033770D02*
X0073800Y0033770D01*
X0073800Y0032172D02*
X0074690Y0032172D01*
X0073900Y0030573D02*
X0073800Y0030573D01*
X0073800Y0028975D02*
X0073900Y0028975D01*
X0068600Y0025200D02*
X0074500Y0019300D01*
X0079700Y0019300D01*
X0073045Y0017785D02*
X0034700Y0017785D01*
X0034700Y0019384D02*
X0071447Y0019384D01*
X0069848Y0020982D02*
X0034700Y0020982D01*
X0034700Y0022581D02*
X0068249Y0022581D01*
X0051860Y0033770D02*
X0040785Y0033770D01*
X0042383Y0035369D02*
X0050261Y0035369D01*
X0048663Y0036967D02*
X0043982Y0036967D01*
X0045580Y0038566D02*
X0047064Y0038566D01*
X0056800Y0044713D02*
X0056813Y0044700D01*
X0052350Y0048157D02*
X0006600Y0048157D01*
X0006600Y0049755D02*
X0052350Y0049755D01*
X0052043Y0052952D02*
X0036747Y0052952D01*
X0038523Y0054551D02*
X0051850Y0054551D01*
X0051850Y0056149D02*
X0039919Y0056149D01*
X0041518Y0057748D02*
X0051850Y0057748D01*
X0051850Y0059661D02*
X0056025Y0059661D01*
X0056025Y0065805D01*
X0053413Y0065805D01*
X0052956Y0065682D01*
X0052545Y0065445D01*
X0052210Y0065110D01*
X0051973Y0064699D01*
X0051850Y0064242D01*
X0051850Y0059661D01*
X0051850Y0060945D02*
X0044715Y0060945D01*
X0046313Y0062543D02*
X0051850Y0062543D01*
X0051850Y0064142D02*
X0047912Y0064142D01*
X0049510Y0065740D02*
X0053174Y0065740D01*
X0051109Y0067339D02*
X0064101Y0067339D01*
X0065119Y0068937D02*
X0052707Y0068937D01*
X0054306Y0070536D02*
X0069390Y0070536D01*
X0069100Y0068937D02*
X0068481Y0068937D01*
X0069499Y0067339D02*
X0069943Y0067339D01*
X0071800Y0069300D02*
X0074000Y0067100D01*
X0080600Y0067100D01*
X0080600Y0063900D02*
X0069700Y0063900D01*
X0066800Y0066800D01*
X0064316Y0065740D02*
X0060426Y0065740D01*
X0061750Y0064142D02*
X0066162Y0064142D01*
X0068087Y0062543D02*
X0061750Y0062543D01*
X0061750Y0060945D02*
X0071600Y0060945D01*
X0071876Y0059346D02*
X0057575Y0059346D01*
X0056025Y0059346D02*
X0043116Y0059346D01*
X0040374Y0062543D02*
X0035760Y0062543D01*
X0036030Y0060945D02*
X0038775Y0060945D01*
X0038223Y0064142D02*
X0041972Y0064142D01*
X0042800Y0066800D02*
X0052500Y0076500D01*
X0080600Y0076500D01*
X0080500Y0073500D02*
X0080600Y0073400D01*
X0080500Y0073500D02*
X0054300Y0073500D01*
X0037600Y0056800D01*
X0031800Y0056800D01*
X0016800Y0056800D01*
X0021747Y0052952D02*
X0026853Y0052952D01*
X0025077Y0054551D02*
X0023523Y0054551D01*
X0023335Y0059346D02*
X0025265Y0059346D01*
X0027570Y0060945D02*
X0021030Y0060945D01*
X0020760Y0062543D02*
X0027840Y0062543D01*
X0025377Y0064142D02*
X0023223Y0064142D01*
X0023569Y0068937D02*
X0025031Y0068937D01*
X0026583Y0070536D02*
X0022017Y0070536D01*
X0020974Y0072134D02*
X0027626Y0072134D01*
X0025095Y0073733D02*
X0023505Y0073733D01*
X0024285Y0078529D02*
X0024315Y0078529D01*
X0025339Y0080127D02*
X0023261Y0080127D01*
X0017000Y0080127D02*
X0016600Y0080127D01*
X0016600Y0078529D02*
X0017000Y0078529D01*
X0017000Y0075332D02*
X0016600Y0075332D01*
X0016600Y0073733D02*
X0017000Y0073733D01*
X0017000Y0072134D02*
X0016600Y0072134D01*
X0016800Y0066800D02*
X0031800Y0066800D01*
X0042800Y0066800D01*
X0041968Y0068937D02*
X0038569Y0068937D01*
X0037017Y0070536D02*
X0043566Y0070536D01*
X0045165Y0072134D02*
X0035974Y0072134D01*
X0038505Y0073733D02*
X0046763Y0073733D01*
X0048362Y0075332D02*
X0039370Y0075332D01*
X0032000Y0075332D02*
X0031600Y0075332D01*
X0031600Y0073733D02*
X0032000Y0073733D01*
X0032000Y0072134D02*
X0031600Y0072134D01*
X0031600Y0078529D02*
X0032000Y0078529D01*
X0032000Y0080127D02*
X0031600Y0080127D01*
X0056025Y0065740D02*
X0057575Y0065740D01*
X0057575Y0064142D02*
X0056025Y0064142D01*
X0056025Y0062543D02*
X0057575Y0062543D01*
X0057575Y0060945D02*
X0056025Y0060945D01*
X0056025Y0057748D02*
X0057575Y0057748D01*
X0057575Y0056149D02*
X0056025Y0056149D01*
X0056025Y0054551D02*
X0057575Y0054551D01*
X0057575Y0052952D02*
X0056025Y0052952D01*
X0074300Y0060550D02*
X0074550Y0060800D01*
X0080600Y0060800D01*
X0078345Y0043361D02*
X0076531Y0043361D01*
X0166654Y0094514D02*
X0166921Y0094514D01*
D19*
X0129300Y0071800D03*
X0124300Y0074300D03*
X0119300Y0069300D03*
X0123050Y0063050D03*
X0129300Y0066800D03*
X0106300Y0069200D03*
X0089300Y0069300D03*
X0074300Y0060550D03*
X0066800Y0066800D03*
X0071800Y0069300D03*
X0101300Y0045200D03*
X0079700Y0041000D03*
X0055300Y0035000D03*
X0021800Y0031800D03*
X0136800Y0036800D03*
D20*
X0141800Y0011800D03*
X0121800Y0011800D03*
X0051800Y0011800D03*
X0031800Y0011800D03*
M02*
