%
M48
M72
T01C0.01200
T02C0.04000
T03C0.04724
T04C0.12205
%
T01
X21800Y31800
X55300Y35000
X79700Y41000
X101300Y45200
X123050Y63050
X129300Y66800
X129300Y71800
X124300Y74300
X119300Y69300
X106300Y69200
X89300Y69300
X74300Y60550
X66800Y66800
X71800Y69300
X136800Y36800
T02
X146800Y61800
X156800Y61800
X156800Y71800
X146800Y71800
X146800Y81800
X156800Y81800
X146800Y101800
X136800Y101800
X126800Y101800
X116800Y101800
X106800Y101800
X96800Y101800
X86800Y101800
X76800Y101800
X66800Y101800
X56800Y101800
X46800Y101800
X36800Y101800
X31800Y76800
X31800Y66800
X31800Y56800
X16800Y56800
X16800Y66800
X16800Y76800
T03
X31800Y11800
X51800Y11800
X121800Y11800
X141800Y11800
T04
X11800Y11800
X11800Y104300
X161800Y104300
X161800Y11800
M30
