G75*
%MOIN*%
%OFA0B0*%
%FSLAX25Y25*%
%IPPOS*%
%LPD*%
%AMOC8*
5,1,8,0,0,1.08239X$1,22.5*
%
%ADD10C,0.13005*%
%ADD11R,0.07099X0.11036*%
%ADD12R,0.08800X0.03400*%
%ADD13C,0.06800*%
%ADD14OC8,0.06800*%
%ADD15R,0.03150X0.01969*%
%ADD16R,0.01575X0.06299*%
%ADD17R,0.02800X0.06600*%
%ADD18R,0.06600X0.02800*%
%ADD19C,0.07887*%
D10*
X0011800Y0011800D03*
X0011800Y0104300D03*
X0161800Y0104300D03*
X0161800Y0011800D03*
D11*
X0056800Y0044713D03*
X0056800Y0058887D03*
D12*
X0079700Y0034300D03*
X0079700Y0029300D03*
X0079700Y0024300D03*
X0079700Y0019300D03*
X0103900Y0019300D03*
X0103900Y0024300D03*
X0103900Y0029300D03*
X0103900Y0034300D03*
D13*
X0034800Y0056800D02*
X0028800Y0056800D01*
X0019800Y0056800D02*
X0013800Y0056800D01*
X0013800Y0066800D02*
X0019800Y0066800D01*
X0028800Y0066800D02*
X0034800Y0066800D01*
X0034800Y0076800D02*
X0028800Y0076800D01*
X0019800Y0076800D02*
X0013800Y0076800D01*
X0036800Y0098800D02*
X0036800Y0104800D01*
X0046800Y0104800D02*
X0046800Y0098800D01*
X0056800Y0098800D02*
X0056800Y0104800D01*
X0066800Y0104800D02*
X0066800Y0098800D01*
X0076800Y0098800D02*
X0076800Y0104800D01*
X0086800Y0104800D02*
X0086800Y0098800D01*
X0096800Y0098800D02*
X0096800Y0104800D01*
X0106800Y0104800D02*
X0106800Y0098800D01*
X0116800Y0098800D02*
X0116800Y0104800D01*
X0126800Y0104800D02*
X0126800Y0098800D01*
X0136800Y0098800D02*
X0136800Y0104800D01*
X0146800Y0104800D02*
X0146800Y0098800D01*
D14*
X0146800Y0081800D03*
X0156800Y0081800D03*
X0156800Y0071800D03*
X0146800Y0071800D03*
X0146800Y0061800D03*
X0156800Y0061800D03*
D15*
X0127706Y0045934D03*
X0121800Y0045934D03*
X0115894Y0045934D03*
X0115894Y0037666D03*
X0121800Y0037666D03*
X0127706Y0037666D03*
D16*
X0127706Y0041800D03*
X0121800Y0041800D03*
X0115894Y0041800D03*
D17*
X0107800Y0055600D03*
X0104700Y0055600D03*
X0101500Y0055600D03*
X0098400Y0055600D03*
X0095200Y0055600D03*
X0092100Y0055600D03*
X0088900Y0055600D03*
X0085800Y0055600D03*
X0085800Y0088000D03*
X0088900Y0088000D03*
X0092100Y0088000D03*
X0095200Y0088000D03*
X0098400Y0088000D03*
X0101500Y0088000D03*
X0104700Y0088000D03*
X0107800Y0088000D03*
D18*
X0113000Y0082800D03*
X0113000Y0079700D03*
X0113000Y0076500D03*
X0113000Y0073400D03*
X0113000Y0070200D03*
X0113000Y0067100D03*
X0113000Y0063900D03*
X0113000Y0060800D03*
X0080600Y0060800D03*
X0080600Y0063900D03*
X0080600Y0067100D03*
X0080600Y0070200D03*
X0080600Y0073400D03*
X0080600Y0076500D03*
X0080600Y0079700D03*
X0080600Y0082800D03*
D19*
X0051800Y0011800D03*
X0031800Y0011800D03*
X0121800Y0011800D03*
X0141800Y0011800D03*
M02*
