<svg xmlns="http://www.w3.org/2000/svg" viewBox="0 0 51 51"><title>Auto_Complete</title><rect x="0.5" y="0.5" width="50" height="50" style="fill:#e6e7e8;stroke:#231f20;stroke-linecap:round;stroke-miterlimit:10"/><path d="M40.08,6.42a5.52,5.52,0,0,0-5.4,6.71l-7.09,3.55a5.53,5.53,0,1,0-2.92,9l3.39,5.09a5.51,5.51,0,0,0-1.77,5L16.22,37.48a5.53,5.53,0,1,0,.1,2.74l11.15-1.86a5.53,5.53,0,1,0,3-8.86L27.1,24.41a5.52,5.52,0,0,0,1.72-5.3l7.09-3.55a5.52,5.52,0,1,0,4.18-9.14ZM10.92,41.86A2.81,2.81,0,1,1,13.73,39a2.81,2.81,0,0,1-2.81,2.81Zm23.64-7a2.81,2.81,0,1,1-2.81-2.81,2.81,2.81,0,0,1,2.81,2.81ZM20.61,20.29a2.81,2.81,0,1,1,2.81,2.81,2.81,2.81,0,0,1-2.81-2.81Zm19.47-5.53A2.81,2.81,0,1,1,42.89,12a2.81,2.81,0,0,1-2.81,2.81Zm0,0"/></svg>