<svg xmlns="http://www.w3.org/2000/svg" viewBox="0 0 111.2 138.87"><title>Copy</title><path d="M75.54,24.29H11a11,11,0,0,0-11,11v92.63a11,11,0,0,0,11,11H75.54a11,11,0,0,0,11-11V35.26a11,11,0,0,0-11-11Zm3.27,103.58a3.3,3.3,0,0,1-3.3,3.3H10.95a3.3,3.3,0,0,1-3.3-3.3V35.26a3.3,3.3,0,0,1,3.3-3.3H75.51a3.3,3.3,0,0,1,3.3,3.3Zm0,0"/><path d="M100.22,0H35.66a11,11,0,0,0-11,11,3.84,3.84,0,1,0,7.68,0,3.3,3.3,0,0,1,3.3-3.3h64.56a3.3,3.3,0,0,1,3.3,3.3v92.63a3.3,3.3,0,0,1-3.3,3.3,3.84,3.84,0,1,0,0,7.68,11,11,0,0,0,11-11V11a11,11,0,0,0-11-11Zm0,0"/></svg>