<svg xmlns="http://www.w3.org/2000/svg" viewBox="0 0 245.59 108.16"><defs><style>.cls-1{fill:#72a635;}.cls-2{fill:#89c540;}.cls-3{fill:#aaa;}.cls-4{fill:#cbccce;}.cls-5{fill:#bababe;}.cls-6{fill:#fff;}</style></defs><title>Digital_y</title><g id="Layer_2" data-name="Layer 2"><g id="Layer_1-2" data-name="Layer 1"><path class="cls-1" d="M49.23,92.77c-22.54,0-41-16.44-41-36.54v-4.3c0-20.1,18.45-36.54,41-36.54H153.76a54.14,54.14,0,0,1,4.47-3.88H44.51C20,11.51,0,29.6,0,51.72v4.73C0,78.56,20,96.66,44.51,96.66H158.23a54.29,54.29,0,0,1-4.47-3.88Z"/><path class="cls-2" d="M8.24,51.93v4.3c0,20.1,18.45,36.54,41,36.54H153.76a54,54,0,0,1,0-77.38H49.23C26.69,15.39,8.24,31.83,8.24,51.93Z"/><path class="cls-3" d="M191.51,0a54,54,0,0,0-33.27,96.66A54.06,54.06,0,1,0,191.51,0Zm0,101.26a47.18,47.18,0,1,1,47.18-47.18A47.18,47.18,0,0,1,191.51,101.26Z"/><path class="cls-4" d="M191.51,6.9a47.18,47.18,0,1,0,47.18,47.18A47.18,47.18,0,0,0,191.51,6.9Zm22.15,47.18a22.15,22.15,0,1,1-22.15-22.15A22.15,22.15,0,0,1,213.66,54.08Z"/><circle class="cls-5" cx="191.51" cy="54.08" r="22.15"/><g id="Layer_2-2" data-name="Layer 2"><path class="cls-6" d="M41.24,35.5a62.26,62.26,0,0,1,9.25-.7c6.25,0,10.7,1.45,13.65,4.2s4.75,6.65,4.75,12.1-1.7,10-4.85,13.1-8.35,4.85-14.9,4.85a70.24,70.24,0,0,1-7.9-.4Zm4.35,29.8a27.45,27.45,0,0,0,4.4.25c9.3,0,14.35-5.2,14.35-14.3,0-8-4.45-13-13.65-13a24.72,24.72,0,0,0-5.1.45Z"/><path class="cls-6" d="M98.09,67.66a21.6,21.6,0,0,1-8.9,1.6c-9.5,0-16.65-6-16.65-17.05,0-10.55,7.15-17.7,17.6-17.7a18.07,18.07,0,0,1,8,1.5l-1,3.55a15.85,15.85,0,0,0-6.8-1.4c-7.9,0-13.15,5-13.15,13.9,0,8.25,4.75,13.55,13,13.55a17.42,17.42,0,0,0,7.1-1.4Z"/><path class="cls-6" d="M126,67.66a21.6,21.6,0,0,1-8.9,1.6c-9.5,0-16.65-6-16.65-17.05,0-10.55,7.15-17.7,17.6-17.7a18.07,18.07,0,0,1,8,1.5l-1,3.55a15.85,15.85,0,0,0-6.8-1.4c-7.9,0-13.15,5-13.15,13.9,0,8.25,4.75,13.55,13,13.55a17.42,17.42,0,0,0,7.1-1.4Z"/></g></g></g></svg>