<svg xmlns="http://www.w3.org/2000/svg" viewBox="0 0 245.59 108.16"><defs><style>.cls-1{fill:#bf4141;}.cls-2{fill:#e54e4e;}.cls-3{fill:#aaa;}.cls-4{fill:#cbccce;}.cls-5{fill:#bababe;}.cls-6{fill:#fff;}</style></defs><title>Digital_n</title><g id="Layer_2" data-name="Layer 2"><g id="Layer_1-2" data-name="Layer 1"><g id="Layer_2-2" data-name="Layer 2"><path class="cls-1" d="M196.36,92.77c22.54,0,41-16.44,41-36.54v-4.3c0-20.1-18.45-36.54-41-36.54H91.83a54.14,54.14,0,0,0-4.47-3.88H201.08c24.48,0,44.51,18.09,44.51,40.21v4.73c0,22.12-20,40.21-44.51,40.21H87.35a54.29,54.29,0,0,0,4.47-3.88Z"/><path class="cls-2" d="M237.35,51.93v4.3c0,20.1-18.45,36.54-41,36.54H91.83a54,54,0,0,0,0-77.38H196.36C218.91,15.39,237.35,31.84,237.35,51.93Z"/><path class="cls-3" d="M0,54.08A54,54,0,1,0,54.08,0,54.08,54.08,0,0,0,0,54.08Zm6.9,0a47.18,47.18,0,1,1,47.18,47.18A47.18,47.18,0,0,1,6.9,54.08Z"/><path class="cls-4" d="M6.9,54.08A47.18,47.18,0,1,0,54.08,6.9,47.18,47.18,0,0,0,6.9,54.08ZM54.08,31.93A22.15,22.15,0,1,1,31.93,54.08,22.15,22.15,0,0,1,54.08,31.93Z"/><circle class="cls-5" cx="54.08" cy="54.08" r="22.15"/><path class="cls-6" d="M135.68,35.5a62.25,62.25,0,0,1,9.25-.7c6.25,0,10.7,1.45,13.65,4.2s4.75,6.65,4.75,12.1-1.7,10-4.85,13.1-8.35,4.85-14.9,4.85a70.23,70.23,0,0,1-7.9-.4ZM140,65.31a27.44,27.44,0,0,0,4.4.25c9.3,0,14.35-5.2,14.35-14.3,0-8-4.45-13-13.65-13a24.71,24.71,0,0,0-5.1.45Z"/><path class="cls-6" d="M192.53,67.66a21.6,21.6,0,0,1-8.9,1.6c-9.5,0-16.65-6-16.65-17.05,0-10.55,7.15-17.7,17.6-17.7a18.07,18.07,0,0,1,8,1.5l-1,3.55a15.85,15.85,0,0,0-6.8-1.4c-7.9,0-13.15,5-13.15,13.9,0,8.25,4.75,13.55,13,13.55a17.42,17.42,0,0,0,7.1-1.4Z"/></g></g></g></svg>