<svg viewBox="0 0 830.48 233.25" class="dir_arrow">
	<path class="dir_left" d="M385.87,60.27h-238V5.07a2.14,2.14,0,0,0-3.44-1.62L3.79,115a2.07,2.07,0,0,0,0,3.24L144.44,229.8a2.09,2.09,0,0,0,1.29.45,2.33,
								2.33,0,0,0,1-.2,2.13,2.13,0,0,0,1.23-1.87V173H385.8a2.05,2.05,0,0,0,2.14-2V62.52a2.35,2.35,0,0,0-2.2-2.26"/>
	<path class="dir_right" d="M444.62,173h238v55.2A2.14,2.14,0,0,0,686,229.8L826.7,118.25a2.07,2.07,0,0,0,0-3.24L686,3.45A2.09,2.09,0,0,0,684.75,3a2.33,
								2.33,0,0,0-1,.2,2.13,2.13,0,0,0-1.23,1.87v55.2H444.69a2.05,2.05,0,0,0-2.14,2V170.73a2.35,2.35,0,0,0,2.2,2.26"/>
</svg>