<?xml version="1.0" encoding="utf-8"?>
<!-- Generator: Adobe Illustrator 21.0.2, SVG Export Plug-In . SVG Version: 6.00 Build 0)  -->
<svg version="1.1" id="Layer_1" xmlns="http://www.w3.org/2000/svg" xmlns:xlink="http://www.w3.org/1999/xlink" x="0px" y="0px"
	 viewBox="0 -180 995 690" width="745" style="enable-background:new 0 -180 995 690;" xml:space="preserve">
<style type="text/css">
	.node2560 .st0{fill:#A72729;}
	.node2560 .st1{opacity:0.11;}
	.node2560 .st2{fill:#202020;stroke:#202020;stroke-miterlimit:10;}
	.node2560 .st3{fill:none;stroke:#202020;stroke-width:2;stroke-linecap:round;stroke-miterlimit:10;}
	.node2560 .st4{fill:none;stroke:#202020;stroke-width:5;stroke-linecap:round;stroke-miterlimit:10;}
	.node2560 .st5{opacity:0.15;}
	.node2560 .st6{stroke:#000000;stroke-miterlimit:10;}
	.node2560 .st7{fill:none;stroke:#787878;stroke-width:2.3928;stroke-linecap:round;stroke-miterlimit:10;}
	.node2560 .st8{fill:none;stroke:#646464;stroke-width:2.3928;stroke-linecap:round;stroke-miterlimit:10;}
	.node2560 .st9{fill:#646464;stroke:#646464;stroke-miterlimit:10;}
	.node2560 .st10{fill:none;stroke:#646464;stroke-width:2.8259;stroke-linecap:round;stroke-miterlimit:10;}
	.node2560 .st11{fill:#646464;}
	.node2560 .st12{fill:none;stroke:#FFFFFF;stroke-width:1.4;stroke-linecap:round;stroke-miterlimit:10;}
	.node2560 .st13{fill:none;stroke:#FFFFFF;stroke-width:2.4;stroke-linecap:round;stroke-miterlimit:10;}
	.node2560 .st14{fill:none;stroke:#FFFFFF;stroke-width:2.4;stroke-linecap:round;stroke-linejoin:round;stroke-miterlimit:10;}
	.node2560 .st15{fill:none;stroke:#FFFFFF;stroke-width:2;stroke-linecap:round;stroke-miterlimit:10;}
	.node2560 .st16{fill:none;stroke:#FFFFFF;stroke-width:2;stroke-linecap:round;stroke-linejoin:round;stroke-miterlimit:10;}
	.node2560 .st17{fill:none;stroke:#FFFFFF;stroke-width:5.6;stroke-linecap:round;stroke-miterlimit:10;}
	.node2560 .st18{fill:none;stroke:#DBB131;stroke-width:2.4;stroke-linecap:round;stroke-miterlimit:10;}
	.node2560 .st19{fill:none;stroke:#DBB131;stroke-width:16.7498;stroke-linecap:round;stroke-miterlimit:10;}
	.node2560 .st20{fill:#FFFFFF;}

	.node2560pins {fill:#000000;}
    .node2560pins .iotextballoon path {fill: white; stroke-width: 1;stroke:black;}
	.node2560pins .iotextballoon:hover path {fill: #ddd}
    .node2560pins .iotextballoon text {font-family:monospace;user-select: none;}
</style>
<g class="node2560" style="transform: translate(200px, 510px) rotate(-90deg)">
	<g>
		<polygon class="st0" points="98.7,10.1 4,104.8 1.2,111.5 1.2,482.9 4,489.7 98.7,584.4 105.4,587.2 383.4,587.2 390.2,584.4 505.2,469.3 508,462.6 508,131.9 505.2,125.1 390.2,10.1 383.4,7.3 105.4,7.3 		"/>
	</g>
	<g>
		<g class="st1">
			<g class="st2">
				<polygon points="268.5,494.7 269.7,495.5 269.7,510.5 266.7,513.5 266.1,514.3 266,515.1 265.5,515.3 265.1,515.3 264.8,515.3 263.3,513.3 261.3,511.8 258.9,510.8 258.9,510.8 258.9,502.9 266.4,495.4 266.8,494.8 267.9,494.7"/>
				<polygon points="364.4,494.7 365.6,495.5 365.6,505.7 362.5,508.8 362,509.6 361.8,510.5 361.8,515 360.7,515.3 360.6,515.3 359.1,513.3 357.1,511.8 354.8,510.8 354.7,510.8 354.7,502.9 362.2,495.4 362.6,494.8 363.8,494.7"/>
				<polygon points="316.5,494.7 317.6,495.5 317.6,509.3 314.6,512.4 314.1,513.2 313.9,514.1 313.9,515 312.8,515.3 312.7,515.3 311.2,513.3 309.2,511.8 306.9,510.8 306.8,510.8 306.8,502.9 314.3,495.4 314.7,494.8 315.9,494.7"/>
				<polygon points="386,177 386,177.6 385.3,178.8 309.5,178.8 309.1,177.7 310.6,176.1 385.3,176.1"/>
				<polygon points="386,169.4 386,170 385.3,171.2 312,171.2 311.5,170.1 313.1,168.6 385.3,168.6"/>
				<polygon points="482,383.6 483,385.9 484.5,387.9 486.5,389.5 488.8,390.4 491.3,390.8 496.1,390.8 498.6,390.4 500.9,389.5 502.9,387.9 504.4,386 504.5,386 505.6,386.3 505.6,399.9 504.5,400.2 504.4,400.2 502.9,398.2 500.9,396.7 498.6,395.7 496.1,395.4 491.3,395.4 488.8,395.7 486.5,396.7 484.5,398.2 483,400.2 482,402.6 482,402.6 463.4,402.6 462.4,402.8 461.6,403.3 458.8,406.2 457.7,405.7 457.8,405.1 457.5,402.6 456.5,400.2 455,398.2 453,396.7 450.6,395.7 449.1,395.5 449.2,394.3 452.6,394.3 453.5,394.1 454.3,393.6 465,382.9 481.9,382.9"/>
				<polygon points="482,359.6 483,362 484.5,364 486.5,365.5 488.8,366.5 491.3,366.8 496.1,366.8 498.6,366.5 500.9,365.5 502.9,364 504.4,362 504.5,362 505.6,362.3 505.6,375.9 504.5,376.2 504.4,376.2 502.9,374.3 500.9,372.7 498.6,371.8 496.1,371.4 491.3,371.4 488.8,371.8 486.5,372.7 484.5,374.3 483,376.3 482.3,378 464,378 463.1,378.2 462.3,378.7 458.8,382.2 457.7,381.7 457.8,381.1 457.5,378.6 456.5,376.3 455,374.3 453,372.7 450.6,371.8 449.1,371.6 449.2,370.4 452.6,370.4 453.5,370.2 454.3,369.6 464.4,359.6"/>
				<polygon points="482,407.6 483,409.9 484.5,411.9 486.5,413.4 488.8,414.4 491.3,414.7 496.1,414.7 498.6,414.4 500.9,413.4 502.9,411.9 504.4,409.9 504.5,409.9 505.6,410.3 505.6,423.8 504.5,424.2 504.4,424.1 502.9,422.2 500.9,420.6 498.6,419.7 496.1,419.4 491.3,419.4 488.8,419.7 486.5,420.6 484.5,422.2 483,424.2 482.3,425.9 464,425.9 463.1,426.1 462.3,426.6 458.8,430.1 457.7,429.6 457.8,429 457.5,426.5 456.5,424.2 455,422.2 453,420.6 450.6,419.7 449.1,419.5 449.2,418.3 452.6,418.3 453.5,418.1 454.3,417.6 464.4,407.5 482,407.5"/>
				<polygon points="482,287.8 483,290.1 484.5,292.1 486.5,293.6 488.8,294.6 491.3,294.9 496.1,294.9 498.6,294.6 500.9,293.6 502.9,292.1 504.4,290.1 504.5,290.1 505.6,290.4 505.6,304 504.5,304.4 504.4,304.3 502.9,302.4 500.9,300.9 498.6,299.9 496.1,299.5 491.3,299.5 488.8,299.9 486.5,300.9 484.5,302.4 483,304.4 482,306.7 482,306.8 463.4,306.8 462.4,307 461.6,307.5 458.8,310.4 457.7,309.8 457.8,309.2 457.5,306.7 456.5,304.4 455,302.4 453,300.9 450.6,299.9 449.1,299.7 449.2,298.5 452.6,298.5 453.5,298.3 454.3,297.8 464.4,287.7 482,287.7"/>
				<polygon points="482,311.7 483,314 484.5,316.1 486.5,317.6 488.8,318.6 491.3,318.9 496.1,318.9 498.6,318.6 500.9,317.6 502.9,316.1 504.4,314.1 504.5,314.1 505.6,314.4 505.6,328 504.5,328.3 504.4,328.3 502.9,326.4 500.9,324.8 498.6,323.8 496.1,323.5 491.3,323.5 488.8,323.8 486.5,324.8 484.5,326.4 483,328.4 482.3,330.1 464,330.1 463.1,330.3 462.3,330.8 458.8,334.3 457.7,333.8 457.8,333.2 457.5,330.7 456.5,328.4 455,326.4 453,324.8 450.6,323.8 449.1,323.6 449.2,322.5 452.6,322.5 453.5,322.3 454.3,321.7 464.4,311.7"/>
				<polygon points="482,239.8 483,242.2 484.5,244.2 486.5,245.7 488.8,246.7 491.3,247 496.1,247 498.6,246.7 500.9,245.7 502.9,244.2 504.4,242.2 504.5,242.2 505.6,242.5 505.6,256.1 504.5,256.4 504.4,256.4 502.9,254.5 500.9,252.9 498.6,252 496.1,251.6 491.3,251.6 488.8,252 486.5,252.9 484.5,254.5 483,256.5 482,258.8 481.7,261.3 482,263.8 483,266.1 484.5,268.1 484.5,268.5 483.5,269.6 454.9,269.6 454.5,268.5 455,268.1 456.5,266.1 457.5,263.8 457.8,261.3 457.5,258.8 456.5,256.5 455,254.5 453,252.9 450.6,252 449.1,251.8 449.2,250.6 452.6,250.6 453.5,250.4 454.3,249.8 464.4,239.8"/>
				<polygon points="505.6,218.6 505.6,232.1 504.5,232.5 504.4,232.5 502.9,230.5 500.9,229 498.6,228 496.1,227.7 491.3,227.7 488.8,228 486.5,229 484.5,230.5 483,232.5 482,234.8 482,234.9 463.4,234.9 462.4,235.1 461.6,235.6 458.8,238.5 457.7,237.9 457.8,237.3 457.5,234.8 456.5,232.5 455,230.5 453,229 450.6,228 449.1,227.8 449.2,226.6 485.3,226.6 486.2,226.4 487,225.9 490,222.9 491.3,223 496.1,223 498.6,222.7 500.9,221.7 502.9,220.2 504.4,218.2 504.5,218.2"/>
				<polygon points="505.6,170.6 505.6,184.2 504.5,184.5 504.4,184.5 502.9,182.6 500.9,181 498.6,180.1 496.1,179.7 491.3,179.7 488.8,180.1 486.5,181 484.5,182.6 483,184.6 482,186.9 482,187 463.4,187 462.4,187.2 461.6,187.7 458.8,190.5 457.7,190 457.8,189.4 457.5,186.9 456.5,184.6 455,182.6 453,181 450.6,180.1 449.1,179.9 449.2,178.7 485.3,178.7 486.2,178.5 487,178 490,174.9 491.3,175.1 496.1,175.1 498.6,174.8 500.9,173.8 502.9,172.3 504.4,170.3 504.5,170.3"/>
				<polygon points="356.8,128.1 358,128.9 358,140.7 347.7,151 340,151 339.6,149.9 354.7,134.8 355.2,134 355.4,133.1 355.4,128.9 356.3,128.1"/>
				<polygon points="505.6,266.5 505.6,280.1 504.5,280.4 504.4,280.4 502.9,278.4 500.9,276.9 498.6,275.9 496.1,275.6 491.3,275.6 488.8,275.9 486.5,276.9 484.5,278.4 483,280.4 482,282.8 482,282.8 463.4,282.8 462.4,283 461.6,283.5 458.8,286.4 457.7,285.9 457.8,285.3 457.5,282.8 456.5,280.4 455,278.4 453,276.9 450.6,275.9 449.1,275.7 449.2,274.5 485.3,274.5 486.2,274.3 487,273.8 490,270.8 491.3,271 496.1,271 498.6,270.6 500.9,269.7 502.9,268.1 504.4,266.2 504.5,266.2"/>
				<polygon points="482,335.7 483,338 484.5,340 486.5,341.5 488.8,342.5 491.3,342.9 496.1,342.9 498.6,342.5 500.9,341.5 502.9,340 504.4,338.1 504.5,338 505.6,338.4 505.6,352 504.5,352.3 504.4,352.3 502.9,350.3 500.9,348.8 498.6,347.8 496.1,347.5 491.3,347.5 488.8,347.8 486.5,348.8 484.5,350.3 483,352.3 482,354.6 482,354.7 463.4,354.7 462.4,354.9 461.6,355.4 458.8,358.3 457.7,357.7 457.8,357.1 457.5,354.6 456.5,352.3 455,350.3 453,348.8 450.6,347.8 449.1,347.6 449.2,346.4 452.6,346.4 453.5,346.2 454.3,345.7 465,335 481.9,335"/>
				<polygon points="482,191.9 483,194.2 484.5,196.2 486.5,197.8 488.8,198.7 491.3,199.1 496.1,199.1 498.6,198.7 500.9,197.8 502.9,196.2 504.4,194.3 504.5,194.3 505.6,194.6 505.6,208.2 504.5,208.5 504.4,208.5 502.9,206.5 500.9,205 498.6,204 496.1,203.7 491.3,203.7 488.8,204 486.5,205 484.5,206.5 483,208.5 482,210.9 481.7,213.4 482,215.9 483,218.2 484.5,220.2 484.5,220.6 483.5,221.7 454.9,221.7 454.5,220.6 455,220.2 456.5,218.2 457.5,215.9 457.8,213.4 457.5,210.9 456.5,208.5 455,206.5 453,205 450.6,204 449.1,203.8 449.2,202.6 452.6,202.6 453.5,202.5 454.3,201.9 464.4,191.9"/>
				<polygon points="224.1,79.2 225.6,81.2 227.6,82.7 229.9,83.7 230,83.7 230,90.5 222.5,98 222,98.8 221.9,99.2 220.9,99.8 220.3,99.8 219.1,99 219.1,85.2 222.2,82.1 222.7,81.3 222.9,80.4 222.9,79.5 224,79.2"/>
				<path d="M63.5,502.1H44.3l0.3,2.8l1.2,3.8l1.9,3.5l2.5,3.1l3.1,2.5l3.5,1.9l3.8,1.2l2.8,0.3C63.5,521.3,63.5,502.1,63.5,502.1z M85.1,502.1H65.9v19.1l2.8-0.3l3.8-1.2l3.5-1.9l3.1-2.5l2.6-3.1l1.9-3.5l1.2-3.8L85.1,502.1z M423,502.1h-19.1l0.3,2.8l1.2,3.8l1.9,3.5l2.5,3.1l3.1,2.5l3.5,1.9l3.8,1.2l2.8,0.3L423,502.1L423,502.1z M444.5,502.1h-19.1v19.1l2.8-0.3l3.8-1.2l3.5-1.9l3.1-2.5l2.5-3.1l1.9-3.5l1.2-3.8L444.5,502.1z M63.5,480.6l-2.8,0.3l-3.8,1.2l-3.5,1.9l-3.1,2.5l-2.5,3.1l-1.9,3.5l-1.2,3.8l-0.3,2.8h19.1V480.6L63.5,480.6z M65.9,480.6v19.1h19.2l-0.3-2.8l-1.2-3.8l-1.9-3.5l-2.6-3.1L76,484l-3.5-1.9l-3.8-1.2L65.9,480.6z M423,480.6l-2.8,0.3l-3.8,1.2l-3.5,1.9l-3.1,2.5l-2.5,3.1l-1.9,3.5l-1.2,3.8l-0.3,2.8H423V480.6L423,480.6z M425.4,480.6v19.1h19.1l-0.3-2.8l-1.2-3.8l-1.9-3.5l-2.5-3.1l-3.1-2.5l-3.5-2l-3.8-1.2L425.4,480.6z M109.9,483.2v11.4h0.9v6.6l-11.9,11.9l-0.5,0.8l-0.2,0.9v14.7l0.2,0.9l0.5,0.8l11.9,11.9v15.3l-0.7,0.1l-2.3,1l-2,1.5l-1.5,2l-1,2.3l-0.3,2.5v4.7l0.3,2.5l1,2.3l1.5,2l2,1.5l2.3,1l2.5,0.3l2.5-0.3l2.3-1l2-1.5l1.5-2l1-2.3l0.3-2.5v-4.7l-0.3-2.5l-1-2.3l-1.5-2l-2-1.5l-1.7-0.7v-16.7l-0.2-0.9l-0.5-0.8l-5.3-5.3l0.2-0.4l0.5-0.6l2.3,0.3l2.5-0.3l2.3-1l2-1.5l1.5-2h0.3h0.1l0.8,0.2l0.1,0.7l0.5,0.8l11.3,11.3v16.1H134l-2.3,1l-2,1.5l-1.5,2l-1,2.3l-0.3,2.5v4.7l0.3,2.5l1,2.3l1.5,2l2,1.5l2.3,1l2.5,0.3l2.5-0.3l2.3-1l2-1.5l1.5-2l1-2.3l0.3-2.5V568l-0.3-2.5l-1-2.3l-1.5-2l-2-1.5l-2.3-1h-0.1v-17.1l-0.2-0.9l-0.5-0.8l-4.6-4.6l0.1-0.4l0.5-0.6l2.3,0.3l2.5-0.3l2.3-1l2-1.5l1.5-2h0.3h0.1l0.8,0.2l0.1,0.7l0.5,0.8l11.9,11.9v15.3l-0.7,0.1l-2.3,1l-2,1.5l-1.5,2l-1,2.3l-0.3,2.5v4.7l0.3,2.5l1,2.3l1.5,2l2,1.5l2.3,1l2.5,0.3l2.5-0.3l2.3-1l2-1.5l1.5-2l1-2.3l0.3-2.5v-4.7l-0.3-2.5l-1-2.3l-1.5-2l-2-1.5l-1.7-0.7v-16.7l-0.2-0.9l-0.5-0.8l-5.3-5.3l0.1-0.4l0.5-0.6l2.3,0.3l2.5-0.3l2.3-1l2-1.5l1.5-2h0.1l1.1,0.3v0.8l0.2,0.9l0.5,0.8l11.3,11.3v14.9h-0.1l-2.3,1l-2,1.5l-1.5,2l-1,2.3l-0.3,2.5v4.7l0.3,2.5l1,2.3l1.5,2l2,1.5l2.3,1l2.5,0.3l2.5-0.3l2.3-1l2-1.5l1.5-2l1-2.3l0.3-2.5v-4.7l-0.3-2.5l-1-2.3l-1.5-2l-2-1.5l-2.3-1h-0.1V543l-0.2-0.9l-0.5-0.8l-6.6-6.6l0.7-1l1.7,0.7l2.5,0.3l2.5-0.3l2.3-1l2-1.5l1.5-2h0.1l1.1,0.3v0.8l0.2,0.9l0.5,0.8l11.9,11.9v14.1l-0.7,0.1l-2.3,1l-2,1.5l-1.5,2l-1,2.3l-0.3,2.5v4.7l0.3,2.5l1,2.3l1.5,2l2,1.5l2.3,1l2.5,0.3l2.5-0.3l2.3-1l2-1.5l1.5-2l1-2.3l0.3-2.5v-4.7l-0.3-2.5l-1-2.3l-1.5-2l-2-1.5l-1.7-0.7v-15.5l-0.2-0.9l-0.5-0.8l-7.3-7.3l0.7-1l1.7,0.7l2.5,0.3l2.5-0.3l2.3-1l2-1.5l1.5-2h0.1l1.1,0.3v0.8l0.2,0.9l0.5,0.8l11.3,11.3v14.9h-0.1l-2.3,1l-2,1.5l-1.5,2l-1,2.3l-0.3,2.5v4.7l0.3,2.5l1,2.3l1.5,2l2,1.5l2.3,1l2.5,0.3l2.5-0.3l2.3-1l2-1.5l1.5-2l1-2.3l0.3-2.5v-4.7l-0.3-2.5l-1-2.3l-1.5-2l-2-1.5l-2.3-1h-0.1V543l-0.2-0.9l-0.5-0.8l-6.6-6.6l0.7-1l1.7,0.7l2.5,0.3l2.5-0.3l2.3-1l2-1.5l1.5-2h0.1l1.1,0.3v0.8l0.2,0.9l0.5,0.8l11.3,11.3v14.9h-0.1l-2.3,1l-2,1.5l-1.5,2l-1,2.3l-0.3,2.5v4.7l0.3,2.5l1,2.3l1.5,2l2,1.5l2.3,1l2.5,0.3l2.5-0.3l2.3-1l2-1.5l1.5-2l1-2.3l0.3-2.5v-4.7l-0.3-2.5l-1-2.3l-1.5-2l-2-1.5l-2.3-1h-0.1V543l-0.2-0.9l-0.5-0.8l-6.6-6.6l0.7-1l1.7,0.7l2.5,0.3l2.5-0.3l2.3-1l2-1.5l1.5-2h0.1l1.1,0.3v0.8l0.2,0.9l0.5,0.8l11.3,11.3v14.9h-0.1l-2.3,1l-2,1.5l-1.5,2l-1,2.3l-0.3,2.5v4.7l0.3,2.5l1,2.3l1.5,2l2,1.5l2.3,1l2.5,0.3l2.5-0.3l2.3-1l2-1.5l1.5-2l1-2.3l0.3-2.5v-4.7l-0.3-2.5l-1-2.3l-1.5-2l-2-1.5l-2.3-1h-0.1V543l-0.2-0.9l-0.5-0.8l-6.6-6.6l0.7-1l1.7,0.7l2.5,0.3l2.5-0.3l2.3-1l2-1.5l1.5-2h0.1l1.1,0.3v0.8l0.2,0.9l0.5,0.8l11.3,11.3v15h-0.1l-2.3,1l-2,1.5l-1.5,2l-1,2.3l-0.3,2.5v4.7l0.3,2.5l1,2.3l1.5,2l2,1.5l2.3,1l2.5,0.3l2.5-0.3l2.3-1l2-1.5l1.5-2l1-2.3l0.3-2.5v-4.7l-0.3-2.5l-1-2.3l-1.5-2l-2-1.5l-2.3-1h-0.1v-15.9l-0.2-0.9l-0.5-0.8l-6.6-6.6l0.7-1l1.7,0.7l2.5,0.3l2.5-0.3l2.3-1l2-1.5l1.5-2h0.1l1.1,0.3v0.8l0.2,0.9l0.5,0.8l11.3,11.3V559h-0.1l-2.3,1l-2,1.5l-1.5,2l-1,2.3l-0.3,2.5v4.7l0.3,2.5l1,2.3l1.5,2l2,1.5l2.3,1l2.5,0.3l2.5-0.3l2.3-1l2-1.5l1.5-2l1-2.3l0.3-2.5v-4.7l-0.3-2.5l-1-2.3l-1.5-2l-2-1.5l-2.3-1H330v-15.9l-0.2-0.9l-0.5-0.8l-6.6-6.6l0.7-1l1.7,0.7l2.5,0.3l2.5-0.3l2.3-1l2-1.5l1.5-2h0.1l1.1,0.3v0.8l0.2,0.9l0.5,0.8l11.3,11.3V559H349l-2.3,1l-2,1.5l-1.5,2l-1,2.3l-0.3,2.5v4.7l0.3,2.5l1,2.3l1.5,2l2,1.5l2.3,1l2.5,0.3l2.5-0.3l2.3-1l2-1.5l1.5-2l1-2.3l0.3-2.5v-4.7l-0.3-2.5l-1-2.3l-1.5-2l-2-1.5l-2.3-1h-0.1v-15.9l-0.2-0.9l-0.5-0.8l-6.6-6.6l0.7-1l1.7,0.7l2.5,0.3l2.5-0.3l2.3-1l2-1.5l1.5-2h0.1l1.1,0.3v0.8l0.2,0.9l0.5,0.8l11.3,11.3V559h-0.1l-2.3,1l-2,1.5l-1.5,2l-1,2.3l-0.3,2.5v4.7l0.3,2.5l1,2.3l1.5,2l2,1.5l2.3,1l2.5,0.3l2.5-0.3l2.3-1l2-1.5l1.5-2l1-2.3l0.3-2.5v-4.7l-0.3-2.5l-1-2.3l-1.5-2l-2-1.5l-2.3-1h-0.1v-15.9l-0.2-0.9l-0.5-0.8l-6.6-6.6l0.7-1l1.7,0.7l2.5,0.3l2.5-0.3l2.3-1l2-1.5l1.5-2l1-2.3l0.3-2.5v-4.7l-0.3-2.5l-1-2.3l-1.5-2l-2-1.5l-2.3-1h-0.1v-3.9l-0.2-0.9l-0.5-0.7V495h0.9v-11.4h-2.1l-0.3-0.2l0-0.4l-0.9,0.2l-0.3,0.2h-2.1h-0.9h-2.1l-0.3-0.2l-1-0.2l-0.9,0.2l-0.3,0.2h-2.1h-0.9h-2.1l-0.3-0.2l-0.9-0.2l-0.9,0.2l-0.3,0.2h-1.8h-0.3h-0.9h-2.1l-0.3-0.2L353,483l-0.9,0.2l-0.3,0.2h-2.1v11.4l0.1,1.2l-11.2,11.2l-0.5,0.8l-0.2,0.9v6.1l-1.1,0.3h-0.1l-1.5-2l-2-1.5l-2.3-1h-0.1v-3.9l-0.2-0.9l-0.5-0.7v-10.5h0.9v-11.4h-2.1l-0.3-0.2l-0.9-0.2l-0.9,0.2l-0.3,0.2h-2.1h-0.9h-2.1l-0.3-0.2l-0.9-0.2l-0.9,0.2l-0.3,0.2h-2.1H316h-2.1l-0.3-0.2l-0.9-0.2l-0.9,0.2l-0.3,0.2h-1.8h-0.3h-0.9h-2.1l-0.3-0.2l-0.9-0.2l-0.9,0.2l-0.3,0.2h-2.1v11.4l0.1,1.2l-11.2,11.2l-0.5,0.8l-0.2,0.9v6.1l-1.1,0.3h-0.1l-1.5-2l-2-1.5l-2.3-1H283V507l-0.2-0.9l-0.5-0.7v-10.5h0.9v-11.4h-2.1l-0.3-0.2l-0.9-0.2l-0.9,0.2l-0.3,0.2h-2.1h-0.9h-2.1l-0.3-0.2l-0.9-0.2l-0.9,0.2l-0.3,0.2h-2.1h-0.9h-2.1l-0.3-0.2l-0.9-0.2l-0.9,0.2l-0.3,0.2h-1.8h-0.3h-0.9h-2.1l-0.3-0.2l-0.9-0.2l-0.9,0.2l-0.3,0.2h-2.1v11.4l0.1,1.2L243,507.3l-0.5,0.8l-0.2,0.9v6.1l-1.1,0.3h-0.1l-1.5-2l-2-1.5l-2.3-1h-0.1v-16.1h0.2v-11.4h-2.1l-0.3-0.2l-0.9-0.2l-0.9,0.2l-0.3,0.2h-2.1h-0.9h-2.1l-0.3-0.2l-0.9-0.2l-0.9,0.2l-0.3,0.2h-2.1h-0.9h-2.1l-0.3-0.2l-0.9-0.2l-0.9,0.2l-0.3,0.2h-2.1h-0.9h-2.1l-0.3-0.2l-0.9-0.2l-0.9,0.2l-0.3,0.2h-2.1v11.4h0.9v6.6l-11.9,11.9l-0.5,0.8l-0.2,0.9l-1.1,0.3h-0.1l-1.5-2l-2-1.5l-2.3-1h-0.1v-16.1h0.2v-11.4H185l-0.3-0.2l-0.9-0.2l-0.9,0.2l-0.3,0.2h-2.1h-0.9h-2.1l-0.3-0.2l-0.9-0.2l-0.9,0.2l-0.3,0.2H173h-1h-2.1l-0.3-0.2l-0.9-0.2l-0.9,0.2l-0.3,0.2h-2.1h-0.9h-2.1l-0.3-0.2l-0.9-0.2l-0.9,0.2l-0.3,0.2h-2.1v11.4h0.9v4.5l-11.9,11.9l-0.5,0.8l-0.2,0.9v2.1l-1.1,0.3H145l-1.5-2l-2-1.5l-2.3-1h-0.1v-16.1h0.2v-11.4H109.9 M201.7,432.5h-0.8h-4.4v5.7h-1.2v1.2h-6.4v4.5h2.1v0.1l1,1.5l1.5,1l0.6,0.1v-4.4h2.4v4.4l0.6-0.1l1.5-1l1-1.5v-0.1h1.3l1.2,0.1h0.8h1.3l0,0l1,1.5l1.5,1l0.6,0.1v-4.4h2.4v4.4l0.6-0.1l1.5-1l1-1.5l0,0h2.1v-4.5h-6.4v-1.2h-1.2v-5.7h-4.4L201.7,432.5z M209.7,432.5v4.5h5.2v-4.5H209.7z M194.1,432.5h-5.2v4.5h5.2V432.5z M170.1,371.5h-4.6l0.2,1.1l1.3,2l2,1.3l1.1,0.2V371.5z M177.1,371.5h-4.6v4.6l1.1-0.2l2-1.3l1.3-2L177.1,371.5z M170.1,364.5l-1.1,0.2l-2,1.3l-1.3,2l-0.2,1.1h4.6V364.5z M172.5,364.5v4.6h4.6l-0.2-1.1l-1.3-2l-2-1.3L172.5,364.5z M61.4,358.2H44.8v2.5h-6.5l-0.9,0.2l-0.8,0.5l-11,11l-1.6-0.7l-2.5-0.3h-4.7l0,0h-0.5c-5.3,0-9.6,4.3-9.6,9.6v0c0,5.3,4.3,9.6,9.6,9.6h0.5h4.7l2.5-0.3l2.3-1l2-1.5l1.5-2l1-2.3l0.3-2.5l-0.3-2.5l-1-2.3l-0.5-0.7l10-10h5.5v2.5h16.6V358.2L61.4,358.2z M21.5,323.5h-4.7l-2.5,0.3l-2.3,1l-2,1.5l-1.5,2l-1,2.3l-0.3,2.5l0.3,2.5l1,2.3l1.5,2l2,1.5l2.3,1l2.5,0.3h4.7l2.5-0.3l1.6-0.7l11,11l0.8,0.5l0.9,0.2h6.5v2.5h16.6v-9.6v-0.4l0.8-0.8h0.3v-5H53h-9.5v5H44l0.8,0.8v0.4v2.2h-5.5l-10-10l0.5-0.7l1-2.3l0.3-2.5l-0.3-2.5l-1-2.3l-1.5-2l-2-1.5l-2.3-1L21.5,323.5z M108.6,334.2L108.6,334.2H92v9.9h16.6l1.2-0.5l1.7,0.3l1.8-0.4l1.6-1l1.1-1.6l0.4-1.9l-0.4-1.9l-1.1-1.6l-1.6-1l-1.8-0.4l-1.7,0.3L108.6,334.2z M51.9,333h-8.3v5h8.3V333z M62.6,333h-8.3v5h8.3V333z M175,289.4l-9.7-0.4h-9.4l-0.6,1.1h-8.8l-1.7,0.7l-25.4,25.4l-0.7,1.7v32.7l-1.2,0.1l-0.3-1.4l-1.1-1.6l-1.6-1l-1.8-0.4l-4.1-0.1H92v9.6l-1.2,1.2v5h9.5h9.5l1-6.3l1.8,0.4l1.8-0.4l1.6-1l1.1-1.6l0.3-1.4l1.2,0.1l0.1,19.9l-2.9-0.9l-1.8-0.4l-1.8,0.4l-2.2-1.4v-5h-9.5H91v5l1.2,0.8v9.9h16.6l3.4-0.5l1.8,0.4l1.8-0.4l2.9-0.9V434l-7,7l-0.7,1.7v23.6h-1v11.4h29.3v-11.4h-0.9v-25.6l1.2-0.5l19.2,19.2v6.9h-0.9v11.4h29.3v-11.4h-0.9v-17.1l-1.7-2.8v-30.7l0.9-0.6h7.6v2.5h-3v9h10.4v-9h-3v-2.5h2.7v-5.7l2.7-2.7l1.2,0.5v7.6l0.8,1.8l-0.5,1.1h-1.2v9h10.4v-9h-3l0.5-2.6h10.6v31.5L207.4,461l-0.7,1.7v3.6h-0.9v11.4h29.3v-11.4h-0.9v-2.6l5.9-5.9l0.7-1.7v-4.4l1.2-0.5l12.6,12.5v2.6h-0.9v11.4H283v-11.4h-0.9v-3.6l-0.7-1.7l-21.7-21.7V379l8-0.6h0.1l1.2,0.6v1.5l-0.6,0.5l-1.9,0.4l-1.6,1l-1,1.6l-0.4,1.9l0.4,1.9l0.2,2.1l-1.6,1l-1,1.6l-0.4,1.9l0.4,1.9l1,1.6l1.6,1l1.9,0.4l1.9-0.4l4.7-2.7l1.8-1.8l0.9,0.8l0,0l-0.7,1.1l-0.4,1.9l0.4,1.9l1,1.6l1.6,1l1.9,0.4l1.9-0.4l1.6-1l1-1.6l0.4-1.9l-0.5-5.1l1.2-0.5l21.2,21.2l-0.5,1.1h-23.8l-1-0.7l-1.3-0.3l-1.3,0.3l-1.1,0.7l-0.7,1.1l-0.3,1.3l0.3,1.3l0.7,1.1l1.1,0.7l1.3,0.3v2.8l-1.3,0.3l-1.1,0.7l-0.7,1.1l-0.3,1.3l0.3,1.3l0.7,1.1l1.1,0.7l1.3,0.3v2.8l-1.3,0.3l-1.1,0.7l-0.7,1.1l-0.3,1.3l0.3,1.3l0.7,1.1l1.1,0.7l1.3,0.3l1.3-0.3l1-0.7h17l4,4v23.7h-0.9V478H331v-11.4h-0.9v-24.8l-0.7-1.7L310.3,421l0.5-1.2h21.4l18.4,18.4v28.5h-0.9v11.4H379v-11.4h-0.9v-26l-0.7-1.7l-34.1-34.1l-1.7-0.7h-27.5l-16.5-16.5l0.2-22.6 M297.8,364.7l-0.1-4l-85.9,0.4v9.3h-2.4V361l-1.1-0.6v-2.6l-0.2-0.9l0,0l0.4-2l-0.4-2.1l-1.2-1.8l-1.8-1.2l-2.1-0.4l-2.1,0.4l-1.8,1.2l-1.2,1.8l-0.4,2.1v0.1l-1.1,0.6l0,0l-0.8-0.5l-0.9-0.2H189l-0.6-1l-1.6-1l-1.9-0.4l-1.9,0.4l-1.6,1l-1.1,1.6l-0.4,1.9l0.4,1.9l1.1,1.6l0.4,0.3l-0.3,1.3l-0.5,0.1l-0.9,0.6l-0.6,0.9l-0.2,1v11.3l0.2,1l0,0v1.7l-2.6,2.6l-0.5,0.8l-0.2,0.9v47.9l-1.7,1.7l-0.5,0.8l-0.1,0.3l-0.1,0.1l-0.7,1.1l-0.3,1.3l0.3,1.3l0.7,1.1l1.1,0.7l1.3,0.3l1.3-0.3l1.1-0.7h0.3l0.9,0.4v8.5l0.2,0.9l0.5,0.8l1,1v15.3l-0.7,0.7h-1.3l-0.7-0.8v-3.9l-0.2-0.9l-0.5-0.8l-33-33v-8.3l1.2-0.7l0.4,0.2l0.1,0.4l0.7,1.1l1.1,0.7l1.3,0.3l0.5-0.1l1,1l-0.1,0.5l0.3,1.3l0.7,1.1l1.1,0.7l1.3,0.3l0.5-0.1l1,1l-0.1,0.5l0.3,1.3l0.7,1.1l1.1,0.7l1.3,0.3l0.5-0.1l1,1l-0.1,0.5l0.3,1.3l0.7,1.1l1.1,0.7l1.3,0.3l1.3-0.3l1.1-0.7l0.7-1.1l0.3-1.3l-0.3-1.3l-0.7-1.1l-0.2-0.1v-14.3l-0.2-0.9l-0.5-0.8l-6.2-6.2V357l0.4-0.5h11.1l1-0.2l0.9-0.6l0.6-0.9l0.2-1l-0.2-1l-0.4-0.5l-0.1-0.8l0.1-0.8l0.4-0.5l0.2-1l-0.2-1l-0.6-0.9v-1l0.6-0.9l0.2-1l-0.2-1v-0.1l0.6-1.2h13l0.9-0.2l0.8-0.5l5.1-5.1l1.1,0.2l1.9-0.4l1.6-1l1.1-1.6l0.4-1.9l-0.4-1.9l-1.1-1.6l-1.6-1l-1.9-0.4h-0.2l-0.9-0.9l0.1-0.2l-0.4-1.9l-1.1-1.6l-1.6-1l-1.9-0.4h-0.2l-0.9-0.9v-0.2l-0.4-1.9l-1.1-1.6l-1.6-1l-1.9-0.4l-1.9,0.4l-1.6,1l-1.1,1.6l-0.4,1.9l0.4,1.9l1,1.5l-5.1,0.2l-0.2-34.1 M108.1,323.6h-6.4v7.8h6.4V323.6z M108.1,313.4h-6.4v7.8h6.4V313.4z M303.2,354l2.7,2.7h11.3l1-0.2l0.9-0.6l0.6-0.9l0.2-1l0.4-7h7.2l19.6,19.6v28.6l0.7,1.7l33.3,33.3l1.7,0.7h3.3v0.9h11.4v-29.3H386v0.9h-3.3l-19.1-19.1V362l1.2-0.5l21.2,21.1v1.3h11.4v-29.3H386v0.9h-5.1L339,313.7l0,0l-3.8-3.8l-1.7-0.7h-13.2L320,305l-8.4-1.7h-9.4l-0.6,1.1h-4.2l-1.7,0.7l-5.3,1.5l-1.8,1.2l-1.2,1.8l-0.4,2.1l0.4,2.1l1.2,1.8l1.8,1.2l2.1,0.4l2.1-0.4l1.8-1.2l1.2-1.8l0.9-4.6h4.4l0.6,1.3L303.2,354 M291.2,294.8h-4.6l0.2,1.1l1.3,2l2,1.3l1.1,0.2V294.8z M298.2,294.8h-4.6v4.6l1.1-0.2l2-1.3l1.3-2L298.2,294.8z M17.9,286.5H6.1l0.2,1.6l1.1,2.6l1.7,2.3l2.3,1.7l2.6,1.1l2.8,0.4H18L17.9,286.5L17.9,286.5z M32.2,286.5H20.3v9.7h1.2l2.8-0.4l2.6-1.1l2.3-1.7l1.7-2.3l1.1-2.6L32.2,286.5z M291.2,287.8L290,288l-2,1.3l-1.3,2l-0.2,1.1h4.6v-4.6H291.2z M293.6,287.8v4.6h4.6l-0.2-1.1l-1.3-2l-2-1.3L293.6,287.8z M17.9,274.4h-1.2l-2.8,0.4l-2.6,1.1L9,277.6l-1.7,2.3l-1.1,2.6L6,284.1h11.9V274.4z M21.5,274.4h-1.2v9.7h11.9l-0.2-1.6l-1.1-2.6l-1.7-2.3l-2.3-1.7l-2.6-1.1L21.5,274.4z M263.6,239.7H259l0.2,1.1l1.3,2l2,1.3l1.1,0.2V239.7z M270.6,239.7H266v4.6l1.1-0.2l2-1.3l1.3-2L270.6,239.7z M105.7,221.8h-6.4v7.8h6.4V221.8z M166.6,225.4h-3.9l0.2,0.9l1.2,1.7l1.8,1.2l0.9,0.2L166.6,225.4L166.6,225.4z M172.9,225.4H169v3.9l0.9-0.2l1.8-1.2l1.2-1.7V225.4z M166.6,219l-0.9,0.2l-1.7,1.2l-1.2,1.7l-0.2,0.9h3.9L166.6,219L166.6,219z M168.9,219v3.9h3.9l-0.2-0.9l-1.2-1.7l-1.7-1.2L168.9,219z M105.7,211.6h-6.4v7.8h6.4V211.6z M185.4,214.8l-6.2,3.6v11.3l0.2,1l0,0v3.8l0.2,0.9l0.5,0.8l3.4,3.4l0.8,0.5l0.9,0.2h3.9l0.8,0.9l-0.1,0.7l0.4,2.1l1.2,1.8l1.8,1.2l2.1,0.4l2.1-0.4l1.8-1.2l1.2-1.8l0.4-2.1l-0.4-2.1l-1.2-1.8l-1.8-1.2l-2.1-0.4l-1.8,0.4l-0.6-0.6l-0.8-0.5l-0.9-0.2h-5l-1-1l0.1-0.1V224L185.4,214.8L185.4,214.8z M173.6,240l-0.6-0.9l-0.9-0.6l-1-0.2h-11.3l-1,0.2l-0.9,0.6l-0.6,0.9l-0.2,1l0.2,1v0.1l-0.5,1l-1.2,0.1l-2.1-2.1v-76.7l32.2-32.2l0.5-0.8l0.2-0.9v-2.1h0.9V117h-6.4h-0.3h-0.9h-0.3H173h-0.9h-6.6h-0.9H158v11.4h0.9v8.1l-23,23l-1.2-0.5v-25.8l3.1-3.1l0.5-0.8l0.2-0.9h0.9V117H133h-0.3h-0.9h-6.6h-0.9H124h-6.3h-0.9v-0.3h-0.2l0,0h-0.3H110v11.4h0.9l0.2,0.9l0.5,0.8l3.9,3.9V149l-1.2,0.6l-1-0.7l-1.8-0.4l-1.8,0.4l-1.6,1.1l-0.8,1.2H92.1l0,0l-1.6-1.1l-1.8-0.4l-1.8,0.4l-1.6,1.1l-1.1,1.6l-0.4,1.9l0.4,1.9l1.1,1.6l1.6,1.1l1.8,0.4l1.8-0.4l1.6-1.1l1.1-1.6l0.2-0.9h13.9l0.8,1.2l1.6,1.1l1.8,0.4l1.8-0.4l1-0.7l1.2,0.6v86.4l0.2,0.9l0.5,0.8l33.4,33.4l-0.5,1.2h-10.3l-1.1-1.1V271h-6.9l-19.3-19.3l0.1-0.9l1.2-1.8l0.4-2.1l-0.4-2.1l-1.2-1.8l-1.8-1.2l-2.1-0.4l-2.1,0.4l-1.8,1.2l-0.9,0.1l-8.3-8.3l-1.2-0.8l-1.4-0.3h-5.7v-5.3h3.9l0.2,1.1v0.1H97v-9v-9h-6.4v0.1l-0.2,1.1h-1H77.6v15.6h3.9v5.3H30.4l-0.5-1.2l-1.5-2l-2-1.5l-2.3-1l-2.5-0.3h-4.7l-2.5,0.3l-2.3,1l-2,1.5l-1.5,2l-1,2.3l-0.3,2.5l0.3,2.5l1,2.3l1.5,2l2,1.5l2.3,1l2.5,0.3h4.7l2.5-0.3l2.3-1l2-1.5l1.5-2l0.5-1.2h60.2l8.6,8.6v5.5l-27.5,27.5l-0.8,1.2l-0.3,1.4v81.1l-5,5h-4.2v-1.3H44.8v9.9h16.6v-1.3h5.7l1.4-0.3l1.2-0.8l7.2-7.2l0.8-1.2l0.3-1.4v-43.1h2v5.4h12.8L93,331v0.1h6.4v-9v-9H93v0.1l-0.2,1.1h-1H80v5.4h-2v-33.2l27.5-27.5l0.7-1l1.3-0.4l12.2,12.2l-0.8,0.9h-1.1H109v14.2h7.6l0.1,0.3l0.8,1.2l1.2,0.8l1.4,0.3l1.4-0.3l1.2-0.8l0.8-1.2l0.3-1.4l-0.3-1.4l-0.8-1.2l-1.2-0.8l-1.4-0.3H120l-0.9-0.9v-7.4V271l0.9-0.8l8,8v6.9h8.8l0.3,0.2l0.5,0.1l0.4,0.1h17.4l0.6,1.1h9.4h7.7L173.6,240z M300.6,299.5h9.3h9.4l0.6-1.1h2.4l0.9-0.2l0.8-0.5l6.5-6.5h29.8l6.5,6.5V316l0.2,0.9l0.5,0.8l1.6,1.6l15.1,15.1v1.6h11.4v-29.3H387l-2-2v-17.5h1.4v0.9h11.4v-29.5h-11.4v0.9h-3.5l0,0c-2.2,0-3.9,1.7-3.9,3.9v2.6h-56.4l-0.9,0.2l0,0l-0.9-0.2v-0.1l-0.7-1.1l0.1-0.7l-0.2-1l0,0l0.6-1.2h36.2l0.9-0.2l0.8-0.5l22.1-22.1h5.7v0.9h11.4v-29.2h-11.4v0.9l-0.9,0.2l-0.8,0.5l-8.1,8.1l-1.5-0.4v-26l2.8-2.8h8.1v0.9h11.4v-29.3H386v0.9h-32.4l-0.4-1.2l0.1-0.1l23.9-23.9l0.7-1.7v-8.6h0.9v-11.4l-29.1-0.2v11.4h0.9v4l-15.3,15.3h-19.7l-0.5-1.1l14.4-14.4l0.5-0.8l0.2-0.9v-2.1h0.9v-11.4H302v11.4h0.2l0.4,1.2l-3.8,3.8h-8.9c-0.6,0-1.2,0.1-1.8,0.3l0,0c-0.6,0.2-1.1,0.6-1.5,1l-53.3,53.3c-0.3,0.3-0.7,0.4-1.1,0.2l0,0c-0.4-0.2-0.6-0.5-0.6-0.9v-2.8L281,135c0.4-0.4,0.8-0.9,1-1.5l0,0c0.2-0.6,0.3-1.2,0.3-1.8v-3.6h0.9v-11.4h-29.4v11.4h0.9v8.1l-40.3,40.4c-0.3,0.3-0.7,0.4-1.1,0.2l0,0c-0.4-0.2-0.6-0.5-0.6-0.9v-16l20.2-20.2c0.4-0.4,0.8-0.9,1-1.5l0,0c0.2-0.6,0.3-1.2,0.3-1.8v-8.4h0.9v-11.4h-6.6h-0.9h-6.6H220h-6.6h-0.9h-6.6v11.4h0.9V139l-12.4,12.4l-0.5,0.8l-0.2,0.9v62.3l-5.8-0.5v9.3v9.3l0.3-0.1l1.3-0.8l0.4-0.6l69.8,0.5l0.3,1.3l-1,0.7l-1.3,2l-0.2,1.1h11.6l-0.2-1.1l-1.3-2l-0.3-0.2v-0.1l0.3-1.2l0,0l0.9,0.6l0.3,0.1v-9.3V215l-1.1-0.6v-17.2l33.8-33.8h7.1l0.4,1.2l-0.1,0.1l-26.5,26.4l-0.5,0.8l-0.2,0.9v14.9l-1.2,0.6l-0.3-0.2l-1.3-0.3l-1.3,0.3l-1.1,0.7l-0.7,1.1l-0.3,1.3l0.3,1.3l0.7,1.1l0.5,0.3v1.7l-1.2,0.6h-0.1l-1-0.2l-1,0.2l-0.5,0.4l-0.4-0.6l-1.3-0.8l-0.3-0.1v9.3v9.4l1.1,0.6v4.9l0.2,0.9l0.1,0.1l-0.4,1.9l0.4,2.1l1.2,1.8l1.8,1.2l2.1,0.4l2.1-0.4l1.8-1.2l1.2-1.8l0.4-2.1l-0.4-2.1l-1.2-1.8l-1.8-1.2l-2.1-0.4l-0.6-0.5l0.1-3.7l16.3,0c1.3,0,2.4-1.1,2.4-2.4v-11.6l-0.2-1l0,0v-23.1l10.7-10.7H382c0.8,0,1.4,0.6,1.3,1.4l0,0c0,0.7-0.6,1.3-1.3,1.3h-6.9l-0.9,0.2l-0.8,0.5l-4.3,4.3l-0.5,0.8l-0.2,0.9v28.4l-16.8,16.8h-35.1l0,0l-1-0.2h-11.3l-1,0.2l-0.9,0.6l-0.6,0.9L300.6,299.5z M63.5,94.8H44.3l0.3,2.8l1.2,3.8l1.9,3.5l2.5,3.1l3.1,2.6l3.5,1.9l3.8,1.2l2.8,0.3C63.5,113.9,63.5,94.8,63.5,94.8z M85.1,94.8H65.9V114l2.8-0.3l3.8-1.2l3.5-1.9l3.1-2.6l2.6-3.1l1.9-3.5l1.2-3.8L85.1,94.8z M423,94.8h-19.1l0.3,2.8l1.2,3.8l1.9,3.5l2.5,3.1l3.1,2.6l3.5,1.9l3.8,1.2l2.8,0.3L423,94.8L423,94.8z M444.5,94.8h-19.1V114l2.8-0.3l3.8-1.2l3.5-1.9l3.1-2.6l2.5-3.1l1.9-3.5l1.2-3.8L444.5,94.8z M63.5,73.2l-2.8,0.3l-3.8,1.2l-3.5,1.9l-3.1,2.6l-2.5,3.1l-1.9,3.5l-1.2,3.8l-0.3,2.8h19.1V73.2L63.5,73.2z M65.9,73.2v19.2h19.2l-0.3-2.8l-1.2-3.8l-1.9-3.5l-2.6-3.1L76,76.6l-3.5-1.9l-3.8-1.2L65.9,73.2z M423,73.2l-2.8,0.3l-3.8,1.2l-3.5,1.9l-3.1,2.6l-2.5,3.1l-1.9,3.5l-1.2,3.8l-0.3,2.8H423V73.2L423,73.2z M425.4,73.2v19.2h19.1l-0.3-2.8l-1.2-3.8l-1.9-3.5l-2.5-3.1l-3.1-2.6l-3.5-1.9l-3.8-1.2L425.4,73.2z M376.2,12l-2.5,0.3l-2.3,1l-2,1.5l-1.5,2l-1,2.3l-0.3,2.5v4.7l0.3,2.5l1,2.3l1.5,2l2,1.5l2.3,1h0.1v13.5L374,50l0.5,0.8l11.3,11.3v2.2l-1.1,0.3h-0.1l-1.5-2l-2-1.5l-2.3-1l-2.5-0.3l-2.5,0.3l-2.3,1l-2,1.5l-1.5,2h-0.1l-1.1-0.3v-3.2l-0.2-0.9l-0.5-0.8l-11.3-11.3V35.8h0.1l2.3-1l2-1.5l1.5-2l1-2.3l0.3-2.5v-4.7l-0.3-2.5l-1-2.3l-1.5-2l-2-1.5l-2.3-1l-2.5-0.3l-2.5,0.3l-2.3,1l-2,1.5l-1.5,2l-1,2.3l-0.3,2.5v4.7l0.3,2.5l1,2.3l1.5,2l2,1.5l2.3,1h0.1v13.5l0.2,0.9l0.5,0.8L362,62.3v2.2l-1.1,0.3h-0.1l-1.5-2l-2-1.5l-2.3-1l-2.5-0.3l-2.5,0.3l-2.3,1l-2,1.5l-1.5,2h-0.1l-1.1-0.3V60l-0.2-0.9l-0.5-0.8L330.8,47V35.8h0.1l2.3-1l2-1.5l1.5-2l1-2.3l0.3-2.5v-4.7l-0.3-2.5l-1-2.3l-1.5-2l-2-1.5l-2.3-1l-2.5-0.3l-2.5,0.3l-2.3,1l-2,1.5l-1.5,2l-1,2.3l-0.3,2.5v4.7l0.3,2.5l1,2.3l1.5,2l2,1.5l2.3,1h0.1V48l0.2,0.9l0.5,0.8L337.9,61v3.4l-1.1,0.3h-0.1l-1.5-2l-2-1.5l-2.3-1l-2.5-0.3l-2.5,0.3l-2.3,1l-2,1.5l-1.5,2H320l-1.1-0.3v-2l-0.2-0.9l-0.5-0.8l-11.3-11.3V35.8h0.1l2.3-1l2-1.5l1.5-2l1-2.3l0.3-2.5v-4.7l-0.3-2.5l-1-2.3l-1.5-2l-2-1.5l-2.3-1l-2.5-0.3l-2.5,0.3l-2.3,1l-2,1.5l-1.5,2l-1,2.3l-0.3,2.5v4.7l0.3,2.5l1,2.3l1.5,2l2,1.5l2.3,1h0.1v14.7l0.2,0.9l0.5,0.8L314,63.4l-0.1,0.8l-1.2,0.3l-1.3-1.7l-2-1.5l-2.3-1l-2.5-0.3l-2.5,0.3l-2.3,1l-2,1.5l-1.5,2h-0.1l-1.1-0.3v-6.8l-0.2-0.9l-0.5-0.8l-12-11.9V36l0.7-0.1l2.3-1l2-1.5l1.5-2l1-2.3l0.3-2.5v-4.7l-0.3-2.5l-1-2.3l-1.5-2l-2-1.5l-2.3-1l-2.5-0.3l-2.5,0.3l-2.3,1l-2,1.5l-1.5,2l-1,2.3l-0.3,2.5v4.7l0.3,2.5l1,2.3l1.5,2l2,1.5l1.7,0.7V45l0.2,0.9l0.5,0.8l11.9,11.9v5.8l-1.1,0.3h-0.1l-1.5-2l-2-1.5l-2.3-1l-2.5-0.3l-2.5,0.3l-2.3,1l-2,1.5l-1.5,2h-0.1l-1.1-0.3v-3.2l-0.2-0.9l-0.5-0.8l-11.3-11.3V35.8h0.1l2.3-1l2-1.5l1.5-2l1-2.3l0.3-2.5v-4.7l-0.3-2.5l-1-2.3l-1.5-2l-2-1.5l-2.3-1l-2.5-0.3l-2.5,0.3l-2.3,1l-2,1.5l-1.5,2l-1,2.3l-0.3,2.5v4.7l0.3,2.5l1,2.3l1.5,2l2,1.5l2.3,1h0.1v13.5l0.2,0.9L255,51l11,11.2v2.2l-1.1,0.3h-0.1l-1.5-2l-2-1.5l-2.3-1l-2.5-0.3l-2.5,0.3l-2.3,1l-2,1.5l-1.5,2h-0.1l-1.1-0.3v-3.2l-0.2-0.9l-0.5-0.8L235,48.2V35.8h0.1l2.3-1l2-1.5l1.5-2l1-2.3l0.3-2.5v-4.7l-0.3-2.5l-1-2.3l-1.5-2l-2-1.5l-2.3-1l-2.5-0.3l-2.5,0.3l-2.3,1l-2,1.5l-1.5,2l-1,2.3l-0.3,2.5v4.7l0.3,2.5l1,2.3l1.5,2l2,1.5l2.3,1h0.1v13.5l0.2,0.9l0.5,0.8l11.3,11.3v2.2l-1.1,0.3H241l-1.5-2l-2-1.5l-2.3-1l-2.5-0.3l-2.5,0.3l-2.3,1l-2,1.5l-1.5,2h-0.1l-1.1-0.3V60l-0.2-0.9l-0.5-0.8L211,47V35.8h0.1l2.3-1l2-1.5l1.5-2l1-2.3l0.3-2.5v-4.7l-0.3-2.5l-1-2.3l-1.5-2l-2-1.5l-2.3-1l-2.5-0.3l-2.5,0.3l-2.3,1l-2,1.5l-1.5,2l-1,2.3l-0.3,2.5v4.7l0.3,2.5l1,2.3l1.5,2l2,1.5l2.3,1h0.1V48l0.2,0.9l0.5,0.8L218.1,61v3.4l-1.1,0.3h-0.1l-1.5-2l-2-1.5l-2.3-1l-2.5-0.3l-2.5,0.3l-2.3,1l-2,1.5l-1.5,2h-0.1l-1.1-0.3v-0.8l-0.2-0.9l-0.5-0.8l-12-11.9V35.9l0.7-0.1l2.3-1l2-1.5l1.5-2l1-2.3l0.3-2.5v-4.7l-0.3-2.5l-1-2.3l-1.5-2l-2-1.5l-2.3-1l-2.5-0.3l-2.5,0.3l-2.3,1l-2,1.5l-1.5,2l-1,2.3l-0.3,2.5v4.7l0.3,2.5l1,2.3l1.5,2l2,1.5l1.7,0.7V51l0.2,0.9l0.5,0.8l7.3,7.3l-0.7,1l-1.7-0.7l-2.5-0.3l-2.5,0.3l-2.3,1l-2,1.5l-1.5,2h-0.1l-1.1-0.3v-0.8l-0.2-0.9l-0.5-0.8l-11.3-11.3V35.8h0.1l2.3-1l2-1.5l1.5-2l1-2.3l0.3-2.5v-4.7l-0.3-2.5l-1-2.3l-1.5-2l-2-1.5l-2.3-1l-2.5-0.3l-2.5,0.3l-2.3,1l-2,1.5l-1.5,2l-1,2.3l-0.3,2.5v4.7l0.3,2.5l1,2.3l1.5,2l2,1.5l2.3,1h0.1v15.9l0.2,0.9l0.5,0.8l6.6,6.6l-0.7,1l-1.7-0.7l-2.5-0.3l-2.5,0.3l-2.3,1l-2,1.5l-1.5,2h-0.1l-1.1-0.3v-0.8l-0.2-0.9l-0.5-0.8l-11.3-11.3V35.8h0.1l2.3-1l2-1.5l1.5-2l1-2.3l0.3-2.5v-4.7l-0.3-2.5l-1-2.3l-1.5-2l-2-1.5l-2.3-1l-2.5-0.3l-2.5,0.3l-2.3,1l-2,1.5l-1.5,2l-1,2.3l-0.3,2.5v4.7l0.3,2.5l1,2.3l1.5,2l2,1.5l2.3,1h0.1v15.9l0.2,0.9l0.5,0.8l6.6,6.6l-0.7,1l-1.7-0.7l-2.5-0.3l-2.5,0.3l-2.3,1l-2,1.5l-1.5,2h-0.1l-1.1-0.3v-0.8l-0.2-0.9l-0.5-0.8l-11.3-11.3V35.8h0.1l2.3-1l2-1.5l1.5-2l1-2.3l0.3-2.5v-4.7l-0.3-2.5l-1-2.3l-1.5-2l-2-1.5l-2.3-1l-2.5-0.3l-2.5,0.3l-2.3,1l-2,1.5l-1.5,2l-1,2.3l-0.3,2.5v4.7l0.3,2.5l1,2.3l1.5,2l2,1.5l2.3,1h0.1v15.9l0.2,0.9l0.5,0.8l6.6,6.6l-0.7,1l-1.7-0.7l-2.5-0.3l-2.5,0.3l-2.3,1l-2,1.5l-1.5,2l-1,2.3l-0.3,2.5v4.7l0.3,2.5l1,2.3l1.5,2l2,1.5l2.3,1l0.7,0.1v16h-0.9v11.4h6.6h0.9h6.6h0.9h6.6h0.9h6.6V99.8h-0.9v-4.5l11.9-11.9l0.5-0.8l0.2-0.9v-2.1l1.1-0.3h0.1l1.5,2l2,1.5l2.3,1h0.1v5.1l0.2,0.9l0.5,0.7v9.3h-0.9v11.4h6.6h0.9h6.6h0.9h6.6h0.9h6.6V99.8h-0.9v-4.5L198,83.4l0.5-0.8l0.2-0.9v-2.1l1.1-0.3h0.1l1.5,2l2,1.5l2.3,1h0.1v13.6l0.2,0.9l0.3,0.4l-0.5,1.2h0.2v11.4h6.6h0.9h6.6h0.9h6.4h0.3h0.9h6.6V99.8l0.4-1.1l10.6-10.6l0.5-0.8l0.2-0.9v-6.8l1.1-0.3h0.1l1.5,2l2,1.5l2.3,1h0.1v15.4l0.1,0.3l-0.3,0.3v11.4h6.6h0.9h6.6h0.9h6.6h0.9h6.6V99.8H282v-6.1l11.9-11.9l0.5-0.8l0.6-1v-0.5l1.1-0.3h0.1l1.5,2l2,1.5l2.3,1l0.7,0.1v16h-0.9v11.4h6.6h0.9h6.6h0.9h6.6h0.9h6.6V99.8H330v-5.4l11.9-11.9l0.5-0.8l0.2-0.9v-1.2l1.1-0.3h0.1l1.5,2l2,1.5l2.3,1l0.7,0.1v16h-0.9v11.4h6.6h0.9h6.6h0.9h6.6h0.9h6.6V99.8h-0.9v-5.4l11.9-11.9l0.5-0.8l0.2-0.9V61.2l-0.2-0.9l-0.5-0.8L378,48.2V35.8h0.1l2.3-1l2-1.5l1.5-2l1-2.3l0.3-2.5v-4.7l-0.3-2.5l-1-2.3l-1.5-2l-2-1.5l-2.3-1L376.2,12z M383.4,9.8l1.9,0.2l1.7,0.7l1.5,1.1l0,0l115,115l0,0l1.1,1.5l0.7,1.7l0.2,1.9l0,0v28.4l-1.1,0.3h-0.1l-1.5-2l-2-1.5l-2.3-1l-2.5-0.3h-4.7l-2.5,0.3l-2.3,1l-2,1.5l-1.5,2l-1,2.3l-0.3,2.5l0.3,2.5l1,2.3l1.5,2v0.4l-1,1.1h-28.6l-0.4-1.1l0.5-0.4l1.5-2l1-2.3l0.3-2.5l-0.3-2.5l-1-2.3l-1.5-2l-2-1.5l-2.3-1l-2.5-0.3h-4.7l-2.5,0.3l-2.3,1l-2,1.5l-1.5,2l-1,2.3l-0.1,0.7h-19.6v-0.9H403v6.6v0.9v6.6v0.9v6.6v0.9v6.6h11.2l9.9,9.9l0.8,0.5l0.9,0.2h16.5l0.1,1.2l-1.5,0.2l-2.3,1l-2,1.5l-1.5,2l-1,2.3l-0.1,0.7h-19.6v-0.9H403v6.6v0.9v6.6v0.9v6.6v0.9v6.6h11.2l9.9,9.9l0.8,0.5l0.9,0.2h16.5l0.1,1.2l-1.5,0.2l-2.3,1l-2,1.5l-1.5,2l-1,2.3L434,259h-19.6v-0.9H403v6.6v0.9v6.6v0.9v6.6v0.9v6.6h11.2l9.9,9.9l0.8,0.5l0.9,0.2h16.5l0.1,1.2l-1.5,0.2l-2.3,1l-2,1.5l-1.5,2l-1,2.3v0.1h-9.9l-0.9,0.2l-0.7,0.5h-8.1v-0.9H403v6.6v0.9v6.6v0.9v6.6v0.9v6.6h11.4v-0.9h9l10.7,10.7l0.8,0.5l0.9,0.2h6.5l0.1,1.2l-1.5,0.2l-2.3,1l-2,1.5l-1.5,2l-1,2.3v0.1h-9.9l-0.9,0.2l-0.7,0.5h-8.1v-0.9H403v6.6v0.9v6.6v0.9v6.6v0.9v6.6h11.4v0.3h9l10.7,10.7l0.8,0.5l0.9,0.2h6.5l0.1,1.2l-1.5,0.2l-2.3,1l-2,1.5l-1.5,2l-1,2.3v0.1h-9.9l-0.9,0.2l-0.7,0.5h-8.1v-0.9H403v6.6v0.9v6.6v0.9v6.6v0.9v6.6h11.4v-0.9h9l10.7,10.7l0.8,0.5l0.9,0.2h16.7l0.9-0.2l0.8-0.5l10.7-10.7h16.9l0.1,0.7l1,2.3l1.5,2l2,1.5l2.3,1l2.5,0.3h4.7l2.5-0.3l2.3-1l2-1.5l1.5-2h0.1l1.1,0.3v28.4l0,0l-0.2,1.9l-0.7,1.7l-1.1,1.5l0,0l-115,114.9l0,0l-1.5,1.1l-1.7,0.7l-1.8,0.2l0,0h-278l0,0l-1.8-0.2l-1.7-0.7l-1.5-1.1l0,0L5.7,488l0,0l-1.1-1.5l-0.7-1.7L3.7,483l0,0V111.5l0,0l0.2-1.8l0.7-1.7l1.1-1.5l0,0l94.7-94.6l0,0l1.5-1.1l1.7-0.7l1.8-0.2l0,0L383.4,9.8L383.4,9.8L383.4,9.8L383.4,9.8z"/>
			</g>
			<g class="st3">
				<polyline points="279.2,436.2 299.5,436.2 305,441.7 305,468.5"/>
				<polyline points="284,431.4 306.7,431.4 312.5,437.2 312.5,468.5"/>
				<polyline points="279.2,426.6 307,426.6 320.1,439.7 320.1,468.5"/>
				<polyline points="219.6,224.1 219.6,180.7 264.6,135.7 264.6,122.4"/>
				<polyline points="257.1,122.4 257.1,137.2 214.9,179.5 214.9,224.1"/>
				<polyline points="327.6,468.5 327.6,441.5 307.9,421.8 284,421.8"/>
				<polyline points="391.7,181.2 307.1,181.2 295,193.3 295,224.1"/>
				<polyline points="391.7,173.7 309.6,173.7 290.3,192.9 290.3,224.1"/>
				<polyline points="391.7,166.1 312.1,166.1 285.6,192.6 285.6,224.1"/>
				<polyline points="279.7,122.4 279.7,132.6 229,183.3 229,224.1"/>
				<polyline points="233.7,224.1 233.7,190.5 288.8,135.5 299.5,135.5 305,130 305,122.4"/>
				<polyline points="238.4,224.1 238.4,191.2 290.6,139.1 303.1,139.1 312.5,129.7 312.5,122.4"/>
				<polyline points="243.2,224.1 243.2,191.9 292.4,142.7 306.7,142.7 320.1,129.3 320.1,122.4"/>
				<polyline points="247.9,224.1 247.9,193.2 294.8,146.3 311.5,146.3 327.6,130.2 327.6,122.4"/>
				<polyline points="387.3,380.4 332.4,325.5 311.6,325.5"/>
				<line x1="335.5" y1="323.6" x2="384.8" y2="372.9"/>
				<polyline points="279.2,417 333.1,417 352.9,436.9 352.9,468.5"/>
				<polyline points="272.2,122.4 272.2,134.1 224.3,182 224.3,224.1"/>
				<polyline points="165.3,344.4 155.3,344.4 149.8,350 149.8,410.6 154.6,415.5 154.6,421.8"/>
				<polyline points="149.8,417 146.2,413.5 146.2,332 152.6,325.5 165.3,325.5"/>
				<polyline points="135.9,468.5 135.9,439.1 131.8,435 131.8,322.4 147.5,306.7 165.3,306.7"/>
				<polyline points="128.4,468.5 128.4,439.6 128.2,439.5 128.2,320.9 147.2,302 165.3,302"/>
				<polyline points="200.7,224.1 200.7,155.1 216.7,139.1 216.7,122.4"/>
				<polyline points="224.2,468.5 224.2,462.8 233.7,453.3 233.7,370.4"/>
				<polyline points="165.3,297.2 146.8,297.2 124.6,319.4 124.6,437.4 120.8,441.2 120.8,468.5"/>
				<polyline points="165.3,283.1 137.9,283.1 132.9,278.1"/>
				<polyline points="165.3,250.1 154.2,250.1 146.3,242.1 146.3,162.4 176.3,132.3 176.3,122.4"/>
				<polyline points="165.3,245.4 154.6,245.4 151,241.8 151,163.1 183.9,130.2 183.9,122.4"/>
				<polyline points="196,224.1 196,153.1 209.1,140 209.1,122.4"/>
				<polyline points="391.7,188.8 376.9,188.8 372.6,193 372.6,222.4 354.4,240.6 311.6,240.6"/>
				<line x1="84" y1="237.2" x2="84" y2="220.6"/>
				<polyline points="159.4,426.6 159.4,415.2 153.4,409.2 153.4,353.5 157.8,349.1 165.3,349.1"/>
				<polyline points="168.8,122.4 168.8,134.8 141.5,162 141.5,242.5 153.8,254.8 165.3,254.8"/>
				<polyline points="161.2,122.4 161.2,137.2 136.8,161.6 136.8,242.9 153.5,259.5 165.3,259.5"/>
				<polyline points="135.9,122.4 135.9,128.1 132.1,131.9 132.1,243.2 153.1,264.2 165.3,264.2"/>
				<polyline points="128.4,122.4 128.4,195.6 127.4,196.6 127.4,243.6 152.7,268.9 165.3,268.9"/>
				<polyline points="120.8,122.4 120.8,128.1 122.7,129.9 122.7,244 152.4,273.6 165.3,273.6"/>
				<polyline points="113.3,122.4 113.3,128.1 117.9,132.8 117.9,244.3 152,278.4 165.3,278.4"/>
				<polyline points="238.4,370.4 238.4,456.1 231.8,462.8 231.8,468.5"/>
				<polyline points="229,370.4 229,450.5 216.7,462.8 216.7,468.5"/>
				<polyline points="224.3,370.4 224.3,447.6 209.1,462.8 209.1,468.5"/>
				<polyline points="257.1,468.5 257.1,462.8 243.2,448.9 243.2,370.4"/>
				<polyline points="247.9,370.4 247.9,446 264.6,462.8 264.6,468.5"/>
				<polyline points="205.4,224.1 205.4,157.1 224.2,138.2 224.2,122.4"/>
				<polyline points="210.1,224.1 210.1,159 231.8,137.4 231.8,122.4"/>
				<line x1="100.3" y1="375.1" x2="113.8" y2="375.1"/>
				<line x1="100.3" y1="351.1" x2="112.6" y2="351.1"/>
				<line x1="100.3" y1="339.2" x2="111.4" y2="339.2"/>
				<polyline points="20.4,381.1 38.3,363.1 53.1,363.1"/>
				<polyline points="20.4,333.2 38.3,351.1 53.1,351.1"/>
				<polyline points="252.6,370.4 252.6,443.2 272.2,462.8 272.2,468.5"/>
				<polyline points="257.3,370.4 257.3,440.4 279.7,462.8 279.7,468.5"/>
				<polyline points="165.3,292.5 146.4,292.5 121,317.9 121,435 113.3,442.7 113.3,468.5"/>
				<polyline points="391.7,277 381.7,277 376.7,272.1 323.8,272.1 322.2,273.6 311.6,273.6"/>
				<polyline points="391.7,284.6 384.1,284.6 375.2,275.7 325.3,275.7 322.6,278.4 311.6,278.4"/>
				<polyline points="391.7,269.5 379.2,269.5 378.2,268.5 322.3,268.5 321.9,268.9 311.6,268.9"/>
				<polyline points="257.3,224.1 257.3,194.5 298.4,153.5 348.7,153.5 360.5,141.7 360.5,122.4"/>
				<polyline points="311.6,287.8 323.3,287.8 328.3,282.9 367.6,282.9 378.6,293.9 378.6,312.5 383.5,317.4 391.7,317.4"/>
				<polyline points="311.6,292.5 323.7,292.5 329.8,286.5 365.5,286.5 375,296 375,314 386,325 391.7,325"/>
				<polyline points="262,224.1 262,194.9 299.8,157.1 350.2,157.1 368,139.2 368,122.4"/>
				<polyline points="266.8,224.1 266.8,195.9 302,160.7 351.7,160.7 375.6,136.7 375.6,122.4"/>
				<polyline points="311.6,283.1 323,283.1 326.8,279.3 371.5,279.3 382.2,290 382.2,305.6 386.5,309.9 391.7,309.9 "/>
				<polyline points="252.6,224.1 252.6,193.5 296.3,149.9 336.2,149.9 352.9,133.1 352.9,122.4"/>
				<line x1="120" y1="284.1" x2="114" y2="278.1"/>
				<polyline points="388.9,236.7 379.3,236.7 356.5,259.5 311.6,259.5"/>
				<polyline points="168.8,468.5 168.8,460 139,430.2 139,326.3 149.2,316.1 165.3,316.1"/>
				<polyline points="176.3,468.5 176.3,461.5 142.6,427.8 142.6,328.4 150.1,320.8 165.3,320.8"/>
				<polyline points="183.9,468.5 183.9,449.3 182.1,447.5 182.1,384.6 186.6,380.2 186.6,370.4"/>
				<polyline points="181.8,224.1 181.8,234.6 185.3,238.1 191.3,238.1 195.3,242.1"/>
				<polyline points="268.4,385.9 271.5,382.8 271.5,370.4"/>
				<polyline points="285.6,370.4 285.6,389.9 309.1,413.5 336.7,413.5 360.5,437.2 360.5,468.5"/>
				<polyline points="290.3,370.4 290.3,388.7 311.5,409.9 339.1,409.9 368,438.8 368,468.5"/>
				<line x1="75.5" y1="322.4" x2="86.4" y2="322.4"/>
				<polyline points="165.3,339.7 187,339.7 195,331.7"/>
				<polyline points="184.5,357.1 194.1,357.1 200.7,363.7 200.7,370.4"/>
				<polyline points="311.6,297.2 324.1,297.2 331.3,290 363.1,290 371,298 371,315.8 372.6,317.4 387.8,332.5"/>
				<polyline points="391.3,229.1 381.8,229.1 356.1,254.8 311.6,254.8"/>
				<polyline points="393.8,221.6 383.6,221.6 355.1,250.1 311.6,250.1"/>
				<polyline points="161.2,468.5 161.2,458.4 135.4,432.6 135.4,324.8 148.8,311.4 165.3,311.4"/>
				<polyline points="276.2,370.4 276.2,388.9 270.8,394.3 266,394.3"/>
				<polyline points="295,370.4 295,388.3 313,406.3 341.5,406.3 375.6,440.3 375.6,468.5"/>
				<polyline points="292.4,311.6 297.3,306.7 311.6,306.7"/>
				<polyline points="391.7,214 386.1,214 354.7,245.4 311.6,245.4"/>
				<polyline points="189.2,325.9 180.1,335 165.3,335"/>
				<polyline points="408.7,420.8 422,420.8 430.1,429 448.1,429"/>
				<polyline points="495.4,428.4 464,428.4 452.6,439.8 435.9,439.8 424.4,428.4 408.7,428.4"/>
				<polyline points="408.7,413.3 436.4,413.3 438.9,415.9 452.6,415.9 463.4,405.1 496.1,405.1"/>
				<polyline points="448.1,405.1 424.2,405.1 423.5,405.7 408.7,405.7"/>
				<polyline points="408.7,372.9 422,372.9 430.1,381.1 448.1,381.1"/>
				<polyline points="495.4,380.4 464,380.4 452.6,391.9 435.9,391.9 424.4,380.4 408.7,380.4"/>
				<polyline points="408.7,365.4 436.4,365.4 438.9,367.9 452.6,367.9 463.4,357.1 496.1,357.1"/>
				<polyline points="448.1,357.1 424.2,357.1 423.5,357.8 408.7,357.8"/>
				<polyline points="408.7,325 422,325 430.1,333.2 448.1,333.2"/>
				<polyline points="496.1,309.2 463.4,309.2 452.6,320 438.9,320 436.4,317.4 408.7,317.4"/>
				<polyline points="408.7,332.5 424.4,332.5 435.9,344 452.6,344 464,332.5 495.4,332.5"/>
				<polyline points="448.1,309.2 424.2,309.2 423.5,309.9 408.7,309.9"/>
				<polyline points="408.7,284.6 414.4,284.6 425.8,296 452.6,296 463.4,285.3 496.1,285.3"/>
				<line x1="447.5" y1="262" x2="408.7" y2="262"/>
				<polyline points="408.7,277 422,277 430.1,285.3 448.1,285.3"/>
				<polyline points="496.1,261.3 485.3,272.1 438.9,272.1 436.4,269.5 408.7,269.5"/>
				<polyline points="408.7,236.7 414.4,236.7 425.8,248.1 452.6,248.1 463.4,237.3 496.1,237.3"/>
				<polyline points="448.1,237.3 430.1,237.3 422,229.1 408.7,229.1"/>
				<line x1="408.7" y1="214" x2="447.5" y2="214"/>
				<polyline points="496.1,213.4 485.3,224.2 438.9,224.2 436.4,221.6 408.7,221.6"/>
				<polyline points="408.7,188.8 414.4,188.8 425.8,200.2 452.6,200.2 463.4,189.4 496.1,189.4"/>
				<polyline points="448.1,189.4 430.1,189.4 422,181.2 408.7,181.2"/>
				<line x1="408.7" y1="166.1" x2="447.5" y2="166.1"/>
				<polyline points="496.1,165.5 485.3,176.2 438.9,176.2 436.4,173.7 408.7,173.7"/>
				<line x1="112.6" y1="351.1" x2="113.8" y2="351.1"/>
				<polyline points="164.1,431.4 163.9,431.1 163.9,414.6 157,407.7 157,355.9 159.1,353.8 165.3,353.8"/>
				<polyline points="202.5,354.8 205.4,357.7 205.4,370.4"/>
				<polyline points="279,397.9 280.9,396 280.9,370.4"/>
				<polyline points="381,262.5 381.6,262 391.7,262"/>
				<polyline points="181.8,370.4 181.8,379.8 178.5,383.1 178.5,432 176.1,434.4 176.1,436.2"/>
				<polyline points="279.2,242.1 276.2,239.1 276.2,224.1"/>
				<polyline points="394.8,428.4 382.8,428.4 349.5,395.1 349.5,365.4 328.5,344.4 311.6,344.4"/>
				<polyline points="391.6,413.3 382,413.3 357.1,388.3 357.1,361.9 330.1,335 311.6,335"/>
				<polyline points="392.7,420.8 381.2,420.8 353,392.7 353,363.9 328.8,339.7 311.6,339.7"/>
				<polyline points="391.7,372.9 384.8,372.9 335.5,323.6 332.7,320.8 311.6,320.8"/>
				<polyline points="391.7,365.4 382.3,365.4 335.8,318.8 333.1,316.1 311.6,316.1"/>
				<polyline points="391.7,357.8 379.9,357.8 337.3,315.2 333.5,311.4 311.6,311.4"/>
				<polyline points="368,485.4 368,506.7 364.3,510.5 364.3,530.9 376.2,542.8 376.2,572.8"/>
				<polyline points="376.2,524.9 376.2,506.9 375.6,506.2 375.6,485.4"/>
				<polyline points="360.5,485.4 360.5,493.7 352.3,501.9 352.3,524.9"/>
				<polyline points="352.3,572.8 352.3,542.8 340.3,530.9 340.3,508.8 352.9,496.2 352.9,485.4"/>
				<polyline points="320.1,485.4 320.1,510.3 316.3,514.1 316.3,530.9 328.3,542.8 328.3,572.8"/>
				<polyline points="328.3,524.9 328.3,506.9 327.6,506.2 327.6,485.4"/>
				<polyline points="312.5,485.4 312.5,493.7 304.3,501.9 304.3,524.9"/>
				<polyline points="304.3,572.8 304.3,542.8 292.4,530.9 292.4,508.8 305,496.2 305,485.4"/>
				<polyline points="272.2,485.4 272.2,511.5 268.4,515.3 268.4,530.9 280.4,542.8 280.4,572.8"/>
				<polyline points="280.4,524.9 280.4,506.9 279.7,506.2 279.7,485.4"/>
				<polyline points="264.6,485.4 264.6,493.7 256.4,501.9 256.4,524.9"/>
				<polyline points="256.4,572.8 256.4,542.8 244.4,530.9 244.4,508.8 257.1,496.2 257.1,485.4"/>
				<line x1="232.4" y1="524.9" x2="232.4" y2="491.8"/>
				<polyline points="216.7,485.4 216.7,499.9 208.5,508.1 208.5,524.9"/>
				<polyline points="232.4,572.8 232.4,542.8 220.5,530.9 220.5,514.1 224.2,510.3 224.2,485.4"/>
				<polyline points="209.1,485.4 209.1,502.4 196.5,515 196.5,530.9 209.1,543.5 209.1,572.1"/>
				<line x1="184.5" y1="491.8" x2="184.5" y2="524.9"/>
				<polyline points="161.2,572.1 161.2,542.3 148.6,529.7 148.6,512.9 161.2,500.2 161.2,485.4"/>
				<polyline points="176.3,485.4 176.3,500.7 172.5,504.5 172.5,530.9 184.5,542.8 184.5,572.8"/>
				<polyline points="160.6,524.9 160.6,508.1 168.8,499.9 168.8,485.4"/>
				<line x1="136.6" y1="491.8" x2="136.6" y2="524.9"/>
				<polyline points="136.6,572.8 136.6,541.6 124.6,529.7 124.6,510.5 128.4,506.7 128.4,485.4"/>
				<polyline points="113.3,485.4 113.3,502.4 100.7,515 100.7,529.7 113.3,542.3 113.3,572.1"/>
				<polyline points="112.6,524.9 112.6,508.1 120.8,499.9 120.8,485.4"/>
				<polyline points="120.8,105.4 120.8,85.4 124.6,81.6 124.6,63.6 112.6,51.6 112.6,21.7"/>
				<line x1="113.3" y1="70.3" x2="113.3" y2="105.4"/>
				<polyline points="128.4,105.4 128.4,93.4 136.6,85.2 136.6,69.6"/>
				<polyline points="136.6,21.7 136.6,51.6 148.6,63.6 148.6,81.6 135.9,94.2 135.9,105.4"/>
				<polyline points="161.2,105.4 161.2,89.4 160.6,88.8 160.6,69.6"/>
				<polyline points="160.6,21.7 160.6,51.6 172.5,63.6 172.5,81.6 168.8,85.4 168.8,105.4"/>
				<polyline points="183.9,105.4 183.9,94.2 196.5,81.6 196.5,63.6 183.9,51 183.9,22.3"/>
				<polyline points="184.5,69.6 184.5,85.2 176.3,93.4 176.3,105.4"/>
				<polyline points="209.1,105.4 209.1,97.9 208.5,97.2 208.5,69.6"/>
				<polyline points="232.4,21.7 232.4,49.2 244.4,61.2 244.4,86.4 231.8,99 231.8,105.4"/>
				<polyline points="216.7,105.4 216.7,84.2 220.5,80.4 220.5,60 208.5,48 208.5,21.7"/>
				<polyline points="232.4,69.6 232.4,91.6 224.2,99.8 224.2,105.4"/>
				<polyline points="257.1,105.4 257.1,99.8 256.4,99.1 256.4,69.6"/>
				<polyline points="256.4,21.7 256.4,49.2 268.4,61.2 268.4,79.3 264.6,83.1 264.6,105.4"/>
				<polyline points="279.7,105.4 279.7,92.6 292.4,80 292.4,57.6 279.7,45 279.7,22.3"/>
				<polyline points="280.4,69.6 280.4,85.2 272.2,93.4 272.2,105.4"/>
				<polyline points="312.5,105.4 312.5,81.4 316.3,77.6 316.3,62.4 304.3,50.4 304.3,21.7"/>
				<line x1="305" y1="70.3" x2="305" y2="105.4"/>
				<polyline points="320.1,105.4 320.1,95.8 328.3,87.6 328.3,69.6"/>
				<polyline points="328.3,21.7 328.3,48 340.3,60 340.3,80.7 327.6,93.3 327.6,105.4"/>
				<polyline points="360.5,105.4 360.5,81.4 364.3,77.6 364.3,61.2 352.3,49.2 352.3,21.7"/>
				<line x1="352.9" y1="70.3" x2="352.9" y2="105.4"/>
				<polyline points="368,105.4 368,95.8 376.2,87.6 376.2,69.6"/>
				<polyline points="376.2,21.7 376.2,49.2 388.2,61.2 388.2,80.7 375.6,93.3 375.6,105.4"/>
				<polyline points="183.3,320 183.3,323.3 176.4,330.3 176.4,330.3 165.3,330.3"/>
				<polyline points="280.4,211 280.9,211.5 280.9,224.1"/>
				<polyline points="311.6,330.3 312.1,330.8 331.9,330.8 331.9,331 361.2,360.2 361.2,385.2 381.7,405.7 389.2,405.7 "/>
				<line x1="337.3" y1="315.2" x2="337.3" y2="315.2"/>
				<line x1="335.8" y1="318.8" x2="335.8" y2="318.8"/>
				<line x1="331.9" y1="331" x2="331.9" y2="330.8"/>
				<line x1="372.6" y1="317.4" x2="372.6" y2="317.4"/>
				<polyline points="195.3,422.1 195.3,411.2 201.5,405 201.5,386.9 207.3,381.1 212.1,381.1 214.9,378.3 214.9,370.4 "/>
				<polyline points="88.7,154.7 89.9,154.7 91.1,153.5 111.4,153.5"/>
				<polyline points="219.6,370.4 219.6,386.8 214.6,391.8 214.6,393.1 206.3,401.4 206.3,414.8 208.5,417.1 208.5,422.2"/>
			</g>
			<g class="st4">
				<polyline points="53.1,375.1 67.1,375.1 74.3,367.9 74.3,285.3 102.9,256.7 102.9,248.1"/>
				<line x1="16.8" y1="285.3" x2="46.7" y2="285.3"/>
				<polyline points="132.9,278.1 102.9,248.1 92.1,237.3 16.8,237.3"/>
				<line x1="402.6" y1="115.1" x2="424.2" y2="93.6"/>
				<line x1="400.2" y1="476.9" x2="424.2" y2="500.9"/>
			</g>
		</g>
	</g>
	<g>
		<g class="st5">
			<g class="st6">
				<path d="M115,339.2c0-2-1.6-3.5-3.5-3.5s-3.5,1.6-3.5,3.5c0,2,1.6,3.5,3.5,3.5S115,341.1,115,339.2"/>
				<path d="M268.3,238.5c0-1.9-1.6-3.5-3.5-3.5c-2,0-3.5,1.6-3.5,3.5s1.6,3.5,3.5,3.5C266.8,242.1,268.3,240.5,268.3,238.5"/>
				<path d="M295.9,293.6c0-2-1.6-3.5-3.5-3.5c-2,0-3.5,1.6-3.5,3.5c0,2,1.6,3.5,3.5,3.5C294.3,297.2,295.9,295.6,295.9,293.6"/>
				<path d="M174.9,370.3c0-2-1.6-3.5-3.5-3.5s-3.5,1.6-3.5,3.5s1.6,3.5,3.5,3.5C173.3,373.9,174.9,372.3,174.9,370.3"/>
				<path d="M116.2,351.1c0-2-1.6-3.5-3.5-3.5s-3.5,1.6-3.5,3.5s1.6,3.5,3.5,3.5C114.6,354.7,116.2,353.1,116.2,351.1"/>
				<path d="M166.3,431.4c0-1.2-0.9-2.1-2.1-2.1s-2.1,1-2.1,2.1c0,1.2,0.9,2.1,2.1,2.1S166.3,432.6,166.3,431.4"/>
				<path d="M281.3,417c0-1.2-1-2.1-2.1-2.1c-1.2,0-2.1,1-2.1,2.1c0,1.2,1,2.1,2.1,2.1C280.4,419.2,281.3,418.2,281.3,417"/>
				<path d="M281.3,426.6c0-1.2-1-2.1-2.1-2.1c-1.2,0-2.1,1-2.1,2.1c0,1.2,1,2.1,2.1,2.1C280.4,428.8,281.3,427.8,281.3,426.6"/>
				<path d="M286.1,431.4c0-1.2-1-2.1-2.1-2.1c-1.2,0-2.1,1-2.1,2.1c0,1.2,1,2.1,2.1,2.1S286.1,432.6,286.1,431.4"/>
				<path d="M281.3,436.2c0-1.2-1-2.1-2.1-2.1c-1.2,0-2.1,1-2.1,2.1c0,1.2,1,2.1,2.1,2.1C280.4,438.3,281.3,437.4,281.3,436.2"/>
				<path d="M161.5,426.6c0-1.2-0.9-2.1-2.1-2.1s-2.1,1-2.1,2.1c0,1.2,0.9,2.1,2.1,2.1S161.5,427.8,161.5,426.6"/>
				<path d="M156.7,421.8c0-1.2-0.9-2.1-2.1-2.1s-2.1,1-2.1,2.1c0,1.2,0.9,2.1,2.1,2.1S156.7,423,156.7,421.8"/>
				<path d="M151.9,417c0-1.2-0.9-2.1-2.1-2.1s-2.1,1-2.1,2.1c0,1.2,0.9,2.1,2.1,2.1C150.9,419.2,151.9,418.2,151.9,417"/>
				<path d="M282.5,211c0-1.2-1-2.1-2.1-2.1s-2.1,0.9-2.1,2.1s1,2.1,2.1,2.1S282.5,212.2,282.5,211"/>
				<path d="M286.1,421.8c0-1.2-1-2.1-2.1-2.1c-1.2,0-2.1,1-2.1,2.1c0,1.2,1,2.1,2.1,2.1S286.1,423,286.1,421.8"/>
				<path d="M199.6,242.1c0-2.4-1.9-4.3-4.3-4.3s-4.3,1.9-4.3,4.3s1.9,4.3,4.3,4.3C197.6,246.4,199.6,244.5,199.6,242.1"/>
				<path d="M296.6,311.6c0-2.4-1.9-4.3-4.3-4.3s-4.3,1.9-4.3,4.3s1.9,4.3,4.3,4.3S296.6,314,296.6,311.6"/>
				<path d="M206.7,354.8c0-2.4-1.9-4.3-4.3-4.3s-4.3,1.9-4.3,4.3s1.9,4.3,4.3,4.3C204.8,359,206.7,357.1,206.7,354.8"/>
				<path d="M283.4,242.1c0-2.4-1.9-4.3-4.3-4.3s-4.3,1.9-4.3,4.3s1.9,4.3,4.3,4.3S283.4,244.5,283.4,242.1"/>
				<path d="M122.3,284.1c0-1.3-1.1-2.4-2.4-2.4s-2.4,1.1-2.4,2.4s1.1,2.4,2.4,2.4C121.3,286.4,122.3,285.4,122.3,284.1"/>
				<path d="M282.6,397.9c0-2-1.6-3.5-3.5-3.5c-2,0-3.5,1.6-3.5,3.5s1.6,3.5,3.5,3.5S282.6,399.8,282.6,397.9"/>
				<path d="M269.5,394.3c0-2-1.6-3.5-3.5-3.5s-3.5,1.6-3.5,3.5c0,2,1.6,3.5,3.5,3.5S269.5,396.2,269.5,394.3"/>
				<path d="M271.9,385.9c0-2-1.6-3.5-3.5-3.5c-2,0-3.5,1.6-3.5,3.5s1.6,3.5,3.5,3.5C270.4,389.4,271.9,387.9,271.9,385.9"/>
				<path d="M188.1,357.1c0-2-1.6-3.5-3.5-3.5s-3.5,1.6-3.5,3.5c0,2,1.6,3.5,3.5,3.5C186.5,360.7,188.1,359.1,188.1,357.1"/>
				<path d="M117.4,375.1c0-2-1.6-3.5-3.5-3.5s-3.5,1.6-3.5,3.5c0,2,1.6,3.5,3.5,3.5S117.4,377.1,117.4,375.1"/>
				<path d="M383.1,262.5c0-1.2-1-2.1-2.1-2.1s-2.1,1-2.1,2.1c0,1.2,1,2.1,2.1,2.1S383.1,263.7,383.1,262.5"/>
				<path d="M112.1,246.9c0-2.4-1.9-4.3-4.3-4.3s-4.3,1.9-4.3,4.3s1.9,4.3,4.3,4.3S112.1,249.3,112.1,246.9"/>
				<path d="M198.6,331.7c0-2-1.6-3.5-3.5-3.5s-3.5,1.6-3.5,3.5c0,2,1.6,3.5,3.5,3.5S198.6,333.7,198.6,331.7"/>
				<path d="M186.9,320c0-2-1.6-3.5-3.5-3.5s-3.5,1.6-3.5,3.5c0,2,1.6,3.5,3.5,3.5S186.9,322,186.9,320"/>
				<path d="M192.7,325.9c0-2-1.6-3.5-3.5-3.5s-3.5,1.6-3.5,3.5c0,2,1.6,3.5,3.5,3.5C191.1,329.4,192.7,327.8,192.7,325.9"/>
				<path d="M170.6,224.2c0-1.6-1.3-2.9-2.9-2.9c-1.6,0-2.9,1.3-2.9,2.9c0,1.6,1.3,2.9,2.9,2.9C169.3,227,170.6,225.7,170.6,224.2"/>
				<path d="M92.2,154.7c0-1.9-1.6-3.5-3.5-3.5s-3.5,1.6-3.5,3.5s1.6,3.5,3.5,3.5S92.2,156.6,92.2,154.7"/>
				<path d="M115,153.5c0-1.9-1.6-3.5-3.5-3.5s-3.5,1.6-3.5,3.5s1.6,3.5,3.5,3.5S115,155.4,115,153.5"/>
				<path d="M178.3,436.2c0-1.2-0.9-2.1-2.1-2.1s-2.1,1-2.1,2.1c0,1.2,0.9,2.1,2.1,2.1C177.3,438.3,178.3,437.4,178.3,436.2"/>
				<path d="M197.4,442.2c0-1.2-0.9-2.1-2.1-2.1s-2.1,1-2.1,2.1c0,1.2,0.9,2.1,2.1,2.1C196.5,444.3,197.4,443.4,197.4,442.2"/>
				<path d="M210.6,442.2c0-1.2-0.9-2.1-2.1-2.1s-2.1,1-2.1,2.1c0,1.2,0.9,2.1,2.1,2.1S210.6,443.4,210.6,442.2"/>
			</g>
		</g>
	</g>
	<g>
		<path class="st7" d="M98.7,584.3c1.8,1.8,4.2,2.8,6.8,2.8h278l0,0c2.5,0,5-1,6.8-2.8l115-115l0,0c1.8-1.8,2.8-4.2,2.8-6.8V131.9c0-2.5-1-5-2.8-6.8l0,0l-115-115l0,0c-1.8-1.8-4.2-2.8-6.8-2.8h-278l0,0c-2.5,0-5,1-6.8,2.8l0,0L4,104.8c-1.8,1.8-2.8,4.2-2.8,6.8V483l0,0c0,2.5,1,5,2.8,6.8L98.7,584.3"/>
	</g>
	<g>
		<g class="st8">
			<line x1="135.9" y1="491.1" x2="136.6" y2="491.8"/>
			<line x1="135.9" y1="491.1" x2="135.9" y2="485.4"/>
			<line x1="183.9" y1="491.1" x2="184.5" y2="491.8"/>
			<line x1="183.9" y1="491.1" x2="183.9" y2="485.4"/>
			<line x1="231.8" y1="491.1" x2="232.4" y2="491.8"/>
			<line x1="231.8" y1="491.1" x2="231.8" y2="485.4"/>
			<line x1="391.7" y1="381" x2="391.8" y2="381.1"/>
			<line x1="391.7" y1="381" x2="391.7" y2="380.4"/>
		</g>
		<g class="st9">
			<rect x="46" y="371.3" width="14.2" height="7.5"/>
			<rect x="46" y="335.4" width="14.2" height="7.5"/>
			<rect x="111.2" y="484.5" width="4.2" height="9"/>
			<rect x="111.2" y="467.6" width="4.2" height="9"/>
			<rect x="110.2" y="272.2" width="7.6" height="11.8"/>
			<rect x="111.2" y="117.9" width="4.2" height="9"/>
			<rect x="111.2" y="101" width="4.2" height="9"/>
			<rect x="126.3" y="484.5" width="4.3" height="9"/>
			<rect x="133.8" y="484.5" width="4.2" height="9"/>
			<rect x="126.3" y="467.6" width="4.3" height="9"/>
			<rect x="133.8" y="467.6" width="4.2" height="9"/>
			<rect x="129.1" y="272.2" width="7.6" height="11.8"/>
			<rect x="133.8" y="117.9" width="4.2" height="9"/>
			<rect x="126.3" y="117.9" width="4.3" height="9"/>
			<rect x="133.8" y="101" width="4.2" height="9"/>
			<rect x="126.3" y="101" width="4.3" height="9"/>
			<rect x="166.6" y="484.5" width="4.3" height="9"/>
			<rect x="174.2" y="484.5" width="4.3" height="9"/>
			<rect x="166.6" y="467.6" width="4.3" height="9"/>
			<rect x="174.2" y="467.6" width="4.3" height="9"/>
			<rect x="174.2" y="117.9" width="4.3" height="9"/>
			<rect x="166.6" y="117.9" width="4.3" height="9"/>
			<rect x="174.2" y="101" width="4.3" height="9"/>
			<rect x="166.6" y="101" width="4.3" height="9"/>
			<rect x="181.7" y="484.5" width="4.2" height="9"/>
			<rect x="181.7" y="467.6" width="4.2" height="9"/>
			<rect x="181.7" y="117.9" width="4.2" height="9"/>
			<rect x="181.7" y="101" width="4.2" height="9"/>
			<rect x="207" y="484.5" width="4.2" height="9"/>
			<rect x="207" y="467.6" width="4.2" height="9"/>
			<rect x="204.5" y="434.9" width="8" height="6.6"/>
			<rect x="207" y="117.9" width="4.2" height="9"/>
			<rect x="207" y="101" width="4.2" height="9"/>
			<rect x="222.1" y="484.5" width="4.3" height="9"/>
			<rect x="229.7" y="484.5" width="4.2" height="9"/>
			<rect x="222.1" y="467.6" width="4.3" height="9"/>
			<rect x="229.7" y="467.6" width="4.2" height="9"/>
			<rect x="229.7" y="117.9" width="4.2" height="9"/>
			<rect x="222.1" y="117.9" width="4.3" height="9"/>
			<rect x="229.7" y="101" width="4.2" height="9"/>
			<rect x="222.1" y="101" width="4.3" height="9"/>
			<rect x="262.5" y="484.5" width="4.3" height="9"/>
			<rect x="270" y="484.5" width="4.3" height="9"/>
			<rect x="262.5" y="467.6" width="4.3" height="9"/>
			<rect x="270" y="467.6" width="4.3" height="9"/>
			<rect x="270" y="117.9" width="4.3" height="9"/>
			<rect x="262.5" y="117.9" width="4.3" height="9"/>
			<rect x="270" y="101" width="4.3" height="9"/>
			<rect x="262.5" y="101" width="4.3" height="9"/>
			<rect x="277.6" y="484.5" width="4.2" height="9"/>
			<rect x="277.6" y="467.6" width="4.2" height="9"/>
			<rect x="277.6" y="117.9" width="4.2" height="9"/>
			<rect x="277.6" y="101" width="4.2" height="9"/>
			<rect x="302.9" y="484.5" width="4.2" height="9"/>
			<rect x="302.9" y="467.6" width="4.2" height="9"/>
			<rect x="302.9" y="117.9" width="4.2" height="9"/>
			<rect x="302.9" y="101" width="4.2" height="9"/>
			<rect x="318" y="484.5" width="4.3" height="9"/>
			<rect x="325.5" y="484.5" width="4.2" height="9"/>
			<rect x="318" y="467.6" width="4.3" height="9"/>
			<rect x="325.5" y="467.6" width="4.2" height="9"/>
			<rect x="325.5" y="117.9" width="4.2" height="9"/>
			<rect x="318" y="117.9" width="4.3" height="9"/>
			<rect x="325.5" y="101" width="4.2" height="9"/>
			<rect x="318" y="101" width="4.3" height="9"/>
			<rect x="358.4" y="484.5" width="4.3" height="9"/>
			<rect x="365.9" y="484.5" width="4.3" height="9"/>
			<rect x="358.4" y="467.6" width="4.3" height="9"/>
			<rect x="365.9" y="467.6" width="4.3" height="9"/>
			<rect x="365.9" y="117.9" width="4.3" height="9"/>
			<rect x="358.4" y="117.9" width="4.3" height="9"/>
			<rect x="365.9" y="101" width="4.3" height="9"/>
			<rect x="358.4" y="101" width="4.3" height="9"/>
			<rect x="373.5" y="484.5" width="4.2" height="9"/>
			<rect x="373.5" y="467.6" width="4.2" height="9"/>
			<rect x="373.5" y="117.9" width="4.2" height="9"/>
			<rect x="373.5" y="101" width="4.2" height="9"/>
			<rect x="46" y="359.4" width="14.2" height="7.5"/>
			<rect x="46" y="347.4" width="14.2" height="7.5"/>
			<rect x="204.5" y="418.9" width="8" height="6.6"/>
			<rect x="93.2" y="371.3" width="14.2" height="7.5"/>
			<rect x="93.2" y="335.4" width="14.2" height="7.5"/>
			<rect x="78.8" y="214" width="10.4" height="13.2"/>
			<rect x="92.9" y="214" width="10.4" height="13.2"/>
			<rect x="159.1" y="484.5" width="4.2" height="9"/>
			<rect x="118.7" y="484.5" width="4.3" height="9"/>
			<rect x="159.1" y="467.6" width="4.2" height="9"/>
			<rect x="118.7" y="467.6" width="4.3" height="9"/>
			<rect x="159.1" y="117.9" width="4.2" height="9"/>
			<rect x="118.7" y="117.9" width="4.3" height="9"/>
			<rect x="159.1" y="101" width="4.2" height="9"/>
			<rect x="118.7" y="101" width="4.3" height="9"/>
			<rect x="254.9" y="484.5" width="4.2" height="9"/>
			<rect x="214.6" y="484.5" width="4.3" height="9"/>
			<rect x="254.9" y="467.6" width="4.2" height="9"/>
			<rect x="214.6" y="467.6" width="4.3" height="9"/>
			<rect x="191.3" y="434.9" width="8" height="6.6"/>
			<rect x="208.4" y="386.6" width="12.3" height="10.4"/>
			<rect x="214.6" y="117.9" width="4.3" height="9"/>
			<rect x="255" y="117.9" width="4.2" height="9"/>
			<rect x="214.6" y="101" width="4.3" height="9"/>
			<rect x="255" y="101" width="4.2" height="9"/>
			<rect x="310.4" y="484.5" width="4.3" height="9"/>
			<rect x="310.4" y="467.6" width="4.3" height="9"/>
			<rect x="310.4" y="117.9" width="4.3" height="9"/>
			<rect x="310.4" y="101" width="4.3" height="9"/>
			<rect x="350.8" y="484.5" width="4.2" height="9"/>
			<rect x="350.8" y="467.6" width="4.2" height="9"/>
			<rect x="404.2" y="426.2" width="9" height="4.2"/>
			<rect x="387.2" y="426.2" width="9" height="4.2"/>
			<rect x="404.2" y="418.7" width="9" height="4.2"/>
			<rect x="404.2" y="411.1" width="9" height="4.2"/>
			<rect x="387.2" y="418.7" width="9" height="4.2"/>
			<rect x="387.2" y="411.1" width="9" height="4.2"/>
			<rect x="404.2" y="378.3" width="9" height="4.2"/>
			<rect x="404.2" y="370.8" width="9" height="4.2"/>
			<rect x="387.2" y="378.3" width="9" height="4.2"/>
			<rect x="387.2" y="370.8" width="9" height="4.2"/>
			<rect x="404.2" y="355.7" width="9" height="4.2"/>
			<rect x="387.2" y="355.7" width="9" height="4.2"/>
			<rect x="404.2" y="330.4" width="9" height="4.2"/>
			<rect x="387.2" y="330.4" width="9" height="4.2"/>
			<rect x="404.2" y="322.9" width="9" height="4.2"/>
			<rect x="404.2" y="315.3" width="9" height="4.2"/>
			<rect x="387.2" y="322.9" width="9" height="4.2"/>
			<rect x="387.2" y="315.3" width="9" height="4.2"/>
			<rect x="404.2" y="282.5" width="9" height="4.2"/>
			<rect x="404.2" y="274.9" width="9" height="4.2"/>
			<rect x="387.2" y="282.5" width="9" height="4.2"/>
			<rect x="387.2" y="274.9" width="9" height="4.2"/>
			<rect x="404.2" y="259.8" width="9" height="4.2"/>
			<rect x="387.2" y="259.8" width="9" height="4.2"/>
			<rect x="404.2" y="234.5" width="9" height="4.2"/>
			<rect x="387.2" y="234.6" width="9" height="4.2"/>
			<rect x="404.2" y="227" width="9" height="4.2"/>
			<rect x="404.2" y="219.5" width="9" height="4.2"/>
			<rect x="387.2" y="227" width="9" height="4.2"/>
			<rect x="387.2" y="219.5" width="9" height="4.2"/>
			<rect x="404.2" y="186.6" width="9" height="4.2"/>
			<rect x="404.2" y="179.1" width="9" height="4.2"/>
			<rect x="387.2" y="186.6" width="9" height="4.2"/>
			<rect x="387.2" y="179.1" width="9" height="4.2"/>
			<rect x="404.2" y="164" width="9" height="4.2"/>
			<rect x="387.2" y="164" width="9" height="4.2"/>
			<rect x="350.8" y="117.9" width="4.2" height="9"/>
			<rect x="350.8" y="101" width="4.2" height="9"/>
			<rect x="93.2" y="359.4" width="14.2" height="7.5"/>
			<rect x="93.2" y="347.4" width="14.2" height="7.5"/>
			<rect x="81.2" y="315.8" width="10.4" height="13.2"/>
			<rect x="95.3" y="315.8" width="10.4" height="13.2"/>
			<rect x="208.4" y="403.6" width="12.3" height="10.4"/>
			<rect x="191.3" y="418.8" width="8" height="6.6"/>
			<rect x="404.2" y="403.6" width="9" height="4.2"/>
			<rect x="387.2" y="403.6" width="9" height="4.2"/>
			<rect x="404.2" y="363.2" width="9" height="4.2"/>
			<rect x="387.2" y="363.2" width="9" height="4.2"/>
			<rect x="404.2" y="307.8" width="9" height="4.2"/>
			<rect x="387.2" y="307.8" width="9" height="4.2"/>
			<rect x="404.2" y="211.9" width="9" height="4.2"/>
			<rect x="387.2" y="211.9" width="9" height="4.2"/>
			<rect x="404.2" y="267.4" width="9" height="4.2"/>
			<rect x="387.2" y="267.4" width="9" height="4.2"/>
			<rect x="404.2" y="171.5" width="9" height="4.2"/>
			<rect x="387.2" y="171.5" width="9" height="4.2"/>
			<rect x="186.7" y="386.6" width="12.3" height="10.4"/>
			<rect x="186.7" y="403.6" width="12.3" height="10.4"/>
		</g>
		<g class="st10">
			<line x1="181.8" y1="229.8" x2="181.8" y2="218.5"/>
			<line x1="186.6" y1="229.8" x2="186.6" y2="218.5"/>
			<line x1="191.3" y1="229.8" x2="191.3" y2="218.5"/>
			<line x1="196" y1="229.8" x2="196" y2="218.5"/>
			<line x1="200.7" y1="229.8" x2="200.7" y2="218.5"/>
			<line x1="205.4" y1="229.8" x2="205.4" y2="218.5"/>
			<line x1="210.1" y1="229.8" x2="210.1" y2="218.5"/>
			<line x1="214.9" y1="229.8" x2="214.9" y2="218.5"/>
			<line x1="224.3" y1="229.8" x2="224.3" y2="218.5"/>
			<line x1="229" y1="229.8" x2="229" y2="218.5"/>
			<line x1="233.7" y1="229.8" x2="233.7" y2="218.5"/>
			<line x1="243.2" y1="229.8" x2="243.2" y2="218.5"/>
			<line x1="247.9" y1="229.8" x2="247.9" y2="218.5"/>
			<line x1="252.6" y1="229.8" x2="252.6" y2="218.5"/>
			<line x1="262" y1="229.8" x2="262" y2="218.5"/>
			<line x1="266.8" y1="229.8" x2="266.8" y2="218.5"/>
			<line x1="271.5" y1="229.8" x2="271.5" y2="218.5"/>
			<line x1="280.9" y1="229.8" x2="280.9" y2="218.5"/>
			<line x1="285.6" y1="229.8" x2="285.6" y2="218.5"/>
			<line x1="290.3" y1="229.8" x2="290.3" y2="218.5"/>
			<line x1="196" y1="376" x2="196" y2="364.7"/>
			<line x1="191.3" y1="376" x2="191.3" y2="364.7"/>
			<line x1="186.6" y1="376" x2="186.6" y2="364.7"/>
			<line x1="181.8" y1="376" x2="181.8" y2="364.7"/>
			<line x1="214.9" y1="376" x2="214.9" y2="364.7"/>
			<line x1="210.1" y1="376" x2="210.1" y2="364.7"/>
			<line x1="205.4" y1="376" x2="205.4" y2="364.7"/>
			<line x1="200.7" y1="376" x2="200.7" y2="364.7"/>
			<line x1="233.7" y1="376" x2="233.7" y2="364.7"/>
			<line x1="229" y1="376" x2="229" y2="364.7"/>
			<line x1="224.3" y1="376" x2="224.3" y2="364.7"/>
			<line x1="252.6" y1="376" x2="252.6" y2="364.7"/>
			<line x1="247.9" y1="376" x2="247.9" y2="364.7"/>
			<line x1="243.2" y1="376" x2="243.2" y2="364.7"/>
			<line x1="271.5" y1="376" x2="271.5" y2="364.7"/>
			<line x1="266.8" y1="376" x2="266.8" y2="364.7"/>
			<line x1="262" y1="376" x2="262" y2="364.7"/>
			<line x1="290.3" y1="376" x2="290.3" y2="364.7"/>
			<line x1="285.6" y1="376" x2="285.6" y2="364.7"/>
			<line x1="280.9" y1="376" x2="280.9" y2="364.7"/>
			<line x1="159.7" y1="353.8" x2="171" y2="353.8"/>
			<line x1="159.7" y1="344.4" x2="171" y2="344.4"/>
			<line x1="159.7" y1="339.7" x2="171" y2="339.7"/>
			<line x1="159.7" y1="335" x2="171" y2="335"/>
			<line x1="159.7" y1="330.3" x2="171" y2="330.3"/>
			<line x1="159.7" y1="325.5" x2="171" y2="325.5"/>
			<line x1="159.7" y1="320.8" x2="171" y2="320.8"/>
			<line x1="159.7" y1="316.1" x2="171" y2="316.1"/>
			<line x1="159.7" y1="311.4" x2="171" y2="311.4"/>
			<line x1="159.7" y1="306.7" x2="171" y2="306.7"/>
			<line x1="159.7" y1="302" x2="171" y2="302"/>
			<line x1="159.7" y1="297.2" x2="171" y2="297.2"/>
			<line x1="159.7" y1="292.5" x2="171" y2="292.5"/>
			<line x1="159.7" y1="287.8" x2="171" y2="287.8"/>
			<line x1="159.7" y1="283.1" x2="171" y2="283.1"/>
			<line x1="159.7" y1="278.4" x2="171" y2="278.4"/>
			<line x1="159.7" y1="273.6" x2="171" y2="273.6"/>
			<line x1="159.7" y1="268.9" x2="171" y2="268.9"/>
			<line x1="159.7" y1="264.2" x2="171" y2="264.2"/>
			<line x1="159.7" y1="259.5" x2="171" y2="259.5"/>
			<line x1="159.7" y1="254.8" x2="171" y2="254.8"/>
			<line x1="159.7" y1="245.4" x2="171" y2="245.4"/>
			<line x1="159.7" y1="240.6" x2="171" y2="240.6"/>
			<line x1="219.6" y1="229.8" x2="219.6" y2="218.5"/>
			<line x1="238.4" y1="229.8" x2="238.4" y2="218.5"/>
			<line x1="257.3" y1="229.8" x2="257.3" y2="218.5"/>
			<line x1="305.9" y1="353.8" x2="317.2" y2="353.8"/>
			<line x1="305.9" y1="330.3" x2="317.2" y2="330.3"/>
			<line x1="305.9" y1="335" x2="317.2" y2="335"/>
			<line x1="305.9" y1="339.7" x2="317.2" y2="339.7"/>
			<line x1="305.9" y1="344.4" x2="317.2" y2="344.4"/>
			<line x1="305.9" y1="311.4" x2="317.2" y2="311.4"/>
			<line x1="305.9" y1="316.1" x2="317.2" y2="316.1"/>
			<line x1="305.9" y1="320.8" x2="317.2" y2="320.8"/>
			<line x1="305.9" y1="325.5" x2="317.2" y2="325.5"/>
			<line x1="305.9" y1="292.5" x2="317.2" y2="292.5"/>
			<line x1="305.9" y1="297.2" x2="317.2" y2="297.2"/>
			<line x1="305.9" y1="302" x2="317.2" y2="302"/>
			<line x1="305.9" y1="306.7" x2="317.2" y2="306.7"/>
			<line x1="305.9" y1="273.6" x2="317.2" y2="273.6"/>
			<line x1="305.9" y1="278.4" x2="317.2" y2="278.4"/>
			<line x1="305.9" y1="283.1" x2="317.2" y2="283.1"/>
			<line x1="305.9" y1="287.8" x2="317.2" y2="287.8"/>
			<line x1="305.9" y1="254.8" x2="317.2" y2="254.8"/>
			<line x1="305.9" y1="259.5" x2="317.2" y2="259.5"/>
			<line x1="305.9" y1="264.2" x2="317.2" y2="264.2"/>
			<line x1="305.9" y1="268.9" x2="317.2" y2="268.9"/>
			<line x1="305.9" y1="240.6" x2="317.2" y2="240.6"/>
			<line x1="305.9" y1="245.4" x2="317.2" y2="245.4"/>
			<line x1="276.2" y1="229.8" x2="276.2" y2="218.5"/>
			<line x1="295" y1="229.8" x2="295" y2="218.5"/>
			<line x1="159.7" y1="349.1" x2="171" y2="349.1"/>
			<line x1="159.7" y1="250.1" x2="171" y2="250.1"/>
			<line x1="257.3" y1="376" x2="257.3" y2="364.7"/>
			<line x1="238.4" y1="376" x2="238.4" y2="364.7"/>
			<line x1="219.6" y1="376" x2="219.6" y2="364.7"/>
			<line x1="295" y1="376" x2="295" y2="364.7"/>
			<line x1="276.2" y1="376" x2="276.2" y2="364.7"/>
			<line x1="305.9" y1="349.1" x2="317.2" y2="349.1"/>
			<line x1="305.9" y1="250.1" x2="317.2" y2="250.1"/>
		</g>
		<circle class="st11" cx="64.7" cy="93.6" r="17.9"/>
		<circle class="st11" cx="424.2" cy="93.6" r="17.9"/>
		<circle class="st11" cx="64.7" cy="500.9" r="17.9"/>
		<circle class="st11" cx="424.2" cy="500.9" r="17.9"/>
	</g>
	<g>
		<line class="st12" x1="221.7" y1="382.3" x2="225.3" y2="382.3"/>
		<line class="st12" x1="225.3" y1="385.9" x2="225.3" y2="382.3"/>
		<g class="st13">
			<line x1="196.5" y1="581.2" x2="196.5" y2="512.9"/>
			<line x1="292.4" y1="581.2" x2="292.4" y2="512.9"/>
			<line x1="196.5" y1="81.6" x2="196.5" y2="13.3"/>
			<line x1="292.4" y1="81.6" x2="292.4" y2="13.3"/>
			<line x1="436.1" y1="345.2" x2="504.4" y2="345.2"/>
			<line x1="436.1" y1="249.3" x2="504.4" y2="249.3"/>
			<line x1="165.4" y1="409.9" x2="179.7" y2="400.3"/>
			<line x1="165.4" y1="400.3" x2="179.7" y2="409.9"/>
		</g>
		<g class="st14">
		</g>
		<g class="st15">
			<line x1="192.2" y1="431.1" x2="192.2" y2="429.2"/>
			<line x1="211.6" y1="431.2" x2="211.6" y2="429.3"/>
			<line x1="205.4" y1="431.2" x2="205.4" y2="429.3"/>
			<line x1="61.6" y1="380.7" x2="61.6" y2="333.6"/>
			<line x1="91.8" y1="380.7" x2="91.8" y2="333.6"/>
			<line x1="176.2" y1="359.5" x2="176.2" y2="235"/>
			<line x1="300.7" y1="359.5" x2="300.7" y2="235"/>
			<line x1="61.6" y1="380.7" x2="91.8" y2="380.7"/>
			<line x1="61.6" y1="333.6" x2="91.8" y2="333.6"/>
			<line x1="121.5" y1="273.1" x2="125.3" y2="273.1"/>
			<line x1="121.5" y1="283" x2="125.3" y2="283"/>
			<line x1="198.4" y1="431.1" x2="198.4" y2="429.2"/>
			<line x1="176.2" y1="359.5" x2="300.7" y2="359.5"/>
			<line x1="176.2" y1="235" x2="300.7" y2="235"/>
			<line x1="477.2" y1="253.3" x2="478.8" y2="254.9"/>
			<line x1="478.8" y1="254.9" x2="478.8" y2="258.1"/>
			<line x1="478.8" y1="258.1" x2="477.2" y2="259.7"/>
			<line x1="477.2" y1="259.7" x2="475.6" y2="259.7"/>
			<line x1="475.6" y1="259.7" x2="475.6" y2="259.7"/>
			<line x1="475.6" y1="259.7" x2="475.6" y2="259.7"/>
			<line x1="475.6" y1="259.7" x2="475.6" y2="259.7"/>
			<line x1="475.6" y1="259.7" x2="474" y2="258.1"/>
			<line x1="474" y1="258.1" x2="474" y2="256.5"/>
			<line x1="474" y1="256.5" x2="474" y2="258.1"/>
			<line x1="474" y1="258.1" x2="472.4" y2="259.7"/>
			<line x1="472.4" y1="259.7" x2="470.8" y2="259.7"/>
			<line x1="470.8" y1="259.7" x2="469.2" y2="258.1"/>
			<line x1="469.2" y1="258.1" x2="469.2" y2="254.9"/>
			<line x1="469.2" y1="254.9" x2="470.8" y2="253.3"/>
			<line x1="469.2" y1="269.3" x2="469.2" y2="262.9"/>
			<line x1="469.2" y1="262.9" x2="475.6" y2="269.3"/>
			<line x1="475.6" y1="269.3" x2="477.2" y2="269.3"/>
			<line x1="477.2" y1="269.3" x2="478.8" y2="267.7"/>
			<line x1="478.8" y1="267.7" x2="478.8" y2="264.5"/>
			<line x1="478.8" y1="264.5" x2="477.2" y2="262.9"/>
			<line x1="469.2" y1="163.9" x2="469.2" y2="157.5"/>
			<line x1="469.2" y1="157.5" x2="475.6" y2="163.9"/>
			<line x1="475.6" y1="163.9" x2="477.2" y2="163.9"/>
			<line x1="477.2" y1="163.9" x2="478.8" y2="162.3"/>
			<line x1="478.8" y1="162.3" x2="478.8" y2="159.1"/>
			<line x1="478.8" y1="159.1" x2="477.2" y2="157.5"/>
			<line x1="469.2" y1="171.8" x2="478.8" y2="171.8"/>
			<line x1="478.8" y1="171.8" x2="474" y2="167"/>
			<line x1="474" y1="167" x2="474" y2="173.4"/>
			<line x1="469.2" y1="354" x2="478.8" y2="354"/>
			<line x1="478.8" y1="354" x2="474" y2="349.2"/>
			<line x1="474" y1="349.2" x2="474" y2="355.5"/>
			<line x1="477.2" y1="358.7" x2="478.8" y2="360.3"/>
			<line x1="478.8" y1="360.3" x2="478.8" y2="363.5"/>
			<line x1="478.8" y1="363.5" x2="477.2" y2="365.1"/>
			<line x1="477.2" y1="365.1" x2="470.8" y2="365.1"/>
			<line x1="470.8" y1="365.1" x2="469.2" y2="363.5"/>
			<line x1="469.2" y1="363.5" x2="469.2" y2="360.3"/>
			<line x1="469.2" y1="360.3" x2="470.8" y2="358.7"/>
			<line x1="470.8" y1="358.7" x2="477.2" y2="358.7"/>
			<line x1="282" y1="555.5" x2="288.4" y2="555.5"/>
			<line x1="288.4" y1="555.5" x2="288.4" y2="550.7"/>
			<line x1="288.4" y1="550.7" x2="285.2" y2="552.3"/>
			<line x1="285.2" y1="552.3" x2="283.6" y2="552.3"/>
			<line x1="283.6" y1="552.3" x2="282" y2="550.7"/>
			<line x1="282" y1="550.7" x2="282" y2="547.5"/>
			<line x1="282" y1="547.5" x2="283.6" y2="546"/>
			<line x1="283.6" y1="546" x2="286.8" y2="546"/>
			<line x1="286.8" y1="546" x2="288.4" y2="547.5"/>
			<line x1="272.4" y1="555.5" x2="275.6" y2="553.9"/>
			<line x1="275.6" y1="553.9" x2="278.8" y2="550.7"/>
			<line x1="278.8" y1="550.7" x2="278.8" y2="547.5"/>
			<line x1="278.8" y1="547.5" x2="277.2" y2="546"/>
			<line x1="277.2" y1="546" x2="274" y2="546"/>
			<line x1="274" y1="546" x2="272.4" y2="547.5"/>
			<line x1="272.4" y1="547.5" x2="272.4" y2="549.2"/>
			<line x1="272.4" y1="549.2" x2="274" y2="550.7"/>
			<line x1="274" y1="550.7" x2="278.8" y2="550.7"/>
			<line x1="379.4" y1="546" x2="379.4" y2="555.5"/>
			<line x1="379.4" y1="555.5" x2="384.2" y2="550.7"/>
			<line x1="384.2" y1="550.7" x2="377.8" y2="550.7"/>
			<line x1="374.6" y1="553.9" x2="373" y2="555.5"/>
			<line x1="373" y1="555.5" x2="369.9" y2="555.5"/>
			<line x1="369.9" y1="555.5" x2="368.3" y2="553.9"/>
			<line x1="368.3" y1="553.9" x2="368.3" y2="552.3"/>
			<line x1="368.3" y1="552.3" x2="369.9" y2="550.7"/>
			<line x1="369.9" y1="550.7" x2="368.3" y2="549.2"/>
			<line x1="368.3" y1="549.2" x2="368.3" y2="547.5"/>
			<line x1="368.3" y1="547.5" x2="369.9" y2="546"/>
			<line x1="369.9" y1="546" x2="373" y2="546"/>
			<line x1="373" y1="546" x2="374.6" y2="547.5"/>
			<line x1="374.6" y1="547.5" x2="374.6" y2="549.2"/>
			<line x1="374.6" y1="549.2" x2="373" y2="550.7"/>
			<line x1="373" y1="550.7" x2="374.6" y2="552.3"/>
			<line x1="374.6" y1="552.3" x2="374.6" y2="553.9"/>
			<line x1="373" y1="550.7" x2="369.9" y2="550.7"/>
			<line x1="205.3" y1="40.5" x2="206.9" y2="38.9"/>
			<line x1="206.9" y1="38.9" x2="210.1" y2="38.9"/>
			<line x1="210.1" y1="38.9" x2="211.7" y2="40.5"/>
			<line x1="211.7" y1="40.5" x2="211.7" y2="42.1"/>
			<line x1="211.7" y1="42.1" x2="210.1" y2="43.7"/>
			<line x1="210.1" y1="43.7" x2="211.7" y2="45.3"/>
			<line x1="211.7" y1="45.3" x2="211.7" y2="46.9"/>
			<line x1="211.7" y1="46.9" x2="210.1" y2="48.5"/>
			<line x1="210.1" y1="48.5" x2="206.9" y2="48.5"/>
			<line x1="206.9" y1="48.5" x2="205.3" y2="46.9"/>
			<line x1="205.3" y1="46.9" x2="205.3" y2="45.3"/>
			<line x1="205.3" y1="45.3" x2="206.9" y2="43.7"/>
			<line x1="206.9" y1="43.7" x2="205.3" y2="42.1"/>
			<line x1="205.3" y1="42.1" x2="205.3" y2="40.5"/>
			<line x1="206.9" y1="43.7" x2="210.1" y2="43.7"/>
			<line x1="297.2" y1="48.5" x2="300.4" y2="48.5"/>
			<line x1="300.4" y1="48.5" x2="298.8" y2="48.5"/>
			<line x1="298.8" y1="48.5" x2="298.8" y2="38.9"/>
			<line x1="298.8" y1="38.9" x2="298.8" y2="38.9"/>
			<line x1="298.8" y1="38.9" x2="297.2" y2="40.5"/>
			<line x1="311.5" y1="38.9" x2="308.3" y2="40.5"/>
			<line x1="308.3" y1="40.5" x2="305.1" y2="43.7"/>
			<line x1="305.1" y1="43.7" x2="305.1" y2="46.9"/>
			<line x1="305.1" y1="46.9" x2="306.7" y2="48.5"/>
			<line x1="306.7" y1="48.5" x2="309.9" y2="48.5"/>
			<line x1="309.9" y1="48.5" x2="311.5" y2="46.9"/>
			<line x1="311.5" y1="46.9" x2="311.5" y2="45.3"/>
			<line x1="311.5" y1="45.3" x2="309.9" y2="43.7"/>
			<line x1="309.9" y1="43.7" x2="305.1" y2="43.7"/>
			<line x1="186.1" y1="555.5" x2="189.3" y2="553.9"/>
			<line x1="189.3" y1="553.9" x2="192.5" y2="550.7"/>
			<line x1="192.5" y1="550.7" x2="192.5" y2="547.5"/>
			<line x1="192.5" y1="547.5" x2="190.9" y2="546"/>
			<line x1="190.9" y1="546" x2="187.7" y2="546"/>
			<line x1="187.7" y1="546" x2="186.1" y2="547.5"/>
			<line x1="186.1" y1="547.5" x2="186.1" y2="549.2"/>
			<line x1="186.1" y1="549.2" x2="187.7" y2="550.7"/>
			<line x1="187.7" y1="550.7" x2="192.5" y2="550.7"/>
			<line x1="178.1" y1="546" x2="178.1" y2="555.5"/>
			<line x1="178.1" y1="555.5" x2="182.9" y2="550.7"/>
			<line x1="182.9" y1="550.7" x2="176.5" y2="550.7"/>
			<line x1="109.4" y1="40.5" x2="111" y2="38.9"/>
			<line x1="111" y1="38.9" x2="114.2" y2="38.9"/>
			<line x1="114.2" y1="38.9" x2="115.8" y2="40.5"/>
			<line x1="115.8" y1="40.5" x2="115.8" y2="46.9"/>
			<line x1="115.8" y1="46.9" x2="114.2" y2="48.5"/>
			<line x1="114.2" y1="48.5" x2="111" y2="48.5"/>
			<line x1="111" y1="48.5" x2="109.4" y2="46.9"/>
			<line x1="109.4" y1="46.9" x2="109.4" y2="40.5"/>
			<polyline points="178.9,429.3 177.3,427.8 177.3,424.6 178.9,423 185.3,423 186.9,424.6 186.9,427.8 185.3,429.3 "/>
			<polyline points="221.5,427.4 219.9,425.8 219.9,422.6 221.5,421 227.9,421 229.4,422.6 229.4,425.8 227.9,427.4 "/>
			<polyline points="48.9,323.8 44.1,323.8 46.5,323.8 46.5,309.5 48.9,309.5 44.1,309.5"/>
			<polyline points="65.7,321.4 63.3,323.8 58.5,323.8 56.1,321.4 56.1,311.9 58.5,309.5 63.3,309.5 65.7,311.9"/>
			<polyline points="70.4,323.8 75.2,323.8 72.8,323.8 72.8,309.5 70.4,311.9 72.8,309.5 72.8,309.5"/>
			<polyline points="92.3,305.6 89.9,308 85.1,308 82.7,305.6 82.7,296 85.1,293.6 89.9,293.6 92.3,296"/>
			<polyline points="106.6,300.8 97.1,300.8 104.2,293.6 104.2,308"/>
			<polyline points="179.7,395.5 179.7,390.7 179.7,393.1 165.4,393.1 167.8,395.5 165.4,393.1 165.4,393.1"/>
			<polyline points="219.3,310.4 214.5,310.4 216.9,310.4 216.9,296 219.3,296 214.5,296"/>
			<polyline points="236,308 233.6,310.4 228.9,310.4 226.5,308 226.5,298.4 228.9,296 233.6,296 236,298.4"/>
			<polyline points="240.8,298.4 243.2,296 248,296 250.4,298.4 250.4,300.8 240.8,310.4 250.4,310.4"/>
			<polyline points="89.3,203 86.9,205.3 82.1,205.3 79.7,203 79.7,193.4 82.1,191 86.9,191 89.3,193.4"/>
			<polyline points="94.1,203 96.4,205.3 101.2,205.3 103.6,203 103.6,198.2 101.2,195.8 98.8,195.8 94.1,198.2 94.1,191 103.6,191"/>
			<polyline points="121.3,263.9 116.5,259.1 111.7,259.1 118.9,259.1 121.3,256.8 121.3,252 118.9,249.6 111.7,249.6 111.7,263.9"/>
			<polyline points="126.1,263.9 130.8,263.9 128.4,263.9 128.4,249.6 126.1,252 128.4,249.6 128.4,249.6"/>
		</g>
		<g class="st16">
			<polygon points="370.5,333.2 370.5,336.4 372.1,338 378.5,338 380.1,336.4 380.1,333.2 378.5,331.6 372.1,331.6 		 "/>
			<polyline points="230.9,450.8 234.1,454 237.2,454 232.4,454 230.9,455.6 230.9,458.8 232.4,460.4 237.2,460.4 237.2,450.8"/>
			<polyline points="227.7,455.6 221.3,455.6 221.3,450.8 221.3,457.2 224.5,460.4 227.7,457.2 227.7,450.8"/>
			<polyline points="218.1,450.8 214.9,450.8 216.5,450.8 216.5,460.4 218.1,458.8 216.5,460.4 216.5,460.4"/>
			<polyline points="203.7,460.4 206.9,458.8 210.1,455.6 205.3,455.6 203.7,454 203.7,452.4 205.3,450.8 208.5,450.8 210.1,452.4 210.1,455.6"/>
			<polyline points="326.7,451.1 329.9,454.3 333.1,454.3 328.3,454.3 326.7,455.9 326.7,459 328.3,460.6 333.1,460.6 333.1,451.1"/>
			<polyline points="323.5,455.9 317.1,455.9 317.1,451.1 317.1,457.5 320.3,460.6 323.5,457.5 323.5,451.1"/>
			<polyline points="313.9,451.1 310.7,451.1 312.3,451.1 312.3,460.6 313.9,459 312.3,460.6 312.3,460.6"/>
			<polyline points="299.6,455.9 306,455.9 301.2,460.6 301.2,451.1"/>
			<polyline points="374.6,451.1 377.8,454.3 381,454.3 376.2,454.3 374.6,455.9 374.6,459 376.2,460.6 381,460.6 381,451.1"/>
			<polyline points="371.5,455.9 365.1,455.9 365.1,451.1 365.1,457.5 368.3,460.6 371.5,457.5 371.5,451.1"/>
			<polyline points="361.9,451.1 358.7,451.1 360.3,451.1 360.3,460.6 361.9,459 360.3,460.6 360.3,460.6"/>
			<polyline points="349.1,455.9 350.7,455.9 349.1,455.9 347.5,457.5 347.5,457.5 347.5,457.5 347.5,457.5"/>
			<polyline points="353.9,452.7 352.3,451.1 349.1,451.1 347.5,452.7 347.5,454.3 349.1,455.9 347.5,457.5 347.5,459 349.1,460.6 352.3,460.6 353.9,459"/>
			<polyline points="166.2,143.6 163,140.5 159.8,140.5 164.6,140.5 166.2,138.9 166.2,135.7 164.6,134.1 159.8,134.1 159.8,143.6"/>
			<polyline points="169.4,138.9 175.8,138.9 175.8,143.6 175.8,137.3 172.6,134.1 169.4,137.3 169.4,143.6"/>
			<polyline points="179,135.7 180.6,134.1 183.8,134.1 185.4,135.7 185.4,137.3 179,143.6 185.4,143.6"/>
			<polyline points="214.2,143.6 211,140.5 207.8,140.5 212.6,140.5 214.2,138.9 214.2,135.7 212.6,134.1 207.8,134.1 207.8,143.6"/>
			<polyline points="217.4,138.9 223.7,138.9 223.7,143.6 223.7,137.3 220.6,134.1 217.4,137.3 217.4,143.6"/>
			<polyline points="231.7,138.9 230.1,138.9 231.7,138.9 233.3,137.3 233.3,137.3 233.3,137.3 233.3,137.3"/>
			<polyline points="226.9,142.1 228.5,143.6 231.7,143.6 233.3,142.1 233.3,140.5 231.7,138.9 233.3,137.3 233.3,135.7 231.7,134.1 228.5,134.1 226.9,135.7"/>
			<polyline points="310,143.6 306.8,140.5 303.6,140.5 308.4,140.5 310,138.9 310,135.7 308.4,134.1 303.6,134.1 303.6,143.6"/>
			<polyline points="313.2,138.9 319.6,138.9 319.6,143.6 319.6,137.3 316.4,134.1 313.2,137.3 313.2,143.6"/>
			<polyline points="322.8,142.1 324.4,143.6 327.6,143.6 329.2,142.1 329.2,138.9 327.6,137.3 326,137.3 322.8,138.9 322.8,134.1 329.2,134.1"/>
			<polyline points="370.5,310.8 373.7,307.6 373.7,304.4 373.7,309.2 375.3,310.8 378.5,310.8 380.1,309.2 380.1,304.4 370.5,304.4"/>
			<polyline points="375.3,314 375.3,320.4 370.5,320.4 376.9,320.4 380.1,317.2 376.9,314 370.5,314"/>
			<polyline points="370.5,323.6 370.5,326.8 370.5,325.2 380.1,325.2 378.5,323.6 380.1,325.2 380.1,325.2"/>
			<polyline points="370.5,219 373.7,215.8 373.7,212.7 373.7,217.4 375.3,219 378.5,219 380.1,217.4 380.1,212.7 370.5,212.7"/>
			<polyline points="375.3,222.2 375.3,228.6 370.5,228.6 376.9,228.6 380.1,225.4 376.9,222.2 370.5,222.2"/>
			<polyline points="375.3,236.6 373.7,238.2 372.1,238.2 370.5,236.6 370.5,233.4 372.1,231.8 373.7,231.8 375.3,233.4 375.3,236.6 376.9,238.2 378.5,238.2 380.1,236.6 380.1,233.4 378.5,231.8 376.9,231.8 375.3,233.4"/>
			<polyline points="370.5,171.1 373.7,167.9 373.7,164.7 373.7,169.5 375.3,171.1 378.5,171.1 380.1,169.5 380.1,164.7 370.5,164.7"/>
			<polyline points="375.3,174.3 375.3,180.7 370.5,180.7 376.9,180.7 380.1,177.5 376.9,174.3 370.5,174.3"/>
			<polyline points="370.5,183.9 372.1,183.9 378.5,190.3 380.1,190.3 380.1,183.9"/>
			<polyline points="357.9,143.6 354.8,140.5 351.5,140.5 356.3,140.5 357.9,138.9 357.9,135.7 356.3,134.1 351.5,134.1 351.5,143.6"/>
			<polyline points="361.1,138.9 367.5,138.9 367.5,143.6 367.5,137.3 364.3,134.1 361.1,137.3 361.1,143.6"/>
			<polyline points="377.1,134.1 373.9,135.7 370.7,138.9 375.5,138.9 377.1,140.5 377.1,142.1 375.5,143.6 372.3,143.6 370.7,142.1 370.7,138.9"/>
			<polyline points="182.1,438.9 182.1,434.1 183.7,432.5 185.3,432.5 186.9,434.1 186.9,437.3 185.3,438.9 178.9,438.9 177.3,437.3 177.3,434.1 178.9,432.5"/>
			<polyline points="224.7,435.4 223.1,437 221.5,437 219.9,435.4 219.9,432.2 221.5,430.6 223.1,430.6 224.7,432.2 224.7,435.4 226.3,437 227.9,437 229.4,435.4 229.4,432.2 227.9,430.6 226.3,430.6 224.7,432.2"/>
			<polyline points="370.5,360.4 373.7,357.2 373.7,354 373.7,358.8 375.3,360.4 378.5,360.4 380.1,358.8 380.1,354 370.5,354"/>
			<polyline points="375.3,363.6 375.3,370 370.5,370 376.9,370 380.1,366.8 376.9,363.6 370.5,363.6"/>
			<polyline points="370.5,373.2 370.5,376.4 370.5,374.8 380.1,374.8 378.5,373.2 380.1,374.8 380.1,374.8"/>
			<polyline points="370.5,381.2 370.5,384.4 370.5,382.8 380.1,382.8 378.5,381.2 380.1,382.8 380.1,382.8"/>
			<polyline points="370.5,406.7 373.7,403.5 373.7,400.3 373.7,405.1 375.3,406.7 378.5,406.7 380.1,405.1 380.1,400.3 370.5,400.3"/>
			<polyline points="375.3,409.9 375.3,416.2 370.5,416.2 376.9,416.2 380.1,413 376.9,409.9 370.5,409.9"/>
			<polyline points="370.5,419.4 370.5,422.6 370.5,421 380.1,421 378.5,419.4 380.1,421 380.1,421"/>
			<polyline points="378.5,427.4 380.1,429 380.1,432.2 378.5,433.8 376.9,433.8 370.5,427.4 370.5,433.8"/>
			<polyline points="370.5,267 373.7,263.8 373.7,260.6 373.7,265.4 375.3,267 378.5,267 380.1,265.4 380.1,260.6 370.5,260.6"/>
			<polyline points="375.3,270.2 375.3,276.5 370.5,276.5 376.9,276.5 380.1,273.4 376.9,270.2 370.5,270.2"/>
			<polyline points="375.3,286.1 375.3,281.3 376.9,279.7 378.5,279.7 380.1,281.3 380.1,284.5 378.5,286.1 372.1,286.1 370.5,284.5 370.5,281.3 372.1,279.7"/>
			<polyline points="182.9,450.8 186.1,454 189.3,454 184.5,454 182.9,455.6 182.9,458.8 184.5,460.4 189.3,460.4 189.3,450.8"/>
			<polyline points="179.7,450.8 179.7,457.2 176.5,460.4 173.4,457.2 173.4,455.6 179.7,455.6 173.4,455.6 173.4,450.8 173.4,457.2"/>
			<polyline points="170.1,450.8 167,450.8 168.6,450.8 168.6,460.4 170.1,458.8 168.6,460.4 168.6,460.4"/>
			<polyline points="162.2,450.8 162.2,452.4 155.8,458.8 155.8,460.4 162.2,460.4"/>
			<polyline points="135,451.1 138.2,454.3 141.4,454.3 136.6,454.3 135,455.9 135,459 136.6,460.6 141.4,460.6 141.4,451.1"/>
			<polyline points="131.8,455.9 125.4,455.9 125.4,451.1 125.4,457.5 128.6,460.6 131.8,457.5 131.8,451.1"/>
			<polyline points="122.2,451.1 119,451.1 120.6,451.1 120.6,460.6 122.2,459 120.6,460.6 120.6,460.6"/>
			<polyline points="109.4,455.9 107.8,454.3 107.8,452.7 109.4,451.1 112.6,451.1 114.2,452.7 114.2,454.3 112.6,455.9 109.4,455.9 107.8,457.5 107.8,459 109.4,460.6 112.6,460.6 114.2,459 114.2,457.5 112.6,455.9"/>
			<polyline points="278.8,451.1 282,454.3 285.2,454.3 280.4,454.3 278.8,455.9 278.8,459 280.4,460.6 285.2,460.6 285.2,451.1"/>
			<polyline points="275.6,455.9 269.2,455.9 269.2,451.1 269.2,457.5 272.4,460.6 275.6,457.5 275.6,451.1"/>
			<polyline points="266,451.1 262.8,451.1 264.4,451.1 264.4,460.6 266,459 264.4,460.6 264.4,460.6"/>
			<polyline points="258,452.7 256.4,451.1 253.2,451.1 251.6,452.7 251.6,455.9 253.2,457.5 254.8,457.5 258,455.9 258,460.6 251.6,460.6"/>
			<polyline points="119.7,143.6 116.5,140.5 113.3,140.5 118.1,140.5 119.7,138.9 119.7,135.7 118.1,134.1 113.3,134.1 113.3,143.6"/>
			<polyline points="122.9,138.9 129.3,138.9 129.3,143.6 129.3,137.3 126.1,134.1 122.9,137.3 122.9,143.6"/>
			<polyline points="132.5,143.6 135.7,143.6 134.1,143.6 134.1,134.1 132.5,135.7 134.1,134.1 134.1,134.1"/>
			<polyline points="262.1,143.6 258.9,140.5 255.7,140.5 260.5,140.5 262.1,138.9 262.1,135.7 260.5,134.1 255.7,134.1 255.7,143.6"/>
			<polyline points="265.3,138.9 271.7,138.9 271.7,143.6 271.7,137.3 268.5,134.1 265.3,137.3 265.3,143.6"/>
			<polyline points="281.3,138.9 274.9,138.9 279.6,134.1 279.6,143.6"/>
		</g>
		<path class="st17" d="M188.4,244.4c0-1.6-1.3-2.8-2.8-2.8s-2.8,1.3-2.8,2.8s1.3,2.8,2.8,2.8S188.4,246,188.4,244.4"/>
		<path class="st17" d="M85.2,371.3c0-1.6-1.3-2.8-2.8-2.8c-1.6,0-2.8,1.3-2.8,2.8s1.3,2.8,2.8,2.8S85.2,372.9,85.2,371.3"/>
		<path d="M101.4,384.1c0-0.6-0.5-1.2-1.2-1.2s-1.2,0.5-1.2,1.2s0.5,1.2,1.2,1.2S101.4,384.7,101.4,384.1"/>
		<path d="M166.5,234c0-0.6-0.5-1.2-1.2-1.2s-1.2,0.5-1.2,1.2s0.5,1.2,1.2,1.2S166.5,234.7,166.5,234"/>
	</g>
	<g>
		<g class="st18">
			<line x1="495.4" y1="428.4" x2="496.1" y2="429"/>
			<line x1="495.4" y1="380.4" x2="496.1" y2="381.1"/>
			<line x1="495.4" y1="332.5" x2="496.1" y2="333.2"/>
			<line x1="447.5" y1="262" x2="448.1" y2="261.3"/>
			<line x1="447.5" y1="166.1" x2="448.1" y2="165.5"/>
			<line x1="447.5" y1="214" x2="448.1" y2="213.4"/>
			<line x1="112.6" y1="572.8" x2="113.3" y2="572.1"/>
			<line x1="208.5" y1="572.8" x2="209.1" y2="572.1"/>
			<line x1="160.6" y1="572.8" x2="161.2" y2="572.1"/>
			<line x1="16.8" y1="381.1" x2="20.4" y2="381.1"/>
			<line x1="15.6" y1="333.2" x2="20.4" y2="333.2"/>
			<line x1="113.3" y1="70.3" x2="112.6" y2="69.6"/>
			<line x1="183.9" y1="22.3" x2="184.5" y2="21.7"/>
		</g>
		<g class="st19">
			<line x1="443.4" y1="357.1" x2="448.1" y2="357.1"/>
			<line x1="443.4" y1="261.3" x2="448.1" y2="261.3"/>
			<line x1="443.4" y1="165.5" x2="448.1" y2="165.5"/>
			<line x1="443.4" y1="405.1" x2="448.1" y2="405.1"/>
			<line x1="443.4" y1="381.1" x2="448.1" y2="381.1"/>
			<line x1="443.4" y1="333.2" x2="448.1" y2="333.2"/>
			<line x1="443.4" y1="309.2" x2="448.1" y2="309.2"/>
			<line x1="443.4" y1="237.3" x2="448.1" y2="237.3"/>
			<line x1="443.4" y1="213.4" x2="448.1" y2="213.4"/>
			<line x1="443.4" y1="189.4" x2="448.1" y2="189.4"/>
			<line x1="443.4" y1="429" x2="448.1" y2="429"/>
			<line x1="443.4" y1="285.3" x2="448.1" y2="285.3"/>
			<line x1="491.3" y1="357.1" x2="496.1" y2="357.1"/>
			<line x1="491.3" y1="261.3" x2="496.1" y2="261.3"/>
			<line x1="491.3" y1="165.5" x2="496.1" y2="165.5"/>
			<line x1="491.3" y1="405.1" x2="496.1" y2="405.1"/>
			<line x1="491.3" y1="381.1" x2="496.1" y2="381.1"/>
			<line x1="491.3" y1="333.2" x2="496.1" y2="333.2"/>
			<line x1="491.3" y1="309.2" x2="496.1" y2="309.2"/>
			<line x1="491.3" y1="237.3" x2="496.1" y2="237.3"/>
			<line x1="491.3" y1="213.4" x2="496.1" y2="213.4"/>
			<line x1="491.3" y1="189.4" x2="496.1" y2="189.4"/>
			<line x1="491.3" y1="429" x2="496.1" y2="429"/>
			<line x1="491.3" y1="285.3" x2="496.1" y2="285.3"/>
			<line x1="112.6" y1="524.9" x2="112.6" y2="520.2"/>
			<line x1="112.6" y1="572.8" x2="112.6" y2="568.1"/>
			<line x1="208.5" y1="524.9" x2="208.5" y2="520.2"/>
			<line x1="208.5" y1="572.8" x2="208.5" y2="568.1"/>
			<line x1="304.3" y1="572.8" x2="304.3" y2="568.1"/>
			<line x1="304.3" y1="524.9" x2="304.3" y2="520.2"/>
			<line x1="136.6" y1="524.9" x2="136.6" y2="520.2"/>
			<line x1="160.6" y1="524.9" x2="160.6" y2="520.2"/>
			<line x1="136.6" y1="572.8" x2="136.6" y2="568.1"/>
			<line x1="160.6" y1="572.8" x2="160.6" y2="568.1"/>
			<line x1="232.4" y1="524.9" x2="232.4" y2="520.2"/>
			<line x1="256.4" y1="524.9" x2="256.4" y2="520.2"/>
			<line x1="232.4" y1="572.8" x2="232.4" y2="568.1"/>
			<line x1="256.4" y1="572.8" x2="256.4" y2="568.1"/>
			<line x1="280.4" y1="524.9" x2="280.4" y2="520.2"/>
			<line x1="280.4" y1="572.8" x2="280.4" y2="568.1"/>
			<line x1="328.3" y1="572.8" x2="328.3" y2="568.1"/>
			<line x1="328.3" y1="524.9" x2="328.3" y2="520.2"/>
			<line x1="352.3" y1="572.8" x2="352.3" y2="568.1"/>
			<line x1="376.2" y1="572.8" x2="376.2" y2="568.1"/>
			<line x1="352.3" y1="524.9" x2="352.3" y2="520.2"/>
			<line x1="376.2" y1="524.9" x2="376.2" y2="520.2"/>
			<line x1="184.5" y1="524.9" x2="184.5" y2="520.2"/>
			<line x1="184.5" y1="572.8" x2="184.5" y2="568.1"/>
			<line x1="16.8" y1="381.1" x2="21.5" y2="381.1"/>
			<line x1="16.8" y1="333.2" x2="21.5" y2="333.2"/>
			<line x1="16.8" y1="237.3" x2="21.5" y2="237.3"/>
			<line x1="16.8" y1="285.3" x2="21.5" y2="285.3"/>
			<line x1="112.6" y1="74.3" x2="112.6" y2="69.6"/>
			<line x1="112.7" y1="26.4" x2="112.7" y2="21.7"/>
			<line x1="208.5" y1="74.3" x2="208.5" y2="69.6"/>
			<line x1="208.5" y1="26.4" x2="208.5" y2="21.7"/>
			<line x1="304.3" y1="74.3" x2="304.3" y2="69.6"/>
			<line x1="304.3" y1="26.4" x2="304.3" y2="21.7"/>
			<line x1="160.6" y1="74.3" x2="160.6" y2="69.6"/>
			<line x1="136.6" y1="74.3" x2="136.6" y2="69.6"/>
			<line x1="160.6" y1="26.4" x2="160.6" y2="21.7"/>
			<line x1="136.6" y1="26.4" x2="136.6" y2="21.7"/>
			<line x1="232.4" y1="74.3" x2="232.4" y2="69.6"/>
			<line x1="256.4" y1="74.3" x2="256.4" y2="69.6"/>
			<line x1="232.4" y1="26.4" x2="232.4" y2="21.7"/>
			<line x1="256.4" y1="26.4" x2="256.4" y2="21.7"/>
			<line x1="328.3" y1="74.3" x2="328.3" y2="69.6"/>
			<line x1="280.4" y1="74.3" x2="280.4" y2="69.6"/>
			<line x1="280.4" y1="26.4" x2="280.4" y2="21.7"/>
			<line x1="328.3" y1="26.4" x2="328.3" y2="21.7"/>
			<line x1="376.2" y1="74.3" x2="376.2" y2="69.6"/>
			<line x1="352.3" y1="74.3" x2="352.3" y2="69.6"/>
			<line x1="376.2" y1="26.4" x2="376.2" y2="21.7"/>
			<line x1="352.3" y1="26.4" x2="352.3" y2="21.7"/>
			<line x1="184.5" y1="74.3" x2="184.5" y2="69.6"/>
			<line x1="184.5" y1="26.4" x2="184.5" y2="21.7"/>
		</g>
	</g>
	<g>
		<g class="st20">
			<circle cx="376.3" cy="21.7" r="5.2"/>
			<circle cx="352.4" cy="21.7" r="5.2"/>
			<circle cx="328.4" cy="21.7" r="5.2"/>
			<circle cx="304.4" cy="21.7" r="5.2"/>
			<circle cx="280.5" cy="21.7" r="5.2"/>
			<circle cx="256.5" cy="21.7" r="5.2"/>
			<circle cx="232.5" cy="21.7" r="5.2"/>
			<circle cx="208.6" cy="21.7" r="5.2"/>
			<circle cx="184.6" cy="21.7" r="5.2"/>
			<circle cx="160.6" cy="21.7" r="5.2"/>
			<circle cx="136.7" cy="21.7" r="5.2"/>
			<circle cx="112.7" cy="21.7" r="5.2"/>
			<circle cx="376.3" cy="69.6" r="5.2"/>
			<circle cx="352.3" cy="69.6" r="5.2"/>
			<circle cx="328.4" cy="69.6" r="5.2"/>
			<circle cx="304.4" cy="69.6" r="5.2"/>
			<circle cx="280.4" cy="69.6" r="5.2"/>
			<circle cx="256.5" cy="69.6" r="5.2"/>
			<circle cx="232.5" cy="69.6" r="5.2"/>
			<circle cx="208.5" cy="69.6" r="5.2"/>
			<circle cx="184.5" cy="69.6" r="5.2"/>
			<circle cx="160.6" cy="69.6" r="5.2"/>
			<circle cx="136.6" cy="69.6" r="5.2"/>
			<circle cx="112.6" cy="69.6" r="5.2"/>
			<circle cx="496.1" cy="429" r="5.2"/>
			<circle cx="496.1" cy="405.1" r="5.2"/>
			<circle cx="496.1" cy="381.1" r="5.2"/>
			<circle cx="496.1" cy="357.1" r="5.2"/>
			<circle cx="496.1" cy="333.2" r="5.2"/>
			<circle cx="496.1" cy="309.2" r="5.2"/>
			<circle cx="496.1" cy="285.3" r="5.2"/>
			<circle cx="496.1" cy="261.3" r="5.2"/>
			<circle cx="496.1" cy="237.3" r="5.2"/>
			<circle cx="496.1" cy="213.4" r="5.2"/>
			<circle cx="496.1" cy="189.4" r="5.2"/>
			<circle cx="496.1" cy="165.4" r="5.2"/>
			<circle cx="448.1" cy="429" r="5.2"/>
			<circle cx="448.1" cy="405.1" r="5.2"/>
			<circle cx="448.1" cy="381.1" r="5.2"/>
			<circle cx="448.1" cy="357.1" r="5.2"/>
			<circle cx="448.1" cy="333.1" r="5.2"/>
			<circle cx="448.1" cy="309.2" r="5.2"/>
			<circle cx="448.1" cy="285.2" r="5.2"/>
			<circle cx="448.1" cy="261.2" r="5.2"/>
			<circle cx="448.1" cy="237.3" r="5.2"/>
			<circle cx="448.1" cy="213.3" r="5.2"/>
			<circle cx="448.1" cy="189.3" r="5.2"/>
			<circle cx="448.1" cy="165.4" r="5.2"/>
			<circle cx="376.3" cy="524.4" r="5.2"/>
			<circle cx="352.3" cy="524.4" r="5.2"/>
			<circle cx="328.4" cy="524.4" r="5.2"/>
			<circle cx="304.4" cy="524.4" r="5.2"/>
			<circle cx="280.4" cy="524.4" r="5.2"/>
			<circle cx="256.5" cy="524.4" r="5.2"/>
			<circle cx="232.5" cy="524.4" r="5.2"/>
			<circle cx="208.5" cy="524.4" r="5.2"/>
			<circle cx="184.6" cy="524.4" r="5.2"/>
			<circle cx="160.6" cy="524.4" r="5.2"/>
			<circle cx="136.6" cy="524.4" r="5.2"/>
			<circle cx="112.7" cy="524.4" r="5.2"/>
			<circle cx="376.3" cy="572.3" r="5.2"/>
			<circle cx="352.3" cy="572.3" r="5.2"/>
			<circle cx="328.3" cy="572.3" r="5.2"/>
			<circle cx="304.4" cy="572.3" r="5.2"/>
			<circle cx="280.4" cy="572.3" r="5.2"/>
			<circle cx="256.4" cy="572.3" r="5.2"/>
			<circle cx="232.4" cy="572.3" r="5.2"/>
			<circle cx="208.5" cy="572.3" r="5.2"/>
			<circle cx="184.5" cy="572.3" r="5.2"/>
			<circle cx="160.5" cy="572.3" r="5.2"/>
			<circle cx="136.6" cy="572.3" r="5.2"/>
			<circle cx="112.6" cy="572.3" r="5.2"/>
		</g>
	</g>
</g> <g class="node2560pins"> </g>
</svg>
