<?xml version="1.0" encoding="utf-8"?>
<!-- Generator: Adobe Illustrator 21.0.2, SVG Export Plug-In . SVG Version: 6.00 Build 0)  -->
<svg version="1.1" id="Layer_1" xmlns="http://www.w3.org/2000/svg" xmlns:xlink="http://www.w3.org/1999/xlink" x="0px" y="0px"
	 viewBox="0 -110 400 645" style="enable-background:new 0 0 400 425;" width="300" xml:space="preserve">
<style type="text/css">
	.node328 .st0{fill:#A72729;}
	.node328 .st1{opacity:0.11;fill:#1E1E1E;stroke:#1E1E1E;stroke-linecap:round;stroke-miterlimit:10;}
	.node328 .st2{stroke-miterlimit:10;}
	.node328 .st3{stroke-width:2.3897;}
	.node328 .st4{stroke-width:4.7794;}
	.node328 .st5{opacity:0.15;}
	.node328 .st6{stroke:#000000;stroke-miterlimit:10;}
	
		.node328 .st7{opacity:0.15;fill:none;stroke:#000000;stroke-width:2.3897;stroke-linecap:round;stroke-miterlimit:10;enable-background:new    ;}
	.node328 .st8{fill:none;stroke:#646464;stroke-width:2.3897;stroke-linecap:round;stroke-miterlimit:10;}
	.node328 .st9{fill:none;stroke:#646464;stroke-width:5.1738;stroke-linecap:round;stroke-miterlimit:10;}
	.node328 .st10{fill:#646464;stroke:#646464;stroke-miterlimit:10;}
	.node328 .st11{fill:none;stroke:#646464;stroke-width:32.928;stroke-linecap:round;stroke-miterlimit:10;}
	.node328 .st12{fill:none;stroke:#DBB131;stroke-width:16.728;stroke-linecap:round;stroke-miterlimit:10;}
	.node328 .st13{fill:none;stroke:#DBB131;stroke-width:2.3897;stroke-linecap:round;stroke-miterlimit:10;}
	.node328 .st14{fill:none;stroke:#787878;stroke-width:2.3897;stroke-linecap:round;stroke-miterlimit:10;}
	.node328 .st15{display:none;}
	.node328 .st16{display:inline;fill:none;stroke:#5A5A5A;stroke-width:0.9416;stroke-linecap:round;stroke-miterlimit:10;}
	.node328 .st17{display:inline;fill:none;stroke:#5A5A5A;stroke-width:0.4708;stroke-linecap:round;stroke-miterlimit:10;}
	.node328 .st18{display:inline;fill:none;stroke:#C0C0C0;stroke-width:1.9118;stroke-linecap:round;stroke-miterlimit:10;}
	.node328 .st19{fill:none;stroke:#FFFFFF;stroke-width:1.8807;stroke-linecap:round;stroke-miterlimit:10;}
	.node328 .st20{fill:none;stroke:#FFFFFF;stroke-width:1.9118;stroke-linecap:round;stroke-miterlimit:10;}
	.node328 .st21{fill:none;stroke:#FFFFFF;stroke-width:1.1949;stroke-linecap:round;stroke-miterlimit:10;}
	.node328 .st22{fill:none;stroke:#FFFFFF;stroke-width:2.3515;stroke-linecap:round;stroke-miterlimit:10;}
	.node328 .st23{fill:none;stroke:#FFFFFF;stroke-width:5.6445;stroke-linecap:round;stroke-miterlimit:10;}
	.node328 .st24{fill:none;stroke:#FFFFFF;stroke-width:1.4338;stroke-linecap:round;stroke-miterlimit:10;}
	.node328 .st25{fill:#FFFFFF;}

  .node328pins {fill:#000000;}
  .node328pins .iotextballoon path {fill: white; stroke-width: 1;stroke:black;}
  .node328pins .iotextballoon:hover path {fill: #ddd}
  .node328pins .iotextballoon text {font-family:monospace;user-select: none;}

</style>
<g class="node328" style="transform: translate(230px,0px) rotate(90deg)">
	<g>
		<path class="st0" d="M18.2,5.6C13,5.6,8.8,9.8,8.8,15V211c0,5.2,4.2,9.4,9.4,9.4h388c5.2,0,9.4-4.2,9.4-9.4V15
			c0-5.2-4.2-9.4-9.4-9.4H18.2z"/>
	</g>
	<g>
		<g class="st1">
      <g class="st2">
  			<path d="M122.8,200.9h-4.5v1.4l-0.3,0.1l-1.7,1.1l-1.2,1.7l-0.2,0.8h5.1v2.4H115l0.2,0.8l1.2,1.7l1.7,1.1l0.3,0.1
  				v1.4h4.5v-6.4L122.8,200.9L122.8,200.9z M129.7,208.5h-4.5v5.2h4.5V208.5z M129.7,200.9h-4.5v5.2h4.5V200.9z M368,194.2h-6.4v7.8
  				h6.4V194.2z M122.8,186.6h-4.5v1.4l-0.3,0.1l-1.7,1.1l-1.2,1.7l-0.2,0.8h5.1v2.4H115l0.2,0.8l1.2,1.7l1.7,1.1l0.3,0.1v1.4h4.5
  				V193L122.8,186.6L122.8,186.6z M129.7,194.2h-4.5v5.2h4.5V194.2z M129.7,186.6h-4.5v5.2h4.5V186.6z M368,184h-6.4v7.8h6.4V184z
  				 M33.9,178.6H22l0.2,1.6l1.1,2.6l1.7,2.2l2.3,1.7l2.6,1.1l2.8,0.4h1.2V178.6z M48.1,178.6H36.3v9.6h1.2l2.8-0.4l2.6-1.1l2.3-1.7
  				l1.7-2.2l1.1-2.6L48.1,178.6z M373.3,155.8h-16.6v9.6v0.4l-0.9,0.8h-0.4v4.9h9.5h9.5v-4.9h-0.4l-0.9-0.8v-0.4v-2.2h7.8l6.3,6.3
  				l-0.1,1.2l-1.5,2l-1,2.3l-0.3,2.5l0.3,2.5l1,2.3l1.5,2l2,1.5l2.3,1l2.5,0.3h4.7l2.5-0.3l2.3-1l2-1.5l1.5-2l1-2.3l0.3-2.5
  				l-0.3-2.5l-1-2.3l-1.5-2l-2-1.5l-2.3-1l-2.5-0.3h-4.7l-1.3,0.2l-9-9l-0.8-0.5l-0.9-0.2h-8.8L373.3,155.8L373.3,155.8z
  				 M126.1,178.5h-7.8v6.4h7.8V178.5z M136.2,178.5h-7.8v6.4h7.8V178.5z M363.8,173.9h-8.3v4.9h8.3L363.8,173.9L363.8,173.9z
  				 M374.5,173.9h-8.3v4.9h8.3V173.9z M33.9,166.6h-1.2l-2.8,0.4l-2.6,1.1l-2.3,1.7l-1.7,2.2l-1.1,2.6l-0.2,1.6h11.9V166.6z
  				 M37.4,166.6h-1.2v9.6h11.9l-0.2-1.6l-1.1-2.6l-1.7-2.2l-2.3-1.7l-2.6-1.1L37.4,166.6z M280.4,150h-3.2l0.1,0.6l1,1.5l1.5,1
  				l0.6,0.1L280.4,150L280.4,150z M301.4,144.9h-7.8v6.4h7.8V144.9z M280.4,144.4l-0.6,0.1l-1.5,1l-1,1.5l-0.1,0.6h3.2L280.4,144.4
  				L280.4,144.4z M373.3,131.9h-16.6v2.5h-9.3l-0.9,0.2l-0.8,0.5l-6,6l-0.5,0.8l-0.2,0.9v35.6l-0.8,0.5l-1,1.5l-0.4,1.8l0.4,1.8
  				l1,1.5l0.8,0.5v2.1l0.2,0.9l0.5,0.8l0.3,0.3v10.7h12.8l0.2,1.1v0.1h6.4v-9v-9h-6.4v0.1l-0.2,1.1h-1h-5.6l-0.6-1.1l0.1-0.2
  				l0.4-1.8l-0.4-1.8l-1-1.5l-0.8-0.5v-34.6l4.5-4.5h8.3v2.5h16.6L373.3,131.9L373.3,131.9z M398.9,120.1h-4.7l-2.5,0.3l-2.3,1
  				l-2,1.5l-1.5,2l-1,2.3l-0.3,2.5l0.3,2.5l1,2.3l1.5,2l0.1,1.2l-8.7,8.7h-5.4v-2.5h-16.6v9.9h16.6v-2.5h6.5l0.9-0.2l0.8-0.5
  				l11.4-11.4l1.3,0.2h4.7l2.5-0.3l2.3-1l2-1.5l1.5-2l1-2.3l0.3-2.5l-0.3-2.5l-1-2.3l-1.5-2l-2-1.5l-2.3-1L398.9,120.1z M390.5,54.5
  				h-17.7l0.3,2.5l1.1,3.5l1.8,3.3l2.4,2.9l2.9,2.3l3.3,1.8l3.6,1.1l2.5,0.3L390.5,54.5L390.5,54.5z M31.5,54.5H13.9l0.3,2.5
  				l1.1,3.5l1.8,3.3l2.4,2.9l2.9,2.3l3.3,1.8l3.6,1.1l2.5,0.3V54.5z M51.6,54.5H33.9v17.6l2.5-0.3l3.6-1.1l3.3-1.8l2.9-2.3l2.4-2.9
  				l1.8-3.3l1.1-3.5L51.6,54.5z M410.5,54.5h-17.7v17.6l2.5-0.3l3.6-1.1l3.3-1.8l2.9-2.3l2.4-2.9l1.8-3.3l1.1-3.5L410.5,54.5z
  				 M321.9,68.1H321h-6.6h-0.9h-6.6h-0.9h-6.6v11.3h1.1v4.3l-6.6,6.6h-40.9l-0.9,0.2l-0.8,0.5l-8.7,8.7l-0.5,0.8l-0.2,0.9v4.9
  				l-0.3,0.2l-0.3,0.5h-1.1l-0.9-0.9v-8l-0.2-0.9l-0.5-0.8l-6.5-6.4V79.4h0.9V68.1h-6.6h-0.9h-6.6h-0.9h-6.6h-0.9h-6.6v11.3h0.9v9.4
  				l-0.6,0.9l-0.3,1.3l0.3,1.3l0.4,0.6l-0.1,1.1l-0.3,0.3l-0.5,0.4l-6,6l-0.5,0.8l-0.2,0.9v3.9l-0.3,0.2l-0.8,1.3l-0.3,1.5v4.4
  				l-0.3,0.2l-0.9,0.3l-0.8-0.5l-1.3-0.3l-1.3,0.3l-0.9,0.6h-32.5l-21.1-21V79.4h0.9V68.1h-6.6h-0.9h-6.6H122h-6.6h-0.9h-6.6v11.3
  				h0.9v9.2l0.2,0.9l0.5,0.8l45.1,45l0.8,0.5l0.9,0.2h20.8l0.7,1l-0.1,1.5l-0.3,0.2l-0.8,1.1h-2.3v-2.4h-6.4v9h-2.4v-9h-6.4v0.1
  				l-0.2,1.1h-12.8v15.5l-1,0.5h-28.6l-1.2-1.2l0.5-1.1H126v-2.5h9.1l0.1,0.6l0.9,1.4l1.4,0.9l1.7,0.3l1.7-0.3l1.4-0.9l0.9-1.4
  				l0.3-1.7l-0.3-1.7l-0.9-1.4l-1.4-0.9l-1.7-0.3l-1.7,0.3l-0.3,0.2H126v-2.5h-14.2v4.5l-1.2,0.6l0,0v-14.3h1.2v0.3H126v-9.9h-14.2
  				v2.3H46.3l-0.5-1.2l-1.5-2l-2-1.5l-2.3-1l-2.5-0.3h-4.7l-2.5,0.3l-2.3,1l-2,1.5l-1.5,2l-1,2.3l-0.3,2.5l0.3,2.5l1,2.3l1.5,2
  				l2,1.5l2.3,1l2.5,0.3h4.7l2.5-0.3l2.3-1l2-1.5l1.5-2l0.5-1.2h59.4v16.4l0.2,0.9l0.5,0.8l6.7,6.7V169l-12,12h-8.4l-0.5-0.8l-1.5-1
  				l-1.8-0.4l-1.8,0.4l-1.5,1l-1,1.5l-0.3,1.8l0.3,1.8l1,1.5l1.5,1L89,188l1.8-0.4l1.5-1l0.5-0.8h9.4l0.9-0.2l0.8-0.5l13.2-13.2
  				l0.8,0.2l0.3,0.2v3.7h18.1l1.1-0.3l0.4,0.6l1.7,1.1l0.8,0.2v-5.1v-5.1l-0.8,0.2l-1.7,1.1l-0.5,0.7l-1.1,0.1h-0.1l-1.1-0.2v-1v-9
  				h28.2l5.8,5.8l-0.5,1.1h-5.8v3.4h-4.2v-3.4h-12.8v1.3l-1.2,0.6l-1.1-0.7l-0.8-0.2v5.1v5.1l0.5-0.1l0.6,1.1l-5.5,5.5l-0.5,0.8
  				l-0.2,0.9v1.8h-2.1v10.4h9v-10.4h-1.1l-0.5-1.2l5.5-5.5h10.3v-6.3h4.2v6.3h12.8v-6.3h2.3l0.2,0.3l0.5,0.3v1.4l-0.5,0.3l-0.8,1.3
  				l-0.3,1.5l0.3,1.5l0.8,1.3l1.3,0.8l1.5,0.3h2v4l-5.3,5.3h-2v-4.9h-12.8v10.2l-3.1,3.1l-1.1-0.5v-12.9h-12.8v14.6h11l0.5,1.1l-1,1
  				h-11.8v-2.8h-9v10.4h9v-2.8h12.8l0.9-0.2l0.8-0.5l6.3-6.3h10.3v-4.9h3l0.9-0.2l0.8-0.5l6.7-6.7l0.5-0.8l0.2-0.9v-5h2l1.5-0.3
  				l1.3-0.8l0.8-1.3l0.3-1.5l-0.3-1.5l-0.8-1.3l-0.5-0.3v-1.4l0.5-0.3l0.8-1.3l0.3-1.5l-0.3-1.5l-0.8-1.3l-0.5-0.3v-1.1l0.9-0.9h1.9
  				l0.4-0.1l1.2,0.8v18.2l-0.3,0.2l-0.8,1.3l-0.3,1.5v8.9l0.3,1.5l0.8,1.3l1.3,0.8l1.5,0.3l1.5-0.3l1.3-0.8l0.3-0.5h1.4l0.3,0.5
  				l1.3,0.8l1.5,0.3l1.5-0.3l1.3-0.8l0.3-0.5h1.4l0.3,0.5l1.3,0.8l1.5,0.3l1.5-0.3l1.3-0.8l0.3-0.5h1.1l0.9,0.9v2.4l0.2,0.9l0.5,0.8
  				l8.6,8.5l0.8,0.5l0.9,0.2H319l0.9-0.2l0.8-0.5l12-11.9l0.5-0.8l0.2-0.9v-60l-0.2-0.9l-0.5-0.8l-3.3-3.3l-0.8-0.5l-0.9-0.2h-1.5
  				V132h-16.6v9.6v0.4l-0.9,0.8h-0.4v4.9h9.5v2.4h-9.5v4.9h0.4l0.9,0.8v0.4v9.6h13.6l0.8,0.8l-0.5,1.2h-13.9v9.9h5.9v0.9l0.2,0.9
  				l0.5,0.8l4.9,4.9v10.4l-6.9,6.9H254l-0.4-1.2l0.9-0.6l0.8-1.3l0.3-1.5v-8.9l-0.3-1.5l-0.8-1.3l-0.3-0.2v-2.7v-0.9l1.2-0.2h2.6
  				l0.2,0.3l1.3,0.8l1.5,0.3h9l1.5-0.3l1.3-0.8l0.8-1.3l0.3-1.5l-0.3-1.5l-0.8-1.3l-0.5-0.3v-1.1l1-0.9h1.6l0.9-0.2l0.8-0.5l5.1-5.1
  				h3v3.9h5.4v10.7l-0.5,0.3l-0.9,1.3l-0.3,1.6l0.3,1.6l0.9,1.3l1.3,0.9l1.6,0.3l1.6-0.3l1.3-0.9l0.9-1.3l0.3-1.6l-0.3-1.6l-0.9-1.3
  				l-0.5-0.3V173h5.4v-12.7l1.1-0.2h0.1v-6.4h-9v-1.2h-1.2V145H284l-0.6-0.4l-0.6-0.1v4.4v5l0.6,0.5v5.8h0.1l1.1,0.2v1v2.9h-4.1
  				l-0.9,0.2l-0.8,0.5l-4.9,4.9l-1.3-0.1l0,0l-0.5-0.3V168l0.5-0.3l0.8-1.3l0.3-1.5l-0.3-1.5l-0.8-1.3l-0.5-0.3v-1.4l0.5-0.3
  				l0.8-1.3l0.3-1.5l-0.3-1.5l-0.5-0.7l0.1-1.5l0.4-0.2l1.1-1.6l0.1-0.8h-9.3v-2.4h9.3l-0.1-0.7l-1.1-1.6l-0.3-0.2l-0.1-1.5l0.5-0.7
  				l0.3-1.5l-0.3-1.5l-0.8-1.3l-0.5-0.3V138l0.5-0.3l0.2-0.3l0.7-0.1l0.8-0.5l4.2-4.2l0.5-0.8l0.2-0.9v-19l5.8-5.7h14.8l0.9-0.2
  				l0.8-0.5l25.5-25.5l0.2-0.3h1.2V68.1h-6.4H321.9z M31.5,34.5L29,34.8l-3.6,1.1l-3.3,1.8l-2.9,2.3L17,42.8l-1.8,3.3l-1.1,3.5
  				l-0.3,2.5h17.7L31.5,34.5L31.5,34.5z M390.5,34.5l-2.5,0.3l-3.6,1.1l-3.3,1.8l-2.9,2.3l-2.4,2.9l-1.8,3.3l-1.1,3.5l-0.3,2.5h17.7
  				L390.5,34.5L390.5,34.5z M33.9,34.5v17.6h17.7l-0.3-2.5l-1.1-3.5l-1.8-3.3l-2.4-2.9l-2.9-2.3L40,35.8l-3.6-1.1L33.9,34.5z
  				 M392.9,34.5v17.6h17.7l-0.3-2.5l-1.1-3.5l-1.8-3.3l-2.4-2.9l-2.9-2.3l-3.3-1.8l-3.6-1.1L392.9,34.5z M158.4,16.2l-2.5,0.3
  				l-2.3,1l-2,1.5l-1.5,2l-1,2.3l-0.3,2.5v4.7l0.3,2.5l1,2.3l0.3,0.3l-15.5,15.4h-4.1h-0.3h-0.9l-0.9-1V39.5l1.2-0.5l2.1,0.8
  				l2.5,0.3l2.5-0.3l2.3-1l2-1.5l1.5-2l1-2.3l0.3-2.5v-4.7l-0.3-2.5l-1-2.3l-1.5-2l-2-1.5l-2.3-1l-2.5-0.3l-2.5,0.3l-2.3,1l-2,1.5
  				l-1.5,2l-1,2.3l-0.3,2.5v4.7l0.2,1.3l-0.4,0.4l-0.5,0.8l-0.2,0.9v16.3l-0.7,0.7l-1.3,0l-0.7-0.8V34l-0.2-0.9l-0.5-0.8l-0.4-0.4
  				l0.2-1.3v-4.7l-0.3-2.5l-1-2.3l-1.5-2l-2-1.5l-2.3-1l-2.5-0.3l-2.5,0.3l-2.3,1l-2,1.5l-1.5,2l-1,2.3l-0.3,2.5v4.7l0.3,2.5l1,2.3
  				l1.5,2l2,1.5l2.3,1l2.5,0.3l2.5-0.3l2.1-0.8l1.2,0.5v10.8l-0.8,0.8h-0.9h-0.3h-4.1L94.7,35.7l0.3-0.3l1-2.3l0.3-2.5v-4.7
  				l-0.3-2.5l-1-2.3l-1.5-2l-2-1.5l-2.3-1l-2.5-0.3l-2.5,0.3l-2.3,1l-2,1.5l-1.5,2l-1,2.3l-0.3,2.5v4.7l0.3,2.5l1,2.3l1.5,2l2,1.5
  				l2.3,1l2.5,0.3l2.5-0.3l2-0.8l16.8,16.7v6.7h6.3h0.3h0.9h0.3h6.1h0.3h0.9h0.3h6.1h0.3h0.9h0.3h6.3v-6.7L153.9,39l2,0.8l2.5,0.3
  				l2.5-0.3l2.3-1l2-1.5l1.5-2l1-2.3l0.3-2.5v-4.7l-0.3-2.5l-1-2.3l-1.5-2l-2-1.5l-2.3-1L158.4,16.2z M254.1,16.2l-2.5,0.3l-2.3,1
  				l-2,1.5l-1.5,2l-1,2.3l-0.3,2.5v4.7l0.3,2.5l1,2.3l0.3,0.3l-15.5,15.4h-4.1h-0.3h-0.9l-0.9-1V39.5l1.2-0.5l2.1,0.8l2.5,0.3
  				l2.5-0.3l2.3-1l2-1.5l1.5-2l1-2.3l0.3-2.5v-4.7l-0.3-2.5l-1-2.3l-1.5-2l-2-1.5l-2.3-1l-2.5-0.3l-2.5,0.3l-2.3,1l-2,1.5l-1.5,2
  				l-1,2.3l-0.3,2.5v4.7l0.2,1.3l-0.4,0.4l-0.5,0.8l-0.2,0.9v16.3l-0.7,0.7l-1.3,0l-0.7-0.8V34l-0.2-0.9l-0.5-0.8l-0.4-0.4l0.2-1.3
  				v-4.7l-0.3-2.5l-1-2.3l-1.5-2l-2-1.5l-2.3-1l-2.5-0.3l-2.5,0.3l-2.3,1l-2,1.5l-1.5,2l-1,2.3l-0.3,2.5v4.7l0.3,2.5l1,2.3l1.5,2
  				l2,1.5l2.3,1l2.5,0.3l2.5-0.3l2.1-0.8l1.2,0.5v10.8l-0.9,0.8h-0.9h-0.3h-4.1l-15.5-15.4l0.3-0.3l1-2.3l0.3-2.5v-4.7l-0.3-2.5
  				l-1-2.3l-1.5-2l-2-1.5l-2.3-1l-2.5-0.3l-2.5,0.3l-2.3,1l-2,1.5l-1.5,2l-1,2.3l-0.3,2.5v4.7l0.3,2.5l1,2.3l1.5,2l2,1.5l2.3,1
  				l2.5,0.3l2.5-0.3l2-0.8l16.8,16.7v6.7h6.3h0.3h0.9h0.3h6.1h0.3h0.9h0.3h6.1h0.3h0.9h0.3h6.3v-6.7L249.6,39l2,0.8l2.5,0.3l2.5-0.3
  				l2.3-1l2-1.5l1.5-2l1-2.3l0.3-2.5v-4.7l-0.3-2.5l-1-2.3l-1.5-2l-2-1.5l-2.3-1L254.1,16.2z M349.8,16.2l-2.5,0.3l-2.3,1l-2,1.5
  				l-1.5,2l-1,2.3l-0.3,2.5v4.7l0.3,2.5l1,2.3l0.8,1l-14.7,14.7h-5.3h-0.3H321l-0.7-1V39.7l1.2-0.6l1.9,0.8l2.5,0.3l2.5-0.3l2.3-1
  				l2-1.5l1.5-2l1-2.3l0.3-2.5v-4.7l-0.3-2.5l-1-2.3l-1.5-2l-2-1.5l-2.3-1l-2.5-0.3l-2.5,0.3l-2.3,1l-2,1.5l-1.5,2l-1,2.3l-0.3,2.5
  				v4.7l0.2,1.3l-0.3,0.3l-0.5,0.8l-0.2,0.9v16.4l-0.8,0.8l-1.2-0.1l-0.6-1V34.2l-0.2-0.9l-0.5-0.8l-0.6-0.6l0.2-1.3v-4.7l-0.3-2.5
  				l-1-2.3l-1.5-2l-2-1.5l-2.3-1l-2.5-0.3l-2.5,0.3l-2.3,1l-2,1.5l-1.5,2l-1,2.3l-0.3,2.5v4.7l0.3,2.5l1,2.3l1.5,2l2,1.5l2.3,1
  				l2.5,0.3l2.5-0.3l2.3-1l0,0l1.1,0.5v10.9l-0.8,0.8H306h-0.3h-5l-14.9-14.9l0.6-0.8l1-2.3l0.3-2.5v-4.7l-0.3-2.5l-1-2.3l-1.5-2
  				l-2-1.5l-2.3-1l-2.5-0.3l-2.5,0.3l-2.3,1l-2,1.5l-1.5,2l-1,2.3l-0.3,2.5v4.7l0.3,2.5l1,2.3l1.5,2l2,1.5l2.3,1l2.5,0.3l2.5-0.3
  				l1.4-0.6l17.4,17.3v5.8h6.3h0.3h0.9h0.3h6h0.3h0.9h0.3h6h0.3h0.9h0.3h6.3V57l17.6-17.6l1.1,0.5l2.5,0.3l2.5-0.3l2.3-1l2-1.5
  				l1.5-2l1-2.3l0.3-2.5v-4.7l-0.3-2.5l-1-2.3l-1.5-2l-2-1.5l-2.3-1L349.8,16.2z M413.2,15.8v195.1h0l-0.2,1.8l-0.7,1.7l-1.1,1.5
  				l-1,0.8l-395,0.5l-0.3-0.1l-1.5-1.1l-1.1-1.5l-0.7-1.7l-0.2-1.8h0V15.1h0l0.1-0.5h400.9L413.2,15.8z"/>
  			<polygon points="280.6,103.4 275.1,108.9 274.6,109.7 274.4,110.6 274.4,125 273.2,125.4 272.6,124.5 271.4,123.7 
  				269.9,123.4 267.9,123.4 267.9,107.5 273,102.3 280.1,102.3"/>
  			<polygon points="218.3,79.4 219.5,80.1 219.5,89.3 219.7,90.2 220.2,91 226.7,97.5 226.7,106.2 226.4,106.4 
  				226.1,106.9 224.6,106.9 224.3,106.4 223.1,105.6 221.6,105.3 220.9,105.5 220.4,105 220.1,104.4 220.3,103 220,101.4 
  				219.1,100.1 217.8,99.2 216.2,98.9 214.7,99.2 213.3,100.1 212.4,101.4 212.1,103 212.2,103.6 211.8,104.2 211.6,105.2 
  				211.6,106.2 211.3,106.4 211,106.9 209.9,106.9 209.2,105.9 209.6,105.3 209.9,103.7 209.6,102.2 208.7,100.9 207.4,100 
  				207.1,99.9 207.2,98.7 211,98.7 211.9,98.5 212.7,98 216.1,94.6 216.7,93.8 216.9,92.9 216.9,80.1 217.7,79.4"/>
  			<path d="M250.5,151.2h-3.2l0.1,0.6l1,1.5l1.5,1l0.6,0.1L250.5,151.2L250.5,151.2z M250.5,145.6l-0.6,0.1l-1.5,1
  				l-1,1.5l-0.1,0.6h3.2L250.5,145.6L250.5,145.6z M217.8,139.3h-3.2v3.2l0.6-0.1l1.5-1l1-1.5L217.8,139.3z M268.6,99.8l-4.9,4.9
  				l-0.5,0.8l-0.2,0.9v16.9h-2l-1.5,0.3l-1.3,0.8l-0.8,1.3l-0.3,1.5l0.3,1.5l0.8,1.3l0.5,0.3v1.4l-0.5,0.3l-0.8,1.3l-0.3,1.5
  				l0.3,1.5l0.8,1.3l0.5,0.3v1.4l-0.5,0.3l-0.8,1.3l-0.3,1.5l0.3,1.5l0.5,0.7l-0.1,1.5l-0.3,0.2l-0.8,1.1h-1.2l-0.4-0.6l-1.5-1
  				l-0.6-0.1v4.4v4.4l0.6-0.1l1.5-1l0.5-0.8h1.2l0.6,1l0.4,0.2l0.1,1.5l-0.5,0.7l-0.3,1.5l0.3,1.5l0.8,1.3l0.5,0.3v1.4l-0.5,0.3
  				l-0.8,1.3l-0.3,1.5l0.3,1.5l0.8,1.3l0.5,0.3v1.4l-0.5,0.3l-0.8,1.3l-0.3,1.5l0.3,1.5l0.8,1.3l0.5,0.3v1.1l-0.9,0.9h-2.6l-2.9-2.9
  				l0-1.3l0.9-1.3l0.3-1.6l-0.3-1.6l-0.9-1.3l-1.3-0.9l-1.6-0.3l-1.6,0.3l-0.5,0.3l-1.3-0.5l-0.9-1.3l-1.3-0.9l-1.6-0.3l-1.6,0.3
  				l-1.3,0.9l-0.9,1.3L238,168l0.3,1.6l0.7,1.1l0,0.5l-0.1,0.1l-1,0.8l-1.1-0.2l-1.6,0.3L234,173l-0.9,1.3l-0.3,1.6l0.3,1.6l0.9,1.3
  				l1.3,0.9l1.6,0.3l1.6-0.3l1.1-0.7l2.5,2.5v4.5l-0.6,0.4l-0.3,0.5h-1.4l-0.3-0.5l-1.3-0.8l-1.5-0.3l-1.5,0.3l-1.3,0.8l-0.3,0.5
  				h-1.4l-0.3-0.5l-1.3-0.8l-1.5-0.3l-1.5,0.3l-1.3,0.8l-0.3,0.5h-1.4l-0.3-0.5l-1.3-0.8l-1.5-0.3l-1.5,0.3l-1.3,0.8l-0.3,0.5h-1.1
  				l-0.9-0.9v-3.2l-0.2-0.9l-0.5-0.8l-4.7-4.7v-33l1.1-0.8v-4.4h1.2V137h4.4l-0.1-0.6l-1-1.5l-1.5-1l-0.8-0.1l-0.9-1.3l0.1-0.2
  				l-0.3-1.3l-0.7-1.1l-1.1-0.7l-1.3-0.3l-1.3,0.3l-0.9-0.8l-0.1-0.7l0.1-0.2l0.3-1.3l-0.3-1.3l-0.7-1.1l-1.1-0.7l0.2-1.1l1.5-0.3
  				l1.3-0.8l0.3-0.5h1.4l0.3,0.5l1.3,0.8l1.5,0.3l1.5-0.3l1.3-0.8l0,0l1-0.1l0.3,0.1l0.4,0.8l-0.2,1l0.3,1.3l0.7,1.1l1.1,0.7
  				l1.3,0.3l1.3-0.3l1.1-0.7l0.7-1.1l0.3-1.3l-0.2-1l0.2-0.4l0.6-0.2l0.8-0.1l1.1,0.8l1.5,0.3l1.5-0.3l1.3-0.8l0.3-0.5h1.4l0.3,0.5
  				l1.3,0.8l1.5,0.3l1.5-0.3l1.3-0.8l0.3-0.5h1.4l0.3,0.5l1.3,0.8l1.5,0.3l1.5-0.3l1.3-0.8l0.3-0.5h1.4l0.3,0.5l1.3,0.8l1.5,0.3
  				l1.5-0.3l1.3-0.8l0.8-1.3l0.3-1.5v-8.9l-0.3-1.5l-0.8-1.3l-0.3-0.2v-3.1l4.5-4.5h9.5L268.6,99.8z"/>
      </g>
      <g class="st3">
        <polyline points="214.1,113.6 214.1,105.2 216.2,103       "/>
        <line x1="221.8" y1="122.5" x2="221.8" y2="113.5"/>
        <polyline points="206.9,91 206.9,73.7 206.9,73.2 206.5,72.9 206.9,72.5      "/>
        <polyline points="229.5,72.5 229.5,90.9 236.7,98 236.7,113.6      "/>
        <line x1="118.9" y1="147.5" x2="137.9" y2="147.5"/>
        <polyline points="265.4,179.9 254.1,179.9 249.3,175.1 249.3,170.3       "/>
        <line x1="281.6" y1="148.8" x2="294" y2="148.8"/>
        <line x1="251.7" y1="150" x2="265.2" y2="150"/>
        <polyline points="199,113.6 199,102.3 205,96.3 211,96.3 214.4,92.9 214.4,73.7       "/>
        <polyline points="229.1,113.6 229.1,96.5 222,89.3 222,72.5      "/>
        <line x1="137.9" y1="147.5" x2="139.2" y2="148.8"/>
        <line x1="152.4" y1="157.2" x2="152.5" y2="157"/>
        <line x1="164.3" y1="157.2" x2="164.3" y2="157.2"/>
        <line x1="321.7" y1="160.7" x2="327.4" y2="166.4"/>
        <polyline points="205.8,103.7 206.5,104.5 206.5,113.6       "/>
        <polyline points="365,136.9 347.4,136.9 341.4,142.8 341.4,188.1 346.3,193       "/>
        <polyline points="398.9,129.7 379.7,148.8 365,148.8       "/>
        <polyline points="398.9,177.4 382.1,160.7 365,160.7       "/>
  			<line x1="229.1" y1="203.9" x2="229.1" y2="193.5"/>
  			<line x1="229.1" y1="203.9" x2="233.7" y2="208.5"/>
  			<polyline points="118.7,55.6 118.7,34 110.5,25.9"/>
  			<line x1="152.5" y1="157" x2="152.5" y2="146.4"/>
  			<polyline points="214.4,55.6 214.4,34 206.2,25.9"/>
  			<polyline points="310.3,56.7 310.3,34.2 302,25.9"/>
  			<line x1="327.4" y1="198.6" x2="327.4" y2="166.4"/>
  			<polyline points="214.1,193.5 214.1,182.6 208.6,177.2 208.6,133.7 210.3,132.1"/>
  			<polyline points="134.4,25.9 126.2,34 126.2,55.6"/>
  			<line x1="185.3" y1="164.8" x2="194.9" y2="164.8"/>
  			<polyline points="230.1,25.9 222,34 222,55.6"/>
  			<polyline points="302.8,73.6 302.8,84.7 294.8,92.7 252.9,92.7 244.2,101.4 244.2,113.6"/>
  			<line x1="317.5" y1="208.5" x2="327.4" y2="198.6"/>
  			<polyline points="325.9,25.9 317.9,33.9 317.9,56.7"/>
  			<polyline points="115.6,157.2 115.6,170 102.1,183.4 89,183.4"/>
  			<polyline points="152.3,173.8 140.1,186 140.1,193"/>
  			<polyline points="108.1,129.7 108.5,150.1 115.9,157.5 164.3,157.2 172,164.8 194.9,164.8 197.9,161.9 197.9,153.6 
  				194.1,149.8 185.3,149.8"/>
  			<line x1="111.2" y1="55.6" x2="86.6" y2="31.1"/>
  			<line x1="182.3" y1="31.1" x2="206.9" y2="55.6"/>
  			<polyline points="265.4,172.4 274.7,172.4 280.5,166.6 292.4,166.6 292.4,186.8"/>
  			<line x1="278" y1="32" x2="302.8" y2="56.7"/>
  			<line x1="325.4" y1="56.7" x2="349.8" y2="32.3"/>
  			<polyline points="205,126.1 205,179.8 206.5,181.3 206.5,193.5"/>
  			<polyline points="185.3,179.9 185.3,188.7 178.6,195.4 169.2,195.4 157.3,207.3 140.1,207.3"/>
  			<polyline points="184.1,126.1 154.7,126.1 118.7,90.1 118.7,73.7"/>
        <line x1="233.7" y1="208.5" x2="317.5" y2="208.5"/>
        <polyline points="236.7,193.5 236.7,201.8 239.8,204.9 315.1,204.9 323.5,196.5 323.5,184.1 317.9,178.5 
          317.9,172.7"/>
        <line x1="155.1" y1="172.4" x2="185.3" y2="172.4"/>
        <polyline points="191.9,116.6 156.3,116.6 133.8,94.1 133.8,73.7"/>
        <polyline points="126.2,73.7 126.2,91.7 156.9,122.3 191.9,122.3 201.4,131.8 201.4,163.4 199,165.9 199,193.5       
          "/>
        <polyline points="184.1,133.6 156.3,133.6 111.2,88.6 111.2,73.7"/>
        <line x1="133.8" y1="55.6" x2="158.4" y2="31.1"/>
        <polyline points="221.6,193.5 221.6,203.5 230.1,212.1 319,212.1 331,200.1 331,140.2 327.6,136.9 317.9,136.9       
          "/>
        <line x1="229.5" y1="55.6" x2="254.1" y2="31.1"/>
        <polyline points="310.3,73.6 310.3,82.2 296.3,96.3 257.7,96.3 251.8,102.2 251.8,113.6"/>
        <polyline points="317.9,73.6 317.9,80.4 298.4,99.9 272,99.9 265.4,106.5 265.4,127.3"/>
        <polyline points="325.4,78 299.8,103.4 284,103.4 276.8,110.6 276.8,130.6 272.6,134.8 265.4,134.8"/>
        <polyline points="251.8,193.5 251.8,182.6 242.1,173 242.1,167.9"/>
        <polyline points="244.5,193.2 244.5,180.4 239.9,175.8 236.9,175.8"/>
        <polyline points="195.4,142.8 194.9,142.3 185.3,142.3 170.8,142.3 166.6,146.4 177.6,157.3 185.3,157.3"/>
      </g>
  		<line class="st4" x1="32.7" y1="129.7" x2="117.8" y2="129.7"/>
		</g>
	</g>
	<g>
		<g class="st5">
			<path class="st6" d="M122.9,207.3c0-1.6-1.3-2.8-2.8-2.8c-1.6,0-2.8,1.3-2.8,2.8c0,1.6,1.3,2.8,2.8,2.8
				C121.6,210.1,122.9,208.8,122.9,207.3"/>
			<path class="st6" d="M122.9,193c0-1.6-1.3-2.8-2.8-2.8c-1.6,0-2.8,1.3-2.8,2.8c0,1.6,1.3,2.8,2.8,2.8
				C121.6,195.8,122.9,194.5,122.9,193"/>
			<path class="st6" d="M239.7,175.8c0-1.6-1.3-2.8-2.8-2.8s-2.8,1.3-2.8,2.8s1.3,2.8,2.8,2.8C238.5,178.6,239.7,177.4,239.7,175.8"
				/>
			<path class="st6" d="M244.9,167.9c0-1.6-1.3-2.8-2.8-2.8s-2.8,1.3-2.8,2.8c0,1.6,1.3,2.8,2.8,2.8S244.9,169.5,244.9,167.9"/>
			<path class="st6" d="M252.1,170.3c0-1.6-1.3-2.8-2.8-2.8s-2.8,1.3-2.8,2.8s1.3,2.8,2.8,2.8S252.1,171.8,252.1,170.3"/>
			<path class="st6" d="M142.3,148.8c0-1.7-1.4-3.1-3.1-3.1s-3.1,1.4-3.1,3.1s1.4,3.1,3.1,3.1S142.3,150.5,142.3,148.8"/>
			<path class="st6" d="M92.3,183.4c0-1.8-1.5-3.3-3.3-3.3s-3.3,1.5-3.3,3.3s1.5,3.3,3.3,3.3C90.8,186.7,92.3,185.2,92.3,183.4"/>
			<path class="st6" d="M344.7,182.2c0-1.8-1.5-3.3-3.3-3.3c-1.8,0-3.3,1.5-3.3,3.3c0,1.8,1.5,3.3,3.3,3.3S344.7,184,344.7,182.2"/>
			<path class="st6" d="M253.8,150c0-1.2-0.9-2.1-2.1-2.1s-2.1,0.9-2.1,2.1s0.9,2.1,2.1,2.1S253.8,151.2,253.8,150"/>
			<path class="st6" d="M283.7,148.8c0-1.2-1-2.1-2.1-2.1c-1.2,0-2.1,0.9-2.1,2.1s1,2.1,2.1,2.1C282.8,150.9,283.7,150,283.7,148.8"
				/>
			<path class="st6" d="M295.2,186.8c0-1.6-1.3-2.8-2.8-2.8s-2.8,1.3-2.8,2.8s1.3,2.8,2.8,2.8C293.9,189.7,295.2,188.4,295.2,186.8"
				/>
			<path class="st6" d="M198.3,142.8c0-1.6-1.3-2.8-2.8-2.8s-2.8,1.3-2.8,2.8s1.3,2.8,2.8,2.8S198.3,144.4,198.3,142.8"/>
			<path class="st6" d="M144.4,172.7c0-1.6-1.3-2.8-2.8-2.8s-2.8,1.3-2.8,2.8s1.3,2.8,2.8,2.8C143.2,175.5,144.4,174.2,144.4,172.7"
				/>
			<path class="st6" d="M215.5,138.1c0-1.2-0.9-2.1-2.1-2.1s-2.1,0.9-2.1,2.1s0.9,2.1,2.1,2.1S215.5,139.2,215.5,138.1"/>
			<path class="st6" d="M207.1,126.1c0-1.1-0.9-2-2-2s-2,0.9-2,2c0,1.1,0.9,2,2,2C206.1,128.2,207.1,127.2,207.1,126.1"/>
			<path class="st6" d="M193.9,116.6c0-1.1-0.9-2-2-2s-2,0.9-2,2c0,1.1,0.9,2,2,2C193,118.6,193.9,117.7,193.9,116.6"/>
			<path class="st6" d="M212.3,132.1c0-1.1-0.9-2-2-2s-2,0.9-2,2s0.9,2,2,2C211.4,134.1,212.3,133.2,212.3,132.1"/>
			<path class="st6" d="M208.9,91c0-1.1-0.9-2-2-2s-2,0.9-2,2c0,1.1,0.9,2,2,2C208,93,208.9,92.1,208.9,91"/>
			<path class="st6" d="M208.6,103.7c0-1.6-1.3-2.8-2.8-2.8s-2.8,1.3-2.8,2.8s1.3,2.8,2.8,2.8C207.4,106.6,208.6,105.3,208.6,103.7"
				/>
			<path class="st6" d="M219.1,103c0-1.6-1.3-2.8-2.8-2.8s-2.8,1.3-2.8,2.8s1.3,2.8,2.8,2.8S219.1,104.6,219.1,103"/>
			<path class="st6" d="M223.9,122.5c0-1.2-0.9-2.1-2.1-2.1s-2.1,0.9-2.1,2.1c0,1.2,0.9,2.1,2.1,2.1
				C222.9,124.7,223.9,123.7,223.9,122.5"/>
			<line class="st7" x1="292.4" y1="166.6" x2="292.4" y2="166.6"/>
		</g>
	</g>
	<g>
		<line class="st8" x1="184.1" y1="126.1" x2="185.3" y2="127.3"/>
		<line class="st8" x1="184.1" y1="133.6" x2="185.3" y2="134.8"/>
		<line class="st9" x1="199" y1="198" x2="199" y2="189"/>
		<line class="st9" x1="199" y1="118.1" x2="199" y2="109.2"/>
		<line class="st9" x1="214.1" y1="198" x2="214.1" y2="189"/>
		<line class="st9" x1="214.1" y1="118.1" x2="214.1" y2="109.2"/>
		<line class="st9" x1="236.7" y1="198" x2="236.7" y2="189"/>
		<line class="st9" x1="229.1" y1="198" x2="229.1" y2="189"/>
		<line class="st9" x1="229.1" y1="118.1" x2="229.1" y2="109.2"/>
		<line class="st9" x1="236.7" y1="118.1" x2="236.7" y2="109.2"/>
		<line class="st9" x1="251.8" y1="198" x2="251.8" y2="189"/>
		<line class="st9" x1="251.8" y1="118.1" x2="251.8" y2="109.2"/>
		<line class="st9" x1="180.9" y1="179.9" x2="189.8" y2="179.9"/>
		<line class="st9" x1="180.9" y1="164.8" x2="189.8" y2="164.8"/>
		<line class="st9" x1="180.9" y1="157.3" x2="189.8" y2="157.3"/>
		<line class="st9" x1="180.9" y1="149.8" x2="189.8" y2="149.8"/>
		<line class="st9" x1="180.9" y1="142.3" x2="189.8" y2="142.3"/>
		<line class="st9" x1="180.9" y1="127.3" x2="189.8" y2="127.3"/>
		<line class="st9" x1="260.9" y1="179.9" x2="269.9" y2="179.9"/>
		<line class="st9" x1="260.9" y1="157.3" x2="269.9" y2="157.3"/>
		<line class="st9" x1="260.9" y1="164.8" x2="269.9" y2="164.8"/>
		<line class="st9" x1="260.9" y1="142.3" x2="269.9" y2="142.3"/>
		<line class="st9" x1="260.9" y1="149.8" x2="269.9" y2="149.8"/>
		<line class="st9" x1="260.9" y1="127.3" x2="269.9" y2="127.3"/>
		<line class="st9" x1="221.6" y1="198" x2="221.6" y2="189"/>
		<line class="st9" x1="206.5" y1="198" x2="206.5" y2="189"/>
		<line class="st9" x1="180.9" y1="172.4" x2="189.8" y2="172.4"/>
		<line class="st9" x1="206.5" y1="118.1" x2="206.5" y2="109.2"/>
		<line class="st9" x1="221.6" y1="118.1" x2="221.6" y2="109.2"/>
		<line class="st9" x1="180.9" y1="134.8" x2="189.8" y2="134.8"/>
		<line class="st9" x1="260.9" y1="172.4" x2="269.9" y2="172.4"/>
		<line class="st9" x1="244.2" y1="198" x2="244.2" y2="189"/>
		<line class="st9" x1="244.2" y1="118.1" x2="244.2" y2="109.2"/>
		<line class="st9" x1="260.9" y1="134.8" x2="269.9" y2="134.8"/>
		<rect x="116.6" y="52.3" class="st10" width="4.2" height="8.9"/>
		<rect x="116.6" y="69.2" class="st10" width="4.2" height="8.9"/>
		<rect x="131.6" y="52.3" class="st10" width="4.2" height="8.9"/>
		<rect x="131.6" y="69.2" class="st10" width="4.2" height="8.9"/>
		<rect x="212.3" y="69.2" class="st10" width="4.2" height="8.9"/>
		<rect x="212.3" y="52.3" class="st10" width="4.2" height="8.9"/>
		<rect x="227.4" y="69.2" class="st10" width="4.2" height="8.9"/>
		<rect x="227.4" y="52.3" class="st10" width="4.2" height="8.9"/>
		<rect x="308" y="69.2" class="st10" width="4.2" height="8.9"/>
		<rect x="308" y="52.3" class="st10" width="4.2" height="8.9"/>
		<rect x="323.1" y="69.2" class="st10" width="4.2" height="8.9"/>
		<rect x="323.1" y="52.3" class="st10" width="4.2" height="8.9"/>
		<rect x="124.1" y="52.3" class="st10" width="4.2" height="8.9"/>
		<rect x="109" y="52.3" class="st10" width="4.2" height="8.9"/>
		<rect x="124.1" y="69.2" class="st10" width="4.2" height="8.9"/>
		<rect x="109" y="69.2" class="st10" width="4.2" height="8.9"/>
		<rect x="204.8" y="69.2" class="st10" width="4.2" height="8.9"/>
		<rect x="219.8" y="69.2" class="st10" width="4.2" height="8.9"/>
		<rect x="204.8" y="52.3" class="st10" width="4.2" height="8.9"/>
		<rect x="219.8" y="52.3" class="st10" width="4.2" height="8.9"/>
		<rect x="300.5" y="69.2" class="st10" width="4.2" height="8.9"/>
		<rect x="300.5" y="52.3" class="st10" width="4.2" height="8.9"/>
		<rect x="315.6" y="69.2" class="st10" width="4.2" height="8.9"/>
		<rect x="315.6" y="52.3" class="st10" width="4.2" height="8.9"/>
		<rect x="113" y="143.7" class="st10" width="11.8" height="7.5"/>
		<rect x="113" y="124.9" class="st10" width="11.8" height="7.5"/>
		<rect x="120.7" y="203.3" class="st10" width="6.6" height="8"/>
		<rect x="120.7" y="189" class="st10" width="6.6" height="8"/>
		<rect x="136.8" y="203.3" class="st10" width="6.6" height="8"/>
		<rect x="136.8" y="189" class="st10" width="6.6" height="8"/>
		<rect x="285.8" y="147.3" class="st10" width="13.2" height="10.3"/>
		<rect x="341.1" y="186.4" class="st10" width="10.4" height="13.2"/>
		<rect x="285.8" y="161.4" class="st10" width="13.2" height="10.3"/>
		<rect x="120.7" y="158.1" class="st10" width="13.2" height="10.3"/>
		<rect x="357.9" y="157" class="st10" width="14.2" height="7.5"/>
		<rect x="357.9" y="145" class="st10" width="14.2" height="7.5"/>
		<rect x="120.7" y="172.2" class="st10" width="13.2" height="10.3"/>
		<rect x="164.1" y="189.3" class="st10" width="10.4" height="12.2"/>
		<rect x="164.1" y="167.7" class="st10" width="10.4" height="12.2"/>
		<rect x="161.4" y="139.8" class="st10" width="10.4" height="13.2"/>
		<rect x="355.3" y="186.4" class="st10" width="10.4" height="13.2"/>
		<rect x="357.9" y="168.9" class="st10" width="14.2" height="7.5"/>
		<rect x="357.9" y="133.1" class="st10" width="14.2" height="7.5"/>
		<rect x="310.8" y="157" class="st10" width="14.2" height="7.5"/>
		<rect x="310.8" y="145" class="st10" width="14.2" height="7.5"/>
		<rect x="147.1" y="189.3" class="st10" width="10.4" height="12.2"/>
		<rect x="147.1" y="167.7" class="st10" width="10.4" height="12.2"/>
		<rect x="147.3" y="139.8" class="st10" width="10.4" height="13.2"/>
		<rect x="310.8" y="168.9" class="st10" width="14.2" height="7.5"/>
		<rect x="310.8" y="133.1" class="st10" width="14.2" height="7.5"/>
		<line class="st11" x1="32.7" y1="53.3" x2="32.7" y2="53.3"/>
		<line class="st11" x1="391.7" y1="53.3" x2="391.7" y2="53.3"/>
	</g>
	<g>
		<line class="st12" x1="32.7" y1="177.4" x2="37.4" y2="177.4"/>
		<line class="st12" x1="32.7" y1="129.7" x2="37.4" y2="129.7"/>
		<line class="st12" x1="394.2" y1="177.4" x2="398.9" y2="177.4"/>
		<line class="st12" x1="394.2" y1="129.7" x2="398.9" y2="129.7"/>
		<line class="st13" x1="86.6" y1="31.1" x2="86.6" y2="25.9"/>
		<line class="st13" x1="158.4" y1="31.1" x2="158.4" y2="25.9"/>
		<line class="st13" x1="182.3" y1="31.1" x2="182.3" y2="25.9"/>
		<line class="st13" x1="254.1" y1="31.1" x2="254.1" y2="25.9"/>
		<line class="st13" x1="278" y1="32" x2="278" y2="25.9"/>
		<line class="st13" x1="349.8" y1="32.3" x2="349.8" y2="25.9"/>
		<line class="st12" x1="134.4" y1="30.6" x2="134.4" y2="25.9"/>
		<line class="st12" x1="110.5" y1="30.6" x2="110.5" y2="25.9"/>
		<line class="st12" x1="182.3" y1="30.6" x2="182.3" y2="25.9"/>
		<line class="st12" x1="206.2" y1="30.6" x2="206.2" y2="25.9"/>
		<line class="st12" x1="278" y1="30.6" x2="278" y2="25.9"/>
		<line class="st12" x1="254.1" y1="30.6" x2="254.1" y2="25.9"/>
		<line class="st12" x1="349.8" y1="30.6" x2="349.8" y2="25.9"/>
		<line class="st12" x1="325.9" y1="30.6" x2="325.9" y2="25.9"/>
		<line class="st12" x1="86.6" y1="30.6" x2="86.6" y2="25.9"/>
		<line class="st12" x1="158.4" y1="30.6" x2="158.4" y2="25.9"/>
		<line class="st12" x1="302" y1="30.6" x2="302" y2="25.9"/>
		<line class="st12" x1="230.1" y1="30.6" x2="230.1" y2="25.9"/>
	</g>
	<g>
		<line class="st14" x1="8.8" y1="210.9" x2="8.8" y2="15.1"/>
		<line class="st14" x1="415.6" y1="210.9" x2="415.6" y2="15.1"/>
		<line class="st14" x1="18.4" y1="220.4" x2="406" y2="220.4"/>
		<line class="st14" x1="18.4" y1="5.6" x2="406" y2="5.6"/>
		<path class="st14" d="M8.8,15.1c0-5.3,4.3-9.6,9.6-9.6"/>
		<path class="st14" d="M406,5.6c5.3,0,9.6,4.3,9.6,9.6"/>
		<path class="st14" d="M18.4,220.4c-5.3,0-9.6-4.3-9.6-9.6l0,0"/>
		<path class="st14" d="M415.6,210.9c0,5.3-4.3,9.6-9.6,9.6"/>
		<g class="st15">
			<line class="st16" x1="159.6" y1="151.1" x2="159.6" y2="141.7"/>
			<line class="st16" x1="154.9" y1="146.4" x2="164.3" y2="146.4"/>
			<line class="st16" x1="287.7" y1="159.5" x2="297.1" y2="159.5"/>
			<line class="st16" x1="292.4" y1="164.2" x2="292.4" y2="154.8"/>
			<line class="st16" x1="284.8" y1="146.4" x2="299.9" y2="146.4"/>
			<line class="st16" x1="127.3" y1="175" x2="127.3" y2="165.6"/>
			<line class="st16" x1="146.4" y1="153.9" x2="146.4" y2="138.9"/>
			<line class="st16" x1="172.8" y1="153.9" x2="172.8" y2="138.9"/>
			<line class="st16" x1="284.8" y1="172.7" x2="299.9" y2="172.7"/>
			<line class="st16" x1="353.4" y1="197.7" x2="353.4" y2="188.3"/>
			<line class="st16" x1="340.2" y1="200.5" x2="340.2" y2="185.4"/>
			<line class="st16" x1="341.4" y1="159.5" x2="341.4" y2="150.1"/>
			<line class="st16" x1="366.6" y1="200.5" x2="366.6" y2="185.4"/>
			<line class="st16" x1="119.7" y1="183.4" x2="119.7" y2="157.1"/>
			<line class="st16" x1="134.8" y1="183.4" x2="134.8" y2="157.1"/>
			<line class="st16" x1="299.9" y1="172.7" x2="299.9" y2="146.4"/>
			<line class="st16" x1="284.8" y1="172.7" x2="284.8" y2="146.4"/>
			<line class="st17" x1="306.8" y1="180.6" x2="306.8" y2="128.9"/>
			<line class="st17" x1="376" y1="180.6" x2="376" y2="128.9"/>
			<line class="st17" x1="176.1" y1="202.7" x2="176.1" y2="104.5"/>
			<line class="st17" x1="274.6" y1="202.7" x2="274.6" y2="104.5"/>
			<line class="st16" x1="119.7" y1="183.4" x2="134.8" y2="183.4"/>
			<line class="st16" x1="122.5" y1="170.3" x2="132" y2="170.3"/>
			<line class="st16" x1="119.7" y1="157.1" x2="134.8" y2="157.1"/>
			<line class="st16" x1="348.7" y1="193" x2="358.1" y2="193"/>
			<line class="st16" x1="340.2" y1="200.5" x2="366.6" y2="200.5"/>
			<line class="st16" x1="340.2" y1="185.4" x2="366.6" y2="185.4"/>
			<line class="st16" x1="336.7" y1="154.8" x2="346.1" y2="154.8"/>
			<line class="st16" x1="146.4" y1="138.9" x2="172.8" y2="138.9"/>
			<line class="st17" x1="306.8" y1="180.6" x2="376" y2="180.6"/>
			<line class="st17" x1="306.8" y1="128.9" x2="376" y2="128.9"/>
			<line class="st16" x1="146.4" y1="153.9" x2="172.8" y2="153.9"/>
			<line class="st17" x1="176.1" y1="202.7" x2="274.6" y2="202.7"/>
			<line class="st17" x1="176.1" y1="104.5" x2="274.6" y2="104.5"/>
			<line class="st16" x1="285.5" y1="169.9" x2="299.2" y2="169.9"/>
			<line class="st16" x1="285.5" y1="149.2" x2="299.2" y2="149.2"/>
			<line class="st16" x1="149.2" y1="153.2" x2="149.2" y2="139.6"/>
			<line class="st16" x1="169.9" y1="153.2" x2="169.9" y2="139.6"/>
			<line class="st16" x1="343" y1="199.8" x2="343" y2="186.1"/>
			<line class="st16" x1="363.8" y1="199.8" x2="363.8" y2="186.1"/>
			<line class="st16" x1="120.4" y1="180.6" x2="120.4" y2="159.9"/>
			<line class="st16" x1="134.1" y1="180.6" x2="134.1" y2="159.9"/>
			<line class="st16" x1="192.4" y1="186.5" x2="192.4" y2="120.7"/>
			<line class="st16" x1="258.3" y1="186.5" x2="258.3" y2="120.7"/>
			<line class="st16" x1="299.2" y1="169.9" x2="299.2" y2="149.2"/>
			<line class="st16" x1="285.5" y1="169.9" x2="285.5" y2="149.2"/>
			<line class="st16" x1="322.6" y1="178.3" x2="322.6" y2="131.3"/>
			<line class="st16" x1="360.3" y1="178.3" x2="360.3" y2="131.3"/>
			<line class="st16" x1="120.4" y1="180.6" x2="134.1" y2="180.6"/>
			<line class="st16" x1="120.4" y1="159.9" x2="134.1" y2="159.9"/>
			<line class="st16" x1="343" y1="199.8" x2="363.8" y2="199.8"/>
			<line class="st16" x1="343" y1="186.1" x2="363.8" y2="186.1"/>
			<line class="st16" x1="322.6" y1="178.3" x2="360.3" y2="178.3"/>
			<line class="st16" x1="322.6" y1="131.3" x2="360.3" y2="131.3"/>
			<line class="st16" x1="149.2" y1="139.6" x2="169.9" y2="139.6"/>
			<line class="st16" x1="149.2" y1="153.2" x2="169.9" y2="153.2"/>
			<line class="st16" x1="192.4" y1="186.5" x2="258.3" y2="186.5"/>
			<line class="st16" x1="192.4" y1="120.7" x2="258.3" y2="120.7"/>
			<path class="st16" d="M335.8,139.7c0-2.6-2.1-4.7-4.7-4.7s-4.7,2.1-4.7,4.7s2.1,4.7,4.7,4.7S335.8,142.3,335.8,139.7"/>
			<path class="st16" d="M205.6,129.1c0-2.6-2.1-4.7-4.7-4.7s-4.7,2.1-4.7,4.7c0,2.6,2.1,4.7,4.7,4.7S205.6,131.7,205.6,129.1"/>
			<line class="st18" x1="342.6" y1="156" x2="342.6" y2="156"/>
		</g>
	</g>
	<g>
		<line class="st19" x1="113.9" y1="139.9" x2="113.9" y2="136.2"/>
		<line class="st19" x1="123.8" y1="139.9" x2="123.8" y2="136.2"/>
		<line class="st19" x1="131.1" y1="204.2" x2="133" y2="204.2"/>
		<line class="st19" x1="131.1" y1="196" x2="133" y2="196"/>
		<line class="st19" x1="131.1" y1="189.9" x2="133" y2="189.9"/>
		<line class="st19" x1="131.1" y1="210.3" x2="133" y2="210.3"/>
		<line class="st19" x1="196.2" y1="182.7" x2="196.2" y2="124.4"/>
		<line class="st19" x1="254.6" y1="182.7" x2="254.6" y2="124.4"/>
		<line class="st19" x1="196.2" y1="182.7" x2="254.6" y2="182.7"/>
		<line class="st19" x1="196.2" y1="124.4" x2="254.6" y2="124.4"/>
		<line class="st20" x1="290.4" y1="135.3" x2="288.8" y2="136.9"/>
		<line class="st20" x1="288.8" y1="136.9" x2="288.8" y2="140"/>
		<line class="st20" x1="288.8" y1="140" x2="290.4" y2="141.6"/>
		<line class="st20" x1="290.4" y1="141.6" x2="296.8" y2="141.6"/>
		<line class="st20" x1="296.8" y1="141.6" x2="298.4" y2="140"/>
		<line class="st20" x1="298.4" y1="140" x2="298.4" y2="136.9"/>
		<line class="st20" x1="298.4" y1="136.9" x2="296.8" y2="135.3"/>
		<line class="st20" x1="298.4" y1="127.3" x2="288.8" y2="127.3"/>
		<line class="st20" x1="288.8" y1="127.3" x2="293.6" y2="132.1"/>
		<line class="st20" x1="293.6" y1="132.1" x2="293.6" y2="125.7"/>
		<line class="st20" x1="64.1" y1="25.1" x2="65.7" y2="23.5"/>
		<line class="st20" x1="65.7" y1="23.5" x2="68.9" y2="23.5"/>
		<line class="st20" x1="68.9" y1="23.5" x2="70.5" y2="25.1"/>
		<line class="st20" x1="70.5" y1="25.1" x2="70.5" y2="31.4"/>
		<line class="st20" x1="70.5" y1="31.4" x2="68.9" y2="33"/>
		<line class="st20" x1="68.9" y1="33" x2="65.7" y2="33"/>
		<line class="st20" x1="65.7" y1="33" x2="64.1" y2="31.4"/>
		<line class="st20" x1="64.1" y1="31.4" x2="64.1" y2="25.1"/>
		<line class="st20" x1="365.8" y1="33" x2="369" y2="33"/>
		<line class="st20" x1="369" y1="33" x2="367.4" y2="33"/>
		<line class="st20" x1="367.4" y1="33" x2="367.4" y2="23.5"/>
		<line class="st20" x1="367.4" y1="23.5" x2="367.4" y2="23.5"/>
		<line class="st20" x1="367.4" y1="23.5" x2="365.8" y2="25.1"/>
		<line class="st20" x1="373.8" y1="33" x2="377" y2="33"/>
		<line class="st20" x1="377" y1="33" x2="375.4" y2="33"/>
		<line class="st20" x1="375.4" y1="33" x2="375.4" y2="23.5"/>
		<line class="st20" x1="375.4" y1="23.5" x2="375.4" y2="23.5"/>
		<line class="st20" x1="375.4" y1="23.5" x2="373.8" y2="25.1"/>
		<line class="st20" x1="102.5" y1="188.6" x2="100.9" y2="187"/>
		<line class="st20" x1="100.9" y1="187" x2="97.7" y2="187"/>
		<line class="st20" x1="97.7" y1="187" x2="96.1" y2="188.6"/>
		<line class="st20" x1="96.1" y1="188.6" x2="96.1" y2="194.9"/>
		<line class="st20" x1="96.1" y1="194.9" x2="97.7" y2="196.5"/>
		<line class="st20" x1="97.7" y1="196.5" x2="100.9" y2="196.5"/>
		<line class="st20" x1="100.9" y1="196.5" x2="102.5" y2="194.9"/>
		<line class="st20" x1="112.1" y1="187" x2="108.9" y2="188.6"/>
		<line class="st20" x1="108.9" y1="188.6" x2="105.7" y2="191.8"/>
		<line class="st20" x1="105.7" y1="191.8" x2="105.7" y2="194.9"/>
		<line class="st20" x1="105.7" y1="194.9" x2="107.3" y2="196.5"/>
		<line class="st20" x1="107.3" y1="196.5" x2="110.5" y2="196.5"/>
		<line class="st20" x1="110.5" y1="196.5" x2="112.1" y2="194.9"/>
		<line class="st20" x1="112.1" y1="194.9" x2="112.1" y2="193.4"/>
		<line class="st20" x1="112.1" y1="193.4" x2="110.5" y2="191.8"/>
		<line class="st20" x1="110.5" y1="191.8" x2="105.7" y2="191.8"/>
		<line class="st20" x1="102.5" y1="202.9" x2="100.9" y2="201.3"/>
		<line class="st20" x1="100.9" y1="201.3" x2="97.7" y2="201.3"/>
		<line class="st20" x1="97.7" y1="201.3" x2="96.1" y2="202.9"/>
		<line class="st20" x1="96.1" y1="202.9" x2="96.1" y2="209.3"/>
		<line class="st20" x1="96.1" y1="209.3" x2="97.7" y2="210.9"/>
		<line class="st20" x1="97.7" y1="210.9" x2="100.9" y2="210.9"/>
		<line class="st20" x1="100.9" y1="210.9" x2="102.5" y2="209.3"/>
		<line class="st20" x1="105.7" y1="201.3" x2="112.1" y2="201.3"/>
		<line class="st20" x1="112.1" y1="201.3" x2="112.1" y2="202.9"/>
		<line class="st20" x1="112.1" y1="202.9" x2="105.7" y2="209.3"/>
		<line class="st20" x1="105.7" y1="209.3" x2="105.7" y2="210.9"/>
		<line class="st20" x1="113.8" y1="117.3" x2="113.8" y2="107.7"/>
		<line class="st20" x1="113.8" y1="107.7" x2="118.6" y2="107.7"/>
		<line class="st20" x1="118.6" y1="107.7" x2="120.2" y2="109.3"/>
		<line class="st20" x1="120.2" y1="109.3" x2="120.2" y2="112.5"/>
		<line class="st20" x1="120.2" y1="112.5" x2="118.6" y2="114.1"/>
		<line class="st20" x1="118.6" y1="114.1" x2="113.8" y2="114.1"/>
		<line class="st20" x1="117" y1="114.1" x2="120.2" y2="117.3"/>
		<line class="st20" x1="123.4" y1="117.3" x2="126.6" y2="117.3"/>
		<line class="st20" x1="126.6" y1="117.3" x2="125" y2="117.3"/>
		<line class="st20" x1="125" y1="117.3" x2="125" y2="107.7"/>
		<line class="st20" x1="125" y1="107.7" x2="125" y2="107.7"/>
		<line class="st20" x1="125" y1="107.7" x2="123.4" y2="109.3"/>
		<line class="st20" x1="181.1" y1="201.3" x2="190.7" y2="194.9"/>
		<line class="st20" x1="181.1" y1="194.9" x2="190.7" y2="201.3"/>
		<line class="st20" x1="190.7" y1="191.8" x2="190.7" y2="188.6"/>
		<line class="st20" x1="190.7" y1="188.6" x2="190.7" y2="190.2"/>
		<line class="st20" x1="190.7" y1="190.2" x2="181.1" y2="190.2"/>
		<line class="st20" x1="181.1" y1="190.2" x2="181.1" y2="190.2"/>
		<line class="st20" x1="181.1" y1="190.2" x2="182.7" y2="191.8"/>
		<line class="st21" x1="391" y1="156.4" x2="390.3" y2="157.2"/>
		<line class="st21" x1="390.3" y1="157.2" x2="390.3" y2="158.7"/>
		<line class="st21" x1="390.3" y1="158.7" x2="391" y2="159.5"/>
		<line class="st21" x1="391" y1="159.5" x2="394.2" y2="159.5"/>
		<line class="st21" x1="394.2" y1="159.5" x2="395" y2="158.7"/>
		<line class="st21" x1="395" y1="158.7" x2="395" y2="157.2"/>
		<line class="st21" x1="395" y1="157.2" x2="394.2" y2="156.4"/>
		<line class="st21" x1="390.3" y1="152.4" x2="390.3" y2="154"/>
		<line class="st21" x1="390.3" y1="154" x2="391" y2="154.8"/>
		<line class="st21" x1="391" y1="154.8" x2="394.2" y2="154.8"/>
		<line class="st21" x1="394.2" y1="154.8" x2="395" y2="154"/>
		<line class="st21" x1="395" y1="154" x2="395" y2="152.4"/>
		<line class="st21" x1="395" y1="152.4" x2="394.2" y2="151.6"/>
		<line class="st21" x1="394.2" y1="151.6" x2="391" y2="151.6"/>
		<line class="st21" x1="391" y1="151.6" x2="390.3" y2="152.4"/>
		<line class="st21" x1="395" y1="150" x2="390.3" y2="150"/>
		<line class="st21" x1="390.3" y1="150" x2="391.9" y2="148.4"/>
		<line class="st21" x1="391.9" y1="148.4" x2="390.3" y2="146.8"/>
		<line class="st21" x1="390.3" y1="146.8" x2="395" y2="146.8"/>
		<line class="st21" x1="403.6" y1="159.5" x2="400.5" y2="159.5"/>
		<line class="st21" x1="400.5" y1="159.5" x2="398.9" y2="158"/>
		<line class="st21" x1="398.9" y1="158" x2="400.5" y2="156.4"/>
		<line class="st21" x1="400.5" y1="156.4" x2="403.6" y2="156.4"/>
		<line class="st21" x1="403.6" y1="156.4" x2="401.3" y2="156.4"/>
		<line class="st21" x1="401.3" y1="156.4" x2="401.3" y2="159.5"/>
		<line class="st21" x1="401.3" y1="154.8" x2="401.3" y2="151.6"/>
		<line class="st21" x1="398.9" y1="150" x2="403.6" y2="150"/>
		<line class="st21" x1="403.6" y1="150" x2="403.6" y2="147.6"/>
		<line class="st21" x1="403.6" y1="147.6" x2="402.9" y2="146.8"/>
		<line class="st21" x1="402.9" y1="146.8" x2="402.1" y2="146.8"/>
		<line class="st21" x1="402.1" y1="146.8" x2="401.3" y2="147.6"/>
		<line class="st21" x1="401.3" y1="147.6" x2="401.3" y2="150"/>
		<line class="st21" x1="401.3" y1="150" x2="401.3" y2="150"/>
		<line class="st21" x1="401.3" y1="150" x2="401.3" y2="150"/>
		<line class="st21" x1="401.3" y1="150" x2="401.3" y2="150"/>
		<line class="st21" x1="401.3" y1="150" x2="401.3" y2="147.6"/>
		<line class="st21" x1="401.3" y1="147.6" x2="400.5" y2="146.8"/>
		<line class="st21" x1="400.5" y1="146.8" x2="399.7" y2="146.8"/>
		<line class="st21" x1="399.7" y1="146.8" x2="398.9" y2="147.6"/>
		<line class="st21" x1="398.9" y1="147.6" x2="398.9" y2="150"/>
		<line class="st20" x1="60.6" y1="140.9" x2="67" y2="140.9"/>
		<line class="st20" x1="63.8" y1="137.7" x2="63.8" y2="144.1"/>
		<line class="st20" x1="62.2" y1="150.6" x2="55.9" y2="150.6"/>
		<line class="st20" x1="55.9" y1="150.6" x2="55.9" y2="155.3"/>
		<line class="st20" x1="55.9" y1="155.3" x2="59" y2="153.7"/>
		<line class="st20" x1="59" y1="153.7" x2="60.6" y2="153.7"/>
		<line class="st20" x1="60.6" y1="153.7" x2="62.2" y2="155.3"/>
		<line class="st20" x1="62.2" y1="155.3" x2="62.2" y2="158.5"/>
		<line class="st20" x1="62.2" y1="158.5" x2="60.6" y2="160.1"/>
		<line class="st20" x1="60.6" y1="160.1" x2="57.5" y2="160.1"/>
		<line class="st20" x1="57.5" y1="160.1" x2="55.9" y2="158.5"/>
		<line class="st20" x1="65.4" y1="150.6" x2="65.4" y2="156.9"/>
		<line class="st20" x1="65.4" y1="156.9" x2="68.6" y2="160.1"/>
		<line class="st20" x1="68.6" y1="160.1" x2="71.8" y2="156.9"/>
		<line class="st20" x1="71.8" y1="156.9" x2="71.8" y2="150.6"/>
		<line class="st20" x1="60.6" y1="166.6" x2="67" y2="166.6"/>
		<line class="st20" x1="113.7" y1="168.3" x2="115.3" y2="166.7"/>
		<line class="st20" x1="115.3" y1="166.7" x2="115.3" y2="163.5"/>
		<line class="st20" x1="115.3" y1="163.5" x2="113.7" y2="161.9"/>
		<line class="st20" x1="113.7" y1="161.9" x2="107.3" y2="161.9"/>
		<line class="st20" x1="107.3" y1="161.9" x2="105.7" y2="163.5"/>
		<line class="st20" x1="105.7" y1="163.5" x2="105.7" y2="166.7"/>
		<line class="st20" x1="105.7" y1="166.7" x2="107.3" y2="168.3"/>
		<line class="st20" x1="105.7" y1="177.8" x2="105.7" y2="171.5"/>
		<line class="st20" x1="105.7" y1="171.5" x2="112.1" y2="177.8"/>
		<line class="st20" x1="112.1" y1="177.8" x2="113.7" y2="177.8"/>
		<line class="st20" x1="113.7" y1="177.8" x2="115.3" y2="176.2"/>
		<line class="st20" x1="115.3" y1="176.2" x2="115.3" y2="173.1"/>
		<line class="st20" x1="115.3" y1="173.1" x2="113.7" y2="171.5"/>
		<line class="st20" x1="111.2" y1="95.3" x2="111.2" y2="85.8"/>
		<line class="st20" x1="111.2" y1="85.8" x2="116" y2="85.8"/>
		<line class="st20" x1="116" y1="85.8" x2="117.6" y2="87.4"/>
		<line class="st20" x1="117.6" y1="87.4" x2="117.6" y2="90.6"/>
		<line class="st20" x1="117.6" y1="90.6" x2="116" y2="92.1"/>
		<line class="st20" x1="116" y1="92.1" x2="111.2" y2="92.1"/>
		<line class="st20" x1="114.4" y1="92.1" x2="117.6" y2="95.3"/>
		<line class="st20" x1="120.8" y1="95.3" x2="120.8" y2="89"/>
		<line class="st20" x1="120.8" y1="89" x2="124" y2="85.8"/>
		<line class="st20" x1="124" y1="85.8" x2="127.2" y2="89"/>
		<line class="st20" x1="127.2" y1="89" x2="127.2" y2="95.3"/>
		<line class="st20" x1="127.2" y1="95.3" x2="127.2" y2="90.6"/>
		<line class="st20" x1="127.2" y1="90.6" x2="120.8" y2="90.6"/>
		<line class="st20" x1="130.4" y1="95.3" x2="133.6" y2="95.3"/>
		<line class="st20" x1="133.6" y1="95.3" x2="131.9" y2="95.3"/>
		<line class="st20" x1="131.9" y1="95.3" x2="131.9" y2="85.8"/>
		<line class="st20" x1="131.9" y1="85.8" x2="131.9" y2="85.8"/>
		<line class="st20" x1="131.9" y1="85.8" x2="130.4" y2="87.4"/>
		<line class="st20" x1="154.6" y1="123.3" x2="153" y2="121.7"/>
		<line class="st20" x1="153" y1="121.7" x2="149.8" y2="121.7"/>
		<line class="st20" x1="149.8" y1="121.7" x2="148.2" y2="123.3"/>
		<line class="st20" x1="148.2" y1="123.3" x2="148.2" y2="129.7"/>
		<line class="st20" x1="148.2" y1="129.7" x2="149.8" y2="131.3"/>
		<line class="st20" x1="149.8" y1="131.3" x2="153" y2="131.3"/>
		<line class="st20" x1="153" y1="131.3" x2="154.6" y2="129.7"/>
		<line class="st20" x1="164.1" y1="121.7" x2="157.8" y2="121.7"/>
		<line class="st20" x1="157.8" y1="121.7" x2="157.8" y2="126.5"/>
		<line class="st20" x1="157.8" y1="126.5" x2="160.9" y2="124.9"/>
		<line class="st20" x1="160.9" y1="124.9" x2="162.5" y2="124.9"/>
		<line class="st20" x1="162.5" y1="124.9" x2="164.1" y2="126.5"/>
		<line class="st20" x1="164.1" y1="126.5" x2="164.1" y2="129.7"/>
		<line class="st20" x1="164.1" y1="129.7" x2="162.5" y2="131.3"/>
		<line class="st20" x1="162.5" y1="131.3" x2="159.4" y2="131.3"/>
		<line class="st20" x1="159.4" y1="131.3" x2="157.8" y2="129.7"/>
		<line class="st20" x1="301.8" y1="90.4" x2="301.8" y2="80.9"/>
		<line class="st20" x1="301.8" y1="80.9" x2="306.5" y2="80.9"/>
		<line class="st20" x1="306.5" y1="80.9" x2="308.1" y2="82.5"/>
		<line class="st20" x1="308.1" y1="82.5" x2="308.1" y2="85.6"/>
		<line class="st20" x1="308.1" y1="85.6" x2="306.5" y2="87.2"/>
		<line class="st20" x1="306.5" y1="87.2" x2="301.8" y2="87.2"/>
		<line class="st20" x1="305" y1="87.2" x2="308.1" y2="90.4"/>
		<line class="st20" x1="311.3" y1="90.4" x2="311.3" y2="84.1"/>
		<line class="st20" x1="311.3" y1="84.1" x2="314.5" y2="80.9"/>
		<line class="st20" x1="314.5" y1="80.9" x2="317.7" y2="84.1"/>
		<line class="st20" x1="317.7" y1="84.1" x2="317.7" y2="90.4"/>
		<line class="st20" x1="317.7" y1="90.4" x2="317.7" y2="85.6"/>
		<line class="st20" x1="317.7" y1="85.6" x2="311.3" y2="85.6"/>
		<line class="st20" x1="320.9" y1="82.5" x2="322.5" y2="80.9"/>
		<line class="st20" x1="322.5" y1="80.9" x2="325.7" y2="80.9"/>
		<line class="st20" x1="325.7" y1="80.9" x2="327.3" y2="82.5"/>
		<line class="st20" x1="327.3" y1="82.5" x2="327.3" y2="84.1"/>
		<line class="st20" x1="327.3" y1="84.1" x2="327.3" y2="84.1"/>
		<line class="st20" x1="327.3" y1="84.1" x2="327.3" y2="84.1"/>
		<line class="st20" x1="327.3" y1="84.1" x2="327.3" y2="84.1"/>
		<line class="st20" x1="327.3" y1="84.1" x2="325.7" y2="85.6"/>
		<line class="st20" x1="325.7" y1="85.6" x2="324.1" y2="85.6"/>
		<line class="st20" x1="324.1" y1="85.6" x2="325.7" y2="85.6"/>
		<line class="st20" x1="325.7" y1="85.6" x2="327.3" y2="87.2"/>
		<line class="st20" x1="327.3" y1="87.2" x2="327.3" y2="88.8"/>
		<line class="st20" x1="327.3" y1="88.8" x2="325.7" y2="90.4"/>
		<line class="st20" x1="325.7" y1="90.4" x2="322.5" y2="90.4"/>
		<line class="st20" x1="322.5" y1="90.4" x2="320.9" y2="88.8"/>
		<line class="st20" x1="377.7" y1="191" x2="376.1" y2="189.4"/>
		<line class="st20" x1="376.1" y1="189.4" x2="372.9" y2="189.4"/>
		<line class="st20" x1="372.9" y1="189.4" x2="371.3" y2="191"/>
		<line class="st20" x1="371.3" y1="191" x2="371.3" y2="197.3"/>
		<line class="st20" x1="371.3" y1="197.3" x2="372.9" y2="198.9"/>
		<line class="st20" x1="372.9" y1="198.9" x2="376.1" y2="198.9"/>
		<line class="st20" x1="376.1" y1="198.9" x2="377.7" y2="197.3"/>
		<line class="st20" x1="380.9" y1="191" x2="382.5" y2="189.4"/>
		<line class="st20" x1="382.5" y1="189.4" x2="385.7" y2="189.4"/>
		<line class="st20" x1="385.7" y1="189.4" x2="387.3" y2="191"/>
		<line class="st20" x1="387.3" y1="191" x2="387.3" y2="192.6"/>
		<line class="st20" x1="387.3" y1="192.6" x2="387.3" y2="192.6"/>
		<line class="st20" x1="387.3" y1="192.6" x2="387.3" y2="192.6"/>
		<line class="st20" x1="387.3" y1="192.6" x2="387.3" y2="192.6"/>
		<line class="st20" x1="387.3" y1="192.6" x2="385.7" y2="194.2"/>
		<line class="st20" x1="385.7" y1="194.2" x2="384.1" y2="194.2"/>
		<line class="st20" x1="384.1" y1="194.2" x2="385.7" y2="194.2"/>
		<line class="st20" x1="385.7" y1="194.2" x2="387.3" y2="195.7"/>
		<line class="st20" x1="387.3" y1="195.7" x2="387.3" y2="197.3"/>
		<line class="st20" x1="387.3" y1="197.3" x2="385.7" y2="198.9"/>
		<line class="st20" x1="385.7" y1="198.9" x2="382.5" y2="198.9"/>
		<line class="st20" x1="382.5" y1="198.9" x2="380.9" y2="197.3"/>
		<line class="st20" x1="222.2" y1="169.5" x2="224.4" y2="167.3"/>
		<line class="st20" x1="224.4" y1="167.3" x2="223.3" y2="168.4"/>
		<line class="st20" x1="223.3" y1="168.4" x2="230.1" y2="175.1"/>
		<line class="st20" x1="230.1" y1="175.1" x2="229" y2="176.2"/>
		<line class="st20" x1="229" y1="176.2" x2="231.2" y2="174"/>
		<line class="st20" x1="233.5" y1="160.5" x2="231.2" y2="160.5"/>
		<line class="st20" x1="231.2" y1="160.5" x2="229" y2="162.8"/>
		<line class="st20" x1="229" y1="162.8" x2="229" y2="165"/>
		<line class="st20" x1="229" y1="165" x2="233.5" y2="169.5"/>
		<line class="st20" x1="233.5" y1="169.5" x2="235.7" y2="169.5"/>
		<line class="st20" x1="235.7" y1="169.5" x2="238" y2="167.3"/>
		<line class="st20" x1="238" y1="167.3" x2="238" y2="165"/>
		<line class="st20" x1="245.9" y1="159.4" x2="241.4" y2="163.9"/>
		<line class="st20" x1="241.4" y1="163.9" x2="241.4" y2="154.9"/>
		<line class="st20" x1="241.4" y1="154.9" x2="240.2" y2="153.8"/>
		<line class="st20" x1="240.2" y1="153.8" x2="238" y2="153.8"/>
		<line class="st20" x1="238" y1="153.8" x2="235.7" y2="156"/>
		<line class="st20" x1="235.7" y1="156" x2="235.7" y2="158.3"/>
		<path class="st22" d="M186.5,119.5c0-0.7-0.5-1.2-1.2-1.2s-1.2,0.5-1.2,1.2c0,0.7,0.5,1.2,1.2,1.2
			C186,120.7,186.5,120.2,186.5,119.5"/>
		<path class="st23" d="M208.4,133.8c0-1.6-1.3-2.8-2.8-2.8c-1.6,0-2.8,1.3-2.8,2.8c0,1.6,1.3,2.8,2.8,2.8
			C207.1,136.7,208.4,135.4,208.4,133.8"/>
		<line class="st19" x1="326.4" y1="178.3" x2="326.4" y2="131.3"/>
		<line class="st19" x1="356.5" y1="178.3" x2="356.5" y2="131.3"/>
		<line class="st19" x1="326.4" y1="178.3" x2="356.5" y2="178.3"/>
		<line class="st19" x1="326.4" y1="131.3" x2="356.5" y2="131.3"/>
		<line class="st20" x1="342.6" y1="175.1" x2="342.6" y2="171.9"/>
		<line class="st20" x1="342.6" y1="171.9" x2="342.6" y2="173.5"/>
		<line class="st20" x1="342.6" y1="173.5" x2="352.2" y2="173.5"/>
		<line class="st20" x1="352.2" y1="173.5" x2="352.2" y2="175.1"/>
		<line class="st20" x1="352.2" y1="175.1" x2="352.2" y2="171.9"/>
		<line class="st20" x1="344.2" y1="160.7" x2="342.6" y2="162.3"/>
		<line class="st20" x1="342.6" y1="162.3" x2="342.6" y2="165.5"/>
		<line class="st20" x1="342.6" y1="165.5" x2="344.2" y2="167.1"/>
		<line class="st20" x1="344.2" y1="167.1" x2="350.6" y2="167.1"/>
		<line class="st20" x1="350.6" y1="167.1" x2="352.2" y2="165.5"/>
		<line class="st20" x1="352.2" y1="165.5" x2="352.2" y2="162.3"/>
		<line class="st20" x1="352.2" y1="162.3" x2="350.6" y2="160.7"/>
		<line class="st20" x1="352.2" y1="157.6" x2="352.2" y2="154.4"/>
		<line class="st20" x1="352.2" y1="154.4" x2="352.2" y2="156"/>
		<line class="st20" x1="352.2" y1="156" x2="342.6" y2="156"/>
		<line class="st20" x1="342.6" y1="156" x2="344.2" y2="157.6"/>
		<path class="st23" d="M338.6,140.7c0-1.6-1.3-2.8-2.8-2.8c-1.6,0-2.8,1.3-2.8,2.8c0,1.6,1.3,2.8,2.8,2.8
			C337.3,143.5,338.6,142.2,338.6,140.7"/>
		<path class="st22" d="M319.1,127.9c0-0.7-0.5-1.2-1.2-1.2s-1.2,0.5-1.2,1.2c0,0.6,0.5,1.2,1.2,1.2S319.1,128.6,319.1,127.9"/>
		<line class="st24" x1="142.8" y1="166.7" x2="142.8" y2="163.1"/>
		<line class="st24" x1="142.8" y1="163.1" x2="146.4" y2="163.1"/>
		<line class="st20" x1="206.2" y1="90.3" x2="206.2" y2="80.8"/>
		<line class="st20" x1="206.2" y1="80.8" x2="211" y2="80.8"/>
		<line class="st20" x1="211" y1="80.8" x2="212.6" y2="82.4"/>
		<line class="st20" x1="212.6" y1="82.4" x2="212.6" y2="85.5"/>
		<line class="st20" x1="212.6" y1="85.5" x2="211" y2="87.1"/>
		<line class="st20" x1="211" y1="87.1" x2="206.2" y2="87.1"/>
		<line class="st20" x1="209.4" y1="87.1" x2="212.6" y2="90.3"/>
		<line class="st20" x1="215.8" y1="90.3" x2="215.8" y2="84"/>
		<line class="st20" x1="215.8" y1="84" x2="219" y2="80.8"/>
		<line class="st20" x1="219" y1="80.8" x2="222.2" y2="84"/>
		<line class="st20" x1="222.2" y1="84" x2="222.2" y2="90.3"/>
		<line class="st20" x1="222.2" y1="90.3" x2="222.2" y2="85.5"/>
		<line class="st20" x1="222.2" y1="85.5" x2="215.8" y2="85.5"/>
		<line class="st20" x1="231.7" y1="90.3" x2="225.4" y2="90.3"/>
		<line class="st20" x1="225.4" y1="90.3" x2="231.7" y2="84"/>
		<line class="st20" x1="231.7" y1="84" x2="231.7" y2="82.4"/>
		<line class="st20" x1="231.7" y1="82.4" x2="230.1" y2="80.8"/>
		<line class="st20" x1="230.1" y1="80.8" x2="227" y2="80.8"/>
		<line class="st20" x1="227" y1="80.8" x2="225.4" y2="82.4"/>
	</g>
	<g>
		<circle class="st25" cx="391.7" cy="53.3" r="14.6"/>
		<circle class="st25" cx="32.7" cy="53.3" r="14.6"/>
		<circle class="st25" cx="32.7" cy="177.4" r="5.2"/>
		<circle class="st25" cx="32.7" cy="129.7" r="5.2"/>
		<circle class="st25" cx="398.9" cy="177.4" r="5.2"/>
		<circle class="st25" cx="398.9" cy="129.7" r="5.2"/>
		<circle class="st25" cx="349.8" cy="25.9" r="5.2"/>
		<circle class="st25" cx="325.9" cy="25.9" r="5.2"/>
		<circle class="st25" cx="302" cy="25.9" r="5.2"/>
		<circle class="st25" cx="278" cy="25.9" r="5.2"/>
		<circle class="st25" cx="254.1" cy="25.9" r="5.2"/>
		<circle class="st25" cx="230.1" cy="25.9" r="5.2"/>
		<circle class="st25" cx="206.2" cy="25.9" r="5.2"/>
		<circle class="st25" cx="182.3" cy="25.9" r="5.2"/>
		<circle class="st25" cx="158.4" cy="25.9" r="5.2"/>
		<circle class="st25" cx="134.4" cy="25.9" r="5.2"/>
		<circle class="st25" cx="110.5" cy="25.9" r="5.2"/>
		<circle class="st25" cx="86.6" cy="25.9" r="5.2"/>
	</g>
</g>
<g class="node328pins"></g>
</svg>
