<?xml version="1.0" encoding="utf-8"?>
<!-- Generator: Adobe Illustrator 21.0.2, SVG Export Plug-In . SVG Version: 6.00 Build 0)  -->
<svg version="1.1" id="Layer_1" xmlns="http://www.w3.org/2000/svg" xmlns:xlink="http://www.w3.org/1999/xlink" x="0px" y="0px"
	 viewBox="0 -145 695 675" style="enable-background:new 0 -100 695 580;" width="520" xml:space="preserve">
<style type="text/css">
	.node64 .st0{fill:#A72729;}
	.node64 .st1{opacity:0.11;}
	.node64 .st2{fill:none;stroke:#202020;stroke-width:2.3944;stroke-linecap:round;stroke-miterlimit:10;}
	.node64 .st3{fill:none;stroke:#202020;stroke-width:3.5916;stroke-linecap:round;stroke-miterlimit:10;}
	.node64 .st4{fill:none;stroke:#202020;stroke-width:1.9155;stroke-linecap:round;stroke-miterlimit:10;}
	.node64 .st5{fill:#202020;stroke:#202020;stroke-miterlimit:10;}
	.node64 .st6{opacity:0.15;}
	.node64 .st7{opacity:0.15;enable-background:new    ;}
	.node64 .st8{fill:none;stroke:#646464;stroke-width:2.3944;stroke-linecap:round;stroke-miterlimit:10;}
	.node64 .st9{fill:#646464;stroke:#646464;stroke-miterlimit:10;}
	.node64 .st10{fill:none;stroke:#646464;stroke-width:5.1838;stroke-linecap:round;stroke-miterlimit:10;}
	.node64 .st11{fill:#646464;}
	.node64 .st12{fill:none;stroke:#787878;stroke-width:2.3944;stroke-linecap:round;stroke-miterlimit:10;}
	.node64 .st13{fill:none;stroke:#787878;stroke-width:2.394;stroke-linecap:round;stroke-miterlimit:10;}
	.node64 .st14{fill:none;stroke:#787979;stroke-width:2.394;stroke-miterlimit:10;}
	.node64 .st15{fill:none;stroke:#1E1E1E;stroke-width:2.3944;stroke-linecap:round;stroke-miterlimit:10;}
	.node64 .st16{fill:none;stroke:#5A5A5A;stroke-width:0.9434;stroke-linecap:round;stroke-miterlimit:10;}
	.node64 .st17{fill:none;stroke:#DBB131;stroke-width:2.3944;stroke-linecap:round;stroke-miterlimit:10;}
	.node64 .st18{fill:none;stroke:#DBB131;stroke-width:16.7607;stroke-linecap:round;stroke-miterlimit:10;}
	.node64 .st19{fill:#FFFFFF;}
	.node64 .st20{fill:none;stroke:#FFFFFF;stroke-width:1.8844;stroke-linecap:round;stroke-miterlimit:10;}
	.node64 .st21{fill:none;stroke:#FFFFFF;stroke-width:2.3944;stroke-linecap:round;stroke-miterlimit:10;}
	.node64 .st22{fill:none;stroke:#FFFFFF;stroke-width:2.356;stroke-linecap:round;stroke-miterlimit:10;}
	.node64 .st23{fill:none;stroke:#FFFFFF;stroke-width:5.6555;stroke-linecap:round;stroke-miterlimit:10;}
	.node64 .st24{fill:none;stroke:#FFFFFF;stroke-width:1.4366;stroke-linecap:round;stroke-miterlimit:10;}
	.node64 .st25{fill:none;stroke:#FFFFFF;stroke-width:1.9155;stroke-linecap:round;stroke-miterlimit:10;}
	.node64 .st26{fill:none;stroke:#FFFFFF;stroke-width:1.1972;stroke-linecap:round;stroke-miterlimit:10;}

	.node64pins {fill:#000000;}
    .node64pins .iotextballoon path {fill: white; stroke-width: 1;stroke:black;}
	.node64pins .iotextballoon:hover path {fill: #ddd}
    .node64pins .iotextballoon text {font-family:monospace;user-select: none;}

</style>
<g class="node64" style="transform: translate(100px, 0px)">
	<g>
		<path class="st0" d="M7.9,16.2v448.7c0,5.2,4.2,9.4,9.4,9.4H478c5.2,0,9.4-4.2,9.4-9.4V16.2c0-5.2-4.2-9.4-9.4-9.4H17.3
			C12.1,6.8,7.9,11,7.9,16.2z"/>
	</g>
	<g>
		<g class="st1">
			<g class="st2">
				<line x1="440.7" y1="383.7" x2="465.4" y2="408.3"/>
				<line x1="440.7" y1="361.1" x2="465.4" y2="336.4"/>
				<line x1="440.7" y1="265.2" x2="465.4" y2="240.5"/>
				<line x1="440.7" y1="287.8" x2="465.4" y2="312.5"/>
				<polyline points="320.7,265.2 348.2,265.2 359.1,276.2 359.1,352.3 383,376.2 423.7,376.2"/>
				<polyline points="423.7,184.4 363.9,184.4 351,197.3 320.7,197.3"/>
				<polyline points="423.7,191.9 363.9,191.9 351,204.8 320.7,204.8"/>
				<polyline points="423.7,169.3 363.9,169.3 351,182.2 320.7,182.2"/>
				<polyline points="320.7,250.1 343.2,250.1 366.3,273.2 366.3,349.3 378.1,361.1 423.7,361.1"/>
				<polyline points="320.7,257.7 345.7,257.7 362.7,274.7 362.7,350.8 380.5,368.6 423.7,368.6"/>
				<polyline points="320.7,272.8 350.6,272.8 355.5,277.7 355.5,353.8 385.5,383.7 423.7,383.7"/>
				<polyline points="423.7,176.8 363.9,176.8 351,189.7 320.7,189.7"/>
				<polyline points="320.7,174.6 331.5,174.6 338.7,167.4 338.7,118.3 361,96.1 423.7,96.1"/>
				<line x1="209.5" y1="39.8" x2="217.7" y2="31.6"/>
				<line x1="305.4" y1="39.8" x2="313.6" y2="31.6"/>
				<line x1="209.5" y1="59" x2="209.5" y2="39.8"/>
				<line x1="305.4" y1="59" x2="305.4" y2="39.8"/>
				<line x1="201.9" y1="39.8" x2="193.7" y2="31.6"/>
				<line x1="297.8" y1="39.8" x2="289.6" y2="31.6"/>
				<line x1="201.9" y1="59" x2="201.9" y2="39.8"/>
				<line x1="217" y1="59" x2="241.7" y2="34.4"/>
				<line x1="297.8" y1="59" x2="297.8" y2="39.8"/>
				<line x1="312.9" y1="59" x2="337.5" y2="34.4"/>
				<polyline points="216.5,76 216.5,127.3 236.2,147.1 236.2,158.1"/>
				<polyline points="209.3,76 209.3,127.7 228.7,147.1 228.7,158.1"/>
				<polyline points="202.1,76 202.1,128 221.1,147.1 221.1,158.1"/>
				<polyline points="193.7,76 193.7,127.2 213.6,147.1 213.6,158.1"/>
				<line x1="194.4" y1="59" x2="169.7" y2="34.4"/>
				<line x1="290.3" y1="59" x2="265.6" y2="34.4"/>
				<polyline points="468.2,384.4 460,376.2 440.7,376.2"/>
				<polyline points="468.2,288.5 460,280.3 440.7,280.3"/>
				<polyline points="468.2,360.4 460,368.6 440.7,368.6"/>
				<polyline points="468.2,264.5 460,272.7 440.7,272.7"/>
				<polyline points="440.7,184.4 460,184.4 468.2,192.6"/>
				<polyline points="440.7,88.5 460,88.5 468.2,96.7"/>
				<polyline points="440.7,176.8 460,176.8 468.2,168.6"/>
				<line x1="440.7" y1="191.9" x2="465.4" y2="216.6"/>
				<polyline points="440.7,81 460,81 468.2,72.8"/>
				<line x1="440.7" y1="96.1" x2="465.4" y2="120.7"/>
				<line x1="440.7" y1="73.4" x2="465.4" y2="48.8"/>
				<line x1="440.7" y1="169.3" x2="465.4" y2="144.7"/>
				<polyline points="289.6,76 289.6,81.9 281.6,89.9 278.5,89.9 251.2,117.2 251.2,134.2 243.8,141.7 243.8,158.1"/>
				<polyline points="127.8,132.7 127.8,162.6 138.6,173.4"/>
				<line x1="210.6" y1="344.1" x2="220.4" y2="344.1"/>
				<polyline points="236.2,304.4 236.2,311.5 244.1,319.4 244.1,334 235.6,342.5"/>
				<line x1="239.3" y1="354.8" x2="239.3" y2="346.2"/>
				<polyline points="282.4,439.5 298,423.9 298,410.4"/>
				<polyline points="326.9,440.2 310,423.3 310,410.4"/>
				<polyline points="322,363.2 322,340 308.8,326.8 294.4,326.8 281.5,314 281.5,304.4"/>
				<polyline points="298,363.2 298,342.4 274,318.4 274,272.9"/>
				<polyline points="298,76 298,81 285.5,93.5 280,93.5 254.8,118.7 254.8,135.7 251.3,139.2 251.3,158.1"/>
				<polyline points="54.6,376.2 35.3,376.2 27.1,384.4"/>
				<polyline points="54.6,280.3 35.3,280.3 27.1,288.5"/>
				<line x1="71.6" y1="265.2" x2="174.4" y2="265.2"/>
				<polyline points="71.6,184.4 123.2,184.4 132.6,193.8 132.6,222.4 152.8,242.6 174.4,242.6"/>
				<polyline points="54.6,184.4 35.3,184.4 27.1,192.6"/>
				<polyline points="71.6,191.9 122.3,191.9 129,198.6 129,238.2 148.5,257.7 174.4,257.7"/>
				<polyline points="71.6,169.3 122.5,169.3 142.2,189 142.2,221.4 148.3,227.5 174.4,227.5"/>
				<polyline points="71.6,96.1 123.6,96.1 147,119.4 147,203.7 163.2,219.9 174.4,219.9"/>
				<polyline points="71.6,88.5 123.6,88.5 150.6,115.4 150.6,202.2 160.8,212.4 174.4,212.4"/>
				<polyline points="54.6,88.5 35.3,88.5 27.1,96.7"/>
				<polyline points="71.6,73.4 123.6,73.4 157.8,107.5 157.8,193.8 161.2,197.3 174.4,197.3"/>
				<line x1="29.9" y1="408.3" x2="54.6" y2="383.7"/>
				<line x1="54.6" y1="361.1" x2="29.9" y2="336.4"/>
				<polyline points="54.6,368.6 35.3,368.6 27.1,360.4"/>
				<polyline points="190.9,304.4 190.9,314.8 184.2,321.5 159.5,321.5 113.6,367.4 72.8,367.4"/>
				<polyline points="72.8,359.9 115.1,359.9 157.1,317.9 181.7,317.9 181.8,317.9 185.4,314.3 185.4,295.1 194.5,286.1 243.5,286.1 251.3,293.9 251.3,304.4"/>
				<polyline points="72.8,375.5 112,375.5 161.9,325.6 186.3,325.6 198.5,313.5 198.5,304.9"/>
				<line x1="54.6" y1="265.2" x2="29.9" y2="240.5"/>
				<polyline points="54.6,272.7 35.3,272.7 27.1,264.5"/>
				<polyline points="71.6,176.8 122.8,176.8 137.4,191.4 137.4,221.7 150.7,235 174.4,235"/>
				<polyline points="54.6,176.8 35.3,176.8 27.1,168.6"/>
				<line x1="29.9" y1="216.6" x2="54.6" y2="191.9"/>
				<polyline points="71.6,81 123.6,81 154.2,111.5 154.2,195.3 163.7,204.8 174.4,204.8"/>
				<polyline points="54.6,81 35.3,81 27.1,72.8"/>
				<line x1="29.9" y1="120.7" x2="54.6" y2="96.1"/>
				<polyline points="286,363.2 286,337.6 266.4,318.1 266.4,265.3"/>
				<polyline points="305.2,76 305.2,81.1 289.2,97.1 281.5,97.1 258.9,119.7 258.9,158.1"/>
				<polyline points="266.4,158.1 266.4,148.6 263.1,145.3 263.1,120.5 283,100.7 292.8,100.7 312.4,81.1 312.4,76"/>
				<line x1="29.9" y1="312.5" x2="54.6" y2="287.8"/>
				<polyline points="72.8,382.5 110.5,382.5 164.3,328.7 191.4,328.7 206,314.1 206,304.4"/>
				<line x1="54.6" y1="73.4" x2="29.9" y2="48.8"/>
				<line x1="54.6" y1="169.3" x2="29.9" y2="144.7"/>
				<polyline points="320.7,219.9 333.4,219.9 378.6,265.2 423.7,265.2"/>
				<polyline points="296.6,158.1 296.6,149.9 365.6,81 423.7,81"/>
				<polyline points="304.2,158.1 304.2,147.5 363.1,88.5 423.7,88.5"/>
				<line x1="174.4" y1="280.3" x2="71.6" y2="280.3"/>
				<line x1="174.4" y1="287.9" x2="71.6" y2="287.8"/>
				<line x1="162.1" y1="250.1" x2="174.4" y2="250.1"/>
				<line x1="164.2" y1="189.7" x2="174.4" y2="189.7"/>
				<line x1="164.1" y1="182.2" x2="174.4" y2="182.2"/>
				<polyline points="320.7,242.6 340.8,242.6 384.8,286.6 422.5,286.6"/>
				<polyline points="320.7,235 338.3,235 383.6,280.3 423.7,280.3"/>
				<polyline points="320.7,227.5 335.8,227.5 381.1,272.7 423.7,272.7"/>
				<polyline points="423.7,73.4 368,73.4 296.8,144.7 293.2,144.7 289.1,148.8 289.1,158.1"/>
				<line x1="179.2" y1="145.9" x2="191.3" y2="145.9"/>
				<polyline points="293.1,127.9 293.1,136.4 281.5,147.9 281.5,173.1 277.6,177 194.9,177 190.9,173 190.9,148.7 191.3,148.3 191.3,137.5"/>
				<polyline points="210.6,325.3 213.6,322.3 213.6,304.4"/>
				<line x1="213.6" y1="304.4" x2="213.6" y2="292.6"/>
				<polyline points="253.6,354.8 247.7,348.9 247.7,328 250.2,325.5 256.7,325.5 257.3,325.5 256.7,325.5 256.7,318.5 253.7,315.5 246.5,315.5 243.8,312.7 "/>
				<line x1="174.4" y1="272.8" x2="71.6" y2="272.7"/>
			</g>
			<polyline class="st3" points="186.5,439.5 186.5,401.2 221.1,366.6 221.1,304.4"/>
			<line class="st4" x1="198.5" y1="158.1" x2="198.5" y2="144.7"/>243.8,304.4"/>
			<polyline class="st4" points="322,410.4 322,401.2 317.3,396.5 227.4,396.5 209.3,378.4"/>
			<line class="st3" x1="221.1" y1="356" x2="222.8" y2="356"/>
			<line class="st3" x1="222.8" y1="356" x2="224.9" y2="358"/>
			<path class="st5" d="M66.7,445.5H49l0.2,2.5l1.1,3.6l1.8,3.3l2.4,2.9l2.9,2.4l3.3,1.8l3.6,1.1l2.5,0.2C66.7,463.2,66.7,445.5,66.7,445.5z M86.7,445.5H69.1v17.7l2.5-0.2l3.6-1.1l3.3-1.8l2.9-2.4l2.4-2.9l1.8-3.3l1.1-3.6L86.7,445.5z M427.4,426.5l-3.5,0.3l-3.3,1l-3.1,1.6l-2.7,2.2l-2.2,2.7l-1.6,3.1l-1,3.3l-0.3,3.5l0.3,3.5l1,3.3l1.6,3.1l2.2,2.7l2.7,2.2l3.1,1.6l3.3,1l3.5,0.3l3.5-0.3l3.3-1l3.1-1.6l2.7-2.2l2.2-2.7l1.6-3.1l1-3.3l0.3-3.5l-0.3-3.5l-1-3.3l-1.6-3.1l-2.2-2.7l-2.7-2.2l-3.1-1.6l-3.3-1L427.4,426.5z M233.3,438.3h-9.7v1.2l0.4,2.8l1.1,2.6l1.7,2.3l2.3,1.7l2.6,1.1l1.6,0.2L233.3,438.3L233.3,438.3z M245.3,438.3h-9.7v11.9l1.6-0.2l2.6-1.1l2.3-1.7l1.7-2.3l1.1-2.6l0.4-2.8L245.3,438.3L245.3,438.3z M314.9,402.1H305v16.6h2.5v4.6l0.2,0.9l0.5,0.8l12.4,12.4v2.8l0.3,2.5l1,2.3l1.5,2l2,1.5l2.3,1l2.5,0.3l2.5-0.3l2.3-1l2-1.5l1.5-2l1-2.3l0.3-2.5v-4.7l-0.3-2.5l-1-2.3l-1.5-2l-2-1.5l-2.3-1l-2.5-0.3l-2.5,0.3l-2.3,1l-2,1.5l-1.3,1.7l-1.4,0.3l-8.4-8.4v-3.6h2.5L314.9,402.1L314.9,402.1z M66.7,425.4l-2.5,0.2l-3.6,1.1l-3.3,1.8l-2.9,2.4l-2.4,2.9l-1.8,3.3l-1.1,3.6l-0.2,2.5h17.7V425.4z M69.1,425.4v17.7h17.7l-0.2-2.5l-1.1-3.6l-1.8-3.3l-2.4-2.9l-2.9-2.4l-3.3-1.8l-3.6-1.1L69.1,425.4z M233.3,424.1l-1.6,0.2l-2.6,1.1l-2.3,1.7l-1.7,2.3L224,432l-0.4,2.8v1.2h9.7L233.3,424.1L233.3,424.1z M235.7,424.1V436h9.7v-1.2L245,432l-1.1-2.6l-1.7-2.3l-2.3-1.7l-2.6-1.1L235.7,424.1z M292.2,400.9h-5v9.5v9.5h5v-0.3l0.8-0.9h0.4h2.2v4.3l-5.1,5.1l-1.2-0.1l-2-1.5l-2.3-1l-2.5-0.3l-2.5,0.3l-2.3,1l-2,1.5l-1.5,2l-1,2.3l-0.3,2.5v4.7l0.3,2.5l1,2.3l1.5,2l2,1.5l2.3,1l2.5,0.3l2.5-0.3l2.3-1l2-1.5l1.5-2l1-2.3l0.3-2.5v-4.7l-0.2-1.3l7.8-7.8l0.5-0.8l0.2-0.9v-5.3h2.5v-16.6h-9.6H293l-0.8-0.9L292.2,400.9L292.2,400.9z M284.8,411.6h-5v8.3h5V411.6z M265.6,411.8h-7.8v6.4h7.8V411.8z M275.8,411.8H268v6.4h7.8V411.8z M284.8,400.9h-5v8.3h5V400.9z M245.7,372h-12.8v4.5l0.4,1l0.4,2l1.3,2l2,1.3l1.1,0.2v-5.8h2.4v5.8l1.1-0.2l2-1.3l1.3-2l0.4-1.9l0.4-1L245.7,372L245.7,372z M260,372h-12.8v4.5l0.4,1l0.4,2l1.3,2l2,1.3l1.1,0.2v-5.8h2.4v5.8l1.1-0.2l2-1.3l1.3-2l0.4-1.9l0.4-1V372z M238.1,365.1h-5.2v4.5h5.2V365.1z M245.7,365.1h-5.2v4.5h5.2V365.1z M252.4,365.1h-5.2v4.5h5.2V365.1z M260,365.1h-5.2v4.5h5.2V365.1z M202.2,360.4h-6.4v7.8h6.4V360.4z M31.8,326.8h-4.7l-2.5,0.3l-2.3,1l-2,1.5l-1.5,2l-1,2.3l-0.3,2.5l0.3,2.5l1,2.3l1.5,2l2,1.5l2.3,1l2.5,0.3h4.7l2.5-0.3l1.1-0.4l13.5,13.5v5.3v0.3v0.9l-1,0.9h-7.1l-0.5-1.2l0.9-2.1l0.3-2.5l-0.3-2.5l-1-2.3l-1.5-2l-2-1.5l-2.3-1l-2.5-0.3h-4.7l-2.5,0.3l-2.3,1l-2,1.5l-1.5,2l-1,2.3l-0.3,2.5l0.3,2.5l1,2.3l1.5,2l2,1.5l2.3,1l2.5,0.3h4.7l1.3-0.2l0.4,0.4l0.8,0.5l0.9,0.2H48l0.7,0.7l0,1.3l-0.8,0.7H35.3l-0.9,0.2l-0.8,0.5l-0.4,0.4l-1.3-0.2h-4.7l-2.5,0.3l-2.3,1l-2,1.5l-1.5,2l-1,2.3l-0.3,2.5l0.3,2.5l1,2.3l1.5,2l2,1.5l2.3,1l2.5,0.3h4.7l2.5-0.3l2.3-1l2-1.5l1.5-2l1-2.3l0.3-2.5l-0.3-2.5l-0.9-2.1l0.5-1.2H48l0.8,0.8v0.9v0.3v5.3l-13.5,13.5l-1.1-0.4l-2.5-0.3h-4.7l-2.5,0.3l-2.3,1l-2,1.5l-1.5,2l-1,2.3l-0.3,2.5l0.3,2.5l1,2.3l1.5,2l2,1.5l2.3,1l2.5,0.3h4.7l2.5-0.3l2.3-1l2-1.5l1.5-2l1-2.3l0.3-2.5l-0.3-2.5l-1-2.3l-0.9-1.1L54.7,387h5.5v-6.4v-0.3v-0.9v-0.3v-6.1v-0.3v-0.9v-0.3v-6.1v-0.3v-0.9v-0.3v-6.4h-5.5l-15.4-15.4l0.9-1.1l1-2.3l0.3-2.5l-0.3-2.5l-1-2.3l-1.5-2l-2-1.5l-2.3-1L31.8,326.8z M468.2,326.8h-4.7l-2.5,0.3l-2.3,1l-2,1.5l-1.5,2l-1,2.3l-0.3,2.5l0.3,2.5l1,2.3l0.9,1.1l-15.4,15.4H435v6.4v0.3v0.9v0.3v6.1v0.3v0.9v0.3v6.1v0.3v0.9v0.3v6.4h5.5l15.4,15.4l-0.9,1.1l-1,2.3l-0.3,2.5l0.3,2.5l1,2.3l1.5,2l2,1.5l2.3,1l2.5,0.3h4.7l2.5-0.3l2.3-1l2-1.5l1.5-2l1-2.3l0.3-2.5l-0.3-2.5l-1-2.3l-1.5-2l-2-1.5l-2.3-1l-2.5-0.3h-4.7L461,399l-1.1,0.4l-13.5-13.5v-5.3v-0.3v-0.9l1-0.9h7.1l0.5,1.2l-0.9,2.1l-0.3,2.5l0.3,2.5l1,2.3l1.5,2l2,1.5l2.3,1l2.5,0.3h4.7l2.5-0.3l2.3-1l2-1.5l1.5-2l1-2.3l0.3-2.5l-0.3-2.5l-1-2.3l-1.5-2l-2-1.5l-2.3-1l-2.5-0.3h-4.7l-1.3,0.2l-0.4-0.4l-0.8-0.5l-0.9-0.2h-12.7l-0.7-0.7l0-1.3l0.8-0.7H460l0.9-0.2l0.8-0.5l0.4-0.4l1.3,0.2h4.7l2.5-0.3l2.3-1l2-1.5l1.5-2l1-2.3l0.3-2.5l-0.3-2.5l-1-2.3l-1.5-2l-2-1.5l-2.3-1l-2.5-0.3h-4.7l-2.5,0.3l-2.3,1l-2,1.5l-1.5,2l-1,2.3l-0.3,2.5l0.3,2.5l0.9,2.1l-0.5,1.2h-7.2l-0.8-0.8v-0.9v-0.3v-5.3l13.5-13.5l1.1,0.4l2.5,0.3h4.7l2.5-0.3l2.3-1l2-1.5l1.5-2l1-2.3l0.3-2.5l-0.3-2.5l-1-2.3l-1.5-2l-2-1.5l-2.3-1L468.2,326.8z M156.6,301.7h-4.6l0.2,1.1l1.3,2l2,1.3l1.1,0.2L156.6,301.7L156.6,301.7z M163.6,301.7h-4.6v4.6l1.1-0.2l2-1.3l1.3-2L163.6,301.7z M156.6,294.7l-1.1,0.2l-2,1.3l-1.3,2l-0.2,1.1h4.6L156.6,294.7L156.6,294.7z M158.9,294.7v4.6h4.6l-0.2-1.1l-1.3-2l-2-1.3L158.9,294.7z M266.4,261.2l-1.6,0.3l-1.3,0.9l-0.9,1.3l-0.3,1.6l0.3,1.6l0.9,1.3l0.5,0.3V297l-0.3,0.2l-0.3,0.5h-1.4l-0.3-0.5l-1.3-0.8l-1.5-0.3l-1.5,0.3l-1.3,0.8l-0.3,0.5h-1.1l-0.9-0.9v-2.8l-0.2-0.9l-0.5-0.8l-7.8-7.8l-0.8-0.5l-0.9-0.2h-49l-0.9,0.2l-0.8,0.5l-9.1,9.1l-0.5,0.8l-0.2,0.9v18.2l-2.2,2.2h-23.7l-0.9,0.2l-0.8,0.5l-41.2,41.2H72.8l-0.9,0.2l-0.2,0.1h-5.7v6.6v0.9v0.3v6.4v0.9v0.3v6.4v0.9v0.3v6.4h11.4V385h33.2l0.9-0.2l0.8-0.5l53.1-53.1h26.1l0.9-0.2l0.8-0.5l9.2-9.2l1.2,0.5v8.5h14.2l0.4,1v6.8l-0.4,1h-14.2v9.8v0.1l-0.3,1.1h-7.4v7.8h7.6v1.2h1.2v9h6.4v-0.1l0.2-1.1h1h2.4l0.5,1.2l-8,8L184.4,399l-0.7,1l-0.2,1.2v24.5l-1.8,0.7l-2,1.5l-1.5,2l-1,2.3l-0.3,2.5v4.7l0.3,2.5l1,2.3l1.5,2l2,1.5l2.3,1l2.5,0.3l2.5-0.3l2.3-1l2-1.5l1.5-2l1-2.3l0.3-2.5v-4.7l-0.3-2.5l-1-2.3l-1.5-2l-2-1.5l-1.8-0.7v-23.3l20.3-20.3l15.9,15.9l0.7,0.5l0.8,0.2H259v4.2l-1.1,0.2h-0.1v6.4h18V403h-0.1l-1.1-0.2v-1v-3.2h41.7l2.3,2.3l-0.5,1.1H317v16.6h9.9v-16.6h-2.8v-0.9l-0.2-0.8l-0.5-0.7l-4.7-4.7l-0.7-0.5l-0.8-0.2h-42.6v-4.2H259v4.2h-30.7L213,379l7.5-7.5l2.7-2.7l0.7-1l0.2-1.2v-3.1l0.7-0.6l1.8-0.4l1.6-1l1-1.6l0.4-1.8l-0.4-1.8l-1-1.6l-1.6-1l-1.8-0.4l-0.7-1.1v-39l1.2-0.5l1.3,0.9l0.8,0.1v-9.3h2.4v9.3l0.7-0.1l1.7-1.1l0.2-0.3l0.9-0.2l0.6,0.2l0,0.2l0.5,0.8l4.9,4.9l-0.5,1.1h-10.6v12.8h13.1l0.2,1.2l-3,3h-10.3v12.8h8.6v1.4H234v9h10.4v-7.8v-0.4l0.1-0.1l1.1-0.4l0.3,0l0.1,0l0.1,0.1l2.3,2.3v6.3h10.4v-9h-5.3l-0.1-0.2l0.6-1.2h10.6v-12.8h-14.5v-4.2h14.5v-10.5l1.2-0.5l17.7,17.7v16.2H281v16.6h9.9v-16.6h-2.5V338l1.1-0.5l0.1,0l5.9,5.9v11.4H293v16.6h9.6h0.4l0.8,0.9v0.3h5v-9.5v-9.5h-5v0.3l-0.8,0.9h-0.4h-2.2v-12.5l-0.2-0.9l-0.5-0.8l-23.3-23.3v-5.6l0.3-0.2l0.3-0.5h1.1l0.9,0.9v1.9l0.2,0.9l0.5,0.8l12.9,12.9l0.8,0.5l0.9,0.2h13.4l11.8,11.8v13l-0.8,0.8H317l-0.8-0.9v-0.3h-5v9.5v9.5h5v-0.3l0.8-0.9h0.4h9.6v-16.6h-2.5V340l-0.2-0.9l-0.5-0.8l-13.2-13.2l-0.8-0.5l-0.9-0.2h-13.4L284,313v-1.1l0.3-0.2l0.3-0.5h1.4l0.3,0.5l1.3,0.8l1.5,0.3l1.5-0.3l1.3-0.8l0.3-0.5h1.4l0.3,0.5l1.3,0.8l1.5,0.3l1.5-0.3l1.3-0.8l0.3-0.5h1.4l0.3,0.5l1.3,0.8l1.5,0.3l1.5-0.3l1.3-0.8l0.8-1.3l0.3-1.5v-9l-0.3-1.5l-0.8-1.3l-1.3-0.8l-1.5-0.3l-1.5,0.3l-1.3,0.8l-0.3,0.5h-1.4l-0.3-0.5l-1.3-0.8l-1.5-0.3l-1.5,0.3l-1.3,0.8l-0.3,0.5h-1.4l-0.3-0.5l-1.3-0.8l-1.5-0.3l-1.5,0.3l-1.3,0.8l-0.3,0.5h-1.4l-0.3-0.5l-1.3-0.8l-1.5-0.3l-1.5,0.3l-1.3,0.8l-0.2,0.4l-1.2,0.1l-0.9-0.9v-20.6l0.5-0.3l0.9-1.3l0.3-1.6l-0.3-1.6l-0.9-1.3l-1.3-0.9l-1.6-0.3l-1.6,0.3l-1.3,0.9l-0.9,1.3l-0.2,0.8l-1.2-0.1v-3.5l0.5-0.3l0.9-1.3l0.3-1.6l-0.3-1.6l-0.9-1.3l-1.3-0.9L266.4,261.2z M31.8,230.9h-4.7l-2.5,0.3l-2.3,1l-2,1.5l-1.5,2l-1,2.3l-0.3,2.5l0.3,2.5l1,2.3l1.5,2l2,1.5l2.3,1l2.5,0.3h4.7l2.5-0.3l1.1-0.4L48.9,263v5.3v0.3v0.9l-1,0.9h-7.1l-0.5-1.2l0.9-2.1l0.3-2.5l-0.3-2.5l-1-2.3l-1.5-2l-2-1.5l-2.3-1l-2.5-0.3h-4.7l-2.5,0.3l-2.3,1l-2,1.5l-1.5,2l-1,2.3l-0.3,2.5l0.3,2.5l1,2.3l1.5,2l2,1.5l2.3,1l2.5,0.3h4.7l1.3-0.2l0.4,0.4l0.8,0.5l0.9,0.2H48l0.7,0.7l0,1.3l-0.8,0.7H35.3l-0.9,0.2l-0.8,0.5l-0.4,0.4l-1.3-0.2h-4.7l-2.5,0.3l-2.3,1l-2,1.5l-1.5,2l-1,2.3l-0.3,2.5l0.3,2.5l1,2.3l1.5,2l2,1.5l2.3,1l2.5,0.3h4.7l2.5-0.3l2.3-1l2-1.5l1.5-2l1-2.3l0.3-2.5l-0.3-2.5l-0.9-2.1l0.5-1.2H48l0.8,0.8v0.9v0.3v5.3l-13.5,13.5l-1.1-0.4l-2.5-0.3h-4.7l-2.5,0.3l-2.3,1l-2,1.5l-1.5,2l-1,2.3l-0.3,2.5l0.3,2.5l1,2.3l1.5,2l2,1.5l2.3,1l2.5,0.3h4.7l2.5-0.3l2.3-1l2-1.5l1.5-2l1-2.3l0.3-2.5l-0.3-2.5l-1-2.3l-0.9-1.1l15.4-15.4h5.5v-6.4v-0.3v-0.9v-0.3v-6.1V277v-0.9v-0.3v-6.1v-0.3v-0.9v-0.3v-6.4h-5.5l-15.4-15.4l0.9-1.1l1-2.3l0.3-2.5l-0.3-2.5l-1-2.3l-1.5-2l-2-1.5l-2.3-1L31.8,230.9z M468.2,230.9h-4.7l-2.5,0.3l-2.3,1l-2,1.5l-1.5,2l-1,2.3l-0.3,2.5l0.3,2.5l1,2.3l0.9,1.1l-15.4,15.4H435v6.4v0.3v0.9v0.3v6.1v0.3v0.9v0.3v6.1v0.3v0.9v0.3v6.4h5.5l15.4,15.4l-0.9,1.1l-1,2.3l-0.3,2.5l0.3,2.5l1,2.3l1.5,2l2,1.5l2.3,1l2.5,0.3h4.7l2.5-0.3l2.3-1l2-1.5l1.5-2l1-2.3l0.3-2.5l-0.3-2.5l-1-2.3l-1.5-2l-2-1.5l-2.3-1l-2.5-0.3h-4.7l-2.5,0.3l-1.1,0.4l-13.5-13.5v-5.3v-0.3v-0.9l1-0.9h7.1l0.5,1.2l-0.9,2.1l-0.3,2.5l0.3,2.5l1,2.3l1.5,2l2,1.5l2.3,1l2.5,0.3h4.7l2.5-0.3l2.3-1l2-1.5l1.5-2l1-2.3l0.3-2.5l-0.3-2.5l-1-2.3l-1.5-2l-2-1.5l-2.3-1l-2.5-0.3h-4.7l-1.3,0.2l-0.4-0.4l-0.8-0.5l-0.9-0.2h-12.7l-0.7-0.7l0-1.3l0.8-0.7H460l0.9-0.2l0.8-0.5l0.4-0.4l1.3,0.2h4.7l2.5-0.3l2.3-1l2-1.5l1.5-2l1-2.3l0.3-2.5l-0.3-2.5l-1-2.3l-1.5-2l-2-1.5l-2.3-1l-2.5-0.3h-4.7l-2.5,0.3l-2.3,1l-2,1.5l-1.5,2l-1,2.3l-0.3,2.5l0.3,2.5l0.9,2.1l-0.5,1.2h-7.2l-0.8-0.8v-0.9v-0.3V263l13.5-13.5l1.1,0.4l2.5,0.3h4.7l2.5-0.3l2.3-1l2-1.5l1.5-2l1-2.3l0.3-2.5l-0.3-2.5l-1-2.3l-1.5-2l-2-1.5l-2.3-1L468.2,230.9z M182.7,287.9l-0.3-114.7l-0.8-1.3l-1.3-0.8l-1.5-0.3h-2.5l-0.4-1.2l0.4-0.3l1.3-2l0.2-1.1h-11.6l0.2,1.1l1.3,2l0.7,0.5l-0.2,1.3l-1.3,0.8l-0.8,1.3l-0.3,1.5l0.3,1.5l0.7,1.1l0.1,0.4l-0.2,1l-0.5,0.3l-0.8-0.5l-1.6-0.3l-1.6,0.3l-1.1,0.8l-0.7-0.2l-0.5-0.3v-71.1l-0.2-0.9l-0.5-0.8l-34.1-34.1l-0.8-0.5l-0.9-0.2H77.2v-0.9H65.9v6.6v0.9v6.6v0.9v6.6v0.9v6.6h11.4v-0.9h45.4l21.9,21.9v65.8l-1.2,0.5l-19.1-19.1l-0.8-0.5l-0.9-0.2H77.2V166H65.9v6.6v0.9v6.6v0.9v6.6v0.9v6.6h11.4v-0.9h44.1l5.2,5.2v38.5l0.2,0.9l0.5,0.8l19.5,19.5l0.8,0.5l0.9,0.2H167l0.2,0.3l0.4,0.2l0.1,1.2l-0.9,0.9H77.2v-0.9H65.9v6.6v0.9v6.6v0.9v6.6v0.9v6.6h11.4v-0.9h74.4l0.3,0.1H167l0.2,0.3l1.3,0.8l1.5,0.3h9l1.5-0.3l1.3-0.8l0.8-1.3L182.7,287.9 M127.8,128.6l-1.6,0.3l-1.3,0.9l-0.9,1.3l-0.3,1.6l0.3,1.6l0.9,1.3l0.5,0.3v26.7l0.2,0.9l0.5,0.8l8.5,8.5l-0.1,0.5l0.3,1.6l0.9,1.3l1.3,0.9l1.6,0.3l1.6-0.3l1.3-0.9l0.9-1.3l0.3-1.6l-0.3-1.6l-0.9-1.3l-1.3-0.9l-1.6-0.3l-0.5,0.1l-7.8-7.8v-25.7l0.5-0.3l0.9-1.3l0.3-1.6l-0.3-1.6l-0.9-1.3l-1.3-0.9L127.8,128.6z M31.8,135h-4.7l-2.5,0.3l-2.3,1l-2,1.5l-1.5,2l-1,2.3l-0.3,2.5l0.3,2.5l1,2.3l1.5,2l2,1.5l2.3,1l2.5,0.3h4.7l2.5-0.3l1.1-0.4l13.5,13.5v5.3v0.3v0.9l-1,0.9h-7.1l-0.5-1.2l0.9-2.1l0.3-2.5l-0.3-2.5l-1-2.3l-1.5-2l-2-1.5l-2.3-1l-2.5-0.3h-4.7l-2.5,0.3l-2.3,1l-2,1.5l-1.5,2l-1,2.3l-0.3,2.5l0.3,2.5l1,2.3l1.5,2l2,1.5l2.3,1l2.5,0.3h4.7l1.3-0.2l0.4,0.4l0.8,0.5l0.9,0.2H48l0.7,0.7l0,1.3l-0.8,0.7H35.3l-0.9,0.2l-0.8,0.5l-0.4,0.4l-1.3-0.2h-4.7l-2.5,0.3l-2.3,1l-2,1.5l-1.5,2l-1,2.3l-0.3,2.5l0.3,2.5l1,2.3l1.5,2l2,1.5l2.3,1l2.5,0.3h4.7l2.5-0.3l2.3-1l2-1.5l1.5-2l1-2.3l0.3-2.5l-0.3-2.5l-0.9-2.1l0.5-1.2H48l0.8,0.8v0.9v0.3v5.3l-13.5,13.5l-1.1-0.4l-2.5-0.3h-4.7l-2.5,0.3l-2.3,1l-2,1.5l-1.5,2l-1,2.3l-0.3,2.5l0.3,2.5l1,2.3l1.5,2l2,1.5l2.3,1l2.5,0.3h4.7l2.5-0.3l2.3-1l2-1.5l1.5-2l1-2.3l0.3-2.5l-0.3-2.5l-1-2.3l-0.9-1.1l15.4-15.4h5.5v-6.4v-0.3v-0.9v-0.3v-6.1v-0.3v-0.9v-0.3v-6.1v-0.3v-0.9v-0.3V166h-5.5l-15.4-15.4l0.9-1.1l1-2.3l0.3-2.5l-0.3-2.5l-1-2.3l-1.5-2l-2-1.5l-2.3-1L31.8,135z M170.9,159.2l-1.1,0.2l-2,1.3l-1.3,2l-0.2,1.1h4.6L170.9,159.2L170.9,159.2z M173.3,159.2v4.6h4.6l-0.2-1.1l-1.3-2l-2-1.3L173.3,159.2z M468.2,135h-4.7l-2.5,0.3l-2.3,1l-2,1.5l-1.5,2l-1,2.3l-0.3,2.5l0.3,2.5l1,2.3l0.9,1.1L440.6,166H435v6.4v0.3v0.9v0.3v6.1v0.3v0.9v0.3v6.1v0.3v0.9v0.3v6.4h5.5l15.4,15.4l-0.9,1.1l-1,2.3l-0.3,2.5l0.3,2.5l1,2.3l1.5,2l2,1.5l2.3,1l2.5,0.3h4.7l2.5-0.3l2.3-1l2-1.5l1.5-2l1-2.3l0.3-2.5l-0.3-2.5l-1-2.3l-1.5-2l-2-1.5l-2.3-1l-2.5-0.3h-4.7l-2.5,0.3l-1.1,0.4l-13.5-13.5v-5.3v-0.3v-0.9l1-0.9h7.1l0.5,1.2l-0.9,2.1l-0.3,2.5l0.3,2.5l1,2.3l1.5,2l2,1.5l2.3,1l2.5,0.3h4.7l2.5-0.3l2.3-1l2-1.5l1.5-2l1-2.3l0.3-2.5l-0.3-2.5l-1-2.3l-1.5-2l-2-1.5l-2.3-1l-2.5-0.3h-4.7l-1.3,0.2l-0.4-0.4l-0.8-0.5L460,182h-12.7l-0.7-0.7l0-1.3l0.8-0.7H460l0.9-0.2l0.8-0.5l0.4-0.4l1.3,0.2h4.7l2.5-0.3l2.3-1l2-1.5l1.5-2l1-2.3l0.3-2.5l-0.3-2.5l-1-2.3l-1.5-2l-2-1.5l-2.3-1l-2.5-0.3h-4.7l-2.5,0.3l-2.3,1l-2,1.5l-1.5,2l-1,2.3l-0.3,2.5l0.3,2.5l0.9,2.1l-0.5,1.2h-7.2l-0.8-0.8v-0.9v-0.3v-5.3l13.5-13.5l1.1,0.4l2.5,0.3h4.7l2.5-0.3l2.3-1l2-1.5l1.5-2l1-2.3l0.3-2.5l-0.3-2.5l-1-2.3l-1.5-2l-2-1.5l-2.3-1L468.2,135z M206,166.5l61.9-0.3l0.7-0.5l1.5,0.1l0.2,0.3l1.7,1.1l0.7,0.1v-9.3v-9.3l-0.7,0.1l-1.7,1.1l-0.2,0.3l-0.2,0.1l-1.1-0.6v-1.3l-0.2-0.9l-0.5-0.8l-2.6-2.6v-12.6l1.2-0.4l0.6,0.9l2,1.3l2,0.4v3h6.4v-9v-9h-6.4v3l-2,0.4l-2,1.3l-0.6,0.9l-1.2-0.4v-2.5l18.4-18.4h8.8l0.9-0.2l0.8-0.5l19.5-19.5l0.5-0.8l0.1-0.4h1.5V70.3h-6.4h-0.3h-0.9h-6.4H302h-0.9h-6.4h-0.3h-0.9h-6.6v10.7l-6.4,6.4h-2l-0.9,0.2l-0.8,0.5l-27.3,27.3l-0.5,0.8l-0.2,0.9v16l-6.8,6.8l-0.5,0.8l-0.2,0.9v9l-0.3,0.2l-0.3,0.5h-1.1l-0.9-0.9v-3.4l-0.2-0.9l-0.5-0.8l-19-19V81.7h1.4V70.3h-6.6h-0.9h-6.6h-0.9h-6.6h-0.9H191v11.4h0.2v45.5l0.2,0.9l0.5,0.8l8.9,8.9l-0.6,1.1l-0.6-0.1v5.8h-2.4v-5.8l-1,0.2l-0.6-0.3l-0.5-0.5l0.2-0.8l-0.3-1.6l-0.9-1.3l-1.3-0.9l-1.6-0.3l-1.6,0.3l-1.3,0.9l-0.9,1.3l-0.3,1.6l0.3,1.6l0.9,1.3l0.5,0.3v2.7h-4.1v-4.1l1.1-0.2h0.1v-6.4h-9h-9v6.4h0.1l1.1,0.2v1v11.8h15.6v-3.8h3.4l0.3,0.3v2.1l-0.3,0.2l-0.8,1.3l-0.3,1.5v9l0.3,1.5l0.8,1.3l0.3,0.2v7.5l0.2,0.9l0.5,0.8l4,4l0.8,0.5l0.9,0.2h12.7l0.6,1l1.6,1l1.8,0.4l1.8-0.4l1.6-1l0.6-1h61.9l0.9-0.2l0.8-0.5l3.9-3.9l0.5-0.8l0.2-0.9v-7.6l0.3-0.2l0.3-0.5h1.4l0.3,0.5l1.3,0.8l1.5,0.3l1.5-0.3l1.3-0.8l0.3-0.5h1.4l0.3,0.5l1.3,0.8l1.5,0.3l1.5-0.3l1.3-0.8l0.3-0.5h1.4l0.3,0.5l1.3,0.8l1.5,0.3l1.5-0.3l1.3-0.8l0.8-1.3l0.3-1.5v-9l-0.3-1.5l-0.8-1.3l-0.3-0.2v-2.2l28.6-28.6l1.1,0.5v46.1l-5.8,5.8h-2.4l-0.2-0.3l-1.3-0.8l-1.5-0.3h-9l-1.5,0.3l-1.3,0.8l-0.8,1.3l-0.3,1.5 M312.3,174.6l0.3,114.7l0.8,1.3l1.3,0.8l1.5,0.3h9l1.5-0.3l1.3-0.8l0.8-1.3l0.3-1.5l-0.3-1.5l-0.8-1.3l-0.5-0.3v-1.4l0.5-0.3l0.8-1.3l0.3-1.5l-0.3-1.5l-0.8-1.3l-0.5-0.3v-1.1l0.9-0.9h21.3l3.4,3.5v75.1l0.2,0.9l0.5,0.8l30,30l0.8,0.5l0.9,0.2H418v0.9h11.4v-6.6v-0.9v-6.6v-0.9v-6.6v-0.9v-6.6H418v0.9h-39l-10.4-10.4v-72.7l1.1-0.5l13.2,13.2l0.8,0.5l0.9,0.2H418v2.1h11.4v-6.4v-0.3v-0.9V277v-0.9v-6.6v-0.9v-6.6H418v0.9h-38.4l-44.5-44.5l-0.8-0.5l-0.9-0.2h-5.3l-0.2-0.3l-0.5-0.3v-1.4l0.5-0.3l0.8-1.3l0.3-1.5l-0.3-1.5l-0.8-1.3l-0.5-0.3v-1.1l0.9-0.9H351l0.9-0.2l0.8-0.5l12.2-12.2H418v0.9h11.4v-6.6v-0.9v-6.6v-0.9v-6.6v-0.9V166H418v0.9h-54.1L363,167l-0.8,0.5L350,179.7h-21.9l-0.2-0.3l-0.5-0.3V178l0.9-0.9h3.2l0.9-0.2l0.8-0.5l7.2-7.2l0.5-0.8l0.2-0.9v-48.1L362,98.5H418v0.9h11.4v-6.6v-0.9v-6.6v-0.9v-6.6v-0.9v-6.6h0H418V71h-50l-0.9,0.2l-0.8,0.5l-70.5,70.5h-2.6l-0.9,0.2l-0.1,0.1l-0.8-0.9l3.5-3.5l0.5-0.8l0.2-0.9v-0.7h3.9v-15.6h-12.8l-0.2-1.1v-0.1h-6.4v9v9h6.4v-0.1l0.2-1.1h2.1l0.5,1.1l-9.4,9.4l-0.5,0.8l-0.2,0.9v1.9l-1.1,0.6l-0.2-0.1l-0.2-0.3l-1.7-1.1l-0.8-0.1v9.3v9.3l0.8-0.1l1.7-1.1l0.2-0.3l0.2-0.1l1.1,0.6v5.7l-2.5,2.5h-60.8l-0.6-1l-1.6-1l-1.8-0.4l-1.8,0.4l-1.6,1l-0.6,1h-11.7l-2.6-2.6v-5.6l1.1-0.6l0.2,0.1l0.2,0.3l1.7,1.1l0.7,0.1v-9.3h2.4v9.3l0.8-0.1l1.7-1.1l0.2-0.3l1.5-0.1l0.7,0.5l1.5,0.3 M175.7,124h-7.8v6.4h7.8V124z M185.9,124h-7.8v6.4h7.8V124z M31.8,39.1h-4.7l-2.5,0.3l-2.3,1l-2,1.5l-1.5,2l-1,2.3l-0.3,2.5l0.3,2.5l1,2.3l1.5,2l2,1.5l2.3,1l2.5,0.3h4.7l2.5-0.3l1.1-0.4l13.5,13.5v5.3v0.3v0.9l-1,0.9h-7.1l-0.5-1.2l0.9-2.1l0.3-2.5l-0.3-2.5l-1-2.3l-1.5-2l-2-1.5l-2.3-1l-2.5-0.3h-4.7l-2.5,0.3l-2.3,1l-2,1.5l-1.5,2l-1,2.3l-0.3,2.5l0.3,2.5l1,2.3l1.5,2l2,1.5l2.3,1l2.5,0.3h4.7l1.3-0.2l0.4,0.4l0.8,0.5l0.9,0.2H48l0.7,0.7l0,1.3l-0.8,0.7H35.3l-0.9,0.2l-0.8,0.5l-0.4,0.4l-1.3-0.2h-4.7l-2.5,0.3l-2.3,1l-2,1.5l-1.5,2l-1,2.3l-0.3,2.5l0.3,2.5l1,2.3l1.5,2l2,1.5l2.3,1l2.5,0.3h4.7l2.5-0.3l2.3-1l2-1.5l1.5-2l1-2.3l0.3-2.5l-0.3-2.5l-0.9-2.1l0.5-1.2H48l0.8,0.8v0.9V93v5.3l-13.5,13.5l-1.1-0.4l-2.5-0.3h-4.7l-2.5,0.3l-2.3,1l-2,1.5l-1.5,2l-1,2.3l-0.3,2.5l0.3,2.5l1,2.3l1.5,2l2,1.5l2.3,1l2.5,0.3h4.7l2.5-0.3l2.3-1l2-1.5l1.5-2l1-2.3l0.3-2.5l-0.3-2.5l-1-2.3l-0.9-1.1l15.4-15.4h5.5V93v-0.3v-0.9v-0.3v-6.1v-0.3v-0.9V84v-6.1v-0.3v-0.9v-0.3v-6.3h-5.5L39.3,54.7l0.9-1.1l1-2.3l0.3-2.5l-0.3-2.5l-1-2.3l-1.5-2l-2-1.5l-2.3-1L31.8,39.1z M468.2,39.1h-4.7l-2.5,0.3l-2.3,1l-2,1.5l-1.5,2l-1,2.3l-0.3,2.5l0.3,2.5l1,2.3l0.9,1.1l-15.4,15.4H435v6.3v0.3v0.9v0.3V84v0.3v0.9v0.3v6.1v0.3v0.9V93v6.3h5.5l15.4,15.4l-0.9,1.1l-1,2.3l-0.3,2.5l0.3,2.5l1,2.3l1.5,2l2,1.5l2.3,1l2.5,0.3h4.7l2.5-0.3l2.3-1l2-1.5l1.5-2l1-2.3l0.3-2.5l-0.3-2.5l-1-2.3l-1.5-2l-2-1.5l-2.3-1l-2.5-0.3h-4.7l-2.5,0.3l-1.1,0.4l-13.5-13.5V93v-0.3v-0.9l1-0.9h7.1l0.5,1.2l-0.9,2.1l-0.3,2.5l0.3,2.5l1,2.3l1.5,2l2,1.5l2.3,1l2.5,0.3h4.7l2.5-0.3l2.3-1l2-1.5l1.5-2l1-2.3l0.3-2.5l-0.3-2.5l-1-2.3l-1.5-2l-2-1.5l-2.3-1l-2.5-0.3h-4.7l-1.3,0.2l-0.4-0.4l-0.8-0.5l-0.9-0.2h-12.7l-0.7-0.7l0-1.3l0.8-0.7H460l0.9-0.2l0.8-0.5l0.4-0.4l1.3,0.2h4.7l2.5-0.3l2.3-1l2-1.5l1.5-2l1-2.3l0.3-2.5l-0.3-2.5l-1-2.3l-1.5-2l-2-1.5l-2.3-1l-2.5-0.3h-4.7l-2.5,0.3l-2.3,1l-2,1.5l-1.5,2l-1,2.3l-0.3,2.5l0.3,2.5l0.9,2.1l-0.5,1.2h-7.2l-0.8-0.8v-0.9v-0.3v-5.3l13.5-13.5l1.1,0.4l2.5,0.3h4.7l2.5-0.3l2.3-1l2-1.5l1.5-2l1-2.3l0.3-2.5l-0.3-2.5l-1-2.3l-1.5-2l-2-1.5l-2.3-1L468.2,39.1z M67.9,19l-3.5,0.3l-3.3,1L58,22l-2.7,2.2l-2.2,2.7L51.4,30l-1,3.3l-0.3,3.5l0.3,3.5l1,3.3l1.6,3.1l2.2,2.7l2.7,2.2l3.1,1.6l3.3,1l3.5,0.3l3.5-0.3l3.3-1l3.1-1.6l2.7-2.2l2.2-2.7l1.6-3.1l1-3.3l0.3-3.5l-0.3-3.5l-1-3.3l-1.6-3.1l-2.2-2.7L77.7,22l-3.1-1.6l-3.3-1L67.9,19z M427.4,19l-3.5,0.3l-3.3,1l-3.1,1.6l-2.7,2.2l-2.2,2.7L411,30l-1,3.3l-0.3,3.5l0.3,3.5l1,3.3l1.6,3.1l2.2,2.7l2.7,2.2l3.1,1.6l3.3,1l3.5,0.3l3.5-0.3l3.3-1l3.1-1.6l2.7-2.2l2.2-2.7l1.6-3.1l1-3.3l0.3-3.5l-0.3-3.5l-1-3.3l-1.6-3.1l-2.2-2.7l-2.7-2.2l-3.1-1.6l-3.3-1L427.4,19z M241.7,23.5l-2.5,0.3l-2.3,1l-2,1.5l-1.5,2l-1,2.3l-0.3,2.5v4.7l0.3,2.4l-13,13H214h-0.3h-0.9l-0.9-1v-5.5l1.2-0.5l2.1,0.9l2.5,0.3l2.5-0.3l2.3-1l2-1.5l1.5-2l1-2.3l0.3-2.5v-4.7l-0.3-2.5l-1-2.3l-1.5-2l-2-1.5l-2.3-1l-2.5-0.3l-2.5,0.3l-2.3,1l-2,1.5l-1.5,2l-1,2.3l-0.3,2.5v4.6l-0.3,0.3l-0.5,0.8l-0.2,0.9v12.7l-0.7,0.7l-1.3,0l-0.7-0.8V39.8l-0.2-0.9l-0.5-0.8l-0.3-0.3v-4.6l-0.3-2.5l-1-2.3l-1.5-2l-2-1.5l-2.3-1l-2.5-0.3l-2.5,0.3l-2.3,1l-2,1.5l-1.5,2l-1,2.3l-0.3,2.5v4.7l0.3,2.5l1,2.3l1.5,2l2,1.5l2.3,1l2.5,0.3l2.5-0.3l2.1-0.9l1.2,0.5v5.6l-0.8,0.8h-0.9h-0.3h-5.3l-13.1-13l0.3-2.4v-4.7l-0.3-2.5l-1-2.3l-1.5-2l-2-1.5l-2.3-1l-2.5-0.3l-2.5,0.3l-2.3,1l-2,1.5l-1.5,2l-1,2.3l-0.3,2.5v4.7l0.3,2.5l1,2.3l1.5,2l2,1.5l2.3,1l2.5,0.3l2.5-0.3l2.3-1l2-1.5l0.1,0L191,59.2v5.5h6.4h0.3h0.9h0.3h6.1h0.3h0.9h0.3h6.1h0.3h0.9h0.3h6.4v-5.5l14.4-14.4l0.1,0l2,1.5l2.3,1l2.5,0.3l2.5-0.3l2.3-1l2-1.5l1.5-2l1-2.3l0.3-2.5v-4.7l-0.3-2.5l-1-2.3l-1.5-2l-2-1.5l-2.3-1L241.7,23.5z M337.5,23.5l-2.5,0.3l-2.3,1l-2,1.5l-1.5,2l-1,2.3l-0.3,2.5v4.7l0.3,2.4l-13,13h-5.3h-0.3h-0.9l-0.9-1v-5.5l1.2-0.5l2.1,0.9l2.5,0.3l2.5-0.3l2.3-1l2-1.5l1.5-2l1-2.3l0.3-2.5v-4.7l-0.3-2.5l-1-2.3l-1.5-2l-2-1.5l-2.3-1l-2.5-0.3l-2.5,0.3l-2.3,1l-2,1.5l-1.5,2l-1,2.3l-0.3,2.5v4.6l-0.3,0.3l-0.5,0.8l-0.2,0.9v12.7l-0.7,0.7l-1.3,0l-0.7-0.8V39.8l-0.2-0.9l-0.5-0.8l-0.3-0.3v-4.6l-0.3-2.5l-1-2.3l-1.5-2l-2-1.5l-2.3-1l-2.5-0.3l-2.5,0.3l-2.3,1l-2,1.5l-1.5,2l-1,2.3l-0.3,2.5v4.7l0.3,2.5l1,2.3l1.5,2l2,1.5l2.3,1l2.5,0.3l2.5-0.3l2.1-0.9l1.2,0.5v5.6l-0.8,0.8h-0.9h-0.3H288l-13-13l0.3-2.4v-4.7l-0.3-2.5l-1-2.3l-1.5-2l-2-1.5l-2.3-1l-2.5-0.3l-2.5,0.3l-2.3,1l-2,1.5l-1.5,2l-1,2.3l-0.3,2.5v4.7l0.3,2.5l1,2.3l1.5,2l2,1.5l2.3,1l2.5,0.3l2.5-0.3l2.3-1l2-1.5l0.1,0l14.4,14.4v5.5h6.4h0.3h0.9h0.3h6.1h0.3h0.9h0.3h6.1h0.3h0.9h0.3h6.4v-5.5l14.4-14.4l0.1,0l2,1.5l2.3,1l2.5,0.3l2.5-0.3l2.3-1l2-1.5l1.5-2l1-2.3l0.3-2.5v-4.7l-0.3-2.5l-1-2.3l-1.5-2l-2-1.5l-2.3-1L337.5,23.5z M477.8,9.3l1.8,0.2l1.7,0.7l1.5,1.1l1.1,1.5l0.7,1.7l0.2,1.8h0v448.3h0l-0.2,1.8l-0.7,1.7l-1.1,1.5l-1.5,1.1l-1.7,0.7l-1.8,0.2v0H17.5v0l-1.8-0.2l-1.7-0.7l-1.5-1.1l-1.1-1.5l-0.7-1.7l-0.2-1.8h0V16.4h0l0.2-1.8l0.7-1.7l1.1-1.5l1.5-1.1l1.7-0.7l1.8-0.2v0L477.8,9.3L477.8,9.3z"/>
		</g>
	</g>
	<g>
		<g class="st6">
			<path d="M275.2,127.9c0-2-1.6-3.5-3.5-3.5s-3.5,1.6-3.5,3.5c0,2,1.6,3.5,3.5,3.5S275.2,129.8,275.2,127.9"/>
			<path d="M161.3,300.5c0-2-1.6-3.5-3.5-3.5c-2,0-3.5,1.6-3.5,3.5s1.6,3.5,3.5,3.5C159.7,304,161.3,302.4,161.3,300.5"/>
			<path d="M257.2,377.2c0-2-1.6-3.5-3.5-3.5c-2,0-3.5,1.6-3.5,3.5c0,2,1.6,3.5,3.5,3.5C255.6,380.7,257.2,379.1,257.2,377.2"/>
			<path d="M242.8,377.2c0-2-1.6-3.5-3.5-3.5s-3.5,1.6-3.5,3.5c0,2,1.6,3.5,3.5,3.5S242.8,379.1,242.8,377.2"/>
			<path d="M194.1,137.5c0-1.6-1.3-2.8-2.8-2.8s-2.8,1.3-2.8,2.8s1.3,2.8,2.8,2.8S194.1,139,194.1,137.5"/>
			<path d="M175.7,165c0-2-1.6-3.5-3.5-3.5c-2,0-3.5,1.6-3.5,3.5c0,2,1.6,3.5,3.5,3.5C174.1,168.6,175.7,167,175.7,165"/>
			<path d="M164.3,250.8c0-1.6-1.3-2.9-2.9-2.9c-1.6,0-2.9,1.3-2.9,2.9c0,1.6,1.3,2.9,2.9,2.9C163,253.7,164.3,252.4,164.3,250.8"/>
			<path d="M130.6,132.7c0-1.6-1.3-2.8-2.8-2.8c-1.6,0-2.8,1.3-2.8,2.8s1.3,2.8,2.8,2.8C129.3,135.5,130.6,134.2,130.6,132.7"/>
			<path d="M141.4,173.4c0-1.6-1.3-2.8-2.8-2.8s-2.8,1.3-2.8,2.8s1.3,2.8,2.8,2.8S141.4,175,141.4,173.4"/>
			<path d="M166.9,182.2c0-1.6-1.3-2.8-2.8-2.8s-2.8,1.3-2.8,2.8c0,1.6,1.3,2.8,2.8,2.8C165.7,185,166.9,183.8,166.9,182.2"/>
			<path d="M167,189.7c0-1.6-1.3-2.8-2.8-2.8s-2.8,1.3-2.8,2.8s1.3,2.8,2.8,2.8C165.8,192.6,167,191.3,167,189.7"/>
			<path d="M202,144.7c0-2-1.6-3.5-3.5-3.5s-3.5,1.6-3.5,3.5c0,2,1.6,3.5,3.5,3.5S202,146.6,202,144.7"/>
			<path d="M228.4,358c0-2-1.6-3.5-3.5-3.5s-3.5,1.6-3.5,3.5c0,2,1.6,3.5,3.5,3.5S228.4,360,228.4,358"/>
			<path class="st7" d="M276.8,272.9c0-1.6-1.3-2.8-2.8-2.8s-2.8,1.3-2.8,2.8s1.3,2.8,2.8,2.8S276.8,274.5,276.8,272.9"/>
			<path class="st7" d="M269.2,265.3c0-1.6-1.3-2.8-2.8-2.8s-2.8,1.3-2.8,2.8s1.3,2.8,2.8,2.8C268,268.1,269.2,266.9,269.2,265.3"/>
			<path class="st7" d="M242.8,292.1c0-2-1.6-3.5-3.5-3.5s-3.5,1.6-3.5,3.5c0,2,1.6,3.5,3.5,3.5S242.8,294,242.8,292.1"/>
			<path class="st7" d="M216.2,292.1c0-1.2-1-2.1-2.1-2.1s-2.1,1-2.1,2.1s1,2.1,2.1,2.1S216.2,293.3,216.2,292.1"/>
			<path class="st7" d="M215.2,177c0-2-1.6-3.5-3.5-3.5c-2,0-3.5,1.6-3.5,3.5c0,2,1.6,3.5,3.5,3.5C213.6,180.6,215.2,179,215.2,177"
				/>
		</g>
	</g>
	<g>
		<g>
			<line class="st8" x1="71.6" y1="376.2" x2="72.8" y2="375"/>
			<line class="st8" x1="71.6" y1="383.7" x2="72.8" y2="382.5"/>
			<line class="st8" x1="71.6" y1="361.1" x2="72.8" y2="359.9"/>
			<line class="st8" x1="174.4" y1="280.3" x2="174.5" y2="280.3"/>
			<line class="st8" x1="174.4" y1="287.9" x2="174.5" y2="287.9"/>
			<line class="st8" x1="320.7" y1="189.7" x2="321.8" y2="188.7"/>
			<line class="st8" x1="422.5" y1="286.6" x2="423.7" y2="287.8"/>
			<line class="st8" x1="71.6" y1="368.6" x2="72.8" y2="367.4"/>
			<line class="st8" x1="174.4" y1="272.8" x2="175.7" y2="272.8"/>
			<rect x="50.1" y="381.6" class="st9" width="9" height="4.2"/>
			<rect x="50.1" y="374" class="st9" width="9" height="4.2"/>
			<rect x="50.1" y="358.9" class="st9" width="9" height="4.2"/>
			<rect x="50.1" y="278.2" class="st9" width="9" height="4.2"/>
			<rect x="50.1" y="285.7" class="st9" width="9" height="4.2"/>
			<rect x="50.1" y="263.1" class="st9" width="9" height="4.2"/>
			<rect x="50.1" y="182.3" class="st9" width="9" height="4.2"/>
			<rect x="50.1" y="189.8" class="st9" width="9" height="4.2"/>
			<rect x="50.1" y="167.2" class="st9" width="9" height="4.2"/>
			<rect x="50.1" y="86.4" class="st9" width="9" height="4.2"/>
			<rect x="50.1" y="93.9" class="st9" width="9" height="4.2"/>
			<rect x="50.1" y="71.3" class="st9" width="9" height="4.2"/>
			<line class="st10" x1="169.9" y1="287.9" x2="178.9" y2="287.9"/>
			<line class="st10" x1="169.9" y1="280.3" x2="178.9" y2="280.3"/>
			<line class="st10" x1="169.9" y1="265.2" x2="178.9" y2="265.2"/>
			<line class="st10" x1="169.9" y1="257.7" x2="178.9" y2="257.7"/>
			<line class="st10" x1="169.9" y1="242.6" x2="178.9" y2="242.6"/>
			<line class="st10" x1="169.9" y1="227.5" x2="178.9" y2="227.5"/>
			<line class="st10" x1="169.9" y1="219.9" x2="178.9" y2="219.9"/>
			<line class="st10" x1="169.9" y1="204.8" x2="178.9" y2="204.8"/>
			<line class="st10" x1="169.9" y1="189.7" x2="178.9" y2="189.7"/>
			<line class="st10" x1="169.9" y1="182.2" x2="178.9" y2="182.2"/>
			<rect x="204.7" y="340.4" class="st9" width="11.8" height="7.5"/>
			<rect x="249.6" y="351.5" class="st9" width="8" height="6.6"/>
			<rect x="260.2" y="391.3" class="st9" width="13.2" height="10.4"/>
			<rect x="419.2" y="374" class="st9" width="9" height="4.2"/>
			<rect x="419.2" y="381.6" class="st9" width="9" height="4.2"/>
			<rect x="419.2" y="358.9" class="st9" width="9" height="4.2"/>
			<rect x="419.2" y="278.2" class="st9" width="9" height="4.2"/>
			<rect x="419.2" y="285.7" class="st9" width="9" height="4.2"/>
			<rect x="419.2" y="263.1" class="st9" width="9" height="4.2"/>
			<rect x="419.2" y="189.8" class="st9" width="9" height="4.2"/>
			<rect x="419.2" y="182.3" class="st9" width="9" height="4.2"/>
			<rect x="419.2" y="167.2" class="st9" width="9" height="4.2"/>
			<rect x="419.2" y="86.4" class="st9" width="9" height="4.2"/>
			<rect x="419.2" y="93.9" class="st9" width="9" height="4.2"/>
			<rect x="419.2" y="71.3" class="st9" width="9" height="4.2"/>
			<rect x="436.2" y="374" class="st9" width="9" height="4.2"/>
			<rect x="436.2" y="381.6" class="st9" width="9" height="4.2"/>
			<rect x="436.2" y="358.9" class="st9" width="9" height="4.2"/>
			<rect x="436.2" y="278.2" class="st9" width="9" height="4.2"/>
			<rect x="436.2" y="285.7" class="st9" width="9" height="4.2"/>
			<rect x="436.2" y="263.1" class="st9" width="9" height="4.2"/>
			<rect x="436.2" y="189.8" class="st9" width="9" height="4.2"/>
			<rect x="436.2" y="182.3" class="st9" width="9" height="4.2"/>
			<rect x="436.2" y="167.2" class="st9" width="9" height="4.2"/>
			<rect x="436.2" y="86.4" class="st9" width="9" height="4.2"/>
			<rect x="436.2" y="93.9" class="st9" width="9" height="4.2"/>
			<rect x="436.2" y="71.3" class="st9" width="9" height="4.2"/>
			<rect x="50.1" y="366.5" class="st9" width="9" height="4.2"/>
			<rect x="50.1" y="270.6" class="st9" width="9" height="4.2"/>
			<rect x="50.1" y="174.7" class="st9" width="9" height="4.2"/>
			<rect x="50.1" y="78.8" class="st9" width="9" height="4.2"/>
			<line class="st10" x1="169.9" y1="272.8" x2="178.9" y2="272.8"/>
			<line class="st10" x1="169.9" y1="250.1" x2="178.9" y2="250.1"/>
			<line class="st10" x1="169.9" y1="235" x2="178.9" y2="235"/>
			<line class="st10" x1="169.9" y1="212.4" x2="178.9" y2="212.4"/>
			<line class="st10" x1="169.9" y1="197.3" x2="178.9" y2="197.3"/>
			<line class="st10" x1="169.9" y1="174.6" x2="178.9" y2="174.6"/>
			<line class="st10" x1="190.9" y1="162.6" x2="190.9" y2="153.6"/>
			<line class="st10" x1="198.5" y1="162.6" x2="198.5" y2="153.6"/>
			<rect x="192.2" y="71.5" class="st9" width="4.2" height="9"/>
			<rect x="192.2" y="54.5" class="st9" width="4.2" height="9"/>
			<rect x="204.7" y="321.5" class="st9" width="11.8" height="7.5"/>
			<line class="st10" x1="206" y1="162.6" x2="206" y2="153.6"/>
			<line class="st10" x1="213.6" y1="162.6" x2="213.6" y2="153.6"/>
			<rect x="214.9" y="71.5" class="st9" width="4.2" height="9"/>
			<rect x="207.3" y="71.5" class="st9" width="4.2" height="9"/>
			<rect x="214.9" y="54.5" class="st9" width="4.2" height="9"/>
			<rect x="207.3" y="54.5" class="st9" width="4.2" height="9"/>
			<line class="st10" x1="228.7" y1="162.6" x2="228.7" y2="153.6"/>
			<line class="st10" x1="236.2" y1="162.6" x2="236.2" y2="153.6"/>
			<rect x="249.6" y="367.5" class="st9" width="8" height="6.6"/>
			<line class="st10" x1="243.8" y1="162.6" x2="243.8" y2="153.6"/>
			<line class="st10" x1="251.3" y1="162.6" x2="251.3" y2="153.6"/>
			<rect x="260.2" y="405.4" class="st9" width="13.2" height="10.4"/>
			<line class="st10" x1="266.4" y1="162.6" x2="266.4" y2="153.6"/>
			<line class="st10" x1="274" y1="162.6" x2="274" y2="153.6"/>
			<rect x="282.2" y="403.3" class="st9" width="7.6" height="14.2"/>
			<rect x="282.2" y="356.1" class="st9" width="7.6" height="14.2"/>
			<line class="st10" x1="289.1" y1="162.6" x2="289.1" y2="153.6"/>
			<rect x="288.1" y="71.5" class="st9" width="4.2" height="9"/>
			<rect x="288.1" y="54.5" class="st9" width="4.2" height="9"/>
			<rect x="306.2" y="403.3" class="st9" width="7.6" height="14.2"/>
			<rect x="306.2" y="356.1" class="st9" width="7.6" height="14.2"/>
			<line class="st10" x1="304.2" y1="162.6" x2="304.2" y2="153.6"/>
			<rect x="310.8" y="71.5" class="st9" width="4.2" height="9"/>
			<rect x="303.2" y="71.5" class="st9" width="4.2" height="9"/>
			<rect x="310.8" y="54.5" class="st9" width="4.2" height="9"/>
			<rect x="303.2" y="54.5" class="st9" width="4.2" height="9"/>
			<rect x="318.2" y="403.3" class="st9" width="7.6" height="14.2"/>
			<rect x="318.2" y="356.1" class="st9" width="7.6" height="14.2"/>
			<rect x="419.2" y="366.5" class="st9" width="9" height="4.2"/>
			<rect x="419.2" y="270.6" class="st9" width="9" height="4.2"/>
			<rect x="419.2" y="174.7" class="st9" width="9" height="4.2"/>
			<rect x="419.2" y="78.8" class="st9" width="9" height="4.2"/>
			<rect x="436.2" y="366.5" class="st9" width="9" height="4.2"/>
			<rect x="436.2" y="270.6" class="st9" width="9" height="4.2"/>
			<rect x="436.2" y="174.7" class="st9" width="9" height="4.2"/>
			<rect x="436.2" y="78.8" class="st9" width="9" height="4.2"/>
			<line class="st10" x1="198.5" y1="308.9" x2="198.5" y2="299.9"/>
			<line class="st10" x1="190.9" y1="308.9" x2="190.9" y2="299.9"/>
			<line class="st10" x1="213.6" y1="308.9" x2="213.6" y2="299.9"/>
			<line class="st10" x1="206" y1="308.9" x2="206" y2="299.9"/>
			<line class="st10" x1="236.2" y1="308.9" x2="236.2" y2="299.9"/>
			<line class="st10" x1="228.7" y1="308.9" x2="228.7" y2="299.9"/>
			<line class="st10" x1="251.3" y1="308.9" x2="251.3" y2="299.9"/>
			<line class="st10" x1="243.8" y1="308.9" x2="243.8" y2="299.9"/>
			<line class="st10" x1="274" y1="308.9" x2="274" y2="299.9"/>
			<line class="st10" x1="266.4" y1="308.9" x2="266.4" y2="299.9"/>
			<line class="st10" x1="289.1" y1="308.9" x2="289.1" y2="299.9"/>
			<line class="st10" x1="304.2" y1="308.9" x2="304.2" y2="299.9"/>
			<rect x="67.1" y="381.6" class="st9" width="9" height="4.2"/>
			<rect x="67.1" y="374" class="st9" width="9" height="4.2"/>
			<rect x="67.1" y="358.9" class="st9" width="9" height="4.2"/>
			<rect x="67.1" y="278.2" class="st9" width="9" height="4.2"/>
			<rect x="67.1" y="285.7" class="st9" width="9" height="4.2"/>
			<rect x="67.1" y="263.1" class="st9" width="9" height="4.2"/>
			<rect x="67.1" y="182.3" class="st9" width="9" height="4.2"/>
			<rect x="67.1" y="189.8" class="st9" width="9" height="4.2"/>
			<rect x="67.1" y="167.2" class="st9" width="9" height="4.2"/>
			<rect x="67.1" y="86.4" class="st9" width="9" height="4.2"/>
			<rect x="67.1" y="93.9" class="st9" width="9" height="4.2"/>
			<rect x="67.1" y="71.3" class="st9" width="9" height="4.2"/>
			<rect x="170.3" y="140.6" class="st9" width="13.2" height="10.4"/>
			<rect x="170.3" y="126.4" class="st9" width="13.2" height="10.4"/>
			<rect x="235.2" y="351.5" class="st9" width="8" height="6.6"/>
			<rect x="198.2" y="352.6" class="st9" width="10.4" height="13.2"/>
			<rect x="212.4" y="352.6" class="st9" width="10.4" height="13.2"/>
			<rect x="229.5" y="337.3" class="st9" width="12.3" height="10.4"/>
			<rect x="251.2" y="337.3" class="st9" width="12.3" height="10.4"/>
			<line class="st10" x1="316.2" y1="280.3" x2="325.2" y2="280.3"/>
			<line class="st10" x1="316.2" y1="287.9" x2="325.2" y2="287.9"/>
			<line class="st10" x1="316.2" y1="257.7" x2="325.2" y2="257.7"/>
			<line class="st10" x1="316.2" y1="265.2" x2="325.2" y2="265.2"/>
			<line class="st10" x1="316.2" y1="242.6" x2="325.2" y2="242.6"/>
			<line class="st10" x1="316.2" y1="219.9" x2="325.2" y2="219.9"/>
			<line class="st10" x1="316.2" y1="227.5" x2="325.2" y2="227.5"/>
			<line class="st10" x1="316.2" y1="204.8" x2="325.2" y2="204.8"/>
			<line class="st10" x1="316.2" y1="182.2" x2="325.2" y2="182.2"/>
			<line class="st10" x1="316.2" y1="189.7" x2="325.2" y2="189.7"/>
			<rect x="273.7" y="121.3" class="st9" width="10.4" height="13.2"/>
			<rect x="287.9" y="121.3" class="st9" width="10.4" height="13.2"/>
			<rect x="67.1" y="366.5" class="st9" width="9" height="4.2"/>
			<rect x="67.1" y="270.6" class="st9" width="9" height="4.2"/>
			<rect x="67.1" y="174.7" class="st9" width="9" height="4.2"/>
			<rect x="67.1" y="78.8" class="st9" width="9" height="4.2"/>
			<rect x="229.5" y="320.4" class="st9" width="12.3" height="10.4"/>
			<rect x="251.2" y="320.4" class="st9" width="12.3" height="10.4"/>
			<rect x="235.2" y="367.5" class="st9" width="8" height="6.6"/>
			<line class="st10" x1="221.1" y1="162.6" x2="221.1" y2="153.6"/>
			<line class="st10" x1="258.9" y1="162.6" x2="258.9" y2="153.6"/>
			<rect x="199.8" y="71.5" class="st9" width="4.2" height="9"/>
			<rect x="199.8" y="54.5" class="st9" width="4.2" height="9"/>
			<rect x="294.2" y="403.3" class="st9" width="7.6" height="14.2"/>
			<rect x="294.2" y="356.1" class="st9" width="7.6" height="14.2"/>
			<line class="st10" x1="316.2" y1="235" x2="325.2" y2="235"/>
			<line class="st10" x1="316.2" y1="250.1" x2="325.2" y2="250.1"/>
			<line class="st10" x1="316.2" y1="272.8" x2="325.2" y2="272.8"/>
			<line class="st10" x1="281.5" y1="162.6" x2="281.5" y2="153.6"/>
			<line class="st10" x1="296.6" y1="162.6" x2="296.6" y2="153.6"/>
			<line class="st10" x1="316.2" y1="174.6" x2="325.2" y2="174.6"/>
			<line class="st10" x1="316.2" y1="197.3" x2="325.2" y2="197.3"/>
			<line class="st10" x1="316.2" y1="212.4" x2="325.2" y2="212.4"/>
			<rect x="295.7" y="71.5" class="st9" width="4.2" height="9"/>
			<rect x="295.7" y="54.5" class="st9" width="4.2" height="9"/>
			<line class="st10" x1="258.9" y1="308.9" x2="258.9" y2="299.9"/>
			<line class="st10" x1="221.1" y1="308.9" x2="221.1" y2="299.9"/>
			<line class="st10" x1="296.6" y1="308.9" x2="296.6" y2="299.9"/>
			<line class="st10" x1="281.5" y1="308.9" x2="281.5" y2="299.9"/>
			<circle class="st11" cx="67.9" cy="36.8" r="17.9"/>
			<circle class="st11" cx="67.9" cy="444.3" r="17.9"/>
			<circle class="st11" cx="427.4" cy="444.3" r="17.9"/>
			<circle class="st11" cx="427.4" cy="36.8" r="17.9"/>
		</g>
	</g>
	<g>
		<line class="st12" x1="7.9" y1="464.7" x2="7.9" y2="16.4"/>
		<line class="st12" x1="487.4" y1="464.7" x2="487.4" y2="16.4"/>
		<line class="st12" x1="17.5" y1="474.3" x2="477.8" y2="474.3"/>
		<line class="st13" x1="17.5" y1="6.8" x2="477.8" y2="6.8"/>
		<path class="st12" d="M477.8,6.8c5.3,0,9.6,4.3,9.6,9.6"/>
		<path class="st12" d="M487.4,464.7c0,5.3-4.3,9.6-9.6,9.6"/>
		<path class="st14" d="M7.9,16.4c0-5.3,4.3-9.6,9.6-9.6"/>
		<path class="st12" d="M17.5,474.3c-5.3,0-9.6-4.3-9.6-9.6l0,0"/>
		<line class="st15" x1="326.9" y1="440.2" x2="330.3" y2="440.2"/>
	</g>
	<g>
		<g>
			<line class="st16" x1="242.8" y1="231.3" x2="252.3" y2="231.3"/>
			<line class="st16" x1="247.5" y1="236" x2="247.5" y2="226.5"/>
			<line class="st16" x1="181.5" y1="297.3" x2="181.5" y2="165.2"/>
			<line class="st16" x1="313.6" y1="297.3" x2="313.6" y2="165.2"/>
			<line class="st16" x1="181.5" y1="297.3" x2="313.6" y2="297.3"/>
			<line class="st16" x1="181.5" y1="165.2" x2="313.6" y2="165.2"/>
			<path class="st16" d="M194.7,173.7c0-2.6-2.1-4.7-4.7-4.7c-2.6,0-4.7,2.1-4.7,4.7s2.1,4.7,4.7,4.7
				C192.6,178.4,194.7,176.3,194.7,173.7"/>
		</g>
	</g>
	<g>
		<g>
			<line class="st17" x1="169.7" y1="34.4" x2="169.7" y2="31.6"/>
			<line class="st17" x1="241.7" y1="34.4" x2="241.7" y2="31.6"/>
			<line class="st17" x1="265.6" y1="34.4" x2="265.6" y2="31.6"/>
			<line class="st17" x1="337.5" y1="34.4" x2="337.5" y2="31.6"/>
			<line class="st18" x1="169.7" y1="37.9" x2="169.7" y2="33.2"/>
			<line class="st18" x1="241.7" y1="37.9" x2="241.7" y2="33.2"/>
			<line class="st18" x1="217.7" y1="37.9" x2="217.7" y2="33.2"/>
			<line class="st18" x1="313.6" y1="37.9" x2="313.6" y2="33.2"/>
			<line class="st18" x1="289.6" y1="37.9" x2="289.6" y2="33.2"/>
			<line class="st18" x1="193.7" y1="37.9" x2="193.7" y2="33.2"/>
			<line class="st18" x1="337.5" y1="37.9" x2="337.5" y2="33.2"/>
			<line class="st18" x1="265.6" y1="37.9" x2="265.6" y2="33.2"/>
			<line class="st17" x1="27.1" y1="408.3" x2="29.9" y2="408.3"/>
			<line class="st17" x1="27.1" y1="48.8" x2="29.9" y2="48.8"/>
			<line class="st18" x1="27.1" y1="408.3" x2="31.8" y2="408.3"/>
			<line class="st18" x1="27.1" y1="312.5" x2="31.8" y2="312.5"/>
			<line class="st18" x1="27.1" y1="336.4" x2="31.8" y2="336.4"/>
			<line class="st18" x1="27.1" y1="360.4" x2="31.8" y2="360.4"/>
			<line class="st18" x1="27.1" y1="240.5" x2="31.8" y2="240.5"/>
			<line class="st18" x1="27.1" y1="264.5" x2="31.8" y2="264.5"/>
			<line class="st18" x1="27.1" y1="288.5" x2="31.8" y2="288.5"/>
			<line class="st18" x1="27.1" y1="168.6" x2="31.8" y2="168.6"/>
			<line class="st18" x1="27.1" y1="192.6" x2="31.8" y2="192.6"/>
			<line class="st18" x1="27.1" y1="96.7" x2="31.8" y2="96.7"/>
			<line class="st18" x1="27.1" y1="120.7" x2="31.8" y2="120.7"/>
			<line class="st18" x1="27.1" y1="48.8" x2="31.8" y2="48.8"/>
			<line class="st18" x1="27.1" y1="216.6" x2="31.8" y2="216.6"/>
			<line class="st18" x1="27.1" y1="384.4" x2="31.8" y2="384.4"/>
			<line class="st18" x1="27.1" y1="144.7" x2="31.8" y2="144.7"/>
			<line class="st18" x1="27.1" y1="72.8" x2="31.8" y2="72.8"/>
			<line class="st17" x1="465.4" y1="408.3" x2="468.2" y2="408.3"/>
			<line class="st17" x1="465.4" y1="336.4" x2="468.2" y2="336.4"/>
			<line class="st17" x1="465.4" y1="312.5" x2="468.2" y2="312.5"/>
			<line class="st17" x1="465.4" y1="240.5" x2="468.2" y2="240.5"/>
			<line class="st17" x1="465.4" y1="216.6" x2="468.2" y2="216.6"/>
			<line class="st17" x1="465.4" y1="144.7" x2="468.2" y2="144.7"/>
			<line class="st17" x1="465.4" y1="120.7" x2="468.2" y2="120.7"/>
			<line class="st17" x1="465.4" y1="48.8" x2="468.2" y2="48.8"/>
			<line class="st18" x1="463.5" y1="408.3" x2="468.2" y2="408.3"/>
			<line class="st18" x1="463.5" y1="312.5" x2="468.2" y2="312.5"/>
			<line class="st18" x1="463.5" y1="336.4" x2="468.2" y2="336.4"/>
			<line class="st18" x1="463.5" y1="360.4" x2="468.2" y2="360.4"/>
			<line class="st18" x1="463.5" y1="240.5" x2="468.2" y2="240.5"/>
			<line class="st18" x1="463.5" y1="264.5" x2="468.2" y2="264.5"/>
			<line class="st18" x1="463.5" y1="288.5" x2="468.2" y2="288.5"/>
			<line class="st18" x1="463.5" y1="192.6" x2="468.2" y2="192.6"/>
			<line class="st18" x1="463.5" y1="168.6" x2="468.2" y2="168.6"/>
			<line class="st18" x1="463.5" y1="120.7" x2="468.2" y2="120.7"/>
			<line class="st18" x1="463.5" y1="96.7" x2="468.2" y2="96.7"/>
			<line class="st18" x1="463.5" y1="48.8" x2="468.2" y2="48.8"/>
			<line class="st18" x1="463.5" y1="384.4" x2="468.2" y2="384.4"/>
			<line class="st18" x1="463.5" y1="216.6" x2="468.2" y2="216.6"/>
			<line class="st18" x1="463.5" y1="144.7" x2="468.2" y2="144.7"/>
			<line class="st18" x1="463.5" y1="72.8" x2="468.2" y2="72.8"/>
			<line class="st18" x1="234.5" y1="439.5" x2="234.5" y2="434.8"/>
			<line class="st18" x1="282.4" y1="439.5" x2="282.4" y2="434.8"/>
			<line class="st18" x1="330.3" y1="440.2" x2="330.3" y2="435.5"/>
			<line class="st18" x1="186.5" y1="439.5" x2="186.5" y2="434.8"/>
		</g>
	</g>
	<g>
		<g>
			<circle class="st19" cx="67.9" cy="444.3" r="14.6"/>
			<circle class="st19" cx="427.4" cy="444.3" r="14.6"/>
			<circle class="st19" cx="427.4" cy="36.8" r="14.6"/>
			<circle class="st19" cx="67.9" cy="36.8" r="14.6"/>
			<circle class="st19" cx="468.2" cy="408.3" r="5.2"/>
			<circle class="st19" cx="468.2" cy="384.4" r="5.2"/>
			<circle class="st19" cx="468.2" cy="360.4" r="5.2"/>
			<circle class="st19" cx="468.2" cy="336.4" r="5.2"/>
			<circle class="st19" cx="468.2" cy="312.5" r="5.2"/>
			<circle class="st19" cx="468.2" cy="288.5" r="5.2"/>
			<circle class="st19" cx="468.2" cy="264.5" r="5.2"/>
			<circle class="st19" cx="468.2" cy="240.5" r="5.2"/>
			<circle class="st19" cx="468.2" cy="216.6" r="5.2"/>
			<circle class="st19" cx="468.2" cy="192.6" r="5.2"/>
			<circle class="st19" cx="468.2" cy="168.6" r="5.2"/>
			<circle class="st19" cx="468.2" cy="144.7" r="5.2"/>
			<circle class="st19" cx="468.2" cy="120.7" r="5.2"/>
			<circle class="st19" cx="468.2" cy="96.7" r="5.2"/>
			<circle class="st19" cx="468.2" cy="72.8" r="5.2"/>
			<circle class="st19" cx="468.2" cy="48.8" r="5.2"/>
			<circle class="st19" cx="337.5" cy="33" r="5.2"/>
			<circle class="st19" cx="313.6" cy="33" r="5.2"/>
			<circle class="st19" cx="289.6" cy="33" r="5.2"/>
			<circle class="st19" cx="265.6" cy="33" r="5.2"/>
			<circle class="st19" cx="241.7" cy="33" r="5.2"/>
			<circle class="st19" cx="217.7" cy="33" r="5.2"/>
			<circle class="st19" cx="193.7" cy="33" r="5.2"/>
			<circle class="st19" cx="169.7" cy="33" r="5.2"/>
			<circle class="st19" cx="26.6" cy="408.3" r="5.2"/>
			<circle class="st19" cx="26.6" cy="384" r="5.2"/>
			<circle class="st19" cx="26.6" cy="360.1" r="5.2"/>
			<circle class="st19" cx="26.6" cy="336.1" r="5.2"/>
			<circle class="st19" cx="26.6" cy="312.1" r="5.2"/>
			<circle class="st19" cx="26.6" cy="288.1" r="5.2"/>
			<circle class="st19" cx="26.6" cy="264.2" r="5.2"/>
			<circle class="st19" cx="26.6" cy="240.2" r="5.2"/>
			<circle class="st19" cx="26.6" cy="216.2" r="5.2"/>
			<circle class="st19" cx="26.6" cy="192.3" r="5.2"/>
			<circle class="st19" cx="26.6" cy="168.3" r="5.2"/>
			<circle class="st19" cx="26.6" cy="144.3" r="5.2"/>
			<circle class="st19" cx="26.6" cy="120.3" r="5.2"/>
			<circle class="st19" cx="26.6" cy="96.4" r="5.2"/>
			<circle class="st19" cx="26.6" cy="72.4" r="5.2"/>
			<circle class="st19" cx="26.6" cy="48.4" r="5.2"/>
			<circle class="st19" cx="67.6" cy="36.8" r="14.6"/>
			<circle class="st19" cx="67.6" cy="444.3" r="14.6"/>
			<circle class="st19" cx="427.2" cy="444.3" r="14.6"/>
			<circle class="st19" cx="427.2" cy="36.8" r="14.6"/>
			<circle class="st19" cx="186.5" cy="439.9" r="5.2"/>
			<circle class="st19" cx="234.5" cy="439.9" r="5.2"/>
			<circle class="st19" cx="282.2" cy="439.9" r="5.2"/>
			<circle class="st19" cx="330.3" cy="439.9" r="5.2"/>
		</g>
	</g>
	<g>
		<g>
			<line class="st20" x1="185.3" y1="293.5" x2="185.3" y2="169"/>
			<line class="st20" x1="309.8" y1="293.5" x2="309.8" y2="169"/>
			<line class="st20" x1="185.3" y1="293.5" x2="309.8" y2="293.5"/>
			<line class="st20" x1="185.3" y1="169" x2="309.8" y2="169"/>
			<line class="st21" x1="229.7" y1="224" x2="234.5" y2="224"/>
			<line class="st21" x1="234.5" y1="224" x2="232.1" y2="224"/>
			<line class="st21" x1="232.1" y1="224" x2="232.1" y2="238.4"/>
			<line class="st21" x1="232.1" y1="238.4" x2="229.7" y2="238.4"/>
			<line class="st21" x1="229.7" y1="238.4" x2="234.5" y2="238.4"/>
			<line class="st21" x1="251.2" y1="226.4" x2="248.8" y2="224"/>
			<line class="st21" x1="248.8" y1="224" x2="244" y2="224"/>
			<line class="st21" x1="244" y1="224" x2="241.6" y2="226.4"/>
			<line class="st21" x1="241.6" y1="226.4" x2="241.6" y2="236"/>
			<line class="st21" x1="241.6" y1="236" x2="244" y2="238.4"/>
			<line class="st21" x1="244" y1="238.4" x2="248.8" y2="238.4"/>
			<line class="st21" x1="248.8" y1="238.4" x2="251.2" y2="236"/>
			<line class="st21" x1="265.6" y1="238.4" x2="256" y2="238.4"/>
			<line class="st21" x1="256" y1="238.4" x2="265.6" y2="228.8"/>
			<line class="st21" x1="265.6" y1="228.8" x2="265.6" y2="226.4"/>
			<line class="st21" x1="265.6" y1="226.4" x2="263.2" y2="224"/>
			<line class="st21" x1="263.2" y1="224" x2="258.4" y2="224"/>
			<line class="st21" x1="258.4" y1="224" x2="256" y2="226.4"/>
			<path class="st22" d="M175.6,166.9c0-0.7-0.5-1.2-1.2-1.2s-1.2,0.5-1.2,1.2s0.5,1.2,1.2,1.2S175.6,167.5,175.6,166.9"/>
			<path class="st23" d="M197.5,178.4c0-1.6-1.3-2.8-2.8-2.8s-2.8,1.3-2.8,2.8c0,1.6,1.3,2.8,2.8,2.8S197.5,180,197.5,178.4"/>
			<line class="st21" x1="77.3" y1="272.8" x2="77.2" y2="272.7"/>
			<line class="st20" x1="205.6" y1="336.6" x2="205.6" y2="332.8"/>
			<line class="st20" x1="215.5" y1="336.6" x2="215.5" y2="332.8"/>
			<line class="st20" x1="236.2" y1="363.7" x2="236.2" y2="361.9"/>
			<line class="st20" x1="242.3" y1="363.7" x2="242.3" y2="361.9"/>
			<line class="st20" x1="250.6" y1="363.7" x2="250.6" y2="361.9"/>
			<line class="st20" x1="256.7" y1="363.7" x2="256.7" y2="361.9"/>
			<line class="st24" x1="264.4" y1="316.1" x2="268" y2="316.1"/>
			<line class="st24" x1="268" y1="319.7" x2="268" y2="316.1"/>
			<line class="st20" x1="280.4" y1="401.9" x2="280.4" y2="371.7"/>
			<line class="st20" x1="327.6" y1="401.9" x2="327.6" y2="371.7"/>
			<line class="st20" x1="280.4" y1="401.9" x2="327.6" y2="401.9"/>
			<line class="st20" x1="280.4" y1="371.7" x2="327.6" y2="371.7"/>
			<line class="st25" x1="199.8" y1="344.3" x2="190.2" y2="344.3"/>
			<line class="st25" x1="190.2" y1="344.3" x2="190.2" y2="339.5"/>
			<line class="st25" x1="190.2" y1="339.5" x2="191.8" y2="337.9"/>
			<line class="st25" x1="191.8" y1="337.9" x2="195" y2="337.9"/>
			<line class="st25" x1="195" y1="337.9" x2="196.6" y2="339.5"/>
			<line class="st25" x1="196.6" y1="339.5" x2="196.6" y2="344.3"/>
			<line class="st25" x1="196.6" y1="341.1" x2="199.8" y2="337.9"/>
			<line class="st25" x1="199.8" y1="334.7" x2="199.8" y2="331.5"/>
			<line class="st25" x1="199.8" y1="331.5" x2="199.8" y2="333.1"/>
			<line class="st25" x1="199.8" y1="333.1" x2="190.2" y2="333.1"/>
			<line class="st25" x1="190.2" y1="333.1" x2="190.2" y2="333.1"/>
			<line class="st25" x1="190.2" y1="333.1" x2="191.8" y2="334.7"/>
			<line class="st25" x1="253.2" y1="386" x2="254.8" y2="384.4"/>
			<line class="st25" x1="254.8" y1="384.4" x2="254.8" y2="381.2"/>
			<line class="st25" x1="254.8" y1="381.2" x2="253.2" y2="379.6"/>
			<line class="st25" x1="253.2" y1="379.6" x2="246.8" y2="379.6"/>
			<line class="st25" x1="246.8" y1="379.6" x2="245.2" y2="381.2"/>
			<line class="st25" x1="245.2" y1="381.2" x2="245.2" y2="384.4"/>
			<line class="st25" x1="245.2" y1="384.4" x2="246.8" y2="386"/>
			<line class="st25" x1="254.8" y1="395.6" x2="253.2" y2="392.4"/>
			<line class="st25" x1="253.2" y1="392.4" x2="250" y2="389.2"/>
			<line class="st25" x1="250" y1="389.2" x2="246.8" y2="389.2"/>
			<line class="st25" x1="246.8" y1="389.2" x2="245.2" y2="390.8"/>
			<line class="st25" x1="245.2" y1="390.8" x2="245.2" y2="394"/>
			<line class="st25" x1="245.2" y1="394" x2="246.8" y2="395.6"/>
			<line class="st25" x1="246.8" y1="395.6" x2="248.4" y2="395.6"/>
			<line class="st25" x1="248.4" y1="395.6" x2="250" y2="394"/>
			<line class="st25" x1="250" y1="394" x2="250" y2="389.2"/>
			<line class="st25" x1="263.6" y1="379.2" x2="262" y2="380.8"/>
			<line class="st25" x1="262" y1="380.8" x2="262" y2="384"/>
			<line class="st25" x1="262" y1="384" x2="263.6" y2="385.6"/>
			<line class="st25" x1="263.6" y1="385.6" x2="270" y2="385.6"/>
			<line class="st25" x1="270" y1="385.6" x2="271.6" y2="384"/>
			<line class="st25" x1="271.6" y1="384" x2="271.6" y2="380.8"/>
			<line class="st25" x1="271.6" y1="380.8" x2="270" y2="379.2"/>
			<line class="st25" x1="271.6" y1="369.6" x2="271.6" y2="376"/>
			<line class="st25" x1="271.6" y1="376" x2="265.2" y2="369.6"/>
			<line class="st25" x1="265.2" y1="369.6" x2="263.6" y2="369.6"/>
			<line class="st25" x1="263.6" y1="369.6" x2="262" y2="371.2"/>
			<line class="st25" x1="262" y1="371.2" x2="262" y2="374.4"/>
			<line class="st25" x1="262" y1="374.4" x2="263.6" y2="376"/>
			<line class="st25" x1="180.9" y1="357.2" x2="179.3" y2="355.6"/>
			<line class="st25" x1="179.3" y1="355.6" x2="176.1" y2="355.6"/>
			<line class="st25" x1="176.1" y1="355.6" x2="174.5" y2="357.2"/>
			<line class="st25" x1="174.5" y1="357.2" x2="174.5" y2="363.6"/>
			<line class="st25" x1="174.5" y1="363.6" x2="176.1" y2="365.2"/>
			<line class="st25" x1="176.1" y1="365.2" x2="179.3" y2="365.2"/>
			<line class="st25" x1="179.3" y1="365.2" x2="180.9" y2="363.6"/>
			<line class="st25" x1="190.5" y1="355.6" x2="184.1" y2="355.6"/>
			<line class="st25" x1="184.1" y1="355.6" x2="184.1" y2="360.4"/>
			<line class="st25" x1="184.1" y1="360.4" x2="187.3" y2="358.8"/>
			<line class="st25" x1="187.3" y1="358.8" x2="188.9" y2="358.8"/>
			<line class="st25" x1="188.9" y1="358.8" x2="190.5" y2="360.4"/>
			<line class="st25" x1="190.5" y1="360.4" x2="190.5" y2="363.6"/>
			<line class="st25" x1="190.5" y1="363.6" x2="188.9" y2="365.2"/>
			<line class="st25" x1="188.9" y1="365.2" x2="185.7" y2="365.2"/>
			<line class="st25" x1="185.7" y1="365.2" x2="184.1" y2="363.6"/>
			<line class="st25" x1="140" y1="38.7" x2="143.2" y2="38.7"/>
			<line class="st25" x1="143.2" y1="38.7" x2="141.6" y2="38.7"/>
			<line class="st25" x1="141.6" y1="38.7" x2="141.6" y2="29.1"/>
			<line class="st25" x1="141.6" y1="29.1" x2="141.6" y2="29.1"/>
			<line class="st25" x1="141.6" y1="29.1" x2="140" y2="30.7"/>
			<line class="st25" x1="154.4" y1="29.1" x2="151.2" y2="30.7"/>
			<line class="st25" x1="151.2" y1="30.7" x2="148" y2="33.9"/>
			<line class="st25" x1="148" y1="33.9" x2="148" y2="37.1"/>
			<line class="st25" x1="148" y1="37.1" x2="149.6" y2="38.7"/>
			<line class="st25" x1="149.6" y1="38.7" x2="152.8" y2="38.7"/>
			<line class="st25" x1="152.8" y1="38.7" x2="154.4" y2="37.1"/>
			<line class="st25" x1="154.4" y1="37.1" x2="154.4" y2="35.5"/>
			<line class="st25" x1="154.4" y1="35.5" x2="152.8" y2="33.9"/>
			<line class="st25" x1="152.8" y1="33.9" x2="148" y2="33.9"/>
			<line class="st25" x1="359.3" y1="38.7" x2="352.9" y2="38.7"/>
			<line class="st25" x1="352.9" y1="38.7" x2="359.3" y2="32.3"/>
			<line class="st25" x1="359.3" y1="32.3" x2="359.3" y2="30.7"/>
			<line class="st25" x1="359.3" y1="30.7" x2="357.7" y2="29.1"/>
			<line class="st25" x1="357.7" y1="29.1" x2="354.5" y2="29.1"/>
			<line class="st25" x1="354.5" y1="29.1" x2="352.9" y2="30.7"/>
			<line class="st25" x1="362.5" y1="30.7" x2="364.1" y2="29.1"/>
			<line class="st25" x1="364.1" y1="29.1" x2="367.3" y2="29.1"/>
			<line class="st25" x1="367.3" y1="29.1" x2="368.9" y2="30.7"/>
			<line class="st25" x1="368.9" y1="30.7" x2="368.9" y2="32.3"/>
			<line class="st25" x1="368.9" y1="32.3" x2="368.9" y2="32.3"/>
			<line class="st25" x1="368.9" y1="32.3" x2="368.9" y2="32.3"/>
			<line class="st25" x1="368.9" y1="32.3" x2="368.9" y2="32.3"/>
			<line class="st25" x1="368.9" y1="32.3" x2="367.3" y2="33.9"/>
			<line class="st25" x1="367.3" y1="33.9" x2="365.7" y2="33.9"/>
			<line class="st25" x1="365.7" y1="33.9" x2="367.3" y2="33.9"/>
			<line class="st25" x1="367.3" y1="33.9" x2="368.9" y2="35.5"/>
			<line class="st25" x1="368.9" y1="35.5" x2="368.9" y2="37.1"/>
			<line class="st25" x1="368.9" y1="37.1" x2="367.3" y2="38.7"/>
			<line class="st25" x1="367.3" y1="38.7" x2="364.1" y2="38.7"/>
			<line class="st25" x1="364.1" y1="38.7" x2="362.5" y2="37.1"/>
			<line class="st25" x1="26.4" y1="425.3" x2="28" y2="423.7"/>
			<line class="st25" x1="28" y1="423.7" x2="31.2" y2="423.7"/>
			<line class="st25" x1="31.2" y1="423.7" x2="32.8" y2="425.3"/>
			<line class="st25" x1="32.8" y1="425.3" x2="32.8" y2="431.7"/>
			<line class="st25" x1="32.8" y1="431.7" x2="31.2" y2="433.3"/>
			<line class="st25" x1="31.2" y1="433.3" x2="28" y2="433.3"/>
			<line class="st25" x1="28" y1="433.3" x2="26.4" y2="431.7"/>
			<line class="st25" x1="26.4" y1="431.7" x2="26.4" y2="425.3"/>
			<line class="st25" x1="22.3" y1="33.4" x2="25.5" y2="33.4"/>
			<line class="st25" x1="25.5" y1="33.4" x2="23.9" y2="33.4"/>
			<line class="st25" x1="23.9" y1="33.4" x2="23.9" y2="23.9"/>
			<line class="st25" x1="23.9" y1="23.9" x2="23.9" y2="23.9"/>
			<line class="st25" x1="23.9" y1="23.9" x2="22.3" y2="25.5"/>
			<line class="st25" x1="36.7" y1="23.9" x2="30.3" y2="23.9"/>
			<line class="st25" x1="30.3" y1="23.9" x2="30.3" y2="28.6"/>
			<line class="st25" x1="30.3" y1="28.6" x2="33.5" y2="27"/>
			<line class="st25" x1="33.5" y1="27" x2="35.1" y2="27"/>
			<line class="st25" x1="35.1" y1="27" x2="36.7" y2="28.6"/>
			<line class="st25" x1="36.7" y1="28.6" x2="36.7" y2="31.8"/>
			<line class="st25" x1="36.7" y1="31.8" x2="35.1" y2="33.4"/>
			<line class="st25" x1="35.1" y1="33.4" x2="31.9" y2="33.4"/>
			<line class="st25" x1="31.9" y1="33.4" x2="30.3" y2="31.8"/>
			<line class="st25" x1="93.3" y1="289.2" x2="83.7" y2="289.2"/>
			<line class="st25" x1="83.7" y1="289.2" x2="83.7" y2="284.4"/>
			<line class="st25" x1="83.7" y1="284.4" x2="85.3" y2="282.8"/>
			<line class="st25" x1="85.3" y1="282.8" x2="88.5" y2="282.8"/>
			<line class="st25" x1="88.5" y1="282.8" x2="90.1" y2="284.4"/>
			<line class="st25" x1="90.1" y1="284.4" x2="90.1" y2="289.2"/>
			<line class="st25" x1="90.1" y1="286" x2="93.3" y2="282.8"/>
			<line class="st25" x1="93.3" y1="279.6" x2="86.9" y2="279.6"/>
			<line class="st25" x1="86.9" y1="279.6" x2="83.7" y2="276.4"/>
			<line class="st25" x1="83.7" y1="276.4" x2="86.9" y2="273.2"/>
			<line class="st25" x1="86.9" y1="273.2" x2="93.3" y2="273.2"/>
			<line class="st25" x1="93.3" y1="273.2" x2="88.5" y2="273.2"/>
			<line class="st25" x1="88.5" y1="273.2" x2="88.5" y2="279.6"/>
			<line class="st25" x1="93.3" y1="263.7" x2="93.3" y2="270"/>
			<line class="st25" x1="93.3" y1="270" x2="86.9" y2="263.7"/>
			<line class="st25" x1="86.9" y1="263.7" x2="85.3" y2="263.7"/>
			<line class="st25" x1="85.3" y1="263.7" x2="83.7" y2="265.2"/>
			<line class="st25" x1="83.7" y1="265.2" x2="83.7" y2="268.4"/>
			<line class="st25" x1="83.7" y1="268.4" x2="85.3" y2="270"/>
			<line class="st25" x1="93.3" y1="193.3" x2="83.7" y2="193.3"/>
			<line class="st25" x1="83.7" y1="193.3" x2="83.7" y2="188.5"/>
			<line class="st25" x1="83.7" y1="188.5" x2="85.3" y2="186.9"/>
			<line class="st25" x1="85.3" y1="186.9" x2="88.5" y2="186.9"/>
			<line class="st25" x1="88.5" y1="186.9" x2="90.1" y2="188.5"/>
			<line class="st25" x1="90.1" y1="188.5" x2="90.1" y2="193.3"/>
			<line class="st25" x1="90.1" y1="190.1" x2="93.3" y2="186.9"/>
			<line class="st25" x1="93.3" y1="183.7" x2="86.9" y2="183.7"/>
			<line class="st25" x1="86.9" y1="183.7" x2="83.7" y2="180.5"/>
			<line class="st25" x1="83.7" y1="180.5" x2="86.9" y2="177.4"/>
			<line class="st25" x1="86.9" y1="177.4" x2="93.3" y2="177.4"/>
			<line class="st25" x1="93.3" y1="177.4" x2="88.5" y2="177.4"/>
			<line class="st25" x1="88.5" y1="177.4" x2="88.5" y2="183.7"/>
			<line class="st25" x1="85.3" y1="174.2" x2="83.7" y2="172.6"/>
			<line class="st25" x1="83.7" y1="172.6" x2="83.7" y2="169.4"/>
			<line class="st25" x1="83.7" y1="169.4" x2="85.3" y2="167.8"/>
			<line class="st25" x1="85.3" y1="167.8" x2="86.9" y2="167.8"/>
			<line class="st25" x1="86.9" y1="167.8" x2="86.9" y2="167.8"/>
			<line class="st25" x1="86.9" y1="167.8" x2="86.9" y2="167.8"/>
			<line class="st25" x1="86.9" y1="167.8" x2="86.9" y2="167.8"/>
			<line class="st25" x1="86.9" y1="167.8" x2="88.5" y2="169.4"/>
			<line class="st25" x1="88.5" y1="169.4" x2="88.5" y2="171"/>
			<line class="st25" x1="88.5" y1="171" x2="88.5" y2="169.4"/>
			<line class="st25" x1="88.5" y1="169.4" x2="90.1" y2="167.8"/>
			<line class="st25" x1="90.1" y1="167.8" x2="91.7" y2="167.8"/>
			<line class="st25" x1="91.7" y1="167.8" x2="93.3" y2="169.4"/>
			<line class="st25" x1="93.3" y1="169.4" x2="93.3" y2="172.6"/>
			<line class="st25" x1="93.3" y1="172.6" x2="91.7" y2="174.2"/>
			<line class="st25" x1="238.9" y1="387.2" x2="240.4" y2="385.6"/>
			<line class="st25" x1="240.4" y1="385.6" x2="240.4" y2="382.4"/>
			<line class="st25" x1="240.4" y1="382.4" x2="238.9" y2="380.8"/>
			<line class="st25" x1="238.9" y1="380.8" x2="232.5" y2="380.8"/>
			<line class="st25" x1="232.5" y1="380.8" x2="230.9" y2="382.4"/>
			<line class="st25" x1="230.9" y1="382.4" x2="230.9" y2="385.6"/>
			<line class="st25" x1="230.9" y1="385.6" x2="232.5" y2="387.2"/>
			<line class="st25" x1="240.4" y1="390.4" x2="240.4" y2="396.8"/>
			<line class="st25" x1="240.4" y1="396.8" x2="238.9" y2="396.8"/>
			<line class="st25" x1="238.9" y1="396.8" x2="232.5" y2="390.4"/>
			<line class="st25" x1="232.5" y1="390.4" x2="230.9" y2="390.4"/>
			<line class="st26" x1="209.7" y1="431.1" x2="206.5" y2="431.1"/>
			<line class="st26" x1="206.5" y1="431.1" x2="206.5" y2="433.5"/>
			<line class="st26" x1="206.5" y1="433.5" x2="208.1" y2="432.7"/>
			<line class="st26" x1="208.1" y1="432.7" x2="208.9" y2="432.7"/>
			<line class="st26" x1="208.9" y1="432.7" x2="209.7" y2="433.5"/>
			<line class="st26" x1="209.7" y1="433.5" x2="209.7" y2="435.1"/>
			<line class="st26" x1="209.7" y1="435.1" x2="208.9" y2="435.9"/>
			<line class="st26" x1="208.9" y1="435.9" x2="207.3" y2="435.9"/>
			<line class="st26" x1="207.3" y1="435.9" x2="206.5" y2="435.1"/>
			<line class="st26" x1="211.3" y1="431.1" x2="211.3" y2="434.3"/>
			<line class="st26" x1="211.3" y1="434.3" x2="212.9" y2="435.9"/>
			<line class="st26" x1="212.9" y1="435.9" x2="214.5" y2="434.3"/>
			<line class="st26" x1="214.5" y1="434.3" x2="214.5" y2="431.1"/>
			<line class="st26" x1="201.7" y1="442.1" x2="204.9" y2="442.1"/>
			<line class="st26" x1="203.3" y1="440.5" x2="203.3" y2="443.7"/>
			<line class="st26" x1="216.1" y1="442.1" x2="219.3" y2="442.1"/>
			<line class="st25" x1="288.4" y1="385.6" x2="291.6" y2="385.6"/>
			<line class="st25" x1="291.6" y1="385.6" x2="290" y2="385.6"/>
			<line class="st25" x1="290" y1="385.6" x2="290" y2="395.2"/>
			<line class="st25" x1="290" y1="395.2" x2="288.4" y2="395.2"/>
			<line class="st25" x1="288.4" y1="395.2" x2="291.6" y2="395.2"/>
			<line class="st25" x1="302.8" y1="387.2" x2="301.2" y2="385.6"/>
			<line class="st25" x1="301.2" y1="385.6" x2="298" y2="385.6"/>
			<line class="st25" x1="298" y1="385.6" x2="296.4" y2="387.2"/>
			<line class="st25" x1="296.4" y1="387.2" x2="296.4" y2="393.6"/>
			<line class="st25" x1="296.4" y1="393.6" x2="298" y2="395.2"/>
			<line class="st25" x1="298" y1="395.2" x2="301.2" y2="395.2"/>
			<line class="st25" x1="301.2" y1="395.2" x2="302.8" y2="393.6"/>
			<line class="st25" x1="306" y1="395.2" x2="309.2" y2="395.2"/>
			<line class="st25" x1="309.2" y1="395.2" x2="307.6" y2="395.2"/>
			<line class="st25" x1="307.6" y1="395.2" x2="307.6" y2="385.6"/>
			<line class="st25" x1="307.6" y1="385.6" x2="307.6" y2="385.6"/>
			<line class="st25" x1="307.6" y1="385.6" x2="306" y2="387.2"/>
			<line class="st26" x1="303.6" y1="431.7" x2="302.8" y2="430.9"/>
			<line class="st26" x1="302.8" y1="430.9" x2="301.2" y2="430.9"/>
			<line class="st26" x1="301.2" y1="430.9" x2="300.4" y2="431.7"/>
			<line class="st26" x1="300.4" y1="431.7" x2="300.4" y2="434.9"/>
			<line class="st26" x1="300.4" y1="434.9" x2="301.2" y2="435.7"/>
			<line class="st26" x1="301.2" y1="435.7" x2="302.8" y2="435.7"/>
			<line class="st26" x1="302.8" y1="435.7" x2="303.6" y2="434.9"/>
			<line class="st26" x1="307.6" y1="430.9" x2="306" y2="430.9"/>
			<line class="st26" x1="306" y1="430.9" x2="305.2" y2="431.7"/>
			<line class="st26" x1="305.2" y1="431.7" x2="305.2" y2="434.9"/>
			<line class="st26" x1="305.2" y1="434.9" x2="306" y2="435.7"/>
			<line class="st26" x1="306" y1="435.7" x2="307.6" y2="435.7"/>
			<line class="st26" x1="307.6" y1="435.7" x2="308.4" y2="434.9"/>
			<line class="st26" x1="308.4" y1="434.9" x2="308.4" y2="431.7"/>
			<line class="st26" x1="308.4" y1="431.7" x2="307.6" y2="430.9"/>
			<line class="st26" x1="310" y1="435.7" x2="310" y2="430.9"/>
			<line class="st26" x1="310" y1="430.9" x2="311.6" y2="432.5"/>
			<line class="st26" x1="311.6" y1="432.5" x2="313.2" y2="430.9"/>
			<line class="st26" x1="313.2" y1="430.9" x2="313.2" y2="435.7"/>
			<line class="st26" x1="300.4" y1="444.3" x2="300.4" y2="441.1"/>
			<line class="st26" x1="300.4" y1="441.1" x2="302" y2="439.5"/>
			<line class="st26" x1="302" y1="439.5" x2="303.6" y2="441.1"/>
			<line class="st26" x1="303.6" y1="441.1" x2="303.6" y2="444.3"/>
			<line class="st26" x1="303.6" y1="444.3" x2="303.6" y2="441.9"/>
			<line class="st26" x1="303.6" y1="441.9" x2="300.4" y2="441.9"/>
			<line class="st26" x1="305.2" y1="441.9" x2="308.4" y2="441.9"/>
			<line class="st26" x1="310" y1="439.5" x2="310" y2="444.3"/>
			<line class="st26" x1="310" y1="444.3" x2="312.4" y2="444.3"/>
			<line class="st26" x1="312.4" y1="444.3" x2="313.2" y2="443.5"/>
			<line class="st26" x1="313.2" y1="443.5" x2="313.2" y2="442.7"/>
			<line class="st26" x1="313.2" y1="442.7" x2="312.4" y2="441.9"/>
			<line class="st26" x1="312.4" y1="441.9" x2="310" y2="441.9"/>
			<line class="st26" x1="310" y1="441.9" x2="310" y2="441.9"/>
			<line class="st26" x1="310" y1="441.9" x2="310" y2="441.9"/>
			<line class="st26" x1="310" y1="441.9" x2="310" y2="441.9"/>
			<line class="st26" x1="310" y1="441.9" x2="312.4" y2="441.9"/>
			<line class="st26" x1="312.4" y1="441.9" x2="313.2" y2="441.1"/>
			<line class="st26" x1="313.2" y1="441.1" x2="313.2" y2="440.3"/>
			<line class="st26" x1="313.2" y1="440.3" x2="312.4" y2="439.5"/>
			<line class="st26" x1="312.4" y1="439.5" x2="310" y2="439.5"/>
			<line class="st25" x1="308" y1="129.4" x2="306.4" y2="131"/>
			<line class="st25" x1="306.4" y1="131" x2="306.4" y2="134.2"/>
			<line class="st25" x1="306.4" y1="134.2" x2="308" y2="135.8"/>
			<line class="st25" x1="308" y1="135.8" x2="314.4" y2="135.8"/>
			<line class="st25" x1="314.4" y1="135.8" x2="316" y2="134.2"/>
			<line class="st25" x1="316" y1="134.2" x2="316" y2="131"/>
			<line class="st25" x1="316" y1="131" x2="314.4" y2="129.4"/>
			<line class="st25" x1="316" y1="121.4" x2="306.4" y2="121.4"/>
			<line class="st25" x1="306.4" y1="121.4" x2="311.2" y2="126.2"/>
			<line class="st25" x1="311.2" y1="126.2" x2="311.2" y2="119.8"/>
			<line class="st25" x1="288.9" y1="97.7" x2="288.9" y2="88.1"/>
			<line class="st25" x1="288.9" y1="88.1" x2="293.7" y2="88.1"/>
			<line class="st25" x1="293.7" y1="88.1" x2="295.3" y2="89.7"/>
			<line class="st25" x1="295.3" y1="89.7" x2="295.3" y2="92.9"/>
			<line class="st25" x1="295.3" y1="92.9" x2="293.7" y2="94.5"/>
			<line class="st25" x1="293.7" y1="94.5" x2="288.9" y2="94.5"/>
			<line class="st25" x1="292.1" y1="94.5" x2="295.3" y2="97.7"/>
			<line class="st25" x1="298.5" y1="97.7" x2="298.5" y2="91.3"/>
			<line class="st25" x1="298.5" y1="91.3" x2="301.7" y2="88.1"/>
			<line class="st25" x1="301.7" y1="88.1" x2="304.9" y2="91.3"/>
			<line class="st25" x1="304.9" y1="91.3" x2="304.9" y2="97.7"/>
			<line class="st25" x1="304.9" y1="97.7" x2="304.9" y2="92.9"/>
			<line class="st25" x1="304.9" y1="92.9" x2="298.5" y2="92.9"/>
			<line class="st25" x1="314.4" y1="88.1" x2="311.2" y2="89.7"/>
			<line class="st25" x1="311.2" y1="89.7" x2="308" y2="92.9"/>
			<line class="st25" x1="308" y1="92.9" x2="308" y2="96.1"/>
			<line class="st25" x1="308" y1="96.1" x2="309.6" y2="97.7"/>
			<line class="st25" x1="309.6" y1="97.7" x2="312.8" y2="97.7"/>
			<line class="st25" x1="312.8" y1="97.7" x2="314.4" y2="96.1"/>
			<line class="st25" x1="314.4" y1="96.1" x2="314.4" y2="94.5"/>
			<line class="st25" x1="314.4" y1="94.5" x2="312.8" y2="92.9"/>
			<line class="st25" x1="312.8" y1="92.9" x2="308" y2="92.9"/>
			<line class="st25" x1="402" y1="263.8" x2="411.6" y2="263.8"/>
			<line class="st25" x1="411.6" y1="263.8" x2="411.6" y2="268.6"/>
			<line class="st25" x1="411.6" y1="268.6" x2="410" y2="270.2"/>
			<line class="st25" x1="410" y1="270.2" x2="406.8" y2="270.2"/>
			<line class="st25" x1="406.8" y1="270.2" x2="405.2" y2="268.6"/>
			<line class="st25" x1="405.2" y1="268.6" x2="405.2" y2="263.8"/>
			<line class="st25" x1="405.2" y1="267" x2="402" y2="270.2"/>
			<line class="st25" x1="402" y1="273.4" x2="408.4" y2="273.4"/>
			<line class="st25" x1="408.4" y1="273.4" x2="411.6" y2="276.6"/>
			<line class="st25" x1="411.6" y1="276.6" x2="408.4" y2="279.8"/>
			<line class="st25" x1="408.4" y1="279.8" x2="402" y2="279.8"/>
			<line class="st25" x1="402" y1="279.8" x2="406.8" y2="279.8"/>
			<line class="st25" x1="406.8" y1="279.8" x2="406.8" y2="273.4"/>
			<line class="st25" x1="403.6" y1="283" x2="402" y2="284.6"/>
			<line class="st25" x1="402" y1="284.6" x2="402" y2="287.8"/>
			<line class="st25" x1="402" y1="287.8" x2="403.6" y2="289.4"/>
			<line class="st25" x1="403.6" y1="289.4" x2="410" y2="289.4"/>
			<line class="st25" x1="410" y1="289.4" x2="411.6" y2="287.8"/>
			<line class="st25" x1="411.6" y1="287.8" x2="411.6" y2="284.6"/>
			<line class="st25" x1="411.6" y1="284.6" x2="410" y2="283"/>
			<line class="st25" x1="410" y1="283" x2="408.4" y2="283"/>
			<line class="st25" x1="408.4" y1="283" x2="406.8" y2="284.6"/>
			<line class="st25" x1="406.8" y1="284.6" x2="406.8" y2="289.4"/>
			<line class="st25" x1="402" y1="167.9" x2="411.6" y2="167.9"/>
			<line class="st25" x1="411.6" y1="167.9" x2="411.6" y2="172.7"/>
			<line class="st25" x1="411.6" y1="172.7" x2="410" y2="174.3"/>
			<line class="st25" x1="410" y1="174.3" x2="406.8" y2="174.3"/>
			<line class="st25" x1="406.8" y1="174.3" x2="405.2" y2="172.7"/>
			<line class="st25" x1="405.2" y1="172.7" x2="405.2" y2="167.9"/>
			<line class="st25" x1="405.2" y1="171.1" x2="402" y2="174.3"/>
			<line class="st25" x1="402" y1="177.5" x2="408.4" y2="177.5"/>
			<line class="st25" x1="408.4" y1="177.5" x2="411.6" y2="180.7"/>
			<line class="st25" x1="411.6" y1="180.7" x2="408.4" y2="183.9"/>
			<line class="st25" x1="408.4" y1="183.9" x2="402" y2="183.9"/>
			<line class="st25" x1="402" y1="183.9" x2="406.8" y2="183.9"/>
			<line class="st25" x1="406.8" y1="183.9" x2="406.8" y2="177.5"/>
			<line class="st25" x1="410" y1="187.1" x2="411.6" y2="188.7"/>
			<line class="st25" x1="411.6" y1="188.7" x2="411.6" y2="191.9"/>
			<line class="st25" x1="411.6" y1="191.9" x2="410" y2="193.5"/>
			<line class="st25" x1="410" y1="193.5" x2="408.4" y2="193.5"/>
			<line class="st25" x1="408.4" y1="193.5" x2="406.8" y2="191.9"/>
			<line class="st25" x1="406.8" y1="191.9" x2="405.2" y2="193.5"/>
			<line class="st25" x1="405.2" y1="193.5" x2="403.6" y2="193.5"/>
			<line class="st25" x1="403.6" y1="193.5" x2="402" y2="191.9"/>
			<line class="st25" x1="402" y1="191.9" x2="402" y2="188.7"/>
			<line class="st25" x1="402" y1="188.7" x2="403.6" y2="187.1"/>
			<line class="st25" x1="403.6" y1="187.1" x2="405.2" y2="187.1"/>
			<line class="st25" x1="405.2" y1="187.1" x2="406.8" y2="188.7"/>
			<line class="st25" x1="406.8" y1="188.7" x2="408.4" y2="187.1"/>
			<line class="st25" x1="408.4" y1="187.1" x2="410" y2="187.1"/>
			<line class="st25" x1="406.8" y1="188.7" x2="406.8" y2="191.9"/>
			<line class="st25" x1="457.9" y1="425.3" x2="459.5" y2="423.7"/>
			<line class="st25" x1="459.5" y1="423.7" x2="462.7" y2="423.7"/>
			<line class="st25" x1="462.7" y1="423.7" x2="464.3" y2="425.3"/>
			<line class="st25" x1="464.3" y1="425.3" x2="464.3" y2="426.9"/>
			<line class="st25" x1="464.3" y1="426.9" x2="464.3" y2="426.9"/>
			<line class="st25" x1="464.3" y1="426.9" x2="464.3" y2="426.9"/>
			<line class="st25" x1="464.3" y1="426.9" x2="464.3" y2="426.9"/>
			<line class="st25" x1="464.3" y1="426.9" x2="462.7" y2="428.5"/>
			<line class="st25" x1="462.7" y1="428.5" x2="461.1" y2="428.5"/>
			<line class="st25" x1="461.1" y1="428.5" x2="462.7" y2="428.5"/>
			<line class="st25" x1="462.7" y1="428.5" x2="464.3" y2="430.1"/>
			<line class="st25" x1="464.3" y1="430.1" x2="464.3" y2="431.7"/>
			<line class="st25" x1="464.3" y1="431.7" x2="462.7" y2="433.3"/>
			<line class="st25" x1="462.7" y1="433.3" x2="459.5" y2="433.3"/>
			<line class="st25" x1="459.5" y1="433.3" x2="457.9" y2="431.7"/>
			<line class="st25" x1="467.5" y1="431.7" x2="469.1" y2="433.3"/>
			<line class="st25" x1="469.1" y1="433.3" x2="472.3" y2="433.3"/>
			<line class="st25" x1="472.3" y1="433.3" x2="473.8" y2="431.7"/>
			<line class="st25" x1="473.8" y1="431.7" x2="473.8" y2="425.3"/>
			<line class="st25" x1="473.8" y1="425.3" x2="472.3" y2="423.7"/>
			<line class="st25" x1="472.3" y1="423.7" x2="469.1" y2="423.7"/>
			<line class="st25" x1="469.1" y1="423.7" x2="467.5" y2="425.3"/>
			<line class="st25" x1="467.5" y1="425.3" x2="467.5" y2="426.9"/>
			<line class="st25" x1="467.5" y1="426.9" x2="469.1" y2="428.5"/>
			<line class="st25" x1="469.1" y1="428.5" x2="473.8" y2="428.5"/>
			<line class="st25" x1="464.3" y1="33.4" x2="457.9" y2="33.4"/>
			<line class="st25" x1="457.9" y1="33.4" x2="464.3" y2="27"/>
			<line class="st25" x1="464.3" y1="27" x2="464.3" y2="25.5"/>
			<line class="st25" x1="464.3" y1="25.5" x2="462.7" y2="23.9"/>
			<line class="st25" x1="462.7" y1="23.9" x2="459.5" y2="23.9"/>
			<line class="st25" x1="459.5" y1="23.9" x2="457.9" y2="25.5"/>
			<line class="st25" x1="472.3" y1="33.4" x2="472.3" y2="23.9"/>
			<line class="st25" x1="472.3" y1="23.9" x2="467.5" y2="28.6"/>
			<line class="st25" x1="467.5" y1="28.6" x2="473.8" y2="28.6"/>
			<line class="st25" x1="93.3" y1="383.7" x2="83.7" y2="383.7"/>
			<line class="st25" x1="83.7" y1="383.7" x2="83.7" y2="378.9"/>
			<line class="st25" x1="83.7" y1="378.9" x2="85.3" y2="377.3"/>
			<line class="st25" x1="85.3" y1="377.3" x2="88.5" y2="377.3"/>
			<line class="st25" x1="88.5" y1="377.3" x2="90.1" y2="378.9"/>
			<line class="st25" x1="90.1" y1="378.9" x2="90.1" y2="383.7"/>
			<line class="st25" x1="90.1" y1="380.5" x2="93.3" y2="377.3"/>
			<line class="st25" x1="93.3" y1="374.1" x2="86.9" y2="374.1"/>
			<line class="st25" x1="86.9" y1="374.1" x2="83.7" y2="370.9"/>
			<line class="st25" x1="83.7" y1="370.9" x2="86.9" y2="367.7"/>
			<line class="st25" x1="86.9" y1="367.7" x2="93.3" y2="367.7"/>
			<line class="st25" x1="93.3" y1="367.7" x2="88.5" y2="367.7"/>
			<line class="st25" x1="88.5" y1="367.7" x2="88.5" y2="374.1"/>
			<line class="st25" x1="93.3" y1="364.5" x2="93.3" y2="361.3"/>
			<line class="st25" x1="93.3" y1="361.3" x2="93.3" y2="362.9"/>
			<line class="st25" x1="93.3" y1="362.9" x2="83.7" y2="362.9"/>
			<line class="st25" x1="83.7" y1="362.9" x2="83.7" y2="362.9"/>
			<line class="st25" x1="83.7" y1="362.9" x2="85.3" y2="364.5"/>
			<line class="st25" x1="93.3" y1="97.4" x2="83.7" y2="97.4"/>
			<line class="st25" x1="83.7" y1="97.4" x2="83.7" y2="92.7"/>
			<line class="st25" x1="83.7" y1="92.7" x2="85.3" y2="91.1"/>
			<line class="st25" x1="85.3" y1="91.1" x2="88.5" y2="91.1"/>
			<line class="st25" x1="88.5" y1="91.1" x2="90.1" y2="92.7"/>
			<line class="st25" x1="90.1" y1="92.7" x2="90.1" y2="97.4"/>
			<line class="st25" x1="90.1" y1="94.2" x2="93.3" y2="91.1"/>
			<line class="st25" x1="93.3" y1="87.9" x2="86.9" y2="87.9"/>
			<line class="st25" x1="86.9" y1="87.9" x2="83.7" y2="84.7"/>
			<line class="st25" x1="83.7" y1="84.7" x2="86.9" y2="81.5"/>
			<line class="st25" x1="86.9" y1="81.5" x2="93.3" y2="81.5"/>
			<line class="st25" x1="93.3" y1="81.5" x2="88.5" y2="81.5"/>
			<line class="st25" x1="88.5" y1="81.5" x2="88.5" y2="87.9"/>
			<line class="st25" x1="93.3" y1="73.5" x2="83.7" y2="73.5"/>
			<line class="st25" x1="83.7" y1="73.5" x2="88.5" y2="78.3"/>
			<line class="st25" x1="88.5" y1="78.3" x2="88.5" y2="71.9"/>
			<line class="st25" x1="154.3" y1="140.2" x2="152.7" y2="141.8"/>
			<line class="st25" x1="152.7" y1="141.8" x2="152.7" y2="145"/>
			<line class="st25" x1="152.7" y1="145" x2="154.3" y2="146.6"/>
			<line class="st25" x1="154.3" y1="146.6" x2="160.7" y2="146.6"/>
			<line class="st25" x1="160.7" y1="146.6" x2="162.3" y2="145"/>
			<line class="st25" x1="162.3" y1="145" x2="162.3" y2="141.8"/>
			<line class="st25" x1="162.3" y1="141.8" x2="160.7" y2="140.2"/>
			<line class="st25" x1="154.3" y1="137" x2="152.7" y2="135.4"/>
			<line class="st25" x1="152.7" y1="135.4" x2="152.7" y2="132.2"/>
			<line class="st25" x1="152.7" y1="132.2" x2="154.3" y2="130.6"/>
			<line class="st25" x1="154.3" y1="130.6" x2="155.9" y2="130.6"/>
			<line class="st25" x1="155.9" y1="130.6" x2="155.9" y2="130.6"/>
			<line class="st25" x1="155.9" y1="130.6" x2="155.9" y2="130.6"/>
			<line class="st25" x1="155.9" y1="130.6" x2="155.9" y2="130.6"/>
			<line class="st25" x1="155.9" y1="130.6" x2="157.5" y2="132.2"/>
			<line class="st25" x1="157.5" y1="132.2" x2="157.5" y2="133.8"/>
			<line class="st25" x1="157.5" y1="133.8" x2="157.5" y2="132.2"/>
			<line class="st25" x1="157.5" y1="132.2" x2="159.1" y2="130.6"/>
			<line class="st25" x1="159.1" y1="130.6" x2="160.7" y2="130.6"/>
			<line class="st25" x1="160.7" y1="130.6" x2="162.3" y2="132.2"/>
			<line class="st25" x1="162.3" y1="132.2" x2="162.3" y2="135.4"/>
			<line class="st25" x1="162.3" y1="135.4" x2="160.7" y2="137"/>
			<line class="st25" x1="402" y1="358.2" x2="411.6" y2="358.2"/>
			<line class="st25" x1="411.6" y1="358.2" x2="411.6" y2="363"/>
			<line class="st25" x1="411.6" y1="363" x2="410" y2="364.6"/>
			<line class="st25" x1="410" y1="364.6" x2="406.8" y2="364.6"/>
			<line class="st25" x1="406.8" y1="364.6" x2="405.2" y2="363"/>
			<line class="st25" x1="405.2" y1="363" x2="405.2" y2="358.2"/>
			<line class="st25" x1="405.2" y1="361.4" x2="402" y2="364.6"/>
			<line class="st25" x1="402" y1="367.8" x2="408.4" y2="367.8"/>
			<line class="st25" x1="408.4" y1="367.8" x2="411.6" y2="371"/>
			<line class="st25" x1="411.6" y1="371" x2="408.4" y2="374.2"/>
			<line class="st25" x1="408.4" y1="374.2" x2="402" y2="374.2"/>
			<line class="st25" x1="402" y1="374.2" x2="406.8" y2="374.2"/>
			<line class="st25" x1="406.8" y1="374.2" x2="406.8" y2="367.8"/>
			<line class="st25" x1="402" y1="377.4" x2="402" y2="380.6"/>
			<line class="st25" x1="402" y1="380.6" x2="402" y2="379"/>
			<line class="st25" x1="402" y1="379" x2="411.6" y2="379"/>
			<line class="st25" x1="411.6" y1="379" x2="411.6" y2="379"/>
			<line class="st25" x1="411.6" y1="379" x2="410" y2="377.4"/>
			<line class="st25" x1="410" y1="385.4" x2="411.6" y2="387"/>
			<line class="st25" x1="411.6" y1="387" x2="411.6" y2="390.2"/>
			<line class="st25" x1="411.6" y1="390.2" x2="410" y2="391.8"/>
			<line class="st25" x1="410" y1="391.8" x2="403.6" y2="391.8"/>
			<line class="st25" x1="403.6" y1="391.8" x2="402" y2="390.2"/>
			<line class="st25" x1="402" y1="390.2" x2="402" y2="387"/>
			<line class="st25" x1="402" y1="387" x2="403.6" y2="385.4"/>
			<line class="st25" x1="403.6" y1="385.4" x2="410" y2="385.4"/>
			<line class="st25" x1="402" y1="72" x2="411.6" y2="72"/>
			<line class="st25" x1="411.6" y1="72" x2="411.6" y2="76.8"/>
			<line class="st25" x1="411.6" y1="76.8" x2="410" y2="78.4"/>
			<line class="st25" x1="410" y1="78.4" x2="406.8" y2="78.4"/>
			<line class="st25" x1="406.8" y1="78.4" x2="405.2" y2="76.8"/>
			<line class="st25" x1="405.2" y1="76.8" x2="405.2" y2="72"/>
			<line class="st25" x1="405.2" y1="75.2" x2="402" y2="78.4"/>
			<line class="st25" x1="402" y1="81.6" x2="408.4" y2="81.6"/>
			<line class="st25" x1="408.4" y1="81.6" x2="411.6" y2="84.8"/>
			<line class="st25" x1="411.6" y1="84.8" x2="408.4" y2="88"/>
			<line class="st25" x1="408.4" y1="88" x2="402" y2="88"/>
			<line class="st25" x1="402" y1="88" x2="406.8" y2="88"/>
			<line class="st25" x1="406.8" y1="88" x2="406.8" y2="81.6"/>
			<line class="st25" x1="411.6" y1="91.2" x2="411.6" y2="97.6"/>
			<line class="st25" x1="411.6" y1="97.6" x2="410" y2="97.6"/>
			<line class="st25" x1="410" y1="97.6" x2="403.6" y2="91.2"/>
			<line class="st25" x1="403.6" y1="91.2" x2="402" y2="91.2"/>
			<line class="st25" x1="193" y1="97.7" x2="193" y2="88.1"/>
			<line class="st25" x1="193" y1="88.1" x2="197.8" y2="88.1"/>
			<line class="st25" x1="197.8" y1="88.1" x2="199.4" y2="89.7"/>
			<line class="st25" x1="199.4" y1="89.7" x2="199.4" y2="92.9"/>
			<line class="st25" x1="199.4" y1="92.9" x2="197.8" y2="94.5"/>
			<line class="st25" x1="197.8" y1="94.5" x2="193" y2="94.5"/>
			<line class="st25" x1="196.2" y1="94.5" x2="199.4" y2="97.7"/>
			<line class="st25" x1="202.6" y1="97.7" x2="202.6" y2="91.3"/>
			<line class="st25" x1="202.6" y1="91.3" x2="205.8" y2="88.1"/>
			<line class="st25" x1="205.8" y1="88.1" x2="209" y2="91.3"/>
			<line class="st25" x1="209" y1="91.3" x2="209" y2="97.7"/>
			<line class="st25" x1="209" y1="97.7" x2="209" y2="92.9"/>
			<line class="st25" x1="209" y1="92.9" x2="202.6" y2="92.9"/>
			<line class="st25" x1="218.6" y1="88.1" x2="212.2" y2="88.1"/>
			<line class="st25" x1="212.2" y1="88.1" x2="212.2" y2="92.9"/>
			<line class="st25" x1="212.2" y1="92.9" x2="215.4" y2="91.3"/>
			<line class="st25" x1="215.4" y1="91.3" x2="217" y2="91.3"/>
			<line class="st25" x1="217" y1="91.3" x2="218.6" y2="92.9"/>
			<line class="st25" x1="218.6" y1="92.9" x2="218.6" y2="96.1"/>
			<line class="st25" x1="218.6" y1="96.1" x2="217" y2="97.7"/>
			<line class="st25" x1="217" y1="97.7" x2="213.8" y2="97.7"/>
			<line class="st25" x1="213.8" y1="97.7" x2="212.2" y2="96.1"/>
			<line class="st21" x1="285.9" y1="340.6" x2="276.3" y2="326.2"/>
			<line class="st21" x1="276.3" y1="340.6" x2="285.9" y2="326.2"/>
			<line class="st21" x1="271.5" y1="326.2" x2="266.7" y2="326.2"/>
			<line class="st21" x1="266.7" y1="326.2" x2="269.1" y2="326.2"/>
			<line class="st21" x1="269.1" y1="326.2" x2="269.1" y2="340.6"/>
			<line class="st21" x1="269.1" y1="340.6" x2="269.1" y2="340.6"/>
			<line class="st21" x1="269.1" y1="340.6" x2="271.5" y2="338.2"/>
			<path class="st22" d="M332.1,363.2c0-0.7-0.5-1.2-1.2-1.2c-0.7,0-1.2,0.5-1.2,1.2c0,0.7,0.5,1.2,1.2,1.2
				C331.6,364.4,332.1,363.8,332.1,363.2"/>
			<path class="st23" d="M321,381.1c0-1.6-1.3-2.8-2.8-2.8c-1.6,0-2.8,1.3-2.8,2.8c0,1.6,1.3,2.8,2.8,2.8S321,382.7,321,381.1"/>
		</g>
	</g>
</g>
<g class="node64pins"></g>
</svg>
