<svg xmlns="http://www.w3.org/2000/svg" viewBox="0 0 550 550"><title>reconnecting</title><path d="M113.52,242.51c-.41-.49-.83-1-1.29-1.43a21.1,21.1,0,0,0-29.84,29.84c.46.46.94.89,1.43,1.29l17,17L69.73,320.34h0A113.18,113.18,0,0,0,56.6,463.52L22.27,497.86l0,0a21.08,21.08,0,0,0,29.8,29.8l0,0,34.35-34.35a113.18,113.18,0,0,0,143.08-13.2h0L260.65,449l17.1,17.1c.41.49.83,1,1.29,1.43a21.1,21.1,0,0,0,29.84-29.84c-.46-.46-.94-.89-1.43-1.29" style="fill:#ee9a00"/><path d="M497.91,22.32l0,0L463.55,56.66a113.18,113.18,0,0,0-143.08,13.2h0L289.35,101l-17.1-17.1c-.41-.49-.83-1-1.29-1.43a21.1,21.1,0,0,0-29.84,29.84c.46.46.94.89,1.43,1.29L285,156l-64.48,64.48A20.83,20.83,0,0,0,250,250l64.48-64.48,49.73,49.73-64.48,64.48a20.83,20.83,0,0,0,29.46,29.46l64.48-64.48,42.79,42.79c.41.49.83,1,1.29,1.43a21.1,21.1,0,0,0,29.84-29.84c-.46-.46-.94-.89-1.43-1.29l-17-17,31.11-31.11h0A113.18,113.18,0,0,0,493.4,86.48l34.33-34.33,0,0a21.08,21.08,0,0,0-29.8-29.8Z" style="fill:#ee9a00"/></svg>