<?xml version="1.0" encoding="utf-8"?>
<!-- Generator: Adobe Illustrator 21.0.2, SVG Export Plug-In . SVG Version: 6.00 Build 0)  -->
<svg version="1.1" id="Layer_1" xmlns="http://www.w3.org/2000/svg" xmlns:xlink="http://www.w3.org/1999/xlink" x="0px" y="0px"
	 viewBox="0 0 48 24" style="enable-background:new 0 0 48 24;" xml:space="preserve">
<style type="text/css">
	.st0{fill:#007BFF;}
</style>
<g>
	<path class="st0" d="M9.8,6C9.1,5.4,8.1,5.4,7.5,6s-0.6,1.6,0,2.3l2.2,2.2H2.6C1.7,10.5,1,11.2,1,12c0,0.8,0.7,1.5,1.5,1.5h7.2
		l-2.2,2.2c-0.6,0.6-0.6,1.6,0,2.3c0.6,0.6,1.6,0.6,2.3,0l5.8-5.8c0.1-0.1,0.1-0.3,0-0.4L9.8,6z"/>
	<g>
		<g>
			<path d="M17.3,4.7c-0.1-0.4-0.5-0.6-0.8-0.5C16.1,4.3,15.9,4.7,16,5l4.4,17.4c0.1,0.3,0.4,0.5,0.7,0.5c0.1,0,0.1,0,0.2,0
				c0.4-0.1,0.6-0.5,0.5-0.8L17.3,4.7z"/>
			<path d="M32,9.6c-0.7-2.7-1.4-5.3-2.2-8C29.8,1.4,29.6,1,29.1,1c-4.1-0.3-6.7,3.7-10.8,3.4c-0.3,0-0.5,0.1-0.4,0.4
				c0.7,2.7,1.4,5.3,2.2,8c0.1,0.4,0.4,0.6,0.7,0.6c4.1,0.3,6.7-3.7,10.8-3.4C31.9,10.1,32.1,9.9,32,9.6z M28.8,2
				c0.2,0.7,0.4,1.5,0.6,2.2c-0.9,0-1.6,0.2-2.4,0.5c-0.2-0.7-0.4-1.5-0.6-2.2C27.2,2.2,28,2,28.8,2z M20.5,10.2
				c-0.2-0.8-0.5-1.7-0.7-2.5c0.9,0,1.7-0.2,2.5-0.5c-0.2-0.7-0.4-1.5-0.6-2.2c0.8-0.4,1.6-0.8,2.3-1.2c0.2,0.7,0.4,1.5,0.6,2.2
				c-0.8,0.4-1.5,0.9-2.3,1.2C22.6,8,22.8,8.9,23,9.7C22.2,10,21.4,10.2,20.5,10.2z M23.6,11.9c-0.2-0.7-0.4-1.5-0.6-2.2
				c0.8-0.4,1.6-0.8,2.3-1.2c0.2,0.7,0.4,1.5,0.6,2.2C25.2,11.1,24.4,11.6,23.6,11.9z M25.4,8.5c-0.2-0.8-0.5-1.7-0.7-2.5
				c0.8-0.4,1.5-0.9,2.4-1.2c0.2,0.8,0.5,1.7,0.7,2.5C26.9,7.6,26.1,8,25.4,8.5z M28.3,9.5c-0.2-0.7-0.4-1.5-0.6-2.2
				c0.8-0.3,1.5-0.5,2.4-0.5c0.2,0.7,0.4,1.5,0.6,2.2C29.9,9,29.1,9.2,28.3,9.5z"/>
		</g>
	</g>
</g>
</svg>
