<svg xmlns="http://www.w3.org/2000/svg" viewBox="0 0 403.31 403.3"><defs><style>.cls-1{fill:#e81542;}.cls-2{fill:#f9e5eb;}</style></defs><title>stop</title><g id="Layer_2" data-name="Layer 2"><g id="Layer_1-2" data-name="Layer 1"><path class="cls-1" d="M397.73,112.55l-107-107A19,19,0,0,0,277.3,0H126a19,19,0,0,0-13.45,5.57l-107,107A19,19,0,0,0,0,126V277.3a19,19,0,0,0,5.57,13.44l107,107A19,19,0,0,0,126,403.3H277.31a19,19,0,0,0,13.43-5.57l107-107a19,19,0,0,0,5.57-13.45V126a19.09,19.09,0,0,0-5.59-13.45Zm0,0"/><path class="cls-2" d="M69.09,192.55c-12.71-4.91-16.57-8.44-16.57-15.09,0-5,3.78-10.85,14.45-10.85a33.93,33.93,0,0,1,16.24,4.05,3.15,3.15,0,0,0,4.5-1.76L91,159.06a3.14,3.14,0,0,0-1.43-3.75c-3.29-1.86-10.54-5-22.21-5C47.74,150.32,34,162,34,178.85c0,13.43,8.77,23.07,26.69,29.42,13,5,15.59,9.53,15.59,15.63,0,8-6.13,12.79-16.4,12.79a39.77,39.77,0,0,1-20-5.63,3.14,3.14,0,0,0-4.66,1.77L32.2,243a3.17,3.17,0,0,0,1.27,3.54c5.73,3.82,16.27,6.49,25.6,6.49,24.79,0,35.88-15.09,35.88-30.05,0-14.29-7.74-23.38-25.85-30.38Zm0,0"/><path class="cls-2" d="M180.66,151.78H111.47a3.15,3.15,0,0,0-3.15,3.15v10.26a3.15,3.15,0,0,0,3.15,3.15h25.28v80a3.15,3.15,0,0,0,3.15,3.15h12.2a3.14,3.14,0,0,0,3.15-3.15v-80h25.42a3.15,3.15,0,0,0,3.15-3.15V154.93a3.15,3.15,0,0,0-3.16-3.15Zm0,0"/><path class="cls-2" d="M239,150.25c-27.42,0-46.55,21.48-46.55,52.23,0,29.77,18.57,50.57,45.16,50.57,23.18,0,46.55-16.2,46.55-52.37,0-30.17-18.14-50.43-45.16-50.43Zm-.7,86.66c-18.31,0-26.66-18-26.66-34.7,0-17.83,8.28-35.81,26.8-35.81,18.31,0,26.65,18.06,26.65,34.84,0,17.75-8.28,35.68-26.79,35.68Zm0,0"/><path class="cls-2" d="M362,160c-6.31-5.69-15.84-8.57-28.3-8.57A143.71,143.71,0,0,0,310,153.27a3.16,3.16,0,0,0-2.64,3.1v92.34a3.16,3.16,0,0,0,3.15,3.15h12.07a3.16,3.16,0,0,0,3.15-3.15V215a65.3,65.3,0,0,0,6.55.27c13.09,0,24-4,30.82-11.21,5.38-5.54,8.11-13,8.11-22.16,0-9-3.29-16.76-9.23-21.89ZM332.6,199.27a49.35,49.35,0,0,1-6.83-.4V167.75a64.89,64.89,0,0,1,8.21-.44c8.63,0,18.91,2.63,18.91,15.15,0,14.63-12.72,16.81-20.29,16.81Zm0,0"/></g></g></svg>