<svg xmlns="http://www.w3.org/2000/svg" viewBox="0 0 22.68 22.68"><line y1="11.34" x2="22.68" y2="11.34" style="fill:none;stroke:#000;stroke-width:5px"/><line y1="11.34" x2="22.68" y2="11.34" style="fill:none;stroke:#15ff19;stroke-width:2px"/><line x1="9.58" y1="16.46" x2="5.92" y2="16.46" style="fill:none;stroke:#000"/><line x1="5.92" y1="14.71" x2="5.92" y2="18.21" style="fill:none;stroke:#000"/><path d="M9.58,16.46v.43l.22.43.43.43.43.22h3.48l.43-.22.43-.43.22-.43V16L15,15.59l-.43-.43-.43-.22H10.67l-.43.22-.43.43L9.58,16v.43Z" style="stroke:#000;stroke-width:0.5px"/><path d="M13.72,15.8l.43.43v.43l-.43.43h-.43l-.43-.43v-.43l.43-.43Z" style="fill:lime;stroke:lime;stroke-width:0.5px"/><path d="M12,16.24v.43l-.43.43h-.43l-.43-.43v-.43l.43-.43h.43Z" style="fill:red;stroke:red;stroke-width:0.5px"/></svg>