<svg xmlns="http://www.w3.org/2000/svg" viewBox="0 0 22.68 22.68"><line y1="11.34" x2="22.68" y2="11.34" style="fill:none;stroke:#000;stroke-width:5px"/><line y1="11.34" x2="22.68" y2="11.34" style="fill:none;stroke:#15ff19;stroke-width:2px"/><line x1="9.58" y1="16.46" x2="5.92" y2="16.46" style="fill:none;stroke:#000"/><line x1="5.92" y1="14.71" x2="5.92" y2="18.21" style="fill:none;stroke:#000"/><path d="M9.58,16.46v.4l.2.4.4.4.4.2h3.64l.4-.2.4-.4.2-.4v-.81l-.2-.4-.4-.4-.4-.2H10.6l-.4.2-.4.4-.2.4v.4Z" style="stroke:#000;stroke-width:0.5px"/><path d="M14,15.85l.4.4v.4l-.4.4h-.4l-.4-.4v-.4l.4-.4Z" style="fill:lime"/><path d="M13,16.25v.4l-.4.4h-.4l-.4-.4v-.4l.4-.4h.4l.4.4Z" style="fill:#ff0"/><path d="M11.61,16.25v.4l-.4.4h-.4l-.4-.4v-.4l.4-.4h.4Z" style="fill:red"/></svg>