<svg xmlns="http://www.w3.org/2000/svg" width="90.31mm" height="56.44mm" viewBox="0 0 256 160">
  <title>TrainFunctions</title>
  <g>
    <g>
      <rect x="101.89" y="16" width="10.95" height="6.12" rx="2.5" ry="2.5" style="fill: none;stroke: #cccccb;stroke-miterlimit: 10"/>
      <line x1="98.41" y1="16" x2="113.86" y2="16" style="fill: none;stroke: #cccccb;stroke-miterlimit: 10"/>
      <circle cx="98.41" cy="16" r="0.41" style="fill: none;stroke: #cccccb;stroke-miterlimit: 10"/>
      <path d="M110.8,15.53v.88a12.45,12.45,0,0,1,11.26,6.8V8.79A12.46,12.46,0,0,1,110.8,15.53Z" style="fill: #cccccb"/>
      <g>
        <path d="M123.15,13.68a5.43,5.43,0,0,1,.67,2.73,5.43,5.43,0,0,1-.67,2.73" style="fill: none;stroke: #fff;stroke-linecap: round;stroke-miterlimit: 10;stroke-width: 1.5px"/>
        <path d="M124.77,11A11.35,11.35,0,0,1,126,16.41a11.35,11.35,0,0,1-1.23,5.37" style="fill: none;stroke: #fff;stroke-linecap: round;stroke-miterlimit: 10;stroke-width: 1.5px"/>
      </g>
    </g>
    <rect x="96" width="32" height="32" style="fill: none"/>
    <g>
      <rect x="69.89" y="16.1" width="10.95" height="6.12" rx="2.5" ry="2.5" style="fill: none;stroke: #cccccb;stroke-miterlimit: 10"/>
      <line x1="66.41" y1="16.1" x2="81.86" y2="16.1" style="fill: none;stroke: #cccccb;stroke-miterlimit: 10"/>
      <circle cx="66.41" cy="16.1" r="0.41" style="fill: none;stroke: #cccccb;stroke-miterlimit: 10"/>
      <path d="M78.8,15.63v.88a12.45,12.45,0,0,1,11.26,6.8V8.89A12.46,12.46,0,0,1,78.8,15.63Z" style="fill: #cccccb"/>
      <path d="M91.15,13.78a5.43,5.43,0,0,1,.67,2.73,5.43,5.43,0,0,1-.67,2.73" style="fill: none;stroke: #fff;stroke-linecap: round;stroke-miterlimit: 10;stroke-width: 1.5px"/>
      <path d="M92.77,11.14A11.35,11.35,0,0,1,94,16.51a11.35,11.35,0,0,1-1.23,5.37" style="fill: none;stroke: #fff;stroke-linecap: round;stroke-miterlimit: 10;stroke-width: 1.5px"/>
      <g>
        <path d="M67,13.78V8H68.8v2h1.72V8h1.85v5.75H70.52V11.54H68.8v2.23Z" style="fill: #cccccb"/>
        <path d="M73.49,13.78V8h1.88v5.75Z" style="fill: #cccccb"/>
      </g>
    </g>
    <rect x="64" width="32" height="32" style="fill: none"/>
    <g>
      <rect x="133.89" y="16.1" width="10.95" height="6.12" rx="2.5" ry="2.5" style="fill: none;stroke: #cccccb;stroke-miterlimit: 10"/>
      <line x1="130.41" y1="16.1" x2="145.86" y2="16.1" style="fill: none;stroke: #cccccb;stroke-miterlimit: 10"/>
      <circle cx="130.41" cy="16.1" r="0.41" style="fill: none;stroke: #cccccb;stroke-miterlimit: 10"/>
      <path d="M142.8,15.63v.88a12.45,12.45,0,0,1,11.26,6.8V8.89A12.46,12.46,0,0,1,142.8,15.63Z" style="fill: #cccccb"/>
      <path d="M155.15,13.78a5.43,5.43,0,0,1,.67,2.73,5.43,5.43,0,0,1-.67,2.73" style="fill: none;stroke: #fff;stroke-linecap: round;stroke-miterlimit: 10;stroke-width: 1.5px"/>
      <path d="M156.77,11.14A11.35,11.35,0,0,1,158,16.51a11.35,11.35,0,0,1-1.23,5.37" style="fill: none;stroke: #fff;stroke-linecap: round;stroke-miterlimit: 10;stroke-width: 1.5px"/>
      <g>
        <path d="M131,13.78V8h1.85v4.23h2.51v1.53Z" style="fill: #cccccb"/>
        <path d="M135.53,10.9a3,3,0,0,1,.8-2.22,3.35,3.35,0,0,1,4.37,0,3,3,0,0,1,.8,2.22,3,3,0,0,1-.8,2.22,3.34,3.34,0,0,1-4.37,0A3,3,0,0,1,135.53,10.9Zm1.86,0a2.09,2.09,0,0,0,.27,1.2,1,1,0,0,0,.86.38,1,1,0,0,0,.85-.38,2.11,2.11,0,0,0,.27-1.2,2.12,2.12,0,0,0-.27-1.21,1,1,0,0,0-.85-.38,1,1,0,0,0-.86.38A2.1,2.1,0,0,0,137.4,10.9Z" style="fill: #cccccb"/>
      </g>
    </g>
    <rect x="128" width="32" height="32" style="fill: none"/>
    <rect y="32" width="32" height="32" style="fill: none"/>
    <g>
      <path d="M9.08,51.74V43.1h6.53v2.17H11.85v1.34h3V48.7h-3v3Z" style="fill: #cccccb"/>
      <path d="M16.1,47.52A5.08,5.08,0,0,1,17,44.21a3.37,3.37,0,0,1,2.75-1.13,3.4,3.4,0,0,1,2.77,1.13,5.05,5.05,0,0,1,.94,3.31,5.07,5.07,0,0,1-.94,3.32A3.4,3.4,0,0,1,19.79,52,3.36,3.36,0,0,1,17,50.84,5.1,5.1,0,0,1,16.1,47.52Zm4.83,0a5,5,0,0,0-.26-1.93,1,1,0,0,0-1.78,0,5,5,0,0,0-.26,1.94,4.94,4.94,0,0,0,.26,1.93,1,1,0,0,0,1.78,0A4.94,4.94,0,0,0,20.93,47.52Z" style="fill: #cccccb"/>
    </g>
    <rect y="64" width="32" height="32" style="fill: none"/>
    <rect y="96" width="32" height="32" style="fill: none"/>
    <rect y="128" width="32" height="32" style="fill: none"/>
    <rect x="32" y="32" width="32" height="32" style="fill: none"/>
    <rect x="32" y="64" width="32" height="32" style="fill: none"/>
    <rect x="32" y="96" width="32" height="32" style="fill: none"/>
    <rect x="32" y="128" width="32" height="32" style="fill: none"/>
    <rect x="64" y="32" width="32" height="32" style="fill: none"/>
    <rect x="64" y="64" width="32" height="32" style="fill: none"/>
    <rect x="64" y="96" width="32" height="32" style="fill: none"/>
    <rect x="64" y="128" width="32" height="32" style="fill: none"/>
    <rect x="96" y="32" width="32" height="32" style="fill: none"/>
    <rect x="96" y="64" width="32" height="32" style="fill: none"/>
    <rect x="96" y="96" width="32" height="32" style="fill: none"/>
    <rect x="96" y="128" width="32" height="32" style="fill: none"/>
    <rect x="128" y="32" width="32" height="32" style="fill: none"/>
    <rect x="128" y="64" width="32" height="32" style="fill: none"/>
    <rect x="128" y="96" width="32" height="32" style="fill: none"/>
    <rect x="128" y="128" width="32" height="32" style="fill: none"/>
    <rect x="160" y="32" width="32" height="32" style="fill: none"/>
    <rect x="160" y="64" width="32" height="32" style="fill: none"/>
    <rect x="160" y="96" width="32" height="32" style="fill: none"/>
    <rect x="160" y="128" width="32" height="32" style="fill: none"/>
    <rect x="192" y="32" width="32" height="32" style="fill: none"/>
    <rect x="192" y="64" width="32" height="32" style="fill: none"/>
    <rect x="192" y="96" width="32" height="32" style="fill: none"/>
    <rect x="192" y="128" width="32" height="32" style="fill: none"/>
    <rect x="224" y="32" width="32" height="32" style="fill: none"/>
    <g>
      <path d="M9.08,83.74V75.1h6.53v2.17H11.85v1.34h3V80.7h-3v3Z" style="fill: #cccccb"/>
      <path d="M19,83.74v-4.9H17.06V77.09a3.1,3.1,0,0,0,1.74-.43,2,2,0,0,0,.71-1.34h1.9v8.41Z" style="fill: #cccccb"/>
    </g>
    <g>
      <path d="M9.08,115.74V107.1h6.53v2.17H11.85v1.34h3v2.09h-3v3Z" style="fill: #cccccb"/>
      <path d="M16.17,115.74s0-.06,0-.1,0-.08,0-.1a2.94,2.94,0,0,1,.55-1.7,7.05,7.05,0,0,1,1.78-1.66q.32-.23.9-.6,1.37-.88,1.37-1.53a1.08,1.08,0,0,0-.27-.78,1,1,0,0,0-.75-.28,1,1,0,0,0-.88.38,1.86,1.86,0,0,0-.29,1.15v.15H16.33s0-.07,0-.13,0-.09,0-.11a3.18,3.18,0,0,1,.95-2.44,3.66,3.66,0,0,1,2.6-.88,3.7,3.7,0,0,1,2.43.75,2.66,2.66,0,0,1,.56,3.33,4.52,4.52,0,0,1-1.44,1.2l-.42.25a12,12,0,0,0-1.59,1.07h3.77v2.06Z" style="fill: #cccccb"/>
    </g>
    <g>
      <path d="M9.08,147.74V139.1h6.53v2.17H11.85v1.34h3v2.09h-3v3Z" style="fill: #cccccb"/>
      <path d="M16.25,144.76h2.3a1.38,1.38,0,0,0,.32.93,1.17,1.17,0,0,0,.88.3,1.11,1.11,0,0,0,.78-.25,1,1,0,0,0,.27-.73.79.79,0,0,0-.32-.71,1.91,1.91,0,0,0-1-.22h-.21v-1.45h.17a1.89,1.89,0,0,0,1-.22.72.72,0,0,0,.34-.65.71.71,0,0,0-.24-.58,1.07,1.07,0,0,0-.7-.2,1.17,1.17,0,0,0-.79.23,1,1,0,0,0-.3.69H16.45a2.62,2.62,0,0,1,1-2.06,3.7,3.7,0,0,1,2.45-.78,3.73,3.73,0,0,1,2.33.67,2.13,2.13,0,0,1,.87,1.78,2,2,0,0,1-.23,1,1.71,1.71,0,0,1-.69.67,1.66,1.66,0,0,1,.86.69,2.28,2.28,0,0,1,.28,1.19,2.61,2.61,0,0,1-1,2.14,4.12,4.12,0,0,1-2.66.77,3.61,3.61,0,0,1-2.49-.82,2.83,2.83,0,0,1-.92-2.22Z" style="fill: #cccccb"/>
    </g>
    <g>
      <path d="M41.08,51.74V43.1h6.53v2.17H43.85v1.34h3V48.7h-3v3Z" style="fill: #cccccb"/>
      <path d="M52,51.74V50H48.15v-2l3.93-4.62h2.34v4.75h1V50h-1v1.75Zm-2-3.66h2V45.62Z" style="fill: #cccccb"/>
    </g>
    <g>
      <path d="M41.08,83.74V75.1h6.53v2.17H43.85v1.34h3V80.7h-3v3Z" style="fill: #cccccb"/>
      <path d="M48.1,81.5l2.44-.24a1.15,1.15,0,0,0,.42.57,1.22,1.22,0,0,0,.7.19,1.19,1.19,0,0,0,.86-.3,1.09,1.09,0,0,0,.31-.82,1.21,1.21,0,0,0-.31-.86,1.06,1.06,0,0,0-.81-.33,1.26,1.26,0,0,0-.55.12,1.23,1.23,0,0,0-.43.35L48.45,80l.83-4.67h5.35v2H51l-.24,1.2a2.68,2.68,0,0,1,.77-.3,4.38,4.38,0,0,1,1-.09,2.87,2.87,0,0,1,2.06.74,2.56,2.56,0,0,1,.78,1.95,2.87,2.87,0,0,1-1,2.31,4.71,4.71,0,0,1-5.05.18A2.89,2.89,0,0,1,48.1,81.5Z" style="fill: #cccccb"/>
    </g>
    <g>
      <path d="M41.08,115.74V107.1h6.53v2.17H43.85v1.34h3v2.09h-3v3Z" style="fill: #cccccb"/>
      <path d="M50.68,110.79a2.24,2.24,0,0,1,.81-.45,3.42,3.42,0,0,1,1.07-.16,2.94,2.94,0,0,1,2.11.75,2.64,2.64,0,0,1,.79,2,2.79,2.79,0,0,1-.93,2.21A3.72,3.72,0,0,1,52,116a3.54,3.54,0,0,1-2.84-1.11,6,6,0,0,1,0-6.58A3.48,3.48,0,0,1,52,107.09a3.74,3.74,0,0,1,2.21.62,2.72,2.72,0,0,1,1.11,1.73l-2.33.08a.92.92,0,0,0-.35-.51,1.06,1.06,0,0,0-.62-.18,1.09,1.09,0,0,0-1,.49A2.89,2.89,0,0,0,50.68,110.79Zm.08,2.14a1.13,1.13,0,0,0,.3.83,1.11,1.11,0,0,0,.82.3,1.08,1.08,0,0,0,.81-.3,1.12,1.12,0,0,0,.3-.82,1.16,1.16,0,0,0-.29-.84,1.06,1.06,0,0,0-.8-.3,1.06,1.06,0,0,0-1.14,1.13Z" style="fill: #cccccb"/>
    </g>
    <g>
      <path d="M41.08,147.74V139.1h6.53v2.17H43.85v1.34h3v2.09h-3v3Z" style="fill: #cccccb"/>
      <path d="M49.71,147.74a10.14,10.14,0,0,1,.81-3.35,11.19,11.19,0,0,1,2-3H48.39v-2.08h6.73v1.84A8.3,8.3,0,0,0,53.29,144a11.76,11.76,0,0,0-.73,3.74Z" style="fill: #cccccb"/>
    </g>
    <g>
      <path d="M73.08,51.74V43.1h6.53v2.17H75.85v1.34h3V48.7h-3v3Z" style="fill: #cccccb"/>
      <path d="M81.51,47.28a2,2,0,0,1-.83-.71,1.87,1.87,0,0,1-.27-1,2.12,2.12,0,0,1,.9-1.8,4.93,4.93,0,0,1,4.93,0,2.12,2.12,0,0,1,.9,1.8,1.87,1.87,0,0,1-.27,1,2.05,2.05,0,0,1-.82.71,2.18,2.18,0,0,1,1,.76,2.06,2.06,0,0,1,.33,1.2,2.36,2.36,0,0,1-.95,2,5.41,5.41,0,0,1-5.36,0,2.36,2.36,0,0,1-.95-2,2.06,2.06,0,0,1,.33-1.2A2.18,2.18,0,0,1,81.51,47.28Zm1.11,1.81a1,1,0,0,0,.3.76,1.47,1.47,0,0,0,1.7,0,1,1,0,0,0,.3-.76,1,1,0,0,0-.3-.79,1.39,1.39,0,0,0-1.69,0A1,1,0,0,0,82.62,49.09Zm.07-3.38a.85.85,0,0,0,.28.68,1.19,1.19,0,0,0,.8.24,1.16,1.16,0,0,0,.79-.24.86.86,0,0,0,.28-.68.79.79,0,0,0-.3-.63,1.16,1.16,0,0,0-.77-.25,1.19,1.19,0,0,0-.78.25A.78.78,0,0,0,82.69,45.71Z" style="fill: #cccccb"/>
    </g>
    <g>
      <path d="M73.08,83.74V75.1h6.53v2.17H75.85v1.34h3V80.7h-3v3Z" style="fill: #cccccb"/>
      <path d="M84.85,80.25a2.14,2.14,0,0,1-.8.46,3.42,3.42,0,0,1-1.07.16,2.94,2.94,0,0,1-2.12-.75,2.65,2.65,0,0,1-.79-2A2.77,2.77,0,0,1,81,75.9a3.73,3.73,0,0,1,2.54-.81,3.55,3.55,0,0,1,2.84,1.11,6,6,0,0,1,0,6.57A3.49,3.49,0,0,1,83.54,84a3.73,3.73,0,0,1-2.21-.62,2.71,2.71,0,0,1-1.1-1.72l2.3-.09a.94.94,0,0,0,.36.51,1.07,1.07,0,0,0,.63.18,1.08,1.08,0,0,0,1-.49A2.89,2.89,0,0,0,84.85,80.25Zm-.08-2.13a1.15,1.15,0,0,0-.3-.84,1.1,1.1,0,0,0-.82-.3,1.07,1.07,0,0,0-.81.3,1.13,1.13,0,0,0-.3.82,1.16,1.16,0,0,0,.29.84,1.06,1.06,0,0,0,.8.3,1.12,1.12,0,0,0,.82-.3A1.1,1.1,0,0,0,84.77,78.12Z" style="fill: #cccccb"/>
    </g>
    <g>
      <path d="M69.14,115.74V107.1h6.53v2.17H71.91v1.34h3v2.09h-3v3Z" style="fill: #cccccb"/>
      <path d="M79,115.74v-4.9H77.12v-1.75a3.1,3.1,0,0,0,1.74-.43,2,2,0,0,0,.71-1.34h1.9v8.41Z" style="fill: #cccccb"/>
      <path d="M84,111.52a5.08,5.08,0,0,1,.93-3.31,3.94,3.94,0,0,1,5.52,0,6.31,6.31,0,0,1,0,6.64A3.4,3.4,0,0,1,87.73,116,3.36,3.36,0,0,1,85,114.84,5.1,5.1,0,0,1,84,111.52Zm4.83,0a5,5,0,0,0-.26-1.93,1,1,0,0,0-1.78,0,7.24,7.24,0,0,0,0,3.87,1,1,0,0,0,1.78,0A4.94,4.94,0,0,0,88.88,111.52Z" style="fill: #cccccb"/>
    </g>
    <g>
      <path d="M69.14,147.74V139.1h6.53v2.17H71.91v1.34h3v2.09h-3v3Z" style="fill: #cccccb"/>
      <path d="M79,147.74v-4.9H77.12v-1.75a3.1,3.1,0,0,0,1.74-.43,2,2,0,0,0,.71-1.34h1.9v8.41Z" style="fill: #cccccb"/>
      <path d="M86.9,147.74v-4.9H85v-1.75a3.1,3.1,0,0,0,1.74-.43,2,2,0,0,0,.71-1.34h1.9v8.41Z" style="fill: #cccccb"/>
    </g>
    <g>
      <path d="M101.14,51.74V43.1h6.53v2.17h-3.76v1.34h3V48.7h-3v3Z" style="fill: #cccccb"/>
      <path d="M111,51.74v-4.9h-1.89V45.09a3.1,3.1,0,0,0,1.74-.43,2,2,0,0,0,.71-1.34h1.9v8.41Z" style="fill: #cccccb"/>
      <path d="M116.11,51.74s0-.06,0-.1,0-.08,0-.1a2.94,2.94,0,0,1,.55-1.7,7.05,7.05,0,0,1,1.78-1.66q.32-.23.9-.6,1.37-.88,1.37-1.53a1.08,1.08,0,0,0-.27-.78,1,1,0,0,0-.75-.28,1,1,0,0,0-.88.38,1.86,1.86,0,0,0-.29,1.15v.15h-2.23s0-.07,0-.13,0-.09,0-.11a3.18,3.18,0,0,1,.95-2.44,3.66,3.66,0,0,1,2.6-.88,3.7,3.7,0,0,1,2.43.75,2.66,2.66,0,0,1,.56,3.33,4.52,4.52,0,0,1-1.44,1.2l-.42.25a12,12,0,0,0-1.59,1.07h3.77v2.06Z" style="fill: #cccccb"/>
    </g>
    <g>
      <path d="M101.14,83.74V75.1h6.53v2.17h-3.76v1.34h3V80.7h-3v3Z" style="fill: #cccccb"/>
      <path d="M111,83.74v-4.9h-1.89V77.09a3.1,3.1,0,0,0,1.74-.43,2,2,0,0,0,.71-1.34h1.9v8.41Z" style="fill: #cccccb"/>
      <path d="M116.19,80.76h2.3a1.38,1.38,0,0,0,.32.93,1.17,1.17,0,0,0,.88.3,1.11,1.11,0,0,0,.78-.25,1,1,0,0,0,.27-.73.79.79,0,0,0-.32-.71,1.91,1.91,0,0,0-1-.22h-.21V78.64h.17a1.89,1.89,0,0,0,1-.22.72.72,0,0,0,.34-.65.71.71,0,0,0-.24-.58,1.07,1.07,0,0,0-.7-.2,1.17,1.17,0,0,0-.79.23,1,1,0,0,0-.3.69h-2.26a2.62,2.62,0,0,1,1-2.06,4.32,4.32,0,0,1,4.78-.11,2.13,2.13,0,0,1,.87,1.78,2,2,0,0,1-.23,1,1.71,1.71,0,0,1-.69.67,1.66,1.66,0,0,1,.86.69,2.28,2.28,0,0,1,.28,1.19,2.61,2.61,0,0,1-1,2.14,4.12,4.12,0,0,1-2.66.77,3.61,3.61,0,0,1-2.49-.82,2.83,2.83,0,0,1-.92-2.22Z" style="fill: #cccccb"/>
    </g>
    <g>
      <path d="M101.14,115.74V107.1h6.53v2.17h-3.76v1.34h3v2.09h-3v3Z" style="fill: #cccccb"/>
      <path d="M111,115.74v-4.9h-1.89v-1.75a3.1,3.1,0,0,0,1.74-.43,2,2,0,0,0,.71-1.34h1.9v8.41Z" style="fill: #cccccb"/>
      <path d="M120,115.74V114h-3.87v-2l3.93-4.62h2.34v4.75h1V114h-1v1.75Zm-2-3.66h2v-2.46Z" style="fill: #cccccb"/>
    </g>
    <g>
      <path d="M101.14,147.74V139.1h6.53v2.17h-3.76v1.34h3v2.09h-3v3Z" style="fill: #cccccb"/>
      <path d="M111,147.74v-4.9h-1.89v-1.75a3.1,3.1,0,0,0,1.74-.43,2,2,0,0,0,.71-1.34h1.9v8.41Z" style="fill: #cccccb"/>
      <path d="M116,145.5l2.44-.24a1.15,1.15,0,0,0,.42.57,1.22,1.22,0,0,0,.7.19,1.19,1.19,0,0,0,.86-.3,1.09,1.09,0,0,0,.31-.82,1.21,1.21,0,0,0-.31-.86,1.06,1.06,0,0,0-.81-.33,1.26,1.26,0,0,0-.55.12,1.23,1.23,0,0,0-.43.35l-2.3-.19.83-4.67h5.35v2h-3.64l-.24,1.2a2.68,2.68,0,0,1,.77-.3,4.38,4.38,0,0,1,1-.09,2.87,2.87,0,0,1,2.06.74,2.56,2.56,0,0,1,.78,1.95,2.87,2.87,0,0,1-1,2.31,4.71,4.71,0,0,1-5.05.18A2.89,2.89,0,0,1,116,145.5Z" style="fill: #cccccb"/>
    </g>
    <g>
      <path d="M133.14,51.74V43.1h6.53v2.17h-3.76v1.34h3V48.7h-3v3Z" style="fill: #cccccb"/>
      <path d="M143,51.74v-4.9h-1.89V45.09a3.1,3.1,0,0,0,1.74-.43,2,2,0,0,0,.71-1.34h1.9v8.41Z" style="fill: #cccccb"/>
      <path d="M150.62,46.79a2.24,2.24,0,0,1,.81-.45,3.42,3.42,0,0,1,1.07-.16,2.94,2.94,0,0,1,2.11.75,2.64,2.64,0,0,1,.79,2,2.79,2.79,0,0,1-.93,2.21,3.72,3.72,0,0,1-2.54.81,3.54,3.54,0,0,1-2.84-1.11,5,5,0,0,1-1-3.3,4.9,4.9,0,0,1,1-3.28,3.48,3.48,0,0,1,2.79-1.17,3.74,3.74,0,0,1,2.21.62,2.72,2.72,0,0,1,1.11,1.73l-2.33.08a.92.92,0,0,0-.35-.51,1.06,1.06,0,0,0-.62-.18,1.09,1.09,0,0,0-1,.49A2.89,2.89,0,0,0,150.62,46.79Zm.08,2.14a1.13,1.13,0,0,0,.3.83,1.11,1.11,0,0,0,.82.3,1.08,1.08,0,0,0,.81-.3,1.12,1.12,0,0,0,.3-.82,1.16,1.16,0,0,0-.29-.84,1.06,1.06,0,0,0-.8-.3,1.06,1.06,0,0,0-1.14,1.13Z" style="fill: #cccccb"/>
    </g>
    <g>
      <path d="M133.14,83.74V75.1h6.53v2.17h-3.76v1.34h3V80.7h-3v3Z" style="fill: #cccccb"/>
      <path d="M143,83.74v-4.9h-1.89V77.09a3.1,3.1,0,0,0,1.74-.43,2,2,0,0,0,.71-1.34h1.9v8.41Z" style="fill: #cccccb"/>
      <path d="M149.65,83.74a10.14,10.14,0,0,1,.81-3.35,11.19,11.19,0,0,1,2-3h-4.11V75.32h6.73v1.84A8.3,8.3,0,0,0,153.23,80a11.76,11.76,0,0,0-.73,3.74Z" style="fill: #cccccb"/>
    </g>
    <g>
      <path d="M133.14,115.74V107.1h6.53v2.17h-3.76v1.34h3v2.09h-3v3Z" style="fill: #cccccb"/>
      <path d="M143,115.74v-4.9h-1.89v-1.75a3.1,3.1,0,0,0,1.74-.43,2,2,0,0,0,.71-1.34h1.9v8.41Z" style="fill: #cccccb"/>
      <path d="M149.45,111.28a2,2,0,0,1-.83-.71,1.87,1.87,0,0,1-.27-1,2.12,2.12,0,0,1,.9-1.8,4.93,4.93,0,0,1,4.93,0,2.12,2.12,0,0,1,.9,1.8,1.87,1.87,0,0,1-.27,1,2.05,2.05,0,0,1-.82.71,2.18,2.18,0,0,1,1,.76,2.06,2.06,0,0,1,.33,1.2,2.36,2.36,0,0,1-.95,2,5.41,5.41,0,0,1-5.36,0,2.36,2.36,0,0,1-.95-2,2.06,2.06,0,0,1,.33-1.2A2.18,2.18,0,0,1,149.45,111.28Zm1.11,1.81a1,1,0,0,0,.3.76,1.47,1.47,0,0,0,1.7,0,1,1,0,0,0,.3-.76,1,1,0,0,0-.3-.79,1.39,1.39,0,0,0-1.69,0A1,1,0,0,0,150.56,113.09Zm.07-3.38a.85.85,0,0,0,.28.68,1.19,1.19,0,0,0,.8.24,1.16,1.16,0,0,0,.79-.24.86.86,0,0,0,.28-.68.79.79,0,0,0-.3-.63,1.16,1.16,0,0,0-.77-.25,1.19,1.19,0,0,0-.78.25A.78.78,0,0,0,150.63,109.71Z" style="fill: #cccccb"/>
    </g>
    <g>
      <path d="M133.14,147.74V139.1h6.53v2.17h-3.76v1.34h3v2.09h-3v3Z" style="fill: #cccccb"/>
      <path d="M143,147.74v-4.9h-1.89v-1.75a3.1,3.1,0,0,0,1.74-.43,2,2,0,0,0,.71-1.34h1.9v8.41Z" style="fill: #cccccb"/>
      <path d="M152.79,144.25a2.14,2.14,0,0,1-.8.46,3.42,3.42,0,0,1-1.07.16,2.94,2.94,0,0,1-2.12-.75,2.65,2.65,0,0,1-.79-2,2.77,2.77,0,0,1,.93-2.2,3.73,3.73,0,0,1,2.54-.81,3.55,3.55,0,0,1,2.84,1.11,6,6,0,0,1,0,6.57,3.49,3.49,0,0,1-2.79,1.17,3.73,3.73,0,0,1-2.21-.62,2.71,2.71,0,0,1-1.1-1.72l2.3-.09a.94.94,0,0,0,.36.51,1.07,1.07,0,0,0,.63.18,1.08,1.08,0,0,0,1-.49A2.89,2.89,0,0,0,152.79,144.25Zm-.08-2.13a1.15,1.15,0,0,0-.3-.84,1.1,1.1,0,0,0-.82-.3,1.07,1.07,0,0,0-.81.3,1.13,1.13,0,0,0-.3.82,1.16,1.16,0,0,0,.29.84,1.06,1.06,0,0,0,.8.3,1.12,1.12,0,0,0,.82-.3A1.1,1.1,0,0,0,152.71,142.12Z" style="fill: #cccccb"/>
    </g>
    <g>
      <path d="M165.14,51.74V43.1h6.53v2.17h-3.76v1.34h3V48.7h-3v3Z" style="fill: #cccccb"/>
      <path d="M172.23,51.74s0-.06,0-.1,0-.08,0-.1a2.94,2.94,0,0,1,.55-1.7,7.05,7.05,0,0,1,1.78-1.66q.32-.23.9-.6,1.37-.88,1.37-1.53a1.08,1.08,0,0,0-.27-.78,1,1,0,0,0-.75-.28,1,1,0,0,0-.88.38,1.86,1.86,0,0,0-.29,1.15v.15h-2.23s0-.07,0-.13,0-.09,0-.11a3.18,3.18,0,0,1,.95-2.44,3.66,3.66,0,0,1,2.6-.88,3.7,3.7,0,0,1,2.43.75,2.66,2.66,0,0,1,.56,3.33,4.52,4.52,0,0,1-1.44,1.2l-.42.25a12,12,0,0,0-1.59,1.07h3.77v2.06Z" style="fill: #cccccb"/>
      <path d="M180,47.52a5.08,5.08,0,0,1,.93-3.31,3.94,3.94,0,0,1,5.52,0,5.05,5.05,0,0,1,.94,3.31,5.07,5.07,0,0,1-.94,3.32A3.4,3.4,0,0,1,183.73,52,3.36,3.36,0,0,1,181,50.84,5.1,5.1,0,0,1,180,47.52Zm4.83,0a5,5,0,0,0-.26-1.93,1,1,0,0,0-1.78,0,5,5,0,0,0-.26,1.94,4.94,4.94,0,0,0,.26,1.93,1,1,0,0,0,1.78,0A4.94,4.94,0,0,0,184.88,47.52Z" style="fill: #cccccb"/>
    </g>
    <g>
      <path d="M165.14,83.74V75.1h6.53v2.17h-3.76v1.34h3V80.7h-3v3Z" style="fill: #cccccb"/>
      <path d="M172.23,83.74s0-.06,0-.1,0-.08,0-.1a2.94,2.94,0,0,1,.55-1.7,7.05,7.05,0,0,1,1.78-1.66q.32-.23.9-.6,1.37-.88,1.37-1.53a1.08,1.08,0,0,0-.27-.78,1,1,0,0,0-.75-.28,1,1,0,0,0-.88.38,1.86,1.86,0,0,0-.29,1.15v.15h-2.23s0-.07,0-.13,0-.09,0-.11a3.18,3.18,0,0,1,.95-2.44,3.66,3.66,0,0,1,2.6-.88,3.7,3.7,0,0,1,2.43.75,2.66,2.66,0,0,1,.56,3.33,4.52,4.52,0,0,1-1.44,1.2l-.42.25a12,12,0,0,0-1.59,1.07h3.77v2.06Z" style="fill: #cccccb"/>
      <path d="M182.9,83.74v-4.9H181V77.09a3.1,3.1,0,0,0,1.74-.43,2,2,0,0,0,.71-1.34h1.9v8.41Z" style="fill: #cccccb"/>
    </g>
    <g>
      <path d="M165.14,115.74V107.1h6.53v2.17h-3.76v1.34h3v2.09h-3v3Z" style="fill: #cccccb"/>
      <path d="M172.23,115.74s0-.06,0-.1,0-.08,0-.1a2.94,2.94,0,0,1,.55-1.7,7.05,7.05,0,0,1,1.78-1.66q.32-.23.9-.6,1.37-.88,1.37-1.53a1.08,1.08,0,0,0-.27-.78,1,1,0,0,0-.75-.28,1,1,0,0,0-.88.38,1.86,1.86,0,0,0-.29,1.15v.15h-2.23s0-.07,0-.13,0-.09,0-.11a3.18,3.18,0,0,1,.95-2.44,3.66,3.66,0,0,1,2.6-.88,3.7,3.7,0,0,1,2.43.75,2.66,2.66,0,0,1,.56,3.33,4.52,4.52,0,0,1-1.44,1.2l-.42.25a12,12,0,0,0-1.59,1.07h3.77v2.06Z" style="fill: #cccccb"/>
      <path d="M180.11,115.74s0-.06,0-.1,0-.08,0-.1a2.94,2.94,0,0,1,.55-1.7,7.05,7.05,0,0,1,1.78-1.66q.32-.23.9-.6,1.37-.88,1.37-1.53a1.08,1.08,0,0,0-.27-.78,1,1,0,0,0-.75-.28,1,1,0,0,0-.88.38,1.86,1.86,0,0,0-.29,1.15v.15h-2.23s0-.07,0-.13,0-.09,0-.11a3.18,3.18,0,0,1,.95-2.44,3.66,3.66,0,0,1,2.6-.88,3.7,3.7,0,0,1,2.43.75,2.66,2.66,0,0,1,.56,3.33,4.52,4.52,0,0,1-1.44,1.2l-.42.25a12,12,0,0,0-1.59,1.07h3.77v2.06Z" style="fill: #cccccb"/>
    </g>
    <g>
      <path d="M165.14,147.74V139.1h6.53v2.17h-3.76v1.34h3v2.09h-3v3Z" style="fill: #cccccb"/>
      <path d="M172.23,147.74s0-.06,0-.1,0-.08,0-.1a2.94,2.94,0,0,1,.55-1.7,7.05,7.05,0,0,1,1.78-1.66q.32-.23.9-.6,1.37-.88,1.37-1.53a1.08,1.08,0,0,0-.27-.78,1,1,0,0,0-.75-.28,1,1,0,0,0-.88.38,1.86,1.86,0,0,0-.29,1.15v.15h-2.23s0-.07,0-.13,0-.09,0-.11a3.18,3.18,0,0,1,.95-2.44,3.66,3.66,0,0,1,2.6-.88,3.7,3.7,0,0,1,2.43.75,2.66,2.66,0,0,1,.56,3.33,4.52,4.52,0,0,1-1.44,1.2l-.42.25a12,12,0,0,0-1.59,1.07h3.77v2.06Z" style="fill: #cccccb"/>
      <path d="M180.19,144.76h2.3a1.38,1.38,0,0,0,.32.93,1.17,1.17,0,0,0,.88.3,1.11,1.11,0,0,0,.78-.25,1,1,0,0,0,.27-.73.79.79,0,0,0-.32-.71,1.91,1.91,0,0,0-1-.22h-.21v-1.45h.17a1.89,1.89,0,0,0,1-.22.72.72,0,0,0,.34-.65.71.71,0,0,0-.24-.58,1.07,1.07,0,0,0-.7-.2,1.17,1.17,0,0,0-.79.23,1,1,0,0,0-.3.69h-2.26a2.62,2.62,0,0,1,1-2.06,4.32,4.32,0,0,1,4.78-.11,2.13,2.13,0,0,1,.87,1.78,2,2,0,0,1-.23,1,1.71,1.71,0,0,1-.69.67,1.66,1.66,0,0,1,.86.69,2.28,2.28,0,0,1,.28,1.19,2.61,2.61,0,0,1-1,2.14,4.12,4.12,0,0,1-2.66.77,3.61,3.61,0,0,1-2.49-.82,2.83,2.83,0,0,1-.92-2.22Z" style="fill: #cccccb"/>
    </g>
    <g>
      <path d="M197.14,51.74V43.1h6.53v2.17h-3.76v1.34h3V48.7h-3v3Z" style="fill: #cccccb"/>
      <path d="M204.23,51.74s0-.06,0-.1,0-.08,0-.1a2.94,2.94,0,0,1,.55-1.7,7.05,7.05,0,0,1,1.78-1.66q.32-.23.9-.6,1.37-.88,1.37-1.53a1.08,1.08,0,0,0-.27-.78,1,1,0,0,0-.75-.28,1,1,0,0,0-.88.38,1.86,1.86,0,0,0-.29,1.15v.15h-2.23s0-.07,0-.13,0-.09,0-.11a3.18,3.18,0,0,1,.95-2.44,3.66,3.66,0,0,1,2.6-.88,3.7,3.7,0,0,1,2.43.75,2.66,2.66,0,0,1,.56,3.33,4.52,4.52,0,0,1-1.44,1.2l-.42.25a12,12,0,0,0-1.59,1.07h3.77v2.06Z" style="fill: #cccccb"/>
      <path d="M216,51.74V50h-3.87v-2L216,43.32h2.34v4.75h1V50h-1v1.75Zm-2-3.66h2V45.62Z" style="fill: #cccccb"/>
    </g>
    <g>
      <path d="M229.14,51.74V43.1h6.53v2.17h-3.76v1.34h3V48.7h-3v3Z" style="fill: #cccccb"/>
      <path d="M236.23,51.74s0-.06,0-.1,0-.08,0-.1a2.94,2.94,0,0,1,.55-1.7,7.05,7.05,0,0,1,1.78-1.66q.32-.23.9-.6,1.37-.88,1.37-1.53a1.08,1.08,0,0,0-.27-.78,1,1,0,0,0-.75-.28,1,1,0,0,0-.88.38,1.86,1.86,0,0,0-.29,1.15v.15h-2.23s0-.07,0-.13,0-.09,0-.11a3.18,3.18,0,0,1,.95-2.44,3.66,3.66,0,0,1,2.6-.88,3.7,3.7,0,0,1,2.43.75,2.66,2.66,0,0,1,.56,3.33,4.52,4.52,0,0,1-1.44,1.2l-.42.25a12,12,0,0,0-1.59,1.07h3.77v2.06Z" style="fill: #cccccb"/>
      <path d="M245.45,47.28a2,2,0,0,1-.83-.71,1.87,1.87,0,0,1-.27-1,2.12,2.12,0,0,1,.9-1.8,4.93,4.93,0,0,1,4.93,0,2.12,2.12,0,0,1,.9,1.8,1.87,1.87,0,0,1-.27,1,2.05,2.05,0,0,1-.82.71,2.18,2.18,0,0,1,1,.76,2.06,2.06,0,0,1,.33,1.2,2.36,2.36,0,0,1-.95,2,5.41,5.41,0,0,1-5.36,0,2.36,2.36,0,0,1-.95-2,2.06,2.06,0,0,1,.33-1.2A2.18,2.18,0,0,1,245.45,47.28Zm1.11,1.81a1,1,0,0,0,.3.76,1.47,1.47,0,0,0,1.7,0,1,1,0,0,0,.3-.76,1,1,0,0,0-.3-.79,1.39,1.39,0,0,0-1.69,0A1,1,0,0,0,246.56,49.09Zm.07-3.38a.85.85,0,0,0,.28.68,1.19,1.19,0,0,0,.8.24,1.16,1.16,0,0,0,.79-.24.86.86,0,0,0,.28-.68.79.79,0,0,0-.3-.63,1.16,1.16,0,0,0-.77-.25,1.19,1.19,0,0,0-.78.25A.78.78,0,0,0,246.63,45.71Z" style="fill: #cccccb"/>
    </g>
    <g>
      <path d="M197.14,83.74V75.1h6.53v2.17h-3.76v1.34h3V80.7h-3v3Z" style="fill: #cccccb"/>
      <path d="M204.23,83.74s0-.06,0-.1,0-.08,0-.1a2.94,2.94,0,0,1,.55-1.7,7.05,7.05,0,0,1,1.78-1.66q.32-.23.9-.6,1.37-.88,1.37-1.53a1.08,1.08,0,0,0-.27-.78,1,1,0,0,0-.75-.28,1,1,0,0,0-.88.38,1.86,1.86,0,0,0-.29,1.15v.15h-2.23s0-.07,0-.13,0-.09,0-.11a3.18,3.18,0,0,1,.95-2.44,3.66,3.66,0,0,1,2.6-.88,3.7,3.7,0,0,1,2.43.75,2.66,2.66,0,0,1,.56,3.33,4.52,4.52,0,0,1-1.44,1.2l-.42.25a12,12,0,0,0-1.59,1.07h3.77v2.06Z" style="fill: #cccccb"/>
      <path d="M212,81.5l2.44-.24a1.15,1.15,0,0,0,.42.57,1.22,1.22,0,0,0,.7.19,1.19,1.19,0,0,0,.86-.3,1.09,1.09,0,0,0,.31-.82,1.21,1.21,0,0,0-.31-.86,1.06,1.06,0,0,0-.81-.33,1.26,1.26,0,0,0-.55.12,1.23,1.23,0,0,0-.43.35l-2.3-.19.83-4.67h5.35v2h-3.64l-.24,1.2a2.68,2.68,0,0,1,.77-.3,4.38,4.38,0,0,1,1-.09,2.87,2.87,0,0,1,2.06.74,2.56,2.56,0,0,1,.78,1.95,2.87,2.87,0,0,1-1,2.31,4.71,4.71,0,0,1-5.05.18A2.89,2.89,0,0,1,212,81.5Z" style="fill: #cccccb"/>
    </g>
    <g>
      <path d="M197.14,115.74V107.1h6.53v2.17h-3.76v1.34h3v2.09h-3v3Z" style="fill: #cccccb"/>
      <path d="M204.23,115.74s0-.06,0-.1,0-.08,0-.1a2.94,2.94,0,0,1,.55-1.7,7.05,7.05,0,0,1,1.78-1.66q.32-.23.9-.6,1.37-.88,1.37-1.53a1.08,1.08,0,0,0-.27-.78,1,1,0,0,0-.75-.28,1,1,0,0,0-.88.38,1.86,1.86,0,0,0-.29,1.15v.15h-2.23s0-.07,0-.13,0-.09,0-.11a3.18,3.18,0,0,1,.95-2.44,3.66,3.66,0,0,1,2.6-.88,3.7,3.7,0,0,1,2.43.75,2.66,2.66,0,0,1,.56,3.33,4.52,4.52,0,0,1-1.44,1.2l-.42.25a12,12,0,0,0-1.59,1.07h3.77v2.06Z" style="fill: #cccccb"/>
      <path d="M214.62,110.79a2.24,2.24,0,0,1,.81-.45,3.42,3.42,0,0,1,1.07-.16,2.94,2.94,0,0,1,2.11.75,2.64,2.64,0,0,1,.79,2,2.79,2.79,0,0,1-.93,2.21,3.72,3.72,0,0,1-2.54.81,3.54,3.54,0,0,1-2.84-1.11,6,6,0,0,1,0-6.58,3.48,3.48,0,0,1,2.79-1.17,3.74,3.74,0,0,1,2.21.62,2.72,2.72,0,0,1,1.11,1.73l-2.33.08a.92.92,0,0,0-.35-.51,1.06,1.06,0,0,0-.62-.18,1.09,1.09,0,0,0-1,.49A2.89,2.89,0,0,0,214.62,110.79Zm.08,2.14a1.13,1.13,0,0,0,.3.83,1.11,1.11,0,0,0,.82.3,1.08,1.08,0,0,0,.81-.3,1.12,1.12,0,0,0,.3-.82,1.16,1.16,0,0,0-.29-.84,1.06,1.06,0,0,0-.8-.3,1.06,1.06,0,0,0-1.14,1.13Z" style="fill: #cccccb"/>
    </g>
    <g>
      <path d="M197.14,147.74V139.1h6.53v2.17h-3.76v1.34h3v2.09h-3v3Z" style="fill: #cccccb"/>
      <path d="M204.23,147.74s0-.06,0-.1,0-.08,0-.1a2.94,2.94,0,0,1,.55-1.7,7.05,7.05,0,0,1,1.78-1.66q.32-.23.9-.6,1.37-.88,1.37-1.53a1.08,1.08,0,0,0-.27-.78,1,1,0,0,0-.75-.28,1,1,0,0,0-.88.38,1.86,1.86,0,0,0-.29,1.15v.15h-2.23s0-.07,0-.13,0-.09,0-.11a3.18,3.18,0,0,1,.95-2.44,3.66,3.66,0,0,1,2.6-.88,3.7,3.7,0,0,1,2.43.75,2.66,2.66,0,0,1,.56,3.33,4.52,4.52,0,0,1-1.44,1.2l-.42.25a12,12,0,0,0-1.59,1.07h3.77v2.06Z" style="fill: #cccccb"/>
      <path d="M213.65,147.74a10.14,10.14,0,0,1,.81-3.35,11.19,11.19,0,0,1,2-3h-4.11v-2.08h6.73v1.84a8.3,8.3,0,0,0-1.83,2.84,11.76,11.76,0,0,0-.73,3.74Z" style="fill: #cccccb"/>
    </g>
    <path d="M30,15.95" style="fill: none;stroke: #cccccb;stroke-miterlimit: 10"/>
    <g>
      <rect width="32" height="32" style="fill: none"/>
      <path d="M15.65,16.16" style="fill: none;stroke: #cccccb;stroke-miterlimit: 10"/>
      <g>
        <rect x="7.3" y="14.53" width="16.36" height="3.27" rx="0.27" ry="0.27" transform="translate(-0.68 31.64) rotate(-90)" style="fill: #cccccb"/>
        <path d="M12.72,9.87a.61.61,0,0,0-.68-.6c-4.29.63-7.53,3.47-7.53,6.9s3.25,6.26,7.53,6.9a.61.61,0,0,0,.68-.6Z" style="fill: #cccccb"/>
        <line x1="18.15" y1="10.47" x2="26.64" y2="7.5" style="fill: none;stroke: #fff;stroke-linecap: round;stroke-miterlimit: 10;stroke-width: 1.5px"/>
        <line x1="18.15" y1="13.59" x2="27.3" y2="11.81" style="fill: none;stroke: #fff;stroke-linecap: round;stroke-miterlimit: 10;stroke-width: 1.5px"/>
        <line x1="18.15" y1="16.16" x2="27.5" y2="16.16" style="fill: none;stroke: #fff;stroke-linecap: round;stroke-miterlimit: 10;stroke-width: 1.5px"/>
        <line x1="18.15" y1="21.85" x2="26.64" y2="24.83" style="fill: none;stroke: #fff;stroke-linecap: round;stroke-miterlimit: 10;stroke-width: 1.5px"/>
        <line x1="18.15" y1="18.73" x2="27.3" y2="20.51" style="fill: none;stroke: #fff;stroke-linecap: round;stroke-miterlimit: 10;stroke-width: 1.5px"/>
      </g>
    </g>
    <g>
      <g>
        <rect x="36.03" y="8.43" width="24.17" height="2.71" rx="0.28" ry="0.28" style="fill: #cccccb"/>
        <path d="M47.91,19.54c4.51,0,8.26-2.82,9.19-6.59a.49.49,0,0,0-.48-.59H39.2a.49.49,0,0,0-.48.59C39.65,16.72,43.41,19.54,47.91,19.54Z" style="fill: #cccccb"/>
      </g>
      <rect x="32" width="32" height="32" style="fill: none"/>
      <line x1="38.71" y1="22.33" x2="40.79" y2="17.81" style="fill: none;stroke: #fff;stroke-linecap: round;stroke-miterlimit: 10;stroke-width: 1.5px"/>
      <line x1="42.8" y1="23.22" x2="43.68" y2="19.54" style="fill: none;stroke: #fff;stroke-linecap: round;stroke-miterlimit: 10;stroke-width: 1.5px"/>
      <line x1="47.91" y1="23.57" x2="47.91" y2="20.31" style="fill: none;stroke: #fff;stroke-linecap: round;stroke-miterlimit: 10;stroke-width: 1.5px"/>
      <line x1="57.12" y1="22.33" x2="55.03" y2="17.81" style="fill: none;stroke: #fff;stroke-linecap: round;stroke-miterlimit: 10;stroke-width: 1.5px"/>
      <line x1="53.02" y1="23.22" x2="52.14" y2="19.54" style="fill: none;stroke: #fff;stroke-linecap: round;stroke-miterlimit: 10;stroke-width: 1.5px"/>
    </g>
  </g>
</svg>
