<svg xmlns="http://www.w3.org/2000/svg" width="16" height="16" viewBox="-0.5 -3.5 16 16">
  <title>TrainFunction_Horn</title>
  <g>
    <rect x="2.22" y="3.66" width="5.55" height="3.1" rx="1.55" ry="1.55" style="fill: none;stroke: #cccccb;stroke-miterlimit: 10;stroke-width: 0.5px"/>
    <line x1="0.46" y1="3.66" x2="8.29" y2="3.66" style="fill: none;stroke: #cccccb;stroke-miterlimit: 10;stroke-width: 0.5px"/>
    <circle cx="0.46" cy="3.66" r="0.21" style="fill: none;stroke: #cccccb;stroke-miterlimit: 10;stroke-width: 0.5px"/>
    <path d="M6.74,3.42v.45a6.31,6.31,0,0,1,5.71,3.45V0A6.32,6.32,0,0,1,6.74,3.42Z" style="fill: #cccccb"/>
	<g class="functionEnabled" style="display: none;">
		<path d="M13,2.48a2.76,2.76,0,0,1,.34,1.39A2.75,2.75,0,0,1,13,5.25" style="fill: none;stroke: #cccccb;stroke-linecap: round;stroke-miterlimit: 10;stroke-width: 0.25px"/>
		<path d="M13.36,6.07a4.19,4.19,0,0,0,.56-2.2,4.19,4.19,0,0,0-.56-2.2" style="fill: none;stroke: #cccccb;stroke-linecap: round;stroke-miterlimit: 10;stroke-width: 0.25px"/>
		<path d="M13.82,1.14a5.75,5.75,0,0,1,.63,2.72,5.75,5.75,0,0,1-.63,2.72" style="fill: none;stroke: #cccccb;stroke-linecap: round;stroke-miterlimit: 10;stroke-width: 0.25px"/>
	</g>
  </g>
</svg>
