<svg xmlns="http://www.w3.org/2000/svg" width="16" height="16" viewBox="-0.5 -3.5 18 16">
  <g>
    <rect x="1.22" width="14.47" height="1.63" rx="0.28" ry="0.28" style="fill: #cccccc"/>
	<g class="functionEnabled" style="display: none;">
		<path d="M.1,6.37a.56.56,0,0,0,.12.76C1.84,8.28,4.86,9.06,8.33,9.06s6.59-.8,8.2-2a.57.57,0,0,0,.13-.79L14.07,2.6a.57.57,0,0,0-.47-.24H3.05a.56.56,0,0,0-.46.25Z" style="fill: #907725"/>
		<path d="M8.33,6.65a5.53,5.53,0,0,0,5.5-3.94.29.29,0,0,0-.29-.35H3.11a.29.29,0,0,0-.29.35A5.53,5.53,0,0,0,8.33,6.65Z" style="fill: #fcd546"/>
	</g>
	<g class="functionDisabled">
		<path d="M8.33,6.65a5.53,5.53,0,0,0,5.5-3.94.29.29,0,0,0-.29-.35H3.11a.29.29,0,0,0-.29.35A5.53,5.53,0,0,0,8.33,6.65Z" style="fill: #cccccc"/>
	</g>
  </g>
</svg>
