<?xml version="1.0" encoding="utf-8"?>
<!-- Generator: Adobe Illustrator 21.0.2, SVG Export Plug-In . SVG Version: 6.00 Build 0)  -->
<svg version="1.1" id="Layer_1" xmlns="http://www.w3.org/2000/svg" xmlns:xlink="http://www.w3.org/1999/xlink" x="0px" y="0px"
	 viewBox="0 0 298 149" width="298" height="149" style="enable-background:new 0 0 298 149;" xml:space="preserve">
<g class="BSw0">
	<path class="L LSwO SwS0o" d="M111.2,72.7l-0.1-0.1C96.2,57.6,76,49.3,55,49.3h-0.2" style="fill:none;stroke:#D3D3D3;stroke-width:6px;opacity:1;"/>
	<line class="L LSwO SwS1o" x1="54.8" y1="49.3" x2="90.6" y2="49.3" style="fill:none;stroke:#D3D3D3;stroke-width:6px;opacity:0;"/>
</g>
<g class="BSw1">
	<path class="L LSwO SwS0o" d="M243.1,49.3h-0.2c-21,0-41.2,8.4-56.1,23.2l-0.1,0.1" style="fill:none;stroke:#D3D3D3;stroke-width:6px;opacity:1;"/>
	<line class="L LSwO SwS1o" x1="207.3" y1="49.3" x2="243.1" y2="49.3" style="fill:none;stroke:#D3D3D3;stroke-width:6px;opacity:0;"/>
</g>
<g class="B2">
	<g class="Sw0 SwGroup">
		<line class="L LSw SwS0 st2" x1="54.8" y1="49.3" x2="90.6" y2="49.3" style="fill:none;stroke:#555555;stroke-width:6px;opacity:1;"/>
		<path class="L LSw SwS1 st3" d="M111.2,72.7l-0.1-0.1C96.2,57.6,76,49.3,55,49.3h-0.2" style="fill:none;stroke:#555555;stroke-width:6px;opacity:0;"/>
	</g>
	<line class="L st2" x1="19.4" y1="49.3" x2="55.2" y2="49.3" style="fill:none;stroke:#555555;stroke-width:6px;"/>
	<line class="L st2" x1="90.2" y1="49.3" x2="149" y2="49.3" style="fill:none;stroke:#555555;stroke-width:6px;"/>
</g>
<g class="B4">
	<path class="L st2" d="M134.3,128.8v-0.2c0-21-8.4-41.2-23.2-56.1l-0.1-0.1" style="fill:none;stroke:#555555;stroke-width:6px;"/>
</g>
<g class="B5">
	<path class="L st2" d="M186.9,72.4l-0.1,0.1c-14.9,14.9-23.2,35-23.2,56.1v0.2" style="fill:none;stroke:#555555;stroke-width:6px;"/>
</g>
<g class="B3">
	<g class="Sw1 SwGroup">
		<line class="L LSw SwS0 st2" x1="207.3" y1="49.3" x2="243.1" y2="49.3" style="fill:none;stroke:#555555;stroke-width:6px;opacity:1;"/>
		<path class="L LSw SwS1 st3" d="M243.1,49.3h-0.2c-21,0-41.2,8.4-56.1,23.2l-0.1,0.1" style="fill:none;stroke:#555555;stroke-width:6px;opacity:0;"/>
	</g>
	<line class="L st2" x1="242.7" y1="49.3" x2="278.4" y2="49.3" style="fill:none;stroke:#555555;stroke-width:6px;"/>
	<line class="L st2" x1="149" y1="49.3" x2="207.7" y2="49.3" style="fill:none;stroke:#555555;stroke-width:6px;"/>
</g>
<g class="B0">
	<line class="L st2" x1="19.4" y1="20" x2="55.2" y2="20" style="fill:none;stroke:#555555;stroke-width:6px;"/>
	<line class="L st2" x1="54.8" y1="20" x2="90.6" y2="20" style="fill:none;stroke:#555555;stroke-width:6px;"/>
	<line class="L st2" x1="90.2" y1="20" x2="149" y2="20" style="fill:none;stroke:#555555;stroke-width:6px;"/>
</g>
<g class="B1">
	<line class="L st2" x1="242.7" y1="20" x2="278.4" y2="20" style="fill:none;stroke:#555555;stroke-width:6px;"/>
	<line class="L st2" x1="207.3" y1="20" x2="243.1" y2="20" style="fill:none;stroke:#555555;stroke-width:6px;"/>
	<line class="L st2" x1="149" y1="20" x2="207.7" y2="20" style="fill:none;stroke:#555555;stroke-width:6px;"/>
</g>
</svg>
