<svg xmlns="http://www.w3.org/2000/svg" viewBox="0 0 26 26">
  <rect class="ebox" x="0.5" y="0.5" width="25" height="25" rx="7.42" ry="7.42"/>
  <text class="text" transform="translate(9.22 23.71)">F20</text>
  <path class="img" d="M16.06,10.2H6.3C6,10.2,6.1,10,5.55,10s-1,0-1,.75.41.71,1,.71.48-.36.75-.36H8.69A2.14,2.14,0,0,0,7.55,
    13h0A2.14,2.14,0,0,0,9.69,15.1h4A2.14,2.14,0,0,0,15.77,13h0a2.13,2.13,0,0,0-.73-1.6h1c2.49,0,5.41,3.56,5.41,3.56V6.38S18.53,
    10.2,16.06,10.2ZM14.89,13a1.45,1.45,0,0,1-1.45,1.45H9.89A1.45,1.45,0,0,1,8.44,13h0a1.45,1.45,0,0,1,1.45-1.45h3.55A1.45,1.45,0,0,1,14.89,13Z"/>
</svg>
