<?xml version="1.0" encoding="utf-8"?>
<!-- Generator: Adobe Illustrator 21.0.2, SVG Export Plug-In . SVG Version: 6.00 Build 0)  -->
<svg version="1.1" id="Layer_1" xmlns="http://www.w3.org/2000/svg" xmlns:xlink="http://www.w3.org/1999/xlink" x="0px" y="0px"
	 viewBox="0 0 34 34" style="enable-background:new 0 0 34 34;" xml:space="preserve">
<style type="text/css">
	.st0{fill:#EBBA16;stroke:#D6A416;stroke-miterlimit:10;}
	.st1{fill:#CECECE;stroke:#AFAFAF;stroke-miterlimit:10;}
	.st2{fill:#FFFFFF;}
	.st3{fill:none;stroke:#AFAFAF;stroke-linecap:round;stroke-miterlimit:500;stroke-dasharray:0.9911,2.9732,0,0,0,0;}
	.st4{fill:#AFAFAF;}
	.st5{font-family:'MyriadPro-Regular';}
	.st6{font-size:5px;}
	.st7{fill:#FFFFFF;stroke:#FFFFFF;stroke-width:0.75;stroke-miterlimit:10;}
	.st8{fill:#AFAFAF;stroke:#AFAFAF;stroke-width:0.75;stroke-miterlimit:10;}
	.st9{clip-path:url(#SVGID_7_);fill:#FFFFFF;}
	.st10{clip-path:url(#SVGID_8_);fill:#FFFFFF;}
	.st11{clip-path:url(#SVGID_9_);fill:#AFAFAF;}
	.st12{clip-path:url(#SVGID_10_);fill:#FFFFFF;}
	.st13{clip-path:url(#SVGID_11_);fill:#FFFFFF;}
	.st14{clip-path:url(#SVGID_12_);fill:#AFAFAF;}
</style>
<g id="Layer_2">
	<g>
		<path class="st2" d="M22.5508,29.8162H12.3842c-4.0961,0-7.4167-3.3206-7.4167-7.4167V12.2328
			c0-4.0961,3.3206-7.4167,7.4167-7.4167h10.1667c4.0961,0,7.4167,3.3206,7.4167,7.4167v10.1667
			C29.9675,26.4956,26.647,29.8162,22.5508,29.8162z"/>
		<path class="st3" d="M22.5508,29.8162H12.3842c-4.0961,0-7.4167-3.3206-7.4167-7.4167V12.2328
			c0-4.0961,3.3206-7.4167,7.4167-7.4167h10.1667c4.0961,0,7.4167,3.3206,7.4167,7.4167v10.1667
			C29.9675,26.4956,26.647,29.8162,22.5508,29.8162z"/>
	</g>
	<text transform="matrix(1 0 0 1 13.6852 28.0222)" class="st4 st5 st6">F20</text>
	<path class="st8" d="M20.5254,14.5196c-1.7781,0-9.4823,0-9.7559,0c-0.2736,0-0.1976-0.2136-0.7501-0.2184
		c-0.5525-0.0049-1.0208,0.0404-1.0208,0.7513c0,0.7109,0.4139,0.7111,1.0206,0.7142c0.6067,0.0031,0.4758-0.3617,0.7503-0.3617
		c0.1784,0,1.4889,0,2.3849,0c-0.6727,0.3601-1.1334,1.0697-1.1334,1.8822v0c0,1.1735,0.9601,2.1336,2.1336,2.1336h3.9528
		c1.1735,0,2.1336-0.9601,2.1336-2.1336v0c0-0.6388-0.2859-1.2129-0.7344-1.6048c0.186,0,0.4958,0,1.0187-0.0002
		c2.4922-0.0007,5.4108,3.5595,5.4108,3.5595v-8.5425C25.9363,10.6992,22.9958,14.5196,20.5254,14.5196z M19.3558,17.2872
		c0,0.7966-0.6518,1.4483-1.4484,1.4483h-3.5525c-0.7966,0-1.4484-0.6518-1.4484-1.4483v0c0-0.7966,0.6518-1.4483,1.4484-1.4483
		h3.5525C18.7041,15.8389,19.3558,16.4906,19.3558,17.2872L19.3558,17.2872z"/>
</g>
</svg>
