<svg version="1.1" id="Layer_1" xmlns="http://www.w3.org/2000/svg" xmlns:xlink="http://www.w3.org/1999/xlink" x="0px" y="0px"
	 viewBox="0 0 34 34" style="enable-background:new 0 0 34 34;" xml:space="preserve">
	<path class="line" d="M22.5508,29.8162H12.3842c-4.0961,0-7.4167-3.3206-7.4167-7.4167V12.2328
		c0-4.0961,3.3206-7.4167,7.4167-7.4167h10.1667c4.0961,0,7.4167,3.3206,7.4167,7.4167v10.1667
		C29.9675,26.4956,26.647,29.8162,22.5508,29.8162z"/>
	<text x="17" y="28.0222" text-anchor="middle" class="text">F20</text>
	<path class="uimg" d="M20.181,11.6178l-0.5635-0.3514l1.4086-2.2573l0.5635,0.3512
		L20.181,11.6178z M18.2819,8.3169h-0.6644v2.6608h0.6644V8.3169z M16.261,11.2664l-1.4088-2.2573l-0.5633,0.3546l1.4086,2.2575
		L16.261,11.2664z M25.6001,14.3029l-5.3879,1.1304c0.0661,0.2678,0.0661,0.5983,0.0661,0.8662c0,2.1946-1.7949,3.993-3.993,3.993
		c-1.8609,0-3.3913-1.2627-3.8573-2.9253c-0.1984,0.1321-0.4662,0.2643-0.8001,0.2643c-0.7303,0-1.3287-0.5982-1.3287-1.3286
		c0-0.7305,0.5983-1.3287,1.3287-1.3287c0.3339,0,0.5983,0.1321,0.8001,0.2643c0.466-1.6625,1.9964-2.9251,3.8573-2.9251h0.6644
		v1.3286h1.9964v-1.3286h6.6505v1.9895H25.6001z M12.2958,16.2995c0-0.4002-0.2678-0.6644-0.6644-0.6644
		c-0.3966,0-0.6644,0.2643-0.6644,0.6644c0,0.4,0.2679,0.6642,0.6644,0.6642C12.028,16.9638,12.2958,16.6995,12.2958,16.2995
		L12.2958,16.2995z M12.2958,16.2995"/>
</svg>
