<svg version="1.1" id="Layer_1" xmlns="http://www.w3.org/2000/svg" xmlns:xlink="http://www.w3.org/1999/xlink" x="0px" y="0px"
	 viewBox="0 0 34 34" style="enable-background:new 0 0 34 34;" xml:space="preserve">
	<path class="ebox" d="M21.5854,29.8155H11.42c-4.0961,0-7.4167-3.3206-7.4167-7.4167V12.2335c0-4.0961,3.3206-7.4167,7.4167-7.4167
		h10.1654c4.0961,0,7.4167,3.3206,7.4167,7.4167v10.1654C29.0021,26.495,25.6815,29.8155,21.5854,29.8155z"/>
	<text x="17" y="28.0222" text-anchor="middle" class="text">F20</text>
	<path class="img" d="M19.5606,14.5196c-1.7781,0-9.4823,0-9.7559,0c-0.2736,0-0.1976-0.2136-0.7501-0.2184
		c-0.5525-0.0049-1.0208,0.0404-1.0208,0.7513c0,0.7109,0.4139,0.7111,1.0206,0.7142c0.6067,0.0031,0.4758-0.3617,0.7503-0.3617
		c0.1784,0,1.4889,0,2.3849,0c-0.6727,0.3601-1.1334,1.0697-1.1334,1.8822v0c0,1.1735,0.9601,2.1336,2.1336,2.1336h3.9528
		c1.1735,0,2.1336-0.9601,2.1336-2.1336v0c0-0.6388-0.2859-1.2129-0.7344-1.6048c0.186,0,0.4958,0,1.0187-0.0002
		c2.4922-0.0007,5.4108,3.5595,5.4108,3.5595v-8.5425C24.9714,10.6992,22.031,14.5196,19.5606,14.5196z M18.391,17.2872
		c0,0.7966-0.6518,1.4483-1.4484,1.4483h-3.5525c-0.7966,0-1.4484-0.6518-1.4484-1.4483v0c0-0.7966,0.6518-1.4483,1.4484-1.4483
		h3.5525C17.7393,15.8389,18.391,16.4906,18.391,17.2872L18.391,17.2872z"/>
</svg>
