<svg version="1.1" id="Layer_1" xmlns="http://www.w3.org/2000/svg" xmlns:xlink="http://www.w3.org/1999/xlink" x="0px" y="0px"
	 viewBox="0 0 34 34" style="enable-background:new 0 0 34 34;" xml:space="preserve">
	<path class="line" d="M21.8616,29.8162H11.6949c-4.0961,0-7.4167-3.3206-7.4167-7.4167V12.2328
		c0-4.0961,3.3205-7.4167,7.4167-7.4167h10.1667c4.0961,0,7.4167,3.3206,7.4167,7.4167v10.1667
		C29.2783,26.4956,25.9577,29.8162,21.8616,29.8162z"/>
	<path class="uimg" d="M12.2619,18.2776c-0.0658,0.1152-0.1644,0.2056-0.2961,0.2713l-1.2586,0.5677
		c-0.1317,0.0657-0.2674,0.0781-0.4072,0.037c-0.14-0.0411-0.2345-0.1193-0.2837-0.2345c-0.0494-0.115-0.0453-0.2343,0.0122-0.3578
		c0.0577-0.1234,0.1522-0.218,0.2839-0.2837l1.2834-0.5677c0.1315-0.0657,0.263-0.0781,0.3948-0.037
		c0.1315,0.0411,0.2221,0.1193,0.2713,0.2345C12.3278,18.039,12.3278,18.1624,12.2619,18.2776z"/>
	<path class="img" d="M17.2224,22.4976c0,0.148-0.0453,0.2757-0.1357,0.3826c-0.0904,0.1069-0.2016,0.1604-0.3331,0.1604
		c-0.1317,0-0.2386-0.0535-0.3209-0.1604c-0.0821-0.1069-0.1233-0.2345-0.1233-0.3826v-1.3818
		c0-0.1481,0.0412-0.2757,0.1233-0.3826c0.0823-0.1069,0.1892-0.1605,0.3209-0.1605c0.1315,0,0.2426,0.0536,0.3331,0.1605
		c0.0904,0.1069,0.1357,0.2345,0.1357,0.3826V22.4976z"/>
	<path class="img" d="M23.5403,18.9191c-0.0494,0.1152-0.144,0.1934-0.2839,0.2345c-0.1398,0.0411-0.2755,0.0287-0.4072-0.037
		l-1.2586-0.5677c-0.1316-0.0658-0.2304-0.1562-0.2961-0.2713c-0.0658-0.1152-0.0658-0.2386,0-0.3702
		c0.0494-0.1152,0.1398-0.1934,0.2715-0.2345c0.1315-0.0411,0.2632-0.0287,0.3948,0.037l1.2834,0.5677
		c0.1315,0.0658,0.2262,0.1603,0.2837,0.2837C23.5854,18.6848,23.5895,18.8041,23.5403,18.9191z"/>
	<path class="img" d="M21.2328,14.6992c0.0904-0.0988,0.2097-0.1646,0.3578-0.1975l1.382-0.2221
		c0.148-0.0165,0.2757,0.0122,0.3826,0.0862c0.1069,0.0742,0.1768,0.177,0.2097,0.3085c0.0329,0.1315,0,0.2467-0.0986,0.3455
		c-0.0988,0.0986-0.214,0.1564-0.3456,0.1727l-1.382,0.2221c-0.148,0.0329-0.2796,0.0124-0.3948-0.0616
		c-0.1152-0.074-0.1892-0.1768-0.2221-0.3085C21.1052,14.913,21.1422,14.7978,21.2328,14.6992z"/>
	<path class="img" d="M21.06,21.7326c-0.0247,0.1315-0.0862,0.2386-0.1851,0.3207c-0.1152,0.066-0.2385,0.0823-0.3702,0.0494
		c-0.1315-0.0329-0.2385-0.1152-0.3207-0.2467l-0.7404-1.1847c-0.0823-0.1315-0.1152-0.2591-0.0988-0.3824
		c0.0165-0.1234,0.074-0.2262,0.1729-0.3085c0.1152-0.0823,0.2384-0.1028,0.3702-0.0616c0.1315,0.0411,0.2384,0.1274,0.3207,0.2591
		l0.7652,1.16C21.0558,21.4693,21.0848,21.6011,21.06,21.7326z"/>
	<path class="img" d="M14.9027,9.4426c0-0.1646,0.0821-0.2469,0.2467-0.2469h3.2575c0.1646,0,0.2469,0.0823,0.2469,0.2469v0.5677
		c0,0.1644-0.0823,0.2467-0.2469,0.2467h-3.2575c-0.1646,0-0.2467-0.0823-0.2467-0.2467V9.4426z"/>
	<path class="img" d="M13.0885,16.5995c0.0083-0.0165,0.0124-0.0329,0.0124-0.0494v-0.0494c0-0.1152,0.0083-0.2262,0.0246-0.3331
		c0.0165-0.1069,0.0331-0.218,0.0496-0.3332c0.0821-0.4276,0.2302-0.8638,0.4442-1.308c0.2138-0.4442,0.4523-0.9213,0.7156-1.4312
		c0.1646-0.3456,0.2796-0.6541,0.3455-0.9255c0.0658-0.2715,0.1152-0.5058,0.1481-0.7033c0.0329-0.1975,0.074-0.3538,0.1234-0.4688
		c0.0492-0.1152,0.1315-0.1811,0.2467-0.1975h3.1589c0.1318,0.0164,0.2182,0.0823,0.2591,0.1975
		c0.0411,0.115,0.0823,0.2713,0.1234,0.4688c0.0412,0.1973,0.0947,0.4318,0.1605,0.7033c0.0657,0.2713,0.181,0.5799,0.3455,0.9255
		c0.2467,0.51,0.4771,0.9871,0.6909,1.4312c0.2138,0.4442,0.3619,0.8803,0.4442,1.308c0.0165,0.1152,0.0329,0.2263,0.0494,0.3332
		c0.0163,0.1069,0.0246,0.218,0.0246,0.3331c0.0166,0.0165,0.0246,0.0331,0.0246,0.0494v0.0986
		c0,1.053-0.3495,1.8552-1.0487,2.4063c-0.6994,0.5511-1.5754,0.8268-2.6284,0.8268h-0.0246c-0.5265,0-1.016-0.0699-1.4685-0.2099
		c-0.4522-0.1398-0.8431-0.3453-1.1721-0.6169c-0.329-0.2715-0.5883-0.6088-0.7773-1.0119
		c-0.1892-0.403-0.2837-0.8679-0.2837-1.3944C13.0765,16.6324,13.0804,16.6158,13.0885,16.5995z"/>
	<path class="img" d="M12.5828,21.3378l0.765-1.16c0.0823-0.1317,0.1892-0.218,0.3207-0.2591
		c0.1317-0.0412,0.2552-0.0207,0.3703,0.0616c0.0986,0.0823,0.1564,0.1851,0.1727,0.3085
		c0.0163,0.1233-0.0163,0.2509-0.0986,0.3824l-0.7403,1.1847c-0.0823,0.1316-0.1892,0.2139-0.3209,0.2467
		c-0.1316,0.0329-0.255,0.0165-0.3702-0.0494C12.4511,21.8724,12.4182,21.634,12.5828,21.3378z"/>
	<path class="img" d="M10.4356,15.1928l1.382,0.2221c0.1481,0.0329,0.2798,0.0122,0.395-0.0618
		c0.115-0.074,0.189-0.1768,0.2221-0.3085c0.0163-0.1316-0.0207-0.2465-0.111-0.3454c-0.0906-0.0986-0.2099-0.1644-0.3579-0.1975
		l-1.382-0.2221c-0.1481-0.0165-0.2755,0.0124-0.3824,0.0864c-0.1069,0.074-0.177,0.1768-0.2097,0.3083
		c-0.0329,0.1317,0,0.2469,0.0987,0.3455C10.189,15.1186,10.3041,15.1763,10.4356,15.1928z"/>
	<path class="img" d="M15.4781,8.6774h2.6002c0.1314,0,0.1971-0.0904,0.1971-0.2713V7.8384c0-0.1644-0.0657-0.2467-0.1971-0.2467
		h-2.6002c-0.1314,0-0.197,0.0823-0.197,0.2467v0.5676C15.2811,8.587,15.3467,8.6774,15.4781,8.6774z"/>
	<text x="17" y="28.0222" text-anchor="middle" class="utext">F20</text>
</svg>
