<svg version="1.1" id="Layer_1" xmlns="http://www.w3.org/2000/svg" xmlns:xlink="http://www.w3.org/1999/xlink" x="0px" y="0px"
	 viewBox="0 0 34 34" style="enable-background:new 0 0 34 34;" xml:space="preserve">
	<path class="ebox" d="M21.2884,29.8155H11.123c-4.0961,0-7.4167-3.3206-7.4167-7.4167V12.2335c0-4.0961,3.3206-7.4167,7.4167-7.4167
		h10.1654c4.0961,0,7.4167,3.3206,7.4167,7.4167v10.1654C28.7051,26.495,25.3845,29.8155,21.2884,29.8155z"/>
	<text x="17" y="28.0222" text-anchor="middle" class="text">F20</text>
	<path class="img" d="M18.8617,10.7506c0.0967-0.26,0.388-0.396,0.6487-0.2993l4.3647,1.612
		c0.2627,0.096,0.396,0.3853,0.2993,0.6487c-0.0753,0.2027-0.268,0.3307-0.474,0.3307c-0.0574,0-0.1173-0.0107-0.1747-0.034
		l-4.364-1.6093C18.8984,11.3026,18.7657,11.0112,18.8617,10.7506L18.8617,10.7506z M14.0597,9.5499
		c-3.3827,0.6953-5.854,2.87-5.854,5.448c0,2.578,2.4713,4.7527,5.854,5.448V9.5499z M23.875,16.1359l-4.3647-1.612
		c-0.2607-0.096-0.552,0.0367-0.6487,0.3c-0.096,0.2627,0.0367,0.552,0.3,0.648l4.364,1.612
		c0.0573,0.0207,0.1173,0.0314,0.1747,0.0314c0.206,0,0.3987-0.1273,0.474-0.3307C24.271,16.5212,24.1357,16.2299,23.875,16.1359
		L23.875,16.1359z M16.3804,10.7612V9.3159c-0.6253,0-1.232,0.052-1.8153,0.146v11.0753c0.586,0.0913,1.19,0.1433,1.8153,0.1433
		v-1.4453c0.8433-0.1353,1.51-1.9767,1.51-4.2373C17.8904,12.7379,17.2237,10.8966,16.3804,10.7612L16.3804,10.7612z
		 M23.875,20.2066l-4.3647-1.6093c-0.2607-0.0967-0.552,0.036-0.6487,0.2993c-0.096,0.2627,0.0367,0.552,0.3,0.6487l4.364,1.612
		c0.0573,0.0207,0.1173,0.0307,0.1747,0.0307c0.206,0,0.3987-0.1273,0.474-0.3307C24.271,20.5946,24.1357,20.3052,23.875,20.2066
		L23.875,20.2066z M23.875,20.2066"/>
</svg>
