<svg xmlns="http://www.w3.org/2000/svg" xmlns:xlink="http://www.w3.org/1999/xlink" viewBox="0 0 521.71 262.6"><defs><clipPath id="a" transform="translate(-37.76 -8.63)"><rect x="309.06" y="115.72" width="28.35" height="28.43" transform="translate(2.8 266.61) rotate(-45)" style="fill:none"/></clipPath></defs><title>device_interconnect</title><polygon points="520.71 74.47 432.72 74.47 432.72 91.92 427.05 97.53 421.38 91.92 421.38 74.47 291.14 74.47 291.14 91.61 285.44 97.53 279.77 91.61 279.77 63.13 520.71 63.13 520.71 74.47" style="fill:#dc2126;stroke:#b03b3b;stroke-linecap:round;stroke-linejoin:round;stroke-width:2px"/><line x1="74.98" y1="160.34" x2="58.48" y2="176.84" style="fill:none;stroke:#a11d21;stroke-linecap:round;stroke-miterlimit:10;stroke-width:2px"/><line x1="74.98" y1="110.86" x2="49.79" y2="85.67" style="fill:none;stroke:#faa41a;stroke-linecap:round;stroke-miterlimit:10;stroke-width:2px"/><line x1="74.98" y1="135.6" x2="25.04" y2="85.67" style="fill:none;stroke:#90c73e;stroke-linecap:round;stroke-miterlimit:10;stroke-width:2px"/><rect x="297.93" y="193.57" width="13.72" height="56.69" style="fill:#a0622b"/><rect x="277.56" y="193.57" width="13.72" height="56.69" style="fill:#a0622b"/><rect x="257.18" y="193.57" width="13.72" height="56.69" style="fill:#a0622b"/><rect x="297.93" y="198.66" width="13.72" height="5.09" style="fill:#8d5022"/><rect x="277.56" y="198.66" width="13.72" height="5.09" style="fill:#8d5022"/><rect x="257.18" y="198.66" width="13.72" height="5.09" style="fill:#8d5022"/><rect x="297.93" y="234.86" width="13.72" height="5.09" style="fill:#8d5022"/><rect x="277.56" y="234.86" width="13.72" height="5.09" style="fill:#8d5022"/><rect x="257.18" y="234.86" width="13.72" height="5.09" style="fill:#8d5022"/><rect x="338.69" y="193.57" width="13.72" height="56.69" style="fill:#a0622b"/><rect x="318.31" y="193.57" width="13.72" height="56.69" style="fill:#a0622b"/><rect x="338.69" y="198.66" width="13.72" height="5.09" style="fill:#8d5022"/><rect x="318.31" y="198.66" width="13.72" height="5.09" style="fill:#8d5022"/><rect x="338.69" y="234.86" width="13.72" height="5.09" style="fill:#8d5022"/><rect x="318.31" y="234.86" width="13.72" height="5.09" style="fill:#8d5022"/><rect x="379.44" y="193.57" width="13.72" height="56.69" style="fill:#a0622b"/><rect x="359.06" y="193.57" width="13.72" height="56.69" style="fill:#a0622b"/><rect x="379.44" y="198.66" width="13.72" height="5.09" style="fill:#8d5022"/><rect x="359.06" y="198.66" width="13.72" height="5.09" style="fill:#8d5022"/><rect x="379.44" y="234.86" width="13.72" height="5.09" style="fill:#8d5022"/><rect x="359.06" y="234.86" width="13.72" height="5.09" style="fill:#8d5022"/><rect x="420.19" y="193.57" width="13.72" height="56.69" style="fill:#a0622b"/><rect x="399.82" y="193.57" width="13.72" height="56.69" style="fill:#a0622b"/><rect x="420.19" y="198.66" width="13.72" height="5.09" style="fill:#8d5022"/><rect x="399.82" y="198.66" width="13.72" height="5.09" style="fill:#8d5022"/><rect x="420.19" y="234.86" width="13.72" height="5.09" style="fill:#8d5022"/><rect x="399.82" y="234.86" width="13.72" height="5.09" style="fill:#8d5022"/><rect x="460.95" y="193.57" width="13.72" height="56.69" style="fill:#a0622b"/><rect x="440.57" y="193.57" width="13.72" height="56.69" style="fill:#a0622b"/><rect x="460.95" y="198.66" width="13.72" height="5.09" style="fill:#8d5022"/><rect x="440.57" y="198.66" width="13.72" height="5.09" style="fill:#8d5022"/><rect x="460.95" y="234.86" width="13.72" height="5.09" style="fill:#8d5022"/><rect x="440.57" y="234.86" width="13.72" height="5.09" style="fill:#8d5022"/><rect x="501.7" y="193.57" width="13.72" height="56.69" style="fill:#a0622b"/><rect x="481.32" y="193.57" width="13.72" height="56.69" style="fill:#a0622b"/><rect x="501.7" y="198.66" width="13.72" height="5.09" style="fill:#8d5022"/><rect x="481.32" y="198.66" width="13.72" height="5.09" style="fill:#8d5022"/><rect x="501.7" y="234.86" width="13.72" height="5.09" style="fill:#8d5022"/><rect x="481.32" y="234.86" width="13.72" height="5.09" style="fill:#8d5022"/><rect x="251.46" y="201.23" width="269.69" height="5.04" style="fill:#82939a"/><rect x="251.46" y="237.55" width="269.69" height="5.04" style="fill:#82939a"/><rect x="251.46" y="203.76" width="269.69" height="2.52" style="fill:#687b80"/><rect x="251.46" y="240.07" width="269.69" height="2.52" style="fill:#687b80"/><rect x="1" y="91.61" width="68.03" height="79.37" style="fill:#f7f7f7;stroke:#e2e2e2;stroke-linecap:round;stroke-linejoin:round;stroke-width:2px;opacity:0.9500000000000001"/><path d="M101.12,144.65V157.5H44.43V144.65a2.27,2.27,0,0,1,2.27-2.27H98.85A2.27,2.27,0,0,1,101.12,144.65Z" transform="translate(-37.76 -8.63)" style="fill:#e1e5e8"/><path d="M94.43,149.05v8.45H51.11v-8.45a1.51,1.51,0,0,1,1.51-1.51h40.3A1.51,1.51,0,0,1,94.43,149.05Z" transform="translate(-37.76 -8.63)" style="fill:#657989"/><circle cx="19.84" cy="143.89" r="2.65" style="fill:#fad364"/><circle cx="26.64" cy="143.89" r="1.89" style="fill:#4fbf9f"/><circle cx="32.69" cy="143.89" r="1.89" style="fill:#2aa1db"/><circle cx="19.84" cy="143.89" r="1.13" style="fill:#e66455"/><path d="M52.71,123.06l-1.51,19.33h4.54l-1.51-19.33A.76.76,0,0,0,52.71,123.06Z" transform="translate(-37.76 -8.63)" style="fill:#657989"/><path d="M91.33,123.06l-1.51,19.33h4.54l-1.51-19.33A.76.76,0,0,0,91.33,123.06Z" transform="translate(-37.76 -8.63)" style="fill:#657989"/><path d="M84.9,127.56a17.78,17.78,0,0,0-25.12,0,1.13,1.13,0,1,0,1.6,1.6,15.52,15.52,0,0,1,21.92,0,1.13,1.13,0,1,0,1.6-1.6Z" transform="translate(-37.76 -8.63)" style="fill:#324959"/><path d="M72.33,128.41a11.64,11.64,0,0,0-8.28,3.43,1.13,1.13,0,0,0,1.6,1.6,9.46,9.46,0,0,1,13.36,0,1.13,1.13,0,0,0,1.6-1.6A11.64,11.64,0,0,0,72.33,128.41Z" transform="translate(-37.76 -8.63)" style="fill:#324959"/><path d="M68.33,136.11a1.13,1.13,0,0,0,1.6,1.6,3.41,3.41,0,0,1,4.81,0,1.13,1.13,0,0,0,1.6-1.6A5.68,5.68,0,0,0,68.33,136.11Z" transform="translate(-37.76 -8.63)" style="fill:#324959"/><text transform="translate(20.35 168.69)" style="font-size:9px;fill:#7f7f7f;font-family:MyriadPro-Regular, Myriad Pro"><tspan style="letter-spacing:0.006022135416666667em">M</tspan><tspan x="7.29" y="0">odem</tspan></text><rect x="131.14" y="91.61" width="68.03" height="79.37" style="fill:#f7f7f7;stroke:#e2e2e2;stroke-linecap:round;stroke-linejoin:round;stroke-width:2px"/><rect x="162.72" y="114.64" width="4.82" height="3.4" style="fill:#78973c"/><path d="M189.94,118.87a19.64,19.64,0,0,0,2.48,9.27s5.29,4.74,7.36,2.28a10.15,10.15,0,0,0,2.37-4.14,4.94,4.94,0,0,0-.51-2.23,10.21,10.21,0,0,0-2-2.71,9.45,9.45,0,0,0-3.46-1.74A26.52,26.52,0,0,0,189.94,118.87Z" transform="translate(-37.76 -8.63)" style="fill:#5f7232"/><path d="M181.64,130.49c5.19-4.25,7.59-4.89,9.4-4.89a6.62,6.62,0,0,1,5.22,2.14c1.69,1.77,1.2,1.28,1.2,1.28l.79,1.88-3.87,2.1s-6.88.68-8.12.64S181.64,130.49,181.64,130.49Z" transform="translate(-37.76 -8.63)" style="fill:#77963c"/><circle cx="154.86" cy="128.06" r="6.74" style="fill:#e21e27"/><circle cx="152.49" cy="134.8" r="6.74" style="fill:#a51d2e"/><path d="M215.88,118.87a19.63,19.63,0,0,1-2.48,9.27s-5.29,4.74-7.36,2.28a10.14,10.14,0,0,1-2.37-4.14,4.94,4.94,0,0,1,.51-2.23,10.2,10.2,0,0,1,2-2.71,9.44,9.44,0,0,1,3.45-1.74A26.51,26.51,0,0,1,215.88,118.87Z" transform="translate(-37.76 -8.63)" style="fill:#5f7232"/><path d="M224.19,130.49c-5.19-4.25-7.59-4.88-9.39-4.88a6.62,6.62,0,0,0-5.22,2.14c-1.69,1.77-1.2,1.28-1.2,1.28l-.79,1.88,3.87,2.1s6.88.68,8.12.64S224.19,130.49,224.19,130.49Z" transform="translate(-37.76 -8.63)" style="fill:#77963c"/><circle cx="165.13" cy="152.91" r="6.74" style="fill:#e11f2a"/><circle cx="175.49" cy="128.06" r="6.74" style="fill:#df1f29"/><circle cx="154.86" cy="143.61" r="6.74" style="fill:#cd202d"/><circle cx="165.13" cy="124.61" r="6.74" style="fill:#a51d2e"/><circle cx="177.86" cy="134.8" r="6.74" style="fill:#a51d2e"/><circle cx="175.52" cy="143.61" r="6.74" style="fill:#a51d2e"/><circle cx="170.9" cy="148.27" r="6.74" style="fill:#cf202d"/><path d="M202.23,123.27h1.54a10.34,10.34,0,0,1-.47-3.33c0-2.07.23-3.48,2.07-5a5.64,5.64,0,0,1,3.8-1.4l-.79-1.93a14.15,14.15,0,0,0-3,.94,7.18,7.18,0,0,0-2.84,3,9.17,9.17,0,0,0-.71,3.95A28.31,28.31,0,0,0,202.23,123.27Z" transform="translate(-37.76 -8.63)" style="fill:#637633"/><circle cx="160.27" cy="148.27" r="6.74" style="fill:#ee2c51"/><circle cx="160.27" cy="131.35" r="6.74" style="fill:#cd202d"/><circle cx="161.6" cy="141.53" r="6.74" style="fill:#ed1b33"/><circle cx="169.69" cy="136.56" r="6.74" style="fill:#ee2c51"/><text transform="translate(141.83 167.69)" style="font-size:9px;fill:#7f7f7f;font-family:MyriadPro-Regular, Myriad Pro"><tspan style="letter-spacing:0.011990017361111112em">R</tspan><tspan x="4.95" y="0" style="letter-spacing:0.00005425347222222222em">aspbe</tspan><tspan x="27.6" y="0" style="letter-spacing:0.004014756944444444em">r</tspan><tspan x="30.58" y="0" style="letter-spacing:0.025010850694444444em">r</tspan><tspan x="33.75" y="0">y </tspan><tspan x="39.9" y="0" style="letter-spacing:-0.016004774305555556em">P</tspan><tspan x="44.54" y="0">i</tspan></text><rect x="131.14" y="1" width="68.03" height="79.37" style="fill:#f7f7f7;stroke:#e2e2e2;stroke-linecap:round;stroke-linejoin:round;stroke-width:2px"/><path d="M218.24,53.51H174.56V24.79a1.51,1.51,0,0,1,1.51-1.51h40.65a1.51,1.51,0,0,1,1.51,1.51Z" transform="translate(-37.76 -8.63)" style="fill:#28a2db"/><path d="M216.73,60H176.08a1.51,1.51,0,0,1-1.51-1.51V53.51h43.68v4.93A1.51,1.51,0,0,1,216.73,60Z" transform="translate(-37.76 -8.63)" style="fill:#e1e6e9"/><rect x="138.49" y="16.32" width="40.32" height="26.88" style="fill:#ecf0f3"/><circle cx="158.64" cy="48.1" r="2.52" style="fill:#647a8a"/><path d="M179.6,37.21a.63.63,0,0,1-.42-1.1l4.21-3.75a.63.63,0,0,1,.84.94L180,37.05A.63.63,0,0,1,179.6,37.21Z" transform="translate(-37.76 -8.63)" style="fill:#d5d6dc"/><path d="M186.8,30.81a.63.63,0,0,1-.42-1.1l2.1-1.87a.63.63,0,1,1,.84.94l-2.1,1.87A.63.63,0,0,1,186.8,30.81Z" transform="translate(-37.76 -8.63)" style="fill:#d5d6dc"/><path d="M180,42.08a.63.63,0,0,1-.42-1.1l4.22-3.76a.63.63,0,0,1,.84.94l-4.22,3.76A.63.63,0,0,1,180,42.08Z" transform="translate(-37.76 -8.63)" style="fill:#d5d6dc"/><path d="M187.23,35.65a.63.63,0,0,1-.42-1.1l6.79-6a.63.63,0,1,1,.84.94l-6.79,6A.63.63,0,0,1,187.23,35.65Z" transform="translate(-37.76 -8.63)" style="fill:#d5d6dc"/><path d="M185.22,42.21a.63.63,0,0,1-.42-1.1L189,37.36a.63.63,0,0,1,.84.94L185.63,42A.63.63,0,0,1,185.22,42.21Z" transform="translate(-37.76 -8.63)" style="fill:#d5d6dc"/><path d="M191.55,36.57a.63.63,0,0,1-.42-1.1l2.3-2.05a.63.63,0,0,1,.84.94L192,36.41A.63.63,0,0,1,191.55,36.57Z" transform="translate(-37.76 -8.63)" style="fill:#d5d6dc"/><path d="M207.22,67H185.59a.94.94,0,0,1-.94-.94v-.21a.94.94,0,0,1,.94-.94h21.63a.94.94,0,0,1,.94.94V66A.94.94,0,0,1,207.22,67Z" transform="translate(-37.76 -8.63)" style="fill:#e1e6e9"/><polygon points="168.78 56.25 148.5 56.25 150.75 51.32 166.54 51.32 168.78 56.25" style="fill:#d5d6dc"/><path d="M229.75,75.36H214.29a1.51,1.51,0,0,1-1.51-1.51V49.16a1.51,1.51,0,0,1,1.51-1.51h15.45a1.51,1.51,0,0,1,1.51,1.51V73.85A1.51,1.51,0,0,1,229.75,75.36Z" transform="translate(-37.76 -8.63)" style="fill:#4fbf9f"/><rect x="176.7" y="41.92" width="15.12" height="20.27" style="fill:#ecf0f3"/><circle cx="184.26" cy="64.47" r="1.68" style="fill:#3da69b"/><path d="M224.58,49.52h-5.12a.38.38,0,0,1-.38-.38v-.08a.38.38,0,0,1,.38-.38h5.12a.38.38,0,0,1,.38.38v.08A.38.38,0,0,1,224.58,49.52Z" transform="translate(-37.76 -8.63)" style="fill:#3da69b"/><text transform="translate(144.78 77.44)" style="font-size:9px;fill:#7f7f7f;font-family:MyriadPro-Regular, Myriad Pro"><tspan style="letter-spacing:-0.03298611111111111em">W</tspan><tspan x="7.32" y="0" style="letter-spacing:0.00005425347222222222em">eb Clie</tspan><tspan x="32.81" y="0" style="letter-spacing:-0.004014756944444444em">n</tspan><tspan x="37.77" y="0">t</tspan></text><rect x="131.14" y="182.23" width="68.03" height="79.37" style="fill:#f7f7f7;stroke:#e2e2e2;stroke-linecap:round;stroke-linejoin:round;stroke-width:2px"/><path d="M231.26,225.26v12.85H174.56V225.26a2.27,2.27,0,0,1,2.27-2.27H229A2.27,2.27,0,0,1,231.26,225.26Z" transform="translate(-37.76 -8.63)" style="fill:#6e7072"/><path d="M224.57,229.66v8.45H181.25v-8.45a1.51,1.51,0,0,1,1.51-1.51h40.3A1.51,1.51,0,0,1,224.57,229.66Z" transform="translate(-37.76 -8.63)" style="fill:#657989"/><circle cx="149.97" cy="224.49" r="2.65" style="fill:#fad364"/><circle cx="156.78" cy="224.49" r="1.89" style="fill:#4fbf9f"/><circle cx="162.82" cy="224.49" r="1.89" style="fill:#2aa1db"/><circle cx="149.97" cy="224.49" r="1.13" style="fill:#e66455"/><text transform="translate(158.05 258.94)" style="font-size:9px;fill:#7f7f7f;font-family:MyriadPro-Regular, Myriad Pro">Z21</text><line x1="118.03" y1="110.86" x2="74.98" y2="110.86" style="fill:none;stroke:#faa41a;stroke-linecap:round;stroke-miterlimit:10;stroke-width:2px"/><polygon points="114.66 106.41 116.55 110.86 114.66 115.3 125.19 110.86 114.66 106.41" style="fill:#faa41a"/><text transform="translate(79.02 105.61)" style="font-size:9px;fill:#faa41a;font-family:MyriadPro-Regular, Myriad Pro"><tspan style="letter-spacing:-0.03298611111111111em">W</tspan><tspan x="7.32" y="0" style="letter-spacing:0.00005425347222222222em">eb</tspan><tspan x="16.95" y="0" style="letter-spacing:0.006022135416666667em">S</tspan><tspan x="21.44" y="0">ocket</tspan></text><line x1="125.19" y1="135.6" x2="74.98" y2="135.6" style="fill:none;stroke:#90c73e;stroke-linecap:round;stroke-miterlimit:10;stroke-width:2px"/><text transform="translate(80.15 130.35)" style="font-size:9px;fill:#90c73e;font-family:MyriadPro-Regular, Myriad Pro"><tspan style="letter-spacing:-0.03298611111111111em">W</tspan><tspan x="7.32" y="0" style="letter-spacing:0.00005425347222222222em">ebse</tspan><tspan x="25.02" y="0" style="letter-spacing:0.025010850694444444em">r</tspan><tspan x="28.19" y="0" style="letter-spacing:-0.009982638888888888em">v</tspan><tspan x="32.43" y="0">er</tspan></text><line x1="118.03" y1="160.34" x2="74.98" y2="160.34" style="fill:none;stroke:#a11d21;stroke-linecap:round;stroke-miterlimit:10;stroke-width:2px"/><polygon points="114.66 155.9 116.55 160.34 114.66 164.79 125.19 160.34 114.66 155.9" style="fill:#a11d21"/><text transform="translate(83.72 155.09)" style="font-size:9px;fill:#a11d21;font-family:MyriadPro-Regular, Myriad Pro">UDP Z21</text><line x1="49.79" y1="85.67" x2="49.79" y2="52.06" style="fill:none;stroke:#faa41a;stroke-linecap:round;stroke-miterlimit:10;stroke-width:2px"/><line x1="49.79" y1="52.06" x2="118.03" y2="52.06" style="fill:none;stroke:#faa41a;stroke-linecap:round;stroke-miterlimit:10;stroke-width:2px"/><polygon points="114.66 56.51 116.55 52.06 114.66 47.62 125.19 52.06 114.66 56.51" style="fill:#faa41a"/><line x1="25.04" y1="27.32" x2="118.03" y2="27.32" style="fill:none;stroke:#90c73e;stroke-linecap:round;stroke-miterlimit:10;stroke-width:2px"/><polygon points="114.66 31.76 116.55 27.32 114.66 22.87 125.19 27.32 114.66 31.76" style="fill:#90c73e"/><line x1="25.04" y1="85.67" x2="25.04" y2="27.32" style="fill:none;stroke:#90c73e;stroke-linecap:round;stroke-miterlimit:10;stroke-width:2px"/><line x1="58.48" y1="176.84" x2="58.48" y2="224.49" style="fill:none;stroke:#a11d21;stroke-linecap:round;stroke-miterlimit:10;stroke-width:2px"/><line x1="58.48" y1="224.49" x2="118.03" y2="224.49" style="fill:none;stroke:#a11d21;stroke-linecap:round;stroke-miterlimit:10;stroke-width:2px"/><polygon points="114.66 228.94 116.55 224.49 114.66 220.05 125.19 224.49 114.66 228.94" style="fill:#a11d21"/><line x1="204.49" y1="221.91" x2="239.08" y2="221.91" style="fill:none;stroke:#000;stroke-linecap:round;stroke-miterlimit:10;stroke-width:2px"/><polygon points="235.71 226.36 237.6 221.91 235.71 217.47 246.24 221.91 235.71 226.36"/><text transform="translate(217.24 216.66)" style="font-size:9px;fill:#231f20;font-family:MyriadPro-Regular, Myriad Pro">D<tspan x="5.99" y="0" style="letter-spacing:-0.020941840277777776em">C</tspan><tspan x="11.02" y="0">C</tspan></text><rect x="251.46" y="91.61" width="68.03" height="79.37" style="fill:#f7f7f7;stroke:#e2e2e2;stroke-linecap:round;stroke-linejoin:round;stroke-width:2px;opacity:0.7000000000000001"/><rect x="393.04" y="91.61" width="68.03" height="68.03" style="fill:#f7f7f7;stroke:#e2e2e2;stroke-linecap:round;stroke-linejoin:round;stroke-width:2px;opacity:0.7000000000000001"/><text transform="translate(344.07 71.37)" style="font-size:9px;fill:#fff;font-family:MyriadPro-Regular, Myriad Pro">RNe<tspan x="15.27" y="0" style="letter-spacing:-0.0048828125em">t</tspan><tspan x="18.21" y="0">-Bus</tspan></text><line x1="420.54" y1="186.87" x2="420.54" y2="169.2" style="fill:none;stroke:#9f9e9f;stroke-miterlimit:10"/><polygon points="422.76 170.88 420.54 169.94 418.31 170.88 420.54 165.62 422.76 170.88" style="fill:#9f9e9f"/><path d="M523.21,193v1.85l.92,1.85,1.85,1.85,1.85.92h16.61l1.85-.92,1.85-1.85.92-1.85v-3.69l-.92-1.85-1.85-1.85-1.85-.92H527.82l-1.85.92-1.85,1.85-.92,1.85V193Z" transform="translate(-37.76 -8.63)" style="fill:#010101;stroke:#010101"/><polyline points="476.09 184.37 434.57 184.37 434.57 165.62" style="fill:none;stroke:#9f9e9f;stroke-linecap:round;stroke-linejoin:round"/><polygon points="474.4 182.14 475.35 184.37 474.4 186.59 479.67 184.37 474.4 182.14" style="fill:#9f9e9f"/><circle cx="491.37" cy="184.37" r="2" style="fill:#ed2224;stroke:#ed2224;stroke-miterlimit:10"/><circle cx="498.37" cy="184.37" r="2" style="fill:#f6eb16;stroke:#f6eb16;stroke-miterlimit:10"/><circle cx="505.37" cy="184.37" r="2" style="fill:#6abd45;stroke:#6abd45;stroke-miterlimit:10"/><text transform="translate(388.37 178.88)" style="font-size:9px;fill:#a09f9f;font-family:MyriadPro-Regular, Myriad Pro"><tspan style="letter-spacing:0.009982638888888888em">I</tspan><tspan x="2.24" y="0">nputs</tspan></text><text transform="translate(439.87 178.88)" style="font-size:9px;fill:#a09f9f;font-family:MyriadPro-Regular, Myriad Pro"><tspan style="letter-spacing:0.0029296875em">O</tspan><tspan x="6.23" y="0">utputs</tspan></text><path d="M313.43,128.86a.67.67,0,0,1-.94,0l-3.67-3.67a.67.67,0,1,1,.94-.94l3.67,3.67a.67.67,0,0,1,0,.94Zm0,0" transform="translate(-37.76 -8.63)" style="fill:#c4c2b7"/><path d="M315.61,126.67a.67.67,0,0,1-.94,0L311,123a.67.67,0,0,1,.94-.94l3.67,3.67a.67.67,0,0,1,0,.94Zm0,0" transform="translate(-37.76 -8.63)" style="fill:#c4c2b7"/><path d="M317.79,124.49a.67.67,0,0,1-.94,0l-3.67-3.67a.67.67,0,0,1,.94-.94l3.67,3.67a.67.67,0,0,1,0,.94Zm0,0" transform="translate(-37.76 -8.63)" style="fill:#c4c2b7"/><path d="M320,122.31a.67.67,0,0,1-.94,0l-3.67-3.67a.67.67,0,0,1,.94-.94l3.67,3.67a.67.67,0,0,1,0,.94Zm0,0" transform="translate(-37.76 -8.63)" style="fill:#c4c2b7"/><path d="M322.15,120.13a.67.67,0,0,1-.94,0l-3.67-3.67a.67.67,0,0,1,.94-.94l3.67,3.67a.67.67,0,0,1,0,.94Zm0,0" transform="translate(-37.76 -8.63)" style="fill:#c4c2b7"/><path d="M328.86,144.29a.67.67,0,0,1-.94,0l-3.67-3.67a.67.67,0,0,1,.94-.94l3.67,3.67a.67.67,0,0,1,0,.94Zm0,0" transform="translate(-37.76 -8.63)" style="fill:#c4c2b7"/><path d="M331,142.11a.67.67,0,0,1-.94,0l-3.67-3.67a.67.67,0,0,1,.94-.94l3.67,3.67a.67.67,0,0,1,0,.94Zm0,0" transform="translate(-37.76 -8.63)" style="fill:#c4c2b7"/><path d="M333.22,139.93a.67.67,0,0,1-.94,0l-3.67-3.67a.67.67,0,0,1,.94-.94l3.67,3.67a.67.67,0,0,1,0,.94Zm0,0" transform="translate(-37.76 -8.63)" style="fill:#c4c2b7"/><path d="M335.41,137.74a.67.67,0,0,1-.94,0l-3.67-3.67a.67.67,0,0,1,.94-.94l3.67,3.67a.67.67,0,0,1,0,.94Zm0,0" transform="translate(-37.76 -8.63)" style="fill:#c4c2b7"/><g style="clip-path:url(#a)"><path d="M337.59,135.56a.67.67,0,0,1-.94,0L333,131.89a.67.67,0,0,1,.94-.94l3.67,3.67a.67.67,0,0,1,0,.94Zm0,0" transform="translate(-37.76 -8.63)" style="fill:#c4c2b7"/><path d="M328.86,116.46l-3.67,3.67a.67.67,0,0,1-.94-.94l3.67-3.67a.67.67,0,0,1,.94.94Zm0,0" transform="translate(-37.76 -8.63)" style="fill:#c4c2b7"/><path d="M331,118.64l-3.67,3.67a.67.67,0,1,1-.94-.94l3.67-3.67a.67.67,0,0,1,.94.94Zm0,0" transform="translate(-37.76 -8.63)" style="fill:#c4c2b7"/><path d="M333.22,120.82l-3.67,3.67a.67.67,0,0,1-.94-.94l3.67-3.67a.67.67,0,0,1,.94.94Zm0,0" transform="translate(-37.76 -8.63)" style="fill:#c4c2b7"/><path d="M335.41,123l-3.67,3.67a.67.67,0,0,1-.94-.94l3.67-3.67a.67.67,0,0,1,.94.94Zm0,0" transform="translate(-37.76 -8.63)" style="fill:#c4c2b7"/><path d="M337.59,125.19l-3.67,3.67a.67.67,0,0,1-.94-.94l3.67-3.67a.67.67,0,1,1,.94.94Zm0,0" transform="translate(-37.76 -8.63)" style="fill:#c4c2b7"/></g><path d="M313.43,131.89l-3.67,3.67a.67.67,0,0,1-.94-.94l3.67-3.67a.67.67,0,0,1,.94.94Zm0,0" transform="translate(-37.76 -8.63)" style="fill:#c4c2b7"/><path d="M315.61,134.08l-3.67,3.67a.67.67,0,0,1-.94-.94l3.67-3.67a.67.67,0,0,1,.94.94Zm0,0" transform="translate(-37.76 -8.63)" style="fill:#c4c2b7"/><path d="M317.79,136.26l-3.67,3.67a.67.67,0,1,1-.94-.94l3.67-3.67a.67.67,0,0,1,.94.94Zm0,0" transform="translate(-37.76 -8.63)" style="fill:#c4c2b7"/><path d="M320,138.44l-3.67,3.67a.67.67,0,0,1-.94-.94L319,137.5a.67.67,0,0,1,.94.94Zm0,0" transform="translate(-37.76 -8.63)" style="fill:#c4c2b7"/><path d="M322.15,140.62l-3.67,3.67a.67.67,0,1,1-.94-.94l3.67-3.67a.67.67,0,0,1,.94.94Zm0,0" transform="translate(-37.76 -8.63)" style="fill:#c4c2b7"/><path d="M310.84,128.73,322,117.54a1.66,1.66,0,0,1,2.35,0l11.19,11.19a1.66,1.66,0,0,1,0,2.35l-11.19,11.19a1.66,1.66,0,0,1-2.35,0l-11.19-11.19a1.66,1.66,0,0,1,0-2.35Zm0,0" transform="translate(-37.76 -8.63)" style="fill:#1a1a1a"/><circle cx="313.26" cy="129.9" r="0.88" transform="translate(-37.86 250.93) rotate(-45)" style="fill:#c4c2b7"/><path d="M453.36,137.14l-2.57,2.57a.47.47,0,0,1-.66-.66l2.57-2.57a.47.47,0,0,1,.66.66Zm0,0" transform="translate(-37.76 -8.63)" style="fill:#c4c2b7"/><path d="M454.89,138.67l-2.57,2.57a.47.47,0,0,1-.66-.66l2.57-2.57a.47.47,0,0,1,.66.66Zm0,0" transform="translate(-37.76 -8.63)" style="fill:#c4c2b7"/><path d="M456.41,140.2l-2.57,2.57a.47.47,0,0,1-.66-.66l2.57-2.57a.47.47,0,0,1,.66.66Zm0,0" transform="translate(-37.76 -8.63)" style="fill:#c4c2b7"/><path d="M457.94,141.72l-2.57,2.57a.47.47,0,1,1-.66-.66l2.57-2.57a.47.47,0,0,1,.66.66Zm0,0" transform="translate(-37.76 -8.63)" style="fill:#c4c2b7"/><path d="M459.46,143.25l-2.57,2.57a.47.47,0,0,1-.66-.66l2.57-2.57a.47.47,0,0,1,.66.66Zm0,0" transform="translate(-37.76 -8.63)" style="fill:#c4c2b7"/><path d="M461,144.77l-2.57,2.57a.47.47,0,0,1-.66-.66l2.57-2.57a.47.47,0,0,1,.66.66Zm0,0" transform="translate(-37.76 -8.63)" style="fill:#c4c2b7"/><path d="M462.52,146.3,460,148.86a.47.47,0,0,1-.66-.66l2.57-2.57a.47.47,0,0,1,.66.66Zm0,0" transform="translate(-37.76 -8.63)" style="fill:#c4c2b7"/><path d="M464,147.82l-2.57,2.57a.47.47,0,1,1-.66-.66l2.57-2.57a.47.47,0,0,1,.66.66Zm0,0" transform="translate(-37.76 -8.63)" style="fill:#c4c2b7"/><path d="M451.85,135.63l-2.57,2.57a.47.47,0,0,1-.66-.66l2.57-2.57a.47.47,0,0,1,.66.66Zm0,0" transform="translate(-37.76 -8.63)" style="fill:#c4c2b7"/><path d="M470.22,120.36l-2.57,2.57a.47.47,0,0,1-.66-.66l2.57-2.57a.47.47,0,0,1,.66.66Zm0,0" transform="translate(-37.76 -8.63)" style="fill:#c4c2b7"/><path d="M471.74,121.88l-2.57,2.57a.47.47,0,0,1-.66-.66l2.57-2.57a.47.47,0,0,1,.66.66Zm0,0" transform="translate(-37.76 -8.63)" style="fill:#c4c2b7"/><path d="M473.27,123.41,470.7,126a.47.47,0,0,1-.66-.66l2.57-2.57a.47.47,0,0,1,.66.66Zm0,0" transform="translate(-37.76 -8.63)" style="fill:#c4c2b7"/><path d="M474.79,124.93l-2.57,2.57a.47.47,0,1,1-.66-.66l2.57-2.57a.47.47,0,0,1,.66.66Zm0,0" transform="translate(-37.76 -8.63)" style="fill:#c4c2b7"/><path d="M476.32,126.46,473.75,129a.47.47,0,0,1-.66-.66l2.57-2.57a.47.47,0,0,1,.66.66Zm0,0" transform="translate(-37.76 -8.63)" style="fill:#c4c2b7"/><path d="M477.85,128l-2.57,2.57a.47.47,0,1,1-.66-.66l2.57-2.57a.47.47,0,0,1,.66.66Zm0,0" transform="translate(-37.76 -8.63)" style="fill:#c4c2b7"/><path d="M479.37,129.51l-2.57,2.57a.47.47,0,0,1-.66-.66l2.57-2.57a.47.47,0,0,1,.66.66Zm0,0" transform="translate(-37.76 -8.63)" style="fill:#c4c2b7"/><path d="M480.9,131l-2.57,2.57a.47.47,0,0,1-.66-.66l2.57-2.57a.47.47,0,0,1,.66.66Zm0,0" transform="translate(-37.76 -8.63)" style="fill:#c4c2b7"/><path d="M468.7,118.84l-2.57,2.57a.47.47,0,0,1-.66-.66l2.57-2.57a.47.47,0,0,1,.66.66Zm0,0" transform="translate(-37.76 -8.63)" style="fill:#c4c2b7"/><path d="M451.84,133.5a.47.47,0,0,1-.66,0l-2.57-2.57a.47.47,0,1,1,.66-.66l2.57,2.57a.47.47,0,0,1,0,.66Zm0,0" transform="translate(-37.76 -8.63)" style="fill:#c4c2b7"/><path d="M453.37,132a.47.47,0,0,1-.66,0l-2.57-2.57a.47.47,0,0,1,.66-.66l2.57,2.57a.47.47,0,0,1,0,.66Zm0,0" transform="translate(-37.76 -8.63)" style="fill:#c4c2b7"/><path d="M454.89,130.45a.47.47,0,0,1-.66,0l-2.57-2.57a.47.47,0,0,1,.66-.66l2.57,2.57a.47.47,0,0,1,0,.66Zm0,0" transform="translate(-37.76 -8.63)" style="fill:#c4c2b7"/><path d="M456.42,128.92a.47.47,0,0,1-.66,0l-2.57-2.57a.47.47,0,1,1,.66-.66l2.57,2.57a.47.47,0,0,1,0,.66Zm0,0" transform="translate(-37.76 -8.63)" style="fill:#c4c2b7"/><path d="M457.94,127.39a.47.47,0,0,1-.66,0l-2.57-2.57a.47.47,0,0,1,.66-.66l2.57,2.57a.47.47,0,0,1,0,.66Zm0,0" transform="translate(-37.76 -8.63)" style="fill:#c4c2b7"/><path d="M468.8,150.46a.47.47,0,0,1-.66,0l-2.57-2.57a.47.47,0,0,1,.66-.66l2.57,2.57a.47.47,0,0,1,0,.66Zm0,0" transform="translate(-37.76 -8.63)" style="fill:#c4c2b7"/><path d="M470.33,148.93a.47.47,0,0,1-.66,0l-2.57-2.57a.47.47,0,0,1,.66-.66l2.57,2.57a.47.47,0,0,1,0,.66Zm0,0" transform="translate(-37.76 -8.63)" style="fill:#c4c2b7"/><path d="M471.85,147.41a.47.47,0,0,1-.66,0l-2.57-2.57a.47.47,0,1,1,.66-.66l2.57,2.57a.47.47,0,0,1,0,.66Zm0,0" transform="translate(-37.76 -8.63)" style="fill:#c4c2b7"/><path d="M473.38,145.88a.47.47,0,0,1-.66,0l-2.57-2.57a.47.47,0,1,1,.66-.66l2.57,2.57a.47.47,0,0,1,0,.66Zm0,0" transform="translate(-37.76 -8.63)" style="fill:#c4c2b7"/><path d="M474.9,144.36a.47.47,0,0,1-.66,0l-2.57-2.57a.47.47,0,0,1,.66-.66l2.57,2.57a.47.47,0,0,1,0,.66Zm0,0" transform="translate(-37.76 -8.63)" style="fill:#c4c2b7"/><path d="M476.43,142.83a.47.47,0,0,1-.66,0l-2.57-2.57a.47.47,0,0,1,.66-.66l2.57,2.57a.47.47,0,0,1,0,.66Zm0,0" transform="translate(-37.76 -8.63)" style="fill:#c4c2b7"/><path d="M478,141.3a.47.47,0,0,1-.66,0l-2.57-2.57a.47.47,0,0,1,.66-.66l2.57,2.57a.47.47,0,0,1,0,.66Zm0,0" transform="translate(-37.76 -8.63)" style="fill:#c4c2b7"/><path d="M479.48,139.78a.47.47,0,0,1-.66,0l-2.57-2.57a.47.47,0,1,1,.66-.66l2.57,2.57a.47.47,0,0,1,0,.66Zm0,0" transform="translate(-37.76 -8.63)" style="fill:#c4c2b7"/><path d="M481,138.25a.47.47,0,0,1-.66,0l-2.57-2.57a.47.47,0,0,1,.66-.66l2.57,2.57a.47.47,0,0,1,0,.66Zm0,0" transform="translate(-37.76 -8.63)" style="fill:#c4c2b7"/><path d="M459.47,125.87a.47.47,0,0,1-.66,0l-2.57-2.57a.47.47,0,0,1,.66-.66l2.57,2.57a.47.47,0,0,1,0,.66Zm0,0" transform="translate(-37.76 -8.63)" style="fill:#c4c2b7"/><path d="M461,124.34a.47.47,0,0,1-.66,0l-2.57-2.57a.47.47,0,0,1,.66-.66l2.57,2.57a.47.47,0,0,1,0,.66Zm0,0" transform="translate(-37.76 -8.63)" style="fill:#c4c2b7"/><path d="M462.52,122.82a.47.47,0,0,1-.66,0l-2.57-2.57a.47.47,0,1,1,.66-.66l2.57,2.57a.47.47,0,0,1,0,.66Zm0,0" transform="translate(-37.76 -8.63)" style="fill:#c4c2b7"/><path d="M464,121.29a.47.47,0,0,1-.66,0l-2.57-2.57a.47.47,0,0,1,.66-.66l2.57,2.57a.47.47,0,0,1,0,.66Zm0,0" transform="translate(-37.76 -8.63)" style="fill:#c4c2b7"/><path d="M450,133.41l14-14a1.16,1.16,0,0,1,1.64,0l14,14a1.16,1.16,0,0,1,0,1.64l-14,14a1.16,1.16,0,0,1-1.64,0l-14-14a1.16,1.16,0,0,1,0-1.64Zm0,0" transform="translate(-37.76 -8.63)" style="fill:#1a1a1a"/><circle cx="451.73" cy="134.23" r="0.62" transform="translate(-0.37 350.1) rotate(-45)" style="fill:#c4c2b7"/><text transform="translate(266.16 167.73)" style="font-size:9px;fill:#7f7f7f;font-family:MyriadPro-Regular, Myriad Pro">RNet <tspan x="20.16" y="0" style="letter-spacing:-0.020941840277777776em">C</tspan><tspan x="25.19" y="0">OM</tspan></text><text transform="translate(402.52 156.4)" style="font-size:9px;fill:#7f7f7f;font-family:MyriadPro-Regular, Myriad Pro">RNet <tspan x="20.16" y="0" style="letter-spacing:0.005967881944444444em">M</tspan><tspan x="27.45" y="0">odule</tspan></text><line x1="204.44" y1="139.72" x2="239.02" y2="139.72" style="fill:none;stroke:#38419a;stroke-linecap:round;stroke-miterlimit:10;stroke-width:2px"/><polygon points="235.65 144.16 237.54 139.72 235.65 135.27 246.19 139.72 235.65 144.16" style="fill:#38419a"/><text transform="translate(215.1 134.47)" style="font-size:9px;fill:#384399;font-family:MyriadPro-Regular, Myriad Pro"><tspan style="letter-spacing:-0.03396267361111111em">U</tspan><tspan x="5.52" y="0">A</tspan><tspan x="11.02" y="0" style="letter-spacing:0.009006076388888888em">R</tspan><tspan x="15.95" y="0">T</tspan></text><text transform="translate(216.19 150.25)" style="font-size:9px;fill:#384399;font-family:MyriadPro-Regular, Myriad Pro">RNet</text></svg>