<svg width='233.06601717798' height='242' viewBox='0 0 213.06601717798 242'><g class="B0"><line class="L" nr="0" part="RS" transform="translate(10,39.289321881345) rotate(0)" x2="82" y2="0" style="fill:none;stroke:#555;stroke-width:6px;"/><path class="L" nr="1" part="CRail" transform="translate(92,39.289321881345) rotate(0)" d="M 0,0 a 50,50 0,0,0 35.35533905932737,-14.64466094067262" style="fill:none;stroke:#555;stroke-width:6px;"/><path class="L" nr="2" part="CRail" transform="translate(162.71067811865,10) rotate(180)" d="M 0,0 a 50,50 0,0,0 35.35533905932737,-14.64466094067262" style="fill:none;stroke:#555;stroke-width:6px;"/></g><g class="B1"><g class="Sw0"><line class="L SwS0o" nr="5" part="RS" transform="translate(212.71067811865,60) rotate(90)" x2="162" y2="0" style="fill:none;stroke:lightgrey;stroke-width:6px;"/><path class="L SwS0" nr="4" part="CRail" transform="translate(198.06601717798,95.355339059327) rotate(315)" d="M 0,0 a 50,50 0,0,0 35.35533905932737,-14.64466094067262" style="fill:none;stroke:#555;stroke-width:6px;"/><path class="L SwS1o" nr="4" part="CRail" transform="translate(198.06601717798,95.355339059327) rotate(315)" d="M 0,0 a 50,50 0,0,0 35.35533905932737,-14.64466094067262" style="fill:none;stroke:lightgrey;stroke-width:6px;opacity:0;"/><line class="L SwS1" nr="5" part="RS" transform="translate(212.71067811865,60) rotate(90)" x2="162" y2="0" style="fill:none;stroke:#555;stroke-width:6px;opacity:0;"/></g><path class="L" nr="3" part="CRail" transform="translate(212.71067811865,60) rotate(270)" d="M 0,0 a 50,50 0,0,0 50,-49.99999999999999" style="fill:none;stroke:#555;stroke-width:6px;"/></g><g class="B3"><line class="L" nr="6" part="RS" transform="translate(10,68.578621881345) rotate(0)" x2="35.36" y2="0" style="fill:none;stroke:#555;stroke-width:6px;"/><path class="L" nr="8" part="CRail" transform="translate(91.553976625564,99.444450263091) rotate(247)" d="M 0,0 a 50,50 0,0,0 46.19397662556434,-30.86582838174551" style="fill:none;stroke:#555;stroke-width:6px;"/></g><g class="B2"><g class="Sw1"><path class="L SwS0o" nr="10" part="CRail" transform="translate(137.74795325113,130.31027864484) rotate(0)" d="M 0,0 a 61.2319987690352,61.2319987690352 0,0,0 43.297561555190896,-17.934437213846593 l 17.02050237166236,-17.020502371662303" style="fill:none;stroke:lightgrey;stroke-width:6px;"/><path class="L SwS0" nr="11" part="CRail" transform="translate(183.42137811865,186.64) rotate(0)" d="M 0,0 l 0,-10.656296487630982 a 45.67342486752818,45.67342486752818 0,0,0 -45.67342486752591,-45.67342486753273" style="fill:none;stroke:#555;stroke-width:6px;"/><path class="L SwS1o" nr="11" part="CRail" transform="translate(183.42137811865,186.64) rotate(0)" d="M 0,0 l 0,-10.656296487630982 a 45.67342486752818,45.67342486752818 0,0,0 -45.67342486752591,-45.67342486753273" style="fill:none;stroke:lightgrey;stroke-width:6px;opacity:0;"/><path class="L SwS1" nr="10" part="CRail" transform="translate(137.74795325113,130.31027864484) rotate(0)" d="M 0,0 a 61.2319987690352,61.2319987690352 0,0,0 43.297561555190896,-17.934437213846593 l 17.02050237166236,-17.020502371662303" style="fill:none;stroke:#555;stroke-width:6px;opacity:0;"/></g><line class="L" nr="7" part="RS" transform="translate(183.42137811865,186.64) rotate(90)" x2="35.36" y2="0" style="fill:none;stroke:#555;stroke-width:6px;"/><path class="L" nr="9" part="CRail" transform="translate(91.553976625564,99.444450263091) rotate(67)" d="M 0,0 a 50,50 0,0,0 46.19397662556434,-30.86582838174551" style="fill:none;stroke:#555;stroke-width:6px;"/></g><g class='Signals'></g></svg>