<svg xmlns="http://www.w3.org/2000/svg" viewBox="0 0 50 50"><title>Asset 1</title><path d="M0,5A5,5,0,0,1,5,0H45a5,5,0,0,1,5,5h0V45a5,5,0,0,1-5,5H5a5,5,0,0,1-5-5H0Z" style="fill:#ddd"/><path d="M45,38.53,27.14,8.89a2.5,2.5,0,0,0-4.27,0L5,38.53a2.5,2.5,0,0,0,2.14,3.78H42.87A2.5,2.5,0,0,0,45,38.53ZM25,17.94a1.69,1.69,0,0,1,1.89,1.61c0,3.13-.37,7.63-.37,10.76,0,.82-.89,1.16-1.53,1.16-.84,0-1.55-.34-1.55-1.16,0-3.13-.37-7.63-.37-10.76C23.09,18.52,23.93,17.94,25,17.94Zm0,19.39a2,2,0,1,1,2-2A2.06,2.06,0,0,1,25,37.33Z" style="fill:#d80027"/></svg>