<svg xmlns="http://www.w3.org/2000/svg" viewBox="0 0 21 21" tool="tot" type="edit">
  <path d="M6.18,9.27a1.55,1.55,0,0,1,1.3.44l.86.86.81-.81L8,8.59a.47.47,0,0,1,.66-.66L9.82,9.1l.81-.81-.86-.86
            a1.55,1.55,0,0,1-.44-1.3A3.66,3.66,0,0,0,5.16,2,.22.22,0,0,0,5,2.39L6.14,3.5a1.34,1.34,0,0,1,0,1.9l-.68.68
            a1.34,1.34,0,0,1-1.9,0L2.45,5a.22.22,0,0,0-.37.12,3.66,3.66,0,0,0,4.1,4.17Z"/>
  <path d="M13.07,10.73l-.81.81,4.83,4.83a.47.47,0,1,1-.66.66l-4.83-4.83-.81.81,5,5A1.62,1.62,0,0,0,18,15.71Z"/>
  <path d="M14.94,7.5h2.15l2.15-4.29L18.16,2.14l-4.3,2.14V6.43L8,12.25,7,11.2,2.75,15.44a2.26,2.26,0,0,0,3.19,3.19l4.23-4.23L9.1,13.32Z"/>
</svg>
